<svg id="Capa_1" enable-background="new 0 0 512 512" height="512" viewBox="0 0 512 512" width="512" xmlns="http://www.w3.org/2000/svg"><g><g><path d="m324.333 0h-68.333l-21.333 85.333 21.333 72.667h68.333z" fill="#444"/><path d="m187.667 0h68.333v158h-68.333z" fill="#666"/></g><g><path d="m404.333 250.492v-116.159h-148.333l-21.333 196.334 21.333 181.333h148.333v-121.997h-21.333v-139.511z" fill="#00b6be"/><path d="m107.666 134.333v116.159h21.333v139.511h-21.333v121.997h148.334v-377.667z" fill="#00d7df"/></g><g><path d="m352 250h-96l-10.667 70 10.667 70h96z" fill="#f7f0eb"/><path d="m160 250h96v140h-96z" fill="#fff"/></g><g><path d="m304 305.248h-48l-10.667 14.752 10.667 15.248h48z" fill="#006468"/><path d="m207.999 305.248h48v30h-48z" fill="#00969c"/></g></g></svg>