<svg height="512" viewBox="0 0 128 128" width="512" xmlns="http://www.w3.org/2000/svg"><g><g><path d="m48.087 17.145c3.261 5.1.97 12.387.97 12.387s-7.578-.976-10.839-6.073-.97-12.387-.97-12.387 7.578.976 10.839 6.073z" fill="#bae543"/><path d="m56.2 53.376-11.517-.131c.66-15.6 4.37-32.054 15.492-46.745l4.783 3.621c-9.1 12.022-7.983 24.963-8.758 43.255z" fill="#663325"/><path d="m98.479 72.51c0 21.491-15.521 38.909-34.662 38.909-5.27 0-7.512-.965-11.328-2.14-3.815 1.175-6.068 2.14-11.327 2.14-19.142 0-34.662-17.419-34.662-38.909s15.52-38.919 34.662-38.919a31.171 31.171 0 0 1 11.327 2.134 31.176 31.176 0 0 1 11.328-2.134c19.141 0 34.662 17.428 34.662 38.919z" fill="#ffd203"/><path d="m121.5 85.529c0 19.869-13.977 35.971-31.215 35.971-4.747 0-6.766-.892-10.2-1.978-3.436 1.086-5.464 1.978-10.2 1.978-17.238 0-31.215-16.1-31.215-35.971s13.977-35.98 31.215-35.98a27.409 27.409 0 0 1 10.2 1.973 27.418 27.418 0 0 1 10.2-1.973c17.238 0 31.215 16.112 31.215 35.98z" fill="#f09418"/><ellipse cx="78.983" cy="85.524" fill="#663325" rx="10.684" ry="19.858"/></g><g fill="#1e0c30"><path d="m16.573 46.83a1.744 1.744 0 0 0 1.312-.591 34.845 34.845 0 0 1 3.222-3.2 1.75 1.75 0 1 0 -2.3-2.641 38.259 38.259 0 0 0 -3.547 3.521 1.75 1.75 0 0 0 1.31 2.909z"/><path d="m92.8 47.919c-6.871-10.078-17.633-16.079-28.98-16.079a32.563 32.563 0 0 0 -4.927.381 59.121 59.121 0 0 1 1.024-6.746 1.75 1.75 0 0 0 -3.421-.741 65.149 65.149 0 0 0 -1.188 8.234q-1.422.382-2.818.892a32.448 32.448 0 0 0 -3.122-.958c.285-1.079.559-2.047.839-2.952.363-1.217.766-2.431 1.2-3.616a70.946 70.946 0 0 1 9.12-17.371l2.012 1.52a37.471 37.471 0 0 0 -2.655 4.474 1.75 1.75 0 1 0 3.126 1.574 34.524 34.524 0 0 1 3.346-5.355 1.75 1.75 0 0 0 -.34-2.452l-4.791-3.624a1.752 1.752 0 0 0 -2.45.338 73.706 73.706 0 0 0 -8 13.3 11.749 11.749 0 0 0 -1.21-2.531c-3.657-5.724-11.747-6.829-12.09-6.873a1.745 1.745 0 0 0 -1.893 1.211c-.1.329-2.493 8.135 1.164 13.856 2.416 3.782 6.706 5.541 9.585 6.331-.132.472-.265.969-.4 1.486a33.5 33.5 0 0 0 -21.643 4.242 1.75 1.75 0 1 0 1.767 3.021 29.5 29.5 0 0 1 25.8-2.12 1.748 1.748 0 0 0 1.269 0 29.4 29.4 0 0 1 10.7-2.021c9.4 0 18.376 4.638 24.588 12.526a29.139 29.139 0 0 0 -8.325 1.78 29.088 29.088 0 0 0 -10.2-1.847c-18.177 0-32.965 16.926-32.965 37.73a40.974 40.974 0 0 0 7.525 23.963 28.871 28.871 0 0 1 -3.282.178c-18.151 0-32.915-16.67-32.915-37.16a40.484 40.484 0 0 1 5.466-20.51 1.75 1.75 0 0 0 -3.016-1.776 43.991 43.991 0 0 0 -5.95 22.286c0 22.42 16.333 40.66 36.41 40.66a29.487 29.487 0 0 0 5.84-.528 30.836 30.836 0 0 0 22.882 10.608 26.047 26.047 0 0 0 9.469-1.652l.732-.239c.254.082.5.162.743.242a25.988 25.988 0 0 0 9.459 1.649c18.177 0 32.965-16.922 32.965-37.721 0-19.837-13.45-36.135-30.45-37.61zm-53.1-25.4c-1.953-3.055-1.548-7.2-1.132-9.4 2.171.541 6.09 1.9 8.053 4.976a12 12 0 0 1 1.415 7.291q-.357.988-.684 1.995c-2.233-.607-5.818-1.981-7.652-4.863zm50.59 97.232a22.81 22.81 0 0 1 -8.374-1.477c-.415-.135-.845-.276-1.3-.419a1.738 1.738 0 0 0 -1.055 0c-.451.142-.878.282-1.29.416a22.89 22.89 0 0 1 -8.384 1.48c-16.247 0-29.465-15.352-29.465-34.221s13.213-34.23 29.46-34.23a25.679 25.679 0 0 1 9.553 1.847 1.741 1.741 0 0 0 1.3 0 25.679 25.679 0 0 1 9.55-1.847c16.247 0 29.465 15.355 29.465 34.23s-13.218 34.22-29.465 34.22z"/><path d="m111.8 101.262a1.753 1.753 0 0 0 -2.4.611 27.238 27.238 0 0 1 -4.093 5.312 1.75 1.75 0 0 0 2.482 2.468 30.735 30.735 0 0 0 4.621-5.993 1.75 1.75 0 0 0 -.61-2.398z"/><path d="m78.983 63.917c-6.972 0-12.434 9.491-12.434 21.607s5.462 21.608 12.434 21.608c5.152 0 9.685-5.3 11.551-13.489a1.75 1.75 0 0 0 -3.413-.778c-1.466 6.441-4.736 10.767-8.138 10.767-4.842 0-8.934-8.292-8.934-18.108s4.092-18.107 8.934-18.107c4.473 0 8.463 7.364 8.893 16.417a1.75 1.75 0 0 0 3.5-.166c-.54-11.26-5.866-19.751-12.393-19.751z"/></g></g></svg>