<?xml version="1.0" encoding="iso-8859-1"?>
<!-- Generator: Adobe Illustrator 19.0.0, SVG Export Plug-In . SVG Version: 6.00 Build 0)  -->
<svg version="1.1" id="Capa_1" xmlns="http://www.w3.org/2000/svg" xmlns:xlink="https://www.w3.org/1999/xlink" x="0px" y="0px"
	 viewBox="0 0 511.998 511.998" style="enable-background:new 0 0 511.998 511.998;" xml:space="preserve">
<path style="fill:#498960;" d="M333.727,201.853l-12.485,39.424l-71.137,97.416L148.05,231.999l25.98-65.167
	c2.175-17.32,7.505-34.053,14.444-49.579c23.537-52.61,65.559-91.271,65.559-91.271s67.394,61.992,79.281,135.819
	C335.417,174.863,335.788,188.318,333.727,201.853z"/>
<path style="fill:#60A571;" d="M333.314,161.8c-14.598,6.98-30.939,10.887-48.208,10.887c-41.197,0-77.209-22.269-96.632-55.435
	c23.537-52.61,65.559-91.271,65.559-91.271S321.427,87.973,333.314,161.8z"/>
<g>
	<path style="fill:#336D4D;" d="M254.032,222.808c-4.27,0-7.732-3.462-7.732-7.732v-90.409c0-4.27,3.462-7.732,7.732-7.732
		c4.271,0,7.732,3.462,7.732,7.732v90.409C261.764,219.346,258.302,222.808,254.032,222.808z"/>
	<path style="fill:#336D4D;" d="M254.032,192.815c-2.051,0-4.018-0.814-5.467-2.265l-39.669-39.669c-3.02-3.02-3.02-7.916,0-10.934
		c3.02-3.02,7.916-3.02,10.934,0l34.201,34.202l34.202-34.202c3.022-3.021,7.917-3.02,10.935,0s3.02,7.916,0,10.934l-39.671,39.669
		C258.049,192,256.083,192.815,254.032,192.815z"/>
</g>
<path style="fill:#60A571;" d="M243.558,353.796l-83.488,63.703C84.656,433.242,0.003,386.426,0.003,386.426
	S19.396,343.167,54.964,306c8.33-8.701,17.537-17.062,27.599-24.465l59.301-83.56l60.858,93.251L243.558,353.796z"/>
<path style="fill:#498960;" d="M202.722,291.227c-0.691,12.815-2.722,26.671-6.289,41.672
	C128.894,348.971,84.336,333.826,54.964,306c8.33-8.701,17.537-17.062,27.599-24.465l59.301-83.56L202.722,291.227z"/>
<path style="fill:#60A571;" d="M198.09,289.74C247.685,81.383,0.085,91.735,0.085,91.735S-10.267,339.336,198.09,289.74z"/>
<g>
	<path style="fill:#336D4D;" d="M222.429,321.81c-1.978,0-3.958-0.755-5.467-2.265L64.399,166.983c-3.02-3.02-3.02-7.916,0-10.934
		c3.02-3.02,7.916-3.02,10.934,0l152.562,152.562c3.02,3.02,3.02,7.916,0,10.934C226.387,321.055,224.407,321.81,222.429,321.81z"/>
	<path style="fill:#336D4D;" d="M112.587,211.969h-56.1c-4.27,0-7.732-3.462-7.732-7.732c0-4.27,3.462-7.732,7.732-7.732h48.369
		v-48.369c0-4.27,3.462-7.732,7.732-7.732c4.27,0,7.732,3.462,7.732,7.732v56.101C120.319,208.508,116.858,211.969,112.587,211.969z
		"/>
	<path style="fill:#336D4D;" d="M53.818,376.201c-3.236,0-6.253-2.047-7.333-5.287c-1.352-4.051,0.836-8.43,4.887-9.782
		l138.234-46.128c4.052-1.351,8.43,0.836,9.782,4.887c1.352,4.051-0.836,8.43-4.887,9.782l-138.234,46.13
		C55.455,376.072,54.63,376.201,53.818,376.201z"/>
	<path style="fill:#336D4D;" d="M100.695,403.065c-1.161,0-2.34-0.262-3.45-0.817c-3.82-1.909-5.369-6.553-3.461-10.374
		l21.617-43.269l-43.27-21.616c-3.82-1.909-5.369-6.553-3.461-10.374c1.908-3.82,6.552-5.369,10.374-3.461l50.186,25.072
		c1.834,0.917,3.23,2.525,3.878,4.469c0.65,1.945,0.499,4.068-0.418,5.903l-25.072,50.186
		C106.265,401.497,103.533,403.065,100.695,403.065z"/>
	<path style="fill:#336D4D;" d="M162.087,261.47H90.194c-4.27,0-7.732-3.462-7.732-7.732c0-4.27,3.462-7.732,7.732-7.732h64.161
		v-64.161c0-4.27,3.462-7.732,7.732-7.732c4.27,0,7.732,3.462,7.732,7.732v71.893C169.82,258.008,166.358,261.47,162.087,261.47z"/>
</g>
<circle style="fill:#ED4444;" cx="309.918" cy="289.639" r="105.952"/>
<path style="fill:#C73636;" d="M267.999,289.636c0-47.355,31.069-87.45,73.934-101.024c-10.102-3.199-20.858-4.93-32.021-4.93
	c-58.517,0-105.954,47.438-105.954,105.954s47.437,105.953,105.954,105.953c11.161,0,21.917-1.731,32.021-4.93
	C299.069,377.086,267.999,336.992,267.999,289.636z"/>
<circle style="fill:#ED4444;" cx="406.046" cy="324.094" r="105.952"/>
<path style="fill:#C73636;" d="M364.133,324.096c0-47.355,31.069-87.45,73.934-101.024c-10.102-3.199-20.858-4.93-32.021-4.93
	c-58.517,0-105.954,47.438-105.954,105.954c0,58.517,47.437,105.953,105.954,105.953c11.161,0,21.917-1.731,32.021-4.93
	C395.202,411.546,364.133,371.452,364.133,324.096z"/>
<circle style="fill:#ED4444;" cx="259.205" cy="380.065" r="105.952"/>
<path style="fill:#C73636;" d="M217.293,380.064c0-47.355,31.069-87.45,73.934-101.024c-10.102-3.199-20.858-4.93-32.021-4.93
	c-58.517,0-105.954,47.438-105.954,105.954s47.437,105.953,105.954,105.953c11.161,0,21.917-1.731,32.021-4.93
	C248.363,467.513,217.293,427.419,217.293,380.064z"/>
<g>
	<circle style="fill:#333333;" cx="288.763" cy="384.519" r="28.094"/>
	<ellipse style="fill:#333333;" cx="403.994" cy="265.391" rx="32.914" ry="16.806"/>
</g>
<g>
</g>
<g>
</g>
<g>
</g>
<g>
</g>
<g>
</g>
<g>
</g>
<g>
</g>
<g>
</g>
<g>
</g>
<g>
</g>
<g>
</g>
<g>
</g>
<g>
</g>
<g>
</g>
<g>
</g>
</svg>
