<svg height="512" viewBox="0 0 60 56" width="512" xmlns="http://www.w3.org/2000/svg"><g id="001---Swiss-Cheese" fill="none"><g id="Icons"><path id="Shape" d="m51.35 35.26c1.068902 3.2138225 4.3039326 5.1844425 7.65 4.66v13.08c-.0032948 1.1032019-.8967981 1.9967052-2 2h-54c-1.10320187-.0032948-1.9967052-.8967981-2-2v-35h58v8.08c-.986068-.1512723-1.9933728-.0829805-2.95.2-1.8379032.5323006-3.378829 1.791859-4.2661117 3.4871353-.8872827 1.6952762-1.0440038 3.6793071-.4338883 5.4928647z" fill="#e8edfc"/><path id="Shape" d="m56.05 26.28c.9566272-.2829805 1.963932-.3512723 2.95-.2v-8.08h-3v8.08c-.986068-.1512723-1.9933728-.0829805-2.95.2-1.8379032.5323006-3.378829 1.791859-4.2661117 3.4871353-.8872827 1.6952762-1.0440038 3.6793071-.4338883 5.4928647 1.068902 3.2138225 4.3039326 5.1844425 7.65 4.66v13.08c-.0032948 1.1032019-.8967981 1.9967052-2 2h3c1.1032019-.0032948 1.9967052-.8967981 2-2v-13.08c-3.3460674.5244425-6.581098-1.4461775-7.65-4.66-.6101155-1.8135576-.4533944-3.7975885.4338883-5.4928647.8872827-1.6952763 2.4282085-2.9548347 4.2661117-3.4871353z" fill="#cad9fc"/><path id="Shape" d="m59 18h-58c0-2.924-.023-2.94.01-3.04.2258618-1.0397823.59611885-2.0428423 1.1-2.98 2.713-5.233 8.305-8.206 13.97-9.65 3.099203-.7599637 6.2702776-1.18903088 9.46-1.28.073-.006.925-.03 1.04-.03 1.134-.03 1.37-.058 1.65.11z" fill="#cad9fc"/><path id="Shape" d="m50 46c-.0009336 1.4556384-1.0466857 2.7005654-2.4803179 2.9527216-1.4336323.2521561-2.8414129-.5612283-3.3389785-1.9291876-.4975655-1.3679593.0586764-2.8957143 1.3192964-3.623534.9285009-.5360705 2.0725043-.5358873 3.0008334.0004806.9283291.536368 1.4998543 1.527379 1.4991666 2.5995194z" fill="#7facfa"/><path id="Shape" d="m45.5 48.6c-.9300833-.5353928-1.503337-1.526827-1.503337-2.6s.5732537-2.0646072 1.503337-2.6c.9300833.5353928 1.503337 1.526827 1.503337 2.6s-.5732537 2.0646072-1.503337 2.6z" fill="#a4c2f7"/><path id="Shape" d="m34.75 41c-.9180534 3.5286556-4.1038744 5.9916756-7.75 5.9916756s-6.8319466-2.46302-7.75-5.9916756c.9180534-3.5286556 4.1038744-5.9916756 7.75-5.9916756s6.8319466 2.46302 7.75 5.9916756z" fill="#7facfa"/><path id="Shape" d="m27.792 46.7c-.217.06-2.068.111-2.292.153-3.0417256-.5746098-5.4772918-2.8554688-6.25-5.853.7737112-2.9963656 3.2090776-5.2758685 6.25-5.85.224.042 2.075.093 2.292.153 5.608 1.555 5.608 9.839 0 11.397z" fill="#a4c2f7"/><path id="Shape" d="m27 51c-2.4750097.0012479-4.811233-1.1431405-6.327354-3.0994257-1.516121-1.9562851-2.0413988-4.5041563-1.422646-6.9005743.9136912 3.5328228 4.100936 6.0006235 7.75 6.0006235s6.8363088-2.4678007 7.75-6.0006235c.6187528 2.396418.093475 4.9442892-1.422646 6.9005743-1.516121 1.9562852-3.8523443 3.1006736-6.327354 3.0994257z" fill="#cad9fc"/><path id="Shape" d="m12 37c-.0009336 1.4556384-1.0466857 2.7005654-2.48031794 2.9527216-1.43363224.2521561-2.84141291-.5612283-3.33897844-1.9291876-.49756554-1.3679593.05867643-2.8957143 1.31929638-3.623534.92850089-.5360705 2.07250429-.5358873 3.0008334.0004806.9283291.536368 1.4998543 1.527379 1.4991666 2.5995194z" fill="#7facfa"/><path id="Shape" d="m7.5 39.6c-.93008329-.5353928-1.50333705-1.526827-1.50333705-2.6s.57325376-2.0646072 1.50333705-2.6c.93008329.5353928 1.50333705 1.526827 1.50333705 2.6s-.57325376 2.0646072-1.50333705 2.6z" fill="#a4c2f7"/><path id="Shape" d="m12.5 27.84c-2.0837374-.4580944-3.84480924-1.8414712-4.78332948-3.7574545-.93852023-1.9159832-.95202117-4.1553856-.03667052-6.0825455h12.64c1.1451694 2.4124645.8179572 5.2663113-.8435254 7.3569748-1.6614825 2.0906635-4.3677293 3.0538547-6.9764746 2.4830252z" fill="#7facfa"/><path id="Shape" d="m12.5 27.84c-2.0837374-.4580944-3.84480924-1.8414712-4.78332948-3.7574545-.93852023-1.9159832-.95202117-4.1553856-.03667052-6.0825455h9.64c.9153507 1.9271599.9018497 4.1665623-.0366705 6.0825455-.9385203 1.9159833-2.6995921 3.2993601-4.7833295 3.7574545z" fill="#a4c2f7"/><path id="Shape" d="m45 28c.0003396 2.008168-1.4900945 3.7044861-3.4816118 3.9625511s-3.8650895-1.0023381-4.3766117-2.944266c-.5115221-1.9419279.4980036-3.9617662 2.3582235-4.7182851 1.231661-.4982346 2.630331-.3523962 3.732715.3892075 1.1023839.7416037 1.7645959 1.982177 1.767285 3.3107925z" fill="#7facfa"/><path id="Shape" d="m39.5 31.7c-1.5087556-.6089468-2.4966481-2.0729906-2.4966481-3.7s.9878925-3.0910532 2.4966481-3.7c1.5087556.6089468 2.4966481 2.0729906 2.4966481 3.7s-.9878925 3.0910532-2.4966481 3.7z" fill="#a4c2f7"/><path id="Shape" d="m59 18h-58v-3c.22640815-1.0537791.60007669-2.0704268 1.11-3.02 4.184-8.067 15.367-10.96 24.47-10.96 1.134-.03 1.37-.058 1.65.11z" fill="#cad9fc"/><path id="Shape" d="m54 18h-53v-3s1.75-12.2 22.31-13.83z" fill="#e8edfc"/></g><path id="Shape" d="m3 54h3c-1.10320187-.0032948-1.9967052-.8967981-2-2 0-40.669-.062-37.855.12-38.543.986-3.748 4.38-8.097 10.738-10.736 4.2229196-1.6405543 8.6980289-2.53747081 13.227-2.651-.1131611-.04449145-.23342-.06820449-.355-.07-9.373 0-20.446 2.275-25.237 10.3-.62983847 1.0305705-1.10554085 2.14773-1.412 3.316-.117.484-.081-2.616-.081 38.384.0032948 1.1032019.89679813 1.9967052 2 2z" fill="#fff" transform="translate(0 1)"/><g id="Layer_2" transform="translate(0 -1)"><path id="Shape" d="m4.255 8.468 1.41 1.418c-.88848153.880454-1.66439747 1.8676475-2.31 2.939-.63236936 1.023713-1.09342925 2.1437677-1.365 3.316l-1.98-.282c.67817046-2.8192856 2.15154085-5.3845814 4.245-7.391z" fill="#fff"/><g fill="#428dff"><path id="Shape" d="m2.5 13.3c.55162546-.0027582.99683094-.4516874.99499446-1.0033167s-.4500212-.9975842-1.0016528-.9966694-.99833476.4483537-.99834166.9999861c-.00000333.2660851.10603959.5211997.29465877.7088804.18861918.1876808.44425948.29245.71034123.2911196z"/><path id="Shape" d="m59.481 18.123c-33.314-18.269-31.044-17.11-31.481-17.109v-.014c-8.6.161-17.552 1.454-23.745 7.468-.3802342.39128185-.3766503 1.01512626.00805436 1.40201365.38470466.38688735 1.00851882.39400075 1.40194564.01598635 5.7-5.529 14.156-6.71 22.09-6.879l27.345 14.993h-53.1v-2c0-.5522847-.44771525-1-1-1s-1 .4477153-1 1v38c0 1.6568542 1.34314575 3 3 3h54c1.6568542 0 3-1.3431458 3-3v-13.08c.000236-.2975965-.1320866-.5798359-.361-.77-.469-.388-.8-.16-1.539-.151-2.2638355.0553822-4.3660019-1.1685219-5.4354632-3.1645857-1.0694614-1.9960638-.9240086-4.4242089.3760896-6.2783294s3.5333383-2.8183216 5.7743736-2.4930849c.292519.0550665.5943642-.0230403.8234579-.2130818.2290937-.1900414.3616199-.4722612.3615421-.7699182v-8.08c.000102-.3651669-.1988506-.7013547-.519-.877zm-51.135 1.877h11.308c.8833324 2.4871639.0376098 5.2594911-2.0835812 6.8300989s-5.0196466 1.5706078-7.1408376 0c-2.12119101-1.5706078-2.96691359-4.342935-2.0835812-6.8300989zm49.654 6c-2.5758715.0037226-4.9932706 1.2441639-6.4984182 3.3345366-1.5051476 2.0903728-1.9149339 4.7763714-1.1015818 7.2204634 1.0573158 3.2909785 4.143821 5.502297 7.6 5.445v12c0 .5522847-.4477153 1-1 1h-54c-.55228475 0-1-.4477153-1-1v-34h4.262c-.83972945 3.2378458.42523201 6.6561643 3.17040015 8.5674055 2.74516815 1.9112411 6.39003155 1.9112411 9.13519975 0 2.7451681-1.9112412 4.0101295-5.3295597 3.1704001-8.5674055h36.262z"/><path id="Shape" d="m43 47c0 2.209139 1.790861 4 4 4s4-1.790861 4-4-1.790861-4-4-4-4 1.790861-4 4zm4-2c1.1045695 0 2 .8954305 2 2s-.8954305 2-2 2-2-.8954305-2-2 .8954305-2 2-2z"/><path id="Shape" d="m18.294 41.759c-.9517304 3.7204535.5659842 7.6345223 3.7770819 9.7408025 3.2110978 2.1062803 7.4057939 1.9391973 10.4391897-.4158133s4.234986-6.3773946 2.9903545-10.0103627c-1.2446316-3.6329681-4.6603703-6.0734849-8.5006261-6.0736265-4.104493.0019747-7.686724 2.7830796-8.706 6.759zm8.706 9.241c-3.0915449-.0069058-5.8135568-2.0382579-6.7-5 1.707276 1.9067432 4.1456132 2.9964198 6.705 2.9964198s4.997724-1.0896766 6.705-2.9964198c-.8875092 2.9652792-3.6147541 4.9975035-6.71 5zm6.7-9.018c-.8732166 2.973123-3.6012958 5.0151867-6.7 5.0151867s-5.8267834-2.0420637-6.7-5.0151867c.8935021-2.952905 3.6148754-4.9726865 6.7-4.9726865s5.8064979 2.0197815 6.7 4.9726865z"/><path id="Shape" d="m9 34c-2.209139 0-4 1.790861-4 4s1.790861 4 4 4 4-1.790861 4-4-1.790861-4-4-4zm0 6c-1.1045695 0-2-.8954305-2-2s.8954305-2 2-2 2 .8954305 2 2-.8954305 2-2 2z"/><path id="Shape" d="m41 34c2.7614237 0 5-2.2385763 5-5s-2.2385763-5-5-5-5 2.2385763-5 5c.0033061 2.7600532 2.2399468 4.9966939 5 5zm0-8c1.6568542 0 3 1.3431458 3 3s-1.3431458 3-3 3-3-1.3431458-3-3 1.3431458-3 3-3z"/><circle id="Oval" cx="26" cy="30" r="1"/><circle id="Oval" cx="32" cy="24" r="1"/><circle id="Oval" cx="11" cy="49" r="1"/><circle id="Oval" cx="42" cy="39" r="1"/></g></g></g></svg>