<svg id="Capa_1" enable-background="new 0 0 509.439 509.439" height="512" viewBox="0 0 509.439 509.439" width="512" xmlns="http://www.w3.org/2000/svg"><g><g><g><g><g><path d="m329.212 266.66c18.245-65.064 77.447-129.395 156.569-156.837-4.319-36.426-28.275-71.709-61.283-86.872-34.124-15.676-74.96-16.205-111.78-14.588-25.883 1.136-51.893 3.863-77.368 8.665 0 0-31.152 159.766 21.568 212.487 39.206 41.414 72.294 37.145 72.294 37.145z" fill="#e1763a"/></g></g><g><path d="m334.202 251.512c22.583-59.698 78.61-116.381 151.579-141.689-3.205-27.028-17.228-53.418-37.731-71.435 12.11 16.012 20.171 35.334 22.503 54.997-76.697 26.601-134.675 87.864-154.775 150.858-22.094-10.879-44.379-27.08-54.891-49.979-8.936-19.466-11.734-41.574-12.8-62.759-1.979-39.328 2.61-79.05 9.598-117.715-6.471.954-15.92 2.03-22.334 3.239 0 0-28.202 144.645 14.48 204.09 36.745 48.994 99.935 60.588 151.019 26.314-23.021 9.778-45.315 10.408-66.648 4.079z" fill="#b45e2e"/></g><g><path d="m486.204 109.668-1.469.537c-72.481 26.502-129.454 83.817-155.523 156.455s45.933 12.528 107.442-48.328 49.55-108.664 49.55-108.664z" fill="#d4b981"/></g><g><path d="m486.204 109.669-1.469.537c-1.77.647-3.522 1.328-5.273 2.011-3.022 19.755-14.09 50.44-49.474 85.448-40.656 40.224-74.5 48.386-92.78 49.298-2.919 6.428-5.59 12.996-7.995 19.697s45.933 12.528 107.442-48.328 49.549-108.663 49.549-108.663z" fill="#ad935c"/></g><g><g><path d="m248.07 131.429c-.282-5.103-.438-10.22-.425-15.331l15-.057c-.016 4.885.129 9.776.407 14.652z" fill="#fff"/></g><g><path d="m262.935 101.417-14.984-.685c.268-5.872.567-10.716.94-15.244l14.949 1.231c-.358 4.342-.645 9.012-.905 14.698z" fill="#fff"/></g></g><g><path d="m24.75 400.07 1.469-.537c72.481-26.503 129.455-83.817 155.523-156.455s-45.933-12.528-107.442 48.328-49.55 108.664-49.55 108.664z" fill="#d4b981"/></g><g><path d="m49.658 384.199-1.469.537s-11.96-47.807 49.549-108.664c7.677-7.596 15.112-14.048 22.245-19.524-13.706 7.423-29.129 18.479-45.683 34.858-61.51 60.857-49.55 108.664-49.55 108.664l1.469-.537c23.311-8.523 45.006-20.25 64.597-34.633-13.033 7.558-26.785 14.043-41.158 19.299z" fill="#ad935c"/></g><g><g><path d="m254.036 280.223c-28.874-31.96-72.294-37.145-72.294-37.145-26.068 72.638-83.042 129.952-155.522 156.454l-1.046.383c4.319 36.426 28.275 71.709 61.283 86.872 34.124 15.676 74.96 16.205 111.78 14.589 25.883-1.136 51.893-3.863 77.368-8.666-.001 0 31.151-159.766-21.569-212.487z" fill="#e1763a"/></g></g><g><g><path d="m213.569 481.376c-36.82 1.616-77.655 1.088-111.78-14.589-29.103-13.369-51.159-42.38-58.934-74.023-5.451 2.431-10.99 4.704-16.637 6.769l-1.046.383c4.319 36.426 28.275 71.709 61.283 86.872 34.124 15.676 74.96 16.205 111.78 14.589 25.883-1.136 51.893-3.863 77.368-8.666 0 0 1.31-6.719 2.937-17.851-21.487 3.473-43.271 5.563-64.971 6.516z" fill="#b45e2e"/></g></g><g><g><path d="m144.563 478.565c-5.255-.657-10.448-1.535-15.434-2.609l3.158-14.664c4.56.982 9.316 1.786 14.137 2.389z" fill="#fff"/></g><g><path d="m113.788 471.703c-5.639-1.97-10.523-4.157-14.932-6.686l7.463-13.012c3.598 2.063 7.66 3.875 12.417 5.537z" fill="#fff"/></g></g></g></g><g><path d="m490.248 97.619c-5.114-22.774-17.952-44.566-38.157-64.771-25.264-25.265-65.952-30.732-99.929-32.463-33.466-1.705-69.206 2.378-124.255 9.803-10.914 55.98-27.45 171.575 22.659 224.185 27.35 27.351 63.615 46.31 103.14 39.797 40.25-6.632 74.54-35.242 100.471-65.205l-11.342-9.816c-26.02 30.064-62.56 60.855-104.479 61.369 25.473-63.952 75.569-114.421 139.313-140.373.026 14.054-3.293 28.314-10.002 42.596l13.577 6.378c11.251-23.95 14.28-48.007 9.004-71.5zm-47.644 22.737v-34.675h-15v43.67c-13.778 8.897-26.656 19.013-38.5 30.207l-37.852-37.852-10.606 10.606 37.848 37.848c-11.341 11.998-21.564 25.065-30.544 39.042h-43.225v15h34.258c-6.197 11.191-11.616 22.896-16.216 35.039-21.084-3.741-41.742-15.621-61.594-35.474-20.042-20.042-29.851-61.647-28.365-120.316.911-35.966 5.889-68.319 7.956-80.406 12.087-2.067 44.44-7.044 80.406-7.955 58.666-1.487 100.273 8.323 120.316 28.365 19.296 19.296 30.926 39.886 34.764 61.116-11.651 4.514-22.885 9.794-33.646 15.785z"/><path d="m452.331 187.363 12.025 8.966c3.245-4.352 6.257-8.76 8.953-13.104l-12.744-7.911c-2.472 3.983-5.242 8.037-8.234 12.049z"/><path d="m168.826 233.836c-49.821 1.9-93.896 40.204-122.539 78.145 3.991 3.013 7.981 6.025 11.972 9.038 26.204-34.713 67.281-71.678 113.29-72.242-25.318 63.562-76.354 114.887-139.772 140.562.07-20.069 7.453-39.274 18.02-56.089-4.233-2.66-8.467-5.321-12.7-7.981-13.759 21.891-22.416 47.34-20.027 73.441 2.367 25.873 15.258 49.3 32.152 68.575 34.926 39.847 88.594 42.981 138.346 42.017 31.695-.614 63.321-4.133 94.431-10.198 10.98-56.318 17.135-116.076 3.285-172.469-6.872-27.981-20.249-49.183-43.027-66.849-21.05-16.325-46.446-26.981-73.431-25.95zm108.272 172.006c-.911 35.966-5.888 68.319-7.955 80.406-12.087 2.067-44.44 7.044-80.406 7.956-58.673 1.482-100.273-8.323-120.316-28.365-19.666-19.666-31.414-40.021-35.25-60.931 11.823-4.556 23.221-9.897 34.131-15.971v34.675h15v-43.67c13.778-8.897 26.656-19.013 38.5-30.207l37.852 37.852 10.606-10.606-37.848-37.848c11.341-11.998 21.564-25.065 30.544-39.042h43.225v-15h-34.258c6.197-11.191 11.616-22.895 16.215-35.037 21.089 3.741 41.74 15.618 61.595 35.473 20.042 20.042 29.85 61.646 28.365 120.315z"/></g></g></svg>