<svg height="512pt" viewBox="-61 0 512 512" width="512pt" xmlns="http://www.w3.org/2000/svg"><path d="m30 15h120v60h-120zm0 0" fill="#5a5a5a"/><path d="m255 60h-255v452h390v-317c0-74.402344-60.601562-135-135-135zm75 180.300781-105.601562-120.300781h45.601562c33 0 60 27 60 60zm0 0" fill="#fdbf00"/><path d="m255 60h-60v452h195v-317c0-74.402344-60.601562-135-135-135zm75 180.300781-105.601562-120.300781h45.601562c33 0 60 27 60 60zm0 0" fill="#ff9f00"/><path d="m0 0h180v30h-180zm0 0" fill="#ff4b00"/><path d="m195 177.597656-50.398438-57.597656h-84.601562v331h270v-119.199219zm0 0" fill="#ff4b00"/><path d="m330 331.800781v119.199219h-135v-273.402344zm0 0" fill="#dd3400"/><path d="m206.101562 260.097656-11.101562-12.597656-11.101562 12.597656c-8.097657 9-48.898438 55.800782-48.898438 84.902344 0 33 27 60 60 60s60-27 60-60c0-29.101562-40.800781-75.902344-48.898438-84.902344zm0 0" fill="#ffd400"/><path d="m255 345c0 33-27 60-60 60v-157.5l11.101562 12.597656c8.097657 9 48.898438 55.800782 48.898438 84.902344zm0 0" fill="#fdbf00"/></svg>