<svg id="Capa_1" enable-background="new 0 0 511.999 511.999" height="512" viewBox="0 0 511.999 511.999" width="512" xmlns="http://www.w3.org/2000/svg"><g><g clip-rule="evenodd" fill-rule="evenodd"><g fill="#b3e59f"><path d="m200.214 454.059c-17.49 14.485-43.427 19.219-67.919 10.12-22.819-8.447-38.778-26.815-43.909-47.396-1.275-5.045-1.53-4.394 2.722-7.398 17.319-12.246 41.414-15.761 64.233-7.313 24.463 9.099 41.074 29.565 44.873 51.987z"/><path d="m311.785 454.059c17.49 14.485 43.427 19.219 67.919 10.12 22.819-8.447 38.778-26.815 43.909-47.396 1.275-5.045 1.53-4.394-2.722-7.398-17.348-12.246-41.414-15.761-64.233-7.313-24.491 9.099-41.074 29.565-44.873 51.987z"/><path d="m167.984 368.283c14.74 1.446 30.472-5.471 40.365-19.332 9.241-12.926 11.14-28.658 6.406-41.669-1.162-3.175-.794-2.92-4.195-2.977-13.833-.283-28.12 6.605-37.332 19.531-9.921 13.833-11.395 30.954-5.244 44.447z"/><path d="m344.015 368.283c-14.74 1.446-30.472-5.471-40.365-19.332-9.241-12.926-11.14-28.658-6.406-41.669 1.162-3.175.793-2.92 4.195-2.977 13.833-.283 28.12 6.605 37.332 19.531 9.922 13.833 11.396 30.954 5.244 44.447z"/></g><path d="m48.475 251.354c10.318-11.026 32.854-.992 42.888 5.754 8.589 5.783 8.419 3.742 9.184-5.613.964-11.849 7.115-34.838 21.799-36.142 14.173-.851 27.156 22.45 28.941 52.044 2.749 45.156-29.282 81.326-74.438 84.076-29.594 1.814-54.284-8.22-55.163-22.422-.482-15.109 22.536-23.953 34.384-26.249 10.12-1.984 8.476-3.487 2.523-10.46-7.708-9.07-19.586-29.678-10.118-40.988z" fill="#62d9fa"/><path d="m111.263 221.647c3.231-3.798 6.973-6.038 11.084-6.293 14.173-.851 27.156 22.45 28.941 52.044 2.749 45.156-29.282 81.326-74.438 84.076-6.633.397-13.04.227-18.964-.482 42.35-5.159 71.773-40.224 69.137-83.594-1.219-19.927-7.483-36.992-15.76-45.751z" fill="#54d0f2"/><path d="m463.524 251.354c-10.148-10.828-32.003-1.389-41.953 5.216-9.524 6.321-9.354 4.309-10.262-6.123-1.021-11.679-7.285-33.817-21.656-35.093-14.202-.851-27.156 22.45-28.942 52.044-2.749 45.156 29.282 81.326 74.438 84.076 29.594 1.814 54.284-8.22 55.163-22.422.453-14.202-19.984-22.932-31.295-25.427-2.835-.595-11.225-1.418-9.779-5.641.822-2.381 6.236-8.164 8.136-10.885 6.122-8.901 14.456-25.795 6.15-35.745z" fill="#62d9fa"/><path d="m256.227 7.49c14.57.425 22.989 24.463 26.107 35.745 3.486 12.558 7.852 9.014 17.206 3.77 9.553-5.301 30.671-13.946 40.28-4.875 9.78 10.346-.539 32.626-6.236 42.633-6.236 10.97-3.997 12.472 7.568 15.647 10.8 2.977 32.91 11.594 33.307 25.342-.397 14.032-23.471 22.762-34.441 25.767-12.076 3.288-11.65 6.094-5.783 16.384 5.556 9.723 14.995 31.521 5.584 41.471-10.318 9.751-32.598-.567-42.576-6.208-10.8-6.122-12.558-3.6-15.647 7.597-2.976 10.771-11.707 32.854-25.37 33.25-14.287-.425-22.592-23.471-25.739-34.554-3.94-13.946-8.334-9.95-18.737-4.365-9.439 5.074-29.792 13.096-39.146 4.28-9.411-9.978.057-31.72 5.584-41.471 6.86-12.075 4.478-13.634-8.164-17.178-10.573-2.948-31.663-11.65-32.06-24.973.397-14.145 23.442-22.734 34.498-25.739 14.23-3.912 10.035-8.248 4.394-18.737-5.074-9.383-13.068-29.792-4.252-39.146 10.205-9.609 32.711.482 42.576 6.179 11.112 6.378 12.473 3.827 15.647-7.625 2.977-10.744 11.793-32.798 25.4-33.194z" fill="#fd91ba"/><path d="m256.227 170.113c24.434 0 44.362-19.928 44.362-44.362 0-24.435-19.927-44.362-44.362-44.362s-44.391 19.928-44.391 44.362 19.956 44.362 44.391 44.362z" fill="#fcbf66"/><path d="m315.754 151.518c-12.076 3.288-11.65 6.094-5.783 16.384 5.528 9.723 14.995 31.521 5.584 41.471-.511.482-1.077.935-1.673 1.333 9.496 3.175 19.814 4.45 25.937-1.333 9.411-9.95-.028-31.748-5.584-41.471-5.868-10.29-6.293-13.096 5.783-16.384 10.97-3.005 34.044-11.735 34.441-25.767-.397-13.748-22.507-22.365-33.307-25.342-11.565-3.175-13.805-4.677-7.568-15.647 5.697-10.007 16.016-32.287 6.236-42.633-6.009-5.698-16.582-4.422-25.965-1.361.596.397 1.162.851 1.701 1.361 9.779 10.346-.567 32.626-6.236 42.633-6.236 10.97-3.997 12.472 7.54 15.647 10.828 2.977 32.938 11.594 33.335 25.342-.397 14.032-23.471 22.762-34.441 25.767z" fill="#f585b0"/><path d="m256.227 170.113c24.491 0 44.362-19.871 44.362-44.362 0-24.52-19.871-44.362-44.362-44.362-4.224 0-8.277.567-12.133 1.672 18.596 5.273 32.231 22.394 32.231 42.69s-13.635 37.418-32.231 42.69c3.855 1.105 7.909 1.672 12.133 1.672z" fill="#f7b551"/><path d="m490.312 329.052c.453-14.202-19.984-22.932-31.295-25.427-2.835-.595-11.225-1.418-9.779-5.641.822-2.381 6.236-8.164 8.136-10.885 6.123-8.901 14.457-25.795 6.151-35.745-6.321-6.746-17.206-5.612-26.929-2.211.964.624 1.843 1.36 2.665 2.211 8.306 9.95-.028 26.844-6.151 35.745-1.899 2.721-7.314 8.504-8.136 10.885-1.445 4.224 6.945 5.046 9.751 5.641 11.339 2.495 31.776 11.225 31.295 25.427-.652 11.027-15.676 19.531-36.199 21.94 1.758.227 3.544.369 5.329.482 29.593 1.814 54.283-8.221 55.162-22.422z" fill="#54d0f2"/><path d="m423.612 416.784c1.275-5.045 1.53-4.394-2.722-7.398-13.975-9.865-32.314-14.088-50.853-10.914 9.723 1.701 18.822 5.442 26.589 10.914 4.224 3.004 3.996 2.353 2.721 7.398-5.131 20.58-21.09 38.948-43.909 47.396-4.422 1.645-8.929 2.835-13.379 3.6 12.018 2.098 25.03 1.077 37.644-3.6 22.82-8.448 38.779-26.816 43.909-47.396z" fill="#95d6a4"/><path d="m347.672 351.077c.028-9.269-2.891-18.85-8.901-27.241-9.212-12.926-23.499-19.814-37.332-19.531-3.402.057-3.033-.198-4.195 2.977-.17.482-.312.964-.482 1.445 6.775 3.288 12.954 8.391 17.745 15.109 8.9 12.444 10.998 27.496 6.888 40.224 4.451 2.183 9.185 3.572 13.947 4.139 3.826-5.84 7.936-11.51 12.33-17.122z" fill="#95d6a4"/><path d="m208.349 348.951c9.241-12.926 11.14-28.658 6.406-41.669-1.162-3.175-.794-2.92-4.195-2.977-6.633-.142-13.351 1.389-19.587 4.422 4.11 12.699 2.013 27.78-6.888 40.224-3.486 4.876-7.71 8.901-12.359 12.019 1.701 2.381 3.345 4.791 4.932 7.229 11.991-1.418 23.726-8.108 31.691-19.248z" fill="#95d6a4"/><path d="m187.997 426.166c-7.88-10.46-19.049-19.049-32.655-24.094-12.614-4.677-25.626-5.698-37.644-3.6 4.45.766 8.929 1.956 13.351 3.6 24.491 9.099 41.074 29.565 44.901 51.987-8.504 7.03-18.964 11.764-30.274 13.72 17.773 3.061 35.376-.708 49.124-9.723-1.502-11.849-3.771-22.138-6.803-31.89z" fill="#95d6a4"/></g><path d="m121.269 450.289c3.43 2.267 4.394 6.917 2.098 10.347-2.268 3.458-6.916 4.394-10.374 2.126-8.05-5.329-14.882-11.934-20.239-19.333-5.471-7.569-9.439-16.016-11.65-24.832-.369-1.502-1.814-5.216-.454-8.844 1.275-3.458 4.224-5.188 7.058-7.115 9.638-6.604 21.09-10.8 33.222-12.189 11.99-1.361 24.689.028 36.992 4.592 8.73 3.26 16.583 7.823 23.329 13.379-.794-1.984-1.644-3.94-2.495-5.868-11.282-25.342-28.006-46.233-46.828-66.416-13.437 12.473-31.125 20.636-51.364 22.564-14.74 1.389-31.38 0-44.901-5.499-12.671-5.159-20.834-13.464-21.458-23.697-.567-9.354 5.301-17.858 15.477-24.321 5.953-3.798 13.521-6.973 22.138-9.185-5.414-7.086-9.439-14.258-11.792-20.919-3.997-11.338-3.373-21.628 2.834-28.658 6.236-7.03 16.384-8.901 28.12-6.293 6.888 1.531 14.513 4.649 22.167 9.184 1.19-8.872 3.401-16.781 6.435-23.131 4.507-9.467 12.274-18.311 23.499-18.34 9.751 0 18.51 6.973 24.917 18.482 5.726 10.29 9.751 24.605 10.743 40.479h.028v.566.028h.029v.057c1.19 21.855-5.102 41.812-16.838 57.515 5.499 5.868 10.686 11.65 15.59 17.462 1.333-7.937 4.479-15.817 9.581-22.932 5.216-7.314 11.877-12.983 19.219-16.809 7.653-4.025 16.072-6.038 24.35-5.868 2.92.057 4.592-.085 7.115 1.701 2.919 2.098 3.43 4.649 4.252 7.03 2.608 7.597 3.345 15.874 2.069 24.095-1.248 8.164-4.451 16.299-9.695 23.641-5.612 7.852-12.897 13.805-20.891 17.631-3.968 1.899-8.107 3.288-12.331 4.11 4.139 6.86 7.852 13.946 11.197 21.43 12.671 28.46 19.304 62.022 19.304 108.057 0 4.139-3.345 7.483-7.483 7.483s-7.512-3.345-7.512-7.483c0-13.72-.595-26.249-1.786-37.786-5.159 2.919-10.715 5.216-16.555 6.832-9.638 2.665-20.012 3.43-30.529 2.098-4.11-.51-7.001-4.252-6.492-8.334.539-4.11 4.252-7.002 8.362-6.491 8.504 1.077 16.894.453 24.69-1.701 6.321-1.757 12.246-4.507 17.49-8.164-2.183-8.476-6.435-16.526-12.444-23.471-6.803-7.909-15.902-14.372-26.759-18.397-10.063-3.713-20.41-4.876-30.132-3.77-9.865 1.134-19.105 4.564-26.844 9.978 1.758 6.832 4.876 13.408 9.156 19.332 4.338 5.981 9.865 11.339 16.385 15.647zm121.096-290.352c3.827 1.559 5.669 5.924 4.11 9.751s-5.924 5.669-9.751 4.139c-9.61-3.912-17.802-10.63-23.556-19.162-5.584-8.277-8.815-18.227-8.815-28.914 0-14.343 5.811-27.297 15.193-36.68s22.337-15.194 36.681-15.194c14.314 0 27.269 5.811 36.68 15.194 9.382 9.383 15.194 22.337 15.194 36.68 0 10.687-3.26 20.636-8.844 28.914-5.726 8.532-13.918 15.25-23.556 19.162-3.827 1.53-8.192-.312-9.751-4.139s.311-8.192 4.139-9.751c6.859-2.807 12.699-7.569 16.752-13.606 3.941-5.868 6.236-12.954 6.236-20.58 0-10.176-4.11-19.417-10.8-26.079-6.662-6.662-15.874-10.8-26.05-10.8-10.205 0-19.418 4.139-26.079 10.8-6.689 6.661-10.8 15.902-10.8 26.079 0 7.625 2.296 14.712 6.236 20.58 4.082 6.037 9.893 10.799 16.781 13.606zm34.384-147.487c6.605 9.042 10.517 20.58 12.558 27.921.851 3.004 5.754.595 7.483-.369 6.236-3.487 16.186-7.795 26.334-9.014 8.135-.992 16.044.227 21.827 5.698 6.18 5.783 7.115 15.194 5.953 23.102-1.559 10.743-7.115 22.139-10.8 28.658-2.721 4.791 1.304 4.309 3.005 4.763 7.058 1.927 18.567 6.094 26.985 12.5 6.718 5.103 11.622 11.65 11.849 19.842.227 8.419-5.783 15.704-12.161 20.495-8.674 6.463-20.608 10.715-27.808 12.671-5.159 1.417-2.296 3.657-1.219 5.499 3.6 6.321 8.759 17.433 10.148 27.893 1.134 8.362-.028 16.441-5.612 22.394-5.811 6.151-15.165 7.087-23.074 5.925-10.771-1.559-22.167-7.087-28.686-10.771-4.479-2.523-3.884-.227-4.734 3.089-1.956 7.03-6.18 18.539-12.558 26.901-3.486 4.564-7.653 8.306-12.529 10.29v254.579c0 4.139-3.345 7.483-7.483 7.483-4.139 0-7.512-3.345-7.512-7.483v-254.551c-5.017-2.013-9.269-5.868-12.784-10.602-6.491-8.731-10.602-20.665-12.643-27.865-1.304-4.592-5.329-1.248-7.994.198-6.18 3.317-16.639 7.795-26.504 8.844-7.965.879-15.676-.397-21.316-5.726-6.038-5.669-7.001-14.938-5.953-22.677 1.417-10.46 6.548-21.571 10.176-27.921 3.373-5.982 2.579-4.507-3.713-6.293-6.888-1.928-17.915-6.123-26.022-12.444-6.492-5.046-11.254-11.509-11.48-19.531-.227-8.447 5.726-15.732 12.161-20.523 8.646-6.463 20.608-10.658 27.836-12.643 4.847-1.332 1.36-5.045-.227-7.965-3.317-6.151-7.767-16.64-8.844-26.504-.85-7.966.397-15.676 5.726-21.317 5.811-6.151 15.25-7.03 23.131-5.896 10.743 1.559 22.195 7.002 28.63 10.715 2.126 1.19 3.968-.624 4.706-3.146 1.956-7.002 6.208-18.481 12.614-26.844 5.102-6.69 11.65-11.565 19.786-11.82 8.616-.226 15.958 5.868 20.748 12.445zm-12.076 8.844c-2.58-3.543-5.471-6.123-8.447-6.321-2.778.198-5.585 2.636-8.136 5.953-5.017 6.548-8.476 15.931-10.063 21.742-2.098 7.54-3.742 12.246-8.22 14.938-4.933 2.948-10.148 1.871-18.34-2.834-5.357-3.09-14.797-7.625-23.301-8.844-4.28-.624-8.079-.396-10.261 1.502-1.729 1.984-2.041 5.442-1.616 9.297.822 7.569 4.451 15.988 7.144 20.976.851 1.559 1.19 2.211 1.531 2.835 1.814 3.231 3.288 5.896 4.081 8.759 2.41 8.788-.453 14.031-14.626 17.915-6.038 1.644-15.931 5.074-22.819 10.233-3.43 2.551-5.953 5.415-6.151 8.306.17 2.721 2.523 5.471 5.726 7.965 6.208 4.847 15.194 8.221 20.863 9.808 8.221 2.296 13.238 4.139 15.902 8.93 2.92 5.13 1.616 10.544-3.26 19.134-2.976 5.272-7.228 14.371-8.333 22.535-.567 4.11-.312 7.824 1.559 9.95 1.984 1.701 5.442 2.012 9.297 1.587 7.568-.822 15.959-4.45 21.005-7.144.68-.368 1.644-.907 2.523-1.417 3.26-1.786 5.924-3.26 8.759-4.054 8.873-2.523 14.202.255 18.198 14.4 1.729 6.123 5.159 16.158 10.262 23.018 1.757 2.352 5.074 6.038 8.277 6.038 3.061 0 6.406-3.685 8.107-5.924 5.017-6.577 8.447-15.987 10.035-21.827 2.069-7.455 3.912-12.161 8.391-14.768 4.932-2.835 10.176-1.843 18.17 2.665 5.471 3.118 14.939 7.739 23.386 8.957 4.224.624 8.022.396 10.233-1.531 1.843-2.126 2.098-5.839 1.531-9.978-1.105-8.164-5.329-17.234-8.334-22.507-3.912-6.86-5.953-11.48-4.535-16.498 1.502-5.499 5.981-8.362 14.854-10.8 5.981-1.616 15.846-5.103 22.762-10.262 3.43-2.579 5.981-5.442 6.18-8.277-.199-2.834-2.636-5.641-5.953-8.135-6.548-4.989-16.016-8.391-21.884-10.007-7.682-2.097-12.387-3.883-14.995-8.419-2.807-4.932-1.672-10.091 2.919-18.142 3.118-5.471 7.739-14.938 8.986-23.414.624-4.224.397-7.994-1.531-10.205-2.041-1.786-5.641-2.069-9.666-1.559-7.909.936-16.611 4.819-21.685 7.682-3.316 1.871-6.973 4.167-10.63 5.159-8.476 2.381-13.748-.255-17.433-13.493-1.731-6.264-5.217-16.752-10.462-23.924zm121.976 300.303c6.86 7.342 15.336 13.21 25.03 17.121 3.855 1.531 5.698 5.896 4.167 9.723s-5.896 5.697-9.723 4.167c-9.808-3.94-18.595-9.553-26.05-16.47-18.822 20.183-35.546 41.074-46.828 66.416-.85 1.928-1.701 3.883-2.495 5.868 6.747-5.556 14.599-10.12 23.329-13.379 12.303-4.564 25.002-5.953 36.992-4.592 12.529 1.446 24.293 5.868 34.129 12.812 2.126 1.502 4.875 3.005 6.151 6.463 1.361 3.657-.085 7.456-.454 8.873-2.919 11.679-8.958 22.706-17.518 31.946-8.249 8.901-18.765 16.129-31.067 20.693-13.238 4.904-26.901 6.151-39.657 4.252-9.156-1.389-17.83-4.337-25.597-8.759-1.19 11.565-1.786 24.066-1.786 37.786 0 4.139-3.373 7.483-7.512 7.483s-7.483-3.345-7.483-7.483c0-46.034 6.633-79.597 19.304-108.057 3.345-7.483 7.058-14.57 11.197-21.43-4.224-.822-8.362-2.183-12.331-4.11-7.994-3.827-15.279-9.779-20.891-17.631-5.244-7.342-8.447-15.477-9.695-23.641-1.247-8.079-.567-16.214 1.956-23.698.85-2.551 1.729-5.386 4.365-7.427 1.757-1.332 4.195-1.644 7.115-1.701 8.277-.17 16.696 1.843 24.35 5.868 7.342 3.827 14.003 9.496 19.219 16.809 5.102 7.115 8.249 14.995 9.581 22.932 4.904-5.811 10.091-11.594 15.59-17.462-1.502-2.012-2.891-4.081-4.224-6.207-10.431-16.923-14.088-36.028-12.274-55.616 1.333-14.4 5.188-27.326 10.46-36.822 5.556-9.95 14.797-19.672 27.071-18.34 8.957.964 16.328 7.71 21.345 18.198 3.033 6.35 5.244 14.259 6.406 23.131 7.682-4.535 15.308-7.653 22.195-9.184 11.735-2.608 21.884-.737 28.12 6.293 6.208 7.03 6.831 17.32 2.835 28.658-2.353 6.662-6.378 13.833-11.792 20.919 8.617 2.211 16.186 5.386 22.138 9.185 10.177 6.463 16.044 14.967 15.478 24.321-.596 9.439-7.568 17.234-18.624 22.45-9.581 4.507-22.62 7.172-36.992 7.2-4.139 0-7.484-3.345-7.484-7.455 0-4.139 3.345-7.483 7.484-7.483 12.161-.028 22.932-2.183 30.67-5.812 6.01-2.835 9.78-6.264 9.978-9.779.227-3.486-3.005-7.314-8.533-10.828-7.058-4.507-17.32-7.966-29.225-9.524-4.11-.538-6.973-4.28-6.463-8.391.227-1.672.992-3.147 2.098-4.252v-.028c8.391-8.532 14.343-17.575 17.149-25.483 2.183-6.208 2.381-11.197.085-13.805s-7.313-3.005-13.72-1.588c-8.192 1.814-17.886 6.605-27.411 13.918-3.26 2.523-7.937 1.899-10.46-1.361-1.19-1.559-1.531-3.09-1.559-4.961-.142-11.764-2.324-22.195-5.924-29.707-2.721-5.726-6.009-9.355-9.354-9.751-.198 0-.425-.028-.624-.057-3.883 0-8.107 4.082-11.82 10.771-4.706 8.476-8.051 20.58-8.873 34.243-.907 15.166 2.324 30.076 10.346 43.087 2.355 3.799 5.076 7.399 8.11 10.688zm-260.448-.964c.142-.17.283-.312.454-.482 11.792-13.464 18.312-31.635 17.178-51.846-.028-.311-.057-.624-.057-.907-.85-13.493-4.167-25.427-8.844-33.817-3.713-6.689-7.937-10.771-11.82-10.771-.198.028-.425.057-.624.057-3.345.397-6.633 4.025-9.354 9.751-3.543 7.427-5.726 17.716-5.924 29.31-.057 2.041-.227 3.572-1.559 5.357-2.523 3.26-7.2 3.884-10.46 1.361-9.524-7.314-19.219-12.104-27.411-13.918-6.407-1.417-11.424-1.021-13.72 1.588-2.296 2.607-2.098 7.597.085 13.805 2.749 7.767 8.532 16.639 16.724 25.058 1.361 1.389 2.24 2.636 2.523 4.706.51 4.11-2.353 7.852-6.463 8.391-11.905 1.559-22.167 5.017-29.225 9.524-5.528 3.515-8.759 7.342-8.532 10.828.227 3.94 4.847 7.739 12.132 10.686 12.416 5.046 22.563 4.677 35.546 4.677 20.183-1.362 37.446-10.007 49.351-23.358zm198.68 36.821c4.451 2.126 9.184 3.317 13.89 3.515 1.333-4.507 1.73-9.411 1.163-14.315-.737-6.35-3.146-12.756-7.257-18.482-3.827-5.358-8.645-9.467-13.946-12.246-4.791-2.522-9.95-3.912-15.081-4.139-1.446 4.933-1.786 10.262-.964 15.647.907 5.924 3.232 11.849 7.058 17.178 4.111 5.756 9.383 10.093 15.137 12.842zm-151.653 3.516c4.706-.198 9.439-1.389 13.89-3.515 5.754-2.749 11.027-7.086 15.137-12.841 3.827-5.329 6.151-11.253 7.058-17.178.822-5.386.482-10.715-.964-15.647-5.131.227-10.289 1.616-15.081 4.139-5.301 2.75-10.119 6.888-13.975 12.246-4.082 5.726-6.491 12.132-7.229 18.482-.565 4.903-.168 9.807 1.164 14.314zm146.863 90c7.172 5.017 15.647 8.334 24.718 9.695 10.346 1.53 21.458.51 32.287-3.487 10.12-3.77 18.68-9.609 25.314-16.752 6.746-7.285 11.508-15.96 13.861-25.115-7.739-5.414-16.98-8.844-26.844-9.978-9.723-1.105-20.069.057-30.132 3.77-10.856 4.025-19.956 10.488-26.759 18.397-6.01 6.944-10.262 14.994-12.445 23.47z"/></g></svg>