<svg id="Capa_1" enable-background="new 0 0 512 512" height="512" viewBox="0 0 512 512" width="512" xmlns="http://www.w3.org/2000/svg"><g><g><g fill="#95d6a4"><path d="m250.406 499.36c3.054 3.066 8.133 3.066 11.188 0 31.371-31.487 50.519-73.132 50.519-118.863 0-48.389-21.44-92.205-56.113-124.25-34.673 32.045-56.113 75.861-56.113 124.25 0 45.73 19.149 87.376 50.519 118.863z"/><path d="m256 256.247c-10.415-46.051-37.641-86.526-79.547-110.72-39.587-22.856-85.207-27.102-128.145-15.695-4.203 1.116-6.767 5.558-5.633 9.756 11.59 42.889 38.077 80.273 77.664 103.129 41.907 24.195 90.572 27.535 135.661 13.53z"/><path d="m463.745 129.846c4.182 1.112 6.722 5.511 5.594 9.689-11.583 42.911-38.075 80.317-77.679 103.182-41.906 24.194-90.571 27.535-135.66 13.53 10.415-46.051 37.641-86.526 79.547-110.72 39.604-22.865 85.244-27.105 128.198-15.681z"/></g><path d="m256 256.247c5.935 5.485 11.449 11.339 16.568 17.478-31.355 29.413-48.632 67.316-48.632 106.772 0 39.463 17.279 77.386 48.647 106.798-3.473 4.165-7.133 8.195-10.989 12.064-3.053 3.066-8.133 3.066-11.187 0-31.372-31.487-50.52-73.133-50.52-118.863 0-48.388 21.44-92.203 56.113-124.249z" fill="#78c2a4"/><path d="m249 233.209c2.759 7.507 5.216 15.15 7 23.038-45.089 14.005-93.754 10.665-135.66-13.53-39.587-22.856-66.074-60.24-77.664-103.129-1.135-4.197 1.43-8.639 5.632-9.756 5.263-1.398 10.568-2.547 15.897-3.469 9.789 41.873 33.98 75.795 68.159 95.528 21.171 12.223 44.681 18.421 69.877 18.421 15.423 0 31.153-2.397 46.759-7.103z" fill="#78c2a4"/><path d="m469.338 139.535c-1.424 5.273-3.083 10.458-4.953 15.547-15.665-4.742-31.455-7.151-46.936-7.151-25.195 0-48.705 6.198-69.878 18.421-34.17 19.729-58.358 53.642-68.151 95.503-7.875-1.363-15.702-3.212-23.42-5.609 10.415-46.051 37.641-86.526 79.547-110.72 39.604-22.865 85.245-27.105 128.197-15.68 4.182 1.113 6.723 5.511 5.594 9.689z" fill="#78c2a4"/><path d="m250.406 12.887c3.054-3.066 8.133-3.066 11.188 0 31.371 31.487 50.519 73.132 50.519 118.863 0 48.389-21.44 92.205-56.113 124.25-34.673-32.045-56.113-75.861-56.113-124.25 0-45.73 19.149-87.376 50.519-118.863z" fill="#b3e59f"/><path d="m256 256c-10.415 46.051-37.641 86.526-79.547 110.72-39.587 22.856-85.207 27.102-128.145 15.695-4.203-1.116-6.767-5.558-5.633-9.756 11.59-42.889 38.077-80.273 77.664-103.129 41.907-24.195 90.572-27.535 135.661-13.53z" fill="#b3e59f"/><path d="m463.745 382.401c4.182-1.112 6.722-5.511 5.594-9.689-11.583-42.911-38.075-80.317-77.679-103.182-41.906-24.195-90.571-27.535-135.66-13.53 10.415 46.051 37.641 86.526 79.547 110.72 39.604 22.865 85.244 27.105 128.198 15.681z" fill="#b3e59f"/><path d="m272.582 24.952c-3.473-4.165-7.133-8.195-10.989-12.064-3.053-3.066-8.133-3.066-11.187 0-31.372 31.487-50.52 73.133-50.52 118.863 0 46.627 19.913 89.004 52.385 120.699l1.656-34.532c-19.489-25.586-29.993-55.404-29.993-86.167.002-39.464 17.28-77.387 48.648-106.799z" fill="#95d6a4"/><path d="m120.34 269.53c-39.587 22.855-66.074 60.24-77.664 103.129-1.135 4.197 1.43 8.639 5.632 9.756 5.263 1.398 10.568 2.547 15.897 3.469 9.789-41.873 33.98-75.795 68.159-95.528 21.171-12.223 44.681-18.421 69.877-18.421 7.622 0 15.32.586 23.04 1.746l30.719-17.681c-45.089-14.005-93.754-10.665-135.66 13.53z" fill="#95d6a4"/><path d="m469.338 372.712c-1.424-5.273-3.083-10.458-4.953-15.547-15.665 4.742-31.455 7.151-46.936 7.151-25.195 0-48.705-6.198-69.878-18.421-27.55-15.906-48.604-41.037-60.863-72.116l-29.233-11.771c11.363 43.55 38 81.577 78.072 104.713 39.604 22.865 85.245 27.105 128.197 15.681 4.182-1.114 6.723-5.512 5.594-9.69z" fill="#95d6a4"/></g><path d="m395.41 263.035c-4.439-2.563-8.972-4.899-13.578-7.034 4.626-2.142 9.164-4.487 13.578-7.035 42.26-24.398 71.776-65.439 83.113-115.561.863-3.817-1.354-7.656-5.091-8.817-49.075-15.243-99.375-10.201-141.635 14.197-4.413 2.548-8.712 5.305-12.879 8.24.455-5.061.695-10.154.695-15.275 0-48.797-20.784-94.879-58.522-129.758-2.874-2.656-7.307-2.656-10.181 0-37.739 34.878-58.522 80.96-58.522 129.758 0 5.128.243 10.223.698 15.281-4.169-2.936-8.467-5.697-12.882-8.246-42.259-24.398-92.56-29.441-141.635-14.197-3.737 1.161-5.954 5-5.091 8.817 11.336 50.122 40.853 91.163 83.113 115.561 4.411 2.547 8.946 4.897 13.57 7.039-4.603 2.134-9.133 4.469-13.57 7.03-42.26 24.398-71.776 65.439-83.113 115.561-.863 3.817 1.354 7.656 5.091 8.817 18.601 5.777 37.375 8.641 55.824 8.641 30.225 0 59.569-7.687 85.811-22.838 4.437-2.562 8.728-5.318 12.885-8.243-.458 5.077-.7 10.179-.7 15.278 0 48.797 20.784 94.879 58.522 129.758 1.437 1.328 3.264 1.992 5.09 1.992s3.653-.664 5.09-1.992c37.739-34.878 58.522-80.96 58.522-129.758 0-5.1-.243-10.202-.701-15.28 4.153 2.923 8.445 5.682 12.886 8.246 26.245 15.152 55.583 22.839 85.811 22.838 18.445 0 37.226-2.864 55.824-8.641 3.737-1.161 5.954-5 5.091-8.817-11.337-50.123-40.854-91.164-83.114-115.562zm-33.979-14.937c-20.407-6.419-41.937-8.939-63.774-7.488l35.766-20.649 56.129 15.039c-.547.325-1.089.657-1.641.976-8.429 4.865-17.337 8.941-26.48 12.122zm100.773-111.149c-9.479 35.497-29.067 65.578-56.331 86.895l-54.078-14.49 54.126-31.25c2.407-1.39 3.752-3.911 3.751-6.504 0-1.272-.325-2.561-1.006-3.741-2.071-3.587-6.658-4.817-10.245-2.745l-54.126 31.25 14.49-54.079c32.092-12.954 67.936-14.878 103.419-5.336zm-206.204-119.052c31.406 31.352 48.613 71.521 48.613 113.853 0 20.342-3.955 40.24-11.754 59.139-1.581 3.829.243 8.214 4.071 9.794 3.83 1.581 8.214-.243 9.794-4.071 3.766-9.125 6.712-18.464 8.833-27.963 7.328-6.33 15.313-12.008 23.741-16.874.552-.319 1.11-.622 1.666-.934l-15.04 56.128-62.424 36.041v-155.794c0-4.142-3.358-7.5-7.5-7.5s-7.5 3.358-7.5 7.5v150.422c-26.631-30.053-41.113-67.06-41.113-105.888 0-42.333 17.207-82.501 48.613-113.853zm-59.557 150.76c4.645 20.878 13.226 40.78 25.399 58.961l-35.765-20.649-15.04-56.128c.555.311 1.113.615 1.665.933 8.431 4.869 16.408 10.549 23.741 16.883zm-146.647-31.709c35.482-9.54 71.326-7.616 103.419 5.337l14.49 54.078-54.127-31.25c-3.587-2.072-8.174-.842-10.245 2.745-.682 1.181-1.006 2.469-1.006 3.741 0 2.593 1.345 5.114 3.751 6.504l54.126 31.25-54.078 14.49c-27.263-21.316-46.851-51.397-56.33-86.895zm74.294 99.027c-.552-.319-1.094-.651-1.641-.976l56.128-15.04 35.766 20.649c-21.868-1.453-43.43 1.076-63.864 7.516-8.751-3.119-18.307-7.483-26.389-12.149zm106.793 92.397c2.496-3.306 1.84-8.009-1.466-10.505s-8.01-1.839-10.505 1.466c-12.625 16.72-28.171 30.478-46.21 40.893-36.661 21.166-80.051 26.35-122.906 14.826 11.448-42.874 37.632-77.86 74.293-99.026 33.625-19.414 72.915-25.376 112.258-17.339l-130.269 75.211c-2.407 1.39-3.752 3.911-3.751 6.504 0 1.272.325 2.561 1.006 3.741 2.071 3.587 6.658 4.816 10.245 2.745l134.922-77.898v72.081l-41.089 41.089c-.008-.636-.024-1.272-.024-1.909 0-9.741.933-19.493 2.753-29.015 7.542-6.933 14.475-14.563 20.743-22.864zm25.117 165.731c-26.003-25.958-42.26-57.962-47.088-92.231l39.588-39.588v62.5c0 4.142 3.358 7.5 7.5 7.5s7.5-3.358 7.5-7.5v-62.5l39.588 39.588c-4.828 34.269-21.085 66.274-47.088 92.231zm48.613-113.853c0 .637-.016 1.273-.024 1.909l-41.089-41.088v-41.298c9.659 19.631 22.603 37.013 38.36 51.474 1.819 9.52 2.753 19.266 2.753 29.003zm113.028.792c-27.632-.001-54.424-7.007-78.344-20.817-33.625-19.413-58.427-50.457-71.138-88.545l130.262 75.207c1.181.682 2.471 1.006 3.743 1.006 2.592 0 5.113-1.346 6.502-3.751.682-1.181 1.006-2.469 1.006-3.741 0-2.593-1.345-5.114-3.751-6.504l-130.262-75.207c39.341-8.034 78.626-2.078 112.251 17.335 36.661 21.167 62.845 56.152 74.293 99.027-14.894 4.004-29.843 5.99-44.562 5.99z"/></g></svg>