<?xml version="1.0" encoding="iso-8859-1"?>
<!-- Generator: Adobe Illustrator 19.0.0, SVG Export Plug-In . SVG Version: 6.00 Build 0)  -->
<svg version="1.1" id="Capa_1" xmlns="http://www.w3.org/2000/svg" xmlns:xlink="https://www.w3.org/1999/xlink" x="0px" y="0px"
	 viewBox="0 0 512.117 512.117" style="enable-background:new 0 0 512.117 512.117;" xml:space="preserve">
<g transform="translate(-1)">
	<path id="SVGCleanerId_0" style="fill:#FFA800;" d="M103.905,462.421c-0.085,0-0.085-0.085-0.171-0.085"/>
	<path style="fill:#FFA800;" d="M503.862,288.683c-1.376,45.887-17.673,90.075-46.421,125.867
		c-56.576,72.363-149.675,99.243-238.336,85.419c-19.179-3.07-38.18-7.173-56.917-12.289c-9.092-2.485-18.037-5.476-26.795-8.959
		c-9.342-3.655-18.338-8.138-26.88-13.397c-1.536-0.94-3.072-1.877-4.608-2.902c2.475,1.28,4.949,2.56,7.509,3.67
		c8.143,3.682,16.633,6.541,25.344,8.533c94.635,21.419,194.816-64.768,224-192.597C389.857,154.197,336.779,33.279,242.23,11.776
		c-0.085,0-0.171-0.085-0.256-0.085c-8.827-1.975-17.835-3.033-26.88-3.157c7.528-0.003,15.049,0.424,22.528,1.279
		c12.884,1.32,25.623,3.805,38.059,7.425c27.983,8.017,54.594,20.215,78.933,36.181c40.193,25.335,75.062,58.262,102.656,96.939
		c26.764,37.133,42.794,80.914,46.336,126.549C503.862,280.831,503.947,284.757,503.862,288.683z"/>
	<path style="fill:#FFE100;" d="M478.518,280.149c-1.375,45.887-17.672,90.075-46.421,125.867
		c-56.576,72.363-149.675,99.243-238.336,85.419c-19.18-3.07-38.18-7.172-56.917-12.289c-0.512-0.17-0.939-0.255-1.451-0.426
		c-20.139-5.216-39.322-13.598-56.832-24.832c9.455,5.075,19.521,8.918,29.952,11.435c0.939,0.341,1.963,0.511,2.901,0.768
		c8.143,3.682,16.633,6.541,25.344,8.533c94.635,21.419,194.816-64.768,224-192.597C389.857,154.197,336.779,33.279,242.23,11.776
		c-0.085,0-0.171-0.085-0.256-0.085c-1.451-0.683-2.901-1.28-4.352-1.878c-6.717-2.763-13.653-4.961-20.736-6.57
		C207.982,1.197,198.885,0.11,189.75,0c29.475,0.271,58.632,6.12,85.931,17.237c18.73,7.429,36.68,16.69,53.589,27.648
		c40.193,25.335,75.062,58.262,102.656,96.939c26.764,37.133,42.794,80.914,46.336,126.549
		C478.518,272.298,478.603,276.223,478.518,280.149z"/>
	<g>
		<path id="SVGCleanerId_0_1_" style="fill:#FFA800;" d="M103.905,462.421c-0.085,0-0.085-0.085-0.171-0.085"/>
	</g>
	<path style="fill:#FFA800;" d="M360.718,282.019C331.615,409.817,239.18,497.815,154.259,478.566
		c-84.921-19.248-130.17-138.452-101.068-266.25S174.729-3.479,259.65,15.769S389.821,154.221,360.718,282.019z"/>
	<path style="fill:#FFFFFF;" d="M326.643,277.425C297.54,405.224,205.106,493.221,120.185,473.973S-9.986,335.521,19.118,207.723
		S140.655-8.073,225.576,11.175S355.746,149.627,326.643,277.425z"/>
	<path style="fill:#FFE100;" d="M335.118,282.019c-29.1,127.799-117.899,216.622-198.339,198.393
		C56.339,462.183,14.721,343.803,43.82,216.004S161.719-0.618,242.159,17.612S364.218,154.221,335.118,282.019z"/>
	<g>
		<path d="M165.819,486.375c-10.402,0.005-20.771-1.153-30.916-3.45c-96.992-22-152.734-141.142-126.909-271.25
			c0.916-4.621,5.404-7.624,10.025-6.708s7.624,5.404,6.708,10.025C0.719,335.967,50.769,446.342,138.669,466.275
			c89.875,20.325,185.708-63.142,213.733-186.15c13.957-56.438,9.624-115.851-12.375-169.667
			c-21.275-48.5-56.684-80.583-99.708-90.333C167.127,3.525,87.177,56.358,45.811,148.558c-1.242,2.789-3.88,4.702-6.917,5.015
			c-3.037,0.313-6.01-1.02-7.795-3.497c-1.785-2.477-2.111-5.719-0.854-8.501C74.977,41.867,162.919-14.883,244.086,3.475
			c48.45,10.983,88.067,46.542,111.567,100.125c23.467,57.163,28.154,120.307,13.383,180.308
			C342.061,402.367,254.886,486.375,165.819,486.375z"/>
		<path d="M25.652,187.733c-1.119,0.027-2.229-0.207-3.242-0.683c-1.035-0.432-1.987-1.038-2.817-1.792
			c-0.752-0.831-1.358-1.783-1.792-2.817c-0.48-1.011-0.714-2.122-0.683-3.241c0.033-2.259,0.917-4.422,2.475-6.059
			c0.405-0.369,0.834-0.711,1.283-1.025c0.473-0.326,0.989-0.584,1.533-0.767c0.483-0.246,1-0.42,1.533-0.517
			c2.809-0.517,5.696,0.341,7.767,2.308c0.754,0.829,1.36,1.782,1.792,2.817c0.437,1.026,0.67,2.127,0.683,3.242
			c-0.019,2.262-0.905,4.43-2.475,6.059C30.104,186.861,27.922,187.753,25.652,187.733L25.652,187.733z"/>
		<path d="M179.594,249.433c-1.125,0.002-2.238-0.222-3.275-0.658c-2.1-0.871-3.766-2.545-4.625-4.65
			c-0.801-1.885-2.249-3.422-4.083-4.333c-4.174-2.129-5.852-7.225-3.758-11.417L243.827,68.5
			c3.487-7.004,9.983-12.031,17.638-13.649c7.655-1.619,15.63,0.348,21.654,5.341c17.99,15.592,32.112,35.151,41.25,57.133
			c6.189,14.238,10.838,29.098,13.867,44.325c2.407,12.011-3.986,24.055-15.283,28.791l0,0l-140.075,58.333
			C181.838,249.211,180.722,249.435,179.594,249.433z M182.277,229.7c0.192,0.192,0.383,0.4,0.567,0.6l133.542-55.608
			c3.788-1.594,5.928-5.637,5.117-9.667c-2.781-14.032-7.061-27.724-12.767-40.842c-8.088-19.573-20.611-37.001-36.583-50.908
			c-1.958-1.639-4.562-2.285-7.058-1.75c-2.604,0.534-4.816,2.237-6,4.617L182.277,229.7z"/>
		<path d="M171.486,240.725c-1.366-0.002-2.712-0.33-3.925-0.958c-2.01-0.961-4.318-1.093-6.425-0.367
			c-2.136,0.813-4.509,0.736-6.588-0.215c-2.079-0.951-3.689-2.696-4.471-4.843l-45.4-124.892c-3.339-9.388-1.007-19.858,6-26.942
			c30.792-31.2,67.108-48.375,102.283-48.375c7.9,0.021,15.776,0.887,23.492,2.583c2.925,0.675,5.725,1.434,8.492,2.3h0.009
			c6.987,2.222,12.647,7.398,15.483,14.158c2.96,6.957,2.716,14.863-0.667,21.625l-80.65,161.208
			c-1.025,2.041-2.822,3.589-4.992,4.3C173.274,240.583,172.383,240.723,171.486,240.725z M163.894,221.867
			c1.044-0.002,2.088,0.059,3.125,0.183l77.483-154.883c1.147-2.293,1.229-4.974,0.225-7.333c-0.885-2.163-2.682-3.823-4.908-4.533
			c-2.333-0.733-4.697-1.375-7.092-1.925c-6.493-1.425-13.119-2.154-19.767-2.175c-30.566,0-62.583,15.375-90.133,43.292
			c-2.395,2.385-3.217,5.929-2.116,9.125l42.991,118.25H163.894z"/>
		<path d="M147.336,252.075c-0.656,0-1.311-0.076-1.95-0.225l-79.092-18.583c-7.175-1.674-13.279-6.361-16.749-12.861
			c-3.47-6.499-3.968-14.18-1.367-21.073c11.874-32.64,26.624-64.161,44.075-94.192c3.46-5.423,9.722-8.383,16.108-7.617
			c6.477,0.703,11.985,5.037,14.192,11.167l43.558,119.817c0.776,2.125,0.675,4.471-0.28,6.522
			c-0.955,2.051-2.686,3.638-4.812,4.411c-2.694,0.951-4.716,3.21-5.367,5.992C154.774,249.319,151.32,252.078,147.336,252.075
			L147.336,252.075z M106.519,114.525c-16.771,28.977-30.951,59.378-42.375,90.85c-0.88,2.274-0.721,4.819,0.433,6.967
			c1.151,2.189,3.204,3.763,5.617,4.308l72.183,16.958c1.439-2.238,3.219-4.237,5.275-5.925L106.519,114.525z"/>
		<path d="M68.502,355.667c-2.061-0.002-4.114-0.248-6.117-0.733c-9.328-2.238-16.647-9.461-19.008-18.758
			c-7.883-32.054-9.661-65.305-5.242-98.017c0.939-7.198,4.881-13.663,10.85-17.795s13.407-5.544,20.475-3.889l79.825,18.758
			c2.249,0.526,4.189,1.942,5.375,3.925c1.186,1.982,1.517,4.361,0.917,6.592c-0.149,0.56-0.222,1.137-0.217,1.717
			c-0.013,2.393,1.019,4.672,2.825,6.242c1.734,1.485,2.8,3.604,2.958,5.882s-0.604,4.524-2.117,6.235l-71.558,81.15
			C82.707,352.487,75.786,355.658,68.502,355.667z M63.577,232.858c-4.304,0.027-7.932,3.218-8.508,7.484
			c-4.155,30.561-2.512,61.631,4.842,91.583c0.775,3.183,3.27,5.663,6.458,6.417c3.045,0.76,6.258-0.266,8.3-2.65l66.85-75.817
			c-1.666-2.979-2.712-6.264-3.075-9.658l-72.883-17.125C64.911,232.937,64.246,232.858,63.577,232.858z"/>
		<path d="M166.161,452.267c-7.945-0.014-15.865-0.88-23.625-2.583c-2.967-0.642-5.933-1.483-8.85-2.417
			c-2.883-0.917-5.742-1.975-8.542-3.142c-2.817-1.175-5.578-2.467-8.283-3.875c-2.708-1.4-5.375-2.925-7.975-4.567
			c-2.608-1.633-5.15-3.383-7.633-5.225c-2.525-1.883-4.964-3.856-7.317-5.917c-2.392-2.075-4.708-4.267-6.942-6.525
			c-11.314-11.61-20.739-24.922-27.933-39.45c-0.05-0.092-0.1-0.183-0.142-0.275c-4.87-9.361-3.493-20.752,3.467-28.683
			l83.842-95.067c1.512-1.72,3.654-2.759,5.941-2.883c2.287-0.124,4.528,0.678,6.217,2.225c1.501,1.379,3.47,2.135,5.508,2.116
			c2.345-0.451,4.77,0.149,6.633,1.642c1.893,1.507,3.044,3.758,3.158,6.175l12.342,166.65c0.416,5.666-1.536,11.252-5.392,15.425
			C176.901,449.928,171.66,452.236,166.161,452.267L166.161,452.267z M74.019,370.333l0.15,0.292
			c6.41,13.034,14.832,24.978,24.958,35.392c1.933,1.958,3.95,3.85,6.025,5.658c2.042,1.792,4.142,3.489,6.3,5.092
			c2.1,1.567,4.284,3.067,6.525,4.475c2.192,1.383,4.439,2.669,6.741,3.858c2.292,1.192,4.625,2.283,7,3.275
			c2.342,0.983,4.731,1.861,7.167,2.633c2.385,0.785,4.807,1.45,7.258,1.992c6.531,1.439,13.196,2.176,19.884,2.2
			c0.794,0.015,1.554-0.317,2.083-0.908c0.641-0.691,0.967-1.618,0.9-2.558l0,0l-11.817-159.567
			c-0.983-0.266-1.948-0.592-2.892-0.975l-79.108,89.7C72.936,363.515,72.473,367.237,74.019,370.333z"/>
		<path d="M193.894,447.808c-5.069-0.007-10.019-1.537-14.208-4.392c-6.538-4.399-10.684-11.565-11.242-19.425l-11.775-158.908
			c-0.167-2.268,0.577-4.509,2.068-6.227c1.491-1.717,3.605-2.77,5.874-2.923c2.435-0.152,4.672-1.392,6.092-3.375
			c1.332-1.853,3.351-3.095,5.605-3.451c2.254-0.355,4.557,0.206,6.395,1.559l109.492,80.708
			c10.874,8.059,13.646,23.164,6.342,34.558v0.009c-26.108,40.516-60.567,69.175-97.033,80.683
			C199.042,447.408,196.476,447.807,193.894,447.808z M174.211,270.9l11.25,151.834c0.192,2.652,1.593,5.068,3.8,6.55
			c2.074,1.435,4.694,1.832,7.1,1.075c32.675-10.325,63.867-36.483,87.825-73.658l0,0c2.449-3.822,1.521-8.887-2.125-11.592
			l-103.75-76.475C177.019,269.516,175.646,270.275,174.211,270.9L174.211,270.9z"/>
		<path d="M293.594,347.4c-5.485-0.001-10.824-1.763-15.233-5.025L172.569,264.4c-1.834-1.356-3.05-3.389-3.376-5.646
			c-0.326-2.258,0.266-4.552,1.642-6.37c1.056-1.42,1.615-3.147,1.592-4.917c0.023-1.028-0.176-2.048-0.583-2.992
			c-0.97-2.105-1.043-4.515-0.2-6.674c0.842-2.16,2.527-3.884,4.667-4.776l131.175-54.633c7.686-3.261,16.489-2.499,23.5,2.033
			c7.163,4.596,11.625,12.404,11.95,20.908c0.945,25.206-1.456,50.426-7.142,75l0,0c-4.416,19.398-10.811,38.291-19.083,56.383
			c-3.166,6.898-9.284,11.993-16.642,13.858C297.954,347.12,295.779,347.398,293.594,347.4z M188.41,254.875l100.075,73.767
			c2.105,1.548,4.796,2.065,7.325,1.408c2.379-0.586,4.361-2.224,5.383-4.45c7.788-17.028,13.808-34.81,17.967-53.067l0,0
			c5.347-23.105,7.608-46.817,6.725-70.517c-0.084-2.931-1.613-5.63-4.083-7.208c-2.311-1.509-5.226-1.756-7.758-0.658
			l-124.592,51.883c0.025,0.475,0.042,0.95,0.042,1.434C189.499,249.976,189.134,252.472,188.41,254.875L188.41,254.875z"/>
	</g>
	<path id="SVGCleanerId_1" d="M163.894,273.067c-14.096-0.101-25.499-11.504-25.6-25.6c-0.008-2.071,0.261-4.134,0.8-6.133
		c1.974-8.313,8.025-15.061,16.075-17.925c12.857-4.677,27.116,1.616,32.325,14.267c1.359,3.083,2.041,6.422,2,9.792
		c-0.039,13.242-10.153,24.277-23.342,25.467C165.403,273.027,164.649,273.072,163.894,273.067z M163.894,238.933
		c-0.94-0.014-1.875,0.144-2.758,0.467c-2.743,0.935-4.814,3.214-5.483,6.033c-0.19,0.661-0.288,1.346-0.292,2.034
		c0.1,4.671,3.863,8.433,8.533,8.533c2.681-0.029,5.196-1.3,6.808-3.442c1.13-1.456,1.738-3.249,1.725-5.092
		c0.023-1.028-0.176-2.048-0.583-2.992c-0.79-2.027-2.296-3.693-4.233-4.683C166.461,239.205,165.185,238.911,163.894,238.933z"/>
	<path d="M265.169,512.117c-15.867-0.015-31.709-1.263-47.383-3.733c-19.489-3.123-38.797-7.285-57.842-12.467
		c-24.367-6-47.349-16.639-67.692-31.333c-3.751-2.853-4.478-8.207-1.625-11.958c2.853-3.751,8.207-4.478,11.958-1.625
		c18.605,13.363,39.606,23.024,61.858,28.459c18.442,5.015,37.138,9.043,56.008,12.067c92.617,14.467,178.692-16.258,230.267-82.258
		c27.621-34.3,43.284-76.682,44.608-120.7c0.083-3.767,0-7.442-0.242-11.117c-3.544-44.079-19.048-86.356-44.842-122.275
		c-26.923-37.769-60.98-69.901-100.25-94.583c-39.873-27.123-86.694-42.23-134.9-43.525h-1.283c-1.917,0-3.767,0.083-5.6,0.158
		l-4.317,0.25c-2.992,0.233-6.167,0.558-9.158,0.967c-4.458,0.625-8.058,1.283-11.292,2.05c-1.05,0.208-1.7,0.4-2.292,0.567
		c-1.958,0.483-3.483,0.917-5,1.35c-1.975,0.558-3.492,0.983-4.942,1.55c-0.294,0.117-0.594,0.218-0.9,0.3
		c-0.2,0.092-1.025,0.358-1.233,0.433c-1.092,0.375-2.108,0.758-3.125,1.142l-1.575,0.592c-4.423,1.634-9.333-0.627-10.967-5.05
		c-1.634-4.423,0.627-9.333,5.05-10.967l1.483-0.55c1.158-0.433,2.308-0.867,3.55-1.3c0.671-0.272,1.358-0.5,2.058-0.683
		c1.799-0.682,3.632-1.268,5.492-1.758c2.2-0.625,3.967-1.125,5.733-1.542c1.023-0.316,2.064-0.572,3.117-0.767
		c3.358-0.808,7.458-1.558,12.508-2.275c3.358-0.45,6.85-0.808,10.342-1.084l4.592-0.267c2.225-0.1,4.308-0.183,6.475-0.183h1.283
		c51.485,1.288,101.516,17.339,144.142,46.242c41.164,25.906,76.855,59.624,105.058,99.25
		c27.722,38.407,44.277,83.734,47.833,130.967c0.267,4.033,0.35,8.208,0.267,12.375c-1.388,47.734-18.32,93.71-48.225,130.942
		C417.702,479.225,345.494,512.117,265.169,512.117z"/>
	<path style="fill:#FF8800;" d="M180.961,247.467c-0.035,8.909-6.904,16.298-15.787,16.981c-0.423,0.071-0.852,0.099-1.28,0.085
		c-4.169,0.019-8.191-1.535-11.264-4.352c-3.696-3.189-5.815-7.833-5.803-12.715c-0.003-1.325,0.169-2.645,0.512-3.925
		c1.295-5.602,5.344-10.165,10.752-12.117c4.382-1.595,9.227-1.317,13.397,0.768c3.655,1.84,6.53,4.928,8.107,8.704
		C180.521,242.962,180.986,245.203,180.961,247.467z"/>
	<g>
		<path id="SVGCleanerId_1_1_" d="M163.894,273.067c-14.096-0.101-25.499-11.504-25.6-25.6c-0.008-2.071,0.261-4.134,0.8-6.133
			c1.974-8.313,8.025-15.061,16.075-17.925c12.857-4.677,27.116,1.616,32.325,14.267c1.359,3.083,2.041,6.422,2,9.792
			c-0.039,13.242-10.153,24.277-23.342,25.467C165.403,273.027,164.649,273.072,163.894,273.067z M163.894,238.933
			c-0.94-0.014-1.875,0.144-2.758,0.467c-2.743,0.935-4.814,3.214-5.483,6.033c-0.19,0.661-0.288,1.346-0.292,2.034
			c0.1,4.671,3.863,8.433,8.533,8.533c2.681-0.029,5.196-1.3,6.808-3.442c1.13-1.456,1.738-3.249,1.725-5.092
			c0.023-1.028-0.176-2.048-0.583-2.992c-0.79-2.027-2.296-3.693-4.233-4.683C166.461,239.205,165.185,238.911,163.894,238.933z"/>
	</g>
</g>
<g>
</g>
<g>
</g>
<g>
</g>
<g>
</g>
<g>
</g>
<g>
</g>
<g>
</g>
<g>
</g>
<g>
</g>
<g>
</g>
<g>
</g>
<g>
</g>
<g>
</g>
<g>
</g>
<g>
</g>
</svg>
