<?xml version="1.0" encoding="iso-8859-1"?>
<!-- Generator: Adobe Illustrator 19.0.0, SVG Export Plug-In . SVG Version: 6.00 Build 0)  -->
<svg version="1.1" id="Capa_1" xmlns="http://www.w3.org/2000/svg" xmlns:xlink="https://www.w3.org/1999/xlink" x="0px" y="0px"
	 viewBox="0 0 512.002 512.002" style="enable-background:new 0 0 512.002 512.002;" xml:space="preserve">
<path style="fill:#30AA44;" d="M309.09,111.017c-1.847-15.709-14.386-85.064-92.729-102.367c-3.726-0.823-7.277,1.963-7.341,5.779
	c-0.395,23.709,5.795,98.345,99.073,99.747C308.42,113.115,308.754,112.064,309.09,111.017z"/>
<path style="fill:#269E35;" d="M229.021,14.429c0.013-0.789,0.182-1.53,0.464-2.208c-4.158-1.354-8.523-2.555-13.124-3.571
	c-3.726-0.823-7.277,1.963-7.341,5.779c-0.395,23.709,5.795,98.345,99.073,99.747c0.155-0.505,0.316-1.003,0.474-1.504
	C233.935,101.867,228.656,36.362,229.021,14.429z"/>
<path style="fill:#93603E;" d="M304.241,133.697c4.031,0.511,8.001,1.264,11.901,2.226c14.588-29.054,38.238-62.552,75.507-85.015
	c4.254-2.565,5.009-8.425,1.563-12.003l-20.84-21.644c-4.76-4.943-12.809-4.444-16.911,1.056
	c-13.628,18.274-40.857,59.931-53.629,115.115C302.635,133.519,303.439,133.595,304.241,133.697z"/>
<path style="fill:#7F573C;" d="M370.967,32.418c2.93-3.929,7.871-5.291,12.191-3.955l-10.785-11.201
	c-4.76-4.943-12.809-4.444-16.911,1.056c-13.628,18.274-40.857,59.931-53.629,115.115c0.803,0.087,1.607,0.163,2.409,0.265
	c4.031,0.511,8.001,1.264,11.901,2.226c2.802-5.58,5.941-11.324,9.444-17.123C339.578,77.961,359.82,47.365,370.967,32.418z"/>
<path style="fill:#FFA92C;" d="M385.902,191.472l-0.003,0.001c-0.076-0.157-0.152-0.314-0.229-0.471
	c-15.549-31.828-46.288-53.85-81.429-58.305c-87.991-11.156-161.853,63.775-149.832,150.925l-0.031,0.009
	c5.767,27.777,4.924,91.764-35.608,147.106c-21.967,29.971-1.016,70.462,34.375,73.089c32.751,2.43,86.223-0.6,137.752-33.466
	C413.298,392.293,422.622,260.075,385.902,191.472z"/>
<path style="fill:#F7991E;" d="M174.134,503.826c-35.39-2.626-56.342-43.118-34.375-73.089
	c40.532-55.342,41.375-119.329,35.608-147.106l0.031-0.01c-10.723-77.74,46.893-145.752,121.916-151.616
	c-84.897-6.491-154.608,66.764-142.904,151.616l-0.031,0.01c5.767,27.777,4.924,91.764-35.608,147.106
	c-21.967,29.971-1.016,70.462,34.375,73.089c8.197,0.608,17.693,0.874,28.131,0.416
	C178.803,504.134,176.413,503.995,174.134,503.826z"/>
<path d="M106.49,480.884c8.599,17.604,25.363,28.977,44.843,30.422c49.312,3.66,99.031-6.999,142.34-34.623
	c64.478-41.124,105.387-102.135,115.191-171.794c0.577-4.102-2.28-7.895-6.381-8.472c-4.106-0.576-7.895,2.279-8.472,6.381
	c-9.184,65.248-47.683,122.51-108.404,161.238c-48.976,31.238-99.447,34.814-133.164,32.31c-29.655-2.2-47.308-36.046-28.879-61.178
	c45.337-61.9,40.437-128.346,37.856-147.237c-0.014-0.104-0.031-0.207-0.049-0.31c-6.016-33.51,1.583-68.173,22.016-96.398
	c49.301-68.104,157.63-72.397,194.499,3.503c0.082,0.169,0.168,0.334,0.261,0.495c10.854,20.378,17.188,46.576,17.841,73.803
	c0.1,4.142,3.553,7.407,7.678,7.318c4.141-0.1,7.417-3.537,7.318-7.678c-1.432-59.716-27.682-119.068-85.172-138.389
	c2.766-5.051,5.675-9.896,8.695-14.579c1.968,5.052,5.195,9.548,9.492,13.094c6.935,5.721,15.459,8.772,24.334,8.772
	c1.236,0,2.48-0.06,3.727-0.179c10.195-0.977,19.4-5.866,25.918-13.766c3.051-3.698,5.492-7.812,7.256-12.226
	c1.537-3.847-0.336-8.211-4.182-9.748c-3.847-1.535-8.211,0.336-9.748,4.182c-1.187,2.972-2.834,5.746-4.896,8.245
	c-3.968,4.81-9.572,7.786-15.779,8.381c-6.204,0.594-12.274-1.263-17.084-5.232c-3.539-2.919-5.728-7.042-6.166-11.609
	c-0.399-4.17,0.721-8.246,3.139-11.618c12.886-15.254,27.494-27.865,43.747-37.662c3.987-2.404,6.623-6.432,7.23-11.052
	c0.609-4.629-0.898-9.213-4.137-12.576l-20.841-21.644c-7.969-8.276-21.458-7.432-28.326,1.775
	c-10.365,13.899-26.518,38.327-39.765,70.581c-3.083-9.312-7.676-19.93-14.523-30.506c-2.252-3.477-6.896-4.471-10.372-2.22
	c-3.477,2.251-4.471,6.895-2.22,10.372c11.056,17.077,15.5,34.27,17.261,44.335c-26.258-1.625-46.736-9.862-60.949-24.533
	c-20.754-21.422-23.37-51.696-23.376-65.489c17.471,4.099,32.69,11.297,45.262,21.411c3.227,2.597,7.949,2.085,10.545-1.143
	s2.085-7.949-1.143-10.545c-14.809-11.913-32.705-20.248-53.19-24.771c-8.357-1.848-16.315,4.419-16.458,12.977
	c-0.244,14.639,1.957,51.542,27.587,77.997c16.574,17.107,39.787,26.797,69.058,28.922c-0.374,1.382-0.734,2.779-1.092,4.18
	c-48.397-3.027-95.104,18.683-123.582,58.023c-21.318,29.448-30.4,65.473-25.607,101.52c0.017,0.401,0.066,0.806,0.15,1.211
	l0.064,0.329c0.251,1.751,0.487,3.23,0.735,4.626c2.395,17.683,6.779,78.993-35.112,136.19
	C99.163,443.078,98.014,463.53,106.49,480.884z M360.217,21.801c1.329-1.782,3.938-1.957,5.497-0.338
	c0.314,0.326,21.195,21.789,20.808,22.022c-17.149,10.336-32.586,23.496-46.219,39.33c-0.225,0.212-0.443,0.435-0.645,0.68
	c-0.268,0.325-0.523,0.657-0.777,0.99c-10.435,12.378-19.797,26.345-28.014,41.87c-0.006-0.001-0.589-0.102-1.021-0.182
	C319.725,88.531,337.995,51.6,360.217,21.801z"/>
<g>
</g>
<g>
</g>
<g>
</g>
<g>
</g>
<g>
</g>
<g>
</g>
<g>
</g>
<g>
</g>
<g>
</g>
<g>
</g>
<g>
</g>
<g>
</g>
<g>
</g>
<g>
</g>
<g>
</g>
</svg>
