<?xml version="1.0" encoding="iso-8859-1"?>
<!-- Generator: Adobe Illustrator 19.0.0, SVG Export Plug-In . SVG Version: 6.00 Build 0)  -->
<svg version="1.1" id="Capa_1" xmlns="http://www.w3.org/2000/svg" xmlns:xlink="https://www.w3.org/1999/xlink" x="0px" y="0px"
	 viewBox="0 0 512 512" style="enable-background:new 0 0 512 512;" xml:space="preserve">
<path style="fill:#5EAC24;" d="M403.163,35.71l-0.01,0.03c-5.038,11.01-19.419,37.985-45.847,55.597
	c-21.034,14.026-49.706,22.121-87.397,11.538c-3.413-0.955-6.906-2.062-10.471-3.341c-0.01-0.01-0.02-0.01-0.03-0.01
	c-1.351-0.488-2.011-2.001-1.463-3.321c0-0.01,0-0.01,0.01-0.02c0.792-1.92,1.605-3.799,2.448-5.617
	c17.449-38.107,43.714-54.998,69.206-61.457c30.815-7.81,60.492-0.366,72.05,3.281l0.03,0.01
	C403.081,32.836,403.772,34.39,403.163,35.71z"/>
<path style="fill:#6DC82A;" d="M403.163,35.71l-0.01,0.03c-5.038,11.01-19.419,37.985-45.847,55.597
	c-16.098,3.992-34.989,4.164-56.927-2.001c-3.413-0.955-6.906-2.062-10.471-3.341c-0.01-0.01-0.02-0.01-0.03-0.01
	c-1.351-0.488-2.011-2.001-1.463-3.321c0-0.01,0-0.01,0.01-0.02c0.792-1.92,1.605-3.799,2.448-5.617
	c10.441-22.801,24.04-38.006,38.737-47.918c30.815-7.81,60.492-0.366,72.05,3.281l0.03,0.01
	C403.081,32.836,403.772,34.39,403.163,35.71z"/>
<path style="fill:#4E901E;" d="M359.957,59.07l-10.888,5.302l6.074,3.677c3.606,2.173,4.763,6.856,2.59,10.451
	c-1.432,2.377-3.951,3.687-6.531,3.687c-1.341,0-2.702-0.355-3.931-1.097l-14.524-8.775l-62.838,30.561
	c-3.413-0.955-6.906-2.062-10.471-3.341c-0.01-0.01-0.02-0.01-0.03-0.01c-1.351-0.488-2.011-2.001-1.463-3.321
	c0-0.01,0-0.01,0.01-0.02c0.792-1.92,1.605-3.799,2.448-5.617l42.993-20.922l3.362-16.454c0.843-4.113,4.865-6.774,8.989-5.931
	c4.124,0.843,6.785,4.865,5.942,8.989l-1.026,4.997l32.633-15.875c3.788-1.838,8.338-0.264,10.177,3.524
	C365.319,52.672,363.745,57.232,359.957,59.07z"/>
<path style="fill:#47821C;" d="M298.723,88.859l-28.814,14.016c-3.413-0.955-6.906-2.062-10.471-3.341
	c-0.01-0.01-0.02-0.01-0.03-0.01c-1.351-0.488-2.011-2.001-1.463-3.321c0-0.01,0-0.01,0.01-0.02c0.792-1.92,1.605-3.799,2.448-5.617
	l31.252-15.204c-0.264,0.548-0.528,1.107-0.782,1.666c-0.843,1.818-1.656,3.697-2.448,5.617c-0.01,0.01-0.01,0.01-0.01,0.02
	c-0.548,1.32,0.112,2.834,1.463,3.321c0.01,0,0.02,0,0.03,0.01C292.893,87.072,295.839,88.016,298.723,88.859z"/>
<path style="fill:#EE8700;" d="M256.076,187.134c-4.208,0-7.617-3.411-7.617-7.617V7.617c0-4.207,3.41-7.617,7.617-7.617
	c4.208,0,7.617,3.411,7.617,7.617v171.899C263.693,183.723,260.283,187.134,256.076,187.134z"/>
<path style="fill:#9CDD05;" d="M422.074,383.662c0,70.588-57.76,128.338-128.348,128.338h-75.3
	c-35.294,0-67.378-14.443-90.647-37.701c-23.258-23.258-37.701-55.343-37.701-90.637c0-33.273,15.529-63.082,39.692-82.552
	c14.118-11.375,25.33-25.594,33.009-41.51c7.678-15.915,11.832-33.506,11.832-51.636c0-22.405,9.161-42.769,23.929-57.537
	s35.131-23.929,57.537-23.929c6.013,0,11.873,0.66,17.52,1.92c15.407,3.402,29.21,11.203,40.017,22.009
	c14.768,14.768,23.929,35.131,23.929,57.537c0,36.249,16.606,70.405,44.841,93.145c12.086,9.73,21.999,22.06,28.905,36.096
	C418.194,351.253,422.074,367.026,422.074,383.662z"/>
<g>
	<path style="fill:#91CC04;" d="M405.133,326.369c20.051,73.02-38.905,156.177-124.61,156.177h-40.26
		c-34.253,0-66.754-13.694-90.864-37.918C109.8,404.841,121.044,336.377,164.81,301.11c28.341-22.836,44.841-57.027,44.841-93.145
		c0-38.82,27.504-71.499,63.945-79.546c-50.541-11.272-98.985,27.667-98.985,79.546c0,36.108-16.493,70.303-44.841,93.145
		c-2.298,1.852-4.518,3.799-6.654,5.832c0-0.001,0.001-0.001,0.001-0.002C48.128,378.289,108.532,512,218.426,512
		c14.938,0,60.558,0,75.3,0C394.475,512,453.118,400.177,405.133,326.369z"/>
	<circle style="fill:#91CC04;" cx="313.968" cy="362.334" r="22.344"/>
	<circle style="fill:#91CC04;" cx="265.217" cy="423.273" r="18.282"/>
	<circle style="fill:#91CC04;" cx="338.344" cy="429.367" r="18.282"/>
</g>
<g>
</g>
<g>
</g>
<g>
</g>
<g>
</g>
<g>
</g>
<g>
</g>
<g>
</g>
<g>
</g>
<g>
</g>
<g>
</g>
<g>
</g>
<g>
</g>
<g>
</g>
<g>
</g>
<g>
</g>
</svg>
