<?xml version="1.0" encoding="iso-8859-1"?>
<!-- Generator: Adobe Illustrator 19.0.0, SVG Export Plug-In . SVG Version: 6.00 Build 0)  -->
<svg version="1.1" id="Capa_1" xmlns="http://www.w3.org/2000/svg" xmlns:xlink="https://www.w3.org/1999/xlink" x="0px" y="0px"
	 viewBox="0 0 511.995 511.995" style="enable-background:new 0 0 511.995 511.995;" xml:space="preserve">
<path style="fill:#F3C97F;" d="M187.945,419.707L84.034,315.796c-8.096-8.096-8.096-21.223,0-29.32l23.78-23.78
	c8.096-8.096,21.223-8.096,29.32,0l103.911,103.911c8.096,8.096,8.096,21.223,0,29.32l-23.78,23.78
	C209.169,427.803,196.042,427.803,187.945,419.707z"/>
<path style="fill:#AA8769;" d="M237.089,362.651l-95.999-95.999c-10.281-10.281-10.281-26.951,0-37.232l0,0
	c10.281-10.281,26.951-10.281,37.232,0l95.999,95.999c10.281,10.281,10.281,26.951,0,37.232l0,0
	C264.04,372.933,247.37,372.933,237.089,362.651z"/>
<path style="fill:#F3C97F;" d="M423.535,213.436L423.535,213.436c7.936-7.936,7.936-20.804,0-28.74L319.044,80.205
	c-7.936-7.936-20.804-7.936-28.74,0l0,0c-5.956,5.956-8.505,14.514-6.778,22.757l3.183,15.202c1.393,6.65-0.664,13.555-5.468,18.359
	l0,0c-4.553,4.553-11.01,6.653-17.37,5.65l-14.734-2.324c-10.027-1.582-20.206,1.729-27.384,8.907l-44.623,44.623
	c-9.623,9.623-9.623,25.225,0,34.849l98.383,98.383c9.623,9.623,25.225,9.623,34.849,0l44.623-44.623
	c7.178-7.178,10.489-17.357,8.907-27.384l-2.324-14.733c-1.003-6.36,1.097-12.817,5.65-17.37l0,0
	c4.805-4.805,11.709-6.861,18.359-5.468l15.202,3.183C409.021,221.941,417.579,219.393,423.535,213.436z"/>
<g>
	
		<ellipse transform="matrix(0.7071 -0.7071 0.7071 0.7071 -71.3942 220.3076)" style="fill:#FFFFFF;" cx="230.238" cy="196.334" rx="16.03" ry="20.13"/>
	
		<ellipse transform="matrix(-0.7071 0.7071 -0.7071 -0.7071 718.1628 249.5434)" style="fill:#FFFFFF;" cx="307.399" cy="273.508" rx="16.03" ry="20.13"/>
</g>
<g>
	<path style="fill:#495059;" d="M249.845,200.824c-1.919,0-3.839-0.732-5.303-2.196c-2.929-2.93-2.929-7.678,0-10.607l5.027-5.027
		c2.929-2.928,7.678-2.928,10.606,0c2.929,2.93,2.929,7.678,0,10.607l-5.027,5.027C253.684,200.092,251.764,200.824,249.845,200.824
		z"/>
	<path style="fill:#495059;" d="M310.416,261.396c-1.919,0-3.838-0.732-5.303-2.196c-2.929-2.929-2.929-7.678,0-10.606l5.027-5.027
		c2.929-2.93,7.677-2.929,10.607-0.001c2.929,2.929,2.929,7.678,0.001,10.607l-5.027,5.027
		C314.255,260.664,312.335,261.396,310.416,261.396z"/>
	<path style="fill:#495059;" d="M286.86,239.352c-5.944,0-11.665-2.351-15.893-6.578c-4.594-4.594-6.972-10.95-6.527-17.44
		c0.283-4.132,3.885-7.246,7.996-6.969c4.133,0.283,7.253,3.863,6.969,7.996c-0.148,2.163,0.642,4.279,2.168,5.807
		c1.525,1.525,3.639,2.309,5.805,2.167c4.134-0.273,7.712,2.836,7.996,6.969s-2.836,7.713-6.969,7.996
		C287.89,239.335,287.374,239.352,286.86,239.352z"/>
</g>
<rect x="307.951" y="106.99" transform="matrix(-0.7071 -0.7071 0.7071 -0.7071 565.6357 478.0986)" style="fill:#AA8769;" width="147.769" height="29.825"/>
<path style="opacity:0.1;enable-background:new    ;" d="M340.133,59.117l-10.545,10.545l64.192,64.192
	c3.186,3.186,3.186,8.351,0,11.537l-4.776,4.776l34.531,34.531l21.089-21.09L340.133,59.117z"/>
<path style="fill:#F3C97F;" d="M472.947,62.958l-32.164-32.164c-27.909-27.909-73.158-27.909-101.068,0l0,0
	c-7.706,7.706-7.706,20.199,0,27.905l105.326,105.326c7.706,7.706,20.199,7.706,27.905,0l0,0
	C500.856,136.115,500.856,90.866,472.947,62.958z"/>
<path style="fill:#AA8769;" d="M499.32,36.176L467.564,4.42c-5.895-5.894-15.451-5.894-21.346,0l-5.231,5.231
	c-5.895,5.894-5.895,15.451,0,21.346l31.757,31.757c5.895,5.895,15.451,5.895,21.346,0l5.231-5.231
	C505.215,51.629,505.215,42.071,499.32,36.176z"/>
<g>
	<circle style="fill:#495059;" cx="59.921" cy="372.9" r="15.225"/>
	<circle style="fill:#495059;" cx="138.037" cy="430.69" r="15.225"/>
	<circle style="fill:#495059;" cx="73.117" cy="434.84" r="15.225"/>
	<circle style="fill:#495059;" cx="101.897" cy="496.77" r="15.225"/>
	<circle style="fill:#495059;" cx="23.478" cy="475.579" r="15.225"/>
</g>
<path style="opacity:0.15;fill:#C85412;enable-background:new    ;" d="M187.945,419.707c8.096,8.096,21.223,8.096,29.32,0
	l23.78-23.78c8.096-8.096,8.096-21.223,0-29.32l-29.252-29.252c-11.061,17.162-42.378,44.465-55.722,50.477L187.945,419.707z"/>
<path style="opacity:0.1;enable-background:new    ;" d="M237.089,362.651c10.281,10.281,26.951,10.281,37.232,0l0,0
	c10.281-10.281,10.281-26.951,0-37.232l-25.42-25.42c-7.182,21.39-23.11,32.631-37.399,37.064L237.089,362.651z"/>
<g>
	<path style="opacity:0.15;fill:#C85412;enable-background:new    ;" d="M389.075,150.236
		c-0.418,18.363-11.848,32.628-25.527,32.102c-16.059-0.618-35.207,9.265-38.295,51.266c-2.941,39.998-50.695,65.432-77.114,65.632
		l27.373,27.373c9.623,9.623,25.225,9.623,34.849,0l44.623-44.623c7.178-7.178,10.489-17.357,8.907-27.384l-2.324-14.733
		c-1.003-6.36,1.097-12.817,5.65-17.37l0,0c4.804-4.805,11.709-6.861,18.359-5.468l15.202,3.183
		c8.244,1.726,16.802-0.823,22.758-6.778c7.936-7.936,7.936-20.804,0-28.74L389.075,150.236z"/>
	<path style="opacity:0.15;fill:#C85412;enable-background:new    ;" d="M472.947,164.024L472.947,164.024
		c27.909-27.909,27.909-73.159,0-101.068l-5.294-5.294c-2.469,42.577-35.555,66.829-58.822,70.151l36.211,36.211
		C452.748,171.73,465.241,171.73,472.947,164.024z"/>
</g>
<path style="opacity:0.1;enable-background:new    ;" d="M494.089,62.754l5.231-5.231c5.895-5.895,5.895-15.451,0-21.346
	l-11.329-11.329c0.18,17.827-17.706,26.458-27.058,26.095l11.81,11.811C478.638,68.648,488.195,68.648,494.089,62.754z"/>
<g>
</g>
<g>
</g>
<g>
</g>
<g>
</g>
<g>
</g>
<g>
</g>
<g>
</g>
<g>
</g>
<g>
</g>
<g>
</g>
<g>
</g>
<g>
</g>
<g>
</g>
<g>
</g>
<g>
</g>
</svg>
