<?xml version="1.0" encoding="iso-8859-1"?>
<!-- Generator: Adobe Illustrator 19.0.0, SVG Export Plug-In . SVG Version: 6.00 Build 0)  -->
<svg version="1.1" id="Capa_1" xmlns="http://www.w3.org/2000/svg" xmlns:xlink="https://www.w3.org/1999/xlink" x="0px" y="0px"
	 viewBox="0 0 512.009 512.009" style="enable-background:new 0 0 512.009 512.009;" xml:space="preserve">
<rect x="187.229" y="422.766" style="fill:#D65E05;" width="63.729" height="89.244"/>
<rect x="212.563" y="466.191" style="fill:#ED6B00;" width="38.396" height="45.813"/>
<polygon style="fill:#41C476;" points="398.345,448.266 292.346,300.433 364.935,300.433 268.846,166.421 338.414,166.421 
	219.088,0.001 99.762,166.421 169.332,166.421 73.242,300.433 145.831,300.433 39.832,448.266 "/>
<g>
	<polygon style="fill:#2EAA60;" points="145.829,300.432 180.726,300.432 125.206,448.271 39.83,448.271 	"/>
	<polygon style="fill:#2EAA60;" points="169.336,166.427 193.029,166.427 142.704,300.432 73.241,300.432 	"/>
	<polygon style="fill:#2EAA60;" points="156.603,166.427 99.762,166.427 219.088,0 	"/>
</g>
<rect x="295.599" y="422.766" style="fill:#D65E05;" width="63.729" height="89.244"/>
<rect x="320.933" y="466.191" style="fill:#ED6B00;" width="38.396" height="45.813"/>
<polygon style="fill:#41C476;" points="472.179,448.266 386.606,328.92 445.206,328.92 367.634,220.732 423.797,220.732 
	327.465,86.381 231.133,220.732 287.295,220.732 209.723,328.92 268.323,328.92 182.75,448.266 "/>
<g>
	<polygon style="fill:#2EAA60;" points="327.465,86.381 231.133,220.732 279.022,220.732 	"/>
	<polygon style="fill:#2EAA60;" points="307.265,220.732 287.295,220.732 209.723,328.92 268.255,328.92 	"/>
	<polygon style="fill:#2EAA60;" points="268.323,328.92 182.75,448.267 254.692,448.267 297.724,328.92 	"/>
</g>
<g>
</g>
<g>
</g>
<g>
</g>
<g>
</g>
<g>
</g>
<g>
</g>
<g>
</g>
<g>
</g>
<g>
</g>
<g>
</g>
<g>
</g>
<g>
</g>
<g>
</g>
<g>
</g>
<g>
</g>
</svg>
