<svg id="color_line" height="512" viewBox="0 0 74 74" width="512" xmlns="http://www.w3.org/2000/svg" data-name="color line"><path d="m60.068 40.172c0 12.866-4.482 21.062-12.393 26.879a21.333 21.333 0 0 1 -12.666 3.935 21.333 21.333 0 0 1 -12.666-3.935c-7.911-5.818-12.393-14.013-12.393-26.879 0-13.235 11.15-21.262 25.059-21.483 13.908.221 25.059 8.248 25.059 21.483z" fill="#a583a2"/><path d="m60.07 40.17c0 12.87-4.48 21.06-12.39 26.88a21.4 21.4 0 0 1 -12.67 3.94 21.374 21.374 0 0 1 -12.67-3.94 28.757 28.757 0 0 1 -8.81-10.1 30.726 30.726 0 0 0 6.23 6.02 21.343 21.343 0 0 0 12.67 3.93 21.335 21.335 0 0 0 12.66-3.93c7.91-5.82 12.4-14.02 12.4-26.88a20.382 20.382 0 0 0 -1.85-8.67 19.6 19.6 0 0 1 4.43 12.75z" fill="#967895"/><path d="m35.011 71.485a21.9 21.9 0 0 1 -12.964-4.031c-8.594-6.32-12.6-14.99-12.6-27.283 0-12.7 10.507-21.743 25.551-21.982 15.061.239 25.567 9.278 25.567 21.982 0 12.293-4 20.962-12.6 27.282a21.889 21.889 0 0 1 -12.954 4.032zm-.011-52.296c-14.448.229-24.551 8.857-24.551 20.982 0 11.948 3.873 20.361 12.188 26.477a20.9 20.9 0 0 0 12.372 3.837 20.889 20.889 0 0 0 12.371-3.838c8.32-6.114 12.188-14.527 12.188-26.476 0-12.124-10.102-20.752-24.568-20.982z" fill="#323c6b"/><path d="m36.1 18.59c.156-3.112 1.07-9.369 5.759-12.281l-2.786-1.757c-6.059 3.764-5.817 13.114-5.773 14.038z" fill="#e7aa6c"/><path d="m36.1 19.09h-2.8a.5.5 0 0 1 -.5-.479c-.045-1.072-.261-10.586 6.014-14.484a.5.5 0 0 1 .53 0l2.784 1.757a.5.5 0 0 1 0 .848c-4.428 2.75-5.366 8.626-5.528 11.883a.5.5 0 0 1 -.5.475zm-2.314-1h1.844c.229-3.353 1.259-8.786 5.316-11.767l-1.87-1.178c-5.003 3.355-5.309 10.823-5.292 12.945z" fill="#323c6b"/><path d="m20.159 4.152a10.561 10.561 0 0 0 13.56 8.622 10.561 10.561 0 0 0 -13.56-8.622z" fill="#6fc666"/><path d="m30.576 13.714a10.914 10.914 0 0 1 -5.9-1.7 11.231 11.231 0 0 1 -5.015-7.779.5.5 0 0 1 .358-.563 11.061 11.061 0 0 1 14.187 9.022.5.5 0 0 1 -.358.563 12.153 12.153 0 0 1 -3.272.457zm-9.84-9.2a10.179 10.179 0 0 0 4.481 6.65 10.189 10.189 0 0 0 7.924 1.239 10.029 10.029 0 0 0 -12.405-7.885z" fill="#323c6b"/><path d="m33.558 12.609-7.917-5.024" fill="#6fc666"/><path d="m33.559 13.109a.5.5 0 0 1 -.268-.078l-7.918-5.024a.5.5 0 0 1 .535-.845l7.918 5.025a.5.5 0 0 1 -.268.922z" fill="#323c6b"/><path d="m27.443 6.925.134 1.888" fill="#6fc666"/><path d="m27.576 9.313a.5.5 0 0 1 -.5-.464l-.133-1.889a.5.5 0 0 1 .464-.534.515.515 0 0 1 .534.463l.135 1.889a.5.5 0 0 1 -.464.534z" fill="#323c6b"/><path d="m29.369 8.183.131 1.851" fill="#6fc666"/><path d="m29.5 10.534a.5.5 0 0 1 -.5-.464l-.132-1.852a.5.5 0 0 1 .464-.534.513.513 0 0 1 .534.463l.134 1.853a.5.5 0 0 1 -.464.534z" fill="#323c6b"/><path d="m31.196 9.669.108 1.509" fill="#6fc666"/><path d="m31.3 11.678a.5.5 0 0 1 -.5-.464l-.1-1.514a.5.5 0 0 1 .464-.534.518.518 0 0 1 .534.463l.107 1.509a.5.5 0 0 1 -.464.534z" fill="#323c6b"/><path d="m26.159 9.631 2.3-.258" fill="#6fc666"/><path d="m26.158 10.131a.5.5 0 0 1 -.055-1l2.3-.258a.5.5 0 1 1 .111.994l-2.3.258z" fill="#323c6b"/><path d="m29.095 10.89 2.104-.151" fill="#6fc666"/><path d="m29.095 11.39a.5.5 0 0 1 -.035-1l2.1-.152a.506.506 0 0 1 .535.462.5.5 0 0 1 -.463.535l-2.1.152z" fill="#323c6b"/><path d="m20.159 4.152a10.561 10.561 0 0 0 13.56 8.622 10.561 10.561 0 0 0 -13.56-8.622z" fill="#6fc666"/><path d="m30.576 13.714a10.914 10.914 0 0 1 -5.9-1.7 11.231 11.231 0 0 1 -5.015-7.779.5.5 0 0 1 .358-.563 11.061 11.061 0 0 1 14.187 9.022.5.5 0 0 1 -.358.563 12.153 12.153 0 0 1 -3.272.457zm-9.84-9.2a10.179 10.179 0 0 0 4.481 6.65 10.189 10.189 0 0 0 7.924 1.239 10.029 10.029 0 0 0 -12.405-7.885z" fill="#323c6b"/><path d="m33.558 12.609-7.917-5.024" fill="#6fc666"/><path d="m33.559 13.109a.5.5 0 0 1 -.268-.078l-7.918-5.024a.5.5 0 0 1 .535-.845l7.918 5.025a.5.5 0 0 1 -.268.922z" fill="#323c6b"/><path d="m27.443 6.925.134 1.888" fill="#6fc666"/><path d="m27.576 9.313a.5.5 0 0 1 -.5-.464l-.133-1.889a.5.5 0 0 1 .464-.534.515.515 0 0 1 .534.463l.135 1.889a.5.5 0 0 1 -.464.534z" fill="#323c6b"/><path d="m29.369 8.183.131 1.851" fill="#6fc666"/><path d="m29.5 10.534a.5.5 0 0 1 -.5-.464l-.132-1.852a.5.5 0 0 1 .464-.534.513.513 0 0 1 .534.463l.134 1.853a.5.5 0 0 1 -.464.534z" fill="#323c6b"/><path d="m31.196 9.669.108 1.509" fill="#6fc666"/><path d="m31.3 11.678a.5.5 0 0 1 -.5-.464l-.1-1.514a.5.5 0 0 1 .464-.534.518.518 0 0 1 .534.463l.107 1.509a.5.5 0 0 1 -.464.534z" fill="#323c6b"/><path d="m26.353 9.502 2.106-.129" fill="#6fc666"/><path d="m26.354 10a.5.5 0 0 1 -.03-1l2.105-.129a.5.5 0 1 1 .061 1l-2.106.129z" fill="#323c6b"/><path d="m28.934 10.969 1.737-.192" fill="#6fc666"/><path d="m28.933 11.469a.5.5 0 0 1 -.054-1l1.737-.192a.5.5 0 0 1 .109.994l-1.737.192z" fill="#323c6b"/><path d="m20.961 18.6c.605-1.843 3.353-3.163 5.983-2.635s4.625 2.805 4.47 4.739-2.79 2.9-5.88 2.276-5.178-2.533-4.573-4.38z" fill="#6fc666"/><path d="m27.352 23.672a9.769 9.769 0 0 1 -1.916-.2 6.922 6.922 0 0 1 -4.67-2.79 2.683 2.683 0 0 1 -.279-2.237c.7-2.142 3.761-3.53 6.556-2.969 2.774.558 5.05 3.02 4.87 5.269a2.7 2.7 0 0 1 -1.127 1.964 5.733 5.733 0 0 1 -3.434.963zm-1.612-7.322c-2.071 0-3.885 1.133-4.3 2.41a1.691 1.691 0 0 0 .194 1.421 6.035 6.035 0 0 0 4 2.313 5.99 5.99 0 0 0 4.551-.581 1.705 1.705 0 0 0 .732-1.246c.125-1.575-1.589-3.709-4.071-4.208a5.609 5.609 0 0 0 -1.106-.109z" fill="#323c6b"/><path d="m49.058 18.6c-.605-1.843-3.354-3.163-5.983-2.635s-4.625 2.805-4.47 4.739 2.791 2.9 5.879 2.276 5.179-2.533 4.574-4.38z" fill="#6fc666"/><path d="m42.667 23.672a5.73 5.73 0 0 1 -3.434-.96 2.7 2.7 0 0 1 -1.127-1.964c-.18-2.249 2.1-4.711 4.869-5.269 2.794-.561 5.853.827 6.557 2.969a2.683 2.683 0 0 1 -.279 2.237 6.922 6.922 0 0 1 -4.67 2.79 9.769 9.769 0 0 1 -1.916.197zm1.611-7.322a5.611 5.611 0 0 0 -1.105.109c-2.481.5-4.2 2.634-4.07 4.209a1.705 1.705 0 0 0 .732 1.245 5.993 5.993 0 0 0 4.551.581 6.035 6.035 0 0 0 4-2.313 1.691 1.691 0 0 0 .194-1.421c-.417-1.277-2.23-2.41-4.302-2.41z" fill="#323c6b"/><path d="m27.66 20.443c.436-2.644 3.784-5.036 7.349-5.036s6.913 2.392 7.349 5.036-2.894 4.849-7.348 4.849-7.785-2.205-7.35-4.849z" fill="#6fc666"/><path d="m35.01 25.792c-3.011 0-5.618-.954-6.975-2.552a3.485 3.485 0 0 1 -.868-2.878c.487-2.957 4.078-5.455 7.843-5.455s7.354 2.5 7.842 5.455a3.485 3.485 0 0 1 -.868 2.878c-1.357 1.597-3.963 2.552-6.974 2.552zm0-9.885c-3.247 0-6.451 2.157-6.856 4.617a2.483 2.483 0 0 0 .645 2.069c1.151 1.356 3.531 2.2 6.212 2.2s5.06-.843 6.211-2.2a2.483 2.483 0 0 0 .645-2.069c-.407-2.46-3.61-4.617-6.857-4.617z" fill="#323c6b"/><g fill="#fff"><path d="m15.414 50.9a.651.651 0 0 1 -.626-.475 35.165 35.165 0 0 1 -1.188-9.454c0-.118.008-.232.017-.346l.013-.205a.668.668 0 0 1 .667-.632.65.65 0 0 1 .632.667c0 .09-.009.178-.015.266s-.013.165-.013.25a33.883 33.883 0 0 0 1.144 9.1.65.65 0 0 1 -.45.8.666.666 0 0 1 -.181.029z"/><path d="m14.626 38.4a.636.636 0 0 1 -.132-.013.65.65 0 0 1 -.506-.768c.046-.224.106-.441.167-.658l.069-.253a.65.65 0 1 1 1.256.333l-.073.269c-.053.188-.105.376-.146.57a.65.65 0 0 1 -.635.52z"/></g></svg>