<svg height="511pt" viewBox="0 -25 511.99636 511" width="511pt" xmlns="http://www.w3.org/2000/svg"><path d="m433.425781 232.570312-29.523437 133.460938-216.066406 53.761719-6.570313-6.402344-80.296875-78.078125c-3.058594-7.417969-5.429688-15.101562-7.082031-22.953125-9.984375-46.765625-7-81.75.511719-107.007813 4.644531-17.089843 13.007812-32.941406 24.488281-46.421874 1.207031-1.429688 3.195312-1.90625 4.917969-1.183594 1.722656.722656 2.769531 2.480468 2.59375 4.339844-2.132813 20.308593-4.523438 56.40625 14.933593 69.375 4.234375 2.753906 9.121094 4.34375 14.164063 4.609374 16.148437.601563 30.320312-10.671874 33.367187-26.539062 1.71875-9.488281 2.035157-19.175781.9375-28.757812-2.558593-26.792969-.511719-56.148438 15.105469-79.359376 15.015625-22.273437 43.773438-31.488281 57.855469-54.1875 1.039062-1.648437 1.980469-3.359374 2.816406-5.121093 2.660156-5.179688 3.386719-11.140625 2.046875-16.808594-1.023438-4.4375-6.570312-10.753906-2.390625-15.191406 2.132813-2.21875 5.890625-.679688 8.363281 1.195312 31.574219 23.722657 24.832032 71.679688 16.554688 104.789063-9.386719 37.71875 3.15625 59.222656 21.503906 66.648437 25.449219 8.707031 53.214844-4.363281 62.71875-29.527343 3.664062-9.414063 5.039062-19.5625 4.011719-29.609376-.160157-1.902343.957031-3.679687 2.742187-4.355468 1.785156-.671875 3.800782-.082032 4.9375 1.453125 24.78125 32.808593 41.054688 71.242187 47.359375 111.871093zm0 0" fill="#ffb301"/><path d="m407.453125 232.570312-29.527344 133.460938-190.292969 47.359375-80.296874-78.078125c-3.058594-7.417969-5.429688-15.101562-7.085938-22.953125-9.980469-46.765625-6.996094-81.75.515625-107.007813 2.984375 15.957032 10.75 29.351563 28.753906 30.71875 6.398438.472657 12.777344-1.144531 18.175781-4.609374 4.238282 2.753906 9.121094 4.34375 14.167969 4.609374 16.148438.601563 30.316407-10.671874 33.363281-26.539062 1.71875-9.488281 2.035157-19.175781.941407-28.757812-2.5625-26.792969-.511719-56.148438 15.101562-79.359376 15.019531-22.273437 43.777344-31.488281 57.855469-54.1875 3.328125 23.042969 1.640625 46.535157-4.949219 68.863282-14.503906 58.199218 23.210938 77.824218 53.847657 66.648437 25.449218 8.707031 53.214843-4.363281 62.71875-29.527343 13.722656 24.578124 22.777343 51.484374 26.710937 79.359374zm0 0" fill="#ffeb3a"/><path d="m355.601562 316.199219-15.445312 13.652343-73.46875 65.023438-94.808594-43.179688c-4.835937-7.203124-8.441406-15.164062-10.664062-23.550781-1.351563-7.515625-1.894532-15.152343-1.621094-22.785156.167969-14.164063 3.15625-27.648437 13.824219-17.578125 12.242187 12.511719 29.847656 18.21875 47.101562 15.273438 12.960938-2.726563 24.140625-10.855469 30.726563-22.347657 6.585937-11.492187 7.949218-25.25 3.75-37.808593-5.207032-14.679688-12.628906-30.039063-18.007813-45.570313-7.507812-21.757813-10.835937-43.859375 1.964844-64.851563-15.789063 27.988282 22.1875 59.730469 42.75 73.46875 18.773437 12.546876 39.597656 24.832032 52.992187 43.523438zm0 0" fill="#f57c00"/><path d="m340.15625 329.851562-73.46875 65.023438-94.808594-43.179688c-4.835937-7.203124-8.441406-15.164062-10.664062-23.550781-1.351563-7.515625-1.894532-15.152343-1.621094-22.785156 12.199219 12.15625 29.527344 17.65625 46.503906 14.765625 13.59375-2.949219 25.183594-11.757812 31.660156-24.066406.175782-.296875.320313-.609375.425782-.9375 16.472656-11.824219 23.292968-33.015625 16.8125-52.222656-5.207032-14.679688-12.628906-30.039063-18.007813-45.570313 9.019531 9.761719 19.191407 18.386719 30.296875 25.6875 18.769532 12.542969 39.59375 24.832031 52.988282 43.519531zm0 0" fill="#ff9801"/><path d="m479.335938 363.730469c-52.820313 75.519531-152.40625 95.570312-239.019532 88.402343-51.539062-3.648437-101.550781-19.089843-146.175781-45.140624-36.355469-20.945313-64.519531-53.621094-79.871094-92.671876-.769531-2.132812-1.535156-4.351562-2.21875-6.484374-1.195312-3.5-2.21875-7.082032-3.15625-10.667969-1.332031-4.558594.648438-9.433594 4.777344-11.777344 4.460937-2.867187 10.359375-1.953125 13.738281 2.136719 9.824219 10.828125 21.144532 20.195312 33.621094 27.816406 19.09375 11.6875 39.558594 20.976562 60.929688 27.648438 28 9.234374 57.867187 11.285156 86.867187 5.972656 65.453125-11.519532 115.371094-54.953125 131.246094-70.3125l76.542969-13.226563 9.898437-1.707031 40.875 40.445312zm0 0" fill="#c52828"/><path d="m453.738281 349.90625c-52.824219 75.519531-152.40625 95.570312-239.019531 88.402344-41.722656-3.253906-82.542969-13.855469-120.578125-31.316406-36.355469-20.945313-64.519531-53.621094-79.871094-92.671876-.769531-2.132812-1.535156-4.351562-2.21875-6.484374-1.195312-3.5-2.21875-7.082032-3.15625-10.667969-1.332031-4.558594.648438-9.433594 4.777344-11.777344 14.261719 12.214844 30.214844 22.300781 47.359375 29.953125 19.09375 11.6875 39.558594 20.976562 60.929688 27.648438 28 9.234374 57.867187 11.285156 86.867187 5.972656 65.453125-11.519532 115.371094-54.953125 131.246094-70.3125l76.542969-13.226563 25.171874 24.917969zm0 0" fill="#f44335"/><g fill="#558b30"><path d="m337.855469 249.980469c-5.996094.816406-12.054688 1.042969-18.09375.679687 1.015625-2.300781 3.523437-3.554687 5.976562-2.984375 3.496094.851563 7.59375 1.621094 12.117188 2.304688zm0 0"/><path d="m400.488281 291.109375c-9.671875 1.6875-19.546875 1.859375-29.269531.511719 8.472656-1.09375 16.765625-3.304688 24.660156-6.570313 1.910156 1.707031 3.472656 3.765625 4.609375 6.058594zm0 0"/><path d="m496.660156 371.152344c-8.359375-1.507813-16.050781-5.5625-22.015625-11.605469-7.511719-12.542969-6.65625-31.742187-2.132812-47.53125 4.863281-16.980469-37.464844-69.375-71.339844-82.429687 31.828125-19.457032 103.167969 60.585937 96.9375 82.429687-4.949219 17.238281-5.460937 38.484375 4.265625 50.773437 1.296875 1.847657 1.3125 4.300782.039062 6.164063-1.273437 1.859375-3.566406 2.738281-5.753906 2.199219zm0 0"/></g><path d="m474.644531 359.546875c-9.324219-10.582031-14.296875-24.300781-13.910156-38.398437-1.457031 12.3125-7.5625 23.609374-17.066406 31.570312-9.933594 6.269531-22.179688 7.683594-33.28125 3.839844-.261719-.015625-.523438-.070313-.765625-.167969-1.742188-.453125-3.136719-1.746094-3.71875-3.445313-.585938-1.699218-.277344-3.578124.816406-5.003906 10.664062-13.398437 33.195312-45.910156 14.761719-62.890625-6.746094 2.8125-13.789063 4.84375-20.992188 6.058594-1.136719-2.292969-2.699219-4.351563-4.609375-6.058594-7.894531 3.265625-16.1875 5.476563-24.660156 6.570313-21.773438-3.351563-40.738281-16.667969-51.285156-36.011719-.945313-1.496094-1.011719-3.386719-.171875-4.949219 6.039062.363282 12.097656.136719 18.09375-.679687 18.003906 2.300781 42.410156 1.195312 58.792969-16.726563 1.320312-1.4375 2.84375-2.675781 4.523437-3.667968 33.875 13.054687 76.203125 65.449218 71.339844 82.429687-4.523438 15.789063-5.378907 34.988281 2.132812 47.53125zm0 0" fill="#8bc34a"/><path d="m463.089844 263.15625c-3.199219-.003906-6.128906-1.789062-7.589844-4.632812-1.460938-2.847657-1.210938-6.269532.652344-8.867188 13.445312-17.789062 19.152344-40.246094 15.828125-62.292969-4.683594-24.9375-23.167969-48.09375-54.945313-68.839843-3.949218-2.578126-5.058594-7.867188-2.480468-11.816407 2.578124-3.945312 7.867187-5.054687 11.816406-2.476562 35.839844 23.398437 56.804687 50.292969 62.378906 79.972656 4.21875 26.636719-2.53125 53.84375-18.714844 75.417969-1.609375 2.230468-4.195312 3.542968-6.945312 3.535156zm0 0" fill="#527f72"/><path d="m3.9375 310.488281c.742188 2.277344 1.535156 4.539063 2.363281 6.769531 35.113281 94.386719 143.546875 135.960938 233.308594 143.359376 8.917969.742187 20.070313 1.339843 32.777344 1.339843 59.492187 0 152.875-13.339843 209.066406-87.101562 4.277344 2.136719 8.816406 3.707031 13.5 4.675781.921875.191406 1.863281.285156 2.808594.28125 4.964843-.015625 9.570312-2.597656 12.175781-6.824219 3.03125-4.820312 2.6875-11.03125-.855469-15.488281-7.679687-9.738281-6.910156-28.679688-2.761719-43.144531 4.101563-14.300781-11.632812-39.867188-32.214843-60.929688 13.390625-20.417969 18.609375-45.125 14.625-69.214843-5.570313-29.675782-26.5625-56.574219-62.378907-79.972657-3.945312-2.578125-9.234374-1.46875-11.8125 2.480469-2.578124 3.945312-1.46875 9.234375 2.480469 11.8125 31.777344 20.746094 50.257813 43.90625 54.945313 68.839844 3.066406 18.730468-.714844 37.941406-10.652344 54.117187-6.261719-5.386719-12.996094-10.199219-20.121094-14.378906-7.066406-40.464844-23.617187-78.679687-48.296875-111.511719-3.410156-4.613281-9.472656-6.390625-14.832031-4.355468-5.363281 2.035156-8.71875 7.386718-8.207031 13.101562 3.109375 19.152344-6.027344 38.214844-22.90625 47.785156-12.097657 7.21875-27.28125 6.777344-38.9375-1.132812-12.328125-9.53125-15.742188-28.28125-9.617188-52.796875 14.03125-56.039063 7.585938-93.242188-19.640625-113.679688-5.484375-5.265625-14.109375-5.371093-19.722656-.25-4.726562 5.878907-5.074219 14.152344-.851562 20.402344.457031.859375.835937 1.753906 1.132812 2.679687.859375 3.757813.335938 7.695313-1.476562 11.09375-7.199219 12.195313-17.320313 22.398438-29.457032 29.695313-11.777344 7.632813-22.121094 17.277344-30.558594 28.496094-14.308593 21.253906-19.855468 49.839843-16.519531 84.886719 1.023438 8.703124.761719 17.511718-.777343 26.140624-2.152344 11.695313-12.460938 20.109376-24.351563 19.882813-5.472656-.195313-10.609375-2.691406-14.140625-6.878906-11.734375-14.105469-8.285156-46.933594-7.144531-57.71875.59375-5.5-2.441407-10.746094-7.5-12.980469-5.15625-2.273438-11.191407-.9375-14.90625 3.300781-18.433594 20.960938-46.457031 69.71875-26.933594 160.890625.445313 2.019532 1.007813 3.796875 1.496094 5.714844-20.074219-9.054688-38.15625-21.992188-53.214844-38.058594-5.867187-6.847656-15.714844-8.667968-23.644531-4.375-7.894532 4.113282-11.855469 13.167969-9.515625 21.757813.957031 3.804687 2.046875 7.570312 3.269531 11.289062zm487.175781 50.109375c-13.613281-5.71875-20.941406-19.0625-21.820312-39.800781-.191407-4.472656-3.808594-8.039063-8.285157-8.164063h-.238281c-4.382812 0-8.054687 3.316407-8.492187 7.679688-1.199219 9.90625-6.066406 19.003906-13.644532 25.496094-6.609374 4.074218-14.585937 5.304687-22.117187 3.414062 22.792969-30.21875 26.75-55.75 10.734375-70.460937-2.515625-2.3125-6.164062-2.902344-9.277344-1.5-2.3125 1.039062-54.714844 23.941406-86.542968-19.722657.554687.101563 1.152343.179688 1.707031.273438h.296875c20.328125 3.199219 49.5625 2.824219 69.46875-18.832031 6.957031-7.5625 19.628906-2.875 29.015625 2.398437 31.128906 17.433594 60.507812 59.28125 57.957031 68.265625-5.390625 16.632813-4.953125 34.601563 1.238281 50.953125zm-314.207031-17.347656c-3.261719-5.425781-5.773438-11.265625-7.464844-17.367188-1.664062-10.160156-1.863281-20.503906-.589844-30.71875 14.152344 13.6875 34.035157 19.722657 53.410157 16.210938 16.09375-3.488281 29.820312-13.914062 37.496093-28.484375 6.902344-13.25 8.085938-28.75 3.277344-42.894531-2.5625-7.109375-5.589844-14.429688-8.535156-21.503906-5.449219-12.085938-9.925781-24.582032-13.386719-37.378907 10.335938 12.3125 22.410157 23.054688 35.839844 31.890625l7.148437 4.726563c11.40625 7.0625 22.195313 15.074219 32.257813 23.945312-5.816406 4.183594-7.453125 12.121094-3.765625 18.261719 4.089844 6.886719 9.070312 13.199219 14.816406 18.773438-19.347656 17.296874-63.957031 51.941406-120.117187 61.824218-10.027344 1.792969-20.195313 2.703125-30.386719 2.714844zm-74.675781-32.667969c-15.152344-70.730469.921875-113.125 14.507812-134.492187-.964843 19.445312.640625 41.640625 12.183594 55.527344 6.449219 7.757812 15.851563 12.464843 25.925781 12.976562 20.394532.863281 38.378906-13.261719 42.375-33.277344 1.921875-10.335937 2.285156-20.902344 1.085938-31.34375-2.960938-31.054687 1.648437-55.878906 13.652344-73.773437 7.378906-9.546875 16.34375-17.753907 26.503906-24.265625 14.515625-8.882813 26.503906-21.347656 34.816406-36.191406 3.101562-6.152344 4.210938-13.121094 3.167969-19.933594 14.105469 17.441406 15.863281 46.472656 5.425781 88.21875-10.625 42.484375 5.289062 62.367187 15.726562 70.433594 16.972657 12.191406 39.539063 13.21875 57.550782 2.617187 18.492187-10.230469 30.472656-29.207031 31.75-50.300781 16.9375 25.035156 29.03125 53.023437 35.652344 82.515625-11.410157-3.691407-23.929688-.507813-32.1875 8.191406-13.816407 15.035156-34.984376 16.050781-51.105469 13.980469-13.082031-15.070313-28.546875-27.894532-45.773438-37.964844l-7.046875-4.660156c-5.582031-3.730469-54.160156-37.171875-40.054687-62.183594 2.339843-4.0625.964843-9.25-3.078125-11.621094-4.042969-2.371094-9.242188-1.039062-11.644532 2.984375-19.847656 32.574219-5.546874 66.84375 7.074219 97.066407 2.996094 7.195312 5.828125 13.980468 8.21875 20.679687 3.246094 9.664063 2.398438 20.234375-2.339843 29.257813-5.289063 10.027343-14.734376 17.210937-25.8125 19.628906-14.53125 2.398437-29.3125-2.511719-39.527344-13.125-8.652344-8.160156-15.519532-6.035156-18.824219-4.035156-15.425781 9.28125-7.585937 52.460937-7.492187 52.804687 1.085937 3.996094 2.453124 7.910156 4.097656 11.714844-11.019532-1.300781-21.882813-3.695313-32.425782-7.144531-5.871093-1.917969-11.46875-3.957032-16.914062-6.058594-2.292969-5.925782-4.125-12.019532-5.488281-18.226563zm-84.042969-18.03125c.964844-.574219 2.210938-.304687 2.859375.617188 21.382813 24.148437 54.441406 43.65625 98.25 57.972656 16.917969 5.539063 34.550781 8.589844 52.34375 9.054687.082031.003907.167969.003907.25 0h.109375c12.824219.339844 25.648438-.617187 38.28125-2.859374 62.703125-11.039063 111.589844-50.429688 130.789062-67.984376 23.734376 13.273438 52.097657 15.457032 77.585938 5.972657 6.5625 14.507812-13.996094 41.488281-18.578125 47.222656-2.902344 3.640625-3.769531 8.496094-2.304687 12.914063 1.460937 4.480468 5.085937 7.917968 9.636718 9.136718 13.671875 4.714844 28.746094 2.949219 40.957032-4.792968 3.804687-2.652344 7.148437-5.910157 9.890624-9.644532 2.34375 5.382813 5.609376 10.320313 9.644532 14.582032-63.148438 82.773437-179.199219 82.851562-226.910156 78.902343-84.515626-7-186.359376-45.449219-218.699219-132.363281-.765625-2.019531-1.476563-4.050781-2.136719-6.089844-1.089844-3.359375-2.074219-6.753906-2.949219-10.191406-.378906-.945312.050781-2.023438.980469-2.449219zm0 0"/><path d="m187.453125 388.476562c3.996094.195313 7.902344.28125 11.742187.28125 46.605469.613282 92.222657-13.457031 130.390626-40.210937 3.625-2.941406 4.214843-8.253906 1.320312-11.917969-2.898438-3.664062-8.203125-4.320312-11.902344-1.46875-38.355468 26.222656-84.332031 38.972656-130.714844 36.25-4.664062-.101562-8.589843 3.460938-8.941406 8.113282-.113281 2.261718.675782 4.476562 2.195313 6.15625 1.523437 1.679687 3.648437 2.683593 5.910156 2.796874zm0 0"/><path d="m358.417969 324.75c0 4.710938-3.820313 8.53125-8.53125 8.53125-4.714844 0-8.535157-3.820312-8.535157-8.53125 0-4.714844 3.820313-8.535156 8.535157-8.535156 4.710937 0 8.53125 3.820312 8.53125 8.535156zm0 0"/></svg>