<svg id="Capa_1" enable-background="new 0 0 512 512" height="512" viewBox="0 0 512 512" width="512" xmlns="http://www.w3.org/2000/svg"><g><g><path d="m360.21 280.047-30.394-64.132c0-68.072-47.902-111.219-66.529-153.535-2.802-6.364-11.771-6.364-14.572 0-18.627 42.316-66.529 85.462-66.529 153.535l-30.394 64.132 104.208 200.404z" fill="#b3e59f"/><path d="m330.333 220.999c8.516-52.313 31.092-78.688 49.238-87.345 6.713-3.203 13.63 3.572 10.803 10.451-5.219 12.702-7.925 31.515 6.408 51.773 37.576 53.107 11.523 100.202 11.523 100.202l-120.24 168.338-32.065 16.033c0-131.599 54.393-136.962 74.333-259.452z" fill="#ccf49f"/><path d="m328.145 215.918c-19.94 122.491-72.145 132.934-72.145 264.533l24.291-12.146c1.677-60.595 15.772-91.181 32.073-126.372 14.189-30.624 30.272-65.334 39.514-122.152 6.384-39.211 22.86-55.796 34.968-62.806.726-4.73 1.978-9.095 3.529-12.869 2.827-6.88-4.09-13.654-10.804-10.452-18.146 8.657-42.91 29.952-51.426 82.264z" fill="#b3e59f"/><path d="m256 480.451c140.302 0 185.372-142.849 235.468-190.431 4.914-4.667 2.502-12.809-4.196-13.839-30.408-4.674-93.546-4.359-127.063 67.996-42.084 90.849-86.173 82.165-104.209 136.274" fill="#b3e59f"/><path d="m183.855 215.918c-8.516-52.313-33.28-73.607-51.426-82.264-6.713-3.203-13.63 3.572-10.803 10.451 5.219 12.702 7.925 31.515-6.408 51.773-37.576 53.107-11.523 100.202-11.523 100.202l120.242 168.339 32.063 16.032c0-131.599-52.205-142.042-72.145-264.533z" fill="#95d6a4"/><path d="m103.694 296.08 24.964 34.95.483-.406 8.517-7.157 6.13-5.151-5.143-6.136c-1.625-1.977-40.017-49.788-3.619-102.664 17.888-25.988 16.175-50.621 11.285-67.173-4.798-3.783-9.532-6.613-13.882-8.689-6.714-3.203-13.631 3.572-10.804 10.452 5.219 12.702 7.925 31.515-6.408 51.773-37.576 53.106-11.523 100.201-11.523 100.201z" fill="#78c2a4"/><path d="m256 480.451c-140.302 0-185.372-142.849-235.468-190.431-4.914-4.667-2.502-12.809 4.196-13.839 30.408-4.674 93.546-4.359 127.063 67.996 42.084 90.849 86.173 82.165 104.209 136.274" fill="#78c2a4"/><path d="m263.286 62.38c-2.802-6.364-11.771-6.364-14.572 0-18.627 42.316-66.529 85.462-66.529 153.535l24.051 120.245v-120.245c0-36.679 16.409-64.988 36.232-95.581 9.468-14.615 18.135-30.663 25.914-47.67-1.844-3.439-3.593-6.868-5.096-10.284z" fill="#95d6a4"/></g><path d="m511.965 279.323c-.285-2.938-2.268-5.437-5.065-6.381-1.078-.364-26.77-8.869-58.53-4.865-8.448 1.064-17.781 3.106-27.382 6.712.952-3.409 1.781-7.229 2.333-11.423 2.175-16.528.398-42.404-20.414-71.819-21.829-30.851 1.897-57.617 2.898-58.72 2.051-2.224 2.564-5.462 1.303-8.212-1.262-2.75-4.062-4.474-7.075-4.368-.636.022-15.78.666-32.888 11.804-16.144 10.51-26.893 25.583-34.05 40.958-7.715-30.589-24.724-55.463-40.198-78.094-15.774-23.07-29.397-42.992-29.397-63.368 0-4.142-3.358-7.5-7.5-7.5s-7.5 3.358-7.5 7.5c0 20.376-13.623 40.298-29.396 63.366-15.48 22.639-32.488 47.529-40.199 78.133-6.969-15.018-17.17-29.352-32.115-39.698-17.887-12.384-34.14-13.08-34.823-13.103-3.031-.114-5.813 1.618-7.075 4.368-1.261 2.75-.748 5.988 1.303 8.212.062.067 6.309 7.033 9.8 17.671 4.655 14.187 2.333 27.998-6.901 41.049-20.812 29.416-22.589 55.292-20.414 71.819.552 4.195 1.381 8.014 2.333 11.423-9.601-3.606-18.935-5.648-27.382-6.712-31.762-4.004-57.452 4.501-58.53 4.865-2.797.945-4.78 3.443-5.065 6.381-.285 2.939 1.18 5.771 3.744 7.236 16.589 9.48 32.606 33.399 51.152 61.096 20.392 30.454 43.504 64.972 75.075 92.396 37.096 32.225 78.299 47.893 125.965 47.899.01 0 .019.002.029.002.009 0 .019-.002.028-.002 47.667-.006 88.871-15.674 125.968-47.899 31.57-27.424 54.683-61.942 75.075-92.396 18.546-27.697 34.562-51.616 51.152-61.096 2.561-1.463 4.026-4.295 3.741-7.234zm-298.579 157.033c13.056 11.109 23.815 20.271 31.413 36.258-91.71-5.35-139.069-76.052-177.405-133.305-14.951-22.328-28.347-42.334-42.583-55.551 9.423-1.525 22.518-2.619 36.944-.8 37.638 4.744 65.641 26.401 83.23 64.37 12.304 26.562 25.705 47.132 42.175 64.735 2.83 3.025 7.576 3.183 10.601.353s3.183-7.576.353-10.601c-15.347-16.404-27.904-35.721-39.518-60.792-12.755-27.534-29.676-45.037-47.134-56.07-.246-.357-24.281-36.466 9.878-84.744 15.107-21.352 13.183-41.362 8.909-54.389-.709-2.16-1.504-4.201-2.344-6.107 16.421 7.336 40.284 26.646 48.548 77.41 8.884 54.573 23.786 86.743 38.198 117.853 15.263 32.949 28.774 62.13 32.7 113.572-7.269-9.167-15.626-16.284-24.243-23.616-3.155-2.685-7.889-2.304-10.572.852-2.686 3.155-2.305 7.888.85 10.572zm112.655-203.705c-4.039-.913-8.056 1.622-8.969 5.662-8.655 38.294-20.857 64.409-32.657 89.665-10.953 23.443-21.545 46.115-28.353 76.455-6.68-30.167-17.064-52.584-27.801-75.761-13.987-30.193-28.45-61.414-37.004-113.958-.44-2.705-.961-5.514-1.563-8.392.202-42.103 22.288-74.418 41.792-102.942 9.365-13.695 18.434-26.96 24.514-40.454 6.08 13.494 15.149 26.759 24.514 40.454 19.594 28.655 41.802 61.133 41.802 103.521 0 3.679 2.686 6.817 6.317 7.406 3.95.639 7.703-1.93 8.536-5.841 9.443-44.335 31.487-61.842 46.925-68.748-.838 1.905-1.633 3.944-2.342 6.102-4.274 13.027-6.199 33.038 8.909 54.39 33.85 47.841 10.905 83.211 9.875 84.746-17.458 11.032-34.378 28.536-47.132 56.068-22.19 47.903-44.386 66.787-63.969 83.447-9.092 7.735-17.52 14.908-24.754 23.993 4.013-51.385 17.776-80.861 33.323-114.136 12.137-25.976 24.687-52.835 33.698-92.708.914-4.04-1.621-8.056-5.661-8.969zm118.564 106.659c-38.337 57.255-85.689 127.973-177.405 133.318 7.661-16.065 18.636-25.401 31.955-36.732 19.731-16.786 44.286-37.677 67.86-88.567 17.502-37.781 45.325-59.416 82.696-64.302 5.489-.718 10.801-1.007 15.802-1.007 8.272 0 15.695.793 21.657 1.756-14.23 13.217-27.62 33.214-42.565 55.534z"/></g></svg>