<?xml version="1.0" encoding="iso-8859-1"?>
<!-- Generator: Adobe Illustrator 19.0.0, SVG Export Plug-In . SVG Version: 6.00 Build 0)  -->
<svg xmlns="http://www.w3.org/2000/svg" xmlns:xlink="https://www.w3.org/1999/xlink" version="1.1" id="Layer_1" x="0px" y="0px" viewBox="0 0 512 512" style="enable-background:new 0 0 512 512;" xml:space="preserve" width="512" height="512">
<g>
	<path d="M361,150.76V0h-30v30h-30v270h30v30h30V181.518c34.191,6.969,60,37.266,60,73.482c0,36.064-14.048,69.976-39.551,95.479   C333.794,398.133,278.341,389.79,271.015,391C222.583,394.23,90,402.125,90,451c0,55.244,171.011,62.023,226,60.817V512   c50.328,0,196-10.907,196-61c0-16.633-15.071-27.164-28.782-33.558C553.635,302.49,486.408,162.131,361,150.76z"/>
	<path d="M166,180c4.6-0.132,17.666-6.372,32.197-15c-14.561-8.643-27.627-14.883-32.212-15c-8.262,0-15.985,6.724-15.985,15   C150,173.262,157.724,180,166,180z"/>
	<path d="M90,300h181V30H90V300z M166,120c19.175,0,54.302,22.837,68.525,32.651L252.396,165l-17.871,12.349   C220.302,187.163,185.175,210,166,210c-24.814,0-46-20.186-46-45S141.186,120,166,120z"/>
	<polygon points="30,300 60,300 60,30 30,30 30,0 0,0 0,330 30,330  "/>
</g>















</svg>
