<svg height="512" viewBox="0 0 64 64" width="512" xmlns="http://www.w3.org/2000/svg"><g id="Filled_outline" data-name="Filled outline"><path d="m8.062 35h49.938a3 3 0 0 1 3 3v6a3 3 0 0 1 -3 3h-52a3 3 0 0 1 -3-3v-3.938a5.062 5.062 0 0 1 5.062-5.062z" fill="#301a12"/><path d="m12 38c0 2.625-4 2.375-4 5s3 1.376 3 4h47a2.858 2.858 0 0 0 3-3v-6a2.858 2.858 0 0 0 -3-3h-48.1c.889.823 2.1 1.331 2.1 3z" fill="#66342e"/><path d="m49 35h9a3 3 0 0 1 3 3v6a3 3 0 0 1 -3 3h-9a0 0 0 0 1 0 0v-12a0 0 0 0 1 0 0z" fill="#66342e"/><path d="m45 35h4v12h-4z" fill="#f9bb4b"/><path d="m41 35h4v12h-4z" fill="#301a12"/><path d="m58 34h-49.938a6.07 6.07 0 0 0 -6.062 6.062v3.938a4 4 0 0 0 4 4h52a3.869 3.869 0 0 0 4-4v-6a3.869 3.869 0 0 0 -4-4zm-52 12a2 2 0 0 1 -2-2v-3.938a4.066 4.066 0 0 1 4.062-4.062h1.481c.113.093.221.19.335.28.758.6 1.122.925 1.122 1.72 0 .676-.437 1-1.511 1.641-1.05.623-2.489 1.477-2.489 3.359a2.955 2.955 0 0 0 2.083 2.909c.076.035.122.06.186.091zm34 0h-28.151a3.131 3.131 0 0 0 -1.932-1.909c-.742-.34-.917-.445-.917-1.091 0-.676.437-1 1.511-1.641 1.05-.623 2.489-1.477 2.489-3.359a3.448 3.448 0 0 0 -.592-2h27.592zm4 0h-2v-10h2zm4 0h-2v-10h2zm12-2a1.856 1.856 0 0 1 -2 2h-8v-10h8a1.856 1.856 0 0 1 2 2z"/><path d="m14 42h2v2h-2z"/><path d="m18 39h2v2h-2z"/><path d="m36 38h2v6h-2z"/><path d="m3 25v3h2v-3c0-1.439.561-2 2-2h2a3.16 3.16 0 0 0 3-3v-2a1.17 1.17 0 0 1 1-1h9v-2h-9a3.16 3.16 0 0 0 -3 3v2a1.17 1.17 0 0 1 -1 1h-2a3.641 3.641 0 0 0 -4 4z"/><path d="m14 24a1 1 0 0 1 -1 1h-2a3 3 0 0 0 -3 3v4h2v-4a1 1 0 0 1 1-1h2a3 3 0 0 0 3-3 1 1 0 0 1 1-1h5v-2h-5a3 3 0 0 0 -3 3z"/></g></svg>