<svg id="Capa_1" enable-background="new 0 0 512 512" height="512" viewBox="0 0 512 512" width="512" xmlns="http://www.w3.org/2000/svg"><g><g><path d="m293.99 194.01-26.6-5.32-72.39 76.03 28.28 28.28c60.17-20.06 78.96-57.75 70.71-98.99z" fill="#eefaff"/><path d="m356 293v49l40-20 20 40-54.67 54.67c7.17 27.08 21.39 52.05 41.53 72.19l13.14 13.14c-9.985 0-303.308 0-320 0l13.14-13.14c30-30 46.86-70.7 46.86-113.13v-82.73z" fill="#918787"/><path d="m308.13 38.28-42.42 42.59-14.15 42.42-42.42 42.43-28.28-28.28 28.28-28.29 14.14-42.42 56.57-56.73z" fill="#fce8d0"/><path d="m223.28 179.86 44.11 8.83c-2.04 31.93-23.63 59.77-72.39 76.03h-.01c-.162-.162-77.779-77.789-84.85-84.86l56.57-56.57c4.764 4.764 51.202 51.202 56.57 56.57z" fill="#ff9256"/><path d="m104.284 202.291h39.997v39.997h-39.997z" fill="#fce8d0" transform="matrix(.707 -.707 .707 .707 -120.769 152.945)"/></g><g><path d="m286 402v-66c0-5.523-4.477-10-10-10s-10 4.477-10 10v66c0 5.523 4.477 10 10 10s10-4.477 10-10z"/><circle cx="296" cy="502" r="10"/><path d="m502 492h-81.857l-10.211-10.211c-17.357-17.356-30.203-38.766-37.373-62.205l50.513-50.513c3.043-3.044 3.798-7.693 1.873-11.543l-20-40c-2.47-4.939-8.476-6.942-13.417-4.472l-25.528 12.764v-32.82c0-5.523-4.477-10-10-10h-89.318c32.697-22.722 44.258-55.238 37.114-90.952-.792-3.958-3.886-7.053-7.845-7.844-11.638-2.329-51.272-10.26-67.741-13.556l-4.929-4.929 35.35-35.359c1.097-1.097 1.923-2.435 2.415-3.906l13.406-40.191 40.763-40.926c3.892-3.907 3.885-10.228-.014-14.128l-28.28-28.28c-3.909-3.909-10.249-3.904-14.152.01l-56.57 56.73c-1.093 1.096-1.917 2.431-2.406 3.899l-13.394 40.181-19.543 19.55-7.073-7.078c-3.905-3.907-10.239-3.908-14.145-.002l-56.57 56.57c-3.904 3.904-3.905 10.234-.002 14.139l7.076 7.077-21.214 21.214c-3.905 3.905-3.905 10.237 0 14.142l28.28 28.28c3.906 3.905 10.235 3.905 14.141.001l21.216-21.208c.694.694 45.878 45.873 46.572 46.566h-43.137c-5.523 0-10 4.477-10 10v82.73c0 40.064-15.602 77.729-43.931 106.059l-10.212 10.211h-81.857c-5.523 0-10 4.477-10 10s4.477 10 10 10h241c5.523 0 10-4.477 10-10s-4.477-10-10-10h-70c27.688-20.733 45-53.67 45-90 0-5.523-4.477-10-10-10s-10 4.477-10 10c0 42.506-28.799 79.392-70.045 89.701l-1.191.299h-14.757c29.696-31.62 45.993-72.691 45.993-116.27v-72.73h20v59c0 5.523 4.477 10 10 10s10-4.477 10-10v-59h100v129c0 11.028-8.972 20-20 20s-20-8.972-20-20c0-5.523-4.477-10-10-10s-10 4.477-10 10c0 22.056 17.944 40 40 40s40-17.944 40-40v-129h20v39c0 7.419 7.824 12.268 14.472 8.944l31.056-15.528 12.305 24.609-49.574 49.573c-2.519 2.519-3.507 6.188-2.596 9.631 7.208 27.221 21.105 52.269 40.323 72.771h-50.986c-5.523 0-10 4.477-10 10s4.477 10 10 10h161c5.523 0 10-4.477 10-10s-4.477-10-10-10zm-285.788-375.78c1.097-1.098 1.924-2.436 2.415-3.908l13.396-40.188 47.837-47.972 14.142 14.142-35.377 35.52c-1.09 1.094-1.912 2.427-2.401 3.893l-13.403 40.182-33.681 33.689-14.138-14.139zm-91.931 120.209-14.139-14.139 14.142-14.142 14.141 14.143zm73.327 16.766c-8.618-8.619-66.127-66.131-73.328-73.333l42.428-42.428c52.968 52.965 49.423 49.419 49.297 49.293l.204.204c1.396 1.396 3.173 2.347 5.108 2.734l34.972 6.999c-4.98 24.979-24.677 43.951-58.681 56.531zm15.402 15.392c42.713-18.258 58.28-45.027 62.884-68l9.342 1.87c4.403 35.78-15.967 62.934-59.335 79.021z"/></g></g></svg>