<?xml version="1.0" encoding="utf-8"?>
<!-- Generator: Adobe Illustrator 24.1.1, SVG Export Plug-In . SVG Version: 6.00 Build 0)  -->
<svg version="1.1" id="Layer_1" xmlns="http://www.w3.org/2000/svg" xmlns:xlink="https://www.w3.org/1999/xlink" x="0px" y="0px"
	 viewBox="0 0 512 512" style="enable-background:new 0 0 512 512;" xml:space="preserve">
<g>
	<path d="M153.6,435.2h204.8V384H153.6V435.2z M167.3,332.8h177.43c-18.3-31.7-52.13-51.22-88.73-51.2
		C218.12,281.6,185.02,302.17,167.3,332.8z M358.4,128V76.8H153.6V128H358.4z M344.72,179.2H167.3c18.3,31.7,52.13,51.23,88.7,51.2
		C293.9,230.4,327,209.82,344.72,179.2z M340.95,256c42.92,28.45,68.7,76.52,68.65,128v102.4c0,14.13-11.45,25.6-25.6,25.6
		c-14.13,0-25.6-11.48-25.6-25.6H153.6c0,14.13-11.45,25.6-25.6,25.6c-14.13,0-25.6-11.48-25.6-25.6V384
		c-0.03-51.48,25.75-99.55,68.67-128c-42.92-28.45-68.7-76.52-68.67-128V25.6C102.4,11.45,113.87,0,128,0
		c14.15,0,25.6,11.45,25.6,25.6h204.8C358.4,11.45,369.87,0,384,0c14.15,0,25.6,11.45,25.6,25.6V128
		C409.65,179.48,383.87,227.55,340.95,256z"/>
</g>
</svg>
