<svg id="Capa_1" enable-background="new 0 0 510.652 510.652" height="512" viewBox="0 0 510.652 510.652" width="512" xmlns="http://www.w3.org/2000/svg"><g><g><path d="m272.408 8.67-151.234 293.862c-.731 1.42.3 3.109 1.897 3.109h93.3c1.26 0 2.246 1.087 2.123 2.341l-18.918 192.813c-.231 2.355 2.973 3.279 4.031 1.162l152.5-305.026c.709-1.418-.322-3.087-1.908-3.087h-90.832c-1.248 0-2.23-1.067-2.126-2.311l15.189-181.709c.194-2.327-2.954-3.23-4.022-1.154z" fill="#fee97d"/><path d="m276.43 9.824c.194-2.327-2.954-3.23-4.022-1.154l-151.234 293.862c-.731 1.42.3 3.109 1.897 3.109h93.3c1.26 0 2.246 1.087 2.123 2.341l-18.918 192.813c-.231 2.355 2.973 3.279 4.031 1.162l42.468-84.944 13.807-140.722c.123-1.254-.862-2.341-2.123-2.341h-62.063c-8.915 0-14.671-9.435-10.591-17.362l84.407-164.012z" fill="#fee45a"/></g><g><path d="m394.626 91.261c-3.335-2.457-8.029-1.745-10.487 1.589l-18.926 25.685c-2.457 3.335-1.745 8.03 1.589 10.487 1.34.987 2.898 1.462 4.443 1.462 2.302 0 4.573-1.056 6.044-3.051l18.926-25.685c2.457-3.334 1.745-8.029-1.589-10.487z"/><path d="m377.289 385.503c-2.457-3.334-7.151-4.045-10.487-1.589-3.334 2.458-4.046 7.152-1.589 10.487l18.926 25.685c1.471 1.995 3.742 3.051 6.044 3.051 1.545 0 3.104-.476 4.443-1.462 3.334-2.458 4.046-7.152 1.589-10.487z"/><path d="m457.093 248.968h-26.361c-4.143 0-7.5 3.358-7.5 7.5s3.357 7.5 7.5 7.5h26.361c4.143 0 7.5-3.358 7.5-7.5s-3.358-7.5-7.5-7.5z"/><path d="m133.363 127.433c1.471 1.995 3.742 3.051 6.044 3.051 1.545 0 3.104-.476 4.443-1.462 3.334-2.458 4.046-7.152 1.589-10.487l-18.926-25.685c-2.457-3.334-7.152-4.046-10.487-1.589-3.334 2.458-4.046 7.152-1.589 10.487z"/><path d="m143.85 383.914c-3.334-2.456-8.029-1.746-10.487 1.589l-18.926 25.685c-2.457 3.335-1.746 8.03 1.589 10.487 1.34.987 2.898 1.462 4.443 1.462 2.302 0 4.574-1.056 6.044-3.051l18.926-25.685c2.457-3.335 1.746-8.03-1.589-10.487z"/><path d="m79.92 248.968h-26.361c-4.142 0-7.5 3.358-7.5 7.5s3.358 7.5 7.5 7.5h26.361c4.142 0 7.5-3.358 7.5-7.5s-3.358-7.5-7.5-7.5z"/><path d="m256.909 395.342c-3.703-1.851-8.21-.35-10.062 3.354l-36.974 73.956 16.085-163.938c.265-2.7-.628-5.401-2.451-7.412-1.822-2.009-4.423-3.162-7.136-3.162h-84.503l77.736-151.048c1.896-3.683.447-8.206-3.236-10.101-3.683-1.896-8.205-.447-10.101 3.236l-81.762 158.873c-1.549 3.011-1.42 6.534.343 9.425 1.764 2.89 4.838 4.616 8.224 4.616h87.381l-18.341 186.922c-.46 4.696 2.384 8.889 6.918 10.196.919.265 1.842.393 2.748.393 3.563 0 6.854-1.976 8.538-5.341l49.948-99.906c1.852-3.705.35-8.21-3.355-10.063z"/><path d="m214.264 121.649c3.684 1.897 8.206.447 10.101-3.236l42.338-82.267-12.937 154.766c-.223 2.677.692 5.346 2.511 7.322 1.819 1.977 4.403 3.11 7.089 3.11h28.83c4.143 0 7.5-3.358 7.5-7.5s-3.357-7.5-7.5-7.5h-22.996l14.703-175.893c.39-4.641-2.465-8.779-6.941-10.064-4.474-1.286-9.092.71-11.223 4.851l-54.711 106.31c-1.896 3.683-.447 8.206 3.236 10.101z"/><path d="m362.392 190.912c-1.769-2.861-4.831-4.568-8.194-4.568h-30.039c-4.143 0-7.5 3.358-7.5 7.5s3.357 7.5 7.5 7.5h21.355l-84.349 168.712c-1.853 3.705-.351 8.21 3.354 10.063 1.076.538 2.221.793 3.348.793 2.751 0 5.4-1.52 6.714-4.147l88.233-176.48c1.504-3.009 1.346-6.512-.422-9.373z"/></g></g></svg>