<svg height="512pt" viewBox="0 0 512 512" width="512pt" xmlns="http://www.w3.org/2000/svg"><path d="m512 256c0 141.386719-114.613281 256-256 256s-256-114.613281-256-256 114.613281-256 256-256 256 114.613281 256 256zm0 0" fill="#f0c419"/><path d="m211.863281 224.21875c.046875 9.429688-.871093 18.835938-2.738281 28.074219-37.652344-16.703125-80.242188-18.503907-119.171875-5.03125-1.097656-6.058594-1.660156-12.203125-1.675781-18.363281-.136719-15.109376 3.34375-30.03125 10.148437-43.519532v-.085937c12.238281-7.921875 25.558594-14.015625 39.550781-18.097657 6.21875-1.789062 12.523438-3.261718 18.890626-4.414062 13.277343-2.109375 26.742187-2.789062 40.164062-2.03125 10.101562 19.609375 15.195312 41.414062 14.832031 63.46875zm0 0" fill="#fff"/><path d="m304.640625 390.089844c12.234375 5.121094 23.402344 12.484375 32.925781 21.71875 44.136719-26.484375 52.964844-88.277344 52.964844-88.277344-.703125.265625-1.5.53125-2.207031.792969-16.960938 6.25-34.226563 11.644531-51.726563 16.15625-26.351562 6.59375-53.4375 9.796875-80.597656 9.535156-27.160156.261719-54.246094-2.941406-80.597656-9.535156-17.5-4.511719-34.765625-9.90625-51.726563-16.15625-.707031-.261719-1.503906-.527344-2.207031-.792969 0 0 8.828125 61.792969 52.964844 88.277344 9.523437-9.234375 20.691406-16.597656 32.925781-21.71875zm0 0" fill="#802d40"/><g fill="#e57e25"><path d="m229.515625 270.566406c-1.421875 0-2.824219-.347656-4.085937-1.007812-75.035157-39.371094-130.234376-17.125-150.476563-5.753906-2.753906 1.679687-6.207031 1.722656-9.003906.113281-2.796875-1.613281-4.492188-4.625-4.417969-7.851563.074219-3.230468 1.90625-6.160156 4.773438-7.640625 22.746093-12.816406 84.59375-37.898437 167.316406 5.5 3.59375 1.890625 5.433594 5.984375 4.460937 9.925781-.972656 3.941407-4.503906 6.710938-8.566406 6.714844zm0 0"/><path d="m85.1875 203.035156h-.089844c-.410156 0-.820312-.027344-1.226562-.089844-12.472656-1.308593-21.976563-11.777343-22.078125-24.320312 0-4.875 3.953125-8.828125 8.828125-8.828125s8.828125 3.953125 8.828125 8.828125c.089843 3.714844 3.066406 6.707031 6.777343 6.824219 4.609376.585937 7.976563 4.644531 7.703126 9.28125-.277344 4.636719-4.097657 8.265625-8.742188 8.304687zm0 0"/><path d="m114.757812 183.304688h-.085937c-.410156 0-.816406-.027344-1.21875-.089844-12.480469-1.296875-21.992187-11.769532-22.085937-24.316406 0-4.878907 3.949218-8.828126 8.824218-8.828126 4.878906 0 8.828125 3.949219 8.828125 8.828126.089844 3.707031 3.0625 6.703124 6.773438 6.8125 4.636719.550781 8.042969 4.621093 7.769531 9.285156-.273438 4.660156-4.132812 8.304687-8.804688 8.308594zm0 0"/></g><path d="m156.867188 162.78125h.085937c1.148437 0 2.296875.175781 3.445313.265625 4.804687 4.707031 7.457031 11.191406 7.324218 17.917969 1.042969 10.917968-6.773437 20.6875-17.652344 22.070312-10.878906-1.382812-18.699218-11.152344-17.65625-22.070312-.046874-4.585938 1.140626-9.097656 3.441407-13.0625zm0 0" fill="#2c2f38"/><path d="m220.691406 429.460938c-.824218 0-1.640625-.113282-2.429687-.335938-4.683594-1.339844-7.394531-6.222656-6.054688-10.910156 3.074219-12.855469 10.78125-24.128906 21.644531-31.664063 2.707032-1.621093 6.074219-1.675781 8.832032-.140625 2.757812 1.535156 4.488281 4.425782 4.539062 7.578125.046875 3.15625-1.589844 6.097657-4.296875 7.71875-6.925781 5.304688-11.789062 12.855469-13.753906 21.355469-1.082031 3.785156-4.542969 6.398438-8.480469 6.398438zm0 0" fill="#e57e25"/><path d="m291.308594 429.460938c-3.9375 0-7.398438-2.613282-8.480469-6.398438-1.960937-8.519531-6.824219-16.089844-13.761719-21.40625-4.097656-2.570312-5.386718-7.949219-2.898437-12.09375 2.476562-4.136719 7.828125-5.5 11.980469-3.046875 10.863281 7.535156 18.570312 18.808594 21.644531 31.664063 1.339843 4.6875-1.371094 9.570312-6.054688 10.910156-.789062.234375-1.605469.359375-2.429687.371094zm0 0" fill="#e57e25"/><path d="m88.277344 141.242188c-3.558594.003906-6.769532-2.128907-8.144532-5.40625-1.378906-3.277344-.65625-7.0625 1.832032-9.601563 1.15625-1.183594 29.351562-29 103.386718-29.132813 4.875 0 8.828126 3.953126 8.828126 8.828126s-3.953126 8.828124-8.828126 8.828124c-65.800781.105469-90.632812 23.667969-90.871093 23.90625-1.652344 1.636719-3.878907 2.5625-6.203125 2.578126zm0 0" fill="#2c2f38"/><path d="m300.136719 224.21875c-.046875 9.429688.871093 18.835938 2.738281 28.074219 37.652344-16.703125 80.242188-18.503907 119.171875-5.03125 1.097656-6.058594 1.660156-12.203125 1.675781-18.363281.136719-15.109376-3.34375-30.03125-10.148437-43.519532v-.085937c-12.238281-7.921875-25.558594-14.015625-39.550781-18.097657-6.21875-1.789062-12.523438-3.261718-18.890626-4.414062-13.277343-2.109375-26.742187-2.789062-40.164062-2.03125-10.101562 19.609375-15.195312 41.414062-14.832031 63.46875zm0 0" fill="#fff"/><path d="m282.484375 270.566406c1.425781-.003906 2.828125-.347656 4.09375-1.007812 75.035156-39.371094 130.226563-17.125 150.46875-5.753906 2.753906 1.679687 6.207031 1.722656 9.003906.113281 2.796875-1.613281 4.492188-4.625 4.417969-7.851563-.074219-3.230468-1.90625-6.160156-4.773438-7.640625-22.746093-12.816406-84.59375-37.898437-167.316406 5.5-3.59375 1.890625-5.433594 5.984375-4.460937 9.925781.972656 3.941407 4.503906 6.710938 8.566406 6.714844zm0 0" fill="#e57e25"/><path d="m426.8125 203.035156h.089844c.410156 0 .820312-.027344 1.226562-.089844 12.472656-1.308593 21.976563-11.777343 22.078125-24.320312 0-4.875-3.953125-8.828125-8.828125-8.828125s-8.828125 3.953125-8.828125 8.828125c-.089843 3.710938-3.0625 6.703125-6.769531 6.824219-4.605469.585937-7.972656 4.640625-7.699219 9.277343.269531 4.632813 4.089844 8.265626 8.730469 8.308594zm0 0" fill="#e57e25"/><path d="m397.242188 183.304688h.085937c.414063 0 .824219-.027344 1.230469-.089844 12.476562-1.300782 21.980468-11.773438 22.074218-24.316406 0-4.878907-3.949218-8.828126-8.824218-8.828126-4.878906 0-8.828125 3.949219-8.828125 8.828126-.089844 3.707031-3.0625 6.703124-6.773438 6.8125-4.636719.550781-8.042969 4.621093-7.769531 9.285156.273438 4.660156 4.132812 8.304687 8.804688 8.308594zm0 0" fill="#e57e25"/><path d="m355.132812 162.78125h-.085937c-1.148437 0-2.296875.175781-3.445313.265625-4.804687 4.707031-7.457031 11.191406-7.324218 17.917969-1.042969 10.917968 6.773437 20.6875 17.652344 22.070312 10.878906-1.382812 18.699218-11.152344 17.65625-22.070312.046874-4.585938-1.140626-9.097656-3.441407-13.0625zm0 0" fill="#2c2f38"/><path d="m423.722656 141.242188c3.558594.003906 6.773438-2.125 8.152344-5.402344 1.382812-3.277344.660156-7.066406-1.832031-9.605469-1.179688-1.191406-29.375-29.007813-103.421875-29.132813-4.875 0-8.828125 3.953126-8.828125 8.828126s3.953125 8.828124 8.828125 8.828124c65.800781.105469 90.632812 23.667969 90.878906 23.90625 1.652344 1.648438 3.890625 2.574219 6.222656 2.578126zm0 0" fill="#2c2f38"/><path d="m150.070312 176.550781c0 4.875-3.953124 8.828125-8.828124 8.828125s-8.828126-3.953125-8.828126-8.828125 3.953126-8.828125 8.828126-8.828125 8.828124 3.953125 8.828124 8.828125zm0 0" fill="#fff"/><path d="m361.929688 176.550781c0 4.875-3.949219 8.828125-8.828126 8.828125-4.875 0-8.824218-3.953125-8.824218-8.828125s3.949218-8.828125 8.824218-8.828125c4.878907 0 8.828126 3.953125 8.828126 8.828125zm0 0" fill="#fff"/><path d="m68.414062 220.691406c-3.308593-.003906-6.339843-1.855468-7.851562-4.800781-1.507812-2.945313-1.246094-6.484375.683594-9.175781 19.152344-23.328125 45.105468-40.097656 74.238281-47.976563 6.503906-1.875 13.101563-3.410156 19.765625-4.601562 25.222656-3.941407 50.957031-3.21875 75.917969 2.128906 3.152343.566406 5.753906 2.796875 6.792969 5.828125 1.039062 3.03125.355468 6.386719-1.789063 8.769531-2.144531 2.378907-5.410156 3.414063-8.535156 2.695313-22.816407-4.902344-46.335938-5.589844-69.402344-2.03125-6.011719 1.085937-11.960937 2.472656-17.832031 4.160156-25.332032 6.824219-47.964844 21.246094-64.855469 41.320312-1.648437 2.300782-4.304687 3.667969-7.132813 3.683594zm0 0" fill="#e57e25"/><path d="m443.59375 220.691406c3.308594-.007812 6.335938-1.859375 7.84375-4.804687 1.507812-2.945313 1.246094-6.484375-.683594-9.171875-19.152344-23.328125-45.105468-40.097656-74.238281-47.976563-6.503906-1.875-13.101563-3.410156-19.765625-4.601562-25.222656-3.941407-50.957031-3.21875-75.917969 2.128906-3.152343.566406-5.753906 2.796875-6.792969 5.828125-1.039062 3.03125-.355468 6.386719 1.789063 8.769531 2.144531 2.378907 5.410156 3.414063 8.535156 2.695313 22.820313-4.902344 46.34375-5.589844 69.410157-2.03125 6.007812 1.085937 11.957031 2.472656 17.824218 4.160156 25.332032 6.820312 47.96875 21.242188 64.855469 41.320312 1.652344 2.304688 4.308594 3.671876 7.140625 3.683594zm0 0" fill="#e57e25"/><path d="m304.640625 390.089844c-16.035156 3.007812-32.332031 4.371094-48.640625 4.0625-16.308594.308594-32.605469-1.054688-48.640625-4.0625-47.578125-10.0625-36.457031-36.191406-31.957031-49.609375 26.351562 6.59375 53.4375 9.796875 80.597656 9.535156 27.160156.261719 54.246094-2.941406 80.597656-9.535156 4.5 13.417969 15.621094 39.546875-31.957031 49.609375zm0 0" fill="#fff"/></svg>