<svg id="Capa_1" enable-background="new 0 0 512 512" height="512" viewBox="0 0 512 512" width="512" xmlns="http://www.w3.org/2000/svg"><path d="m496.566 41.273h-27.95c-14.776-27.441-46.408-33.773-70.778-33.773h-87.861c-9.909 0-18.324 8.109-18.138 18.016.18 9.608 8.024 17.34 17.675 17.34h30.691l-.042.528h-53.405c-9.909 0-18.324 8.109-18.138 18.016.18 9.607 8.024 17.34 17.675 17.34h51.05l-.126 1.583h-62.07c-9.909 0-18.324 8.109-18.138 18.016.18 9.608 8.024 17.34 17.675 17.34h59.714l-.126 1.583h-154.112c-9.909 0-18.324 8.109-18.138 18.016.18 9.608 8.024 17.34 17.675 17.34l181.921.528c15.758 0 28.902 11.259 31.799 26.201v40.882c0 9.909 8.109 18.324 18.016 18.138 9.608-.18 17.341-8.024 17.341-17.675v-46.108c0-2.268.941-4.434 2.6-5.981 1.389-1.296 3.19-2.038 5.085-2.18 19.566-1.463 34.987-17.802 34.987-37.743h25.12c4.382 0 7.934-3.552 7.934-7.934v-71.54c-.002-4.381-3.554-7.933-7.936-7.933z" fill="#ffd4a1"/><path d="m496.566 41.273h-27.95c-14.776-27.441-46.408-33.773-70.778-33.773h-33c24.37 0 56.002 6.332 70.778 33.773l2.83 87.407c0 19.941-15.42 36.28-34.987 37.743-1.895.142-3.696.883-5.085 2.18-1.658 1.547-2.6 3.713-2.6 5.981v46.108c0 2.15-.402 4.202-1.105 6.108 2.632 6.778 9.161 11.71 16.765 11.567 9.608-.18 17.341-8.024 17.341-17.675v-46.108c0-2.268.942-4.434 2.6-5.981 1.39-1.296 3.19-2.038 5.085-2.18 19.566-1.463 34.987-17.802 34.987-37.743h25.12c4.382 0 7.934-3.552 7.934-7.934v-71.54c-.001-4.381-3.553-7.933-7.935-7.933z" fill="#ffc183"/><path d="m15.137 470.727h28.247c14.776 27.441 46.408 33.773 70.778 33.773h87.861c9.909 0 18.324-8.109 18.138-18.016-.18-9.608-8.024-17.34-17.675-17.34h-30.691l.042-.528h53.404c9.909 0 18.324-8.109 18.138-18.016-.18-9.608-8.024-17.34-17.675-17.34h-51.05l.126-1.583h62.07c9.909 0 18.324-8.109 18.138-18.016-.18-9.608-8.024-17.34-17.675-17.34h-59.713l.126-1.583h154.112c9.909 0 18.324-8.109 18.138-18.016-.18-9.607-8.024-17.34-17.675-17.34l-181.921-.528c-15.758 0-28.902-11.259-31.799-26.201v-40.882c0-9.909-8.109-18.324-18.016-18.138-9.608.18-17.341 8.024-17.341 17.675v46.108c0 2.268-.941 4.434-2.6 5.981-1.39 1.296-3.19 2.038-5.085 2.18-19.566 1.463-34.987 17.802-34.987 37.743h-25.415c-4.218 0-7.637 3.419-7.637 7.637v72.133c0 4.218 3.419 7.637 7.637 7.637z" fill="#ffd4a1"/><g fill="#ffc183"><path d="m202.487 469.144h-30.691s15.186 7.733 15.366 17.34c.186 9.907-8.229 18.016-18.138 18.016h33c9.909 0 18.324-8.109 18.138-18.016-.18-9.607-8.025-17.34-17.675-17.34z"/><path d="m299.302 359.381c9.651 0 17.495 7.733 17.675 17.34.186 9.907-8.229 18.016-18.138 18.016h33c9.909 0 18.324-8.109 18.138-18.016-.18-9.608-8.024-17.34-17.675-17.34"/><path d="m237.315 396.321h-33c9.65 0 17.495 7.733 17.675 17.34.186 9.907-8.229 18.016-18.138 18.016h33c9.909 0 18.324-8.109 18.138-18.016-.18-9.607-8.024-17.34-17.675-17.34z"/><path d="m225.706 433.26h-33c9.651 0 17.495 7.733 17.675 17.34.186 9.907-8.229 18.015-18.138 18.016h32.999c9.909 0 18.324-8.109 18.138-18.016-.179-9.607-8.024-17.34-17.674-17.34z"/></g><path d="m503.444 121.181h-31.998c-4.143 0-7.5 3.358-7.5 7.5 0 15.794-12.319 29.088-28.046 30.264-8.036.6-14.626 7.495-14.626 15.64v46.108c0 13.132-20.356 12.96-20.356-.463v-40.882c0-19.185-18.918-33.701-39.277-33.701l-181.942-.528c-13.131 0-12.96-20.356.463-20.356h154.112c9.789 0 10.161-16.583.126-16.583h-59.715c-13.131 0-12.96-20.356.464-20.356h62.069c9.789 0 10.161-16.583.126-16.583h-51.05c-13.131 0-12.96-20.356.464-20.356h53.404c9.883 0 9.809-15.528.042-15.528h-30.69c-13.131 0-12.961-20.356.463-20.356h44.023c9.767 0 9.626-15 0-15h-44.023c-18.107 0-31.102 19.327-23.226 35.884-19.587.006-32.492 22.265-21.497 38.937-13.461 5.617-19.763 21.919-12.799 34.942h-72.294c-32.718 0-33.083 50.356-.484 50.356l181.942.528c11.673 0 21.785 8.147 24.299 19.469v40.113c0 32.865 50.356 33.15 50.356.463v-46.108c.048-.443.296-.67.744-.682 20.971-1.568 37.889-17.542 41.3-37.722h25.126c9.675 0 9.675-15 0-15z"/><path d="m397.838 15c39.767 0 56.848 16.221 64.175 29.829 1.308 2.429 3.845 3.944 6.604 3.944h35.883c9.674 0 9.674-15 0-15h-31.591c-15.977-25.157-46.812-33.773-75.071-33.773-9.675 0-9.675 15 0 15z"/><path d="m8.556 390.819h31.998c4.143 0 7.5-3.358 7.5-7.5 0-2.059.214-4.074.613-6.026 2.661-13.026 13.757-23.215 27.433-24.238 8.036-.6 14.626-7.495 14.626-15.64v-46.108c0-13.132 20.356-12.96 20.356.463 0 0 .046 41.839.137 42.31 2.738 14.116 12.795 25.305 25.751 29.946 4.208 1.507 8.72 2.327 13.389 2.327l20.619.06c9.559 0 9.68-14.972.043-15l-20.641-.06c-11.673 0-21.785-8.147-24.299-19.469v-40.114c0-32.735-50.356-33.075-50.356-.463v46.108c-.048.443-.296.67-.744.682-20.971 1.568-37.889 17.542-41.3 37.722h-25.125c-9.675 0-9.675 15 0 15z"/><path d="m332.323 351.881-118.302-.343c-9.547 0-9.873 14.971-.043 15l118.323.343c13.131 0 12.96 20.356-.463 20.356h-154.111c-9.789 0-10.161 16.583-.126 16.583h59.715c13.131 0 12.96 20.356-.464 20.356h-62.069c-9.789 0-10.161 16.583-.126 16.583h51.05c13.131 0 12.96 20.356-.464 20.356h-53.404c-9.883 0-9.809 15.528-.042 15.528h30.69c13.131 0 12.961 20.356-.463 20.356h-87.861c-39.767 0-56.848-16.221-64.175-29.829-1.308-2.429-3.845-3.944-6.604-3.944h-22.018-13.866c-9.675 0-9.675 15 0 15h31.591c13.861 21.824 40.306 33.774 75.071 33.774h87.861c18.107 0 31.102-19.327 23.226-35.884 19.59-.006 32.488-22.264 21.497-38.937 13.461-5.617 19.763-21.919 12.799-34.942h72.294c32.718 0 33.082-50.356.484-50.356z"/><path d="m255.68 193.587c-4.143 0-7.5 3.358-7.5 7.5v9.697c-19.257 3.321-34.446 18.672-37.507 38.016h-7.463c-9.675 0-9.675 15 0 15h7.57c3.315 19.273 18.68 34.476 38.04 37.531v9.583c0 9.674 15 9.674 15 0v-9.697c19.257-3.321 34.446-18.672 37.507-38.016h7.463c9.674 0 9.674-15 0-15h-7.57c-3.315-19.273-18.68-34.476-38.04-37.531v-9.583c0-4.142-3.358-7.5-7.5-7.5zm30.217 54.613h-6.9c-4.143 0-7.5 3.358-7.5 7.5s3.357 7.5 7.5 7.5h7.043c-2.65 11.055-11.252 19.819-22.22 22.691v-7.493c0-4.142-3.357-7.5-7.5-7.5s-7.5 3.358-7.5 7.5v7.647c-11.072-2.646-19.85-11.261-22.718-22.245h6.9c4.143 0 7.5-3.358 7.5-7.5s-3.357-7.5-7.5-7.5h-7.043c2.65-11.055 11.252-19.819 22.22-22.691v7.493c0 4.142 3.357 7.5 7.5 7.5s7.5-3.358 7.5-7.5v-7.647c11.072 2.646 19.85 11.261 22.718 22.245z"/><path d="m99.593 251.907c4.143 0 7.5-3.358 7.5-7.5v-25.098-77.216h25.314c9.675 0 9.675-15 0-15h-32.814c-4.143 0-7.5 3.358-7.5 7.5v109.813c0 4.143 3.357 7.501 7.5 7.501z"/><path d="m412.407 261.093c-4.143 0-7.5 3.358-7.5 7.5v102.313h-25.314c-9.674 0-9.674 15 0 15h32.814c4.143 0 7.5-3.358 7.5-7.5v-109.813c0-4.142-3.357-7.5-7.5-7.5z"/></svg>