<svg height="512" viewBox="0 0 64 64" width="512" xmlns="http://www.w3.org/2000/svg"><g id="Filled_outline" data-name="Filled outline"><g fill="#87cee9"><path d="m27 20a7 7 0 0 0 7 7 8 8 0 0 0 8 8 7.177 7.177 0 0 0 7-5c.191.014.8 0 1 0a8 8 0 0 0 8-8 7.731 7.731 0 0 0 -2-5 5.364 5.364 0 0 0 2-4 5 5 0 0 0 -5-5 4.949 4.949 0 0 0 -2.162.51 7 7 0 0 0 -6.838-5.51 6.891 6.891 0 0 0 -6 4 5.628 5.628 0 0 0 -4-2 5 5 0 0 0 -5 5 5.628 5.628 0 0 0 2 4 6.891 6.891 0 0 0 -4 6z"/><circle cx="20" cy="22" r="3"/><circle cx="13" cy="27" r="2"/></g><path d="m10 41h18v20h-18z" fill="#ffd782"/><path d="m28 53a4 4 0 0 0 0-8z" fill="#f9bb4b"/><path d="m10 45a4 4 0 0 0 0 8z" fill="#f9bb4b"/><path d="m17 35c9 0 9-4 9-4 6.5 6.5 2 10 2 10h-18c0-4 1-6 7-6z" fill="#394d5c"/><path d="m22 53a2 2 0 0 1 2 2v2a0 0 0 0 1 0 0h-4a0 0 0 0 1 0 0v-2a2 2 0 0 1 2-2z" fill="#e33e5c"/><path d="m35 22h18v4h-18z" fill="#ad6327"/><path d="m37 18h14v4h-14z" fill="#66342e"/><path d="m53 18h-18v-4a3.663 3.663 0 0 1 4-4h10a3.663 3.663 0 0 1 4 4z" fill="#ad6327"/><path d="m53 7a5.724 5.724 0 0 0 -1.508.2 8.05 8.05 0 0 0 -7.492-5.2 7.6 7.6 0 0 0 -6.209 3.421 6.355 6.355 0 0 0 -3.791-1.421 6.006 6.006 0 0 0 -6 6 6.355 6.355 0 0 0 1.421 3.791 7.6 7.6 0 0 0 -3.421 6.209 8.012 8.012 0 0 0 7.049 7.944 9.013 9.013 0 0 0 8.951 8.056 8.122 8.122 0 0 0 7.688-5h.083.229a9.011 9.011 0 0 0 9-9 8.374 8.374 0 0 0 -1.658-4.9 6.25 6.25 0 0 0 1.658-4.1 6.006 6.006 0 0 0 -6-6zm-1 16v2h-16v-2zm-14-2v-2h12v2zm-2-4v-3a2.689 2.689 0 0 1 3-3h10a2.689 2.689 0 0 1 3 3v3zm-2 5v4a6.006 6.006 0 0 1 -6-6 5.891 5.891 0 0 1 3.462-5.113 1 1 0 0 0 .186-1.648 4.634 4.634 0 0 1 -1.648-3.239 4 4 0 0 1 4-4 4.634 4.634 0 0 1 3.239 1.648 1 1 0 0 0 1.648-.186 5.891 5.891 0 0 1 5.113-3.462 6.028 6.028 0 0 1 5.86 4.722 1 1 0 0 0 .169.359 6.773 6.773 0 0 0 -1.029-.081h-10c-3.687 0-5 2.583-5 5v4a1 1 0 0 0 1 1h1v2h-1a1 1 0 0 0 -1 1zm21.233-4.358a6.675 6.675 0 0 1 1.767 4.358 7.008 7.008 0 0 1 -7 7h-.254c-.232 0-.551.008-.675 0a.993.993 0 0 0 -1.02.682 6.192 6.192 0 0 1 -6.051 4.318 7.008 7.008 0 0 1 -7-7h18a1 1 0 0 0 1-1v-4a1 1 0 0 0 -1-1h-1v-2h1a1 1 0 0 0 1-1v-4a4.7 4.7 0 0 0 -2.739-4.586h.011a3.951 3.951 0 0 1 1.728-.414 4 4 0 0 1 4 4 4.364 4.364 0 0 1 -1.63 3.223 1 1 0 0 0 -.137 1.419z"/><path d="m20 26a4 4 0 1 0 -4-4 4 4 0 0 0 4 4zm0-6a2 2 0 1 1 -2 2 2 2 0 0 1 2-2z"/><path d="m13 30a3 3 0 1 0 -3-3 3 3 0 0 0 3 3zm0-4a1 1 0 1 1 -1 1 1 1 0 0 1 1-1z"/><path d="m23 44h2v2h-2z"/><path d="m13 44h2v2h-2z"/><path d="m18 46h2v4h-2z"/><path d="m30.506 37.929c.149-2.4-1.129-4.966-3.8-7.636a1 1 0 0 0 -1.06-.211 1.026 1.026 0 0 0 -.646.888c0 .03-.288 3.03-8 3.03-6.691 0-8 2.566-8 7v3.1a5 5 0 0 0 0 9.8v7.1a1 1 0 0 0 1 1h18a1 1 0 0 0 1-1v-7.1a5 5 0 0 0 0-9.8v-2.68a5.578 5.578 0 0 0 1.506-3.491zm-21.506 13.9a3 3 0 0 1 0-5.658zm18 8.171h-16v-18h16zm.6-20h-1.6a4.806 4.806 0 0 0 1-3h-2a3.365 3.365 0 0 1 -2.186 3h-11.792c.144-2.771 1.1-4 5.978-4 5.948 0 8.358-1.736 9.335-3.163 1.5 1.782 2.252 3.467 2.177 4.927a3.6 3.6 0 0 1 -.912 2.236zm3.4 9a3.006 3.006 0 0 1 -2 2.829v-5.658a3.006 3.006 0 0 1 2 2.829z"/><path d="m25 58v-3a3 3 0 0 0 -6 0v1h-6v2zm-4-3a1 1 0 0 1 2 0v1h-2z"/></g></svg>