<?xml version="1.0" encoding="iso-8859-1"?>
<!-- Generator: Adobe Illustrator 19.0.0, SVG Export Plug-In . SVG Version: 6.00 Build 0)  -->
<svg version="1.1" id="Layer_1" xmlns="http://www.w3.org/2000/svg" xmlns:xlink="http://www.w3.org/1999/xlink" x="0px" y="0px"
	 viewBox="0 0 512 512" style="enable-background:new 0 0 512 512;" xml:space="preserve">
<polygon style="fill:#E5E5E5;" points="56,0 56,466.8 56,479.976 56,483.24 84.76,512 115.552,481.208 143.288,508.952 
	169.664,482.575 196.103,509.016 224.168,480.959 253.304,510.096 283.423,479.976 283.872,479.976 314.848,510.952 342.88,482.928 
	369.319,509.368 397.376,481.304 426.52,510.448 456,480.959 456,479.976 456,466.8 456,0 "/>
<path style="fill:#999999;" d="M432,68h-32v-8h32V68z M367.999,68h-32v-8h32V68z M304,68h-32v-8h32V68z M240,68h-32v-8h32V68z
	 M176,68h-32v-8h32V68z M112,68H80v-8h32V68z"/>
<path style="fill:#E21B1B;" d="M152.512,297.984v-18.4c-10.801-0.136-21.39-3.022-30.768-8.384l5.128-17.856
	c8.972,5.312,19.175,8.19,29.6,8.352c12,0,20.136-5.888,20.136-15c0-8.544-6.648-14.056-20.704-19.2
	c-19.944-7.2-32.856-16.336-32.856-34c0-16.336,11.4-28.872,30.576-32.288v-18.6h15.576v17.664
	c9.095,0.099,18.051,2.24,26.208,6.264l-5.096,17.464c-7.978-4.16-16.834-6.355-25.832-6.4c-13.296,0-18.048,6.832-18.048,13.296
	c0,7.792,6.84,12.16,22.984,18.616c21.272,8,30.776,18.232,30.776,35.144c0,16.144-11.2,30.4-32.104,33.816v19.56L152.512,297.984z"
	/>
<g>
	<rect x="252.728" y="201.981" style="fill:#999999;" width="156.925" height="8"/>
	<rect x="252.728" y="157.853" style="fill:#999999;" width="156.925" height="8"/>
	<rect x="252.728" y="245.365" style="fill:#999999;" width="156.925" height="8"/>
	<rect x="252.728" y="288.771" style="fill:#999999;" width="156.925" height="8"/>
	<rect x="102.341" y="332.155" style="fill:#999999;" width="307.312" height="8"/>
	<rect x="102.341" y="375.55" style="fill:#999999;" width="307.312" height="8"/>
</g>
<g>
</g>
<g>
</g>
<g>
</g>
<g>
</g>
<g>
</g>
<g>
</g>
<g>
</g>
<g>
</g>
<g>
</g>
<g>
</g>
<g>
</g>
<g>
</g>
<g>
</g>
<g>
</g>
<g>
</g>
</svg>
