<svg xmlns="http://www.w3.org/2000/svg" enable-background="new 0 0 48 48" viewBox="0 0 48 48"><polygon fill="#1F5081" points="38.5 46.4 24 35.8 9.5 46.3 13.7 33.2 15.1 33.7 12.2 42.6 24 34 35.8 42.6 32.9 33.7 34.3 33.2"/><polygon fill="#1F5081" points="37.9 25.7 37 24.5 43.1 20.1 28.5 20.1 24 6.2 19.5 20.1 4.9 20.1 10.9 24.6 10.1 25.7 .5 18.7 18.4 18.7 24 1.6 29.5 18.7 47.5 18.7"/><path fill="#CFD8EE" d="M45.3,27.6c-1.1,2.8-2.2,5.6-3.2,8.3c-2.8-1.1-5.6-1.9-8.5-2.5c-6.3-1.2-12.8-1.2-19.2,0
			c-2.9,0.6-5.7,1.4-8.5,2.5c-1.1-2.8-2.2-5.5-3.2-8.3c2.6-1,5.2-1.8,7.8-2.4c8.9-2.1,18.1-2.1,26.9,0
			C40.1,25.8,42.7,26.6,45.3,27.6z"/><path fill="#568ECB" d="M5.5,36.8l-1.6-4.1c-0.6-1.6-1.3-3.2-1.9-4.9l-0.3-0.7l0.7-0.3c2.6-1,5.3-1.8,7.9-2.5
			c8.9-2.1,18.3-2.1,27.3,0c2.8,0.7,5.4,1.5,7.9,2.5l0.7,0.3l-1.4,3.7c-0.7,1.8-1.4,3.5-2.1,5.3l-0.3,0.7l-0.7-0.3
			c-2.7-1.1-5.6-1.9-8.4-2.4c-6.2-1.2-12.7-1.2-18.9,0c-2.8,0.5-5.6,1.4-8.4,2.4L5.5,36.8z M24,31.8c3.3,0,6.5,0.3,9.7,1
			c2.7,0.5,5.3,1.3,7.9,2.2c0.6-1.5,1.2-3.1,1.8-4.6l0.9-2.4c-2.3-0.9-4.6-1.6-7.1-2.2c-8.7-2-17.9-2-26.6,0
			c-2.4,0.6-4.8,1.3-7.1,2.2c0.5,1.4,1.1,2.8,1.6,4.2L6.3,35c2.6-1,5.3-1.7,7.9-2.2C17.5,32.1,20.7,31.8,24,31.8z"/><path fill="#568ECB" d="M15.7 25.8c1.2-.3 2.5-.5 3.7-.7 0 .2.1.4.1.6-.9.1-1.9.3-2.8.5.1.6.3 1.3.4 1.9.8-.2 1.6-.3 2.4-.4 0 .2.1.4.1.6-.8.1-1.6.3-2.4.4.2.9.4 1.7.5 2.6-.2.1-.5.1-.7.2C16.6 29.6 16.2 27.7 15.7 25.8zM21.5 25.4c0 .3-.2.5-.5.5-.3 0-.6-.2-.6-.4 0-.3.2-.5.5-.5C21.2 25 21.4 25.1 21.5 25.4zM21 30.8c-.1-1.4-.3-2.8-.4-4.1.3 0 .6-.1.9-.1.1 1.4.2 2.8.3 4.2C21.5 30.8 21.3 30.8 21 30.8zM22.9 27.8c0-.5 0-.9-.1-1.3.3 0 .5 0 .8 0 0 .3 0 .5 0 .8 0 0 0 0 0 0 .2-.6.7-.9 1.3-.9.1 0 .2 0 .2 0 0 .2 0 .5 0 .7-.1 0-.2 0-.3 0-.6 0-1 .4-1.1 1 0 .1 0 .2 0 .4 0 .7 0 1.5 0 2.2-.3 0-.5 0-.8 0C23 29.7 23 28.8 22.9 27.8zM25.8 29.9c.2.2.6.3 1 .4.6 0 .9-.2.9-.5 0-.4-.2-.6-.7-.8-.8-.3-1.1-.8-1.1-1.3 0-.7.7-1.2 1.7-1.1.5 0 .9.2 1.1.4-.1.2-.2.3-.3.5-.2-.1-.5-.3-.9-.3-.5 0-.8.2-.8.5 0 .3.2.5.8.8.8.4 1.1.8 1 1.4-.1.7-.7 1.2-1.7 1.1-.5 0-.9-.2-1.2-.4C25.7 30.3 25.8 30.1 25.8 29.9zM31.3 26c-.1.4-.2.8-.2 1.2.4.1.8.2 1.2.3 0 .2-.1.4-.1.6-.4-.1-.8-.2-1.2-.3-.1.7-.3 1.5-.4 2.2-.1.5 0 .8.4.9.2 0 .4.1.5.1 0 .2-.1.4-.1.6-.2 0-.4 0-.7 0-.3-.1-.6-.2-.8-.5-.2-.3-.2-.6-.1-1.1.1-.7.3-1.5.4-2.2-.2 0-.5-.1-.7-.1 0-.2.1-.4.1-.6.2 0 .5.1.7.1.1-.3.1-.7.2-1C30.7 26 31 26 31.3 26z"/></svg>