<svg xmlns="http://www.w3.org/2000/svg" enable-background="new 0 0 48 48" viewBox="0 0 48 48"><polygon fill="#1F5081" points="38.5 46.4 24 35.8 9.5 46.3 13.7 33.2 15.1 33.7 12.2 42.6 24 34 35.8 42.6 32.9 33.7 34.3 33.2"/><polygon fill="#1F5081" points="37.9 25.7 37 24.5 43.1 20.1 28.5 20.1 24 6.2 19.5 20.1 4.9 20.1 10.9 24.5 10.1 25.7 .5 18.7 18.4 18.7 24 1.6 29.5 18.7 47.5 18.7"/><path fill="#CFD8EE" d="M45.3,27.6c-1.1,2.8-2.2,5.6-3.2,8.3c-2.8-1.1-5.6-1.9-8.5-2.5c-6.3-1.2-12.8-1.2-19.2,0
			c-2.9,0.6-5.7,1.4-8.5,2.5c-1.1-2.8-2.2-5.5-3.2-8.3c2.6-1,5.2-1.8,7.8-2.4c8.9-2.1,18.1-2.1,26.9,0
			C40.1,25.8,42.7,26.6,45.3,27.6z"/><path fill="#568ECB" d="M5.5,36.8l-1.7-4.3c-0.6-1.6-1.2-3.1-1.8-4.7l-0.3-0.7l0.7-0.3c2.6-1,5.3-1.8,7.9-2.5
			c8.9-2.1,18.3-2.1,27.3,0c2.8,0.7,5.4,1.5,7.9,2.5l0.7,0.3l-1.5,3.9c-0.7,1.7-1.3,3.4-2,5.1l-0.3,0.7l-0.7-0.3
			c-2.7-1.1-5.6-1.9-8.4-2.4c-6.2-1.2-12.7-1.2-18.9,0c-2.8,0.5-5.6,1.4-8.4,2.4L5.5,36.8z M24,31.8c3.3,0,6.5,0.3,9.7,1
			c2.7,0.5,5.3,1.3,7.9,2.2c0.6-1.5,1.2-3,1.7-4.4l1-2.6c-2.3-0.9-4.6-1.6-7.1-2.2c-8.7-2-17.9-2-26.6,0c-2.4,0.6-4.8,1.3-7.1,2.2
			c0.5,1.3,1,2.7,1.6,4l1.2,3c2.6-1,5.3-1.7,7.9-2.2C17.5,32.1,20.7,31.8,24,31.8z"/><path fill="#568ECB" d="M14.3 28.5c-.8-.1-1.1-.3-1.2-.7-.1-.3.1-.8.8-.9.5-.1.9 0 1.1 0 0-.2.1-.4.1-.5-.3-.1-.7-.1-1.2 0-1 .2-1.6.9-1.4 1.7.2.7.8.9 1.7 1 .7.1 1.1.3 1.1.8.1.5-.2.9-.9 1-.4.1-.9 0-1.2-.1 0 .2 0 .4 0 .6.3.1.8.1 1.3 0 1.1-.2 1.6-1 1.5-1.7C15.7 28.9 15.2 28.6 14.3 28.5zM17.9 27c-1.1.1-1.6 1.1-1.5 2.1.2 1 .9 1.6 2 1.5.6-.1.9-.2 1.1-.3-.1-.1-.1-.3-.2-.4-.2.1-.5.2-1 .3-.6.1-1.3-.2-1.4-1 .9-.1 1.7-.2 2.6-.3 0-.1 0-.2 0-.3C19.5 27.9 19.1 26.9 17.9 27zM17 28.7c0-.4.2-1.1.9-1.2.8-.1 1 .5 1.1.9C18.3 28.5 17.6 28.6 17 28.7zM22.1 27.2c.4 0 .6.1.8.1 0-.2.1-.3.1-.5-.2-.1-.6-.2-1-.2-1.3 0-2 .9-1.9 2 .1 1.1.8 1.7 1.9 1.7.5 0 .8-.1 1-.2 0-.2-.1-.3-.1-.5-.2.1-.4.2-.8.2-.7 0-1.3-.4-1.3-1.2C20.8 27.9 21.2 27.3 22.1 27.2zM25.4 26.7c-1.1 0-1.9.7-1.9 1.8 0 1.1.8 1.8 1.7 1.8.8 0 1.8-.5 1.9-1.8C27.2 27.5 26.5 26.7 25.4 26.7zM25.3 29.9c-.6 0-1.1-.6-1.1-1.4 0-.7.4-1.4 1.2-1.3.8 0 1.1.8 1.1 1.4C26.4 29.3 25.9 29.9 25.3 29.9zM30 27c-.6-.1-1.1.2-1.3.5 0 0 0 0 0 0 0-.2 0-.4 0-.6-.2 0-.4 0-.6-.1 0 .3 0 .6 0 .9-.1.9-.1 1.7-.2 2.6.2 0 .4 0 .6.1.1-.7.1-1.4.2-2.1 0-.1 0-.2.1-.3.1-.3.5-.6 1-.6.6.1.8.6.7 1.1-.1.7-.2 1.3-.3 2 .2 0 .4.1.6.1.1-.7.2-1.4.3-2.1C31.3 27.5 30.5 27.1 30 27zM35.1 30.7c.3-1.4.7-2.7 1-4.1-.2-.1-.5-.1-.7-.2-.2.7-.3 1.4-.5 2 0 0 0 0 0 0-.1-.3-.4-.6-1-.8-.9-.2-1.8.4-2 1.6-.2 1.1.4 1.9 1.2 2 .6.1 1.1-.1 1.3-.4 0 0 0 0 0 0 0 .2-.1.4-.1.6.2 0 .4.1.6.1C34.9 31.3 35 31 35.1 30.7zM34.6 30c0 .1 0 .2-.1.3-.2.4-.7.6-1.1.5-.7-.1-.9-.8-.8-1.5.1-.8.7-1.3 1.4-1.1.5.1.8.5.8.9 0 .1 0 .2 0 .3C34.6 29.6 34.6 29.8 34.6 30z"/></svg>