<?xml version="1.0" encoding="iso-8859-1"?>
<!-- Generator: Adobe Illustrator 19.0.0, SVG Export Plug-In . SVG Version: 6.00 Build 0)  -->
<svg version="1.1" id="Layer_1" xmlns="http://www.w3.org/2000/svg" xmlns:xlink="https://www.w3.org/1999/xlink" x="0px" y="0px"
	 viewBox="0 0 512 512" style="enable-background:new 0 0 512 512;" xml:space="preserve">
<path style="fill:#60BFE1;" d="M493.94,467.376H269.714c-9.974,0-18.06-8.086-18.06-18.06c0-50.792,2.665-69.584-11.737-97.774
	c-2.637-5.162-2.636-11.276,0.002-16.437C308.332,201.284,512,249.566,512,400.517v48.799
	C512,459.29,503.914,467.376,493.94,467.376z"/>
<path style="fill:#2E9ADA;" d="M460.656,129.374c9.868-18.679-25.552-84.75-92.549-84.75c-63.306,0-103.953,63.122-92.539,84.759
	c-2.976,2.969-4.927,7.199-4.927,12.725v80.333c0,9.974,8.086,18.06,18.06,18.06h158.823c9.974,0,18.06-8.086,18.06-18.06v-80.333
	C465.585,136.575,463.633,132.342,460.656,129.374z"/>
<path style="fill:#60BFE1;" d="M368.107,239.579c-53.743,0-97.466-43.723-97.466-97.466c0-18.093,3.046-39.203,20.914-39.203
	h153.116c17.808,0,20.914,20.963,20.914,39.203C465.585,195.856,421.857,239.579,368.107,239.579z"/>
<g>
	<path style="fill:#C7E5F4;" d="M143.891,239.576c-53.747,0-97.472-43.725-97.472-97.472s43.725-97.473,97.472-97.473
		s97.473,43.725,97.473,97.473C241.363,195.849,197.637,239.576,143.891,239.576z"/>
	<path style="fill:#C7E5F4;" d="M269.714,467.376H18.06c-9.974,0-18.06-8.086-18.06-18.06v-48.799
		c0-79.337,64.55-143.881,143.893-143.881c80.02,0,143.881,64.917,143.881,143.881v48.799
		C287.774,459.29,279.688,467.376,269.714,467.376z"/>
</g>
<g>
</g>
<g>
</g>
<g>
</g>
<g>
</g>
<g>
</g>
<g>
</g>
<g>
</g>
<g>
</g>
<g>
</g>
<g>
</g>
<g>
</g>
<g>
</g>
<g>
</g>
<g>
</g>
<g>
</g>
</svg>
