<svg xmlns="http://www.w3.org/2000/svg" enable-background="new 0 0 64 64" viewBox="0 0 64 64"><path fill="red" d="M16.2,23.6v0.1c0,0.2,0.2,0.4,0.3,0.4h1.6c0.2,0,0.3-0.2,0.3-0.4v-0.1c0-0.2-0.1-0.3-0.3-0.3v-1.4
		c0-0.3-0.2-0.5-0.5-0.5H17c-0.3,0-0.5,0.2-0.5,0.5v1.4C16.3,23.3,16.2,23.5,16.2,23.6z"/><path fill="#fc1a1a" d="M18.2,23.6v0.1c0,0.2-0.2,0.4-0.3,0.4h0.3c0.2,0,0.3-0.2,0.3-0.4v-0.1c0-0.2-0.1-0.3-0.3-0.3v-1.4
		c0-0.3-0.2-0.5-0.5-0.5h-0.3c0.3,0,0.5,0.2,0.5,0.5v1.4C18.1,23.3,18.2,23.5,18.2,23.6z"/><path fill="#e50000" d="M16.5,23.6v0.1c0,0.2,0.2,0.4,0.3,0.4h-0.3c-0.2,0-0.3-0.2-0.3-0.4v-0.1c0-0.2,0.1-0.3,0.3-0.3v-1.4
		c0-0.3,0.2-0.5,0.5-0.5h0.3c-0.3,0-0.5,0.2-0.5,0.5v1.4C16.6,23.3,16.5,23.5,16.5,23.6z"/><path fill="#ededed" d="M21.5,20.5v21.4h31.6c1.4,0,2.5-1.1,2.5-2.5V20.5c0-1.4-1.1-2.5-2.5-2.5H24C22.6,17.9,21.5,19.1,21.5,20.5z"/><path fill="#fff" d="M50,41.9h3.2c1.4,0,2.5-1.1,2.5-2.5V20.5c0-1.4-1.1-2.5-2.6-2.5h-3.1c1.4,0,2.5,1.1,2.5,2.5v18.9
		C52.5,40.8,51.4,41.9,50,41.9z"/><path fill="#dadada" d="M27.1 41.9H24c-1.4 0-2.5-1.1-2.5-2.5V20.5c0-1.4 1.1-2.5 2.6-2.5h3.1c-1.4 0-2.5 1.1-2.5 2.5v18.9C24.7 40.8 25.8 41.9 27.1 41.9zM8.5 35v5.2c0 .9.7 1.7 1.7 1.7h11.3V23.8h-6.4c-1.1 0-2.2.7-2.6 1.7l-3.6 7.8c-.1.2-.1.3-.2.5C8.6 34.2 8.5 34.6 8.5 35z"/><path fill="#a9ecfc" d="M20.4,25.8v4.9c0,0.4-0.3,0.7-0.7,0.7h-8.4l0.1-0.3L12,30l0,0l0.7-1.5l0.2-0.4l0.2-0.5l0.6-1.2l0.4-1
		c0.1-0.2,0.3-0.4,0.6-0.4h5.1c0.1,0,0.3,0,0.4,0.1C20.3,25.3,20.4,25.5,20.4,25.8z"/><path fill="red" d="M8.5,35v0.7h47.1v-1.9H8.7C8.6,34.2,8.5,34.6,8.5,35z"/><path fill="#fff" d="M20.4,25.8v0.4L12,29.9l0.7-1.5l7.4-3.3C20.3,25.3,20.4,25.5,20.4,25.8z"/><polygon fill="#fff" points="20.4 27.1 20.4 28.4 13.8 31.3 11.3 31.3 11.5 31"/><rect width="1.8" height="18.1" x="19.7" y="23.8" fill="#706f6f" opacity=".22"/><rect width="3.3" height="12.7" x="36.9" y="20.1" fill="red" transform="rotate(90 38.556 26.407)"/><rect width="12.7" height="3.3" x="32.2" y="24.7" fill="red" transform="rotate(90 38.555 26.407)"/><path fill="#fff" d="M16.5,23.8c-1.1,0-2.2,0.7-2.6,1.7l-3.6,7.8c-0.1,0.2-0.1,0.3-0.2,0.5C10,34.2,10,34.6,10,35v5.2
		c0,0.9,0.7,1.7,1.6,1.7h-1.4c-0.9,0-1.7-0.7-1.7-1.7V35c0-0.4,0.1-0.8,0.2-1.2c0.1-0.2,0.1-0.4,0.2-0.5l3.6-7.8
		c0.5-1,1.5-1.7,2.6-1.7H16.5z" opacity=".24"/><path fill="#878787" d="M56,39.9H8c-0.5,0-1,0.4-1,1v0c0,0.5,0.4,1,1,1H56c0.5,0,1-0.4,1-1v0C57,40.4,56.6,39.9,56,39.9z"/><circle cx="15.5" cy="41.9" r="4.2" fill="#1d1d1b"/><circle cx="15.5" cy="41.9" r="2" fill="#c6c6c6"/><circle cx="15.5" cy="41.9" r=".9" fill="#f6f6f6"/><path fill="#2b2b28" d="M12.7,43c0.5,1.6,1.9,2.8,3.4,3c-2,0.3-4.1-0.9-4.7-3c-0.6-2.2,0.6-4.5,2.8-5.2c0.6-0.2,1.2-0.2,1.8-0.1
			c-0.2,0-0.3,0.1-0.5,0.1C13.4,38.5,12.1,40.8,12.7,43z"/><circle cx="48.3" cy="41.9" r="4.2" fill="#1d1d1b"/><circle cx="48.3" cy="41.9" r="2" fill="#c6c6c6"/><circle cx="48.3" cy="41.9" r=".9" fill="#f6f6f6"/><path fill="#2b2b28" d="M45.6,43c0.5,1.6,1.9,2.8,3.4,3c-2,0.3-4.1-0.9-4.7-3c-0.6-2.2,0.6-4.5,2.8-5.2c0.6-0.2,1.2-0.2,1.8-0.1
			c-0.2,0-0.3,0.1-0.5,0.1C46.2,38.5,44.9,40.8,45.6,43z"/></svg>