<svg xmlns="http://www.w3.org/2000/svg" fill-rule="evenodd" stroke-linejoin="round" stroke-miterlimit="2" clip-rule="evenodd" viewBox="0 0 134 134"><path d="M41.667,108.088l-0,16.667c-0,2.301 1.865,4.166 4.166,4.166l41.667,0c2.301,0 4.167,-1.865 4.167,-4.166l-0,-16.667l33.333,-0c2.301,-0 4.167,-1.866 4.167,-4.167l-0,-37.327c-0,-13.788 -11.178,-24.966 -24.967,-24.966l-0.067,-0c-13.522,-0 -24.534,10.75 -24.954,24.171c-3.67,-2.123 -7.933,-3.338 -12.479,-3.338l-0.067,0c-4.546,0 -8.808,1.215 -12.479,3.338c-0.42,-13.421 -11.431,-24.171 -24.954,-24.171l-0.067,-0c-13.788,-0 -24.966,11.178 -24.966,24.966c-0,16.683 -0,37.327 -0,37.327c-0,2.301 1.865,4.167 4.166,4.167l33.334,-0Z"/><path fill="#b9f0ff" d="M83.333,87.427l0,33.161c0,-0 -33.333,-0 -33.333,-0c0,-0 0,-33.16 0,-33.16c0,-9.187 7.447,-16.633 16.633,-16.633c0,-0 0.067,-0 0.067,-0c9.186,-0 16.633,7.446 16.633,16.632Zm-37.5,-13.813l0,-7.02c0,-9.186 -7.447,-16.633 -16.633,-16.633c0,0 -0.067,0 -0.067,0c-9.186,0 -16.633,7.447 -16.633,16.633c0,0 0,33.16 -0,33.161l29.167,-0.001l-0,-12.326c-0,-5.109 1.534,-9.859 4.166,-13.814Zm45.834,26.141l29.166,-0.001c0,0 0,-33.16 0,-33.16c0,-9.186 -7.447,-16.633 -16.633,-16.633c0,0 -0.067,0 -0.067,0c-9.186,0 -16.633,7.447 -16.633,16.633l0,7.02c2.632,3.955 4.167,8.705 4.167,13.814l-0,12.327Z"/><circle cx="66.667" cy="41.667" r="16.667"/><circle cx="29.167" cy="20.833" r="16.667"/><circle cx="104.167" cy="20.833" r="16.667"/><path fill="#d4d4d5" d="M66.667,33.333c4.599,0 8.333,3.734 8.333,8.334c-0,4.599 -3.734,8.333 -8.333,8.333c-4.6,-0 -8.334,-3.734 -8.334,-8.333c0,-4.6 3.734,-8.334 8.334,-8.334Zm-37.5,-20.833c4.599,0 8.333,3.734 8.333,8.333c-0,4.6 -3.734,8.334 -8.333,8.334c-4.6,-0 -8.334,-3.734 -8.334,-8.334c0,-4.599 3.734,-8.333 8.334,-8.333Zm75,0c4.599,0 8.333,3.734 8.333,8.333c-0,4.6 -3.734,8.334 -8.333,8.334c-4.6,-0 -8.334,-3.734 -8.334,-8.334c0,-4.599 3.734,-8.333 8.334,-8.333Z"/><path fill="#aae0ef" d="M50.658,82.78c10.604,4.718 21.759,6.731 32.675,6.321l0,31.487c0,-0 -33.333,-0 -33.333,-0c0,-0 0,-33.16 0,-33.16c0,-1.613 0.23,-3.173 0.658,-4.648Zm-32.714,-28.492c-3.345,3.043 -5.444,7.429 -5.444,12.306c0,0 0,33.16 -0,33.161l29.167,-0.001l-0,-12.326c-0,-2.988 0.524,-5.853 1.487,-8.507c-10.56,-6.21 -19.079,-14.745 -25.21,-24.633Zm102.889,22.96c-8.825,5.711 -18.787,9.484 -29.166,11.064l-0,11.443l29.166,-0.001l0,-22.506Z"/></svg>