<?xml version="1.0" encoding="utf-8"?>
<!-- Generator: Adobe Illustrator 24.2.1, SVG Export Plug-In . SVG Version: 6.00 Build 0)  -->
<svg version="1.1" id="Layer_1" xmlns="http://www.w3.org/2000/svg" xmlns:xlink="http://www.w3.org/1999/xlink" x="0px" y="0px"
	 viewBox="0 0 1000 1000" style="enable-background:new 0 0 1000 1000;" xml:space="preserve">
<path d="M214.9,318.3c9.8,0,17.7-7.9,17.7-17.7s-7.9-17.7-17.7-17.7h-46c-4.5,0-8.7,1.6-12.1,4.7L75,362.9c-0.1,0.1-0.1,0.2-0.2,0.3
	c-1,1-1.6,2.2-2.4,3.3c-0.5,0.8-1.2,1.5-1.6,2.4c-0.3,0.9-0.4,1.7-0.7,2.7c-0.3,1.3-0.8,2.7-0.9,4.1c0,0.1-0.1,0.2-0.1,0.3v594.2
	c0,9.8,7.9,17.7,17.7,17.7h825.8c9.8,0,17.7-7.9,17.7-17.7V375.9c0-0.1-0.1-0.2-0.1-0.3c0-1.4-0.4-2.7-0.8-4c-0.2-0.9-0.2-2-0.7-2.7
	c-0.3-0.7-0.9-1.2-1.3-1.9c-0.8-1.3-1.5-2.7-2.7-3.8c-0.1-0.1-0.1-0.2-0.2-0.2l-80.4-75.4c-3.3-3-7.6-4.8-12.2-4.8h-38.2
	c-9.8,0-17.7,7.9-17.7,17.7c0,9.8,7.9,17.7,17.7,17.7H825l42.4,39.7H736.7V200.7C737.2,154.2,670,7.9,513.8,7.9
	c-148.2,0-246.4,126.9-246.4,210.8v139.5H132.7l43.2-39.7h39V318.3z M302.9,218.7c0-61.7,80-175.2,210.9-175.2
	c136.8,0,187.9,130.7,187.9,157.3v157.3H302.9V218.7z M895.1,393.7v558.6H104.8V393.7C104.8,393.7,895.1,393.7,895.1,393.7z"/>
<path d="M642.3,282.7H357.6c-9.8,0-17.7,7.9-17.7,17.7c0,9.8,7.9,17.7,17.7,17.7h284.6c9.8,0,17.7-7.9,17.7-17.7
	C660,290.7,652.1,282.7,642.3,282.7z"/>
<g>
	<path d="M272.9,760.2c0.4,0.2,0.7,0.4,1,0.6c35,20.2,27.9,22.6,46.5,28c-2.7,1-5.9,1.3-9.6,0.9c4.7,5.4,12.7,8.9,24,10.5l-7.3,3.3
		c10.1,4.7,19.8,8.5,28,8.9l-4.1,6.1c8.5,2.2,17.2,3.8,26.6,4.4l-2.6,4.2c5,2,12.6,2.3,21,2.1l0,3.8c7.8,2,17.3,1.8,27,1.4
		c-0.7,0.8-0.6,2.1-1.9,3c8.6,1.2,16.3,1.3,23.2,0.6l0.3,3.2c7.8-1,27.8,1.6,44.3,4.6c0.2,0.6,0.5,1.2,0.8,1.7
		c-8.1-0.6-16.6-1.7-20-3l-0.7,1.6c-3.5-1.2-7.5-2.2-12.2-2.7c0.5,0.7,0.2,1.3,0.5,1.8c-5-1.4-9.9-2.7-14.3-2.7l-0.6,1.9
		c-4.3-1.1-8.4-2-11.3-1.6l0.7,2.5c-5-0.9-9.8-1.2-14.6-1.1l1.2,3.6c-4.4-0.9-10.1-0.1-16.1,1l3.3,2.6c-6.2-0.6-10.9,0.2-14.3,2.4
		c2,0.2,3.6,0.8,4.8,1.7c-10.6,0.4-7.3,2.6-28.8,8.5c-0.2,0.1-0.5,0.1-0.8,0.2c0.2,0,0.4,0,0.7,0c22.8,0.5,20.4,3.4,30.6,1.2
		c-0.9,1.1-2.2,2.1-4.1,2.7c4,1.3,8.8,0.9,14.5-1.1l-2.2,3.3c6.2-0.4,11.9-1,15.7-2.9l0.2,3.8c4.6-1.1,9.1-2.5,13.6-4.5l0.3,2.6
		c2.9-0.3,6.5-2.1,10.2-4.2l1.3,1.7c4.2-1,8.5-3.4,12.7-6c-0.1,0.5,0.4,1.1,0.2,1.8c4.3-1.6,7.8-3.4,10.8-5.5l1.2,1.4
		c3-2.2,11.9-5.6,20-8.3c0.1,0.1,0.3,0.2,0.4,0.3v79.4h11.5v-79.4c0.6-0.4,1.2-0.8,1.7-1.3c9.2,2.9,19.9,7,23.4,9.6l1.3-1.5
		c3.2,2.2,7,4.2,11.7,6c-0.3-0.8,0.3-1.4,0.2-2c4.6,2.8,9.3,5.4,13.9,6.6l1.4-1.9c4.1,2.3,8,4.2,11.2,4.6l0.3-2.8
		c4.9,2.2,9.8,3.8,14.8,5l0.2-4.1c4.2,2,10.4,2.7,17.2,3.1l-2.4-3.6c6.2,2.2,11.5,2.7,15.8,1.2c-2-0.7-3.5-1.7-4.4-3
		c11.2,2.3,8.6-0.8,33.5-1.3c0.3,0,0.5,0,0.7,0c-0.3-0.1-0.6-0.2-0.8-0.2c-23.6-6.5-20-8.8-31.5-9.3c1.4-1,3.1-1.6,5.3-1.8
		c-3.6-2.4-8.8-3.2-15.6-2.6l3.6-2.9c-6.6-1.2-12.8-2-17.6-1.1l1.3-4c-5.2-0.1-10.5,0.2-16,1.2l0.7-2.7c-3.2-0.4-7.6,0.5-12.3,1.7
		l-0.7-2.1c-4.8,0-10.2,1.4-15.6,3c0.3-0.5,0-1.3,0.5-2c-5.1,0.5-9.5,1.6-13.3,2.9l-0.8-1.8c-4,1.6-14.8,2.8-24.4,3.5
		c0.2-0.5,0.3-1.1,0.5-1.6c16.9-3.2,38.4-6.1,46.5-5l0.3-3.2c7,0.7,14.6,0.6,23.2-0.6c-1.2-0.9-1.2-2.3-1.9-3
		c9.7,0.4,19.1,0.6,27-1.4l0-3.8c8.4,0.2,16-0.2,21-2.1l-2.6-4.2c9.4-0.6,18.1-2.2,26.6-4.4l-4.1-6.1c8.2-0.4,17.9-4.2,28-8.9
		l-7.3-3.3c11.3-1.6,19.3-5.1,24-10.5c-3.7,0.5-6.8,0.2-9.6-0.9c18.6-5.4,11.5-7.8,46.5-28c0.4-0.2,0.7-0.4,1-0.6
		c-0.5,0.1-1,0.2-1.4,0.3c-40.7,9-38.1,2.9-55.1,11.2c0.9-2.5,2.8-4.7,5.6-6.7c-7.8-0.6-16.2,2.2-25.1,8.4l2-6.9
		c-10.7,3.4-20.5,7-26.3,12.1l-2.5-6.7c-7.6,3.9-14.7,8.5-21.6,14.1l-1.9-4.5c-5,1.9-10.4,6.6-15.8,12.1l-3.2-2.5
		c-6.9,3.7-13.1,9.9-19.2,16.4c-0.2-0.9-1.4-1.8-1.4-3.2c-6.8,4.8-11.9,9.6-16,14.5l-3-1.9c-4.3,5.7-19.8,16.7-33.4,25.3
		c-0.1-0.9-0.2-1.8-0.5-2.7c19.1-16.3,45-36,57-40.5l-2.8-4.4c9.8-4.1,19.7-9.7,29.9-17.3c-2.6-0.4-3.8-2.1-5.5-2.6
		c13.1-6.3,25.7-12.8,34-21l-3.8-4.9c11.1-5.7,20.8-11.6,25.4-17.7l-7.6-3.7c11.7-7.6,21.6-15.8,30.5-24.8l-11.4-5
		c10.4-6.3,19.3-18.3,27.9-31.5l-12.8,0.8c13.2-10.2,20.3-20.4,21.1-30.9c-4.3,3.2-8.8,5.1-13.4,5.7c19-20.3,7.4-18.4,33.3-69.7
		c0.3-0.5,0.5-1,0.8-1.5c-0.5,0.5-1.1,1-1.6,1.5c-44.4,40.8-47.1,30.9-61.1,53.9c-1.2-3.9-1-8.1,0.7-12.8
		c-10.8,4.7-19,14.4-24.6,28.9l-4.2-10.5c-10.8,12-19.9,23.8-22.6,34.6l-9.9-7c-6,10.6-10.9,21.6-14.3,33.9l-7-4.5
		c-4.7,6-7.1,16-8.8,27.1l-6.7-1c-5.5,9.8-7.4,22.3-9,35.1c-1.2-1.1-3.6-1.4-5-3.2c-4.1,11.1-6.1,21.1-6.6,30.4l-5.9-0.4
		c0,10.9-10.1,37.8-19.7,59c-0.9-0.6-1.8-1.1-2.9-1.4c7.4-29.4,19.8-67.2,29.4-79.5l-6.7-3.2c7.4-10.3,13.7-22.4,18.5-36.9
		c-3.1,1.1-6-0.1-8.2,0.4c9.1-14.8,17.6-29.4,19.9-43.3l-8.2-3.1c7.4-12.9,13.3-25.1,13.3-34.6l-11.4,0.5
		c6.6-15.3,10.7-30.2,13-45.4l-16.6,1.3c6.2-13.2,6.1-31.6,4.6-51.3l-13.4,8.5c6.1-19.1,5.4-34.6-2.4-46.5
		c-2.1,6.1-5.4,10.8-10,14.3c4.1-33.6-7.1-24.6-21.1-96.5c-0.1-0.7-0.3-1.4-0.4-2.1c-0.2,0.9-0.4,1.7-0.5,2.5
		c-15,71.4-26.1,62-22.5,95.7c-4.6-3.5-7.8-8.4-9.8-14.5c-8,11.7-8.9,27.2-3.1,46.4l-13.3-9c-1.9,19.7-2.2,38.1,3.8,51.5l-16.6-1.8
		c2.1,15.2,5.9,30.3,12.3,45.8l-11.4-0.8c-0.2,9.4,5.5,21.8,12.7,35l-8.2,2.9c2.1,14,10.3,28.9,19.2,43.9c-2.2-0.5-5.1,0.6-8.2-0.6
		c4.6,14.6,10.7,26.8,17.9,37.4l-6.8,3c9.3,12.4,21.1,50.5,28.1,80.1c-0.3,0.1-0.6,0.2-0.9,0.3c-9.3-20.9-18.7-46.4-18.8-56.9
		l-5.9,0.4c-0.4-9.3-2.4-19.4-6.6-30.4c-1.4,1.9-3.8,2.1-5,3.2c-1.6-12.8-3.5-25.4-9-35.1l-6.7,1c-1.7-11-4.1-21-8.8-27.1l-7,4.5
		c-3.4-12.3-8.3-23.3-14.3-33.9l-9.9,7c-2.7-10.8-11.8-22.5-22.6-34.6l-4.2,10.5c-5.6-14.5-13.8-24.2-24.6-28.9
		c1.7,4.6,2,8.9,0.7,12.8c-14.1-23-16.7-13.1-61.1-53.9c-0.5-0.5-1-1-1.6-1.5c0.3,0.5,0.5,1,0.8,1.5c25.9,51.3,14.3,49.4,33.3,69.7
		c-4.6-0.6-9.1-2.5-13.4-5.7c0.8,10.5,7.9,20.7,21.1,30.9l-12.8-0.8c8.6,13.3,17.5,25.2,27.9,31.5l-11.4,5
		c8.9,9,18.8,17.2,30.5,24.8l-7.6,3.7c4.6,6.1,14.3,11.9,25.4,17.7l-3.8,4.9c8.3,8.2,20.9,14.7,34,21c-1.7,0.5-2.9,2.3-5.5,2.6
		c10.2,7.7,20.1,13.3,29.9,17.3l-2.8,4.4c11.5,4.3,36.1,22.8,54.9,38.7c-0.5,0.9-0.7,1.8-0.9,2.8c-13-8.4-27.1-18.5-31.1-23.9
		l-3,1.9c-4.1-4.9-9.2-9.8-16-14.5c0,1.4-1.2,2.3-1.4,3.2c-6.1-6.5-12.2-12.7-19.2-16.4l-3.2,2.5c-5.4-5.5-10.8-10.2-15.8-12.1
		l-1.9,4.5c-6.8-5.6-14-10.2-21.6-14.1l-2.5,6.7c-5.8-5-15.6-8.7-26.3-12.1l2,6.9c-8.9-6.2-17.3-9-25.1-8.4c2.8,2,4.7,4.2,5.6,6.7
		c-17-8.3-14.4-2.2-55.1-11.2C273.9,760.4,273.4,760.3,272.9,760.2z"/>
</g>
</svg>
