<svg xmlns="http://www.w3.org/2000/svg" enable-background="new 0 0 64 64" viewBox="0 0 64 64"><path fill="#e8e8e8" d="M59,63H5c-2.209,0-4-1.791-4-4V10c0-2.209,1.791-4,4-4h54c2.209,0,4,1.791,4,4v49C63,61.209,61.209,63,59,63z"/><path fill="#f2c555" d="M41 22c4.5 4.74 0 6 0 6S36.5 26.74 41 22zM35 22c4.5 4.74 0 6 0 6S30.5 26.74 35 22zM29 22c4.5 4.74 0 6 0 6S24.5 26.74 29 22zM23 22c4.5 4.74 0 6 0 6S18.5 26.74 23 22z"/><path fill="#e87570" d="M59.17,6C61.28,6,63,7.72,63,9.83V17H1V9.83C1,7.72,2.72,6,4.83,6H59.17z"/><path fill="#ccc" d="M63,10v49c0,2.21-1.79,4-4,4H5c-2.21,0-4-1.79-4-4v-1h41c8.84,0,16-7.16,16-16V6h1C61.21,6,63,7.79,63,10z"/><path fill="#db4d4d" d="M63,9.83V17h-5V6h1.17C61.28,6,63,7.72,63,9.83z"/><circle cx="53" cy="23" r="2" fill="#63d3b0"/><path fill="#34ad85" d="M51.218,23.887C51.547,24.543,52.22,25,53,25c1.1,0,2-0.9,2-2c0-0.412-0.126-0.796-0.342-1.115C53.958,22.923,52.654,23.628,51.218,23.887z"/><path fill="#63d3b0" d="M50,40v15c0,1.68-8.84,3.03-18.5,3.03S14,56.68,14,55V40c0,1.66,8.06,3,18,3S50,41.66,50,40z"/><path fill="#f2c555" d="M49,6v5.5c0,0.83-0.67,1.5-1.5,1.5S46,12.33,46,11.5V6V2.5C46,1.67,46.67,1,47.5,1S49,1.67,49,2.5V6z"/><path fill="#e87570" d="M35,37.04c2.15,0.06,4.18,0.19,6,0.36c5.38,0.52,9,1.49,9,2.6c0,1.66-8.06,3-18,3s-18-1.34-18-3c0-1.11,3.62-2.08,9-2.6c1.82-0.17,3.85-0.3,6-0.36c0.97-0.03,1.98-0.04,3-0.04S34.03,37.01,35,37.04z"/><path fill="#34ad85" d="M42.347,42.453C35.715,50.162,24.569,52.85,14,52.428V55c0,1.68,7.84,3.03,17.5,3.03S50,56.68,50,55V40C50,41.016,46.971,41.911,42.347,42.453z"/><path fill="#db4d4d" d="M50,40c0-0.773-1.758-1.477-4.639-2.01c-0.851,1.646-1.866,3.128-3.014,4.463C46.971,41.911,50,41.016,50,40z"/><path fill="#efa256" d="M39.337 26.81C39.906 27.69 41 28 41 28s3.35-.946 1.357-4.262C41.674 25.121 40.53 26.143 39.337 26.81zM33.337 26.81C33.906 27.69 35 28 35 28s3.35-.946 1.357-4.262C35.674 25.121 34.53 26.143 33.337 26.81zM27.337 26.81C27.906 27.69 29 28 29 28s3.35-.946 1.357-4.262C29.674 25.121 28.53 26.143 27.337 26.81zM21.337 26.81C21.906 27.69 23 28 23 28s3.35-.946 1.357-4.262C23.674 25.121 22.53 26.143 21.337 26.81z"/><path fill="#f2c555" d="M17,6v5.5c0,0.83-0.67,1.5-1.5,1.5S14,12.33,14,11.5V6V2.5C14,1.67,14.67,1,15.5,1S17,1.67,17,2.5V6z"/><path fill="#ea872d" d="M49 8.5v3c0 .83-.67 1.5-1.5 1.5S46 12.33 46 11.5v-3c0 .83.67 1.5 1.5 1.5S49 9.33 49 8.5zM17 8.5v3c0 .83-.67 1.5-1.5 1.5S14 12.33 14 11.5v-3c0 .83.67 1.5 1.5 1.5S17 9.33 17 8.5z"/><circle cx="8.5" cy="41.5" r="1.5" fill="#f2c555"/><path fill="#f2e5ad" d="M22.774 24.313c-.456 0-.457.709 0 .709C23.231 25.022 23.231 24.313 22.774 24.313zM28.766 24.386c-.456 0-.457.709 0 .709C29.222 25.095 29.223 24.386 28.766 24.386zM34.758 24.46c-.456 0-.457.709 0 .709C35.214 25.168 35.215 24.46 34.758 24.46zM40.75 24.533c-.456 0-.457.709 0 .709C41.206 25.242 41.207 24.533 40.75 24.533z"/><path fill="#aeffe4" d="M52.658,22.291c-0.456,0-0.457,0.709,0,0.709C53.114,23,53.115,22.291,52.658,22.291z"/><path fill="#f2afaf" d="M3.616 12.353c.634 0 .855-1.076.984-1.796.152-.848.608-2.175-.139-2.175C3.081 8.383 2.234 12.353 3.616 12.353zM3.597 13.938c.69 0 .691-1.274 0-1.274C2.907 12.663 2.906 13.938 3.597 13.938z"/><path fill="#472b3c" d="M8 26h1c.553 0 1-.448 1-1s-.447-1-1-1H8c-.553 0-1 .448-1 1S7.447 26 8 26zM11 24c.553 0 1-.448 1-1v-1c0-.552-.447-1-1-1s-1 .448-1 1v1C10 23.552 10.447 24 11 24zM14 26c.553 0 1-.448 1-1s-.447-1-1-1h-1c-.553 0-1 .448-1 1s.447 1 1 1H14zM11 26c-.553 0-1 .448-1 1v1c0 .552.447 1 1 1s1-.448 1-1v-1C12 26.448 11.553 26 11 26zM52 34h-1c-.553 0-1 .448-1 1s.447 1 1 1h1c.553 0 1-.448 1-1S52.553 34 52 34zM53 32v1c0 .552.447 1 1 1s1-.448 1-1v-1c0-.552-.447-1-1-1S53 31.448 53 32zM57 34h-1c-.553 0-1 .448-1 1s.447 1 1 1h1c.553 0 1-.448 1-1S57.553 34 57 34zM54 36c-.553 0-1 .448-1 1v1c0 .552.447 1 1 1s1-.448 1-1v-1C55 36.448 54.553 36 54 36zM8.5 39C7.121 39 6 40.122 6 41.5S7.121 44 8.5 44s2.5-1.122 2.5-2.5S9.879 39 8.5 39zM8.5 42C8.225 42 8 41.776 8 41.5S8.225 41 8.5 41 9 41.224 9 41.5 8.775 42 8.5 42zM53 26c1.654 0 3-1.346 3-3s-1.346-3-3-3-3 1.346-3 3S51.346 26 53 26zM53 22c.552 0 1 .449 1 1s-.448 1-1 1-1-.449-1-1S52.448 22 53 22zM42 36.494v-7.828c.74-.382 1.589-1.078 1.888-2.161.414-1.499-.313-3.246-2.162-5.194-.379-.397-1.072-.397-1.451 0-1.849 1.948-2.576 3.695-2.162 5.194.299 1.083 1.148 1.779 1.888 2.161v7.641c-1.409-.112-2.78-.184-4-.229v-7.412c.74-.382 1.589-1.078 1.888-2.161.414-1.499-.313-3.246-2.162-5.194-.379-.397-1.072-.397-1.451 0-1.849 1.948-2.576 3.695-2.162 5.194.299 1.083 1.148 1.779 1.888 2.161v7.355C33.14 36.004 32.443 36 32 36s-1.14.004-2 .021v-7.355c.74-.382 1.589-1.078 1.888-2.161.414-1.499-.313-3.246-2.162-5.194-.379-.397-1.072-.397-1.451 0-1.849 1.948-2.576 3.695-2.162 5.194.299 1.083 1.148 1.779 1.888 2.161v7.412c-1.22.046-2.591.117-4 .229v-7.641c.74-.382 1.589-1.078 1.888-2.161.414-1.499-.313-3.246-2.162-5.194-.379-.397-1.072-.397-1.451 0-1.849 1.948-2.576 3.695-2.162 5.194.299 1.083 1.148 1.779 1.888 2.161v7.828c-4.616.5-9 1.502-9 3.506v15c0 3.84 15.411 4.035 18.5 4.035 1.996 0 19.5-.113 19.5-4.035V40C51 37.996 46.616 36.995 42 36.494zM41 23.523c.782.999 1.121 1.848.962 2.442-.134.5-.64.811-.962.962-.322-.151-.828-.462-.962-.962C39.879 25.371 40.218 24.522 41 23.523zM35 23.523c.782.999 1.121 1.848.962 2.442-.134.5-.64.811-.962.962-.322-.151-.828-.462-.962-.962C33.879 25.371 34.218 24.522 35 23.523zM29 23.523c.782.999 1.121 1.848.962 2.442-.134.5-.64.811-.962.962-.322-.151-.828-.462-.962-.962C27.879 25.371 28.218 24.522 29 23.523zM23 23.523c.782.999 1.121 1.848.962 2.442-.134.5-.64.811-.962.962-.322-.151-.828-.462-.962-.962C21.879 25.371 22.218 24.522 23 23.523zM22 38.515V40c0 .552.447 1 1 1s1-.448 1-1v-1.686c1.212-.103 2.551-.184 4-.238V40c0 .552.447 1 1 1s1-.448 1-1v-1.981C30.648 38.008 31.311 38 32 38s1.352.008 2 .019V40c0 .552.447 1 1 1s1-.448 1-1v-1.924c1.449.055 2.788.135 4 .238V40c0 .552.447 1 1 1s1-.448 1-1v-1.485c3.672.424 5.948 1.026 6.766 1.485-1.402.786-7.06 2-16.766 2s-15.363-1.214-16.766-2C16.052 39.542 18.328 38.939 22 38.515zM31.5 57.035c-10.121 0-15.699-1.409-16.5-2.181V42.026C19.359 43.882 29.526 44 32 44s12.641-.118 17-1.974v12.796C48.034 55.651 41.658 57.035 31.5 57.035z"/><path fill="#472b3c" d="M4.833,64h54.334C61.832,64,64,61.832,64,59.167V9.833C64,7.168,61.832,5,59.167,5H50V2.5C50,1.122,48.879,0,47.5,0S45,1.122,45,2.5V5H18V2.5C18,1.122,16.879,0,15.5,0S13,1.122,13,2.5V5H4.833C2.168,5,0,7.168,0,9.833v49.333C0,61.832,2.168,64,4.833,64z M59.167,62H4.833C3.271,62,2,60.729,2,59.167V18h60v41.167C62,60.729,60.729,62,59.167,62z M47,2.5C47,2.229,47.229,2,47.5,2S48,2.229,48,2.5v9c0,0.271-0.229,0.5-0.5,0.5S47,11.771,47,11.5V2.5z M15,2.5C15,2.229,15.229,2,15.5,2S16,2.229,16,2.5v9c0,0.271-0.229,0.5-0.5,0.5S15,11.771,15,11.5V2.5z M4.833,7H13v4.5c0,1.378,1.121,2.5,2.5,2.5s2.5-1.122,2.5-2.5V7h27v4.5c0,1.378,1.121,2.5,2.5,2.5s2.5-1.122,2.5-2.5V7h9.167C60.729,7,62,8.271,62,9.833V16H2V9.833C2,8.271,3.271,7,4.833,7z"/></svg>