<svg xmlns="http://www.w3.org/2000/svg" enable-background="new 0 0 64 64" viewBox="0 0 64 64"><switch><g><path fill="#fdf2dd" d="M47,10v11H24v-4h-6v4h-4c-2.2,0-4-1.8-4-4v-3c0-2.2,1.8-4,4-4H47z"/><path fill="#0f283a" d="M47,22H24c-0.6,0-1-0.4-1-1v-3h-4v3c0,0.6-0.4,1-1,1h-4c-2.8,0-5-2.2-5-5v-3c0-2.8,2.2-5,5-5h33
					c0.6,0,1,0.4,1,1v11C48,21.6,47.6,22,47,22z M25,20h21v-9H14c-1.7,0-3,1.3-3,3v3c0,1.7,1.3,3,3,3h3v-3c0-0.6,0.4-1,1-1h6
					c0.6,0,1,0.4,1,1V20z"/><path fill="#fcaa35" d="M50,8.5c0,0.8-0.7,1.5-1.5,1.5H14c-2.2,0-4,1.8-4,4v3c0,2.2,1.8,4,4,4h4v3h-4c-3.9,0-7-3.1-7-7v-3
					c0-3.9,3.1-7,7-7h34.5C49.3,7,50,7.7,50,8.5z"/><path fill="#0f283a" d="M18,25h-4c-4.4,0-8-3.6-8-8v-3c0-4.4,3.6-8,8-8h34.5C49.9,6,51,7.1,51,8.5S49.9,11,48.5,11H14
					c-1.7,0-3,1.3-3,3v3c0,1.7,1.3,3,3,3h4c0.6,0,1,0.4,1,1v3C19,24.6,18.6,25,18,25z M14,8c-3.3,0-6,2.7-6,6v3c0,3.3,2.7,6,6,6h3
					v-1h-3c-2.8,0-5-2.2-5-5v-3c0-2.8,2.2-5,5-5h34.5C48.8,9,49,8.8,49,8.5S48.8,8,48.5,8H14z"/><path fill="#fcaa35" d="M50,22.5c0,0.8-0.7,1.5-1.5,1.5H24v-3h24.5C49.3,21,50,21.7,50,22.5z"/><path fill="#0f283a" d="M48.5,25H24c-0.6,0-1-0.4-1-1v-3c0-0.6,0.4-1,1-1h24.5c1.4,0,2.5,1.1,2.5,2.5S49.9,25,48.5,25z M25,23h23.5
					c0.3,0,0.5-0.2,0.5-0.5S48.8,22,48.5,22H25V23z"/><path fill="#438fd0" d="M33,38v3H11.5c-0.8,0-1.5-0.7-1.5-1.5s0.7-1.5,1.5-1.5H33z"/><path fill="#0f283a" d="M33,42H11.5C10.1,42,9,40.9,9,39.5s1.1-2.5,2.5-2.5H33c0.6,0,1,0.4,1,1v3C34,41.6,33.6,42,33,42z M11.5,39
					c-0.3,0-0.5,0.2-0.5,0.5s0.2,0.5,0.5,0.5H32v-1H11.5z"/><path fill="#438fd0" d="M54,32.6c0,4.7-3.8,8.4-8.5,8.4H39v-3h6.5c3,0,5.4-2.4,5.5-5.4c0-3.1-2.6-5.7-5.7-5.6H11.5
					c-0.8,0-1.5-0.7-1.5-1.5s0.7-1.5,1.5-1.5H18v2l3-2l3,2v-2h21.2C50,24,53.9,27.8,54,32.6z"/><path fill="#0f283a" d="M45.5,42H39c-0.6,0-1-0.4-1-1v-3c0-0.6,0.4-1,1-1h6.5h0c2.4,0,4.4-2,4.5-4.4c0-2.5-2.2-4.6-4.7-4.6H11.5
					C10.1,28,9,26.9,9,25.5s1.1-2.5,2.5-2.5H18c0.6,0,1,0.4,1,1v0.1l1.4-1c0.3-0.2,0.8-0.2,1.1,0l1.4,1V24c0-0.6,0.4-1,1-1h21.2
					c0,0,0,0,0,0c5.3,0,9.6,4.3,9.8,9.5c0,0,0,0,0,0C55,37.8,50.7,42,45.5,42z M40,40h5.5c4.1,0,7.5-3.3,7.5-7.4
					c-0.1-4.2-3.6-7.6-7.8-7.6c0,0,0,0,0,0H25v1h20.3c3.6-0.1,6.7,2.9,6.7,6.6c-0.1,3.5-3,6.4-6.5,6.4c0,0,0,0,0,0H40V40z M19.8,26
					h2.4L21,25.2L19.8,26z M11.5,25c-0.3,0-0.5,0.2-0.5,0.5s0.2,0.5,0.5,0.5H17v-1H11.5z"/><path fill="#fdf2dd" d="M51,32.6c-0.1,3-2.5,5.4-5.5,5.4H39v-4h-6v4H13V27h32.3C48.4,27,51,29.5,51,32.6z"/><path fill="#0f283a" d="M45.5,39C45.5,39,45.5,39,45.5,39H39c-0.6,0-1-0.4-1-1v-3h-4v3c0,0.6-0.4,1-1,1H13c-0.6,0-1-0.4-1-1V27
					c0-0.6,0.4-1,1-1h32.3c3.6-0.1,6.7,2.9,6.7,6.6c0,0,0,0,0,0C51.9,36.2,49,39,45.5,39z M40,37h5.5h0c2.4,0,4.4-2,4.5-4.4
					c0-2.6-2.1-4.7-4.7-4.6H14v9h18v-3c0-0.6,0.4-1,1-1h6c0.6,0,1,0.4,1,1V37z"/><path fill="#61a838" d="M57,55.5c0,0.8-0.7,1.5-1.5,1.5H10c-1.7,0-3-1.3-3-3V44c0-1.7,1.3-3,3-3h23v2l3-2l3,2v-2h16.5
					c0.8,0,1.5,0.7,1.5,1.5S56.3,44,55.5,44H11v10h44.5C56.3,54,57,54.7,57,55.5L57,55.5z"/><path fill="#0f283a" d="M55.5,58H10c-2.2,0-4-1.8-4-4V44c0-2.2,1.8-4,4-4h23c0.6,0,1,0.4,1,1v0.1l1.4-1c0.3-0.2,0.8-0.2,1.1,0
					l1.4,1V41c0-0.6,0.4-1,1-1h16.5c1.4,0,2.5,1.1,2.5,2.5S56.9,45,55.5,45H12v8h43.5c1.4,0,2.5,1.1,2.5,2.5S56.9,58,55.5,58z
					 M10,42c-1.1,0-2,0.9-2,2v10c0,1.1,0.9,2,2,2h45.5c0.3,0,0.5-0.2,0.5-0.5S55.8,55,55.5,55H11c-0.6,0-1-0.4-1-1V44
					c0-0.6,0.4-1,1-1h21v-1H10z M40,43h15.5c0.3,0,0.5-0.2,0.5-0.5S55.8,42,55.5,42H40V43z M34.8,43h2.4L36,42.2L34.8,43z"/><rect width="44" height="10" x="11" y="44" fill="#fdf2dd"/><path fill="#0f283a" d="M55 55H11c-.6 0-1-.4-1-1V44c0-.6.4-1 1-1h44c.6 0 1 .4 1 1v10C56 54.6 55.6 55 55 55zM12 53h42v-8H12V53zM31 18h-7c-.6 0-1-.4-1-1s.4-1 1-1h7c.6 0 1 .4 1 1S31.6 18 31 18zM18 18h-3c-.6 0-1-.4-1-1s.4-1 1-1h3c.6 0 1 .4 1 1S18.6 18 18 18zM46 35h-7c-.6 0-1-.4-1-1s.4-1 1-1h7c.6 0 1 .4 1 1S46.6 35 46 35zM33 35h-4c-.6 0-1-.4-1-1s.4-1 1-1h4c.6 0 1 .4 1 1S33.6 35 33 35z"/><path fill="#0f283a" d="M43 49H15c-.6 0-1-.4-1-1s.4-1 1-1h28c.6 0 1 .4 1 1S43.6 49 43 49zM55 52H38c-.6 0-1-.4-1-1s.4-1 1-1h17c.6 0 1 .4 1 1S55.6 52 55 52zM29 32H13c-.6 0-1-.4-1-1s.4-1 1-1h16c.6 0 1 .4 1 1S29.6 32 29 32zM47 14H30c-.6 0-1-.4-1-1s.4-1 1-1h17c.6 0 1 .4 1 1S47.6 14 47 14z"/><polygon fill="#e32728" points="24 17 24 26 21 24 18 26 18 17"/><path fill="#0f283a" d="M24,27c-0.2,0-0.4-0.1-0.6-0.2L21,25.2l-2.4,1.6c-0.3,0.2-0.7,0.2-1,0C17.2,26.7,17,26.4,17,26v-9
					c0-0.6,0.4-1,1-1h6c0.6,0,1,0.4,1,1v9c0,0.4-0.2,0.7-0.5,0.9C24.3,27,24.2,27,24,27z M21,23c0.2,0,0.4,0.1,0.6,0.2l1.4,1V18h-4
					v6.1l1.4-1C20.6,23.1,20.8,23,21,23z"/><g><polygon fill="#e32728" points="39 34 39 43 36 41 33 43 33 34"/><path fill="#0f283a" d="M39,44c-0.2,0-0.4-0.1-0.6-0.2L36,42.2l-2.4,1.6c-0.3,0.2-0.7,0.2-1,0C32.2,43.7,32,43.4,32,43v-9
					c0-0.6,0.4-1,1-1h6c0.6,0,1,0.4,1,1v9c0,0.4-0.2,0.7-0.5,0.9C39.3,44,39.2,44,39,44z M36,40c0.2,0,0.4,0.1,0.6,0.2l1.4,1V35h-4
					v6.1l1.4-1C35.6,40.1,35.8,40,36,40z"/></g></g></switch></svg>