<?xml version="1.0" encoding="iso-8859-1"?>
<!-- Generator: Adobe Illustrator 19.0.0, SVG Export Plug-In . SVG Version: 6.00 Build 0)  -->
<svg version="1.1" id="Layer_1" xmlns="http://www.w3.org/2000/svg" xmlns:xlink="https://www.w3.org/1999/xlink" x="0px" y="0px"
	 viewBox="0 0 367.666 367.666" style="enable-background:new 0 0 367.666 367.666;" xml:space="preserve">
<g>
	<g>
		<g>
			<path d="M217.175,118.785c4.143,0,7.5-3.357,7.5-7.5v-30.1c0-4.143-3.357-7.5-7.5-7.5H64.976c-4.143,0-7.5,3.357-7.5,7.5v30.1
				c0,4.143,3.357,7.5,7.5,7.5H217.175z M72.476,88.686h137.199v15.1H72.476V88.686z"/>
			<path d="M351.555,322.185v-43.729c8.935-0.313,16.111-7.659,16.111-16.669c0-9.208-7.491-16.699-16.698-16.699H268.15V44.613
				c0-17.921-14.579-32.5-32.5-32.5H32.5c-17.921,0-32.5,14.579-32.5,32.5v270.939c0,17.921,14.579,32.5,32.5,32.5h78.237
				c8.157,4.759,17.63,7.5,27.736,7.5h212.494c9.207,0,16.698-7.491,16.698-16.699C367.666,329.845,360.489,322.498,351.555,322.185
				z M32.5,333.052L32.5,333.052c-9.649,0.001-17.5-7.85-17.5-17.499V44.613c0-9.649,7.851-17.5,17.5-17.5h203.149
				c9.649,0,17.5,7.851,17.5,17.5v200.475h-53.951v-10.962H82.952v15h34.826c-20.229,8.207-34.537,28.056-34.537,51.194
				c0,12.243,4.011,23.565,10.778,32.732H32.5z M350.968,340.553H138.474c-22.185,0-40.232-18.048-40.232-40.232
				c0-22.184,18.048-40.232,40.232-40.232h212.494c0.937,0,1.698,0.763,1.698,1.699c0,0.936-0.762,1.699-1.698,1.699H138.474
				c-20.311,0-36.835,16.523-36.835,36.834c0,20.311,16.524,36.835,36.835,36.835h212.494c0.937,0,1.698,0.762,1.698,1.698
				C352.666,339.791,351.904,340.553,350.968,340.553z M336.555,298.334v3.974H138.216v15h198.339v4.848H138.474
				c-12.04,0-21.835-9.795-21.835-21.835c0-12.039,9.795-21.834,21.835-21.834h198.081v4.847H138.216v15H336.555z"/>
			<rect x="64.976" y="204.792" width="152.199" height="15"/>
		</g>
	</g>
</g>
<g>
</g>
<g>
</g>
<g>
</g>
<g>
</g>
<g>
</g>
<g>
</g>
<g>
</g>
<g>
</g>
<g>
</g>
<g>
</g>
<g>
</g>
<g>
</g>
<g>
</g>
<g>
</g>
<g>
</g>
</svg>
