<svg xmlns="http://www.w3.org/2000/svg" viewBox="0 0 64 64"><path fill="#fff" d="M1,16.58V55.9A5.13,5.13,0,0,0,6.13,61H57.87A5.13,5.13,0,0,0,63,55.9V16.58Z"/><path fill="#4c9ad2" d="M59.58,5.42H4.42A3.42,3.42,0,0,0,1,8.84v8.93H63V8.84A3.42,3.42,0,0,0,59.58,5.42Z"/><rect width="5.33" height="3.72" x="29.56" y="22.8" fill="#f36f5a"/><rect width="5.33" height="3.72" x="36.77" y="22.8" fill="#cfd5e0"/><rect width="5.33" height="3.72" x="43.98" y="22.8" fill="#cfd5e0"/><rect width="5.33" height="3.72" x="51.19" y="22.8" fill="#cfd5e0"/><rect width="5.33" height="3.72" x="15.13" y="29.77" fill="#cfd5e0"/><rect width="5.33" height="3.72" x="7.54" y="29.77" fill="#cfd5e0"/><rect width="5.33" height="3.72" x="22.34" y="29.77" fill="#cfd5e0"/><rect width="5.33" height="3.72" x="29.56" y="29.77" fill="#cfd5e0"/><rect width="5.33" height="3.72" x="36.77" y="29.77" fill="#cfd5e0"/><rect width="5.33" height="3.72" x="43.98" y="29.77" fill="#cfd5e0"/><rect width="5.33" height="3.72" x="51.19" y="29.77" fill="#cfd5e0"/><rect width="5.33" height="3.72" x="15.13" y="36.81" fill="#cfd5e0"/><rect width="5.33" height="3.72" x="7.54" y="36.81" fill="#cfd5e0"/><rect width="5.33" height="3.72" x="22.34" y="36.81" fill="#cfd5e0"/><rect width="5.33" height="3.72" x="29.56" y="36.81" fill="#cfd5e0"/><rect width="5.33" height="3.72" x="36.77" y="36.81" fill="#cfd5e0"/><rect width="5.33" height="3.72" x="43.98" y="36.81" fill="#cfd5e0"/><rect width="5.33" height="3.72" x="51.19" y="36.81" fill="#cfd5e0"/><rect width="5.33" height="3.72" x="15.13" y="43.86" fill="#cfd5e0"/><rect width="5.33" height="3.72" x="7.54" y="43.86" fill="#cfd5e0"/><rect width="5.33" height="3.72" x="22.34" y="43.86" fill="#cfd5e0"/><rect width="5.33" height="3.72" x="29.56" y="43.86" fill="#cfd5e0"/><rect width="5.33" height="3.72" x="36.77" y="43.86" fill="#cfd5e0"/><rect width="5.33" height="3.72" x="43.98" y="43.86" fill="#cfd5e0"/><rect width="5.33" height="3.72" x="51.19" y="43.86" fill="#cfd5e0"/><rect width="5.33" height="3.72" x="15.13" y="50.95" fill="#cfd5e0"/><rect width="5.33" height="3.72" x="7.54" y="50.95" fill="#cfd5e0"/><rect width="5.33" height="3.72" x="22.34" y="50.95" fill="#cfd5e0"/><rect width="5.33" height="3.72" x="29.56" y="50.95" fill="#cfd5e0"/><rect width="5.33" height="3.72" x="36.77" y="50.95" fill="#cfd5e0"/><rect width="5.33" height="3.72" x="43.98" y="50.95" fill="#cfd5e0"/><rect width="5.33" height="3.72" x="51.19" y="50.95" fill="#cfd5e0"/><path fill="#1670b6" d="M14.08,8.74a3.05,3.05,0,1,0,3,3A3.06,3.06,0,0,0,14.08,8.74Z"/><rect width="4.94" height="11.03" x="11.56" y="2.97" fill="#ffcb5c" rx="2.12" ry="2.12"/><path fill="#1670b6" d="M49.79,8.74a3.05,3.05,0,1,0,3,3A3,3,0,0,0,49.79,8.74Z"/><rect width="4.94" height="11.03" x="47.26" y="2.97" fill="#ffcb5c" rx="2.12" ry="2.12"/><rect width="20.79" height="3.85" x="21.41" y="9.85" fill="#56a5d7" rx="1.65" ry="1.65"/></svg>