<svg xmlns="http://www.w3.org/2000/svg" viewBox="0 0 512 512"><g data-name="40.Truck"><path fill="gray" d="M437.82,380.4a56.2351,56.2351,0,1,1-13.97-37.08A56.2194,56.2194,0,0,1,437.82,380.4Z"/><circle cx="381.598" cy="380.402" r="20.335" fill="#fff"/><path fill="gray" d="M186.62,380.4a56.2355,56.2355,0,1,1-13.97-37.08A56.2194,56.2194,0,0,1,186.62,380.4Z"/><circle cx="130.402" cy="380.402" r="20.335" fill="#fff"/><path fill="#e9986b" d="M506,327.17a16.1492,16.1492,0,0,1-16.15,16.15h-66a56.2017,56.2017,0,0,0-84.5,0H172.65a56.2017,56.2017,0,0,0-84.5,0h-66a16.15,16.15,0,1,1,0-32.3h467.7A16.1492,16.1492,0,0,1,506,327.17Z"/><path fill="#eff5f9" d="M284.71,100.87V310.65c0,.12,0,.25-.01.37H23.95c-.01-.12-.01-.25-.01-.37V100.87A25.4935,25.4935,0,0,1,49.43,75.38H259.22A25.4871,25.4871,0,0,1,284.71,100.87Z"/><path fill="#85bc95" d="M182.36,247.3625c19.8632,0,35.9655-10.6143,35.9655-10.6143a74.39,74.39,0,0,0-28.07-10.0734c1.9181-1.7136,3.8461-3.5332,5.7629-5.45,16.4247-16.4247,20.9626-38.5164,20.9626-38.5164s-22.0916,4.538-38.5163,20.9626a130.9973,130.9973,0,0,0-11.9419,13.6454,144.6277,144.6277,0,0,0,2.2054-25.9587c0-26.9533-14.403-48.8032-14.403-48.8032s-14.4031,21.85-14.4031,48.8032a144.6368,144.6368,0,0,0,2.2054,25.9587,130.9855,130.9855,0,0,0-11.9419-13.6454C113.7612,187.2464,91.67,182.7084,91.67,182.7084s4.5379,22.0917,20.9626,38.5164c1.9168,1.9168,3.8448,3.7364,5.763,5.45a74.389,74.389,0,0,0-28.07,10.0734s16.1022,10.6143,35.9654,10.6143c2.1164,0,4.1895-.0545,6.2055-.1579a43.0583,43.0583,0,0,0-6.9489,15.0484S136.469,260.01,144.5889,251.89c1.2931-1.2932,2.4971-2.5965,3.5994-3.8839l-1.3462,15.3686a5.144,5.144,0,0,0,5.1244,5.5928h4.7178a5.144,5.144,0,0,0,5.1243-5.5928l-1.3462-15.3686c1.1023,1.2874,2.3063,2.5907,3.5994,3.8839,8.12,8.12,19.0416,10.3634,19.0416,10.3634a43.06,43.06,0,0,0-6.949-15.0484C178.17,247.308,180.2435,247.3625,182.36,247.3625Z"/><path fill="#ffebb9" d="M486.26,255.11v55.91H284.71V143.56c0-13.21,8.72-23.92,19.47-23.92H415.5c7.02,0,13.5,4.64,16.96,12.15l44.46,96.7,6.83,14.86A28.2749,28.2749,0,0,1,486.26,255.11Z"/><path fill="#eff5f9" d="M442.24,202.36a9.5729,9.5729,0,0,0-13.99,8.49v14.3a23.7206,23.7206,0,0,1-9.95,2.14H352.64a23.9229,23.9229,0,0,1-23.93-23.92V180.64a23.9229,23.9229,0,0,1,23.93-23.92h53.72a23.93,23.93,0,0,1,21.18,12.79l11.94,22.73A23.7572,23.7572,0,0,1,442.24,202.36Z"/><path fill="gray" d="M447.39,210.85v22.42a9.57,9.57,0,0,1-19.14,0V210.85a9.57,9.57,0,0,1,19.14,0Z"/><rect width="19.009" height="53.463" x="325.264" y="229.264" fill="gray" rx="9.504" ry="9.504" transform="rotate(-90 334.768 255.996)"/><ellipse cx="465" cy="274.5" fill="#f17b89" rx="11" ry="14.5"/><path d="M381.6,441.62a61.2133,61.2133,0,1,1,61.22-61.22A61.2893,61.2893,0,0,1,381.6,441.62Zm0-112.44a51.2364,51.2364,0,1,0,38.4956,17.4433A51.2075,51.2075,0,0,0,381.6,329.18Z"/><path d="M381.5981 405.7373a25.335 25.335 0 1 1 25.335-25.335A25.3636 25.3636 0 0 1 381.5981 405.7373zm0-40.67a15.335 15.335 0 1 0 15.335 15.3349A15.3522 15.3522 0 0 0 381.5981 365.0674zM130.4 441.62a61.2133 61.2133 0 1 1 61.22-61.22A61.2893 61.2893 0 0 1 130.4 441.62zm0-112.44A51.2364 51.2364 0 1 0 168.896 346.623 51.2075 51.2075 0 0 0 130.4 329.18z"/><path d="M130.4019 405.7373a25.335 25.335 0 1 1 25.3349-25.335A25.3637 25.3637 0 0 1 130.4019 405.7373zm0-40.67a15.335 15.335 0 1 0 15.3349 15.3349A15.3522 15.3522 0 0 0 130.4019 365.0674zM489.85 348.32h-66a4.9992 4.9992 0 0 1-3.7583-1.7021 51.2 51.2 0 0 0-76.9829 0A5.001 5.001 0 0 1 339.35 348.32H172.65a5.001 5.001 0 0 1-3.7588-1.7021 51.1992 51.1992 0 0 0-76.9824 0A5.001 5.001 0 0 1 88.15 348.32h-66a21.15 21.15 0 0 1 0-42.3008h467.7a21.15 21.15 0 0 1 0 42.3008zm-63.7925-10H489.85a11.15 11.15 0 0 0 0-22.3008H22.15a11.15 11.15 0 0 0 0 22.3008H85.9424a61.2006 61.2006 0 0 1 88.915 0H337.1426a61.2006 61.2006 0 0 1 88.915 0z"/><path d="M284.7,316.02H23.95a5,5,0,0,1-4.9834-4.5918c-.0205-.2509-.0264-.5263-.0264-.7773V100.87A30.5245,30.5245,0,0,1,49.43,70.38H259.22a30.5246,30.5246,0,0,1,30.49,30.49V310.65c0,.2578-.0064.54-.0288.7978A5,5,0,0,1,284.7,316.02Zm-255.76-10H279.71l0-205.1494a20.5132,20.5132,0,0,0-20.49-20.49H49.43a20.513,20.513,0,0,0-20.49,20.49Z"/><path d="M156.6841 273.9668h-4.7178a10.143 10.143 0 0 1-10.105-11.0293l.2256-2.5752a48.0642 48.0642 0 0 1-15.5337 6.7881 5 5 0 0 1-5.9038-5.9033 45.2028 45.2028 0 0 1 3.1026-8.9375c-19.92-.8164-35.4986-10.9385-36.1788-11.3867a5 5 0 0 1 .0005-8.35 78.1147 78.1147 0 0 1 20.4912-8.8662c-16.4472-17.1445-21.1-39.0507-21.2934-39.9931a5 5 0 0 1 5.9038-5.9034c.9624.1973 23.76 5.0381 41.0464 22.3252q.7661.7662 1.5151 1.5362c-.2085-3.375-.3144-6.8291-.3144-10.3145 0-28.13 14.6064-50.6113 15.228-51.5547a5.0005 5.0005 0 0 1 8.35 0c.6216.9434 15.2285 23.4248 15.2285 51.5547 0 3.4844-.1059 6.9395-.3144 10.3145q.7493-.7706 1.5151-1.5362c17.2866-17.2871 40.084-22.1279 41.0464-22.3252a5 5 0 0 1 5.9038 5.9034c-.1939.9424-4.8457 22.8486-21.2935 39.9931a78.1062 78.1062 0 0 1 20.4908 8.8662 5 5 0 0 1 0 8.35c-.68.4482-16.2583 10.57-36.1782 11.3867a45.2 45.2 0 0 1 3.1021 8.9365 5 5 0 0 1-5.9033 5.9043 48.0151 48.0151 0 0 1-15.5337-6.7881l.2256 2.5752a10.1445 10.1445 0 0 1-10.1055 11.0293zM148.19 243.0059a5 5 0 0 1 4.98 5.4365l-1.3462 15.3681a.1441.1441 0 0 0 .1431.1563h4.7178a.1441.1441 0 0 0 .1435-.1572l-1.3462-15.3672a5 5 0 0 1 8.7789-3.6885c1.0424 1.2168 2.165 2.4277 3.3364 3.6a31.6149 31.6149 0 0 0 6.5864 4.9746 34.3175 34.3175 0 0 0-2.06-3.165 5 5 0 0 1 4.2871-7.9522c1.96.1006 3.9615.1514 5.9493.1514a64.4368 64.4368 0 0 0 25.1225-5.6162 68.3822 68.3822 0 0 0-17.893-5.1162 5 5 0 0 1-2.6651-8.6836c1.8833-1.6826 3.7534-3.4512 5.5581-5.2568 9.021-9.0206 14.2422-20.0274 16.9951-27.4776-7.4482 2.752-18.4565 7.9736-27.477 16.9942a125.4815 125.4815 0 0 0-11.4834 13.1181 5 5 0 0 1-8.91-3.9209 140.0152 140.0152 0 0 0 2.1216-25.0459c0-15.89-5.4121-30.0722-9.4033-38.37-3.9907 8.2969-9.4028 22.48-9.4028 38.37a139.9849 139.9849 0 0 0 2.1215 25.0459 5 5 0 0 1-8.91 3.9209A125.4815 125.4815 0 0 0 126.65 207.2061c-9.02-9.0206-20.0274-14.2413-27.4771-16.9942 2.752 7.4483 7.9742 18.457 16.9947 27.4776 1.8051 1.8056 3.6753 3.5742 5.5586 5.2568a5 5 0 0 1-2.6651 8.6836 68.4082 68.4082 0 0 0-17.8935 5.1162 64.4287 64.4287 0 0 0 25.123 5.6162c1.9883 0 3.99-.0508 5.9492-.1514a5 5 0 0 1 4.2871 7.9522 34.2653 34.2653 0 0 0-2.0644 3.1728 31.6955 31.6955 0 0 0 6.59-4.9814c1.1719-1.1719 2.2949-2.3838 3.3379-3.6016A4.999 4.999 0 0 1 148.19 243.0059zM486.26 316.02H284.71a5 5 0 0 1-5-5V143.56c0-15.9463 10.977-28.92 24.47-28.92H415.5c8.9829 0 17.2217 5.77 21.501 15.0586l51.292 111.5635A33.3773 33.3773 0 0 1 491.26 255.11V311.02A5 5 0 0 1 486.26 316.02zm-196.55-10H481.26V255.11a23.3079 23.3079 0 0 0-2.0533-9.6729l-51.29-111.5586c-2.625-5.6973-7.3833-9.2393-12.417-9.2393H304.18c-7.9785 0-14.47 8.4874-14.47 18.92z"/><path d="M418.3 232.29H352.64a28.9579 28.9579 0 0 1-28.93-28.92V180.64a28.958 28.958 0 0 1 28.93-28.92h53.72a28.8476 28.8476 0 0 1 25.6064 15.4639l11.94 22.7314a28.6717 28.6717 0 0 1 3.3291 12.2393 5 5 0 0 1-7.3135 4.6367 4.4855 4.4855 0 0 0-2.1021-.5107 4.5746 4.5746 0 0 0-4.57 4.5693V225.15a5 5 0 0 1-2.9126 4.543A28.608 28.608 0 0 1 418.3 232.29zm-65.66-70.57a18.9464 18.9464 0 0 0-18.93 18.92V203.37a18.9464 18.9464 0 0 0 18.93 18.92H418.3a19.2053 19.2053 0 0 0 4.95-.6347V210.85a14.5924 14.5924 0 0 1 12.6563-14.4443 20.2231 20.2231 0 0 0-.8521-1.8389l-11.94-22.7314A18.8726 18.8726 0 0 0 406.36 161.72zM351.9956 270.5H317.541a14.5044 14.5044 0 1 1 0-29.0088h34.4546a14.5044 14.5044 0 1 1 0 29.0088zM317.541 251.4912a4.5044 4.5044 0 1 0 0 9.0088h34.4546a4.5044 4.5044 0 1 0 0-9.0088z"/><path d="M437.82 247.84a14.5866 14.5866 0 0 1-14.57-14.57V210.85a14.5731 14.5731 0 0 1 21.3076-12.92 14.599 14.599 0 0 1 7.8325 12.92v22.42A14.5867 14.5867 0 0 1 437.82 247.84zm0-41.5595a4.5746 4.5746 0 0 0-4.57 4.5693v22.42a4.57 4.57 0 1 0 9.14 0V210.85a4.5134 4.5134 0 0 0-1.3349-3.2236A4.5261 4.5261 0 0 0 437.82 206.28zM465 294c-8.8223 0-16-8.748-16-19.5s7.1777-19.5 16-19.5 16 8.748 16 19.5S473.8223 294 465 294zm0-29c-2.8379 0-6 3.9014-6 9.5s3.1621 9.5 6 9.5 6-3.9014 6-9.5S467.8379 265 465 265z"/></g></svg>