<svg xmlns="http://www.w3.org/2000/svg" viewBox="0 0 512 512"><g data-name="filled outline"><path fill="#e4e4e2" d="M157.278,408H77.962a18,18,0,0,1-17.916-16.266L37.62,136h160L175.194,391.734A18,18,0,0,1,157.278,408Z"/><path fill="#e4e4e2" d="M182.88,304l-7.69,87.73A17.992,17.992,0,0,1,157.28,408H112V323a19,19,0,0,1,19-19Z"/><rect width="80" height="56" x="77.62" y="408" fill="#029532"/><rect width="16" height="56" x="112" y="408" fill="#027e2a"/><path fill="#cbcbcb" d="M182.88,304l-7.69,87.73A17.992,17.992,0,0,1,157.28,408H112V323a19,19,0,0,1,19-19Z"/><rect width="160" height="32" x="37.62" y="104" fill="#cbcbcb"/><rect width="16" height="32" x="61.62" y="104" fill="#e4e4e2"/><rect width="16" height="32" x="93.62" y="104" fill="#e4e4e2"/><rect width="16" height="32" x="125.62" y="104" fill="#e4e4e2"/><rect width="16" height="32" x="157.62" y="104" fill="#e4e4e2"/><path fill="#027e2a" d="M144.62,304h218a19,19,0,0,1,19,19v45a0,0,0,0,1,0,0h-256a0,0,0,0,1,0,0V323A19,19,0,0,1,144.62,304Z"/><rect width="256" height="96" x="125.62" y="368" fill="#dbdbdb"/><rect width="256" height="16" x="125.62" y="368" fill="#cbcbcb"/><path fill="#45ef6b" d="M357.62,208v48a40,40,0,0,1-40,40,182.315,182.315,0,0,0-128,0,40.015,40.015,0,0,1-40-40V208a40,40,0,0,1,40-40,182.18,182.18,0,0,0,64,11.6,182.18,182.18,0,0,0,64-11.6,40.015,40.015,0,0,1,40,40Z"/><path fill="#02a437" d="M357.62,216v40a40,40,0,0,1-40,40,182.315,182.315,0,0,0-128,0,40.015,40.015,0,0,1-40-40V216a40,40,0,0,1,40-40,182.352,182.352,0,0,0,128,0,40.015,40.015,0,0,1,40,40Z"/><rect width="16" height="16" x="360" y="88" fill="#45ef6b"/><rect width="16" height="16" x="360" y="40" fill="#45ef6b"/><rect width="16" height="16" x="336" y="64" fill="#45ef6b"/><rect width="16" height="16" x="384" y="64" fill="#45ef6b"/><rect width="16" height="16" x="248" y="144" fill="#45ef6b"/><rect width="16" height="16" x="112" y="48" fill="#45ef6b"/><rect width="16" height="16" x="80" y="64" fill="#02a437"/><rect width="16" height="16" x="248" y="112" fill="#45ef6b"/><rect width="16" height="16" x="232" y="128" fill="#45ef6b"/><rect width="16" height="16" x="264" y="128" fill="#45ef6b"/><rect width="16" height="16" x="416" y="208" fill="#45ef6b"/><rect width="16" height="16" x="416" y="176" fill="#02a437"/><rect width="16" height="16" x="400" y="192" fill="#02a437"/><rect width="16" height="16" x="432" y="192" fill="#45ef6b"/><rect width="256" height="16" x="125.62" y="368" fill="#b9b9b9"/><circle cx="382.81" cy="366.81" r="97.19" fill="#e4e4e2"/><path fill="#027e2a" d="M382.81,431.5a8,8,0,0,1-8-8v-32.4a8,8,0,0,1,16,0v32.4A8,8,0,0,1,382.81,431.5Z"/><path fill="#029532" d="M447.6,350.612A58.6,58.6,0,0,0,393,368.392a50.748,50.748,0,0,0,.576-41.265L382.81,302.016l-10.762,25.111a50.748,50.748,0,0,0,.576,41.265,58.6,58.6,0,0,0-54.608-17.78h0l3.051,5.083a58.6,58.6,0,0,0,41.367,27.776,56.7,56.7,0,0,0-22.253,21.534l-6.027,10.4,17.448-4.644a56.748,56.748,0,0,0,31.2-21.352,56.741,56.741,0,0,0,31.433,21.283l17.477,4.533-6.093-10.361a56.712,56.712,0,0,0-22.4-21.4A58.6,58.6,0,0,0,444.553,355.7l3.05-5.083Z"/><path d="M316.448,342.767a8,8,0,0,0-5.292,11.96l3.051,5.085a66.413,66.413,0,0,0,30.417,26.766,64.7,64.7,0,0,0-11.365,14.415l-6.027,10.4a8,8,0,0,0,8.98,11.742l17.447-4.645a64.711,64.711,0,0,0,21.151-10.032V423.5a8,8,0,0,0,16,0v-15.11a64.754,64.754,0,0,0,21.417,10.043l17.477,4.532a8,8,0,0,0,8.9-11.8l-6.094-10.361a64.7,64.7,0,0,0-11.394-14.285,66.422,66.422,0,0,0,30.293-26.711l3.05-5.084a8,8,0,0,0-5.291-11.961,66.917,66.917,0,0,0-43.537,6.14,58.714,58.714,0,0,0-4.71-24.931l-10.762-25.111a8,8,0,0,0-14.706,0L364.7,323.976a58.714,58.714,0,0,0-4.71,24.931A66.919,66.919,0,0,0,316.448,342.767Zm50.289,31.042a8,8,0,0,0,13.151-8.769,42.833,42.833,0,0,1-.487-34.762l3.409-7.953,3.409,7.953a42.829,42.829,0,0,1-.488,34.762,8,8,0,0,0,13.152,8.769,50.91,50.91,0,0,1,34.609-16.246,50.459,50.459,0,0,1-31.494,18,8,8,0,0,0-2.521,14.978,48.805,48.805,0,0,1,14.6,11.793,48.926,48.926,0,0,1-24.832-17.667,8,8,0,0,0-6.44-3.255h-.014a8,8,0,0,0-6.444,3.278A48.92,48.92,0,0,1,351.71,402.4a48.772,48.772,0,0,1,14.51-11.879,8,8,0,0,0-2.572-14.956,50.445,50.445,0,0,1-31.521-18A50.908,50.908,0,0,1,366.737,373.809Z"/><path d="M29.62,104v32c0,.135.013.266.02.4,0,.1,0,.2.01.3L52.083,392.5A25.893,25.893,0,0,0,69.62,414.645V464a8,8,0,0,0,8,8h304c.08,0,.159-.01.239-.012.317,0,.633.012.951.012A105.19,105.19,0,1,0,365.1,263.12a48.405,48.405,0,0,0,.525-7.12V208a48.055,48.055,0,0,0-48-48,7.993,7.993,0,0,0-2.809.51,174.247,174.247,0,0,1-111.629,3.633l2.407-27.444c.009-.1,0-.2.01-.3.007-.133.021-.264.021-.4V104a8,8,0,0,0-8-8h-160A8,8,0,0,0,29.62,104Zm88,352h-32V416h32Zm0-133v77H77.962a9.946,9.946,0,0,1-9.947-8.966L46.352,144H188.887l-1.408,16.054A48.055,48.055,0,0,0,141.62,208v48a47.989,47.989,0,0,0,21.507,40H144.62A27.03,27.03,0,0,0,117.62,323Zm175.441-11a104.476,104.476,0,0,0-15.215,48H133.62V323a11.012,11.012,0,0,1,11-11Zm-74.652-16a174.745,174.745,0,0,1,70.411,0ZM133.62,456V376H278.026a105.294,105.294,0,0,0,49.081,80ZM382.81,277.62a89.19,89.19,0,1,1-89.19,89.19A89.29,89.29,0,0,1,382.81,277.62ZM318.977,176.028A32.04,32.04,0,0,1,349.62,208v48a31.8,31.8,0,0,1-2.241,11.766,105.249,105.249,0,0,0-32.477,18.78,190.576,190.576,0,0,0-126.639,1.426A32.04,32.04,0,0,1,157.62,256V208a32.04,32.04,0,0,1,30.643-31.972A190.249,190.249,0,0,0,318.977,176.028ZM173.62,112h16v16h-16Zm-32,0h16v16h-16Zm-32,0h16v16h-16Zm-32,0h16v16h-16Zm-32,0h16v16h-16Z"/><rect width="16" height="16" x="360" y="88"/><rect width="16" height="16" x="360" y="40"/><rect width="16" height="16" x="336" y="64"/><rect width="16" height="16" x="384" y="64"/><rect width="16" height="16" x="248" y="144"/><rect width="16" height="16" x="112" y="48"/><rect width="16" height="16" x="80" y="64"/><rect width="16" height="16" x="248" y="112"/><rect width="16" height="16" x="232" y="128"/><rect width="16" height="16" x="264" y="128"/><rect width="16" height="16" x="416" y="208"/><rect width="16" height="16" x="416" y="176"/><rect width="16" height="16" x="400" y="192"/><rect width="16" height="16" x="432" y="192"/></g></svg>