<svg xmlns="http://www.w3.org/2000/svg" viewBox="0 0 512 512"><g data-name="4.Store"><path fill="#ffebb9" d="M488.5,221.89V458.51a21.5884,21.5884,0,0,1-21.59,21.59H45.09A21.5884,21.5884,0,0,1,23.5,458.51V221.89a21.1885,21.1885,0,0,0,3,.21H217.41a99.36,99.36,0,0,0,77.18,0H485.5A21.1885,21.1885,0,0,0,488.5,221.89Z"/><path fill="#e9986b" d="M233,387.1032H460a0,0,0,0,1,0,0v22.3333a13.6667,13.6667,0,0,1-13.6667,13.6667H246.6667A13.6667,13.6667,0,0,1,233,409.4365V387.1032A0,0,0,0,1,233,387.1032Z"/><path fill="#eff5f9" d="M265.3364 264.1032H427.6636A32.3364 32.3364 0 0 1 460 296.44v90.6636a0 0 0 0 1 0 0H233a0 0 0 0 1 0 0V296.44A32.3364 32.3364 0 0 1 265.3364 264.1032zM130 260.1032v220H58V271.9365a11.8333 11.8333 0 0 1 11.8333-11.8333zM202 271.9365V480.1032H130v-220h60.1667A11.8333 11.8333 0 0 1 202 271.9365z"/><path fill="#cfdce5" d="M217.41 222.1H26.5a21.1885 21.1885 0 0 1-3-.21 21.5013 21.5013 0 0 1 0-42.58 21.1885 21.1885 0 0 1 3-.21H169.52c.33.6.67 1.19 1.02 1.78.28.49.57.96.85 1.44.78 1.28 1.59 2.53 2.42 3.77.3.46.61.91.94 1.37.01.01.02.03.03.04q2.1745 3.135 4.59 6.08c.34.41.67.81 1.02 1.21.14.17.28.34.43.51.19.23.38.46.59.68.36.42.73.84 1.11 1.25.16.18.32.35.48.53.03.03.06.07.09.1.41.46.83.89 1.25 1.34.54.58 1.1 1.14 1.66 1.7s1.12 1.12 1.7 1.66q.8547.825 1.74 1.62c.55.5 1.1 1 1.66 1.48.09.08.18.16.27.24.57.5 1.15.98 1.74 1.46.58.48 1.17.96 1.77 1.42.62.5 1.25.98 1.89 1.45.63.48 1.27.94 1.92 1.4.33.23.65.46.98.69s.65.45.98.67c.66.45 1.32.89 1.99 1.31.17.11.35.22.52.33.47.3.95.6 1.43.89.32.2.64.39.96.58.39.23.78.46 1.17.68.34.2.68.39 1.02.58.31.17.62.35.94.52 1.61.88 3.25 1.72 4.91 2.5.55.26 1.11.52 1.67.77.31.14.61.28.92.41Q216.7946 221.845 217.41 222.1zM507 200.6a21.5126 21.5126 0 0 1-18.5 21.29 21.1885 21.1885 0 0 1-3 .21H294.59c.72-.31 1.44-.62 2.15-.95.56-.25 1.12-.51 1.67-.77.12-.06.24-.11.36-.17.93-.44 1.84-.9 2.75-1.38.52-.26 1.04-.53 1.55-.81.06-.03.11-.06.16-.09.69-.37 1.37-.76 2.05-1.15.39-.22.78-.45 1.17-.68.32-.19.64-.38.96-.58.48-.29.96-.59 1.43-.89.18-.11.35-.22.52-.33.67-.42 1.33-.86 1.99-1.31.66-.44 1.32-.9 1.96-1.36.65-.46 1.29-.92 1.92-1.4.64-.47 1.27-.95 1.89-1.45.6-.46 1.18-.94 1.77-1.42s1.17-.96 1.74-1.46q.1354-.12.27-.24c.56-.48 1.11-.98 1.66-1.48q.8847-.795 1.74-1.62c.58-.54 1.14-1.1 1.7-1.66s1.12-1.12 1.66-1.7c.42-.44.84-.89 1.25-1.34.09-.09.18-.19.27-.29.1-.11.2-.22.3-.34.38-.41.75-.83 1.11-1.25.21-.22.4-.45.59-.68a.6454.6454 0 0 0 .11-.13c.46-.52.9-1.06 1.34-1.59 0-.01 0-.01.01-.02.35-.43.7-.86 1.04-1.29 1.22-1.53 2.38-3.1 3.5-4.71.02-.03.05-.07.07-.1.32-.45.63-.9.94-1.37.78-1.16 1.54-2.34 2.27-3.53.05-.08.1-.16.15-.24.28-.48.57-.95.85-1.44.35-.59.69-1.18 1.02-1.78H485.5a21.1885 21.1885 0 0 1 3 .21A21.51 21.51 0 0 1 507 200.6z"/><path fill="#ffebb9" d="M488.5 143.69v35.62a21.1885 21.1885 0 0 0-3-.21H342.48A98.3926 98.3926 0 0 0 355 130.9q0-4.455-.39-8.8h112.3A21.5948 21.5948 0 0 1 488.5 143.69zM169.52 179.1H26.5a21.1885 21.1885 0 0 0-3 .21V143.69A21.5948 21.5948 0 0 1 45.09 122.1h112.3q-.39 4.35-.39 8.8A98.3926 98.3926 0 0 0 169.52 179.1z"/><path fill="#eff5f9" d="M355,130.9a98.3926,98.3926,0,0,1-12.52,48.2c-.33.6-.67,1.19-1.02,1.78-.28.49-.57.96-.85,1.44-.78,1.28-1.59,2.53-2.42,3.77-.32.48-.64.95-.97,1.41q-2.1753,3.135-4.59,6.08c-.48.58-.96,1.15-1.45,1.72-.7.83-1.43,1.65-2.18,2.46-.44.49-.89.96-1.34,1.44-.55.57-1.1,1.14-1.66,1.7s-1.13,1.11-1.7,1.66-1.15,1.09-1.74,1.62c-.64.58-1.28,1.15-1.93,1.72-.58.49-1.16.98-1.74,1.46-.89.74-1.8,1.45-2.71,2.15-.31.25-.63.49-.95.72-.63.48-1.27.94-1.92,1.4-.33.23-.65.46-.98.69s-.65.45-.98.67q-.4952.345-.99.66c-.5.33-1.01.66-1.52.98-.47.3-.95.6-1.43.89q-1.05.645-2.13,1.26c-.65.37-1.3.74-1.9605,1.1-2.15,1.17-4.34,2.27-6.58,3.27-.31.14-.61.28-.92.41q-.6144.285-1.23.54a99.36,99.36,0,0,1-77.18,0q-.6153-.255-1.23-.54c-.31-.13-.61-.27-.92-.41-.56-.25-1.12-.51-1.67-.77-1.66-.78-3.3-1.62-4.91-2.5-.32-.17-.63-.35-.94-.52-.34-.19-.68-.39-1.02-.58q-1.08-.615-2.13-1.26c-.48-.29-.96-.59-1.43-.89-.17-.11-.35-.22-.52-.33-.34-.22-.67-.43-1-.65q-.495-.315-.99-.66c-.33-.22-.65-.44-.98-.67s-.65-.46-.98-.69c-.65-.46-1.29-.92-1.92-1.4-.32-.23-.64-.47-.95-.72-.31-.24-.63-.49-.94-.73-.6-.46-1.19-.94-1.77-1.42-.59-.48-1.17-.96-1.74-1.46-.09-.08-.18-.16-.27-.24-.56-.49-1.11-.98-1.66-1.48q-.8847-.795-1.74-1.62c-.57-.55-1.14-1.1-1.7-1.66s-1.11-1.13-1.66-1.7c-.42-.45-.84-.88-1.25-1.34-.03-.03-.0595-.07-.09-.1-.16-.18-.32-.35-.48-.53-.38-.41-.75-.83-1.11-1.25-.2-.23-.4-.45-.59-.68-.15-.17-.2895-.34-.43-.51-.35-.4-.68-.8-1.02-1.21q-2.4154-2.94-4.59-6.08c-.01-.01-.02-.03-.03-.04-.32-.45-.63-.9-.94-1.37-.83-1.24-1.64-2.49-2.42-3.77-.28-.48-.57-.95-.85-1.44-.35-.59-.69-1.18-1.02-1.78A98.3926,98.3926,0,0,1,157,130.9q0-4.455.39-8.8a99.002,99.002,0,0,1,197.22,0Q355,126.45,355,130.9Z"/><path fill="#85bc95" d="M284.0345,172.4986c19.8633,0,35.9655-10.6143,35.9655-10.6143a74.389,74.389,0,0,0-28.07-10.0734c1.9182-1.7137,3.8462-3.5332,5.763-5.45,16.4247-16.4247,20.9626-38.5164,20.9626-38.5164s-22.0916,4.5379-38.5164,20.9626a130.9854,130.9854,0,0,0-11.9418,13.6454,144.6377,144.6377,0,0,0,2.2054-25.9587C270.4031,89.5405,256,67.6905,256,67.6905s-14.4031,21.85-14.4031,48.8033a144.6377,144.6377,0,0,0,2.2054,25.9587,130.9854,130.9854,0,0,0-11.9418-13.6454c-16.4246-16.4247-38.5164-20.9626-38.5164-20.9626s4.5379,22.0917,20.9626,38.5164c1.9168,1.9168,3.8448,3.7363,5.763,5.45A74.389,74.389,0,0,0,192,161.8843s16.1022,10.6143,35.9655,10.6143c2.1163,0,4.19-.0545,6.2055-.158a43.0584,43.0584,0,0,0-6.949,15.0485s10.9216-2.2435,19.0415-10.3635c1.2932-1.2932,2.4972-2.5964,3.5994-3.8838L248.5168,188.51a5.1439,5.1439,0,0,0,5.1243,5.5929h4.7178a5.1439,5.1439,0,0,0,5.1243-5.5929l-1.3461-15.3685c1.1022,1.2873,2.3062,2.5906,3.5994,3.8838,8.12,8.12,19.0415,10.3635,19.0415,10.3635a43.0584,43.0584,0,0,0-6.949-15.0485C279.845,172.4441,281.9182,172.4986,284.0345,172.4986Z"/><path d="M466.91,485.1H45.09A26.62,26.62,0,0,1,18.5,458.51V221.89a5,5,0,0,1,5.71-4.9492,16.208,16.208,0,0,0,2.29.1592H217.41a5.0059,5.0059,0,0,1,1.9491.3955,94.35,94.35,0,0,0,73.2814,0A5.0059,5.0059,0,0,1,294.59,217.1H485.5a16.2059,16.2059,0,0,0,2.29-.1592,5,5,0,0,1,5.71,4.9492V458.51A26.62,26.62,0,0,1,466.91,485.1ZM28.5,227.1V458.51A16.6087,16.6087,0,0,0,45.09,475.1H466.91a16.6087,16.6087,0,0,0,16.59-16.59V227.1H295.5917a104.371,104.371,0,0,1-79.1834,0Z"/><path d="M446.3333,428.1035H246.6666A18.688,18.688,0,0,1,228,409.4365v-22.333a5,5,0,0,1,5-5H460a5,5,0,0,1,5,5v22.333A18.688,18.688,0,0,1,446.3333,428.1035ZM238,392.1035v17.333a8.6764,8.6764,0,0,0,8.6666,8.667H446.3333A8.6765,8.6765,0,0,0,455,409.4365v-17.333Z"/><path d="M460 392.1035H233a5 5 0 0 1-5-5V296.44a37.3785 37.3785 0 0 1 37.3363-37.336H427.6636A37.3786 37.3786 0 0 1 465 296.44v90.664A5 5 0 0 1 460 392.1035zm-222-10H455V296.44a27.3671 27.3671 0 0 0-27.3364-27.336H265.3363A27.3669 27.3669 0 0 0 238 296.44zM130 485.1035H58a5 5 0 0 1-5-5V271.9365a16.852 16.852 0 0 1 16.8334-16.833H130a5 5 0 0 1 5 5v220A5 5 0 0 1 130 485.1035zm-67-10h62v-210H69.8334A6.841 6.841 0 0 0 63 271.9365z"/><path d="M202 485.1035H130a5 5 0 0 1-5-5v-220a5 5 0 0 1 5-5h60.1666A16.852 16.852 0 0 1 207 271.9365v208.167A5 5 0 0 1 202 485.1035zm-67-10h62V271.9365a6.841 6.841 0 0 0-6.8334-6.833H135zM217.41 227.1H26.5a26.2356 26.2356 0 0 1-3.71-.2607 26.501 26.501 0 0 1 .021-52.481A26.1727 26.1727 0 0 1 26.5 174.1H169.52a5 5 0 0 1 4.381 2.59c.3037.5523.6166 1.0948.9387 1.6372.19.3321.3408.5835.4907.8345l.3775.6362c.6218 1.02 1.3756 2.1934 2.2568 3.51.2815.4312.54.8066.8125 1.188.0381.05.0752.102.1113.1538 1.3829 1.9937 2.8447 3.93 4.3449 5.7559.3373.4072.62.749.9187 1.0908.0323.0371.0642.0742.0955.1123.118.1431.2161.2632.3217.3833.0359.0405.0711.082.1057.1235.1148.1392.227.2808.3539.4141q.0917.096.1779.1968c.3183.3711.6455.7431.9816 1.1059.0231.0249.046.05.0687.0757l.4754.5249.0527.0586.0365.04c.24.2691.4846.5264.73.7857l.4447.4717c.4956.5322 1.0083 1.0439 1.52 1.5561.5359.5356 1.0536 1.0542 1.5906 1.5542.5934.5723 1.1283 1.07 1.6721 1.5581.5547.5039 1.0607.9649 1.5764 1.4072l.3413.3028c.4948.4336 1.0285.874 1.5707 1.3154.5613.4639 1.1039.9062 1.6554 1.33.0321.0244.0638.0488.0952.0742.5621.4531 1.1334.8877 1.7138 1.3144.65.4942 1.244.92 1.8463 1.3467l.9539.6719c.2967.2061.592.4092.8968.6133.6445.4394 1.251.8437 1.8666 1.23l.5877.373c.4.2549.843.5332 1.286.8.3567.2217.6429.3916.9286.5616.3581.2109.721.4248 1.0841.6308.3626.2119.6494.3721.9364.5332l.42.2334c.16.09.3207.1807.485.2676q2.4474 1.3374 4.6939 2.3926c.5261.248 1.0543.4941 1.5821.73l.2465.1123c.1889.0849.3751.1709.5663.2509.059.0245.1176.05.1757.0772q.5177.24 1.0361.4551A5 5 0 0 1 217.41 227.1zM26.5 184.1A16.5086 16.5086 0 0 0 10 200.6a16.542 16.542 0 0 0 14.1868 16.3379A16.3518 16.3518 0 0 0 26.5 217.1H197.8007c-.3085-.206-.6416-.4355-.985-.6738l-.9882-.6963c-.7235-.5117-1.41-1.0059-2.086-1.52-.6191-.4541-1.2907-.9658-1.9538-1.499-.631-.4854-1.2527-.9912-1.8634-1.4961-.61-.4961-1.2362-1.0147-1.8519-1.5557l-.2992-.2656c-.5161-.4414-1.0935-.9649-1.6707-1.4893q-.9567-.86-1.8773-1.749c-.5552-.5156-1.1576-1.1152-1.7593-1.7168-.6178-.6182-1.2111-1.2139-1.7843-1.8291l-.3917-.415c-.3135-.3321-.6249-.6612-.9319-1.0059l-.0538-.06c-.0123-.0127-.0247-.0264-.0367-.04l-.4248-.4687c-.3941-.4258-.779-.8614-1.1539-1.2969-.2364-.2549-.4581-.5161-.6765-.78-.15-.1719-.2927-.3437-.4347-.5156-.3408-.3911-.6657-.7827-.9972-1.1826-.0042-.0054-.0693-.084-.0736-.0889-1.6522-2.0112-3.2605-4.1392-4.7813-6.3272l-.0378-.0522c-.3746-.522-.7262-1.0327-1.0664-1.5547-.9276-1.3848-1.7569-2.6772-2.5014-3.8994l-.3733-.6289-.1145-.1919zM485.5 227.1H294.59a5 5 0 0 1-1.9744-9.5937c.6754-.29 1.3512-.58 2.0169-.89.5962-.2666 1.1244-.5127 1.6435-.7578l.2237-.1055c.0271-.0136.1034-.0488.1307-.0625.8658-.4091 1.7122-.8379 2.5594-1.2841.0318-.0167.0638-.0333.096-.0489.4615-.23.923-.4707 1.3753-.72.0168-.0088.0337-.0176.0506-.0273.0525-.03.1076-.0616.1548-.087.6491-.3476 1.2887-.7148 1.9286-1.082.3845-.2178.7483-.4316 1.1122-.6465.2806-.167.5668-.3369.853-.5156.5135-.31.9562-.5879 1.39-.8643.22-.1357.3534-.2216.4868-.3086.6847-.43 1.29-.8339 1.8965-1.247.6528-.4365 1.2654-.8633 1.8594-1.29.6314-.4472 1.2251-.873 1.8089-1.3173.6469-.4766 1.2182-.9112 1.78-1.3643l.0967-.0762c.4356-.334.8591-.68 1.2854-1.0273l.374-.3047c.5367-.4375 1.07-.8779 1.5944-1.3369l.2408-.2149c.587-.5048 1.093-.9658 1.6-1.4257.5919-.5318 1.1268-1.03 1.6522-1.5376.605-.5645 1.1227-1.0831 1.6411-1.6011.53-.53 1.0423-1.0415 1.5361-1.5718.4333-.4546.8273-.8765 1.2121-1.2988q.0782-.0864.1605-.1685l.08-.0888c.0813-.0894.1333-.1446.1847-.2061q.0837-.1011.1727-.1968c.3361-.3628.6633-.7348.9816-1.1059q.0863-.1011.1779-.1968c.1269-.1333.2391-.2749.3539-.4141q.0459-.0557.0935-.11c.0411-.05.0832-.1.1263-.1485.337-.3808.6614-.7744.9841-1.1645l.1289-.1558c.0341-.0449.069-.0893.1045-.1328l0-.0005c.3356-.4121.6708-.8237.9968-1.2358 1.1211-1.4063 2.2023-2.8614 3.317-4.4634.02-.0288.04-.0571.0556-.08.0139-.02.028-.0405.0423-.06.2865-.4034.5642-.8062.8419-1.2271q1.1606-1.7256 2.1823-3.3921l.4716-.7832c.15-.251.3-.5024.4478-.7607.365-.6162.6779-1.1587.9816-1.711a5 5 0 0 1 4.381-2.59H485.5a26.2574 26.2574 0 0 1 3.7078.26A26.5959 26.5959 0 0 1 512 200.6a26.4986 26.4986 0 0 1-26.5 26.5zm-171.3-10H485.5A16.51 16.51 0 0 0 502 200.6a16.5569 16.5569 0 0 0-14.1919-16.3379A16.3477 16.3477 0 0 0 485.5 184.1H345.3679c-.0378.0635-.0762.1279-.1145.1919l-.3258.5493q-.0351.06-.0719.1191l-.15.24c-.74 1.206-1.5419 2.4531-2.3674 3.68-.3134.4755-.6519.9672-1.0012 1.4589l-.0379.0547-.0149.021c-1.24 1.7827-2.4486 3.4087-3.6948 4.9717-.3042.3848-.6254.7808-.9487 1.1782-.0529.0708-.1076.1407-.1645.209l-.2428.293c-.3485.4214-.7.8447-1.0606 1.2583-.0714.0908-.1615.2-.2705.3183-.191.2286-.3855.4556-.5913.6773-.3529.41-.7149.82-1.085 1.2217-.1167.1367-.2328.2656-.35.3945-.1083.12-.2189.24-.3292.3545-.4168.457-.8423.9121-1.268 1.3584-.5337.5732-1.127 1.1689-1.7214 1.7637-.6251.625-1.2275 1.2246-1.8507 1.8047-.5463.5292-1.1715 1.1113-1.8074 1.6826-.5791.5263-1.1565 1.05-1.7439 1.5537l-.2088.1865c-.6348.5576-1.2613 1.0762-1.8987 1.5957l-.3636.2959c-.4888.3984-.9754.7949-1.4741 1.1787-.6626.5322-1.3349 1.044-2.0183 1.5469-.61.4648-1.296.959-1.9935 1.4521C315.5641 216.167 314.8824 216.6426 314.2 217.1zm-13.322-3.5742l-.005.0029zM331.29 195.17h0zm-4.08-2.8916l-.0069.01zm.8294-.8691l-.0029.0024zm.0076-.0064l-.0057.0044z"/><path d="M488.5 184.31a5.0072 5.0072 0 0 1-.708-.05 16.2394 16.2394 0 0 0-2.2922-.16H342.48a5 5 0 0 1-4.3633-7.4419A93.8849 93.8849 0 0 0 350 130.9c0-2.8061-.1245-5.6162-.37-8.353a5 5 0 0 1 4.98-5.4468h112.3a26.62 26.62 0 0 1 26.59 26.59v35.62a5.0006 5.0006 0 0 1-5 5zM350.6167 174.1H483.5V143.69a16.6087 16.6087 0 0 0-16.59-16.59H359.9312q.0686 1.8963.0688 3.8A104.1144 104.1144 0 0 1 350.6167 174.1zM23.5 184.31a5 5 0 0 1-5-5V143.69A26.62 26.62 0 0 1 45.09 117.1h112.3a5 5 0 0 1 4.98 5.4468c-.2456 2.7368-.37 5.5469-.37 8.353a93.8849 93.8849 0 0 0 11.8833 45.7583A5 5 0 0 1 169.52 184.1H26.5a16.2373 16.2373 0 0 0-2.2922.16A5.0079 5.0079 0 0 1 23.5 184.31zm5-10.21H161.3833A104.1144 104.1144 0 0 1 152 130.9q0-1.9006.0688-3.8H45.09A16.6087 16.6087 0 0 0 28.5 143.69z"/><path d="M256,234.9a103.4252,103.4252,0,0,1-40.5389-8.1963c-.4141-.1719-.8595-.3662-1.3063-.5723-.249-.1064-.4939-.2168-.7413-.3291l-.2071-.0937c-.5775-.2578-1.1694-.5332-1.751-.8076-1.6767-.7881-3.42-1.6758-5.1732-2.6338-.1782-.0947-.407-.2217-.6335-.3487l-1.3631-.7714c-.809-.461-1.5673-.9092-2.3153-1.3692-.477-.2871-.9942-.61-1.5-.9336l-.7712-.4922c-.2658-.1709-.5267-.3388-.7876-.5127q-.5579-.356-1.1156-.7441c-.28-.1865-.6247-.4228-.98-.67l-.9882-.6963c-.7049-.499-1.3749-.9805-2.034-1.4815-.3747-.27-.7489-.5527-1.1121-.8457l-.8561-.664c-.6363-.4873-1.2744-1.0059-1.901-1.5244-.61-.4961-1.2362-1.0147-1.8519-1.5547l-.2992-.2666c-.55-.48-1.1224-.9912-1.6956-1.5127-.6129-.55-1.2381-1.1319-1.8524-1.7256-.587-.5654-1.1781-1.1357-1.7593-1.7168-.5692-.57-1.1254-1.1455-1.6818-1.7217-.02-.02-.0809-.084-.1006-.1054l-.3936-.418c-.3135-.3311-.6249-.66-.9319-1.0049l-.0529-.06-.0376-.041-.4248-.4687c-.4206-.4551-.8306-.9195-1.2292-1.3848l-.1407-.16c-.1547-.1753-.3073-.3491-.4557-.5268-.1516-.1739-.296-.3472-.44-.521-.3408-.3911-.6657-.7827-.9972-1.1826-.0042-.0054-.0693-.084-.0736-.0889-1.6521-2.0107-3.26-4.1392-4.781-6.3272q-.0262-.0351-.052-.0717c-.3532-.4971-.6955-.9937-1.0379-1.5132-.9422-1.4068-1.7715-2.6992-2.516-3.9214l-.3733-.6289c-.184-.3081-.3684-.6172-.5491-.9336-.3352-.5635-.702-1.2007-1.0585-1.8486A103.875,103.875,0,0,1,152,130.9c0-3.103.1379-6.2144.41-9.2466a104.0018,104.0018,0,0,1,207.18.0083c.2715,3.0239.4094,6.1353.4094,9.2383a103.9122,103.9122,0,0,1-13.1567,50.6421c-.3388.6157-.7056,1.2529-1.0837,1.89-.1378.2427-.3222.5518-.5062.86l-.3258.5493c-.792,1.3018-1.6213,2.5942-2.583,4.03-.3453.5185-.6977,1.0351-1.06,1.5405-1.4943,2.1548-3.121,4.3091-4.7913,6.3423-.511.6172-1.011,1.2109-1.521,1.8047-.6869.8144-1.4722,1.7007-2.3042,2.5991-.2975.332-.6538.7109-1.0119,1.0908l-.3454.3682c-.0179.0185-.0767.08-.0948.0986-.5564.5762-1.1126,1.1514-1.6788,1.7188-.5842.584-1.1753,1.1543-1.7671,1.7246q-.9142.8832-1.8706,1.7422c-.6422.582-1.3021,1.17-1.973,1.7588l-.2811.2382c-.522.44-1.0437.88-1.5657,1.3125-.9606.7979-1.9164,1.542-2.8075,2.2286-.3486.2793-.707.55-1.0657.8085-.659.501-1.3283.9825-2.0079,1.4629l-1.006.709c-.3635.253-.7079.4893-1.0632.7266-.3119.2178-.6989.4765-1.0858.7226-.4606.3047-1.0027.6553-1.5453.9952-.4743.3037-.9915.6269-1.5085.9384-.7076.4356-1.4655.8838-2.2338,1.3213-.6786.3867-1.3543.77-2.04,1.1446-2.4144,1.3134-4.6814,2.44-6.9368,3.4472l-.1922.0869c-.2474.1123-.4923.2227-.7414.3291q-.67.3091-1.3416.587A103.3737,103.3737,0,0,1,256,234.9Zm-69.2141-40.4082.0358.04c.24.2691.4846.5264.73.7857l.4447.4717c.4982.5151,1.0147,1.05,1.5409,1.5766.5359.5357,1.0845,1.0645,1.6333,1.5938q.7953.7683,1.6089,1.498c.55.5,1.0773.97,1.614,1.44l.3037.27c.4948.4336,1.0285.874,1.5707,1.3154.5613.4639,1.1039.9062,1.6554,1.33l.9591.7441c.3157.2529.5637.4385.811.6162.0354.0254.0706.0518.1054.0782.5837.4443,1.1775.87,1.78,1.2968l.9539.6719c.2967.2061.592.4092.8968.6133.3482.2412.6214.4238.8946.5976.0292.0186.0583.0372.0871.0567.2321.1543.4642.3037.7005.456l.7721.4922c.4.2549.843.5332,1.286.8.6924.4258,1.354.8174,2.0252,1.1992l1.3437.76c.16.09.3207.1807.485.2676q2.4474,1.3374,4.6939,2.3926c.5261.248,1.0543.4941,1.5821.73l.2466.1123c.1888.0849.375.1709.5662.2509.059.0245.1176.05.1757.0772q.5177.24,1.0361.4551a94.3519,94.3519,0,0,0,73.3168.0146c.3809-.1582.7264-.31,1.0715-.47.0581-.0274.1167-.0527.1757-.0772.1912-.08.3774-.166.5662-.2509l.2328-.1055c2.029-.9063,4.0663-1.9189,6.243-3.1035.6284-.3438,1.2526-.6983,1.8774-1.0537q1.0027-.5713,1.9833-1.1739c.483-.291.9257-.5693,1.3592-.8457.51-.32.987-.6279,1.4554-.9375.3443-.22.6175-.4023.8906-.5927.38-.2549.6752-.458.98-.67l.9718-.6845c.5763-.4082,1.17-.834,1.7538-1.2783.0348-.0264.07-.0528.1054-.0782.2473-.1777.4953-.3633.7349-.5566.0293-.0234.0589-.0469.0887-.0693.8609-.6631,1.7227-1.334,2.5653-2.0342.5039-.417,1.0023-.8379,1.501-1.2588l.21-.1768c.557-.4892,1.1763-1.042,1.7963-1.6035.5619-.5044,1.0968-1.0024,1.6222-1.51.5536-.5337,1.1022-1.0625,1.6411-1.6011.5232-.5235,1.04-1.0586,1.5567-1.5943l.3537-.3754c.3031-.3223.6055-.6426.9024-.9732.7806-.8437,1.4624-1.6128,2.08-2.3442.4994-.5816.9593-1.1275,1.4194-1.6836,1.4883-1.8115,2.95-3.7481,4.3347-5.7432.34-.4761.6286-.9.9167-1.332.8874-1.3257,1.6412-2.4995,2.31-3.5986l.33-.5567c.15-.251.3006-.5024.4478-.7607.365-.6162.6779-1.1587.9816-1.711A93.9245,93.9245,0,0,0,350,130.9c0-2.8061-.1245-5.6162-.37-8.353C345.4028,74.5166,304.276,36.9,256,36.9s-89.4028,37.6167-93.6292,85.6387c-.2463,2.7451-.3708,5.5552-.3708,8.3613a93.8871,93.8871,0,0,0,11.8833,45.7583c.3214.5845.6343,1.127.9564,1.6694.19.3321.3408.5835.4907.8345l.3775.6362c.6218,1.02,1.3756,2.1934,2.2568,3.51.2832.4292.5488.8149.8209,1.1992.0352.0469.07.0948.1029.1426,1.3829,1.9937,2.8447,3.93,4.3449,5.7559.3373.4072.62.749.9187,1.0908.0323.0371.0642.0742.0955.1123.118.1431.2161.2632.3217.3833.0359.0405.0711.082.1057.1235.0959.1162.1961.2285.2966.3423l.21.2393c.3436.4.6708.7724,1.0069,1.1352.0231.0249.046.05.0687.0757l.4754.5249Z"/><path d="M258.3589,199.103h-4.7178a10.1438,10.1438,0,0,1-10.1053-11.0288l.2256-2.5757a48.0615,48.0615,0,0,1-15.5333,6.7886,5,5,0,0,1-5.9038-5.9043,45.1806,45.1806,0,0,1,3.1022-8.9365c-19.92-.8174-35.4984-10.939-36.1783-11.3872a5,5,0,0,1,0-8.35,78.07,78.07,0,0,1,20.491-8.8667c-16.4475-17.1441-21.1-39.0493-21.2931-39.9922a5,5,0,0,1,5.9037-5.9038c.962.1977,23.76,5.0381,41.0459,22.3247q.7665.7668,1.5153,1.5371c-.2082-3.3755-.3144-6.83-.3144-10.3149,0-28.1294,14.6067-50.6119,15.2284-51.5552a5,5,0,0,1,8.3494,0c.6217.9433,15.2284,23.4258,15.2284,51.5552,0,3.4848-.1062,6.9394-.3144,10.3149q.7494-.7713,1.5154-1.5371c17.2863-17.2866,40.0838-22.127,41.0458-22.3247a5,5,0,0,1,5.9037,5.9038c-.1936.9429-4.8455,22.8481-21.2931,39.9922a78.07,78.07,0,0,1,20.491,8.8667,5,5,0,0,1,0,8.35c-.68.4482-16.2584,10.57-36.1783,11.3872a45.1806,45.1806,0,0,1,3.1022,8.9365,5,5,0,0,1-5.9038,5.9043,48.0717,48.0717,0,0,1-15.5333-6.7886l.2256,2.5752a10.1439,10.1439,0,0,1-10.1053,11.0293Zm-8.4945-30.9619a5.0011,5.0011,0,0,1,4.98,5.437l-1.3462,15.3687a.1439.1439,0,0,0,.1434.1562h4.7178a.144.144,0,0,0,.1434-.1567l-1.3462-15.3682a5,5,0,0,1,8.7792-3.688c1.0392,1.2134,2.1619,2.4253,3.3372,3.6006a31.6652,31.6652,0,0,0,6.59,4.981,34.3856,34.3856,0,0,0-2.0638-3.1724,5,5,0,0,1,4.2871-7.9521c1.9531.1006,3.9546.1513,5.9491.1513a64.4375,64.4375,0,0,0,25.1227-5.6162,68.3686,68.3686,0,0,0-17.8935-5.1157,5,5,0,0,1-2.6647-8.6841c1.8806-1.68,3.7507-3.4492,5.5585-5.2568,9.0206-9.02,14.2419-20.0278,16.9944-27.4771-7.448,2.752-18.4565,7.9737-27.4769,16.9942A125.3118,125.3118,0,0,0,272.1918,145.46a5,5,0,0,1-8.91-3.9208,140.0331,140.0331,0,0,0,2.1214-25.0459c0-15.9571-5.4057-30.1124-9.3957-38.3868-3.9913,8.295-9.4105,22.4854-9.4105,38.3868a140.0331,140.0331,0,0,0,2.1214,25.0459,5,5,0,0,1-8.91,3.9208,125.3221,125.3221,0,0,0-11.4831-13.1176c-9.02-9.0205-20.0275-14.2417-27.4772-16.9942,2.7521,7.4478,7.974,18.4561,16.9944,27.4766,1.808,1.8081,3.6781,3.5771,5.5587,5.2573a5,5,0,0,1-2.6647,8.6841,68.2876,68.2876,0,0,0-17.9092,5.1094,64.4567,64.4567,0,0,0,25.1384,5.6225c1.9945,0,3.996-.0507,5.9491-.1513a5,5,0,0,1,4.2871,7.9521,34.3832,34.3832,0,0,0-2.063,3.1719,31.6741,31.6741,0,0,0,6.5893-4.981c1.1748-1.1748,2.2975-2.3867,3.3367-3.6A4.999,4.999,0,0,1,249.8644,168.1411Z"/></g></svg>