<svg xmlns="http://www.w3.org/2000/svg" viewBox="0 0 64 64"><g data-name="Layer 31"><rect width="58" height="18" x="3" y="37" fill="#a7d0e1"/><path fill="#80bbce" d="M61,37H3V55H61V52H20A13.989,13.989,0,0,1,6.446,41.459,2,2,0,0,1,8.4,39H61Z"/><rect width="62" height="4" x="1" y="33" fill="#7a838b" rx="2"/><path fill="#5d6972" d="M4,35a2,2,0,0,1,2-2H3a2,2,0,0,0,0,4H6A2,2,0,0,1,4,35Z"/><rect width="12" height="11" x="7" y="22" fill="#f8c460" rx="2"/><path fill="#eaac47" d="M18,30a8,8,0,0,1-8-8H9a2,2,0,0,0-2,2v7a2,2,0,0,0,2,2h8a2,2,0,0,0,2-2V30Z"/><rect width="4" height="4" x="11" y="22" fill="#f97878"/><path fill="#ffd3b6" d="M29,13h6a0,0,0,0,1,0,0v3a3,3,0,0,1-3,3h0a3,3,0,0,1-3-3V13A0,0,0,0,1,29,13Z"/><path fill="#f9b995" d="M32,16V13H29v3a3,3,0,0,0,3,3,2.968,2.968,0,0,0,1.5-.416A2.987,2.987,0,0,1,32,16Z"/><path fill="#f97878" d="M28,19h8a4,4,0,0,1,4,4V33a0,0,0,0,1,0,0H24a0,0,0,0,1,0,0V23A4,4,0,0,1,28,19Z"/><path fill="#ed5d5d" d="M37,30A10,10,0,0,1,27,20h0a3.974,3.974,0,0,1,.108-.892A4,4,0,0,0,24,23V33H40V30Z"/><rect width="14" height="10" x="47" y="15" fill="#7a838b" rx="2"/><path fill="#5d6972" d="M57,22a7,7,0,0,1-7-7H49a2,2,0,0,0-2,2v6a2,2,0,0,0,2,2H59a2,2,0,0,0,2-2V22Z"/><path fill="#7a838b" d="M54,29h0a3,3,0,0,1,3,3v1a0,0,0,0,1,0,0H51a0,0,0,0,1,0,0V32A3,3,0,0,1,54,29Z"/><path fill="#5d6972" d="M55.5,29.416A2.968,2.968,0,0,0,54,29a3,3,0,0,0-3,3v1h3V32A2.987,2.987,0,0,1,55.5,29.416Z"/><path fill="#7a838b" d="M31,9h6a0,0,0,0,1,0,0v2a2,2,0,0,1-2,2H29a0,0,0,0,1,0,0V11A2,2,0,0,1,31,9Z"/><path fill="#5d6972" d="M34,9H31a2,2,0,0,0-2,2v2h3V11A2,2,0,0,1,34,9Z"/><path d="M64,35a3,3,0,0,0-3-3H58a4,4,0,0,0-3-3.858V26h4a3,3,0,0,0,3-3V17a3,3,0,0,0-3-3H49a3,3,0,0,0-3,3v6a3,3,0,0,0,3,3h4v2.142A4,4,0,0,0,50,32H41V23a5.006,5.006,0,0,0-5-5h-.556A3.959,3.959,0,0,0,36,16V13.816A3,3,0,0,0,38,11V9a1,1,0,0,0-1-1H31a3,3,0,0,0-3,3v5a3.959,3.959,0,0,0,.556,2H28a5.006,5.006,0,0,0-5,5v9H19.816A2.966,2.966,0,0,0,20,31V24a3,3,0,0,0-3-3H9a3,3,0,0,0-3,3v7a2.966,2.966,0,0,0,.184,1H3a2.993,2.993,0,0,0-1,5.816V55a1,1,0,0,0,1,1H61a1,1,0,0,0,1-1V37.816A3,3,0,0,0,64,35ZM48,23V17a1,1,0,0,1,1-1H59a1,1,0,0,1,1,1v6a1,1,0,0,1-1,1H49A1,1,0,0,1,48,23Zm6,7a2,2,0,0,1,2,2H52A2,2,0,0,1,54,30ZM30,11a1,1,0,0,1,1-1h5v1a1,1,0,0,1-1,1H30Zm0,5V14h4v2a2,2,0,0,1-4,0Zm-5,7a3,3,0,0,1,3-3h8a3,3,0,0,1,3,3v9H37V25a1,1,0,0,0-2,0v7H29V25a1,1,0,0,0-2,0v7H25ZM14,23v2H12V23ZM8,31V24a1,1,0,0,1,1-1h1v3a1,1,0,0,0,1,1h4a1,1,0,0,0,1-1V23h1a1,1,0,0,1,1,1v7a1,1,0,0,1-1,1H9A1,1,0,0,1,8,31Zm53,5H51a1,1,0,0,0,0,2h9V54H4V38H47a1,1,0,0,0,0-2H3a1,1,0,0,1,0-2H61a1,1,0,0,1,0,2Z"/><path fill="#fff" d="M59,18H57a1,1,0,0,1,0-2h2a1,1,0,0,1,0,2Z"/></g></svg>