<svg xmlns="http://www.w3.org/2000/svg" enable-background="new 0 0 64 64" viewBox="0 0 64 64"><rect width="20" height="20" x="8" y="8" fill="#83ebd0"/><path fill="#43d9aa" d="M16.94,28H8V8h8.28C15.45,10.85,15,13.87,15,17C15,20.86,15.68,24.57,16.94,28z"/><rect width="20" height="20" x="36" y="8" fill="#83ebd0"/><rect width="20" height="20" x="36" y="36" fill="#ffe8b3"/><path fill="#ffd37e" d="M56,47.72V56H36v-8.94C39.43,48.32,43.14,49,47,49C50.13,49,53.15,48.55,56,47.72z"/><rect width="20" height="20" x="8" y="36" fill="#83ebd0"/><path fill="#43d9aa" d="M28,42.75V56H8V36h13.25C23.15,38.57,25.43,40.85,28,42.75z"/><path fill="#073b4c" d="M28,29H8c-0.553,0-1-0.448-1-1V8c0-0.552,0.447-1,1-1h20c0.553,0,1,0.448,1,1v20C29,28.552,28.553,29,28,29z M9,27h18V9H9V27z M56,29H36c-0.553,0-1-0.448-1-1V8c0-0.552,0.447-1,1-1h20c0.553,0,1,0.448,1,1v20C57,28.552,56.553,29,56,29z M37,27h18V9H37V27z M56,57H36c-0.553,0-1-0.448-1-1V36c0-0.552,0.447-1,1-1h20c0.553,0,1,0.448,1,1v20C57,56.552,56.553,57,56,57z M37,55h18V37H37V55z M28,57H8c-0.553,0-1-0.448-1-1V36c0-0.552,0.447-1,1-1h20c0.553,0,1,0.448,1,1v20C29,56.552,28.553,57,28,57z M9,55h18V37H9V55z"/></svg>