<svg xmlns="http://www.w3.org/2000/svg" viewBox="0 0 32 32"><g data-name="Layer 26"><rect width="11.47" height="11.47" x="2" y="2" fill="#3babff" rx="1" ry="1"/><rect width="11.47" height="11.47" x="18.53" y="2" fill="#3babff" rx="1" ry="1"/><rect width="11.47" height="11.47" x="2" y="18.53" fill="#3babff" rx="1" ry="1"/><rect width="11.47" height="11.47" x="18.53" y="18.53" fill="#3babff" rx="1" ry="1"/><path d="M12.47 14.22H3a1.76 1.76 0 0 1-1.75-1.75V3A1.76 1.76 0 0 1 3 1.25h9.47A1.76 1.76 0 0 1 14.22 3v9.47A1.76 1.76 0 0 1 12.47 14.22zM3 2.75A.25.25 0 0 0 2.75 3v9.47a.25.25 0 0 0 .25.25h9.47a.25.25 0 0 0 .25-.25V3a.25.25 0 0 0-.25-.25zM29 14.22H19.53a1.76 1.76 0 0 1-1.75-1.75V3a1.76 1.76 0 0 1 1.75-1.75H29A1.76 1.76 0 0 1 30.75 3v9.47A1.76 1.76 0 0 1 29 14.22zM19.53 2.75a.25.25 0 0 0-.25.25v9.47a.25.25 0 0 0 .25.25H29a.25.25 0 0 0 .25-.25V3A.25.25 0 0 0 29 2.75zM12.47 30.75H3A1.76 1.76 0 0 1 1.25 29V19.53A1.76 1.76 0 0 1 3 17.78h9.47a1.76 1.76 0 0 1 1.75 1.75V29A1.76 1.76 0 0 1 12.47 30.75zM3 19.28a.25.25 0 0 0-.25.25V29a.25.25 0 0 0 .25.25h9.47a.25.25 0 0 0 .25-.25V19.53a.25.25 0 0 0-.25-.25zM29 30.75H19.53A1.76 1.76 0 0 1 17.78 29V19.53a1.76 1.76 0 0 1 1.75-1.75H29a1.76 1.76 0 0 1 1.75 1.75V29A1.76 1.76 0 0 1 29 30.75zM19.53 19.28a.25.25 0 0 0-.25.25V29a.25.25 0 0 0 .25.25H29a.25.25 0 0 0 .25-.25V19.53a.25.25 0 0 0-.25-.25z"/></g></svg>