<svg xmlns="http://www.w3.org/2000/svg" enable-background="new 0 0 256 256" viewBox="0 0 256 256"><path fill="#e9e9ea" d="M106.3 134.9c-.1 0-.2 0-.3 0H59.5c-.1 0-.2 0-.3 0-7.8 6.3-16.3 15.1-16.3 23.8v82.9c0 6.6 5.3 11.9 11.9 11.9h56c6.6 0 11.9-5.3 11.9-11.9v-82.9C122.6 150 114.1 141.1 106.3 134.9zM197.1 134.9c-.1 0-.2 0-.4 0h-46.4c-.1 0-.2 0-.4 0-7.8 6.3-16.3 15.1-16.3 23.8v82.9c0 6.6 5.3 11.9 11.9 11.9h56c6.6 0 11.9-5.3 11.9-11.9v-82.9C213.4 150 204.9 141.1 197.1 134.9z"/><rect width="79.8" height="41" x="42.8" y="170.9" fill="#6dcc6d"/><rect width="79.8" height="15.5" x="42.8" y="211.9" fill="#9ce59c"/><rect width="79.8" height="41" x="133.6" y="170.9" fill="#6dcc6d"/><rect width="79.8" height="15.5" x="133.6" y="211.9" fill="#9ce59c"/><path fill="#e9e9ea" d="M56.9,123.6v8.7c0,1.4,1.2,2.6,2.6,2.6h46.4c1.4,0,2.6-1.2,2.6-2.6v-8.7H56.9z"/><path fill="#e9e9ea" d="M56.9 123.6v-8.7c0-1.4 1.2-2.6 2.6-2.6l0 0h46.4c1.4 0 2.6 1.2 2.6 2.6 0 0 0 0 0 0v8.7H56.9zM151.8 89.5h43.5c5.2 0 9.4 4.2 9.4 9.4v18.4c0 5.2-4.2 9.4-9.4 9.4h-43.5c-5.2 0-9.4-4.2-9.4-9.4V98.9C142.4 93.7 146.6 89.5 151.8 89.5z"/><path fill="#e9e9ea" d="M195.3,126.6h-43.5c-1.4,0-2.8-0.3-4.1-1v6.7c0,1.4,1.2,2.6,2.6,2.6h46.4c1.4,0,2.6-1.2,2.6-2.6v-6.7
		C198.1,126.3,196.7,126.6,195.3,126.6z"/><path fill="#231f20" d="M105.9,137.4H59.5c-2.8,0-5.1-2.3-5.1-5.1v-8.7c0-1.4,1.1-2.5,2.5-2.5h51.7c1.4,0,2.5,1.1,2.5,2.5v8.7
		C111,135.1,108.7,137.4,105.9,137.4z M59.4,126.1v6.2c0,0.1,0.1,0.1,0.1,0.1h46.4c0.1,0,0.1-0.1,0.1-0.1v-6.2H59.4z"/><path fill="#231f20" d="M108.5 126.1H56.9c-1.4 0-2.5-1.1-2.5-2.5v-8.7c0-2.8 2.3-5.1 5.1-5.1h46.4c2.8 0 5.1 2.3 5.1 5.1v8.7C111 125 109.9 126.1 108.5 126.1zM59.4 121.1H106v-6.2c0-.1-.1-.1-.1-.1 0 0 0 0 0 0H59.5c-.1 0-.1.1-.1.1l0 0L59.4 121.1zM110.7 256h-56c-7.9 0-14.4-6.4-14.4-14.4v-82.9c0-7.9 5.8-16.6 17.3-25.8.5-.4 1.2-.6 1.9-.5l.1 0h46.3l.1 0c.7-.1 1.4.1 1.9.5 11.5 9.2 17.3 17.9 17.3 25.8v82.9C125.1 249.6 118.7 256 110.7 256zM60 137.4c-6.9 5.6-14.7 13.7-14.7 21.3v82.9c0 5.2 4.2 9.4 9.4 9.4h56c5.2 0 9.4-4.2 9.4-9.4v-82.9c0-7.6-7.8-15.7-14.7-21.3L60 137.4zM106.3 134.9l.3 2.5L106.3 134.9zM201.6 256h-56c-7.9 0-14.4-6.4-14.4-14.4v-82.9c0-7.9 5.8-16.6 17.3-25.8.5-.4 1.2-.6 1.9-.5l.1 0h46.3l.1 0c.7-.1 1.4.1 1.9.5 11.5 9.2 17.3 17.9 17.3 25.8v82.9C215.9 249.6 209.5 256 201.6 256zM150.8 137.4c-6.9 5.6-14.7 13.7-14.7 21.3v82.9c0 5.2 4.2 9.4 9.4 9.4h56c5.2 0 9.4-4.2 9.4-9.4v-82.9c0-7.6-7.8-15.7-14.7-21.3L150.8 137.4zM197.1 134.9l.3 2.5L197.1 134.9zM195.3 129.1h-43.5c-6.5 0-11.9-5.3-11.9-11.9V98.9c0-6.5 5.3-11.9 11.9-11.9h43.5c6.5 0 11.9 5.3 11.9 11.9v18.4C207.1 123.8 201.8 129.1 195.3 129.1zM151.8 92c-3.8 0-6.9 3.1-6.9 6.9v18.4c0 3.8 3.1 6.9 6.9 6.9h43.5c3.8 0 6.9-3.1 6.9-6.9V98.9c0-3.8-3.1-6.9-6.9-6.9H151.8z"/><path fill="#231f20" d="M196.8,137.4h-46.4c-2.8,0-5.1-2.3-5.1-5.1v-6.7c0-1.4,1.1-2.5,2.5-2.5c0.4,0,0.8,0.1,1.1,0.3
		c0.9,0.5,2,0.7,3,0.7h43.5c1,0,2.1-0.2,3-0.7c1.2-0.6,2.7-0.1,3.3,1.1c0.2,0.3,0.3,0.7,0.3,1.1v6.6
		C201.9,135.1,199.6,137.4,196.8,137.4z M150.2,129v3.3c0,0.1,0.1,0.1,0.1,0.1h46.4c0.1,0,0.1-0.1,0.1-0.1V129
		c-0.5,0.1-1.1,0.1-1.6,0.1h-43.5C151.3,129.1,150.7,129.1,150.2,129z"/><path fill="#939190" d="M149.5,8.5L160.4,3c2-1,4.6-0.2,5.6,1.8l23.1,45.2c1,2,0.2,4.6-1.8,5.6l-10.9,5.6c-2,1-4.6,0.2-5.6-1.8
		l-23.1-45.2C146.7,12.1,147.5,9.6,149.5,8.5z"/><path fill="#6d6c6b" d="M189.1 49.9l.1-.1c4.1-2.1 5.7-7.2 3.6-11.3L177.4 8.4c-2.1-4.1-7.2-5.7-11.3-3.6L166 4.8 189.1 49.9zM151 20.6l-4.6 2.4c-1.6.8-2.3 2.8-1.4 4.5 0 0 0 0 0 0l13.5 26.3c.8 1.6 2.8 2.3 4.5 1.4 0 0 0 0 0 0l4.6-2.4L151 20.6z"/><path fill="#6d6c6b" d="M190.3,33.5l16.8-8.6c5.5-2.9,7.6-9.7,4.7-15.1c-2.8-5.4-9.5-7.6-15-4.8l-16.8,8.6L190.3,33.5z"/><path fill="#f9d97d" d="M93.3,93.8l-8.5-12.1c-0.3-0.4-0.9-0.6-1.4-0.2c-0.1,0.1-0.2,0.1-0.2,0.2l-8.5,12.1C70.9,99,72,106.3,77.2,110
		c5.2,3.8,12.4,2.6,16.2-2.5C96.3,103.4,96.3,97.9,93.3,93.8L93.3,93.8z"/><path fill="#ffcd29" d="M146.6,30.6L111,48.9c-4.8,2.5-8.9,6.3-11.6,11c-0.6,1-1.4,1.8-2.4,2.3l-15,7.7c-2.8,1.4-3.9,4.9-2.5,7.7l0,0
		c1.4,2.8,4.9,3.9,7.7,2.5l15-7.7c1-0.5,2.1-0.7,3.2-0.6c5.4,0.6,10.9-0.4,15.7-2.9l35.6-18.2L146.6,30.6z"/><path fill="#231f20" d="M232 124.1h-1.8v-1.8c0-1.4-1.1-2.5-2.5-2.5s-2.5 1.1-2.5 2.5v1.8h-1.8c-1.4 0-2.5 1.1-2.5 2.5 0 1.4 1.1 2.5 2.5 2.5h1.8v1.8c0 1.4 1.1 2.5 2.5 2.5s2.5-1.1 2.5-2.5v-1.8h1.8c1.4 0 2.5-1.1 2.5-2.5S233.4 124.1 232 124.1zM125.1 2c0-.2-.1-.3-.1-.5-.1-.1-.1-.3-.2-.4-.1-.1-.2-.3-.3-.4-1-.9-2.5-.9-3.5 0-.1.1-.2.2-.3.4-.1.1-.2.3-.2.4-.1.2-.1.3-.1.5 0 .2-.1.3-.1.5 0 .2 0 .3.1.5 0 .2.1.3.1.5.1.2.1.3.2.4.1.1.2.3.3.4 1 1 2.5 1 3.5 0 0 0 0 0 0 0 .1-.1.2-.2.3-.4.1-.1.2-.3.2-.4.1-.1.1-.3.1-.5 0-.2 0-.3.1-.5C125.1 2.3 125.1 2.1 125.1 2zM110.6 18.4c-4.1-.8-7.2-4-8-8 0-.1-.1-.2-.2-.2-.1 0-.1.1-.2.2-.8 4.1-4 7.2-8 8-.1 0-.2.1-.2.2 0 .1.1.1.2.2 4.1.8 7.2 4 8 8 0 .1.1.2.2.2.1 0 .1-.1.2-.2.8-4.1 4-7.2 8-8 .1 0 .2-.1.2-.2C110.7 18.4 110.7 18.4 110.6 18.4zM174.6 64.1c-2.5 0-4.8-1.4-5.9-3.6l-23.1-45.2c-1.7-3.3-.4-7.3 2.9-9l10.9-5.6c3.3-1.7 7.3-.4 9 2.9l23.1 45.2 0 0c1.7 3.3.4 7.3-2.9 9l-10.9 5.6C176.6 63.8 175.6 64.1 174.6 64.1zM162.3 5c-.3 0-.5.1-.8.2l-10.9 5.6c-.8.4-1.1 1.4-.7 2.2l23.1 45.2c.4.8 1.4 1.1 2.2.7l10.9-5.6c.8-.4 1.1-1.4.7-2.2L163.8 5.9C163.5 5.3 162.9 5 162.3 5z"/><path fill="#231f20" d="M189.1 52.4c-.9 0-1.8-.5-2.2-1.4L163.8 5.9c-.6-1.2-.1-2.7 1.1-3.4 0 0 0 0 0 0l.1-.1c5.4-2.7 11.9-.6 14.7 4.7l15.5 30.2c2.7 5.4.6 11.9-4.7 14.7l-.1.1C189.9 52.3 189.5 52.4 189.1 52.4zM169.6 6.3L190 46.1c.5-.6.8-1.2 1-1.9.5-1.5.4-3.1-.4-4.5L175.2 9.5c-.7-1.4-1.9-2.4-3.4-2.9C171.1 6.4 170.3 6.3 169.6 6.3L169.6 6.3zM161.4 58.1c-2.2 0-4.2-1.2-5.2-3.2l-13.5-26.3c-1.5-2.9-.3-6.4 2.5-7.8 0 0 0 0 0 0l4.6-2.4c1.2-.6 2.7-.1 3.4 1.1 0 0 0 0 0 0l16.5 32.2c.6 1.2.1 2.7-1.1 3.4 0 0 0 0 0 0l-4.6 2.4C163.2 57.8 162.3 58.1 161.4 58.1zM149.9 24l-2.4 1.2c-.4.2-.6.7-.4 1.1 0 0 0 0 0 0l13.5 26.3c.2.4.7.6 1.1.4 0 0 0 0 0 0l2.4-1.2L149.9 24z"/><path fill="#231f20" d="M190.3 36c-.9 0-1.8-.5-2.2-1.4l-10.2-20c-.6-1.2-.1-2.7 1.1-3.4 0 0 0 0 0 0l16.8-8.6c6.8-3.4 15-.7 18.4 6 3.4 6.7.8 14.9-5.9 18.4l-16.8 8.6C191.1 35.9 190.7 36 190.3 36zM183.4 14.6l8 15.5 14.6-7.5c4.3-2.2 6-7.5 3.8-11.7-2.2-4.3-7.4-6-11.7-3.8L183.4 14.6zM84.7 83.2c-4.5 0-8.2-3.7-8.2-8.2 0-3.1 1.7-5.9 4.5-7.3l15-7.7c.6-.3 1-.7 1.3-1.3 2.9-5.1 7.3-9.3 12.6-12l35.6-18.2c1.2-.6 2.7-.1 3.4 1.1 0 0 0 0 0 0l10.2 20c.6 1.2.1 2.7-1.1 3.4 0 0 0 0 0 0l-35.6 18.2c-5.3 2.7-11.2 3.8-17.1 3.2-.6-.1-1.3.1-1.8.3l-15 7.7C87.3 82.9 86 83.2 84.7 83.2zM145.5 34l-33.4 17.1c-4.4 2.3-8.1 5.8-10.5 10.1-.8 1.4-2 2.5-3.4 3.2l-15 7.7c-1.6.8-2.3 2.7-1.6 4.3.8 1.6 2.7 2.3 4.3 1.6.1 0 .1-.1.2-.1l15-7.7c1.4-.7 3-1 4.6-.9 4.9.5 9.9-.4 14.3-2.7l33.4-17.1L145.5 34z"/><path fill="#231f20" d="M84 114.7c-5.2.1-10.1-2.8-12.5-7.5-2.5-4.7-2-10.5 1.1-14.8l8.5-12.1c.7-.9 1.7-1.5 2.9-1.5l0 0c1.1 0 2.2.6 2.9 1.5l8.5 12.1 0 0c3.1 4.3 3.5 10.1 1.1 14.8C94.1 111.9 89.2 114.8 84 114.7zM84 84.9l-7.3 10.4c-2 2.8-2.3 6.5-.7 9.6 2.4 4.4 7.8 6.1 12.3 3.8 1.6-.8 2.9-2.2 3.8-3.8 1.6-3.1 1.3-6.8-.7-9.6L84 84.9zM122.6 214.4H42.8c-1.4 0-2.5-1.1-2.5-2.5v-41c0-1.4 1.1-2.5 2.5-2.5h79.8c1.4 0 2.5 1.1 2.5 2.5v41C125.1 213.3 124 214.4 122.6 214.4L122.6 214.4zM45.3 209.4h74.8v-36H45.3L45.3 209.4z"/><path fill="#231f20" d="M122.6 229.9H42.8c-1.4 0-2.5-1.1-2.5-2.5v-15.5c0-1.4 1.1-2.5 2.5-2.5h79.8c1.4 0 2.5 1.1 2.5 2.5v15.5C125.1 228.8 124 229.9 122.6 229.9L122.6 229.9zM45.3 224.9h74.8v-10.5H45.3L45.3 224.9zM213.4 214.4h-79.8c-1.4 0-2.5-1.1-2.5-2.5v-41c0-1.4 1.1-2.5 2.5-2.5h79.8c1.4 0 2.5 1.1 2.5 2.5v41C215.9 213.3 214.8 214.4 213.4 214.4zM136.1 209.4h74.8v-36h-74.8V209.4z"/><path fill="#231f20" d="M213.4 229.9h-79.8c-1.4 0-2.5-1.1-2.5-2.5v-15.5c0-1.4 1.1-2.5 2.5-2.5h79.8c1.4 0 2.5 1.1 2.5 2.5v15.5C215.9 228.8 214.8 229.9 213.4 229.9zM136.1 224.9h74.8v-10.5h-74.8V224.9zM84 203h-7.5c-1.4 0-2.5-1.1-2.5-2.5v-18.2c0-1.4 1.1-2.5 2.5-2.5H84c3.9 0 7 3.2 7 7 0 1.7-.6 3.3-1.7 4.5 2.5 3 2.1 7.4-.8 9.9C87.3 202.4 85.7 203 84 203L84 203zM79 198h5c1.1 0 2-.9 2-2 0-1.1-.9-2-2-2 0 0 0 0 0 0h-5V198zM79 188.9h5c1.1 0 2-.9 2-2 0-1.1-.9-2-2-2 0 0 0 0 0 0h-5V188.9zM69 203h-3c-6.4 0-11.6-5.2-11.6-11.6s5.2-11.6 11.6-11.6h3c1.4 0 2.5 1.1 2.5 2.5s-1.1 2.5-2.5 2.5h-3c-3.6 0-6.6 2.9-6.6 6.6s2.9 6.6 6.6 6.6h3c1.4 0 2.5 1.1 2.5 2.5S70.4 203 69 203zM99.3 203h-3c-1.4 0-2.5-1.1-2.5-2.5v-18.2c0-1.4 1.1-2.5 2.5-2.5h3c6.4 0 11.6 5.2 11.6 11.6S105.7 203 99.3 203L99.3 203zM98.9 198h.5c3.6 0 6.6-2.9 6.6-6.6s-2.9-6.6-6.6-6.6l0 0h-.5V198zM174.9 203h-7.5c-1.4 0-2.5-1.1-2.5-2.5v-18.2c0-1.4 1.1-2.5 2.5-2.5h7.5c3.9 0 7 3.1 7 7 0 1.7-.6 3.3-1.7 4.5 2.5 3 2.1 7.4-.8 9.9C178.1 202.4 176.5 203 174.9 203L174.9 203zM169.9 198h5c1.1 0 2-.9 2-2 0-1.1-.9-2-2-2h-5V198zM169.9 188.9h5c1.1 0 2-.9 2-2 0-1.1-.9-2-2-2h-5V188.9zM159.9 203h-3c-6.4 0-11.6-5.2-11.6-11.6s5.2-11.6 11.6-11.6h3c1.4 0 2.5 1.1 2.5 2.5s-1.1 2.5-2.5 2.5h-3c-3.6 0-6.6 2.9-6.6 6.6s2.9 6.6 6.6 6.6h3c1.4 0 2.5 1.1 2.5 2.5S161.3 203 159.9 203zM190.2 203h-3c-1.4 0-2.5-1.1-2.5-2.5v-18.2c0-1.4 1.1-2.5 2.5-2.5h3c6.4 0 11.6 5.2 11.6 11.6S196.6 203 190.2 203L190.2 203zM189.7 198h.5c3.6 0 6.6-2.9 6.6-6.6s-2.9-6.6-6.6-6.6l0 0h-.5L189.7 198z"/></svg>