<?xml version="1.0" encoding="utf-8"?>
<!DOCTYPE svg PUBLIC "-//W3C//DTD SVG 20010904//EN" "https://www.w3.org/TR/2001/REC-SVG-20010904/DTD/svg10.dtd">
<svg version="1.0" xmlns="http://www.w3.org/2000/svg" width="700px" height="700px" viewBox="0 0 700 700" preserveAspectRatio="xMidYMid meet">
 <g>
  <path d="M219 541.7 l-43.5 -25.3 -0.2 -51.4 -0.3 -51.5 44 -25.3 44.1 -25.2 43.9 25.2 44 25.3 -0.3 51.5 -0.2 51.5 -43.4 25.2 c-23.9 13.9 -43.7 25.3 -44 25.3 -0.3 0 -20.2 -11.4 -44.1 -25.3z m48.3 0.1 c1.2 -0.6 2.7 -1.8 3.4 -2.7 1.7 -2.2 1.6 -8.2 -0.2 -10.7 -0.8 -1.2 -14 -9.4 -29.5 -18.4 l-28 -16.3 0 -33.1 c0 -36.7 0 -36.4 -6.4 -38.6 -3.9 -1.2 -7.1 -0.3 -10.1 3 -1.9 2.1 -2 3.6 -2 40.1 l0 37.8 2.3 2.3 c3.9 4 62.5 37.7 65.5 37.7 1.6 0.1 3.8 -0.4 5 -1.1z"/>
  <path d="M414.5 541.6 l-44 -25.4 0 -51.3 0 -51.3 44.3 -25.3 44.3 -25.3 44.2 25.4 44.2 25.4 0.3 50.9 0.2 51 -43.7 25.4 c-24 14 -44.1 25.5 -44.7 25.7 -0.6 0.1 -20.9 -11.2 -45.1 -25.2z m49.4 -0.1 c3.3 -1.7 4.1 -3.3 4.1 -8.4 0 -2.5 -0.7 -4.4 -2 -5.6 -1.1 -1 -14.3 -8.9 -29.2 -17.5 l-27.3 -15.8 -0.5 -33.5 c-0.5 -33.4 -0.5 -33.6 -2.8 -36 -4.4 -4.7 -12 -3.9 -14.7 1.4 -2.1 3.9 -2.2 74.1 -0.1 77.8 1.6 2.9 63.9 39.1 67.4 39.1 1.2 0 3.6 -0.7 5.1 -1.5z"/>
  <path d="M609.4 561.8 c-13.7 -7.6 -50.4 -29.4 -50.4 -30 0 -0.4 0.9 -1 2 -1.3 2.7 -0.9 5.3 -4.9 6 -9.5 l0.5 -3.7 25.7 15.1 c14.1 8.3 26.6 16 27.7 17 2.8 2.6 2.8 7.8 -0.1 11 -3.3 3.7 -6.6 4.1 -11.4 1.4z"/>
  <path d="M102 560.2 c-3.6 -3.6 -3.9 -7.1 -0.7 -10.6 1.2 -1.3 14 -9.2 28.5 -17.4 l26.2 -15.1 0 3.6 c0 2.9 0.8 4.3 3.8 7.2 l3.8 3.7 -26.5 15.4 c-14.6 8.5 -27.8 15.6 -29.3 15.8 -2 0.3 -3.5 -0.4 -5.8 -2.6z"/>
  <path d="M120.3 371.8 l-43.3 -25 0 -51.1 0 -51.2 39.6 -23 c21.8 -12.6 41.7 -24.2 44.3 -25.6 l4.6 -2.7 44 25.7 44 25.6 0.3 51.1 0.2 51 -43.8 25.2 c-24.2 13.9 -44.5 25.2 -45.3 25.1 -0.8 -0.1 -20.9 -11.3 -44.6 -25.1z m50.4 -0.3 c2.9 -2.1 4.6 -7.5 3.4 -10.8 -1.3 -3.2 -1 -3.1 -32.5 -21.2 l-26.1 -15.1 -0.3 -33.6 -0.2 -33.6 -3.1 -2.6 c-4.1 -3.5 -8.3 -3.4 -12 0.3 l-2.9 2.9 0 37.1 c0 24.6 0.4 37.8 1.1 39.4 0.8 1.7 10.6 7.9 32.7 20.6 32.7 18.7 35.3 19.8 39.9 16.6z"/>
  <path d="M392.8 366.5 c-39 -29.3 -55 -80.5 -39.9 -127.6 2.2 -6.9 12.6 -27.6 38.6 -77.4 19.5 -37.4 42.6 -81.6 51.2 -98.1 l15.8 -30.2 4.6 8.7 c2.5 4.7 25.4 48.4 50.9 97 48.4 92.3 51.4 98.6 54.5 116.5 3.9 22.5 -0.1 49.8 -10.1 69.8 -8 16 -22.6 33.2 -36.6 43.1 l-6.7 4.8 -23 -13.1 -23 -13.1 -0.3 -35.9 -0.3 -35.8 -2.4 -2.6 c-3.7 -3.9 -10 -3.7 -13.5 0.5 l-2.6 3.1 0 35.3 0 35.4 -23 13 c-12.6 7.2 -23.5 13.1 -24.2 13.1 -0.7 0 -5.2 -2.9 -10 -6.5z m7.1 -45 c1.6 -0.8 3.4 -2.8 4.1 -4.5 1.2 -2.8 1.1 -3.8 -0.9 -8.3 -7.1 -16.1 -7.6 -18.3 -7.6 -33.7 0 -12.5 0.4 -15.4 2.3 -20.8 1.3 -3.5 11.7 -24.4 23.3 -46.5 22.7 -43.5 22.7 -43.4 17.5 -48.6 -2.5 -2.5 -7.8 -3.1 -11.3 -1.3 -2.4 1.3 -44.3 81.1 -47.1 89.8 -6.9 21 -5.1 45.8 4.6 65.4 4.8 9.6 8.7 11.9 15.1 8.5z"/>
  <path d="M157 144.4 l0 -31.6 3 -3 c2.6 -2.5 3.6 -2.9 6.3 -2.4 1.8 0.4 4.1 1.5 5.2 2.7 1.9 1.9 2 3.5 2.3 33.9 0.1 17.6 -0.1 32 -0.5 32 -0.4 -0.1 -1.9 -0.7 -3.3 -1.5 -3.2 -1.8 -5.8 -1.8 -9.4 0 -1.5 0.8 -3 1.5 -3.2 1.5 -0.2 0 -0.4 -14.2 -0.4 -31.6z"/>
 </g>
</svg>