<?xml version="1.0" encoding="iso-8859-1"?>
<!-- Generator: Adobe Illustrator 19.0.0, SVG Export Plug-In . SVG Version: 6.00 Build 0)  -->
<svg version="1.1" id="Layer_1" xmlns="http://www.w3.org/2000/svg" xmlns:xlink="https://www.w3.org/1999/xlink" x="0px" y="0px"
	 viewBox="0 0 512.001 512.001" style="enable-background:new 0 0 512.001 512.001;" xml:space="preserve">
<path style="fill:#60BFE1;" d="M414.231,512H97.771c-10.687,0-19.351-8.664-19.351-19.351v-61.375
	c0-97.918,79.662-177.581,177.581-177.581s177.581,79.662,177.581,177.581v61.375C433.582,503.336,424.918,512,414.231,512z"/>
<path style="fill:#2E9ADA;" d="M256.001,253.693V512h158.229c10.687,0,19.351-8.664,19.351-19.351v-61.375
	C433.582,333.356,353.92,253.693,256.001,253.693z"/>
<path style="fill:#C7E5F4;" d="M372.975,297.78c-3.659-3.21-7.454-6.267-11.368-9.174c-0.455-0.401-0.93-0.786-1.431-1.148
	c-30.437-22.081-66.444-33.758-104.126-33.77c-0.022,0-0.036,0-0.057,0c-37.692,0-73.714,11.678-104.165,33.77
	c-0.504,0.366-0.983,0.755-1.442,1.16c-3.91,2.903-7.702,5.955-11.357,9.162l30.726,62.745l68.868,140.634
	c3.25,6.635,9.992,10.841,17.38,10.841s14.13-4.206,17.38-10.841l55.721-113.787L372.975,297.78z"/>
<path style="fill:#FFEAB2;" d="M256.001,238.428c-65.734,0-119.214-53.48-119.214-119.214C136.786,53.48,190.267,0,256.001,0
	s119.214,53.48,119.214,119.214C375.215,184.95,321.736,238.428,256.001,238.428z"/>
<g>
	<path style="fill:#FFE08C;" d="M256.001,0v238.428c65.734,0,119.214-53.48,119.214-119.214C375.215,53.48,321.736,0,256.001,0z"/>
	<path style="fill:#FFE08C;" d="M248.33,255.172l-42.474-18.327c-7.092-3.06-11.686-10.045-11.686-17.767v-29.594
		c0-27.68,22.519-50.199,50.199-50.199h23.259c27.68,0,50.199,22.519,50.199,50.199v29.594c0,7.724-4.594,14.708-11.686,17.769
		l-42.483,18.327C258.771,257.283,253.224,257.284,248.33,255.172z M298.478,219.077h0.013H298.478z M232.875,206.351l23.124,9.978
		l23.129-9.979v-16.867c0-6.34-5.156-11.496-11.496-11.496h-23.26c-6.34,0-11.496,5.157-11.496,11.496V206.351z"/>
</g>
<path style="fill:#60BFE1;" d="M361.606,288.607c-0.455-0.401-0.93-0.786-1.431-1.148c-30.437-22.081-66.444-33.758-104.126-33.77
	c-0.018,0-0.032,0-0.048,0v258.312c7.388,0,14.13-4.206,17.38-10.841l55.721-113.787l43.872-89.592
	C369.316,294.571,365.52,291.513,361.606,288.607z"/>
<path style="fill:#FFD361;" d="M267.63,139.285H256v38.703h11.63c6.34,0,11.496,5.157,11.496,11.496v16.867L256,216.329v40.428
	c2.609,0,5.217-0.528,7.661-1.583l42.483-18.327c7.092-3.06,11.686-10.045,11.686-17.769v-29.594
	C317.829,161.804,295.311,139.285,267.63,139.285z M298.478,219.077h0.013H298.478z"/>
<g>
</g>
<g>
</g>
<g>
</g>
<g>
</g>
<g>
</g>
<g>
</g>
<g>
</g>
<g>
</g>
<g>
</g>
<g>
</g>
<g>
</g>
<g>
</g>
<g>
</g>
<g>
</g>
<g>
</g>
</svg>
