<svg xmlns="http://www.w3.org/2000/svg" enable-background="new 0 0 256 256" viewBox="0 0 256 256"><path fill="#ff4397" d="M144.674,250.474H38.119c-5.523,0-10-4.477-10-10V131.571c0-5.523,4.477-10,10-10h106.555
			c5.523,0,10,4.477,10,10v108.903C154.674,245.996,150.197,250.474,144.674,250.474z"/><path fill="#f4efed" d="M140.245,121.571H42.548c-7.969,0-14.428-6.46-14.428-14.429l0,0c0-7.969,6.46-14.428,14.428-14.428h97.698
			c7.968,0,14.428,6.46,14.428,14.428l0,0C154.674,115.111,148.214,121.571,140.245,121.571z"/><path fill="#7bac51" d="M252,23.459H29.758c-2.484-3.884-6.825-6.466-11.777-6.466C10.259,16.993,4,23.253,4,30.974
			s6.259,13.981,13.981,13.981c4.952,0,9.293-2.582,11.777-6.466H252V23.459z"/><path fill="#99ca6f" d="M14,30.974c0-5.961,3.737-11.036,8.99-13.047c-1.555-0.6-3.242-0.934-5.009-0.934
			C10.259,16.993,4,23.252,4,30.974c0,7.722,6.259,13.981,13.981,13.981c1.767,0,3.454-0.334,5.009-0.934
			C17.737,42.01,14,36.935,14,30.974z"/><path fill="#e12579" d="M144.674,121.571h-10c5.523,0,10,4.477,10,10v108.903c0,5.523-4.477,10-10,10h10c5.523,0,10-4.477,10-10
			V131.571C154.674,126.048,150.197,121.571,144.674,121.571z"/><path fill="#ff61b5" d="M38.119,250.474h10c-5.523,0-10-4.477-10-10V131.571c0-5.523,4.477-10,10-10h-10c-5.523,0-10,4.477-10,10
			v108.903C28.119,245.996,32.596,250.474,38.119,250.474z"/><rect width="126.555" height="61.937" x="28.119" y="155.054" fill="#fcc24c"/><rect width="10" height="61.937" x="144.674" y="155.054" fill="#dea42e"/><rect width="10" height="61.937" x="28.119" y="155.054" fill="#fce06a"/><path fill="#d6d1cf" d="M140.245,92.714h-10c7.968,0,14.428,6.46,14.428,14.428s-6.46,14.428-14.428,14.428h10
			c7.968,0,14.428-6.46,14.428-14.428S148.214,92.714,140.245,92.714z"/><path fill="#fff" d="M42.548,121.571h10c-7.968,0-14.429-6.46-14.429-14.428s6.46-14.428,14.429-14.428h-10
			c-7.968,0-14.428,6.46-14.428,14.428S34.579,121.571,42.548,121.571z"/><rect width="10" height="15.029" x="242" y="23.459" fill="#5d8e33"/><path fill="#690589" d="M17.981 46.955C9.169 46.955 2 39.786 2 30.974s7.169-15.981 15.981-15.981c5.097 0 9.812 2.397 12.826 6.467H252c1.104 0 2 .896 2 2v15.029c0 1.104-.896 2-2 2H30.808C27.795 44.558 23.078 46.955 17.981 46.955zM17.981 18.993C11.375 18.993 6 24.368 6 30.974s5.375 11.981 11.981 11.981c4.1 0 7.872-2.072 10.092-5.543.367-.575 1.002-.923 1.685-.923H250V25.459H29.758c-.683 0-1.317-.348-1.685-.923C25.854 21.065 22.081 18.993 17.981 18.993zM140.245 123.571H42.548c-9.059 0-16.429-7.37-16.429-16.429s7.37-16.428 16.429-16.428h97.697c9.059 0 16.429 7.37 16.429 16.428S149.304 123.571 140.245 123.571zM42.548 94.714c-6.854 0-12.429 5.575-12.429 12.428s5.575 12.429 12.429 12.429h97.697c6.854 0 12.429-5.576 12.429-12.429s-5.575-12.428-12.429-12.428H42.548z"/><path fill="#690589" d="M144.674,252.474H38.119c-6.617,0-12-5.383-12-12V131.571c0-6.617,5.383-12,12-12h106.555
			c6.617,0,12,5.383,12,12v108.903C156.674,247.09,151.291,252.474,144.674,252.474z M38.119,123.571c-4.411,0-8,3.589-8,8v108.903
			c0,4.411,3.589,8,8,8h106.555c4.411,0,8-3.589,8-8V131.571c0-4.411-3.589-8-8-8H38.119z"/><path fill="#690589" d="M154.674,218.991H28.119c-1.104,0-2-0.896-2-2v-61.937c0-1.104,0.896-2,2-2h126.555c1.104,0,2,0.896,2,2
			v61.937C156.674,218.095,155.778,218.991,154.674,218.991z M30.119,214.991h122.555v-57.937H30.119V214.991z"/><path fill="#690589" d="M36.119,182.705c-1.104,0-2-0.896-2-2v-12c0-1.104,0.896-2,2-2s2,0.896,2,2v12
			C38.119,181.809,37.224,182.705,36.119,182.705z"/><path fill="#fcc24c" d="M54.076 5.526L54.076 5.526c-5.291 0-9.579 4.289-9.579 9.579v57.17c0 5.29 4.289 9.579 9.579 9.579l0 0c5.29 0 9.579-4.289 9.579-9.579v-57.17C63.655 9.815 59.366 5.526 54.076 5.526zM111.551 5.526L111.551 5.526c-5.29 0-9.579 4.289-9.579 9.579v40.806c0 5.29 4.289 9.579 9.579 9.579l0 0c5.291 0 9.579-4.289 9.579-9.579V15.106C121.13 9.815 116.841 5.526 111.551 5.526z"/><path fill="#fce06a" d="M50.497,72.275v-57.17c0-4.241,2.76-7.833,6.579-9.093c-0.945-0.311-1.951-0.486-3-0.486h0
			c-5.29,0-9.579,4.289-9.579,9.579v57.17c0,5.29,4.289,9.579,9.579,9.579h0c1.049,0,2.055-0.175,3-0.486
			C53.256,80.108,50.497,76.517,50.497,72.275z"/><path fill="#fcc24c" d="M73.234 5.526L73.234 5.526c-5.29 0-9.579 4.289-9.579 9.579v40.806c0 5.29 4.289 9.579 9.579 9.579h0c5.29 0 9.579-4.289 9.579-9.579V15.106C82.813 9.815 78.525 5.526 73.234 5.526zM92.393 5.526L92.393 5.526c-5.291 0-9.579 4.289-9.579 9.579v40.806c0 5.29 4.289 9.579 9.579 9.579h0c5.29 0 9.579-4.289 9.579-9.579V15.106C101.972 9.815 97.683 5.526 92.393 5.526z"/><path fill="#dea42e" d="M111.551,5.526c-1.049,0-2.055,0.175-3,0.486c3.82,1.26,6.579,4.852,6.579,9.093v40.806
			c0,4.242-2.76,7.833-6.579,9.093c0.945,0.312,1.951,0.486,3,0.486c5.29,0,9.579-4.289,9.579-9.579V15.106
			C121.13,9.815,116.841,5.526,111.551,5.526z"/><path fill="#690589" d="M54.076,83.854c-6.385,0-11.579-5.194-11.579-11.579v-57.17c0-6.385,5.194-11.579,11.579-11.579
			s11.579,5.194,11.579,11.579v57.17C65.655,78.66,60.461,83.854,54.076,83.854z M54.076,7.526c-4.179,0-7.579,3.4-7.579,7.579
			v57.17c0,4.179,3.4,7.579,7.579,7.579s7.579-3.4,7.579-7.579v-57.17C61.655,10.926,58.255,7.526,54.076,7.526z"/><path fill="#690589" d="M73.234,67.491c-6.385,0-11.579-5.194-11.579-11.579V15.105c0-6.385,5.194-11.579,11.579-11.579
			s11.579,5.194,11.579,11.579v40.807C84.813,62.297,79.619,67.491,73.234,67.491z M73.234,7.526c-4.179,0-7.579,3.4-7.579,7.579
			v40.807c0,4.179,3.4,7.579,7.579,7.579s7.579-3.4,7.579-7.579V15.105C80.813,10.926,77.413,7.526,73.234,7.526z"/><path fill="#690589" d="M92.393,67.491c-6.385,0-11.579-5.194-11.579-11.579V15.105c0-6.385,5.194-11.579,11.579-11.579
			s11.579,5.194,11.579,11.579v40.807C103.972,62.297,98.777,67.491,92.393,67.491z M92.393,7.526c-4.179,0-7.579,3.4-7.579,7.579
			v40.807c0,4.179,3.4,7.579,7.579,7.579s7.579-3.4,7.579-7.579V15.105C99.972,10.926,96.571,7.526,92.393,7.526z"/><path fill="#690589" d="M111.551,67.491c-6.385,0-11.579-5.194-11.579-11.579V15.105c0-6.385,5.194-11.579,11.579-11.579
			s11.579,5.194,11.579,11.579v40.807C123.13,62.297,117.936,67.491,111.551,67.491z M111.551,7.526c-4.179,0-7.579,3.4-7.579,7.579
			v40.807c0,4.179,3.4,7.579,7.579,7.579s7.579-3.4,7.579-7.579V15.105C119.13,10.926,115.729,7.526,111.551,7.526z"/></svg>