<svg xmlns="http://www.w3.org/2000/svg" data-name="Layer 1" viewBox="0 0 64 64"><polygon fill="#ffe38f" points="62 15 56.608 17.689 59.389 23.035 53.444 22.038 52.558 28 48.334 23.696 44.11 28 43.224 22.037 37.278 23.035 40.061 17.689 34.668 15 40.061 12.311 37.279 6.965 43.224 7.962 44.11 2 48.334 6.304 52.558 2 53.445 7.963 59.39 6.965 56.608 12.311 62 15"/><path fill="#adc4e6" d="M48,48l-5,4-6-1H27a4,4,0,0,0-4,4v8H38V56h6.5L50,51Z"/><path fill="#759acc" d="M14,51H6a4,4,0,0,0-4,4v8H18V55A4,4,0,0,0,14,51Z"/><polygon fill="#4c6585" points="6 8 10 17 20 17 23 8 6 8"/><rect width="12" height="14" x="25" y="37" fill="#e6c59b" rx="5.881"/><path fill="#495766" d="M25.0741,41.99884A22.90733,22.90733,0,0,0,33.1,40.88a6.65282,6.65282,0,0,0,3.82531,1.11481A5.89757,5.89757,0,0,0,31.11884,37h-.23768A5.8976,5.8976,0,0,0,25.0741,41.99884Z"/><rect width="12" height="14" x="4" y="37" fill="#e6c59b" rx="5.881"/><path fill="#495766" d="M4.07391,42H15.92609a5.89767,5.89767,0,0,0-5.80725-5H9.88116A5.89767,5.89767,0,0,0,4.07391,42Z"/><rect width="2" height="3" x="29.879" y="31"/><rect width="3" height="2" x="33.44" y="32.94" transform="rotate(-45 34.94 33.94)"/><rect width="2" height="3" x="25.818" y="32.439" transform="rotate(-45.007 26.818 33.94)"/><rect width="2" height="3" x="8.879" y="31"/><rect width="3" height="2" x="12.44" y="32.94" transform="rotate(-45 13.94 33.94)"/><rect width="2" height="3" x="4.818" y="32.439" transform="rotate(-45.007 5.818 33.94)"/><rect width="2" height="2" x="27" y="44" rx="1"/><rect width="2" height="2" x="33" y="44" rx="1"/><rect width="2" height="2" x="6" y="44" rx="1"/><rect width="2" height="2" x="12" y="44" rx="1"/><path d="M14.86639 50.08759A6.85581 6.85581 0 0 0 17 45.11914V42.88086A6.889 6.889 0 0 0 10.11865 36h-.2373A6.889 6.889 0 0 0 3 42.88086v2.23828a6.85581 6.85581 0 0 0 2.13361 4.96845A4.9992 4.9992 0 0 0 1 55v8H3V55a3.00328 3.00328 0 0 1 3-3h8a3.00328 3.00328 0 0 1 3 3v8h2V55A4.9992 4.9992 0 0 0 14.86639 50.08759zM9.88135 38h.2373a4.88741 4.88741 0 0 1 4.5025 3H5.37885A4.88741 4.88741 0 0 1 9.88135 38zm.2373 12h-.2373A4.88669 4.88669 0 0 1 5 45.11914V43H15v2.11914A4.88669 4.88669 0 0 1 10.11865 50zM48.832 47.44531a1 1 0 0 0-1.45654-.22656l-4.65137 3.72168-5.55957-.92676A1.03431 1.03431 0 0 0 37 50H35.96277A6.85819 6.85819 0 0 0 38 45.11914V42.88086A6.889 6.889 0 0 0 31.11865 36h-.2373A6.889 6.889 0 0 0 24 42.88086v2.23828a6.85581 6.85581 0 0 0 2.13361 4.96845A4.9992 4.9992 0 0 0 22 55v8h2V55a3.00328 3.00328 0 0 1 3-3h9.91748l5.918.98633a1.00448 1.00448 0 0 0 .78906-.20508L47.773 49.46191l.918 1.377L44.11328 55H38a.99974.99974 0 0 0-1 1v7h2V57h5.5a1.00225 1.00225 0 0 0 .67285-.25977l5.5-5a1.00073 1.00073 0 0 0 .15918-1.29492zM30.88135 38h.2373a4.87717 4.87717 0 0 1 4.4148 2.83136 4.85914 4.85914 0 0 1-1.83911-.75616.9978.9978 0 0 0-1.00879-.10547 19.53531 19.53531 0 0 1-6.29724 1.00555A4.88842 4.88842 0 0 1 30.88135 38zm.2373 12h-.2373A4.88669 4.88669 0 0 1 26 45.11914V42.9856a24.73234 24.73234 0 0 0 6.9873-.98462A7.65768 7.65768 0 0 0 36 42.94006v2.17908A4.88669 4.88669 0 0 1 31.11865 50zM23.811 7.415A.99973.99973 0 0 0 23 7H6.88806L5.92725 4.625A1.00033 1.00033 0 0 0 5 4H2V6H4.32568L9.58594 18.999A3.00448 3.00448 0 0 0 12.415 21H20V19H12.415a1.02028 1.02028 0 0 1-.959-.709L11.33832 18H20a1 1 0 0 0 .94873-.68359l3-9A1.00125 1.00125 0 0 0 23.811 7.415zM19.2793 16H10.52917L7.6972 9H21.61279z"/><rect width="2" height="2" x="11" y="22" rx="1"/><rect width="2" height="2" x="18" y="22" rx="1"/><path d="M62.44629,14.10547l-4.48193-2.23535,2.3125-4.44239a1.00025,1.00025,0,0,0-1.05274-1.44824l-4.93994.8291-.73682-4.956a1,1,0,0,0-1.70312-.55274L48.334,4.876,44.82422,1.2998a1,1,0,0,0-1.70313.55274l-.73681,4.95508-4.93994-.8291A1.00056,1.00056,0,0,0,36.3916,7.42676l2.312,4.44336-4.48193,2.23535a.99942.99942,0,0,0,0,1.78906l4.48193,2.23535-2.3125,4.44239a1.00025,1.00025,0,0,0,1.05274,1.44824l4.94043-.8291.73681,4.956a1,1,0,0,0,1.70313.55274L48.334,25.124l3.50977,3.57618a1,1,0,0,0,1.70313-.55274l.73681-4.95508,4.94043.8291a1.00024,1.00024,0,0,0,1.05274-1.44824l-2.3125-4.44336,4.48193-2.23535a.99942.99942,0,0,0,0-1.78906Zm-6.28516,2.68945a.99995.99995,0,0,0-.44092,1.35645l1.856,3.56543-3.96631-.666a1.00119,1.00119,0,0,0-1.15478.83887l-.59082,3.97558-2.81641-2.86914a.99981.99981,0,0,0-1.42773,0l-2.81641,2.86914-.59082-3.97558a1.00119,1.00119,0,0,0-1.15478-.83887l-3.96631.665,1.856-3.56445a.99993.99993,0,0,0-.44091-1.35645L36.90869,15l3.59815-1.79492a.99993.99993,0,0,0,.44091-1.35645L39.09229,8.2832l3.96582.666a1.00948,1.00948,0,0,0,.75341-.17774.99679.99679,0,0,0,.40137-.66113l.59082-3.97558,2.81641,2.86914a.99981.99981,0,0,0,1.42773,0l2.81641-2.86914.59131,3.97558a.99681.99681,0,0,0,.40136.66113,1.008,1.008,0,0,0,.75342.17774l3.96582-.665-1.856,3.56445a.99995.99995,0,0,0,.44092,1.35645L59.75928,15Z"/><rect width="11.999" height="2" x="42" y="14" transform="rotate(-45 48 15)"/><path d="M51.53516 17.12085a.99989.99989 0 0 0-1.41382 1.41431l.00024.00024a.99989.99989 0 0 0 1.41382-1.41431zM44.46484 12.87915a.99989.99989 0 0 0 1.41382-1.41431l-.00024-.00024a.99989.99989 0 0 0-1.41382 1.41431z"/></svg>