<?xml version="1.0" encoding="utf-8"?>
<!DOCTYPE svg PUBLIC "-//W3C//DTD SVG 20010904//EN" "https://www.w3.org/TR/2001/REC-SVG-20010904/DTD/svg10.dtd">
<svg version="1.0" xmlns="http://www.w3.org/2000/svg" width="980px" height="819px" viewBox="0 0 980 819" preserveAspectRatio="xMidYMid meet">
 <g fill="#000000">
 </g>
 <g fill="#080808">
 </g>
 <g fill="#101010">
 </g>
 <g fill="#191919">
 </g>
 <g fill="#212121">
 </g>
 <g fill="#292929">
  <path d="M188 807.5 l-3.4 -3.5 3.7 0 c3.6 0 3.7 0.1 3.7 3.5 0 1.9 -0.1 3.5 -0.3 3.5 -0.2 0 -1.8 -1.6 -3.7 -3.5z"/>
  <path d="M223 806.5 c0 -3.3 0.2 -3.5 3.5 -3.5 3.2 0 3.5 -0.2 3.5 -3 0 -2.3 0.5 -3 1.9 -3 1 0 2.1 -0.9 2.4 -2 0.4 -1.5 1.4 -2 3.6 -2 2.6 0 3.1 -0.4 3.1 -2.3 0 -1.3 0.5 -2.8 1.2 -3.5 1.3 -1.3 7.8 -1.7 7.7 -0.4 0 0.4 -6.1 5.8 -13.5 12 l-13.4 11.2 0 -3.5z"/>
  <path d="M1 581.3 c0 -2.3 11.8 -17.3 13.5 -17.3 0.3 0 0.5 1.5 0.5 3.3 0 3.4 -3.3 7.7 -5.8 7.7 -0.7 0 -1.2 0.9 -1.2 2 0 1.1 -0.4 2 -1 2 -0.5 0 -1 0.7 -1 1.5 0 0.9 -0.9 1.5 -2.5 1.5 -1.4 0 -2.5 -0.3 -2.5 -0.7z"/>
  <path d="M27 553 c0 -0.5 0.3 -1 0.8 -1 0.4 0 4.3 -3.2 8.7 -7.1 10.6 -9.4 11.5 -9.8 11.5 -5.9 0 2.3 -0.4 3 -2 3 -1.1 0 -2 0.7 -2 1.5 0 0.8 -0.6 1.5 -1.3 1.5 -0.7 0 -1.7 1 -2.2 2.3 -0.6 1.3 -2.1 2.3 -3.7 2.5 -2 0.2 -2.8 0.9 -2.8 2.3 0 1.5 -0.7 1.9 -3.5 1.9 -1.9 0 -3.5 -0.4 -3.5 -1z"/>
  <path d="M541 350.1 c0 -0.4 -1.9 -1.1 -4.2 -1.4 -2.4 -0.3 -4.4 -1.1 -4.6 -1.6 -0.2 -0.6 -1 -1.1 -1.8 -1.1 -2.8 0 -6.4 -3.2 -6.4 -5.6 0 -1.7 -0.6 -2.4 -2 -2.4 -1.1 0 -2 -0.7 -2 -1.5 0 -0.8 -0.4 -1.5 -0.9 -1.5 -0.5 0 -1.8 -2.3 -3.1 -5.1 -1.9 -4.5 -2.1 -6.6 -1.8 -15.7 0.2 -7.3 0.7 -10.7 1.6 -11 0.6 -0.2 1.2 -1.4 1.2 -2.7 0 -1.3 0.6 -3 1.3 -3.7 0.7 -0.7 1.6 -2.1 2 -3 0.4 -1.3 1.7 -1.8 4.2 -1.8 3.3 0 3.5 -0.2 3.5 -3.5 0 -3.1 0.3 -3.5 2.5 -3.5 1.5 0 2.5 -0.6 2.5 -1.5 0 -0.8 1.3 -1.6 3.3 -1.9 8.5 -1.3 15 -1.7 20.6 -1 l6.1 0.7 0 3.5 0 3.5 -6.6 -0.7 c-8 -0.8 -21.4 1.1 -21.4 3.1 0 0.8 -1.3 1.3 -3.5 1.3 -3.3 0 -3.5 0.2 -3.5 3.5 0 2.1 -0.6 3.8 -1.4 4.1 -0.8 0.3 -1.7 1.7 -2.1 3.2 -0.4 1.5 -1.1 3 -1.7 3.3 -0.5 0.4 -1.3 3.7 -1.5 7.3 -0.5 5.7 -0.2 7.5 1.8 11.9 1.3 2.9 2.7 5.4 3.2 5.5 0.4 0.2 0.7 1.5 0.7 2.8 0 1.7 0.6 2.4 1.9 2.4 1 0 3 1.1 4.4 2.4 1.4 1.3 4 2.7 5.7 3.1 1.6 0.4 3 1.1 3 1.6 0 0.5 3.2 0.9 7 0.9 3.9 0 7 -0.4 7 -1 0 -0.5 1.6 -1.2 3.5 -1.6 1.9 -0.3 3.5 -1 3.5 -1.5 0 -0.5 0.8 -1.3 1.7 -1.6 1 -0.4 2.7 -1.7 3.9 -3 1.2 -1.3 2.6 -2.3 3.3 -2.3 0.6 0 1.1 -0.7 1.1 -1.5 0 -0.9 0.9 -3.3 2 -5.5 1.1 -2.1 2.3 -7 2.6 -10.9 l0.7 -7.1 3.3 0 c3.4 0 3.4 0 3.4 4.9 0 10 -3.8 23.1 -6.7 23.1 -0.7 0 -1.3 0.7 -1.3 1.5 0 1.9 -3.1 5.5 -4.6 5.5 -0.7 0 -1.4 0.7 -1.8 1.5 -0.3 0.8 -1.3 1.5 -2.1 1.5 -0.9 0 -2.3 0.7 -3.1 1.5 -0.9 0.8 -3.1 1.5 -5 1.5 -1.9 0 -3.4 0.5 -3.4 1 0 0.6 -3.3 1 -8 1 -4.4 0 -8 -0.4 -8 -0.9z"/>
 </g>
 <g fill="#313131">
  <path d="M198.3 816.3 c-5.5 -3.1 -16.3 -14.2 -35.8 -36.7 -6.6 -7.7 -18.7 -21.6 -26.8 -31 -8.2 -9.4 -20.4 -23.6 -27.2 -31.6 -6.8 -8 -14 -16.3 -16 -18.5 -2.1 -2.2 -6.5 -7.4 -9.8 -11.5 -3.3 -4.1 -7.1 -8.6 -8.5 -10 -1.3 -1.4 -7.2 -8.1 -13.1 -15 -5.8 -6.9 -14.8 -17.4 -20.1 -23.5 -34.1 -39.3 -39.9 -47.2 -40 -54.1 0 -3.2 2 -8.4 3.3 -8.4 0.4 0 0.7 -0.5 0.7 -1 0 -0.6 1.7 -2.7 3.9 -4.8 2.1 -2 4 -4.1 4.2 -4.7 0.4 -1.1 13.9 -12.8 18.5 -16 1.5 -1.1 4.6 -3.7 6.8 -5.7 13.4 -12.1 16.8 -15.1 23.1 -20.5 3.9 -3.3 7.6 -6.7 8.4 -7.6 0.7 -1 2 -1.7 2.7 -1.7 0.8 0 1.4 -0.4 1.4 -0.8 0 -0.5 4.8 -5 10.7 -9.9 10.3 -8.7 29.3 -25 57.7 -49.6 7 -6.1 16.1 -13.8 20 -17.2 4 -3.3 13.7 -11.6 21.6 -18.5 7.8 -6.9 17.5 -15.1 21.4 -18.4 3.9 -3.2 7.3 -6.1 7.6 -6.5 0.4 -0.6 40 -34.5 52.6 -45.1 4.2 -3.5 34.6 -29.7 45.9 -39.5 12.3 -10.7 43 -37 44.4 -38 0.7 -0.5 3.9 -3.3 7 -6 5.7 -5.2 26.6 -23.1 40.1 -34.5 4.1 -3.4 8.9 -6.9 10.6 -7.6 10.5 -4.5 73.6 -12.6 99.4 -12.8 15.3 -0.1 16.9 0.1 22.5 2.3 7.3 2.9 13.5 8.6 29.5 27.1 15.4 17.8 18.1 20.1 21.8 19.1 2.5 -0.8 3.2 -0.5 5.5 2.5 1.9 2.3 2.7 4.5 2.7 7.1 0 3.6 -0.5 4.2 -10.3 11.9 -5.6 4.4 -11.4 8.9 -12.9 9.9 -3.2 2 -7.8 1.7 -14.8 -1 -5.4 -2 -12.4 -1.4 -18.5 1.6 -5.1 2.5 -12.1 8.7 -12.9 11.7 -0.4 1.2 -1.2 2.2 -1.7 2.2 -0.5 0 -0.9 0.8 -0.9 1.8 0 0.9 -0.7 3 -1.5 4.6 -1.7 3.1 -1.9 7.7 -0.7 10.4 0.5 0.9 1.9 3.8 3.1 6.3 3.4 7 8.7 11.8 16.1 14.7 3.6 1.3 7.6 2.4 9 2.4 3.9 -0.1 9 -1.3 9 -2.2 0 -0.4 1.2 -1.1 2.7 -1.5 8.7 -2.1 16.1 -14.9 16.9 -29.3 0.3 -4.8 1 -9.8 1.5 -11.2 0.6 -1.4 5.8 -6.4 11.6 -11.2 8.8 -7.3 11.2 -8.8 14 -8.8 3.1 0 3.3 0.1 1.9 1.6 -1.2 1.1 -1.3 2 -0.6 3.4 1.6 2.9 3.2 3.5 4.6 1.5 1.2 -1.6 1.4 -1.6 3 -0.1 0.9 1 2.7 2.4 4 3.3 2 1.3 2.4 2.4 2.4 6.7 0 4.2 0.6 5.8 3.3 9.3 8 10.4 11.7 15 14.2 17.8 4.2 4.7 8.4 11 11 16.7 3.2 6.9 3.3 16.7 0.3 29.2 -4.5 19 -12 49.4 -13.8 55.6 -1 3.6 -2.6 9.4 -3.5 13 -2.9 10.8 -7.5 21.1 -12.1 27 -5.5 7.1 -17.9 18.7 -54.4 51 -16.5 14.6 -142.8 123.6 -157.5 135.9 -1.1 0.9 -7.4 6.4 -14 12.2 -19.6 17.1 -53.3 46.1 -57.9 49.9 -4.1 3.3 -10.9 9.1 -36.1 31.1 -5.5 4.8 -15.4 13.4 -22.1 19.1 -6.6 5.7 -14.7 12.6 -17.9 15.3 -3.1 2.8 -7.5 6.2 -9.7 7.7 -2.2 1.5 -5 3.8 -6.2 5 -1.3 1.3 -3.7 3.4 -5.5 4.8 -3.3 2.5 -4.5 3.6 -14.1 12.3 -6.8 6.2 -10.1 7.8 -16.9 8.4 -4.2 0.3 -6.4 0 -8.8 -1.4z m353.5 -469 c-1.6 -0.2 -4 -0.2 -5.5 0 -1.6 0.2 -0.3 0.4 2.7 0.4 3 0 4.3 -0.2 2.8 -0.4z m-34.1 -35 c-0.2 -2.1 -0.4 -0.4 -0.4 3.7 0 4.1 0.2 5.8 0.4 3.8 0.2 -2.1 0.2 -5.5 0 -7.5z m64 0 c-0.3 -1 -0.5 -0.2 -0.5 1.7 0 1.9 0.2 2.7 0.5 1.8 0.2 -1 0.2 -2.6 0 -3.5z"/>
 </g>
 <g fill="#3a3a3a">
  <path d="M540.8 345.9 c-2.9 -1.6 -2.1 -2.9 1.7 -2.9 2.8 0 3.5 0.4 3.5 2 0 2.2 -2.4 2.6 -5.2 0.9z"/>
  <path d="M552 345.1 c0 -2 2.5 -3.1 7.3 -3.1 1.7 0 2.7 -0.5 2.7 -1.5 0 -0.8 0.7 -1.5 1.5 -1.5 0.8 0 1.5 -0.4 1.5 -1 0 -0.5 1.7 -1 3.8 -1 l3.7 0.1 -3.3 2.8 c-3.2 2.8 -12.9 7.1 -15.8 7.1 -0.8 0 -1.4 -0.8 -1.4 -1.9z"/>
  <path d="M529.9 340.8 l-4.4 -3.3 3.5 -0.3 c1.9 -0.2 3.6 0.1 3.8 0.7 0.2 0.6 1 1.1 1.8 1.1 0.8 0 1.4 1 1.4 2.5 0 3.3 -0.8 3.2 -6.1 -0.7z"/>
  <path d="M520.5 328.8 c-2.9 -6.3 -3.1 -8.8 -0.7 -8.8 2 0 5.2 7 5.2 11.3 0 4.2 -1.9 3.2 -4.5 -2.5z"/>
  <path d="M518 310.5 c0 -2.5 2.8 -8.5 3.9 -8.5 1.2 0 1.4 4.2 0.5 7.8 -0.7 2.5 -4.4 3.1 -4.4 0.7z"/>
  <path d="M578 303.4 c0 -4.3 4.2 -9.4 7.7 -9.4 1.5 0 2.3 -0.6 2.3 -1.8 0 -2.3 1.9 -4.2 4.1 -4.2 0.9 0 1.9 -0.9 2.2 -2.1 0.3 -1.1 1.5 -2.3 2.6 -2.6 1.2 -0.3 2.1 -0.9 2.1 -1.4 0 -0.5 1.6 -0.9 3.5 -0.9 4 0 4.4 0.9 1.3 2.9 -6.6 4 -20.8 16.9 -22 19.9 -1.6 4.4 -3.8 4.2 -3.8 -0.4z"/>
  <path d="M522 300.3 c0 -1.3 4.4 -7 6.2 -8.2 1.6 -1 1.8 -0.8 1.8 1.9 0 2 -0.5 3 -1.5 3 -0.8 0 -1.5 0.9 -1.5 2 0 1.5 -0.7 2 -2.5 2 -1.4 0 -2.5 -0.3 -2.5 -0.7z"/>
  <path d="M618.7 297.3 c-0.7 -1.8 -2.2 -3.2 -8.5 -7.9 -0.7 -0.5 1 -4.4 1.9 -4.4 1.7 0 5.9 4.3 5.9 6.1 0 1 0.5 1.9 1.1 2.1 0.6 0.2 0.9 1.7 0.7 3.3 -0.3 2.7 -0.4 2.8 -1.1 0.8z"/>
  <path d="M561 288.5 c0 -2.8 0.3 -2.9 3.1 -1.4 2.5 1.3 3.5 0.6 17.6 -10.5 5.7 -4.5 10.3 -8.6 10.3 -9.2 0 -0.6 -0.7 -1.7 -1.6 -2.5 -0.8 -0.7 -2.2 -2.5 -2.9 -4 -1.3 -2.5 -1.3 -2.7 0.7 -3.2 2.4 -0.7 4.7 1.6 4.8 4.6 0 0.9 0.7 1.7 1.5 1.7 1.1 0 1.5 1.1 1.5 4 0 2.8 -0.4 4 -1.4 4 -0.8 0 -1.6 0.7 -2 1.5 -0.3 0.8 -1.4 1.5 -2.5 1.5 -1 0 -2.1 0.9 -2.4 2 -0.3 1.1 -1.4 2 -2.5 2 -1.1 0 -2.2 0.9 -2.5 2 -0.3 1.2 -1.4 2 -2.6 2 -1.2 0 -2.1 0.6 -2.1 1.5 0 0.8 -0.9 1.5 -2 1.5 -1.1 0 -2 0.7 -2 1.5 0 2.1 -3.3 3.5 -8.4 3.5 -4.2 0 -4.6 -0.2 -4.6 -2.5z"/>
  <path d="M541 286.6 c0 -1.3 2.8 -2.6 5.8 -2.6 0.6 0 1.2 0.9 1.2 2 0 1.6 -0.7 2 -3.5 2 -2.3 0 -3.5 -0.5 -3.5 -1.4z"/>
  <path d="M553 286 c0 -2.1 1 -2.4 4.8 -1.4 3.6 1 2.7 3.4 -1.3 3.4 -2.8 0 -3.5 -0.4 -3.5 -2z"/>
 </g>
 <g fill="#424242">
  <path d="M560 342.5 c0 -2.1 0.5 -2.5 3 -2.5 2.2 0 3 -0.5 3 -1.8 0 -2.6 3.2 -5.2 6.4 -5.2 2.6 0 2.6 0 1 2.6 -1.7 2.5 -8.3 7.5 -11.6 8.7 -1.4 0.5 -1.8 0.1 -1.8 -1.8z"/>
  <path d="M526.6 337.7 c-5.3 -5.4 -6.5 -8.7 -3 -8.7 1.5 0 2.4 0.6 2.4 1.5 0 0.8 0.5 1.5 1 1.5 0.6 0 1 0.9 1 2 0 1.3 0.7 2 2 2 1.6 0 2 0.7 2 3 0 1.7 -0.2 3 -0.5 3 -0.3 0 -2.5 -1.9 -4.9 -4.3z"/>
  <path d="M576 325.1 c0 -1 0.3 -3.9 0.6 -6.5 0.5 -3.7 1.1 -4.6 2.6 -4.6 2.1 0 2.1 0.5 0.2 10.3 -0.6 3 -3.4 3.7 -3.4 0.8z"/>
  <path d="M567 312.5 c0 -3.3 0.2 -3.5 3.5 -3.5 3.3 0 3.5 0.2 3.5 3.5 0 3.3 -0.2 3.5 -3.5 3.5 -3.3 0 -3.5 -0.2 -3.5 -3.5z"/>
  <path d="M577 306.5 c0 -3.8 0.3 -4.5 2 -4.5 1.7 0 2 0.7 2 4.5 0 3.8 -0.3 4.5 -2 4.5 -1.7 0 -2 -0.7 -2 -4.5z"/>
  <path d="M520.3 303.8 c1.9 -4.6 3.7 -4.8 3.7 -0.4 0 3.2 -0.3 3.6 -2.5 3.6 -2.4 0 -2.5 -0.1 -1.2 -3.2z"/>
  <path d="M584.2 295.9 c0.3 -3 0.7 -3.4 3.5 -3.7 2.6 -0.3 3.2 -0.8 3.5 -3 0.2 -2.1 0.9 -2.8 3.1 -3 1.9 -0.2 2.7 -0.9 2.7 -2.2 0 -2.3 4.7 -5 8.5 -5 1.4 0 2.5 0.3 2.5 0.6 0 0.9 -2.3 3 -4.8 4.3 -1.3 0.7 -5.3 3.8 -9 6.9 -11.2 9.5 -10.4 9.1 -10 5.1z"/>
  <path d="M560 294.5 c0 -2.1 0.5 -3.5 1.3 -3.5 1.9 -0.1 -5.3 -3 -7.4 -3 -1.3 0 -1.9 -0.7 -1.9 -2.1 0 -1.9 0.4 -2 4.3 -1.4 2.3 0.4 5.2 1.3 6.4 2.1 1.2 0.8 2.9 1.4 3.6 1.4 0.8 0 6.3 -3.9 12.3 -8.6 6 -4.7 11.7 -9.2 12.7 -9.9 1.7 -1.2 1.6 -1.5 -1.5 -5.9 -2.7 -3.9 -3 -4.9 -1.8 -5.6 2.2 -1.4 3 -1.2 3.7 0.8 0.4 0.9 1.5 2.3 2.5 3 3 2.2 2 11.2 -1.2 11.2 -1 0 -2 0.9 -2.3 2 -0.3 1.1 -1.3 2.3 -2.4 2.7 -1 0.3 -2.2 1.2 -2.6 2 -0.4 0.7 -1.7 1.3 -2.7 1.3 -1.1 0 -2 0.6 -2 1.4 0 1.5 -6.2 6.6 -7.9 6.6 -0.6 0 -1.1 0.4 -1.1 1 0 0.5 -1.1 1.2 -2.5 1.6 -1.9 0.5 -2.5 1.3 -2.5 3.5 0 2.6 -0.3 2.9 -3.5 2.9 -3.3 0 -3.5 -0.2 -3.5 -3.5z"/>
  <path d="M614.9 292.8 c-3.3 -3.4 -4.5 -5.5 -4.2 -6.9 0.8 -2.9 3.3 -2.3 4 1.1 0.4 2.3 1.1 3 2.9 3 2.1 0 2.4 0.5 2.4 4 0 2.2 -0.1 3.9 -0.2 3.9 -0.2 -0.1 -2.4 -2.4 -4.9 -5.1z"/>
  <path d="M531 290.2 c0 -0.8 5.2 -4.2 6.4 -4.2 0.3 0 0.6 1.1 0.6 2.5 0 2.2 -0.4 2.5 -3.5 2.5 -1.9 0 -3.5 -0.4 -3.5 -0.8z"/>
  <path d="M542 286.6 c0 -1.3 2.8 -2.6 5.8 -2.6 0.6 0 1.2 0.9 1.2 2 0 1.6 -0.7 2 -3.5 2 -2.3 0 -3.5 -0.5 -3.5 -1.4z"/>
 </g>
 <g fill="#4a4a4a">
  <path d="M539 345.3 c-4.8 -1.7 -14 -7.8 -14 -9.4 0 -0.5 1.4 -0.9 3 -0.9 2 0 3 0.5 3 1.5 0 0.8 0.9 1.5 2 1.5 1.1 0 2 0.4 2 0.8 0 0.5 2.7 1.7 6 2.7 4.5 1.4 6 2.3 6 3.7 0 2.2 -1.9 2.2 -8 0.1z"/>
  <path d="M551 345 c0 -1.6 0.7 -2 3.5 -2 4 0 4.9 2.4 1.3 3.4 -3.8 1 -4.8 0.7 -4.8 -1.4z"/>
  <path d="M563 340.5 c0 -2.2 0.4 -2.5 3.8 -2.5 l3.7 0.1 -2.8 2.4 c-3.6 3.2 -4.7 3.1 -4.7 0z"/>
  <path d="M572 332.8 c0 -3.4 0.3 -3.8 2.5 -3.8 3.1 0 3.2 1.1 0 4.7 l-2.4 2.8 -0.1 -3.7z"/>
  <path d="M565.4 314.3 c-1.2 -1.6 -2.4 -3.9 -2.7 -5.3 -0.4 -1.4 -2.2 -4.2 -4.2 -6.3 -1.9 -2.1 -3.5 -4.2 -3.5 -4.7 0 -0.5 1.8 -2.8 4 -5 2.2 -2.2 4 -4.6 4 -5.2 0 -0.7 0.5 -0.6 1.5 0.2 1.2 1 2 0.9 4.2 -0.5 5.9 -3.8 24.3 -19.1 24.3 -20.1 0 -0.6 -0.7 -1.7 -1.6 -2.5 -0.8 -0.7 -2.2 -2.5 -2.9 -4 -1.9 -3.6 -1 -3.9 12.1 -4.7 9.5 -0.7 10.5 -0.9 15 -4.2 6.9 -4.9 23 -17.6 30 -23.7 3.2 -2.8 12 -10.3 19.4 -16.5 7.5 -6.2 26.3 -22.1 41.9 -35.3 15.6 -13.2 30 -25.3 32.1 -27 10.3 -8.2 23.6 -19 24 -19.5 0.6 -0.7 30.3 -24.7 34.1 -27.5 14.5 -11 18.2 -13.7 23.4 -17.4 13.9 -9.7 38.6 -25.1 40.4 -25.1 0.6 0 1.1 -0.4 1.1 -0.8 0 -0.5 1.5 -1.6 3.3 -2.5 1.7 -0.9 4.1 -2.3 5.2 -2.9 1 -0.7 4.8 -3 8.2 -5.2 7.3 -4.4 8.9 -6.6 7.2 -9.7 -1 -1.9 -0.5 -2.7 3.3 -6.6 l4.3 -4.4 6.3 0.6 c7.5 0.8 8.3 0.4 23.8 -11.7 12.2 -9.6 19.5 -14.8 20.7 -14.8 0.4 0 1.6 1.3 2.5 3 2.2 3.9 4.9 3.9 14.3 0 4.1 -1.7 9.8 -3.4 12.7 -3.7 5 -0.6 5.2 -0.5 5.2 1.9 0 3 -3.1 4.8 -22.5 13.3 -13 5.7 -37.2 17.7 -43.2 21.4 -1.7 1.1 -4.9 4.4 -7.1 7.4 -5.2 7 -8.3 9 -11.7 7.7 -4.8 -1.8 -13.3 3.8 -37.5 24.9 -19.7 17.3 -37.2 34.2 -68.1 66.1 -42.1 43.5 -50 50.7 -70.9 65.7 -5.2 3.7 -42.3 27.7 -49 31.6 -2.5 1.4 -10.1 6.3 -17 10.7 -6.9 4.4 -13.6 8.6 -15 9.3 -4.8 2.3 -14.8 9.6 -15.4 11.2 -0.3 0.9 -0.7 5.3 -0.7 9.8 -0.1 4.5 -0.4 9.4 -0.8 10.9 l-0.6 2.7 -4.2 -3.5 c-3.5 -2.9 -4.3 -4.2 -4.3 -7 0 -7.3 -4.1 -5.7 -19.3 7.4 -10.4 8.9 -12 11.3 -11.1 16.2 0.5 2 0.3 3 -0.6 3 -0.7 0 -2.5 1.1 -4.2 2.5 -4 3.4 -7.9 3.3 -10.4 -0.2z m83.4 -70.7 c25.1 -15 37.9 -23.1 59.7 -37.5 15.2 -10.1 27.7 -20.5 44 -36.7 16.4 -16.2 57.6 -58.9 64.4 -66.6 3.5 -4.1 3.5 -6.6 -0.1 -4.7 -3.2 1.7 -35.6 27.2 -50.8 40 -2.5 2.1 -18.4 15.4 -35.5 29.5 -17 14.1 -37.5 31.4 -45.4 38.3 -8 6.9 -19.9 17.3 -26.5 23.1 -6.7 5.8 -14.5 12.5 -17.3 14.9 -5.2 4.3 -6.4 6.1 -4.2 6.1 0.5 0 5.8 -2.9 11.7 -6.4z"/>
  <path d="M521.3 301.8 c1.9 -4.6 3.7 -4.8 3.7 -0.4 0 3.2 -0.3 3.6 -2.5 3.6 -2.4 0 -2.5 -0.1 -1.2 -3.2z"/>
  <path d="M529.3 291.2 c2.8 -3.1 9.9 -6 16.4 -6.7 7.2 -0.8 12.3 0.1 12.3 2.1 0 1.1 -1.5 1.4 -6.2 1.4 -7.7 0 -16.8 2 -16.8 3.7 0 0.8 -1.4 1.3 -3.7 1.3 -3.4 0 -3.5 -0.1 -2 -1.8z"/>
 </g>
 <g fill="#525252">
  <path d="M554 344.1 c0 -2 2.5 -3.1 7.3 -3.1 3.8 0 3.4 1.8 -0.8 3.6 -4.6 1.9 -6.5 1.8 -6.5 -0.5z"/>
  <path d="M526.1 336.9 l-3.5 -3.4 2.8 -0.3 c3.6 -0.4 4.8 0.8 4.4 4.4 l-0.3 2.8 -3.4 -3.5z"/>
  <path d="M574 329.3 c0 -1.6 0.7 -4.6 1.5 -6.8 0.8 -2.2 1.4 -5.2 1.5 -6.7 0 -2.4 -0.4 -2.8 -2.6 -2.8 -2.3 0 -2.5 -0.2 -1.3 -1.6 0.7 -0.8 2.5 -2.2 4 -2.9 2.4 -1.3 2.8 -1.3 3.3 0.2 0.4 0.9 0.1 2 -0.6 2.5 -1.1 0.6 -1 1 0 1.7 2.5 1.6 -1.9 19.1 -4.8 19.1 -0.6 0 -1 -1.2 -1 -2.7z"/>
  <path d="M519.4 325.5 c-1.9 -4.6 -1.8 -6.5 0.5 -6.5 2 0 3.1 2.5 3.1 7.3 0 3.8 -1.8 3.4 -3.6 -0.8z"/>
  <path d="M566.6 316.4 c-0.8 -2.2 -0.9 -2.1 1.9 -2.6 2.1 -0.4 2.5 -0.1 2.5 1.8 0 2.8 -3.4 3.4 -4.4 0.8z"/>
  <path d="M518 311.8 c0 -3 1.3 -5.8 2.6 -5.8 0.9 0 1.4 1.2 1.4 3.5 0 2.8 -0.4 3.5 -2 3.5 -1.1 0 -2 -0.6 -2 -1.2z"/>
  <path d="M555.7 299.9 c-0.9 -1 -1.2 -1.9 -0.7 -1.9 0.6 0 1 -0.7 1 -1.5 0 -1 1 -1.5 3 -1.5 2.7 0 3 -0.3 3 -3 0 -2.7 -0.3 -3 -3 -3 -2.3 0 -3 -0.4 -3 -2 0 -1.3 0.7 -2 2 -2 1.1 0 2.9 0.9 4 2 1.1 1.1 2.5 2 3 2 1.6 0 1.2 3.7 -0.5 4.3 -0.8 0.4 -2.7 2.4 -4.3 4.6 -2.8 3.8 -2.9 3.9 -4.5 2z"/>
  <path d="M545 286.6 c0 -1.6 2.5 -2.4 5.3 -1.8 3.2 0.8 1.9 3.2 -1.8 3.2 -2.4 0 -3.5 -0.5 -3.5 -1.4z"/>
 </g>
 <g fill="#5a5a5a">
  <path d="M542.8 346.3 c-3.3 -0.8 -2 -3.3 1.7 -3.3 2.8 0 3.5 0.4 3.5 2 0 2 -1.4 2.3 -5.2 1.3z"/>
  <path d="M550 345 c0 -1.6 0.7 -2 3.5 -2 4 0 4.9 2.4 1.3 3.4 -3.8 1 -4.8 0.7 -4.8 -1.4z"/>
  <path d="M573 330.5 c0 -3.1 0.3 -3.5 2.6 -3.5 1.4 0 2.4 0.3 2.2 0.8 -3.5 7.3 -4.8 8 -4.8 2.7z"/>
  <path d="M577 310.4 c0 -3.3 3.3 -3 3.8 0.4 0.3 1.7 -0.2 2.2 -1.7 2.2 -1.6 0 -2.1 -0.6 -2.1 -2.6z"/>
  <path d="M519 308.5 c0 -2.3 4.9 -12.1 7.1 -14.1 1.8 -1.7 1.9 -1.6 1.9 1.9 0 2.1 -0.4 3.7 -1 3.7 -0.5 0 -1 0.7 -1 1.5 0 0.8 -0.7 1.5 -1.5 1.5 -1 0 -1.5 1.1 -1.5 3.5 0 2.8 -0.4 3.5 -2 3.5 -1.1 0 -2 -0.7 -2 -1.5z"/>
  <path d="M560 288.5 c0 -2.9 0.7 -3.1 3.8 -0.9 3 2.1 2.8 3.4 -0.8 3.4 -2.5 0 -3 -0.4 -3 -2.5z"/>
  <path d="M537 287.6 c0 -1.3 2.8 -2.6 5.8 -2.6 0.6 0 1.2 0.9 1.2 2 0 1.6 -0.7 2 -3.5 2 -2.3 0 -3.5 -0.5 -3.5 -1.4z"/>
 </g>
 <g fill="#636363">
  <path d="M543.8 346.3 c-1 -0.2 -1.8 -1.1 -1.8 -1.9 0 -1.1 1.6 -1.4 7 -1.4 5.3 0 7 0.3 7 1.4 0 2.2 -7 3.3 -12.2 1.9z"/>
  <path d="M524.8 335.3 c-1.7 -2 -3.3 -4.9 -4.8 -8.7 -0.9 -2.4 -0.7 -2.6 1.5 -2.6 2.1 0 2.5 0.5 2.5 3 0 2 0.5 3 1.5 3 1 0 1.5 1.1 1.5 3.5 0 4 -0.1 4.1 -2.2 1.8z"/>
  <path d="M571 333.8 c0 -3.4 0.3 -3.8 2.5 -3.8 3.1 0 3.2 1.1 0 4.7 l-2.4 2.8 -0.1 -3.7z"/>
  <path d="M576.4 319.5 c0.6 -5.4 0.6 -5.5 -1.9 -5.5 -1.8 0 -2.5 0.5 -2.5 2 0 2.4 -4.5 2.8 -5.4 0.5 -0.3 -0.8 -0.2 -1.5 0.3 -1.5 0.5 0 3.1 -1.5 5.9 -3.4 4.3 -3 5.2 -3.3 6.7 -2.2 1.5 1.1 1.7 2.1 1.1 6.2 -1.2 7.8 -1.7 9.4 -3.3 9.4 -1.3 0 -1.5 -0.9 -0.9 -5.5z"/>
  <path d="M555.6 299.4 c-1.1 -2.8 -0.7 -3.4 2.4 -3.4 3 0 3 0 1.4 2.5 -1.9 2.9 -2.9 3.1 -3.8 0.9z"/>
 </g>
 <g fill="#6b6b6b">
  <path d="M544.8 346.3 c-1 -0.2 -1.8 -1.1 -1.8 -1.9 0 -1.1 1.5 -1.4 6 -1.4 4.4 0 6 0.4 6 1.4 0 2.1 -5.5 3.2 -10.2 1.9z"/>
  <path d="M538.3 344.8 c-4.5 -1.5 -4.3 -3.8 0.2 -3.8 3.1 0 3.5 0.3 3.5 2.5 0 1.4 -0.1 2.5 -0.2 2.4 -0.2 -0.1 -1.8 -0.6 -3.5 -1.1z"/>
  <path d="M522.6 332.1 c-0.3 -0.4 -1 -2 -1.5 -3.5 -1 -2.4 -0.8 -2.6 1.4 -2.6 2.2 0 2.5 0.4 2.5 3.5 0 3.3 -1.2 4.6 -2.4 2.6z"/>
  <path d="M518.6 322.8 c-1 -3.8 -0.7 -4.8 1.4 -4.8 1.6 0 2 0.7 2 3.5 0 4 -2.4 4.9 -3.4 1.3z"/>
  <path d="M567 316.3 c0.1 -0.9 10.7 -8.3 12 -8.3 1.2 0 1.9 2.6 1.3 4.9 -0.6 2.4 -3.3 2.9 -3.3 0.6 0 -0.8 -0.7 -1.5 -1.5 -1.5 -0.9 0 -1.5 0.9 -1.5 2.5 0 2.2 -0.4 2.5 -3.5 2.5 -1.9 0 -3.5 -0.3 -3.5 -0.7z"/>
  <path d="M518 312.8 c0 -3 1.3 -5.8 2.6 -5.8 0.9 0 1.4 1.2 1.4 3.5 0 2.8 -0.4 3.5 -2 3.5 -1.1 0 -2 -0.6 -2 -1.2z"/>
  <path d="M527 293.5 c0 -0.7 8.1 -6.5 9.2 -6.5 0.4 0 0.8 1.1 0.8 2.5 0 1.6 -0.6 2.5 -1.5 2.5 -0.8 0 -1.5 0.5 -1.5 1 0 0.6 -1.6 1 -3.5 1 -1.9 0 -3.5 -0.2 -3.5 -0.5z"/>
  <path d="M561.7 292.4 c-0.4 -0.4 -0.7 -2 -0.7 -3.6 0 -2.8 0 -2.8 2.5 -1.2 1.4 0.9 2.5 2.4 2.3 3.3 -0.3 1.7 -2.9 2.6 -4.1 1.5z"/>
  <path d="M538 287.6 c0 -1.3 2.8 -2.6 5.8 -2.6 0.6 0 1.2 0.9 1.2 2 0 1.6 -0.7 2 -3.5 2 -2.3 0 -3.5 -0.5 -3.5 -1.4z"/>
 </g>
 <g fill="#737373">
  <path d="M543.7 346 c-3.8 -0.7 -6.6 -2.5 -5.5 -3.5 1.1 -1.2 15.8 0.7 15.8 2 0 0.7 -1 1.5 -2.2 1.9 -2.6 0.7 -2.9 0.6 -8.1 -0.4z"/>
  <path d="M564 340.1 c0 -2.8 0.3 -3.1 3 -3.1 2.7 0 3 -0.3 3 -3 0 -2.7 0.3 -3 3.1 -3 l3 0 -1.9 2.8 c-1.9 2.6 -4.7 5.3 -8.4 8.1 -1.6 1.2 -1.8 1 -1.8 -1.8z"/>
  <path d="M520.3 304.8 c1.9 -4.6 3.7 -4.8 3.7 -0.4 0 3.2 -0.3 3.6 -2.5 3.6 -2.4 0 -2.5 -0.1 -1.2 -3.2z"/>
  <path d="M555.3 299.5 c-1.9 -2.1 -1.6 -2.5 1.7 -2.5 2.8 0 2.9 0.2 1.8 2 -1.5 2.3 -1.9 2.4 -3.5 0.5z"/>
  <path d="M562 292.2 c0 -3 -0.2 -3.2 -3.5 -3.2 -2.9 0 -3.5 -0.4 -3.5 -2.1 0 -1.9 0.4 -2.1 3 -1.5 1.7 0.3 4.3 1.7 5.8 3.1 l2.7 2.5 -2.3 2.2 -2.2 2.2 0 -3.2z"/>
  <path d="M539 287.6 c0 -1.3 2.8 -2.6 5.8 -2.6 0.6 0 1.2 0.9 1.2 2 0 1.6 -0.7 2 -3.5 2 -2.3 0 -3.5 -0.5 -3.5 -1.4z"/>
 </g>
 <g fill="#7b7b7b">
  <path d="M546.8 346.3 c-1 -0.3 -1.8 -1 -1.8 -1.7 0 -0.9 2.2 -1.6 6.6 -2 3.6 -0.4 7.3 -1.3 8.1 -2.1 0.8 -0.8 3.1 -1.5 5 -1.5 3.5 0 3.6 0 1.8 2 -2.7 3 -15.1 6.3 -19.7 5.3z"/>
  <path d="M530.9 340.8 l-4.4 -3.3 3.5 -0.3 c1.9 -0.2 3.6 0.1 3.8 0.7 0.2 0.6 1 1.1 1.8 1.1 0.8 0 1.4 1 1.4 2.5 0 3.3 -0.8 3.2 -6.1 -0.7z"/>
  <path d="M520.1 326.2 c-0.5 -0.9 -1.2 -3.4 -1.6 -5.5 -0.6 -3.3 -0.5 -3.7 1.3 -3.7 1.4 0 2.1 0.9 2.6 3.1 1.3 6.9 0 10.4 -2.3 6.1z"/>
  <path d="M576 320.5 c0 -2.8 0.4 -3.5 2 -3.5 2.1 0 2.4 1 1.4 4.8 -1 3.6 -3.4 2.7 -3.4 -1.3z"/>
  <path d="M518 313.8 c0 -3 1.3 -5.8 2.6 -5.8 0.9 0 1.4 1.2 1.4 3.5 0 2.8 -0.4 3.5 -2 3.5 -1.1 0 -2 -0.6 -2 -1.2z"/>
  <path d="M570.5 314 c0.3 -0.5 1.9 -1.9 3.5 -3 l3 -2.1 0 3 c0 2.9 -0.3 3.1 -3.6 3.1 -2 0 -3.3 -0.4 -2.9 -1z"/>
  <path d="M525 296 c1.1 -1.6 3.4 -3.9 5 -5 l3 -2.1 0 3 c0 2.4 -0.4 3.1 -2 3.1 -1.3 0 -2 0.7 -2 2 0 1.6 -0.7 2 -3.1 2 l-3 0 2.1 -3z"/>
  <path d="M540 287.6 c0 -1.3 2.8 -2.6 5.8 -2.6 0.6 0 1.2 0.9 1.2 2 0 1.6 -0.7 2 -3.5 2 -2.3 0 -3.5 -0.5 -3.5 -1.4z"/>
 </g>
 <g fill="#848484">
  <path d="M556 343 c0 -1.6 0.7 -2 3.5 -2 3.9 0 4.6 1.4 1.6 3 -3.1 1.6 -5.1 1.2 -5.1 -1z"/>
  <path d="M523 332.3 c-0.8 -1.6 -1.6 -3.1 -1.8 -3.5 -0.2 -0.5 0.8 -0.8 2.2 -0.8 2.3 0 2.6 0.4 2.6 3.5 0 4.2 -1.2 4.5 -3 0.8z"/>
  <path d="M575 327.1 c0 -1 0.3 -3.9 0.6 -6.5 0.5 -3.7 1.1 -4.6 2.6 -4.6 1.7 0 1.9 0.5 1.2 4.8 -0.7 5.2 -2 8.2 -3.4 8.2 -0.6 0 -1 -0.8 -1 -1.9z"/>
  <path d="M518.5 319.9 c-1.5 -6.6 2.4 -19.1 7.7 -25.1 3.3 -3.7 10.8 -8.8 13 -8.8 2.2 0 2.5 3.5 0.2 4.4 -0.9 0.3 -2.9 0.6 -4.5 0.6 -2.4 0 -2.9 0.4 -2.9 2.5 0 2 -0.5 2.5 -2.5 2.5 -2.1 0 -2.5 0.5 -2.5 3 0 1.7 -0.4 3 -1 3 -0.5 0 -1 0.9 -1 1.9 0 1.1 -0.5 2.1 -1.1 2.3 -0.6 0.2 -1.3 4.1 -1.6 8.6 -0.4 5.7 -1 8.2 -1.9 8.2 -0.7 0 -1.5 -1.4 -1.9 -3.1z"/>
  <path d="M558 288 c0 -1.3 0.7 -2 1.8 -2 1.1 0 2.7 0.9 3.7 2 1.8 2 1.7 2 -1.8 2 -3 0 -3.7 -0.4 -3.7 -2z"/>
 </g>
 <g fill="#8c8c8c">
  <path d="M533.8 342.6 c-2.6 -2 -2.2 -2.6 1.7 -2.6 2.8 0 3.5 0.4 3.5 2 0 2.3 -2.6 2.6 -5.2 0.6z"/>
  <path d="M525.1 335.4 c-2.7 -3.5 -2.6 -4.4 0.4 -4.4 2.2 0 2.5 0.4 2.5 3.5 0 1.9 -0.2 3.5 -0.4 3.5 -0.3 0 -1.4 -1.2 -2.5 -2.6z"/>
  <path d="M518.6 319.8 c-1 -3.8 -0.7 -4.8 1.4 -4.8 1.6 0 2 0.7 2 3.5 0 4 -2.4 4.9 -3.4 1.3z"/>
  <path d="M566.4 317 c0 -1.1 0.5 -2 1.1 -2 0.6 0 3.4 -1.6 6.1 -3.5 2.7 -1.9 5.2 -3.5 5.6 -3.5 0.5 0 0.8 1.1 0.8 2.5 0 1.8 -0.5 2.5 -2 2.5 -1.1 0 -2 0.7 -2 1.5 0 1 -1 1.5 -3 1.5 -2 0 -3 0.5 -3 1.5 0 0.8 -0.8 1.5 -1.8 1.5 -1.1 0 -1.8 -0.7 -1.8 -2z"/>
  <path d="M525.5 295.6 c2.5 -3.8 4.5 -4.1 4.5 -0.6 0 2.7 -0.3 3 -3 3 -3 0 -3 0 -1.5 -2.4z"/>
  <path d="M560 293.7 c0 -3.4 0.2 -3.7 3 -3.7 2.6 0 2.9 0.3 2.1 1.8 -0.5 0.9 -1.9 2.6 -3 3.6 -2.1 1.9 -2.1 1.9 -2.1 -1.7z"/>
  <path d="M554 287 c0 -2.1 1 -2.4 4.8 -1.4 3.6 1 2.7 3.4 -1.3 3.4 -2.8 0 -3.5 -0.4 -3.5 -2z"/>
 </g>
 <g fill="#949494">
  <path d="M569 335.8 c0 -3.1 0.3 -3.8 2 -3.8 1.5 0 2 -0.7 2 -2.7 0 -3.8 1.3 -5.5 3.8 -5.1 2.1 0.3 2.1 0.3 0.3 4.3 -1.1 2.2 -3.3 5.6 -5 7.5 l-3 3.5 -0.1 -3.7z"/>
  <path d="M518.6 318.4 c-0.9 -3.6 0.2 -8.4 2 -8.4 1 0 1.4 1.4 1.4 5.5 0 4 -0.4 5.5 -1.4 5.5 -0.8 0 -1.7 -1.2 -2 -2.6z"/>
  <path d="M567 316.7 c0 -1.1 3.9 -3.7 5.5 -3.7 0.3 0 0.5 1.1 0.5 2.5 0 2.1 -0.5 2.5 -3 2.5 -1.8 0 -3 -0.5 -3 -1.3z"/>
  <path d="M575 311.2 c0 -1.1 3.7 -3.2 4.4 -2.5 1.5 1.5 0.4 3.3 -1.9 3.3 -1.4 0 -2.5 -0.3 -2.5 -0.8z"/>
  <path d="M559 294.8 c0 -2.1 0.4 -3.8 0.8 -3.8 0.5 0 1.3 -0.9 1.8 -2.1 0.9 -2 1 -2 2.7 -0.1 1.7 1.8 1.6 2.1 -1.7 5.8 l-3.6 3.9 0 -3.7z"/>
  <path d="M526.1 295.1 c0.7 -1 2 -2.3 3 -3 1.7 -1 1.9 -0.8 1.9 1.9 0 2.7 -0.3 3 -3 3 -2.7 0 -2.9 -0.2 -1.9 -1.9z"/>
 </g>
 <g fill="#9c9c9c">
  <path d="M531.8 341.2 c-3.7 -2.2 -3.5 -3.2 0.7 -3.2 3.1 0 3.5 0.3 3.5 2.5 0 2.9 -0.6 3 -4.2 0.7z"/>
  <path d="M565 339.1 c0 -2.9 0.3 -3.1 3.6 -3.1 3.9 0 3.8 0.9 -0.6 4 l-3 2.1 0 -3z"/>
  <path d="M572 331.7 c0 -3.2 0.3 -3.7 2.4 -3.7 1.9 0 2.3 0.4 1.9 1.9 -0.3 1.1 -1.4 2.7 -2.4 3.7 -1.8 1.7 -1.9 1.6 -1.9 -1.9z"/>
  <path d="M576 318.5 c0 -2.8 0.4 -3.5 2 -3.5 2.1 0 2.4 1 1.4 4.8 -1 3.6 -3.4 2.7 -3.4 -1.3z"/>
  <path d="M556 297.9 c0 -4.3 1.8 -6.2 5.6 -5.7 l2.6 0.3 -4 4.5 -4.1 4.5 -0.1 -3.6z"/>
  <path d="M531.3 290.5 c3.6 -3.2 4.7 -3.1 4.7 0 0 2.2 -0.4 2.5 -3.7 2.5 l-3.8 -0.1 2.8 -2.4z"/>
  <path d="M541 287.6 c0 -1.3 2.8 -2.6 5.8 -2.6 0.6 0 1.2 0.9 1.2 2 0 1.6 -0.7 2 -3.5 2 -2.3 0 -3.5 -0.5 -3.5 -1.4z"/>
 </g>
 <g fill="#a5a5a5">
  <path d="M539.3 344.8 c-4.1 -1.3 -4.4 -3.8 -0.5 -3.8 4.7 0 7.2 1.1 7.2 3.1 0 2.1 -1.7 2.3 -6.7 0.7z"/>
  <path d="M552 344 c0 -1.6 0.7 -2 3.5 -2 4 0 4.9 2.4 1.3 3.4 -3.8 1 -4.8 0.7 -4.8 -1.4z"/>
  <path d="M562 340.5 c0 -2.2 0.4 -2.5 3.8 -2.5 l3.7 0.1 -2.8 2.4 c-3.6 3.2 -4.7 3.1 -4.7 0z"/>
  <path d="M521.6 329.1 c-0.3 -0.4 -1 -2 -1.5 -3.5 -1 -2.4 -0.8 -2.6 1.4 -2.6 2.2 0 2.5 0.4 2.5 3.5 0 3.3 -1.2 4.6 -2.4 2.6z"/>
  <path d="M521.2 303.3 c3.5 -7.4 4.8 -8.1 4.8 -2.8 0 3.1 -0.3 3.5 -2.6 3.5 -1.4 0 -2.4 -0.3 -2.2 -0.7z"/>
  <path d="M559 290 c0 -0.5 -1.3 -1 -3 -1 -2.4 0 -3 -0.4 -3 -2.1 0 -1.9 0.4 -2.1 3.8 -1.4 7 1.3 11.1 5.5 5.2 5.5 -1.6 0 -3 -0.4 -3 -1z"/>
 </g>
 <g fill="#adadad">
  <path d="M528.3 338.5 l-2.8 -2.4 3.8 -0.1 c3.3 0 3.7 0.3 3.7 2.5 0 3.1 -1.1 3.2 -4.7 0z"/>
  <path d="M566 338.1 c0 -2.8 0.3 -3.1 3 -3.1 1.7 0 3 0.4 3 0.9 0 0.5 -1.3 1.9 -3 3.1 l-3 2.1 0 -3z"/>
  <path d="M521 327.4 c-2.5 -5.8 -2.5 -7.4 0 -7.4 1.5 0 2 0.7 2 2.5 0 1.4 0.5 2.5 1 2.5 0.6 0 1 1.6 1 3.5 0 4.8 -1.7 4.4 -4 -1.1z"/>
  <path d="M566.7 317.1 c0.3 -1.1 1.3 -2.1 2.4 -2.4 1.5 -0.4 1.9 0 1.9 1.9 0 1.9 -0.5 2.4 -2.4 2.4 -1.9 0 -2.3 -0.4 -1.9 -1.9z"/>
  <path d="M519 310.5 c0 -2.5 2.8 -8.5 3.9 -8.5 1.2 0 1.4 4.2 0.5 7.8 -0.7 2.5 -4.4 3.1 -4.4 0.7z"/>
  <path d="M542 287.6 c0 -1.3 2.8 -2.6 5.8 -2.6 0.6 0 1.2 0.9 1.2 2 0 1.6 -0.7 2 -3.5 2 -2.3 0 -3.5 -0.5 -3.5 -1.4z"/>
 </g>
 <g fill="#b5b5b5">
  <path d="M555 343 c0 -1.6 0.7 -2 3.5 -2 4 0 4.9 2.4 1.3 3.4 -3.8 1 -4.8 0.7 -4.8 -1.4z"/>
  <path d="M567 337 c0 -2.7 0.3 -3 3 -3 3.5 0 3.2 2 -0.6 4.5 -2.4 1.5 -2.4 1.5 -2.4 -1.5z"/>
  <path d="M575 324.5 c0 -2.8 0.4 -3.5 2 -3.5 2.2 0 2.6 2 1 5.1 -1.6 3 -3 2.3 -3 -1.6z"/>
  <path d="M568 316.3 c0.1 -0.9 9.2 -7.3 10.3 -7.3 0.4 0 0.7 1.1 0.7 2.5 0 1.8 -0.5 2.5 -2 2.5 -1.1 0 -2 0.7 -2 1.5 0 1 -1.1 1.5 -3.5 1.5 -1.9 0 -3.5 -0.3 -3.5 -0.7z"/>
  <path d="M523 300.1 c0 -0.6 1.1 -2.3 2.5 -3.8 l2.4 -2.8 0.1 3.8 c0 3.3 -0.3 3.7 -2.5 3.7 -1.4 0 -2.5 -0.4 -2.5 -0.9z"/>
  <path d="M555.5 298.7 c-0.9 -3.4 -0.4 -3.9 2.9 -3.5 l2.6 0.3 -2.4 3 -2.4 3 -0.7 -2.8z"/>
  <path d="M552 287 c0 -2.1 1 -2.4 4.8 -1.4 3.6 1 2.7 3.4 -1.3 3.4 -2.8 0 -3.5 -0.4 -3.5 -2z"/>
 </g>
 <g fill="#bdbdbd">
  <path d="M534.8 342.9 c-2.9 -1.6 -2.1 -2.9 1.7 -2.9 2.8 0 3.5 0.4 3.5 2 0 2.2 -2.4 2.6 -5.2 0.9z"/>
  <path d="M558 342 c0 -1.6 0.7 -2 3.5 -2 3.9 0 4.6 1.4 1.6 3 -3.1 1.6 -5.1 1.2 -5.1 -1z"/>
  <path d="M528.8 338.9 c-2.4 -1.8 -6.8 -7.7 -6.8 -9.3 0 -0.3 1.1 -0.6 2.5 -0.6 1.4 0 2.5 0.5 2.5 1 0 0.6 1.2 2.1 2.6 3.3 1.8 1.6 2.5 3 2.2 4.9 l-0.3 2.7 -2.7 -2z"/>
  <path d="M568 336 c0 -2.7 0.3 -3 3 -3 2.7 0 2.9 0.2 1.9 1.9 -0.7 1 -2 2.3 -3 3 -1.7 1 -1.9 0.8 -1.9 -1.9z"/>
  <path d="M576 317.5 c0 -2.8 0.4 -3.5 2 -3.5 2.1 0 2.4 1 1.4 4.8 -1 3.6 -3.4 2.7 -3.4 -1.3z"/>
  <path d="M531 291.2 c0 -1.1 7.4 -5.2 9.4 -5.2 0.9 0 1.6 0.8 1.6 2 0 1.3 -0.7 2 -2 2 -1.1 0 -2 0.5 -2 1 0 0.6 -1.6 1 -3.5 1 -1.9 0 -3.5 -0.4 -3.5 -0.8z"/>
  <path d="M543 287.6 c0 -1.3 2.8 -2.6 5.8 -2.6 0.6 0 1.2 0.9 1.2 2 0 1.6 -0.7 2 -3.5 2 -2.3 0 -3.5 -0.5 -3.5 -1.4z"/>
  <path d="M551 287 c0 -2.1 1 -2.4 4.8 -1.4 3.6 1 2.7 3.4 -1.3 3.4 -2.8 0 -3.5 -0.4 -3.5 -2z"/>
 </g>
 <g fill="#c5c5c5">
  <path d="M541.8 345.3 c-3.3 -0.8 -2 -3.3 1.7 -3.3 2.8 0 3.5 0.4 3.5 2 0 2 -1.4 2.3 -5.2 1.3z"/>
  <path d="M551 344 c0 -1.6 0.7 -2 3.5 -2 4 0 4.9 2.4 1.3 3.4 -3.8 1 -4.8 0.7 -4.8 -1.4z"/>
  <path d="M560 341.6 c0 -2.3 0.4 -2.6 3.5 -2.6 5.3 0 4.6 1.3 -2.7 4.8 -0.5 0.2 -0.8 -0.8 -0.8 -2.2z"/>
  <path d="M571 332.8 c0 -3.4 0.3 -3.8 2.5 -3.8 3.1 0 3.2 1.1 0 4.7 l-2.4 2.8 -0.1 -3.7z"/>
  <path d="M523 331.3 c-0.8 -1.6 -1.6 -3.1 -1.8 -3.5 -0.2 -0.5 0.8 -0.8 2.2 -0.8 2.3 0 2.6 0.4 2.6 3.5 0 4.2 -1.2 4.5 -3 0.8z"/>
  <path d="M521.3 303.8 c1.9 -4.6 3.7 -4.8 3.7 -0.4 0 3.2 -0.3 3.6 -2.5 3.6 -2.4 0 -2.5 -0.1 -1.2 -3.2z"/>
  <path d="M555.3 299.5 c-2.1 -2.3 -1.5 -3.5 1.7 -3.5 3 0 3 0 1.4 2.5 -0.9 1.4 -1.7 2.5 -1.8 2.5 0 -0.1 -0.7 -0.7 -1.3 -1.5z"/>
  <path d="M559.8 290.8 c-0.3 -0.8 -3.3 -1.4 -8.1 -1.6 -5.4 -0.3 -7.7 -0.8 -7.7 -1.7 0 -1.9 4.5 -2.7 10.9 -1.9 6 0.7 10.1 2.8 10.1 5 0 1.7 -4.7 1.9 -5.2 0.2z"/>
 </g>
 <g fill="#cecece">
  <path d="M534.3 342.4 c-1.7 -0.9 -3.9 -2.4 -4.9 -3.5 -1.7 -1.8 -1.6 -1.9 1.9 -1.9 2.1 0 3.7 0.5 3.7 1 0 0.6 0.7 1 1.5 1 0.9 0 1.5 0.9 1.5 2.5 0 1.4 -0.1 2.5 -0.2 2.5 -0.2 0 -1.7 -0.8 -3.5 -1.6z"/>
  <path d="M563 339.5 c0 -2.2 0.4 -2.5 3.8 -2.5 l3.7 0.1 -2.8 2.4 c-3.6 3.2 -4.7 3.1 -4.7 0z"/>
  <path d="M574 326.6 c0 -3.2 0.3 -3.6 2.5 -3.6 2.4 0 2.5 0.1 1.2 3.2 -1.9 4.6 -3.7 4.8 -3.7 0.4z"/>
  <path d="M576 317.5 c0 -1.8 -0.5 -2.5 -2 -2.5 -1.3 0 -2 0.7 -2 2 0 1.6 -0.7 2 -3 2 -2.4 0 -2.9 -0.3 -2.3 -1.4 1 -1.7 10.8 -8.6 12.3 -8.6 1.1 0 1.3 5.2 0.4 8.8 -0.9 3 -3.4 2.8 -3.4 -0.3z"/>
  <path d="M519 311.8 c0 -3 1.3 -5.8 2.6 -5.8 0.9 0 1.4 1.2 1.4 3.5 0 2.8 -0.4 3.5 -2 3.5 -1.1 0 -2 -0.6 -2 -1.2z"/>
  <path d="M530.3 291.5 c3.6 -3.2 4.7 -3.1 4.7 0 0 2.2 -0.4 2.5 -3.7 2.5 l-3.8 -0.1 2.8 -2.4z"/>
  <path d="M561 290.1 c0 -2.9 0.2 -3 2 -1.9 2.4 1.5 2.2 4.1 -0.3 4.6 -1.3 0.3 -1.7 -0.3 -1.7 -2.7z"/>
  <path d="M545 287.6 c0 -0.8 1.2 -1.7 2.6 -2 3.6 -0.9 8.4 0.2 8.4 2 0 1 -1.4 1.4 -5.5 1.4 -4 0 -5.5 -0.4 -5.5 -1.4z"/>
 </g>
 <g fill="#d6d6d6">
  <path d="M550 344.1 c0 -1.9 3.4 -3.1 8.6 -3.1 4.1 0 2.7 2.7 -2 3.9 -6 1.5 -6.6 1.4 -6.6 -0.8z"/>
  <path d="M538.8 344.3 c-3.3 -0.8 -2 -3.3 1.7 -3.3 2.8 0 3.5 0.4 3.5 2 0 2 -1.4 2.3 -5.2 1.3z"/>
  <path d="M573 328.5 c0 -1.9 0.5 -3.5 1 -3.5 0.6 0 1 -1.1 1 -2.5 0 -1.8 0.5 -2.5 2 -2.5 2.5 0 2.5 1.6 0 7.4 -2.3 5.5 -4 5.9 -4 1.1z"/>
  <path d="M520.4 325.5 c-1.9 -4.6 -1.8 -6.5 0.5 -6.5 2 0 3.1 2.5 3.1 7.3 0 3.8 -1.8 3.4 -3.6 -0.8z"/>
  <path d="M522 302.4 c0 -1.2 3.4 -6.4 4.2 -6.4 0.4 0 0.8 1.6 0.8 3.5 0 3.1 -0.3 3.5 -2.5 3.5 -1.4 0 -2.5 -0.3 -2.5 -0.6z"/>
  <path d="M561 291.7 c0 -4 1 -4.6 3 -2.1 1.1 1.3 1 1.9 -0.8 3.7 l-2.2 2.1 0 -3.7z"/>
  <path d="M533 290.2 c0 -0.7 1.7 -1.8 6.3 -4 0.4 -0.2 0.7 0.8 0.7 2.2 0 2.3 -0.4 2.6 -3.5 2.6 -1.9 0 -3.5 -0.4 -3.5 -0.8z"/>
 </g>
 <g fill="#dedede">
  <path d="M539.6 344.2 c-6.1 -2.1 -7.2 -4.2 -2.2 -4.2 2 0 3.6 0.5 3.6 1 0 0.6 1.6 1 3.5 1 2.8 0 3.5 0.4 3.5 2 0 2.4 -1.7 2.5 -8.4 0.2z"/>
  <path d="M570 333.8 c0 -2.1 0.5 -3.8 1 -3.8 0.6 0 1 -0.7 1 -1.5 0 -0.9 0.9 -1.5 2.4 -1.5 3.1 0 2.6 2.4 -1.4 7.1 l-2.9 3.4 -0.1 -3.7z"/>
  <path d="M576 315.5 c0 -2.8 0.4 -3.5 2 -3.5 2.1 0 2.4 1 1.4 4.8 -1 3.6 -3.4 2.7 -3.4 -1.3z"/>
  <path d="M567 317.3 c0 -0.5 1.6 -1.8 3.5 -3.1 l3.5 -2.2 0 3 c0 2.8 -0.3 3 -3.5 3 -1.9 0 -3.5 -0.3 -3.5 -0.7z"/>
  <path d="M520 308.4 c0 -2.1 1.8 -5.4 3 -5.4 0.6 0 1 1.6 1 3.5 0 2.8 -0.4 3.5 -2 3.5 -1.1 0 -2 -0.7 -2 -1.6z"/>
 </g>
 <g fill="#e6e6e6">
  <path d="M543.8 345.3 c-1 -0.2 -1.8 -1.1 -1.8 -1.9 0 -1.1 1.6 -1.4 7 -1.4 5.3 0 7 0.3 7 1.4 0 2.2 -7 3.3 -12.2 1.9z"/>
  <path d="M557 342 c0 -1.6 0.7 -2 3.5 -2 3.9 0 4.6 1.4 1.6 3 -3.1 1.6 -5.1 1.2 -5.1 -1z"/>
  <path d="M569 334.6 c0 -3.3 0.2 -3.6 3.1 -3.6 l3 0 -2.1 3 c-3.1 4.4 -4 4.5 -4 0.6z"/>
  <path d="M525.1 334.4 c-2.1 -2.7 -6.1 -12.4 -6.1 -14.9 0 -0.8 0.9 -1.5 2 -1.5 1.6 0 2 0.7 2 3 0 1.7 0.5 3 1 3 0.6 0 1 1.4 1 3 0 2 0.5 3 1.5 3 1 0 1.5 1.1 1.5 3.5 0 1.9 -0.2 3.5 -0.4 3.5 -0.3 0 -1.4 -1.2 -2.5 -2.6z"/>
  <path d="M576 317.1 c0 -0.6 -1.5 -1.1 -3.2 -1.3 l-3.3 -0.3 4.4 -3.3 c2.8 -2 4.8 -2.9 5.4 -2.3 1.4 1.4 -0.1 8.1 -1.8 8.1 -0.8 0 -1.5 -0.4 -1.5 -0.9z"/>
  <path d="M519 312.8 c0 -3 1.3 -5.8 2.6 -5.8 0.9 0 1.4 1.2 1.4 3.5 0 2.8 -0.4 3.5 -2 3.5 -1.1 0 -2 -0.6 -2 -1.2z"/>
  <path d="M521.7 303.3 c2.3 -6.3 7.8 -12 15 -15.7 4.3 -2.2 6.3 -2 6.3 0.4 0 1.6 -0.7 2 -3 2 -2 0 -3 0.5 -3 1.5 0 0.8 -0.6 1.5 -1.4 1.5 -0.8 0 -1.6 0.7 -2 1.5 -0.3 0.8 -1.5 1.5 -2.6 1.5 -1.3 0 -2 0.7 -2 2 0 1.1 -0.7 2 -1.5 2 -0.9 0 -1.5 0.9 -1.5 2.5 0 2 -0.5 2.5 -2.5 2.5 -1.9 0 -2.3 -0.4 -1.8 -1.7z"/>
  <path d="M560 292.8 c0 -3.1 0.4 -3.8 1.9 -3.8 3.1 0 3.3 1.6 0.6 4.7 l-2.4 2.8 -0.1 -3.7z"/>
 </g>
 <g fill="#efefef">
  <path d="M542.3 344.8 c-2.4 -0.5 -4.3 -1.5 -4.3 -2.2 0 -0.9 2.8 -1.2 11 -1.2 8.1 0 11 0.3 11 1.2 0 0.7 -2.3 1.7 -5 2.3 -5.8 1.3 -6.9 1.2 -12.7 -0.1z"/>
  <path d="M532.8 341.2 c-3.7 -2.2 -3.5 -3.2 0.7 -3.2 3.1 0 3.5 0.3 3.5 2.5 0 2.9 -0.6 3 -4.2 0.7z"/>
  <path d="M561 340.5 c0 -1.5 0.6 -2.5 1.4 -2.5 0.8 0 1.6 -0.5 1.8 -1.1 0.2 -0.6 1.9 -0.9 3.8 -0.7 l3.5 0.3 -4.4 3.3 c-5.3 3.9 -6.1 4 -6.1 0.7z"/>
  <path d="M522 328.4 c-2.5 -5.8 -2.5 -7.4 0 -7.4 1.5 0 2 0.7 2 2.5 0 1.4 0.5 2.5 1 2.5 0.6 0 1 1.6 1 3.5 0 4.8 -1.7 4.4 -4 -1.1z"/>
  <path d="M575 322.5 c0 -2.8 0.4 -3.5 2 -3.5 2.1 0 2.4 1 1.4 4.8 -1 3.6 -3.4 2.7 -3.4 -1.3z"/>
  <path d="M574 312.4 c0.8 -0.8 2.2 -2 3.2 -2.5 1.5 -0.8 1.8 -0.6 1.8 1.6 0 2.1 -0.4 2.5 -3.1 2.5 -2.7 0 -3 -0.2 -1.9 -1.6z"/>
  <path d="M521.3 304.8 c1.9 -4.6 3.7 -4.8 3.7 -0.4 0 3.2 -0.3 3.6 -2.5 3.6 -2.4 0 -2.5 -0.1 -1.2 -3.2z"/>
  <path d="M525.5 296.6 c0.9 -1.4 2.7 -3.2 4.1 -4.1 2.3 -1.5 2.4 -1.5 2.4 1 0 3.4 -2.1 5.5 -5.5 5.5 -2.5 0 -2.5 -0.1 -1 -2.4z"/>
  <path d="M559 294.2 c0 -1.9 -0.6 -3.5 -1.5 -3.8 -0.8 -0.4 -1.5 -1.5 -1.5 -2.5 0 -2.6 3.3 -2.4 6.5 0.3 l2.6 2.3 -3 3.5 -3 3.5 -0.1 -3.3z"/>
  <path d="M540 288 c0 -1.6 0.7 -2 3.5 -2 2.8 0 3.5 0.4 3.5 2 0 1.6 -0.7 2 -3.5 2 -2.8 0 -3.5 -0.4 -3.5 -2z"/>
 </g>
 <g fill="#f7f7f7">
  <path d="M545.8 345.3 c-1 -0.2 -1.8 -1.1 -1.8 -1.9 0 -1 1.3 -1.4 4.5 -1.4 3.2 0 4.5 0.4 4.5 1.4 0 1.1 -3.3 2.8 -5 2.5 -0.3 -0.1 -1.3 -0.3 -2.2 -0.6z"/>
  <path d="M536.8 343.3 c-3.3 -0.8 -2 -3.3 1.7 -3.3 2.8 0 3.5 0.4 3.5 2 0 2 -1.4 2.3 -5.2 1.3z"/>
  <path d="M559 341.6 c0 -2.3 0.4 -2.6 3.5 -2.6 5.3 0 4.6 1.3 -2.7 4.8 -0.5 0.2 -0.8 -0.8 -0.8 -2.2z"/>
  <path d="M529.3 338.5 l-2.8 -2.4 3.8 -0.1 c3.3 0 3.7 0.3 3.7 2.5 0 3.1 -1.1 3.2 -4.7 0z"/>
  <path d="M524 332.3 c-0.8 -1.6 -1.6 -3.1 -1.8 -3.5 -0.2 -0.5 0.8 -0.8 2.2 -0.8 2.3 0 2.6 0.4 2.6 3.5 0 4.2 -1.2 4.5 -3 0.8z"/>
  <path d="M574.4 323 c0.5 -4 0.3 -6 -0.4 -6 -0.5 0 -1 0.5 -1 1 0 0.6 -1.6 1 -3.5 1 -4.7 0 -3.8 -1.6 3.6 -6.2 5.3 -3.3 5.9 -3.5 5.9 -1.8 0 1.1 -0.7 2 -1.5 2 -0.8 0 -1.5 0.7 -1.5 1.5 0 0.8 0.7 1.5 1.6 1.5 1.4 0 1.6 0.7 1 4.5 -1.3 9.8 -5.3 12.1 -4.2 2.5z"/>
  <path d="M519.6 321.8 c-1 -3.8 -0.7 -4.8 1.4 -4.8 1.6 0 2 0.7 2 3.5 0 4 -2.4 4.9 -3.4 1.3z"/>
  <path d="M519.5 311.3 c1.2 -6.6 4.5 -10.2 4.5 -4.9 0 5.4 -1.2 8.6 -3.2 8.6 -1.8 0 -1.9 -0.4 -1.3 -3.7z"/>
  <path d="M523 301.3 c0 -1.3 4.4 -7 6.2 -8.2 1.6 -1 1.8 -0.8 1.8 1.9 0 2 -0.5 3 -1.5 3 -0.8 0 -1.5 0.9 -1.5 2 0 1.5 -0.7 2 -2.5 2 -1.4 0 -2.5 -0.3 -2.5 -0.7z"/>
  <path d="M555.8 299.4 c-2.9 -2.9 1.2 -8.8 5.7 -8.2 l2.7 0.3 -3.8 4.3 c-2.2 2.4 -4.2 4 -4.6 3.6z"/>
  <path d="M532 291.2 c0 -1.6 8.1 -5 12.3 -5.1 3 0 3.7 0.3 3.7 1.8 0 1.5 -1 2 -4.2 2.5 -2.4 0.4 -6 0.9 -8 1.2 -2.3 0.4 -3.8 0.2 -3.8 -0.4z"/>
 </g>
 <g fill="#ffffff">
  <path d="M538.8 343.7 c-7.1 -2.3 -12.7 -7.3 -15.9 -14 -4.1 -8.9 -4.6 -14 -2 -22.4 1.4 -4.9 3.3 -8.4 6.2 -11.7 6.1 -6.9 10.5 -8.8 21.9 -9.3 8.3 -0.4 9.9 -0.2 12.8 1.7 l3.3 2 -4.3 4.9 c-3.6 4.1 -4.6 4.7 -6.2 3.9 -1 -0.6 -4.1 -0.8 -6.7 -0.6 -20.3 2 -21.6 29.1 -1.7 34.9 7.4 2.1 17.8 -3.8 19.4 -10.9 1.2 -5.3 1.6 -6.2 2.7 -6.2 0.7 0 3 -1.4 5.1 -3 2.2 -1.7 4.4 -3 4.9 -3 1.4 0 0 13.3 -1.8 17.7 -2.4 5.7 -7 10.7 -12.7 13.8 -4.4 2.4 -6.6 2.9 -13.3 3.1 -4.4 0.2 -9.7 -0.2 -11.7 -0.9z"/>
 </g>
</svg>