<svg xmlns="http://www.w3.org/2000/svg" width="655.359" height="655.359" fill-rule="evenodd" clip-rule="evenodd" image-rendering="optimizeQuality" shape-rendering="geometricPrecision" text-rendering="geometricPrecision" viewBox="0 0 6.827 6.827"><path fill="none" d="M0 0h6.827v6.827H0z"/><path fill="#333" fill-rule="nonzero" d="M4.906 1.548l-.487.005-.94.008-2.25 2.25 1.783 1.784 2.25-2.25.009-.94.004-.475.267-.267-.007.744-.009.995-.038.093-2.382 2.381-.094.094-.094-.094-1.97-1.97-.095-.095.094-.094L3.33 1.336l.093-.039.994-.009.757-.007z"/><path fill="#333" fill-rule="nonzero" d="M5.973 1.044L4.658 2.36l-.188-.187L5.786.856z"/><path fill="#333" fill-rule="nonzero" d="M4.561 2.262a.199.199 0 00-.281 0 .199.199 0 000 .282.199.199 0 00.281 0 .199.199 0 000-.282zm-.14-.323a.463.463 0 01.328.793.463.463 0 01-.657 0 .463.463 0 010-.657c.09-.091.21-.136.328-.136zM2.837 4.775l.184-.184c.058-.058.086-.117.083-.177-.002-.06-.033-.12-.093-.179l-.374-.374c-.06-.06-.119-.09-.178-.093-.06-.002-.12.026-.178.084l-.184.183.74.74zm-.452-.816a.092.092 0 01.038-.025.066.066 0 01.044.003.151.151 0 01.049.035l.384.385c.018.017.03.034.036.049.005.015.006.03.002.043a.092.092 0 01-.025.039l-.065.065-.529-.528.066-.066zm.365-.365l.201-.201-.105-.106-.318.317.74.74.317-.317-.105-.106-.201.201-.217-.217.16-.16-.106-.105-.16.16-.206-.206zm.425-.637l-.17.17.622.859.106-.107-.114-.154.143-.143.154.114.118-.117-.859-.622zm.04.222l.43.318-.111.112-.319-.43zm.872.346l.308-.308-.106-.105-.191.19-.634-.633-.116.116.74.74z"/><path fill="none" d="M.853.853h5.12v5.12H.853z"/><path fill="#f19a7b" d="M4.092 2.732a.465.465 0 0 1 .415-.785l.398-.399-.486.005-.94.008-2.25 2.25 1.783 1.784 2.25-2.25.009-.94.004-.474-.396.396a.465.465 0 0 1-.787.405zm.006.57l.191-.19.106.105-.308.308-.74-.74.117-.116.634.634zM2.957 3.8l.16-.16.105.106-.16.16.217.216.2-.2.106.105-.317.317-.74-.74.318-.317.105.106-.2.2.206.207zm-.32.061l.374.374c.06.06.09.12.093.179.003.06-.025.12-.083.177l-.184.184-.74-.74.184-.183c.058-.058.117-.086.178-.084.06.003.119.034.178.093zm.368-.734l.17-.17.859.622-.118.117-.154-.114-.143.143.114.154-.106.107-.622-.859z"/><path fill="#f19a7b" d="M2.9 4.357l-.384-.385a.151.151 0 00-.05-.035.066.066 0 00-.043-.003.092.092 0 00-.038.025l-.066.066.529.528.065-.065a.092.092 0 00.025-.039.066.066 0 00-.002-.043.151.151 0 00-.036-.05zM3.646 3.497l-.43-.318.318.43z"/><path fill="#949494" d="M4.561 2.544a.2.2 0 0 0 .002-.28l-.002-.002-.002-.001a.2.2 0 1 0 .002.283z"/></svg>