<?xml version="1.0" encoding="utf-8"?>
<!-- Generator: Adobe Illustrator 24.2.1, SVG Export Plug-In . SVG Version: 6.00 Build 0)  -->
<svg version="1.1" id="Layer_1" xmlns="http://www.w3.org/2000/svg" xmlns:xlink="http://www.w3.org/1999/xlink" x="0px" y="0px"
	 viewBox="0 0 539 357" style="enable-background:new 0 0 539 357;" xml:space="preserve">
<g>
	<path d="M85,352c-6.2-0.8-15-4-19.5-7c-10.8-7.1-19.4-20.3-21.5-33.1c-3.8-22.7,10.8-46.1,33.1-53c7.2-2.3,19.1-2.5,26.5-0.5
		c16.2,4.3,29.6,17.9,33.9,34.1c5.7,21.9-5.1,45.2-25.6,55c-6.4,3-9,3.7-18.9,4.9C91.6,352.5,88,352.3,85,352z"/>
	<path d="M416.5,351.8c-18.5-2.1-33.3-14.5-39.6-33c-1.7-5.2-2-8.1-1.7-16.4c0.3-9.5,0.6-10.6,4.6-18.7
		c5.2-10.4,12.3-17.4,23.2-22.6c6.7-3.2,8.5-3.6,17.5-3.9c8.2-0.3,11.1,0,16.3,1.7c20.5,7,33.1,24.1,33.2,45.2
		c0,13.7-3.7,23.4-12.8,33.1C446.6,348.5,432.3,353.7,416.5,351.8z"/>
	<path d="M6,239v-55.1L40.7,142l34.6-42h50.4H176v97v97h-8.8h-8.7l-1.8-6.7c-1-3.8-3.4-10.2-5.5-14.3c-4.8-10-17.6-23-27.7-28.2
		c-34.8-18.1-76.2-4.8-93.1,30c-2,4-4.1,10-4.7,13.3l-1.2,5.9h-9.2H6L6,239L6,239z M142,160v-29h-31.3H79.3L69,158.8
		c-5.6,15.2-10.5,28.3-10.7,29c-0.4,0.9,8.3,1.2,41.6,1.2H142V160z"/>
	<path d="M196,150V6h169h169v144v144h-22.3h-22.3l-1.2-5.9c-2.3-10.8-8.5-21.6-18.1-31.1c-13.9-13.8-28.4-20-47.2-20
		c-31.1,0-56.9,19.3-65.5,49l-2.2,7.5l-79.6,0.3L196,294V150z M376.4,185.9c1.1-4.1,2.1-7.6,2.2-7.8c0.2-0.2,2.2,1.3,4.6,3.4
		c6.3,5.4,24.8,13.6,24.8,11c0-1.8-5.3-10.6-8.9-14.6l-4.1-4.7l4.3,1c7,1.6,24.1,0.3,34-2.6c9.9-2.9,14.7-5.1,14.7-6.7
		c0-1.4-6.8-4.3-16.5-7c-6.2-1.8-10.6-2.3-19.6-2.4h-11.6l4.8-2.7c10.1-5.5,21.5-15.6,29.9-26.6c3.6-4.7,12-19.1,12-20.5
		c0-1.2-5.5-0.1-14.8,3c-14.3,4.8-27.5,12.5-36.8,21.5l-5.1,5l0.9-5.9c0.6-3.2,0.7-12.1,0.5-19.8c-0.6-14.9-2.7-26.8-7.2-40.2
		c-3.2-9.3-10-24.3-11.2-24.3c-0.9,0.1-7.4,14.1-10.4,22.6c-4.5,12.9-7,26.5-7.5,41.4c-0.3,8-0.2,17.1,0.4,20.3l0.9,5.7l-5.2-4.9
		c-6.9-6.6-18.7-14.2-27.7-17.9c-9-3.7-22.5-7.8-23.3-7c-0.4,0.3,0.6,3,2.1,6c8.5,16.8,24.1,33.3,39.3,41.6l4.8,2.7h-11.6
		c-11.8,0.1-18.1,1.2-29.1,5.4c-7.7,3-8.9,3.8-7,5.1c2.1,1.4,11.5,4.9,18,6.6c7,2,25.2,2.9,30.7,1.6l4.3-1l-4.3,4.7
		c-5.3,6-10.4,15.1-8.4,15.1c5.1,0,19-6.7,25.2-12.2l3.5-3l0.9,2.4c0.5,1.4,1.5,5,2.2,8.1c0.8,3.2,1.8,5.6,2.3,5.4
		C374,193.5,375.3,190,376.4,185.9L376.4,185.9z"/>
</g>
</svg>
