<svg xmlns="http://www.w3.org/2000/svg" width="100" height="100" enable-background="new 0 0 100 100" version="1" viewBox="0 0 100 100"><circle cx="50" cy="20" r="10" fill="#2962FF"/><path fill="#2962FF" d="M23.333,66.667C23.333,79.559,33.782,90,46.667,90c9.199,0,17.122-5.329,20.924-13.057L69.896,90h6.771
	l-4.421-25.053c-0.318-1.803-2.077-3.28-3.913-3.28h-15v-5h13.334V50H53.333V36.667h-6.666v6.667
	C33.782,43.333,23.333,53.779,23.333,66.667z"/><circle cx="50" cy="20" r="3.333" fill="#E3F2FD"/><path fill="#E3F2FD" d="M30,66.667c0,9.188,7.48,16.666,16.667,16.666c8.619,0,15.649-6.603,16.497-15H46.667V50
	C37.48,50,30,57.479,30,66.667z"/></svg>