<svg xmlns="http://www.w3.org/2000/svg" viewBox="0 0 48 48"><path fill="#f26674" d="M36,24c0,6.22-4.09,7.46-16.57,14.94A7.07,7.07,0,0,0,16,45a2,2,0,0,1-4,0c0-7,5.23-9.14,11.67-13,5-3.06,8.33-4.08,8.33-8s-3.54-5.12-8-7.8L27.67,14C31.2,16.12,36,18.06,36,24Z"/><path fill="#db5669" d="M34,24c0,6.22-4.09,7.46-16.57,14.94A7.07,7.07,0,0,0,14,45a2,2,0,0,1-1,1.73c-2.08-1.25-.87-7.81,4.14-10.82,13.32-8,13.27-7.68,14.17-9.3a5.31,5.31,0,0,0-1.88-7.15L24,16.2l2.67-1.6C29.49,16.3,34,18.23,34,24Z"/><path fill="#6fabe6" d="M36,45a2,2,0,0,1-4,0c0-4.86-3.81-6.29-8-8.8L27.67,34C31.25,36.14,36,38.39,36,45Z"/><path fill="#82bcf4" d="M36,45a2,2,0,0,1-4,0c0-4.83-3.78-6.27-8-8.8L27.67,34C31.26,36.14,36,38.38,36,45Z"/><path fill="#6fabe6" d="M35.91,45.59a1.84,1.84,0,0,1-.5.82A2,2,0,0,1,32,45a7.08,7.08,0,0,0-3.43-6.06c-3.16-1.89-2.81-1.6-2.57-1.74l1.84-1.1C31.21,38.12,35.15,40,35.91,45.59Z"/><path fill="#db5669" d="M24,11.8,20.33,14c-3.22-1.93-5.3-2.85-7-5.78S11.13.63,14.26,1A2,2,0,0,1,16,3C16,7.86,19.81,9.29,24,11.8Z"/><path fill="#f26674" d="M24,11.8l-1.84,1.1-3-1.81C14.43,8.27,13.4,2.49,14.26,1A2,2,0,0,1,16,3C16,7.86,19.81,9.29,24,11.8Z"/><path fill="#6fabe6" d="M36,3a10.59,10.59,0,0,1-5.14,9.09C18.42,19.54,16,20.07,16,24a5.29,5.29,0,0,0,2.57,4.54L24,31.8l-3.5,2.1c-.24.14.28.37-4.21-2.33a8.82,8.82,0,0,1-3.14-11.92c1.47-2.6,2.1-2.6,15.42-10.59A7.12,7.12,0,0,0,31.33,6c1.08-2.27.21-3.39,1.26-4.41A2,2,0,0,1,36,3Z"/><path fill="#db5669" d="M29,14.8,25.33,17,24,16.2,27.67,14Z"/><path fill="#82bcf4" d="M30.86,12.09C18.42,19.54,16,20.07,16,24a5.29,5.29,0,0,0,2.57,4.54L24,31.8l-3.5,2.1C17.88,32.32,14,30.43,14,25a8.85,8.85,0,0,1,4.29-7.57C30.36,10.17,34,9.21,34,4a2,2,0,0,1,1.74-2C36.7,3.65,35.4,9.37,30.86,12.09Z"/><path fill="#6fabe6" d="M29.51,35.1c-4.11,2.46-3.61,2.24-3.84,2.1L24,36.2,27.67,34Z"/><path fill="#231f20" d="M37,24c0-6-4.36-8.17-7.39-10L31.37,13A11.61,11.61,0,0,0,37,3,3,3,0,0,0,31.89.87C30.36,2.36,31.61,3.55,30.18,6,29.9,6,30.92,6,24,6a1,1,0,0,0,0,2c4.89,0,4.54-.09,4.06.2L24,10.64C20.32,8.43,17.68,7.46,17.09,4H24a1,1,0,0,0,0-2c-9.39,0-6.36.36-7.87-1.11A3,3,0,0,0,11,3a11.61,11.61,0,0,0,5.63,10L18.39,14C15.49,15.74,11,17.85,11,24c0,6,4.33,8.16,7.39,10l-1.77,1C11,38.47,8.66,48,14,48a3,3,0,0,0,3-3,6.18,6.18,0,0,1,.82-3A.58.58,0,0,0,18,42c6,0,7,.33,7-1a1,1,0,0,0-1-1H19.65c.44-.3-.63.35,4.35-2.64,3.68,2.21,6.32,3.18,6.91,6.64H24a1,1,0,0,0,0,2h7.18A3,3,0,0,0,37,45a11.68,11.68,0,0,0-5.63-10l-1.76-1C32.51,32.26,37,30.14,37,24ZM13,3a1,1,0,0,1,2,0c0,5.07,3.71,6.79,7.06,8.8l-1.73,1C17.23,11,13,9,13,3Zm3.8,27.71A7.83,7.83,0,0,1,14,20.14c1.32-2.33,1.74-2.22,15.06-10.22A8.1,8.1,0,0,0,33,3a1,1,0,0,1,2,0,9.6,9.6,0,0,1-4.65,8.23L18.06,18.6A6.32,6.32,0,0,0,15,24c0,4.3,3.34,5.57,7.05,7.8l-1.72,1ZM22,25h8.88c-.53,2.22-1.82,2.59-6.88,5.63L21.28,29H25a1,1,0,0,0,0-2H18.22a4.29,4.29,0,0,1,0-6H25a1,1,0,0,0,0-2H21.28L24,17.37c4.75,2.85,6.32,3.32,6.88,5.63H22A1,1,0,0,0,22,25Zm8.34,11.77c4.26,2.56,5.31,8,4.35,8.94A1,1,0,0,1,33,45c0-5.07-3.71-6.79-7.06-8.8l1.73-1ZM18.92,38.08A8.1,8.1,0,0,0,15,45a1,1,0,0,1-2,0,9.66,9.66,0,0,1,4.65-8.23L30,29.39A6.27,6.27,0,0,0,33,24c0-4.3-3.36-5.58-7-7.8l1.72-1,3.53,2.12a7.83,7.83,0,0,1,0,13.42Z"/></svg>