<svg xmlns="http://www.w3.org/2000/svg" viewBox="0 0 512 512"><g data-name="23.Chocolate"><path fill="#eff5f9" d="M81.39,471.2363H430.61a0,0,0,0,1,0,0v11.16A23.6039,23.6039,0,0,1,407.0064,506H104.9936A23.6039,23.6039,0,0,1,81.39,482.3961v-11.16A0,0,0,0,1,81.39,471.2363Z"/><path fill="#f17b89" d="M430.61,307.89v163.4H81.39V307.89a28.9227,28.9227,0,0,1,28.92-28.92H401.69A28.9225,28.9225,0,0,1,430.61,307.89Z"/><path fill="#ccedd5" d="M284.0345,412.3954c19.8633,0,35.9655-10.6143,35.9655-10.6143a74.3879,74.3879,0,0,0-28.07-10.0733c1.9182-1.7137,3.8462-3.5332,5.763-5.45,16.4247-16.4247,20.9626-38.5164,20.9626-38.5164s-22.0916,4.538-38.5164,20.9626a130.9957,130.9957,0,0,0-11.9418,13.6454,144.6368,144.6368,0,0,0,2.2054-25.9587c0-26.9533-14.4031-48.8032-14.4031-48.8032s-14.4031,21.85-14.4031,48.8032a144.6368,144.6368,0,0,0,2.2054,25.9587,130.9957,130.9957,0,0,0-11.9418-13.6454c-16.4246-16.4246-38.5164-20.9626-38.5164-20.9626s4.5379,22.0917,20.9626,38.5164c1.9168,1.9169,3.8448,3.7364,5.763,5.45A74.3879,74.3879,0,0,0,192,401.7811s16.1022,10.6143,35.9655,10.6143c2.1163,0,4.19-.0544,6.2055-.1579a43.0575,43.0575,0,0,0-6.949,15.0484s10.9216-2.2434,19.0415-10.3634c1.2932-1.2932,2.4972-2.5965,3.5994-3.8839l-1.3461,15.3686A5.1439,5.1439,0,0,0,253.6411,434h4.7178a5.1439,5.1439,0,0,0,5.1243-5.5928l-1.3461-15.3686c1.1022,1.2874,2.3062,2.5907,3.5994,3.8839,8.12,8.12,19.0415,10.3634,19.0415,10.3634a43.0575,43.0575,0,0,0-6.949-15.0484C279.845,412.341,281.9182,412.3954,284.0345,412.3954Z"/><path fill="#e9986b" d="M399.16,26.53V271.78a20.4178,20.4178,0,0,1-1.3,7.19H114.14a20.4221,20.4221,0,0,1-1.3-7.19V26.53A20.53,20.53,0,0,1,133.38,6H378.62A20.53,20.53,0,0,1,399.16,26.53Z"/><rect width="98.331" height="99.777" x="143.208" y="162.173" fill="#a0674a" rx="20.534" ry="20.534"/><rect width="98.331" height="99.777" x="270.461" y="162.173" fill="#a0674a" rx="20.534" ry="20.534"/><rect width="98.331" height="99.777" x="143.208" y="32.029" fill="#a0674a" rx="20.534" ry="20.534"/><rect width="98.331" height="99.777" x="270.461" y="32.029" fill="#a0674a" rx="20.534" ry="20.534"/><path d="M407.0068,511H104.9932A28.6354,28.6354,0,0,1,76.39,482.3965v-11.16a5,5,0,0,1,5-5H430.61a5,5,0,0,1,5,5v11.16A28.6354,28.6354,0,0,1,407.0068,511ZM86.39,476.2363v6.16A18.6249,18.6249,0,0,0,104.9932,501H407.0068A18.6249,18.6249,0,0,0,425.61,482.3965v-6.16Z"/><path d="M430.6094,476.29H81.3906a5,5,0,0,1-5-5V307.89a33.9588,33.9588,0,0,1,33.92-33.92H401.69a33.9588,33.9588,0,0,1,33.92,33.92v163.4A5,5,0,0,1,430.6094,476.29Zm-344.2188-10H425.6094V307.89a23.9471,23.9471,0,0,0-23.92-23.92H110.3105a23.9471,23.9471,0,0,0-23.92,23.92Z"/><path d="M258.3594 439h-4.7188a10.1436 10.1436 0 0 1-10.1045-11.0293l.2256-2.5752a48.078 48.078 0 0 1-15.5332 6.7881 5 5 0 0 1-5.9043-5.9043 45.2064 45.2064 0 0 1 3.1026-8.9365c-19.92-.8164-35.4991-10.9385-36.1788-11.3867a5.0006 5.0006 0 0 1 0-8.35 78.1144 78.1144 0 0 1 20.4913-8.8662c-16.4473-17.1445-21.1-39.0507-21.293-39.9931a5 5 0 0 1 5.9033-5.9033c.9619.1972 23.76 5.038 41.0459 22.3251q.7662.7662 1.5156 1.5362c-.208-3.375-.3144-6.8291-.3144-10.3145 0-28.1289 14.6064-50.6123 15.2285-51.5556a5 5 0 0 1 8.35 0c.6221.9433 15.2285 23.4267 15.2285 51.5556 0 3.4854-.1064 6.94-.3144 10.3145q.7485-.7706 1.5156-1.5362c17.2861-17.2871 40.084-22.1279 41.0459-22.3251a5 5 0 0 1 5.9033 5.9033c-.1933.9424-4.8457 22.8486-21.293 39.9931a78.1144 78.1144 0 0 1 20.4913 8.8662 5.0006 5.0006 0 0 1 0 8.35c-.68.4482-16.2588 10.57-36.1788 11.3867a45.2064 45.2064 0 0 1 3.1026 8.9365 5 5 0 0 1-5.9043 5.9043 48.0687 48.0687 0 0 1-15.5332-6.7881l.2256 2.5752A10.1436 10.1436 0 0 1 258.3594 439zm-8.4951-30.9609a4.9994 4.9994 0 0 1 4.98 5.4365l-1.3467 15.3682a.1271.1271 0 0 0 .0371.1093.1259.1259 0 0 0 .1064.0469h4.7188a.1259.1259 0 0 0 .1064-.0469.1271.1271 0 0 0 .0371-.1093l-1.3466-15.3682a5 5 0 0 1 8.7773-3.69c1.0381 1.2119 2.1621 2.4239 3.34 3.6026a31.6938 31.6938 0 0 0 6.5889 4.98 34.0607 34.0607 0 0 0-2.0644-3.1728 5 5 0 0 1 4.288-7.9522c1.959.1006 3.96.1514 5.9483.1514a64.4413 64.4413 0 0 0 25.123-5.6162 68.3788 68.3788 0 0 0-17.8935-5.1162 5 5 0 0 1-2.6651-8.6836c1.88-1.6787 3.75-3.4482 5.56-5.2568 9.02-9.0206 14.2412-20.0284 16.9941-27.4776-7.4482 2.752-18.457 7.9737-27.4775 16.9942a125.4014 125.4014 0 0 0-11.4834 13.1181 5 5 0 0 1-8.91-3.9219 139.9172 139.9172 0 0 0 2.122-25.0449c0-15.89-5.4121-30.0722-9.4033-38.3711-3.9912 8.2969-9.4033 22.4805-9.4033 38.3711a139.9076 139.9076 0 0 0 2.1221 25.0449 5 5 0 0 1-8.91 3.9219 125.4014 125.4014 0 0 0-11.4834-13.1181c-9.02-9.0205-20.0283-14.2413-27.4775-16.9942 2.7519 7.4483 7.9736 18.457 16.9941 27.4776 1.81 1.8086 3.68 3.5781 5.56 5.2568a5 5 0 0 1-2.6651 8.6836 68.3664 68.3664 0 0 0-17.9092 5.1094 64.46 64.46 0 0 0 25.1387 5.623c1.9883 0 3.9893-.0508 5.9483-.1514a5 5 0 0 1 4.288 7.9522 34.1694 34.1694 0 0 0-2.0644 3.1719 31.6584 31.6584 0 0 0 6.5908-4.9815c1.1758-1.1767 2.3-2.3887 3.3379-3.6006A4.9976 4.9976 0 0 1 249.8643 408.0391zM397.8594 283.97H114.1406a5 5 0 0 1-4.6806-3.2422 25.3563 25.3563 0 0 1-1.62-8.9472V26.53A25.5638 25.5638 0 0 1 133.38 1H378.62a25.5638 25.5638 0 0 1 25.54 25.53V271.78a25.3563 25.3563 0 0 1-1.62 8.9472A5 5 0 0 1 397.8594 283.97zm-279.8662-10H394.0068a15.6823 15.6823 0 0 0 .1534-2.1894V26.53A15.5529 15.5529 0 0 0 378.62 11H133.38a15.5529 15.5529 0 0 0-15.54 15.53V271.78A15.6823 15.6823 0 0 0 117.9932 273.97z"/><path d="M221.0059 266.95H163.7422A25.5623 25.5623 0 0 1 138.208 241.417v-58.71a25.5627 25.5627 0 0 1 25.5342-25.5337h57.2637a25.5625 25.5625 0 0 1 25.5332 25.5337v58.71A25.5621 25.5621 0 0 1 221.0059 266.95zm-57.2637-99.7769A15.5516 15.5516 0 0 0 148.208 182.707v58.71A15.5512 15.5512 0 0 0 163.7422 256.95h57.2637a15.55 15.55 0 0 0 15.5332-15.5332v-58.71a15.5508 15.5508 0 0 0-15.5332-15.5337zM348.2578 266.95H290.9941a25.5621 25.5621 0 0 1-25.5332-25.5332v-58.71a25.5625 25.5625 0 0 1 25.5332-25.5337h57.2637A25.5627 25.5627 0 0 1 373.792 182.707v58.71A25.5623 25.5623 0 0 1 348.2578 266.95zm-57.2637-99.7769a15.5508 15.5508 0 0 0-15.5332 15.5337v58.71A15.55 15.55 0 0 0 290.9941 256.95h57.2637A15.5512 15.5512 0 0 0 363.792 241.417v-58.71a15.5516 15.5516 0 0 0-15.5342-15.5337zM221.0059 136.8062H163.7422a25.5627 25.5627 0 0 1-25.5342-25.5337v-58.71a25.5627 25.5627 0 0 1 25.5342-25.5337h57.2637a25.5625 25.5625 0 0 1 25.5332 25.5337v58.71A25.5625 25.5625 0 0 1 221.0059 136.8062zM163.7422 37.0288A15.5516 15.5516 0 0 0 148.208 52.5625v58.71a15.5516 15.5516 0 0 0 15.5342 15.5337h57.2637a15.5508 15.5508 0 0 0 15.5332-15.5337v-58.71a15.5508 15.5508 0 0 0-15.5332-15.5337zM348.2578 136.8062H290.9941a25.5625 25.5625 0 0 1-25.5332-25.5337v-58.71a25.5625 25.5625 0 0 1 25.5332-25.5337h57.2637A25.5627 25.5627 0 0 1 373.792 52.5625v58.71A25.5627 25.5627 0 0 1 348.2578 136.8062zM290.9941 37.0288a15.5508 15.5508 0 0 0-15.5332 15.5337v58.71a15.5508 15.5508 0 0 0 15.5332 15.5337h57.2637a15.5516 15.5516 0 0 0 15.5342-15.5337v-58.71a15.5516 15.5516 0 0 0-15.5342-15.5337z"/></g></svg>