<?xml version="1.0" encoding="utf-8"?>
<!-- Generator: Adobe Illustrator 24.2.1, SVG Export Plug-In . SVG Version: 6.00 Build 0)  -->
<svg version="1.1" xmlns="http://www.w3.org/2000/svg" xmlns:xlink="https://www.w3.org/1999/xlink" x="0px" y="0px"
	 viewBox="0 0 800 800" style="enable-background:new 0 0 800 800;" xml:space="preserve">
<style type="text/css">
	.st0{fill:#FFFFFF;}
</style>
<g id="Layer_1">
	<g>
		<g id="Layer_1_2_">
			
				<g id="Layer_1_1_" xmlns:cc="https://creativecommons.org/ns#" xmlns:dc="https://purl.org/dc/elements/1.1/" xmlns:inkscape="https://www.inkscape.org/namespaces/inkscape" xmlns:rdf="https://www.w3.org/1999/02/22-rdf-syntax-ns#" xmlns:sodipodi="https://sodipodi.sourceforge.net/DTD/sodipodi-0.dtd" xmlns:svg="http://www.w3.org/2000/svg">
				<g transform="translate(0,-952.36218)">
					<path d="M400,975.9c-69.4,0-125.5,56.1-125.5,125.5v71.7h-98.6c-5.6,0.1-8.5,4-9,8.1l-44.8,537.9c-0.5,5,4,9.8,9,9.8H669
						c5,0,9.4-4.8,9-9.8l-44.8-537.9c-0.4-4.4-4.5-8.1-9-8.1h-98.6v-71.7C525.5,1032,469.4,975.9,400,975.9z M400,993.8
						c59.7,0,107.6,47.8,107.6,107.6v71.7H292.4v-71.7C292.4,1041.6,340.3,993.8,400,993.8z M184.3,1191h90.2v54.6
						c-20.4,4.2-35.9,22.4-35.9,44c0,24.6,20.2,44.8,44.8,44.8c24.6,0,44.8-20.2,44.8-44.8c0-21.6-15.5-39.8-35.9-44V1191h215.1
						v54.6c-20.4,4.2-35.9,22.4-35.9,44c0,24.6,20.2,44.8,44.8,44.8s44.8-20.2,44.8-44.8c0-21.6-15.5-39.8-35.9-44V1191h90.2
						l43.4,519.9H140.9L184.3,1191z M283.5,1262.7c15,0,26.9,11.9,26.9,26.9s-11.9,26.9-26.9,26.9s-26.9-11.9-26.9-26.9
						C256.6,1274.7,268.5,1262.7,283.5,1262.7z M516.5,1262.7c15,0,26.9,11.9,26.9,26.9s-11.9,26.9-26.9,26.9s-26.9-11.9-26.9-26.9
						C489.6,1274.7,501.6,1262.7,516.5,1262.7z"/>
				</g>
				<g>
					<path d="M590.6,568.3c0,0-48.7-33-105.6-32.1c33-23,69.8-63.3,90.9-134.9c0,0-77.1,14.7-127.6,68.9
						c10.1-88.1-43.1-168.9-43.1-168.9c-39.5,69.8-45,128.5-38.6,172.6c-50.5-57.8-131.3-73.4-131.3-73.4
						c21.1,71.6,56.9,112,90.9,134.9c-56.9-0.9-105.6,32.1-105.6,32.1c63.4,34.8,113,31.2,144.2,20.1c-24.8,22-29.4,50.5-29.4,50.5
						c35.8-11.9,54.2-37.6,63.3-54.2l-1.6,35.2c1.3,0,4.1,0,4.4,0h8.7c0,0,2.5,0,4,0l-1.6-35.2c8.3,17.4,26.6,42.2,63.3,54.2
						c0,0-4.6-27.5-29.4-50.5C478.6,598.6,527.3,603.2,590.6,568.3z"/>
				</g>
			</g>
			<g id="Layer_2_1_">
				<ellipse class="st0" cx="384.9" cy="502.8" rx="8.5" ry="16.3"/>
				<ellipse class="st0" cx="430.8" cy="502.8" rx="8.5" ry="16.3"/>
			</g>
		</g>
		<g id="Layer_2_2_">
			<rect x="364.1" y="532.8" width="85.3" height="42.5"/>
		</g>
	</g>
	<g id="Layer_3_1_">
		<path class="st0" d="M389.6,548.4c11.3-7.8,24.4-9.3,40.5,0"/>
	</g>
</g>
<g id="Layer_2">
</g>
</svg>
