<svg xmlns="http://www.w3.org/2000/svg" data-name="Layer 2" viewBox="0 0 64 64"><path fill="#3a7506" d="M21 45a46.656 46.656 0 0 0-8 1 45.306 45.306 0 0 1-8 1s6 5 11 6a22.578 22.578 0 0 0 9 0s-4 3-5 4 2 2 7-1l5-3 5 3c5 3 8 2 7 1s-5-4-5-4a22.578 22.578 0 0 0 9 0c5-1 11-6 11-6a45.306 45.306 0 0 1-8-1 52.428 52.428 0 0 0-9-1c13-7 19-22 19-22-15 1-22 11-22 11s2.849-7.06 2-13c-1-7-9-18-9-18s-8 11-9 18c-.849 5.94 2 13 2 13S18 24 3 23c0 0 5 15 18 22z"/><path d="M2.209 22.389a1 1 0 0 0-.157.927c.193.583 4.571 13.4 15.747 20.916a59.15 59.15 0 0 0-4.995.788A45.128 45.128 0 0 1 5 46a1 1 0 0 0-.64 1.768c.253.211 6.255 5.175 11.445 6.212a24.5 24.5 0 0 0 5.7.449c-.914.723-1.795 1.446-2.212 1.864a1.414 1.414 0 0 0-.189 1.93c.95 1.215 4.218 1.15 8.411-1.366L31 54.766V62h2v-7.234l3.485 2.091a12.907 12.907 0 0 0 6.241 2.135 2.68 2.68 0 0 0 2.17-.769 1.414 1.414 0 0 0-.189-1.93c-.417-.418-1.3-1.141-2.212-1.864a24.592 24.592 0 0 0 5.7-.449c5.19-1.037 11.192-6 11.445-6.212A1 1 0 0 0 59 46a45.128 45.128 0 0 1-7.8-.98 54.953 54.953 0 0 0-5.9-.84c11.215-7.512 16.4-20.229 16.635-20.808a1 1 0 0 0-.12-.96.983.983 0 0 0-.875-.41 32.111 32.111 0 0 0-19.668 8.081 25.322 25.322 0 0 0 .724-9.225C40.967 13.7 33.142 2.869 32.809 2.412a1.038 1.038 0 0 0-1.618 0c-.333.457-8.158 11.283-9.181 18.446a25.322 25.322 0 0 0 .724 9.225A32.111 32.111 0 0 0 3.066 22a.98.98 0 0 0-.857.389zm21.973 12.186a1 1 0 0 0 1.746-.949c-.028-.068-2.738-6.889-1.938-12.484.769-5.379 5.978-13.423 8.01-16.4 2.032 2.973 7.241 11.017 8.01 16.4.8 5.595-1.91 12.416-1.938 12.484a1 1 0 0 0 1.746.949c.066-.093 6.4-8.874 19.563-10.422-1.9 3.936-7.726 14.513-17.855 19.967A1 1 0 0 0 42 46a51.841 51.841 0 0 1 8.809.98c2.241.449 4.084.7 5.452.841-2.126 1.5-5.506 3.609-8.452 4.2a21.842 21.842 0 0 1-8.563.009 1 1 0 0 0-.846 1.77c.854.641 2.873 2.181 4.093 3.2a11.771 11.771 0 0 1-4.978-1.856l-5-3a1 1 0 0 0-1.03 0l-5 3A11.747 11.747 0 0 1 21.507 57c1.22-1.018 3.239-2.558 4.093-3.2a1 1 0 0 0-.842-1.77 21.669 21.669 0 0 1-8.562-.01c-2.941-.589-6.323-2.7-8.45-4.2 1.367-.14 3.21-.391 5.45-.84a46.463 46.463 0 0 1 7.811-.98 1 1 0 0 0 .467-1.88c-10.143-5.462-15.34-16.1-16.959-19.979 13.234 1.513 19.601 10.341 19.667 10.434z"/></svg>