<?xml version="1.0" encoding="utf-8"?>
<!-- Generator: Adobe Illustrator 24.2.1, SVG Export Plug-In . SVG Version: 6.00 Build 0)  -->
<svg version="1.1" xmlns="http://www.w3.org/2000/svg" xmlns:xlink="http://www.w3.org/1999/xlink" x="0px" y="0px"
	 viewBox="0 0 100 100" style="enable-background:new 0 0 100 100;" xml:space="preserve">
<g id="Layer_1">
</g>
<g id="Layer_2">
	<path d="M88,63.6c-1.5-1-10.4-6.4-20.9-6.5c-0.2,0-0.2-0.2-0.1-0.3c6.6-4.7,13.9-12.8,18.1-27c0-0.1-0.1-0.2-0.2-0.2
		c-2.1,0.4-16,3.7-25.5,13.7c-0.1,0.1-0.3,0-0.3-0.1c1.7-16.6-7.4-31.8-8.7-33.8c-0.1-0.1-0.2-0.1-0.3,0c-7.8,13.9-9,25.6-7.8,34.5
		c0,0.2-0.2,0.2-0.3,0.1c-9.5-10.6-24-14.1-26.2-14.5c-0.1,0-0.2,0.1-0.2,0.2C20,43.8,27,52,33.8,56.7c0.1,0.1,0.1,0.3-0.1,0.3
		c-10.3,0-19.3,5.5-20.8,6.4c-0.1,0.1-0.1,0.2,0,0.3c12.5,6.6,22.3,6.1,28.6,4.1c0.2-0.1,0.3,0.2,0.2,0.3c-4,3.8-5.1,8.3-5.4,9.5
		c0,0.1,0.1,0.2,0.2,0.2c6.7-2.3,10.4-7,12.3-10.4c0.1-0.2,0.3-0.1,0.3,0.1l-0.2,4.3h3.2L52,67.6c0-0.2,0.2-0.2,0.3-0.1
		c1.8,3.5,5.4,7.9,12.3,10.3c0.1,0,0.3-0.1,0.2-0.2c-0.3-1.2-1.4-5.6-5.4-9.5c-0.1-0.1,0-0.3,0.2-0.3c6.5,2.1,16.1,2.7,28.5-4
		C88.1,63.8,88.1,63.6,88,63.6z"/>
</g>
</svg>
