<svg xmlns="http://www.w3.org/2000/svg" viewBox="0 0 64 64"><circle cx="27.413" cy="37.796" r="23" fill="#e5efef"/><line x1="8" x2="8" y1="10" y2="12" fill="none" stroke="#4c241d" stroke-linecap="round" stroke-linejoin="round" stroke-width="2"/><line x1="8" x2="8" y1="16" y2="18" fill="none" stroke="#4c241d" stroke-linecap="round" stroke-linejoin="round" stroke-width="2"/><line x1="4" x2="6" y1="14" y2="14" fill="none" stroke="#4c241d" stroke-linecap="round" stroke-linejoin="round" stroke-width="2"/><line x1="10" x2="12" y1="14" y2="14" fill="none" stroke="#4c241d" stroke-linecap="round" stroke-linejoin="round" stroke-width="2"/><circle cx="58.5" cy="24.5" r="2.5" fill="none" stroke="#4c241d" stroke-linecap="round" stroke-linejoin="round" stroke-width="2"/><circle cx="17.579" cy="4.9" r="1.069" fill="#4c241d"/><circle cx="50.579" cy="13.9" r="1.069" fill="#4c241d"/><path fill="#a9ba5a" stroke="#4c241d" stroke-linecap="round" stroke-linejoin="round" stroke-width="2" d="M23.973,43.294c10.416-1.218,12.479-9.937,12.479-9.937-11.081.14-14.27,5.83-14.27,5.83C27.687,27.6,23.9,20.258,23.9,20.258s-6.676,4.866-6.949,17.691c0,0-.3-6.516-10.143-11.607,0,0-2.064,8.719,6.7,14.476,0,0-5.691-3.188-10-.526,0,0,4.2,5.6,10.051,4.22,0,0-3.9.919-5.139,6.15,0,0,6.1,1.444,9.085-3.374.506,5.644,6.61,7.088,6.61,7.088,1.238-5.232-1.837-7.8-1.837-7.8,4.612,3.854,10.875.732,10.875.732C30.489,43,23.973,43.294,23.973,43.294Z"/><line x1="17.503" x2="15.234" y1="47.288" y2="56.878" fill="none" stroke="#4c241d" stroke-linecap="round" stroke-linejoin="round" stroke-width="2"/><rect width="5.769" height="13.846" x="47.846" y="31.308" fill="#fff" stroke="#4c241d" stroke-linecap="round" stroke-linejoin="round" stroke-width="2" transform="rotate(-135 50.731 38.23)"/><path fill="#fff" stroke="#4c241d" stroke-linecap="round" stroke-linejoin="round" stroke-width="2" d="M44,35.185V16H37V35.046a12.564,12.564,0,0,0-9.339,13.931L32.017,46.8a6.934,6.934,0,0,1,6.946.433,6.933,6.933,0,0,0,7.3.242l2.464-1.416a6.91,6.91,0,0,1,4.015-.884A12.709,12.709,0,0,0,44,35.185Z"/><path fill="#efefd2" stroke="#4c241d" stroke-linecap="round" stroke-linejoin="round" stroke-width="2" d="M48.728,46.058l-2.464,1.416a6.933,6.933,0,0,1-7.3-.242,6.934,6.934,0,0,0-6.946-.433l-4.356,2.178a12.686,12.686,0,0,0,25.262-1.669,12.821,12.821,0,0,0-.18-2.134A6.91,6.91,0,0,0,48.728,46.058Z"/></svg>