<svg xmlns="http://www.w3.org/2000/svg" enable-background="new 0 0 64 64" viewBox="0 0 64 64"><path fill="#4e5292" d="M6.88,43.87c-2.01,0-3.64,1.63-3.64,3.64c0,2.01,1.63,3.64,3.64,3.64c2.01,0,3.65-1.63,3.65-3.64
		C10.53,45.5,8.89,43.87,6.88,43.87z M6.88,49.2c-0.94,0-1.7-0.76-1.7-1.7c0-0.94,0.76-1.7,1.7-1.7c0.94,0,1.71,0.76,1.71,1.7
		C8.59,48.45,7.83,49.2,6.88,49.2z"/><path fill="#f0d299" d="M8.59,47.51c0,0.94-0.77,1.7-1.71,1.7c-0.94,0-1.7-0.76-1.7-1.7c0-0.94,0.76-1.7,1.7-1.7
		C7.83,45.81,8.59,46.56,8.59,47.51z"/><path fill="#ffe4aa" d="M8.59,47.51c0,0.94-0.77,1.7-1.71,1.7c0.54,0,0.98-0.76,0.98-1.7c0-0.94-0.44-1.7-0.98-1.7
		C7.83,45.81,8.59,46.56,8.59,47.51z"/><path fill="#dfc189" d="M6.88,49.2c-0.94,0-1.7-0.76-1.7-1.7c0-0.94,0.76-1.7,1.7-1.7c-0.54,0-0.97,0.76-0.97,1.7
		C5.92,48.45,6.34,49.2,6.88,49.2z"/><path fill="#4e5292" d="M6.88,51.99C3.09,51.99,0,55.08,0,58.87c0,0.54,0.44,0.97,0.97,0.97H12.8c0.53,0,0.97-0.43,0.97-0.97
		C13.77,55.08,10.68,51.99,6.88,51.99z M2.04,57.9c0.46-2.26,2.45-3.98,4.85-3.98c2.4,0,4.39,1.72,4.85,3.98H2.04z"/><path fill="#bbe0f6" d="M11.73,57.9h-9.7c0.46-2.26,2.45-3.98,4.85-3.98C9.28,53.92,11.28,55.64,11.73,57.9z"/><path fill="#cae5f7" d="M11.73,57.9h-1.39c-0.33-2.26-1.76-3.98-3.46-3.98C9.28,53.92,11.28,55.64,11.73,57.9z"/><path fill="#a7d6e7" d="M6.88,53.92c-1.71,0-3.13,1.72-3.46,3.98H2.04C2.49,55.64,4.49,53.92,6.88,53.92z"/><path fill="#4e5292" d="M21.67,43.87c-2.01,0-3.64,1.63-3.64,3.64c0,2.01,1.63,3.64,3.64,3.64c2.01,0,3.65-1.63,3.65-3.64
		C25.32,45.5,23.68,43.87,21.67,43.87z M21.67,49.2c-0.93,0-1.7-0.76-1.7-1.7c0-0.94,0.77-1.7,1.7-1.7c0.94,0,1.71,0.76,1.71,1.7
		C23.38,48.45,22.61,49.2,21.67,49.2z"/><path fill="#f0d299" d="M23.38,47.51c0,0.94-0.77,1.7-1.71,1.7c-0.93,0-1.7-0.76-1.7-1.7c0-0.94,0.77-1.7,1.7-1.7
		C22.61,45.81,23.38,46.56,23.38,47.51z"/><path fill="#4e5292" d="M21.67,51.99c-3.79,0-6.88,3.09-6.88,6.88c0,0.54,0.43,0.97,0.97,0.97h11.82c0.53,0,0.97-0.43,0.97-0.97
		C28.56,55.08,25.47,51.99,21.67,51.99z M16.82,57.9c0.46-2.26,2.45-3.98,4.85-3.98c2.4,0,4.4,1.72,4.85,3.98H16.82z"/><path fill="#bbe0f6" d="M26.52,57.9h-9.7c0.46-2.26,2.45-3.98,4.85-3.98C24.07,53.92,26.08,55.64,26.52,57.9z"/><path fill="#4e5292" d="M53.55,40.43c-5.77,0-10.46,4.69-10.46,10.46c0,5.76,4.69,10.45,10.46,10.45c5.76,0,10.45-4.69,10.45-10.45
		C64,45.12,59.31,40.43,53.55,40.43z M53.55,59.4c-4.7,0-8.52-3.82-8.52-8.51c0-4.7,3.82-8.52,8.52-8.52c4.69,0,8.51,3.82,8.51,8.52
		C62.06,55.58,58.24,59.4,53.55,59.4z"/><path fill="#ffdb7c" d="M53.55,42.37c-4.7,0-8.52,3.82-8.52,8.52c0,4.69,3.82,8.51,8.52,8.51c4.69,0,8.51-3.82,8.51-8.51
		C62.06,46.19,58.24,42.37,53.55,42.37z M58.69,50.04l-1.87,1.82l0.45,2.57c0.06,0.37-0.09,0.73-0.39,0.95
		c-0.3,0.21-0.69,0.24-1.02,0.07l-2.31-1.21l-2.32,1.21c-0.14,0.08-0.29,0.12-0.45,0.12c-0.2,0-0.4-0.07-0.57-0.18
		c-0.3-0.22-0.45-0.58-0.39-0.95l0.45-2.57l-1.87-1.82c-0.26-0.26-0.36-0.64-0.24-1c0.12-0.35,0.42-0.6,0.79-0.66l2.58-0.37
		l1.15-2.35c0.33-0.66,1.42-0.66,1.74,0l1.15,2.35l2.59,0.37c0.36,0.06,0.67,0.31,0.78,0.66C59.04,49.4,58.95,49.77,58.69,50.04z"/><path fill="#f0ca6c" d="M61.15,54.72c-0.28,0.57-0.63,1.1-1.04,1.58c-0.01,0.02-0.03,0.03-0.04,0.04c-1.47,1.21-3.36,1.95-5.41,1.95
		c-4.7,0-8.52-3.82-8.52-8.51c0-2.07,0.73-3.95,1.95-5.42c0.01-0.01,0.02-0.03,0.04-0.04c0.48-0.4,1.02-0.75,1.58-1.03
		c-0.58,1.15-0.91,2.45-0.91,3.83c0,0.44,0.03,0.86,0.1,1.28c-0.35,0.06-0.63,0.31-0.74,0.64c-0.12,0.36-0.02,0.74,0.24,1l1.78,1.75
		c0.03,0.04,0.06,0.08,0.08,0.12l-0.44,2.53c-0.06,0.37,0.09,0.73,0.39,0.95c0.17,0.12,0.37,0.18,0.57,0.18
		c0.16,0,0.31-0.04,0.45-0.12l1.83-0.96c0.97,0.57,2.08,0.95,3.25,1.08c0.33,0.05,0.67,0.07,1.01,0.07
		C58.7,55.63,60,55.3,61.15,54.72z"/><path fill="#e1ba62" d="M60.07,56.34c-1.55,1.87-3.91,3.06-6.53,3.06c-4.7,0-8.52-3.82-8.52-8.51c0-2.63,1.19-4.97,3.06-6.54
		c-1.22,1.47-1.95,3.36-1.95,5.42c0,4.69,3.82,8.51,8.52,8.51C56.72,58.29,58.6,57.55,60.07,56.34z"/><path fill="#4e5292" d="M31.72,9.25c-6.3,0-11.44,5.13-11.44,11.44c0,6.3,5.14,11.43,11.44,11.43S43.15,27,43.15,20.69
		C43.15,14.38,38.02,9.25,31.72,9.25z M31.72,30.19c-5.24,0-9.5-4.26-9.5-9.49c0-5.24,4.27-9.5,9.5-9.5c5.24,0,9.49,4.27,9.49,9.5
		C41.21,25.93,36.96,30.19,31.72,30.19z"/><path fill="#4e5292" d="M29.42 19.27c-.17.13-.38.19-.57.19-.3 0-.59-.14-.79-.4-.11-.15-.29-.23-.48-.23-.27 0-.44.16-.5.25-.33.42-.94.5-1.37.17-.42-.33-.49-.94-.17-1.36.49-.65 1.24-1.01 2.05-1.01.8 0 1.56.38 2.04 1.02C29.94 18.34 29.85 18.95 29.42 19.27zM37.7 19.27c-.17.13-.38.19-.57.19-.3 0-.59-.14-.79-.4-.22-.3-.75-.3-.98.02-.33.42-.94.5-1.37.17-.42-.33-.5-.94-.17-1.36.49-.65 1.24-1.01 2.05-1.01.8 0 1.56.38 2.04 1.02C38.23 18.34 38.13 18.95 37.7 19.27zM35.02 24.69c-.8 1.04-2.01 1.64-3.31 1.64s-2.53-.62-3.31-1.66c-.31-.43-.22-1.04.2-1.36.43-.32 1.04-.22 1.36.2.41.54 1.06.87 1.75.87.7 0 1.34-.32 1.77-.88.33-.43.93-.5 1.36-.17C35.27 23.65 35.35 24.26 35.02 24.69z"/><path fill="#4e5292" d="M52.52,13.98c-0.9-5.75-5.89-10.04-11.77-10.04c-2.04,0-4.02,0.51-5.79,1.5c-2.38-1.8-5.28-2.79-8.26-2.79
		c-7.2,0-13.18,5.7-13.59,12.82C9.71,17.66,7.6,21.45,7.6,25.5c0,6.56,5.35,11.91,11.93,11.91c1.27,0,2.51-0.19,3.69-0.58
		c1.5,0.79,3.22,1.2,5,1.2c1.85,0,3.63-0.45,5.16-1.29c1.91,0.74,3.91,1.12,5.95,1.12c8.76,0,15.99-6.72,16.47-15.29
		C56.02,18.71,54.83,15.61,52.52,13.98z M53.87,22.46c-0.42,7.54-6.8,13.46-14.53,13.46c-1.95,0-3.85-0.39-5.65-1.14
		c-0.28-0.13-0.62-0.1-0.88,0.07c-1.32,0.81-2.91,1.25-4.58,1.25c-1.6,0-3.12-0.4-4.42-1.15c-0.15-0.09-0.32-0.14-0.48-0.14
		c-0.12,0-0.23,0.02-0.34,0.06c-1.11,0.41-2.26,0.61-3.45,0.61c-5.51,0-9.99-4.47-9.99-9.97c0-3.54,1.92-6.85,5-8.63
		c0.3-0.16,0.48-0.48,0.48-0.82C15.14,9.74,20.37,4.6,26.7,4.6c2.76,0,5.44,0.99,7.54,2.77c0.33,0.27,0.8,0.31,1.15,0.08
		c1.61-1.03,3.45-1.56,5.35-1.56c5.06,0,9.32,3.77,9.91,8.79c0.04,0.3,0.21,0.56,0.47,0.72C53.02,16.53,54.05,19.17,53.87,22.46z"/><path fill="#d8dfe6" d="M51.12,15.39c-0.25-0.16-0.43-0.42-0.47-0.72c-0.59-5.01-4.85-8.79-9.91-8.79c-1.9,0-3.74,0.53-5.35,1.56
		c-0.36,0.23-0.82,0.19-1.15-0.08c-2.1-1.78-4.78-2.77-7.54-2.77c-6.32,0-11.56,5.14-11.67,11.45c0,0.35-0.18,0.66-0.48,0.82
		c-3.08,1.78-5,5.09-5,8.63c0,5.5,4.48,9.97,9.99,9.97c1.19,0,2.35-0.2,3.45-0.61c0.11-0.04,0.22-0.06,0.34-0.06
		c0.16,0,0.34,0.05,0.48,0.14c1.3,0.76,2.82,1.15,4.42,1.15c1.67,0,3.26-0.44,4.58-1.25c0.26-0.16,0.6-0.19,0.88-0.07
		c1.8,0.76,3.7,1.14,5.65,1.14c7.73,0,14.11-5.92,14.53-13.46C54.05,19.17,53.02,16.53,51.12,15.39z M31.72,32.13
		c-6.3,0-11.44-5.13-11.44-11.43c0-6.31,5.14-11.44,11.44-11.44s11.43,5.13,11.43,11.44C43.15,27,38.02,32.13,31.72,32.13z"/><path fill="#ccd5dd" d="M53.81,23.17c-0.07,0.63-0.17,1.25-0.33,1.85c-2.08,5.38-7.41,9.17-13.6,9.17c-1.95,0-3.85-0.39-5.65-1.14
		c-0.28-0.13-0.62-0.1-0.88,0.07c-1.32,0.81-2.91,1.25-4.58,1.25c-1.6,0-3.12-0.4-4.42-1.15c-0.15-0.09-0.32-0.14-0.48-0.14
		c-0.12,0-0.23,0.02-0.34,0.06c-1.11,0.41-2.26,0.61-3.45,0.61c-5.51,0-9.99-4.47-9.99-9.97c0-0.71,0.08-1.41,0.23-2.08
		c0.37-0.89,0.87-1.74,1.49-2.48c0,0.01,0,0.01,0,0.02c0,5.5,4.48,9.97,9.99,9.97c0.7,0,1.39-0.07,2.06-0.22
		c2.06,1.96,4.82,3.15,7.86,3.15c2.8,0,5.38-1.02,7.37-2.71c0.82,0.15,1.67,0.22,2.52,0.22C46.7,29.64,51.21,27.07,53.81,23.17z"/><path fill="#b5c3cc" d="M53.48,25.02c-1.53,6.28-7.31,10.9-14.14,10.9c-1.95,0-3.85-0.39-5.65-1.14c-0.28-0.13-0.62-0.1-0.88,0.07
		c-1.32,0.81-2.91,1.25-4.58,1.25c-1.6,0-3.12-0.4-4.42-1.15c-0.15-0.09-0.32-0.14-0.48-0.14c-0.12,0-0.23,0.02-0.34,0.06
		c-1.11,0.41-2.26,0.61-3.45,0.61c-5.51,0-9.99-4.47-9.99-9.97c0-1.32,0.27-2.62,0.78-3.81c-0.16,0.68-0.23,1.38-0.23,2.08
		c0,5.5,4.48,9.97,9.99,9.97c1.19,0,2.35-0.2,3.45-0.61c0.11-0.04,0.22-0.06,0.34-0.06c0.16,0,0.34,0.05,0.48,0.14
		c1.3,0.76,2.82,1.15,4.42,1.15c1.67,0,3.26-0.44,4.58-1.25c0.26-0.16,0.6-0.19,0.88-0.07c1.8,0.76,3.7,1.14,5.65,1.14
		C46.07,34.19,51.39,30.4,53.48,25.02z"/><path fill="#ffdb7c" d="M31.72,11.19c-5.24,0-9.5,4.27-9.5,9.5c0,5.24,4.27,9.49,9.5,9.49c5.24,0,9.49-4.26,9.49-9.49
		C41.21,15.46,36.96,11.19,31.72,11.19z M27.59,18.83c-0.27,0-0.44,0.16-0.5,0.25c-0.33,0.42-0.94,0.5-1.37,0.17
		c-0.42-0.33-0.49-0.94-0.17-1.36c0.49-0.65,1.24-1.01,2.05-1.01c0.8,0,1.56,0.38,2.04,1.02c0.32,0.43,0.22,1.04-0.2,1.36
		c-0.17,0.13-0.38,0.19-0.57,0.19c-0.3,0-0.59-0.14-0.79-0.4C27.96,18.92,27.77,18.83,27.59,18.83z M35.02,24.69
		c-0.8,1.04-2.01,1.64-3.31,1.64s-2.53-0.62-3.31-1.66c-0.31-0.43-0.22-1.04,0.2-1.36c0.43-0.32,1.04-0.22,1.36,0.2
		c0.41,0.54,1.06,0.87,1.75,0.87c0.7,0,1.34-0.32,1.77-0.88c0.33-0.43,0.93-0.5,1.36-0.17C35.27,23.65,35.35,24.26,35.02,24.69z
		 M37.7,19.27c-0.17,0.13-0.38,0.19-0.57,0.19c-0.3,0-0.59-0.14-0.79-0.4c-0.22-0.3-0.75-0.3-0.98,0.02
		c-0.33,0.42-0.94,0.5-1.37,0.17c-0.42-0.33-0.5-0.94-0.17-1.36c0.49-0.65,1.24-1.01,2.05-1.01c0.8,0,1.56,0.38,2.04,1.02
		C38.23,18.34,38.13,18.95,37.7,19.27z"/><path fill="#f0ca6c" d="M39.92,25.45c-0.3,0.53-0.67,1.03-1.07,1.49C37.19,28.41,35,29.3,32.6,29.3c-5.24,0-9.5-4.26-9.5-9.49
		c0-2.4,0.89-4.58,2.37-6.25c0.46-0.41,0.95-0.77,1.48-1.07c-0.81,1.4-1.28,3.03-1.28,4.75c0,0.16,0,0.33,0.01,0.48
		c0,0.01,0,0.01,0,0.01c-0.05,0.06-0.1,0.11-0.14,0.16c-0.32,0.42-0.24,1.03,0.17,1.36c0.06,0.05,0.13,0.09,0.19,0.12
		c0.39,1.68,1.22,3.19,2.37,4.39c-0.11,0.29-0.07,0.63,0.13,0.9c0.78,1.04,2.01,1.66,3.31,1.66c0.19,0,0.39-0.01,0.57-0.04
		c0.91,0.29,1.88,0.45,2.89,0.45C36.9,26.73,38.53,26.27,39.92,25.45z"/><path fill="#e1ba62" d="M38.86,26.95c-1.74,1.99-4.3,3.24-7.14,3.24c-5.24,0-9.5-4.26-9.5-9.49c0-2.84,1.26-5.4,3.25-7.14
		c-1.47,1.68-2.37,3.86-2.37,6.25c0,5.24,4.27,9.49,9.5,9.49C35,29.3,37.19,28.41,38.86,26.95z"/><path fill="#4e5292" d="M38.3 49.92h-4.27l.02-.02c.38-.38.38-.99.01-1.37-.38-.38-.99-.38-1.37-.01l-1.69 1.68c0 0 0 0 0 0-.09.09-.16.19-.21.31-.05.12-.08.24-.08.37 0 .13.03.26.08.38.05.12.12.22.21.31 0 0 0 0 0 0l1.69 1.68c.19.19.44.28.68.28.25 0 .5-.1.69-.29.38-.38.37-.99-.01-1.37l-.02-.02h4.27c.54 0 .97-.43.97-.97S38.84 49.92 38.3 49.92zM58.93 49.04c-.11-.35-.42-.6-.78-.66l-2.59-.37-1.15-2.35C54.09 45 53 45 52.67 45.66l-1.15 2.35-2.58.37c-.37.06-.67.31-.79.66-.12.36-.02.74.24 1l1.87 1.82-.45 2.57c-.06.37.09.73.39.95.17.12.37.18.57.18.16 0 .31-.04.45-.12l2.32-1.21 2.31 1.21c.33.17.72.15 1.02-.07.3-.22.45-.58.39-.95l-.45-2.57 1.87-1.82C58.95 49.77 59.04 49.4 58.93 49.04zM55.1 50.82c-.22.22-.33.54-.28.86l.2 1.13-1.03-.53c-.28-.16-.62-.16-.9 0l-1.02.53.19-1.13c.05-.32-.05-.64-.28-.86l-.82-.8 1.14-.17c.31-.05.58-.24.73-.53l.51-1.03.5 1.03c.15.29.42.48.74.53l1.13.17L55.1 50.82z"/><path fill="#f1b8c7" d="M55.1,50.82c-0.22,0.22-0.33,0.54-0.28,0.86l0.2,1.13l-1.03-0.53c-0.28-0.16-0.62-0.16-0.9,0l-1.02,0.53
		l0.19-1.13c0.05-0.32-0.05-0.64-0.28-0.86l-0.82-0.8l1.14-0.17c0.31-0.05,0.58-0.24,0.73-0.53l0.51-1.03l0.5,1.03
		c0.15,0.29,0.42,0.48,0.74,0.53l1.13,0.17L55.1,50.82z"/><path fill="#4e5292" d="M13.32,38.11c-1.58,0-2.87,1.29-2.87,2.86c0,1.58,1.29,2.87,2.87,2.87c1.57,0,2.86-1.29,2.86-2.87
		C16.18,39.4,14.89,38.11,13.32,38.11z M13.32,41.9c-0.51,0-0.93-0.42-0.93-0.93c0-0.5,0.42-0.92,0.93-0.92
		c0.5,0,0.92,0.42,0.92,0.92C14.24,41.48,13.83,41.9,13.32,41.9z"/><path fill="#b5c3cc" d="M14.24,40.97c0,0.51-0.42,0.93-0.92,0.93c-0.51,0-0.93-0.42-0.93-0.93c0-0.5,0.42-0.92,0.93-0.92
		C13.83,40.05,14.24,40.47,14.24,40.97z"/><path fill="#ffe4aa" d="M23.38,47.51c0,0.94-0.77,1.7-1.71,1.7c0.54,0,0.98-0.76,0.98-1.7c0-0.94-0.44-1.7-0.98-1.7
			C22.61,45.81,23.38,46.56,23.38,47.51z"/><path fill="#dfc189" d="M21.67,49.2c-0.94,0-1.7-0.76-1.7-1.7c0-0.94,0.76-1.7,1.7-1.7c-0.54,0-0.97,0.76-0.97,1.7
			C20.7,48.45,21.13,49.2,21.67,49.2z"/><path fill="#cae5f7" d="M26.52,57.9h-1.39c-0.33-2.26-1.76-3.98-3.46-3.98C24.07,53.92,26.07,55.64,26.52,57.9z"/><path fill="#a7d6e7" d="M21.67,53.92c-1.71,0-3.13,1.72-3.46,3.98h-1.39C17.28,55.64,19.28,53.92,21.67,53.92z"/></svg>