<svg xmlns="http://www.w3.org/2000/svg" viewBox="0 0 64 64"><path fill="#57a4ff" d="M41,19a8,8,0,0,0,7.95,8H49V59a2.006,2.006,0,0,1-2,2H17a2.006,2.006,0,0,1-2-2V27a8,8,0,0,0,.05-16H15V5a2.006,2.006,0,0,1,2-2h4V5a2.006,2.006,0,0,0,2,2H41a2.006,2.006,0,0,0,2-2V3h4a2.006,2.006,0,0,1,2,2v6A8,8,0,0,0,41,19Z"/><path fill="#ff7956" d="M36,28a9,9,0,0,1,9,9c0,9-13,15-13,15S19,46,19,37a8.9,8.9,0,0,1,13-8A9,9,0,0,1,36,28Z"/><path fill="#ffeb99" d="M49.05 11H49a8 8 0 0 0-.05 16H49a8 8 0 0 0 .05-16zM43 3V5a2.006 2.006 0 0 1-2 2H23a2.006 2.006 0 0 1-2-2V3zM15.05 11H15a8 8 0 0 0-.05 16H15a8 8 0 0 0 .05-16z"/><path d="M36,27a9.761,9.761,0,0,0-4,.895A9.761,9.761,0,0,0,28,27,10.011,10.011,0,0,0,18,37c0,9.53,13.026,15.652,13.581,15.908a1,1,0,0,0,.838,0C32.974,52.652,46,46.53,46,37A10.011,10.011,0,0,0,36,27ZM32,50.886C29.831,49.783,20,44.377,20,37a7.9,7.9,0,0,1,11.554-7.1,1.013,1.013,0,0,0,.892,0A7.9,7.9,0,0,1,44,37C44,44.377,34.169,49.783,32,50.886Z"/><polygon points="56 35 56 33 58 33 58 31 56 31 56 29 54 29 54 31 52 31 52 33 54 33 54 35 56 35"/><polygon points="31 25 33 25 33 23 35 23 35 21 33 21 33 19 31 19 31 21 29 21 29 23 31 23 31 25"/><polygon points="62 41 60 41 60 39 58 39 58 41 56 41 56 43 58 43 58 45 60 45 60 43 62 43 62 41"/><polygon points="10 29 8 29 8 31 6 31 6 33 8 33 8 35 10 35 10 33 12 33 12 31 10 31 10 29"/><polygon points="6 39 4 39 4 41 2 41 2 43 4 43 4 45 6 45 6 43 8 43 8 41 6 41 6 39"/><path d="M58,19a9.01,9.01,0,0,0-8-8.941V5a3,3,0,0,0-3-3H17a3,3,0,0,0-3,3v5.059a9,9,0,0,0,0,17.882V59a3,3,0,0,0,3,3H47a3,3,0,0,0,3-3V27.941A9.01,9.01,0,0,0,58,19Zm-2,0a7,7,0,1,1-7-7A7.008,7.008,0,0,1,56,19ZM22,4H42V5a1,1,0,0,1-1,1H23a1,1,0,0,1-1-1ZM8,19a7,7,0,1,1,7,7A7.008,7.008,0,0,1,8,19ZM47,60H17a1,1,0,0,1-1-1V27.941a9,9,0,0,0,0-17.882V5a1,1,0,0,1,1-1h3V5a3,3,0,0,0,3,3H41a3,3,0,0,0,3-3V4h3a1,1,0,0,1,1,1v5.059a9,9,0,0,0,0,17.882V59A1,1,0,0,1,47,60Z"/><path d="M48 13v1a2 2 0 0 0-2 2v2a2 2 0 0 0 2 2h2v2H46v2h2v1h2V24a2 2 0 0 0 2-2V20a2 2 0 0 0-2-2H48V16h4V14H50V13zM16 25V24a2 2 0 0 0 2-2V20a2 2 0 0 0-2-2H14V16h4V14H16V13H14v1a2 2 0 0 0-2 2v2a2 2 0 0 0 2 2h2v2H12v2h2v1zM33 33H31v1a2 2 0 0 0-2 2v2a2 2 0 0 0 2 2h2v2H29v2h2v1h2V44a2 2 0 0 0 2-2V40a2 2 0 0 0-2-2H31V36h4V34H33z"/></svg>