<svg xmlns="http://www.w3.org/2000/svg" width="32" height="32" enable-background="new 0 0 32 32" viewBox="0 0 32 32"><path fill="#57aade" d="M27.7,23.5c-0.2-0.2-0.5-0.4-0.6-0.4c-3.2-0.9-4.6,0-6.5,1.1c-1.6,1-3.4,2-6.6,2.2c1.8,0.7,4.1,1.6,6.4,2.2
				c3.1,0,6.3,0,9.4,0C29.2,26.9,28.5,25.2,27.7,23.5z"/><path fill="#60a174" d="M7.3,20.6c0.8,2.8,2.2,3.4,4.5,4.7c4.3,0.4,6.4-0.9,8.2-2c1.8-1.1,3.6-2.1,6.9-1.3c-0.6-1.4-0.7-2.3-1.3-3.7
				c-0.8,0-1.6,0-2.3,0h-5.7c-3.3,0-6.5,0-9.8,0c-0.1,0.2-0.5,1.2-0.7,1.4C7.1,20,7.3,20.5,7.3,20.6z"/><path fill="#faaf42" d="M6.4,21.7c-1.2,2.6-2,4.5-3.1,6.9c4.6,0,9.1,0,13.7,0C12.4,27.2,8.4,25.3,6.4,21.7z"/><path fill="#f0556a" d="M24.4,5.7c-1-0.8-2.2-1.3-3.6-1.3l0,0c-3.2,0-5.7,2.6-5.7,5.7c0,4.1,3.1,8.4,4.7,10.3c0.1-0.1,0.3-0.3,0.5-0.6
		c0,0,0,0,0,0c0.1-0.1,0.2-0.3,0.4-0.4c0,0,0,0,0,0v0c1.6-2,4.7-6.2,4.7-10.3C25.5,7.8,25.1,6.7,24.4,5.7z"/><circle cx="19.8" cy="9.1" r="2.9" fill="#fff"/><path fill="#57aade" d="M17.8,10c0,0.5,0.2,1,0.4,1.5c0.5,0.3,1,0.5,1.6,0.5c1.6,0,2.9-1.3,2.9-2.9c0-0.5-0.2-1-0.4-1.5
		c-0.5-0.3-1-0.5-1.6-0.5C19.1,7.1,17.8,8.4,17.8,10z"/><path d="M14.7 13.1c.1 0 .1 0 .2 0 .3-.1.4-.4.3-.6C15.1 12.2 15 12 15 11.8c-.1-.3-.4-.4-.6-.3-.3.1-.4.4-.3.6.1.2.1.5.2.7C14.3 13 14.5 13.1 14.7 13.1zM23.2 9.2c0-1.9-1.5-3.4-3.4-3.4-1.9 0-3.4 1.5-3.4 3.4 0 1.9 1.5 3.4 3.4 3.4C21.6 12.5 23.2 11 23.2 9.2zM17.4 9.2c0-1.3 1.1-2.4 2.4-2.4 1.3 0 2.4 1.1 2.4 2.4 0 1.3-1.1 2.4-2.4 2.4C18.5 11.5 17.4 10.5 17.4 9.2z"/><path d="M30.5,28.4l-5.1-11.5c-0.1-0.2-0.3-0.3-0.5-0.3h-1.4c1.3-2.1,2.5-4.8,2.5-7.5c0-3.4-2.8-6.2-6.2-6.2s-6.2,2.8-6.2,6.2
		c0,0.2,0,0.4,0,0.6c0,0.3,0.2,0.5,0.5,0.5c0.3,0,0.5-0.3,0.5-0.5c0-0.2,0-0.3,0-0.5c0-2.9,2.3-5.2,5.2-5.2c2.9,0,5.2,2.3,5.2,5.2
		c0,4.5-4,9.3-5.2,10.7c-0.8-0.9-2.6-3-3.8-5.6c-0.1-0.2-0.4-0.3-0.7-0.2c-0.2,0.1-0.3,0.4-0.2,0.7c0.3,0.7,0.7,1.3,1.1,1.9h-9
		c-0.2,0-0.4,0.1-0.5,0.3L1.5,28.4c-0.1,0.2-0.1,0.3,0,0.5C1.7,29,1.8,29.1,2,29.1h28c0.2,0,0.3-0.1,0.4-0.2
		C30.5,28.7,30.5,28.5,30.5,28.4z M7.4,17.6h5.1c0.2,2.3,1.5,4,3.7,5.3c0.1,0,0.2,0.1,0.2,0.1c0.2,0,0.3-0.1,0.4-0.3
		c0.1-0.2,0-0.5-0.2-0.7c-1.9-1.1-3-2.5-3.2-4.4h3.3c1.3,2,2.6,3.3,2.7,3.3c0.1,0.1,0.2,0.2,0.4,0.2s0.3-0.1,0.4-0.2
		c0.1-0.1,1.4-1.4,2.7-3.3h1.8l1.6,3.7c-3-0.6-4.6,0.4-6.3,1.4c-1.8,1.1-3.9,2.3-8.2,2c-2.3-1.3-4-3.2-4.8-6L7.4,17.6z M6.3,20.1
		c1.8,4.6,6.4,6.7,11.8,8H2.8L6.3,20.1z M23,28.1c-3.4-0.6-6.5-1.3-9.2-2.4c3.2-0.1,5-1.2,6.6-2.2c1.8-1.1,3.3-1.9,6.3-1.1l2.5,5.6
		H23z"/></svg>