<svg xmlns="http://www.w3.org/2000/svg" enable-background="new 0 0 64 64" viewBox="0 0 64 64"><path fill="#3bc4aa" d="M57,52H7c-2.209,0-4-1.791-4-4V20c0-2.209,1.791-4,4-4h50c2.209,0,4,1.791,4,4v28
	C61,50.209,59.209,52,57,52z"/><path fill="#9eefdf" d="M57,50H7c-2.209,0-4-1.791-4-4V18c0-2.209,1.791-4,4-4h50c2.209,0,4,1.791,4,4v28
	C61,48.209,59.209,50,57,50z"/><rect width="14" height="18" x="8" y="22" fill="#ffd23f"/><path fill="#f4a531" d="M22,37v3H8v-3c0-2.21,1.79-4,4-4h3h3C20.21,33,22,34.79,22,37z"/><circle cx="15" cy="30" r="3" fill="#f4a531"/><rect width="2" height="7.645" x="41" y="39.355" fill="#3bc4aa"/><rect width="2" height="5" x="41" y="39" fill="#26a88f"/><path fill="#3bc4aa" d="M42,39.356c0,0,3.103-6.06,3.103-9.153C45.103,23.593,42,18,42,18s-3.103,5.593-3.103,12.203
	C38.897,33.296,42,39.356,42,39.356z"/><path fill="#3bc4aa" d="M42,39.356c0,0,2.069-5.085,5.172-7.627c2.865-2.347,7.241-3.559,7.241-3.559
	s-1.552,4.068-4.138,6.61C47.172,37.831,42.784,39.162,42,39.356z"/><path fill="#3bc4aa" d="M42,39.356c0,0,4.655-1.565,7.759-1.565S57,39.316,57,39.316s-4.138,1.525-7.241,1.525
	S42,39.356,42,39.356z"/><path fill="#3bc4aa" d="M42 39.356c0 0 0 1.525 2.069 3.051 1.851 1.364 4.138 2.034 4.138 2.034s-.517-2.034-2.586-3.559S42 39.356 42 39.356zM42 39.356c0 0-2.069-5.085-5.172-7.627-2.865-2.347-7.241-3.559-7.241-3.559s1.552 4.068 4.138 6.61C36.828 37.831 41.216 39.162 42 39.356z"/><path fill="#3bc4aa" d="M42,39.356c0,0-4.655-1.565-7.759-1.565S27,39.316,27,39.316s4.138,1.525,7.241,1.525
	S42,39.356,42,39.356z"/><path fill="#3bc4aa" d="M42,39.356c0,0,0,1.525-2.069,3.051c-1.851,1.364-4.138,2.034-4.138,2.034s0.517-2.034,2.586-3.559
	S42,39.356,42,39.356z"/><rect width="2" height="4" x="6" y="43" fill="#3bc4aa"/><rect width="2" height="4" x="10" y="43" fill="#3bc4aa"/><rect width="2" height="2" x="14" y="43" fill="#3bc4aa"/><rect width="2" height="2" x="18" y="43" fill="#3bc4aa"/><rect width="2" height="2" x="22" y="43" fill="#3bc4aa"/></svg>