<svg xmlns="http://www.w3.org/2000/svg" enable-background="new 0 0 512 512" viewBox="0 0 512 512"><path fill="#fbf3f3" d="M402.64,110.582v320.163c0,22.944-18.604,41.548-41.548,41.548H150.908c-22.944,0-41.548-18.604-41.548-41.548V110.582c0-22.954,18.604-41.548,41.548-41.548c0.1,0,201.182,0,210.183,0C384.036,69.035,402.64,87.629,402.64,110.582z"/><circle cx="256" cy="218.118" r="68.432" fill="#ff7c48"/><polygon fill="#465d8c" points="324.432 69.035 324.432 98.363 187.568 98.363 187.568 69.035 187.568 39.707 324.432 39.707"/><path fill="#e8e3f0" d="M475.959 61.703c8.104 0 14.664 6.56 14.664 14.664 0 8.094-6.56 14.664-14.664 14.664-8.094 0-14.664-6.569-14.664-14.664C461.295 68.262 467.865 61.703 475.959 61.703zM461.295 403.862c5.396 0 9.776 4.37 9.776 9.776 0 5.396-4.38 9.776-9.776 9.776s-9.776-4.38-9.776-9.776C451.519 408.231 455.899 403.862 461.295 403.862zM451.519 198.566c5.396 0 9.776 4.37 9.776 9.776 0 5.396-4.38 9.776-9.776 9.776s-9.776-4.38-9.776-9.776C441.743 202.936 446.123 198.566 451.519 198.566zM80.033 81.255c5.396 0 9.776 4.37 9.776 9.776 0 5.396-4.38 9.776-9.776 9.776s-9.776-4.38-9.776-9.776C70.257 85.624 74.636 81.255 80.033 81.255zM55.593 374.534c8.104 0 14.664 6.56 14.664 14.664 0 8.094-6.56 14.664-14.664 14.664-8.095 0-14.664-6.569-14.664-14.664C40.929 381.093 47.498 374.534 55.593 374.534zM31.153 188.79c5.396 0 9.776 4.37 9.776 9.776 0 5.396-4.38 9.776-9.776 9.776s-9.776-4.38-9.776-9.776C21.377 193.16 25.756 188.79 31.153 188.79z"/><path fill="#6cf" d="M353.76,330.542H226.672c-2.699,0-4.888-2.188-4.888-4.888c0-2.7,2.189-4.888,4.888-4.888H353.76c2.7,0,4.888,2.188,4.888,4.888C358.648,328.354,356.46,330.542,353.76,330.542z"/><path fill="#fbf3f3" d="M285.328,213.23h-24.44v-24.44c0-2.7-2.189-4.888-4.888-4.888c-2.699,0-4.888,2.188-4.888,4.888v24.44h-24.44c-2.699,0-4.888,2.188-4.888,4.888c0,2.7,2.189,4.888,4.888,4.888h24.44v24.44c0,2.7,2.189,4.888,4.888,4.888c2.699,0,4.888-2.188,4.888-4.888v-24.44h24.44c2.7,0,4.888-2.188,4.888-4.888C290.216,215.418,288.028,213.23,285.328,213.23z"/><path fill="#6cf" d="M187.568 330.542h-29.328c-2.699 0-4.888-2.188-4.888-4.888 0-2.7 2.189-4.888 4.888-4.888h29.328c2.699 0 4.888 2.188 4.888 4.888C192.456 328.354 190.268 330.542 187.568 330.542zM353.76 369.646H226.672c-2.699 0-4.888-2.188-4.888-4.888 0-2.7 2.189-4.888 4.888-4.888H353.76c2.7 0 4.888 2.188 4.888 4.888C358.648 367.457 356.46 369.646 353.76 369.646zM187.568 369.646h-29.328c-2.699 0-4.888-2.188-4.888-4.888 0-2.7 2.189-4.888 4.888-4.888h29.328c2.699 0 4.888 2.188 4.888 4.888C192.456 367.457 190.268 369.646 187.568 369.646zM353.76 408.749H226.672c-2.699 0-4.888-2.188-4.888-4.888 0-2.7 2.189-4.888 4.888-4.888H353.76c2.7 0 4.888 2.188 4.888 4.888C358.648 406.561 356.46 408.749 353.76 408.749zM187.568 408.749h-29.328c-2.699 0-4.888-2.188-4.888-4.888 0-2.7 2.189-4.888 4.888-4.888h29.328c2.699 0 4.888 2.188 4.888 4.888C192.456 406.561 190.268 408.749 187.568 408.749z"/></svg>