<svg xmlns="http://www.w3.org/2000/svg" viewBox="0 0 48 48"><g data-name="14-menu"><path fill="#dae2e8" d="M41,47H15a2,2,0,0,1-2-2V3a2,2,0,0,1,2-2H45a2,2,0,0,1,2,2V41Z"/><path fill="#c1cad4" d="M41,41h6l-6,6Z"/><rect width="6" height="6" x="37" y="31" fill="#97c8b8"/><rect width="6" height="6" x="17" y="13" fill="#97c8b8"/><path fill="#badad0" d="M43 30v1H37V30a3 3 0 0 1 6 0zM23 12v1H17V12a3 3 0 0 1 6 0z"/><path fill="#f2cac1" d="M20.24,35.86a2.079,2.079,0,0,1,0,2.86l-.68.71a2.852,2.852,0,0,1-4.13,0l4.13-4.29Z"/><path fill="#f2cac1" d="M23.61,25.22a1.955,1.955,0,0,1,2.57-.29A2.061,2.061,0,0,1,26.43,28l-6.87,7.14-4.13,4.29a3.772,3.772,0,0,1-5.49,0L6.5,43,1,37.29l3.44-3.57a4.158,4.158,0,0,1,0-5.72l6.11-6.35a1.968,1.968,0,0,1,2.57-.3,2.072,2.072,0,0,1,.25,3.08,1.892,1.892,0,0,1,2.75,0,2.079,2.079,0,0,1,0,2.86,1.892,1.892,0,0,1,2.75,0,2.079,2.079,0,0,1,0,2.86Z"/><path fill="#474c54" d="M45,0H15a3,3,0,0,0-3,3V18h2V3a1,1,0,0,1,1-1H45a1,1,0,0,1,1,1V40H41a1,1,0,0,0-1,1v5H15a1,1,0,0,1-1-1V44H12v1a3,3,0,0,0,3,3H41a1,1,0,0,0,.707-.293l6-6A1,1,0,0,0,48,41V3A3,3,0,0,0,45,0Zm-.414,42L42,44.586V42Z"/><path fill="#474c54" d="M15.459 40.717a3.809 3.809 0 0 0 2.036.6h0a3.844 3.844 0 0 0 2.787-1.194l.679-.708a3.089 3.089 0 0 0 .006-4.239l-.026-.027 6.2-6.448a3.06 3.06 0 0 0-.362-4.565 2.946 2.946 0 0 0-3.895.394l-2.751 2.862a3 3 0 0 0-.547-.792 2.89 2.89 0 0 0-1.909-.894 3.046 3.046 0 0 0-.841-1.966 2.892 2.892 0 0 0-1.9-.893c0-.03 0-.059-.006-.089a3.065 3.065 0 0 0-1.214-2.208 2.961 2.961 0 0 0-3.888.409l-6.11 6.35a5.184 5.184 0 0 0-.6 6.345L.28 36.6a1 1 0 0 0 0 1.387l5.5 5.71a1 1 0 0 0 1.44 0l2.792-2.9a4.75 4.75 0 0 0 5.446-.078zm4.059-2.688l-.677.707a1.861 1.861 0 0 1-1.346.58h0A1.822 1.822 0 0 1 17 39.239L19.546 36.6A1.068 1.068 0 0 1 19.518 38.028zm-9.578.4a1 1 0 0 0-.72.307L6.5 41.559 2.389 37.29 5.16 34.413a1 1 0 0 0 0-1.387 3.153 3.153 0 0 1 0-4.333l6.111-6.352a.975.975 0 0 1 1.248-.192 1.072 1.072 0 0 1 .13 1.586h0a1 1 0 0 0 1.44 1.388l0 0a.913.913 0 0 1 1.307 0 1.085 1.085 0 0 1 0 1.473 1 1 0 1 0 1.441 1.387.912.912 0 0 1 1.309 0 1.086 1.086 0 0 1 0 1.474 1 1 0 0 0 1.441 1.387l4.741-4.933a.966.966 0 0 1 1.253-.177 1.029 1.029 0 0 1 .412.754 1.045 1.045 0 0 1-.288.818l-11 11.432a2.835 2.835 0 0 1-4.045 0A1.02 1.02 0 0 0 9.94 38.43zM19 4V8.142A4 4 0 0 0 16 12v7a1 1 0 0 0 1 1h6a1 1 0 0 0 1-1V12a3.966 3.966 0 0 0-3-3.858V4zM18 18V14h4v4zm4-6H18a2 2 0 0 1 4 0zM39 22v4.142A4 4 0 0 0 36 30v7a1 1 0 0 0 1 1h6a1 1 0 0 0 1-1V30a3.966 3.966 0 0 0-3-3.858V22zM38 36V32h4v4zm4-6H38a2 2 0 0 1 4 0z"/><rect width="12" height="2" x="31" y="6" fill="#474c54"/><rect width="16" height="2" x="27" y="10" fill="#474c54"/><rect width="16" height="2" x="27" y="14" fill="#474c54"/><rect width="4" height="2" x="29" y="28" fill="#474c54"/><rect width="7" height="2" x="26" y="32" fill="#474c54"/><rect width="9" height="2" x="24" y="36" fill="#474c54"/><rect width="12" height="2" x="27" y="18" fill="#474c54"/><rect width="2" height="2" x="27" y="6" fill="#474c54"/><rect width="2" height="2" x="41" y="18" fill="#474c54"/></g></svg>