<svg xmlns="http://www.w3.org/2000/svg" data-name="Layer 1" viewBox="0 0 128 128"><path fill="#2d4356" d="M126.01282 47H100.111c-.05316 1.36725-.13379 2.69666-.23273 4h26.13452a2 2 0 0 0 0-4zM122.04224 57H99.2417q-.28308 2.05884-.63971 4h23.44025a2 2 0 0 0 0-4zM112.1062 67H97.2749c-.36157 1.38251-.74695 2.7193-1.15863 4H112.1062a2 2 0 0 0 0-4zM102.17017 77H93.8786Q92.97534 79.11159 92 81h10.17017a2 2 0 0 0 0-4zM27.889 47H1.98718a2 2 0 0 0 0 4H28.1217C28.02277 49.69668 27.94214 48.36727 27.889 47zM28.7583 57H5.95776a2 2 0 0 0 0 4H29.398Q29.04205 59.05865 28.7583 57zM30.7251 67H15.8938a2 2 0 0 0 0 4H31.88373C31.472 69.71932 31.08667 68.38253 30.7251 67zM25.82983 77a2 2 0 0 0 0 4H36q-.97147-1.891-1.8786-4zM92.56 40.5c-.3-.05-17.4-2.79-25.5-12.15a4.10743 4.10743 0 0 0-5.97-.13c-.11.12-11.39 11.8-24.84 11.22a4.0991 4.0991 0 0 0-4.21 3.84 85.29614 85.29614 0 0 0 2.8 23.69c4.4 16.53 14.25 28.52 27.73 33.76a4.11446 4.11446 0 0 0 2.5.14c.07-.02 7.41-2.05 15.29-10.45C87.24 83.08 95.54 69.17 96 44.58A4.05071 4.05071 0 0 0 92.56 40.5zM77.44 87.68c-7 7.46-13.35 9.3-13.41 9.32C51.76 92.24 42.76 81.21 38.7 65.94a78.769 78.769 0 0 1-2.63-22.51c15.36.71 27.8-12.32 27.97-12.46 9.08 10.5 27.15 13.37 27.92 13.49l.04.05C91.56 67.82 83.84 80.86 77.44 87.68z"/><path fill="#d68751" d="M91.96,44.46c-.77-.12-18.84-2.99-27.92-13.49-.17.14-12.61,13.17-27.97,12.46A78.769,78.769,0,0,0,38.7,65.94C42.76,81.21,51.76,92.24,64.03,97c.06-.02,6.41-1.86,13.41-9.32C83.84,80.86,91.56,67.82,92,44.51ZM64,85.99a6,6,0,1,1,6-6A6.00476,6.00476,0,0,1,64,85.99ZM76.36,55.08l-4.7,4.38,1.11,6.17A2.02908,2.02908,0,0,1,72,67.59a2.06587,2.06587,0,0,1-2.1.18c-.01,0-5.9-2.97-5.9-2.97l-5.9,2.97a1.99749,1.99749,0,0,1-2.87-2.14l1.11-6.17-4.7-4.38A2.00367,2.00367,0,0,1,51.09,53.01,2.03058,2.03058,0,0,1,52.72,51.63l6.58-.91,2.92-5.67a2.00689,2.00689,0,0,1,3.56006,0l2.92,5.67,6.58.91A2.03058,2.03058,0,0,1,76.91,53.01,2.00367,2.00367,0,0,1,76.36,55.08Z"/><path fill="#2d4356" d="M76.91,53.01A2.03058,2.03058,0,0,0,75.28,51.63l-6.58-.91-2.92-5.67a2.00689,2.00689,0,0,0-3.56006,0L59.3,50.72l-6.58.91A2.03058,2.03058,0,0,0,51.09,53.01,2.00367,2.00367,0,0,0,51.64,55.08l4.7,4.38-1.11,6.17a1.99749,1.99749,0,0,0,2.87,2.14L64,64.8s5.89,2.97,5.9,2.97a2.06587,2.06587,0,0,0,2.1-.18,2.02908,2.02908,0,0,0,.77-1.96l-1.11-6.17,4.7-4.38A2.00367,2.00367,0,0,0,76.91,53.01Zm-8.77,4.27a1.99885,1.99885,0,0,0-.61,1.82l.59,3.3L64.9,60.78a1.95124,1.95124,0,0,0-1.8,0L59.88,62.4l.59-3.3a1.99885,1.99885,0,0,0-.61-1.82l-2.42-2.26,3.44-.48a2.0219,2.0219,0,0,0,1.5-1.06L64,50.33l1.62,3.15a2.0219,2.0219,0,0,0,1.5,1.06l3.44.48Z"/><path fill="#ffdb80" d="M68.14,57.28a1.99885,1.99885,0,0,0-.61,1.82l.59,3.3L64.9,60.78a1.95124,1.95124,0,0,0-1.8,0L59.88,62.4l.59-3.3a1.99885,1.99885,0,0,0-.61-1.82l-2.42-2.26,3.44-.48a2.0219,2.0219,0,0,0,1.5-1.06L64,50.33l1.62,3.15a2.0219,2.0219,0,0,0,1.5,1.06l3.44.48Z"/><path fill="#2d4356" d="M64,73.99a6,6,0,1,0,6,6A6.00476,6.00476,0,0,0,64,73.99Zm0,8a2,2,0,1,1,2-2A2.00591,2.00591,0,0,1,64,81.99Z"/><circle cx="64" cy="79.99" r="2" fill="#ffdb80"/><path fill="#e5d0c3" d="M92,44.51c-.01.66-.03,1.31-.05,1.95-.87-.14-18.86-3.02-27.91-13.49-.17.14-12.61,13.17-27.97,12.46-.01.07-.03.4-.05.94-.02-1.73.03-2.79.05-2.94,15.36.71,27.8-12.32,27.97-12.46,9.08,10.5,27.15,13.37,27.92,13.49Z" opacity=".3"/><path fill="#72492d" d="M92,44.51c-.44,23.31-8.16,36.35-14.56,43.17-7,7.46-13.35,9.3-13.41,9.32C51.76,92.24,42.76,81.21,38.7,65.94A82.16292,82.16292,0,0,1,36.02,44.7,82.88437,82.88437,0,0,0,38.7,63.94C42.76,79.21,51.76,90.24,64.03,95c.06-.02,6.41-1.86,13.41-9.32,6.22-6.63,13.68-19.13,14.51-41.22h.01Z" opacity=".4"/><path fill="#f9edd2" d="M70.56,55.02,68.7,56.76l-1.58-.22a2.0219,2.0219,0,0,1-1.5-1.06L64,52.33l-1.62,3.15a2.0219,2.0219,0,0,1-1.5,1.06l-1.58.22L57.44,55.02l3.44-.48a2.0219,2.0219,0,0,0,1.5-1.06L64,50.33l1.62,3.15a2.0219,2.0219,0,0,0,1.5,1.06Z" opacity=".5"/><path fill="#ad9359" d="M68.12 62.4L64.9 60.78a1.95124 1.95124 0 0 0-1.8 0L59.88 62.4l.39-2.2 2.83-1.42a1.95124 1.95124 0 0 1 1.8 0l2.83 1.42zM66 79.99a2 2 0 1 1-3.73-1 1.99642 1.99642 0 0 0 3.46 0A1.99424 1.99424 0 0 1 66 79.99z" opacity=".45"/></svg>