<svg xmlns="http://www.w3.org/2000/svg" enable-background="new 0 0 128 128" viewBox="0 0 128 128"><path fill="#263357" d="M96,0H32c-3.3,0-6,2.7-6,6v116c0,3.3,2.7,6,6,6h64c3.3,0,6-2.7,6-6V6C102,2.7,99.3,0,96,0z M73.8,4l-1.6,2H55.7
	l-1.6-2H73.8z M98,122c0,1.1-0.9,2-2,2H32c-1.1,0-2-0.9-2-2V6c0-1.1,0.9-2,2-2h17l4.2,5.2c0.4,0.5,1,0.8,1.6,0.8h18.5
	c0.6,0,1.2-0.3,1.6-0.8L79,4h17c1.1,0,2,0.9,2,2V122z"/><polygon fill="#ef4136" points="73.8 4 72.3 6 55.7 6 54.1 4"/><path fill="#6de1ee" d="M96,4H79l-4.2,5.3c-0.4,0.5-1,0.8-1.6,0.8H54.7c-0.6,0-1.2-0.3-1.6-0.8L49,4H32c-1.1,0-2,0.9-2,2v116
	c0,1.1,0.9,2,2,2h64c1.1,0,2-0.9,2-2V6C98,4.9,97.1,4,96,4z M34,63c0-2.2,1.8-4,4-4h1.1C40,48,48,38.9,58.6,36.6
	C58.2,35.8,58,34.9,58,34c0-3.3,2.7-6,6-6s6,2.7,6,6c0,0.9-0.2,1.8-0.6,2.6C80,38.9,88,48,88.9,59H90c2.2,0,4,1.8,4,4v4
	c0,2.2-1.8,4-4,4H38c-2.2,0-4-1.8-4-4V63z M90.7,95.5l-23,5.1c-0.6,0.1-1.2,0.2-1.8,0.2c-1,0-2.1-0.2-3-0.6l-18.3-7.5
	C44,94,42.6,95,41,95h-4c-2.2,0-4-1.8-4-4V79c0-2.2,1.8-4,4-4h4c1.9,0,3.4,1.3,3.9,3H65c3.3,0,6,2.7,6,6c0,0.3,0,0.7-0.1,1h18.8
	c2.9,0,5.3,2.4,5.3,5.3C95,92.8,93.2,95,90.7,95.5z"/><path fill="#263357" d="M66,46c0,1.1-0.9,2-2,2c-4.5,0-8.6,2.3-11,6.1c-0.4,0.6-1,0.9-1.7,0.9c-0.4,0-0.7-0.1-1.1-0.3
	c-0.9-0.6-1.2-1.8-0.6-2.8C52.8,47,58.1,44,64,44C65.1,44,66,44.9,66,46z"/><path fill="#263357" d="M90,59h-1.1C88,48,80,38.9,69.4,36.6c0.4-0.8,0.6-1.7,0.6-2.6c0-3.3-2.7-6-6-6s-6,2.7-6,6
	c0,0.9,0.2,1.8,0.6,2.6C48,38.9,40,48,39.1,59H38c-2.2,0-4,1.8-4,4v4c0,2.2,1.8,4,4,4h52c2.2,0,4-1.8,4-4v-4C94,60.8,92.2,59,90,59z
	 M64,32c1.1,0,2,0.9,2,2c0,1.1-0.9,2-2,2s-2-0.9-2-2C62,32.9,62.9,32,64,32z M64,40c10.9,0,19.9,8.3,20.9,19H43.1
	C44.1,48.3,53.1,40,64,40z M90,67H38v-4h52V67z"/><circle cx="64" cy="34" r="2" fill="#ef4136"/><rect width="52" height="4" x="38" y="63" fill="#ef4136"/><path fill="#cbdde5" d="M64,40c-10.9,0-19.9,8.3-20.9,19h41.8C83.9,48.3,74.9,40,64,40z M64,48c-4.5,0-8.6,2.3-11,6.1
	c-0.4,0.6-1,0.9-1.7,0.9c-0.4,0-0.7-0.1-1.1-0.3c-0.9-0.6-1.2-1.8-0.6-2.8C52.8,47,58.1,44,64,44c1.1,0,2,0.9,2,2
	C66,47.1,65.1,48,64,48z"/><path fill="#263357" d="M89.7,85H70.9c0-0.3,0.1-0.7,0.1-1c0-3.3-2.7-6-6-6H44.9c-0.5-1.7-2-3-3.9-3h-4c-2.2,0-4,1.8-4,4v12
	c0,2.2,1.8,4,4,4h4c1.6,0,3-1,3.6-2.3l18.3,7.5c1,0.4,2,0.6,3,0.6c0.6,0,1.2-0.1,1.8-0.2l23-5.1c2.5-0.5,4.3-2.7,4.3-5.2
	C95,87.4,92.6,85,89.7,85z M41,91h-4V79h4V91z M89.9,91.6l-23.1,5.2c-0.8,0.2-1.6,0.1-2.4-0.2l-19.4-8V82h20c1.1,0,2,0.9,2,2
	c0,1.1-0.9,2-2,2h-6c-1.1,0-2,0.9-2,2c0,1.1,0.9,2,2,2h6c1.2,0,2.4-0.4,3.3-1h21.4c0.7,0,1.3,0.6,1.3,1.3
	C91,90.9,90.6,91.4,89.9,91.6z"/><rect width="4" height="12" x="37" y="79" fill="#ef4136"/><path fill="#cbdde5" d="M91,90.3c0,0.6-0.4,1.1-1.1,1.3l-23.1,5.2c-0.8,0.2-1.6,0.1-2.4-0.2l-19.4-8V82h20c1.1,0,2,0.9,2,2
	c0,1.1-0.9,2-2,2h-6c-1.1,0-2,0.9-2,2c0,1.1,0.9,2,2,2h6c1.2,0,2.4-0.4,3.3-1h21.4C90.4,89,91,89.6,91,90.3z"/><path fill="#4da5aa" d="M98,120v2c0,1.1-0.9,2-2,2H32c-1.1,0-2-0.9-2-2v-2c0,1.1,0.9,2,2,2h64C97.1,122,98,121.1,98,120z" opacity=".6"/><path fill="#a1f3f7" d="M98,6v2c0-1.1-0.9-2-2-2H79l-4.2,5.3c-0.4,0.5-1,0.8-1.6,0.8H54.7c-0.6,0-1.2-0.3-1.6-0.8L49,6H32
	c-1.1,0-2,0.9-2,2V6c0-1.1,0.9-2,2-2h17l4.2,5.2c0.4,0.5,1,0.8,1.6,0.8h18.5c0.6,0,1.2-0.3,1.6-0.8L79,4h17C97.1,4,98,4.9,98,6z" opacity=".6"/><rect width="52" height="2" x="38" y="65" fill="#a82c29" opacity=".6"/><path fill="#e4f0f4" d="M84.9,59h-0.3C82.8,49.3,74.2,42,64,42s-18.8,7.3-20.6,17h-0.3c1-10.7,10-19,20.9-19S83.9,48.3,84.9,59z" opacity=".6"/><rect width="4" height="2" x="37" y="89" fill="#a82c29" opacity=".6"/><path fill="#93a0a5" d="M91,90.3c0,0.6-0.4,1.1-1.1,1.3l-23.1,5.2c-0.8,0.2-1.6,0.1-2.4-0.2l-19.4-8v-2l19.4,8
	c0.8,0.3,1.6,0.4,2.4,0.2l23.1-5.2c0.2,0,0.4-0.1,0.6-0.3C90.8,89.5,91,89.9,91,90.3z" opacity=".4"/><path fill="#e4f0f4" d="M67,84c0,0.4-0.1,0.7-0.3,1c-0.3-0.6-1-1-1.7-1H45v-2h20C66.1,82,67,82.9,67,84z" opacity=".4"/><rect width="4" height="2" x="37" y="79" fill="#f4827f" opacity=".6"/></svg>