<svg xmlns="http://www.w3.org/2000/svg" xmlns:xlink="http://www.w3.org/1999/xlink" enable-background="new 0 0 260 260" viewBox="0 0 260 260"><defs><path id="a" d="M258,130c0,70.69-57.31,128-128,128S2,200.69,2,130C2,59.3,59.3101,2,130,2S258,59.3,258,130z"/></defs><clipPath id="b"><use overflow="visible" xlink:href="#a"/></clipPath><g clip-path="url(#b)"><path fill="#F9AAC4" d="M258,130c0,70.69-57.31,128-128,128S2,200.69,2,130C2,59.3,59.3101,2,130,2S258,59.3,258,130z"/><rect width="200.69" height="38.53" x="37.794" y="225.391" fill="#FFAD78"/><path fill="#59F77E" d="M240.3278 137.1715c-.5816.4353-1.1798.8774-1.876 1.0842-1.1078.3291-1.6795-.3951-2.6465-.5044-.9467-.1071-2.0662.421-2.624 1.1683-.7656 1.0185-.9216 4.4341-2.4664 4.4759-.8623.0233-1.6383-.6526-2.6118-.554-.9177.093-1.8122.4975-2.443 1.1781-.83.8956-1.1863 2.128-1.8828 3.1309-1.1387 1.6397-3.2347 2.5582-5.2121 2.2839-1.9773-.2743-3.7443-1.7286-4.3937-3.6162-.2562-.7447-.3474-1.5343-.437-2.3167l0 0c-.1475-1.2872.2194-2.5805 1.0208-3.5985l.9724-1.2352c.752-.9552 1.8313-1.5978 3.0295-1.8035l3.8564-.662c1.1224-.1927 2.4391-.5407 2.8195-1.6141.1456-.4107.1236-.8759.3283-1.2605.2548-.4788.8116-.7263 1.3505-.7878s1.0821.0279 1.6241.0456c1.8811.0614 3.6692-.733 5.4097-1.4493 2.1127-.8695 4.4229-1.6627 6.6515-.688 1.0211.4466 1.8494 1.3327 2.067 2.4258C243.2606 134.866 241.7355 136.1178 240.3278 137.1715zM238.876 155.7751c-1.3764.9007-2.8528.2829-4.2843.1077-1.1015-.1223-2.343.0478-3.1354 1.0134-1.0554 1.2769-1.0726 3.6093-2.3888 4.4519-1.3445.8557-2.8549-.5441-4.3547-.4674-1.299.0827-2.3702 1.2605-3.497 2.0917-1.0171.7574-2.7114 1.1856-3.9462 1.4108-1.0863.1982-2.2264-.0877-3.03-.8449-.1448-.1364-.2681-.2746-.3501-.4069-.4792-.7665-.7627-1.722-.7887-2.6975-.0326-1.884.9329-3.803 2.3721-4.6644.2451-.1511.5-.2687.7664-.3687 1.3301-.4845 2.7971-.3865 4.1538-.8679 1.5682-.5715 2.8713-1.9019 4.2637-2.9469 1.4074-1.0594 3.0969-1.8768 4.6185-1.3026.9271.3624 1.7593 1.2166 2.7379 1.1146.8159-.0877 1.487-.8074 2.1933-1.3612 1.1189-.8808 2.5136-1.3419 3.7928-1.0053 1.2775.3526 2.374 1.6091 2.5368 3.1672C240.6733 153.6242 239.9319 155.0981 238.876 155.7751zM237.1143 169.9129c-.6128.3901-1.2427.7858-1.9525.9394-1.1295.2445-1.6448-.5207-2.6008-.7028-.9359-.1782-2.0921.2637-2.7047.9668-.8404.9578-1.2539 4.3518-2.7974 4.2768-.8616-.0419-1.5843-.7745-2.5625-.7496-.9221.0234-1.8446.3592-2.525.9903-.8952.8304-1.3436 2.0323-2.1139 2.9798-1.2592 1.549-3.4187 2.3066-5.3697 1.8838s-3.6031-2.0064-4.1081-3.9377c-.1992-.7619-.2305-1.5561-.2608-2.343l0 0c-.0498-1.2946.4137-2.5566 1.2897-3.5112l1.0629-1.1582c.822-.8957 1.9468-1.4549 3.1571-1.5695l3.8954-.3689c1.1338-.1074 2.4729-.355 2.9333-1.3966.1762-.3985.1894-.8641.4225-1.2322.2902-.4582.8642-.663 1.4061-.6836.5419-.0206 1.0769.1095 1.6161.1681 1.8711.2033 3.7141-.4538 5.5037-1.0366 2.1724-.7075 4.5359-1.324 6.6844-.1838.9845.5224 1.7435 1.4686 1.8779 2.575C240.2129 167.8355 238.5976 168.9686 237.1143 169.9129zM183.8085 138.3979c.4745.5501.9636 1.1105 1.5991 1.4621 1.0112.5595 1.7251-.0248 2.693.0762.9476.0989 1.9275.8553 2.3115 1.705.5288 1.1593-.0529 4.5285 1.4467 4.9014.8371.2081 1.7402-.2852 2.6698.0204.8763.288 1.6629.8754 2.1327 1.6757.6181 1.0531.7012 2.3332 1.1659 3.4624.7596 1.8461 2.6093 3.1936 4.5994 3.3508 1.9901.1572 4.0283-.8834 5.0683-2.5873.4102-.6722.6691-1.4238.9248-2.1686l0 0c.4207-1.2254.3403-2.5674-.2235-3.7338l-.6841-1.4153c-.5291-1.0945-1.4451-1.9541-2.5711-2.4125l-3.624-1.4754c-1.0548-.4294-2.2658-1.0523-2.4067-2.1824-.0539-.4324.0676-.882-.0497-1.3016-.1459-.5223-.6365-.8838-1.1496-1.0597s-1.0628-.2054-1.596-.3046c-1.8503-.3443-3.4259-1.5045-4.9718-2.5782-1.8765-1.3033-3.9622-2.5745-6.3481-2.1016-1.0933.2167-2.0927.9041-2.5401 1.9248C181.4397 135.5159 182.6601 137.0662 183.8085 138.3979zM202.1738 165.6314c.8322 1.6015.9868 3.4829.3752 5.1798-.1609.4391-.3335.839-.5033 1.1526-.6785 1.2332-1.7659 2.3107-3.1313 2.646-1.3699.3438-2.9989-.2311-3.6047-1.5017-.4199-.885-.3729-2.0654-1.1695-2.6391-.5815-.4243-1.3998-.3301-2.0807-.0848-.6763.2368-1.3352.6037-2.0529.6537-1.2584.0972-2.4486-.843-2.8541-2.0381-.2478-.7371-.2922-1.6271-.9154-2.0959-.5645-.4151-1.3496-.2811-2.0401-.4027-1.3595-.2426-2.3361-1.5166-2.6681-2.8473-.4718-1.9435-.2572-6.0258 2.0852-6.8297 1.1382-.3814 2.4313.0445 3.3418.8333 1.4011 1.2188 2.1495 3.2791 3.911 3.8927 1.1816.4093 2.4798.0158 3.7346.0264 1.061.0043 2.0906.3095 3.1033.6055l.449.1224C199.8927 162.8183 201.3507 164.013 202.1738 165.6314z"/><path fill="#FFF" d="M242.8468 132.8187c-.1744-.1163-.3489-.2077-.5399-.2907-2.2345-.9802-4.5437-.1828-6.6535.6812-1.7444.7227-3.5303 1.5117-5.4159 1.4536-.5399-.0166-1.0798-.108-1.6198-.0499-.5399.0665-1.0965.3157-1.354.7891-.1993.3904-.1827.8556-.3239 1.2626-.3821 1.0715-1.6946 1.4204-2.8242 1.6115l-3.8542.6645c-1.1961.2077-2.276.8473-3.0318 1.8025l-.9719 1.2377c-.6811.8722-1.0549 1.952-1.0549 3.0568 0 .1744.0166.3572.0332.5399.0914.7808.1828 1.5699.4403 2.3176.0249.083.0581.1661.0914.2492-.7144-.623-1.2875-1.4288-1.5948-2.3258-.2575-.7476-.3489-1.5367-.4403-2.3176-.0249-.1827-.0332-.3738-.0332-.5565 0-1.0965.3738-2.1763 1.0549-3.0402l.9719-1.2377c.7559-.9552 1.8357-1.5948 3.0319-1.8025l3.8542-.6645c1.1214-.191 2.4421-.5399 2.8242-1.6115.1412-.407.1163-.8722.3239-1.2626.2575-.4735.8141-.7227 1.354-.7891.5399-.0581 1.0798.0333 1.6198.0499 1.8856.0581 3.6715-.731 5.4075-1.4536 2.1181-.8639 4.4274-1.6613 6.6535-.6812C241.8001 130.8832 242.6142 131.7471 242.8468 132.8187zM240.5209 152.9869c-.4652-.7227-1.1629-1.2543-1.9188-1.462-1.2792-.3406-2.6747.1246-3.7961 1.0051-.706.5566-1.3789 1.2709-2.1929 1.3623-.9802.0997-1.8108-.7559-2.7411-1.1131-1.5201-.5815-3.2063.2409-4.6184 1.2958-1.3872 1.0466-2.6913 2.3757-4.2612 2.9488-1.354.4818-2.8242.3821-4.1533.8722-.2658.0997-.5233.216-.7642.3655-1.4121.839-2.3591 2.6913-2.3757 4.5354-.3655-.6978-.5732-1.5201-.5981-2.3591-.0332-1.8856.9303-3.8044 2.3756-4.6683.2409-.1495.4984-.2658.7642-.3655 1.329-.4901 2.7993-.3904 4.1533-.8722 1.5699-.5732 2.874-1.9022 4.2612-2.9488 1.4121-1.0549 3.0983-1.8773 4.6184-1.2958.9303.3572 1.761 1.2127 2.7411 1.113.814-.0914 1.4868-.8057 2.1929-1.3623 1.1214-.8805 2.5085-1.3457 3.7878-1.0051 1.2792.3489 2.3757 1.6115 2.5418 3.1648C240.5625 152.4636 240.5542 152.7294 240.5209 152.9869zM239.981 166.377c-.1827-.1495-.3821-.2825-.5897-.3904-2.1514-1.138-4.5188-.5233-6.6867.1828-1.7942.5814-3.6299 1.246-5.5072 1.0383-.5399-.0582-1.0716-.1911-1.6115-.1661-.5399.0166-1.1214.2243-1.4121.6811-.2326.3655-.2409.839-.4153 1.2294-.4652 1.0466-1.8025 1.2958-2.9405 1.4038l-3.8875.3655c-1.2127.1163-2.3424.6728-3.1648 1.5699l-1.0632 1.1546c-.8307.9054-1.2875 2.0932-1.2875 3.3226v.1911c.0249.6064.0498 1.2127.1495 1.8025-.5565-.6313-.9718-1.3872-1.1878-2.2012-.1993-.7642-.2243-1.5533-.2575-2.3424v-.1911c0-1.2294.4568-2.4172 1.2875-3.3226l1.0632-1.1546c.8224-.8971 1.9521-1.4536 3.1565-1.5699l3.8958-.3738c1.138-.108 2.4753-.3489 2.9322-1.3955.1828-.3987.191-.8639.4236-1.2293.2907-.4569.8639-.6646 1.4121-.6811.5399-.0249 1.0715.108 1.6115.1661 1.869.1994 3.713-.4568 5.5072-1.0383 2.168-.706 4.5353-1.3207 6.6784-.1827.9885.5233 1.7444 1.4703 1.8773 2.575C239.9893 166.0115 239.9976 166.2026 239.981 166.377zM208.682 148.7007c0 .5399-.083 1.0798-.2658 1.5948-.2492.7476-.515 1.4952-.922 2.168-.4652.7642-1.138 1.4038-1.9188 1.8523.3738-.6313.6064-1.329.8473-2.0185.1744-.5233.2658-1.0633.2658-1.6032 0-.731-.1661-1.4619-.4901-2.1348l-.6895-1.4121c-.5233-1.0965-1.4453-1.952-2.5667-2.4089l-3.6299-1.4785c-1.0549-.4319-2.2594-1.0549-2.4006-2.1846-.0582-.432.0665-.8805-.0498-1.2958-.1495-.5233-.6396-.8888-1.1546-1.0633-.5067-.1744-1.0632-.2077-1.5948-.3073-1.8523-.3405-3.4223-1.5035-4.9673-2.575-1.8773-1.3041-3.9622-2.575-6.3545-2.1016-.216.0416-.4319.108-.6396.1911.0333-.0914.0665-.1745.108-.2658.4403-1.0217 1.4453-1.7112 2.5335-1.9271 2.3923-.4735 4.4772.7974 6.3545 2.1016 1.545 1.0715 3.1149 2.2344 4.9673 2.575.5316.0997 1.0799.1329 1.5949.3073s1.0051.5399 1.1546 1.0632c.1163.4153-.0083.8639.0499 1.2958.1412 1.1297 1.3457 1.7527 2.4006 2.1846l3.6299 1.4786c1.1214.4568 2.0351 1.3125 2.5667 2.4089l.6811 1.4204C208.5159 147.2388 208.682 147.9697 208.682 148.7007zM202.5518 170.8127c-.1661.4403-.3322.839-.5067 1.1546-.2492.4485-.5565.8805-.9054 1.2626.0332-.0914.0747-.1911.108-.2908.6147-1.6945.4568-3.5801-.3738-5.1833-.8223-1.6115-2.276-2.8076-4.0204-3.3226l-.4485-.1246c-1.0134-.2907-2.0434-.598-3.0984-.6064-1.2542-.0083-2.5584.3821-3.7379-.0249-1.761-.6147-2.5085-2.6747-3.9123-3.8874-.9054-.7891-2.2012-1.2211-3.3392-.839-.2492.0831-.4818.2077-.6811.3738.3323-1.1629.947-2.1431 1.977-2.5002 1.138-.3821 2.4338.0415 3.3392.8307 1.4038 1.221 2.1514 3.281 3.9124 3.8958 1.1878.407 2.4836.0166 3.7379.0249 1.0632.0083 2.0932.3073 3.0983.6064l.4568.1246c1.7361.515 3.1897 1.7028 4.0121 3.3226C203.0087 167.2326 203.1582 169.1182 202.5518 170.8127z" opacity=".3"/><path fill="none" stroke="#595781" stroke-linecap="round" stroke-linejoin="round" stroke-miterlimit="10" stroke-width=".5" d="M240.3278 137.1715c-.5816.4353-1.1798.8774-1.876 1.0842-1.1078.3291-1.6795-.3951-2.6465-.5044-.9467-.1071-2.0662.421-2.624 1.1683-.7656 1.0185-.9216 4.4341-2.4664 4.4759-.8623.0233-1.6383-.6526-2.6118-.554-.9177.093-1.8122.4975-2.443 1.1781-.83.8956-1.1863 2.128-1.8828 3.1309-1.1387 1.6397-3.2347 2.5582-5.2121 2.2839-1.9773-.2743-3.7443-1.7286-4.3937-3.6162-.2562-.7447-.3474-1.5343-.437-2.3167l0 0c-.1475-1.2872.2194-2.5805 1.0208-3.5985l.9724-1.2352c.752-.9552 1.8313-1.5978 3.0295-1.8035l3.8564-.662c1.1224-.1927 2.4391-.5407 2.8195-1.6141.1456-.4107.1236-.8759.3283-1.2605.2548-.4788.8116-.7263 1.3505-.7878s1.0821.0279 1.6241.0456c1.8811.0614 3.6692-.733 5.4097-1.4493 2.1127-.8695 4.4229-1.6627 6.6515-.688 1.0211.4466 1.8494 1.3327 2.067 2.4258C243.2606 134.866 241.7355 136.1178 240.3278 137.1715zM238.876 155.7751c-1.3764.9007-2.8528.2829-4.2843.1077-1.1015-.1223-2.343.0478-3.1354 1.0134-1.0554 1.2769-1.0726 3.6093-2.3888 4.4519-1.3445.8557-2.8549-.5441-4.3547-.4674-1.299.0827-2.3702 1.2605-3.497 2.0917-1.0171.7574-2.7114 1.1856-3.9462 1.4108-1.0863.1982-2.2264-.0877-3.03-.8449-.1448-.1364-.2681-.2746-.3501-.4069-.4792-.7665-.7627-1.722-.7887-2.6975-.0326-1.884.9329-3.803 2.3721-4.6644.2451-.1511.5-.2687.7664-.3687 1.3301-.4845 2.7971-.3865 4.1538-.8679 1.5682-.5715 2.8713-1.9019 4.2637-2.9469 1.4074-1.0594 3.0969-1.8768 4.6185-1.3026.9271.3624 1.7593 1.2166 2.7379 1.1146.8159-.0877 1.487-.8074 2.1933-1.3612 1.1189-.8808 2.5136-1.3419 3.7928-1.0053 1.2775.3526 2.374 1.6091 2.5368 3.1672C240.6733 153.6242 239.9319 155.0981 238.876 155.7751zM237.1143 169.9129c-.6128.3901-1.2427.7858-1.9525.9394-1.1295.2445-1.6448-.5207-2.6008-.7028-.9359-.1782-2.0921.2637-2.7047.9668-.8404.9578-1.2539 4.3518-2.7974 4.2768-.8616-.0419-1.5843-.7745-2.5625-.7496-.9221.0234-1.8446.3592-2.525.9903-.8952.8304-1.3436 2.0323-2.1139 2.9798-1.2592 1.549-3.4187 2.3066-5.3697 1.8838s-3.6031-2.0064-4.1081-3.9377c-.1992-.7619-.2305-1.5561-.2608-2.343l0 0c-.0498-1.2946.4137-2.5566 1.2897-3.5112l1.0629-1.1582c.822-.8957 1.9468-1.4549 3.1571-1.5695l3.8954-.3689c1.1338-.1074 2.4729-.355 2.9333-1.3966.1762-.3985.1894-.8641.4225-1.2322.2902-.4582.8642-.663 1.4061-.6836.5419-.0206 1.0769.1095 1.6161.1681 1.8711.2033 3.7141-.4538 5.5037-1.0366 2.1724-.7075 4.5359-1.324 6.6844-.1838.9845.5224 1.7435 1.4686 1.8779 2.575C240.2129 167.8355 238.5976 168.9686 237.1143 169.9129zM183.8085 138.3979c.4745.5501.9636 1.1105 1.5991 1.4621 1.0112.5595 1.7251-.0248 2.693.0762.9476.0989 1.9275.8553 2.3115 1.705.5288 1.1593-.0529 4.5285 1.4467 4.9014.8371.2081 1.7402-.2852 2.6698.0204.8763.288 1.6629.8754 2.1327 1.6757.6181 1.0531.7012 2.3332 1.1659 3.4624.7596 1.8461 2.6093 3.1936 4.5994 3.3508 1.9901.1572 4.0283-.8834 5.0683-2.5873.4102-.6722.6691-1.4238.9248-2.1686l0 0c.4207-1.2254.3403-2.5674-.2235-3.7338l-.6841-1.4153c-.5291-1.0945-1.4451-1.9541-2.5711-2.4125l-3.624-1.4754c-1.0548-.4294-2.2658-1.0523-2.4067-2.1824-.0539-.4324.0676-.882-.0497-1.3016-.1459-.5223-.6365-.8838-1.1496-1.0597s-1.0628-.2054-1.596-.3046c-1.8503-.3443-3.4259-1.5045-4.9718-2.5782-1.8765-1.3033-3.9622-2.5745-6.3481-2.1016-1.0933.2167-2.0927.9041-2.5401 1.9248C181.4397 135.5159 182.6601 137.0662 183.8085 138.3979zM202.1738 165.6314c.8322 1.6015.9868 3.4829.3752 5.1798-.1609.4391-.3335.839-.5033 1.1526-.6785 1.2332-1.7659 2.3107-3.1313 2.646-1.3699.3438-2.9989-.2311-3.6047-1.5017-.4199-.885-.3729-2.0654-1.1695-2.6391-.5815-.4243-1.3998-.3301-2.0807-.0848-.6763.2368-1.3352.6037-2.0529.6537-1.2584.0972-2.4486-.843-2.8541-2.0381-.2478-.7371-.2922-1.6271-.9154-2.0959-.5645-.4151-1.3496-.2811-2.0401-.4027-1.3595-.2426-2.3361-1.5166-2.6681-2.8473-.4718-1.9435-.2572-6.0258 2.0852-6.8297 1.1382-.3814 2.4313.0445 3.3418.8333 1.4011 1.2188 2.1495 3.2791 3.911 3.8927 1.1816.4093 2.4798.0158 3.7346.0264 1.061.0043 2.0906.3095 3.1033.6055l.449.1224C199.8927 162.8183 201.3507 164.013 202.1738 165.6314z"/><path fill="#27D68A" d="M207.7951,170.1872c-0.2951,2.5263-0.4427,5.0896-0.461,7.6712
						c1.3277-0.922,2.7661-1.844,4.1491-2.6739c2.1021-1.2724,4.2228-2.4711,6.4357-3.5221
						c4.4072-2.1022,9.1095-3.7987,13.9777-4.1123c-4.8498,0.5901-9.3676,2.5263-13.5905,4.8498
						c-2.1206,1.1618-4.1491,2.4526-6.159,3.8172c-1.6412,1.1433-3.1718,2.2681-4.7946,3.5405
						c0.0554,2.3789,0.2397,4.7392,0.5348,7.0074l0.0185,0.129c0.129,0.922-0.4979,1.7518-1.42,1.881
						c-0.9035,0.1106-1.7334-0.5163-1.8625-1.42v-0.0553c-0.3135-3.0795-0.3135-5.8825-0.2028-8.8146
						c0.0368-0.9588,0.1106-1.8993,0.1844-2.8398c-0.9957-1.0696-2.0653-2.1207-3.1532-3.1164
						c-1.4569-1.3277-2.969-2.6001-4.5548-3.7618c-3.1717-2.3235-6.6385-4.3336-10.4926-5.3478
						c3.9093,0.7561,7.579,2.5263,10.9536,4.6655c1.6965,1.0695,3.3192,2.2497,4.8867,3.5036
						c0.8666,0.6823,1.7149,1.4015,2.5448,2.1391c0.129-1.3093,0.3134-2.6002,0.5347-3.9093
						c0.7192-4.2414,1.8625-8.4642,3.559-12.4473c-1.1064-1.7151-2.3603-3.4668-3.6327-5.1265
						c-1.3647-1.7887-2.803-3.5405-4.3151-5.1817c-1.5306-1.6412-3.1164-3.264-4.8683-4.6838
						c-1.7334-1.4199-3.5774-2.7292-5.6428-3.6881c2.1207,0.8297,4.0569,2.0284,5.9009,3.3562
						c1.8625,1.3277,3.559,2.8582,5.2002,4.4441c1.6412,1.5674,3.1901,3.2455,4.6838,4.9605
						c1.1987,1.383,2.342,2.7661,3.4483,4.2413c0.3504-0.7745,0.7561-1.5489,1.1618-2.305c2.803-5.0711,6.7492-9.589,11.6174-12.687
						c4.813-3.1902,10.4189-4.9051,16.0432-5.7534c-5.5689,1.1065-11.0273,3.098-15.5637,6.4357
						c-4.6101,3.2455-8.1691,7.7819-10.6217,12.7608c-1.5858,3.2639-2.7291,6.7122-3.5221,10.2528
						c1.3461-0.9037,2.7476-1.7888,4.1306-2.6186c2.1207-1.2539,4.2966-2.4525,6.5463-3.5036
						c4.4626-2.1022,9.2018-3.8172,14.1438-4.1306c-4.9052,0.59-9.4968,2.5631-13.775,4.8682
						c-2.1575,1.1618-4.2228,2.4711-6.2513,3.8172c-1.8256,1.2171-3.4851,2.4341-5.2554,3.8172
						C208.1085,167.8269,207.9241,169.0071,207.7951,170.1872z"/><path fill="none" stroke="#595781" stroke-linecap="round" stroke-linejoin="round" stroke-miterlimit="10" stroke-width=".5" d="
						M207.7951,170.1872c-0.2951,2.5263-0.4427,5.0896-0.461,7.6712c1.3277-0.922,2.7661-1.844,4.1491-2.6739
						c2.1021-1.2724,4.2228-2.4711,6.4357-3.5221c4.4072-2.1022,9.1095-3.7987,13.9777-4.1123
						c-4.8498,0.5901-9.3676,2.5263-13.5905,4.8498c-2.1206,1.1618-4.1491,2.4526-6.159,3.8172
						c-1.6412,1.1433-3.1718,2.2681-4.7946,3.5405c0.0554,2.3789,0.2397,4.7392,0.5348,7.0074l0.0185,0.129
						c0.129,0.922-0.4979,1.7518-1.42,1.881c-0.9035,0.1106-1.7334-0.5163-1.8625-1.42v-0.0553
						c-0.3135-3.0795-0.3135-5.8825-0.2028-8.8146c0.0368-0.9588,0.1106-1.8993,0.1844-2.8398
						c-0.9957-1.0696-2.0653-2.1207-3.1532-3.1164c-1.4569-1.3277-2.969-2.6001-4.5548-3.7618
						c-3.1717-2.3235-6.6385-4.3336-10.4926-5.3478c3.9093,0.7561,7.579,2.5263,10.9536,4.6655
						c1.6965,1.0695,3.3192,2.2497,4.8867,3.5036c0.8666,0.6823,1.7149,1.4015,2.5448,2.1391
						c0.129-1.3093,0.3134-2.6002,0.5347-3.9093c0.7192-4.2414,1.8625-8.4642,3.559-12.4473
						c-1.1064-1.7151-2.3603-3.4668-3.6327-5.1265c-1.3647-1.7887-2.803-3.5405-4.3151-5.1817
						c-1.5306-1.6412-3.1164-3.264-4.8683-4.6838c-1.7334-1.4199-3.5774-2.7292-5.6428-3.6881
						c2.1207,0.8297,4.0569,2.0284,5.9009,3.3562c1.8625,1.3277,3.559,2.8582,5.2002,4.4441
						c1.6412,1.5674,3.1901,3.2455,4.6838,4.9605c1.1987,1.383,2.342,2.7661,3.4483,4.2413
						c0.3504-0.7745,0.7561-1.5489,1.1618-2.305c2.803-5.0711,6.7492-9.589,11.6174-12.687
						c4.813-3.1902,10.4189-4.9051,16.0432-5.7534c-5.5689,1.1065-11.0273,3.098-15.5637,6.4357
						c-4.6101,3.2455-8.1691,7.7819-10.6217,12.7608c-1.5858,3.2639-2.7291,6.7122-3.5221,10.2528
						c1.3461-0.9037,2.7476-1.7888,4.1306-2.6186c2.1207-1.2539,4.2966-2.4525,6.5463-3.5036
						c4.4626-2.1022,9.2018-3.8172,14.1438-4.1306c-4.9052,0.59-9.4968,2.5631-13.775,4.8682
						c-2.1575,1.1618-4.2228,2.4711-6.2513,3.8172c-1.8256,1.2171-3.4851,2.4341-5.2554,3.8172
						C208.1085,167.8269,207.9241,169.0071,207.7951,170.1872z"/><path fill="#D9B3B0" d="M229.8191,186.6528l-6.3344,36.6182c-0.2086,1.2216-1.2693,2.1154-2.5087,2.1154h-28.2924
							c-1.2395,0-2.3002-0.8938-2.5087-2.1154l-6.3344-36.6182H229.8191z"/><path d="M223.9993,220.278l-0.515,2.9904c-0.2077,1.221-1.2709,2.1181-2.5085,2.1181h-28.292
							c-1.2377,0-2.3009-0.8971-2.5085-2.1181l-0.515-2.9904c0.3987,0.216,0.8472,0.3323,1.3207,0.3323h31.6977
							C223.152,220.6103,223.6006,220.494,223.9993,220.278z" opacity=".05"/><polygon fill="#FFF" points="228.507 194.237 229.819 186.653 183.84 186.653 185.152 194.237" opacity=".2"/><path fill="none" stroke="#595781" stroke-linecap="round" stroke-linejoin="round" stroke-miterlimit="10" d="
							M229.8191,186.6528l-6.3344,36.6182c-0.2086,1.2216-1.2693,2.1154-2.5087,2.1154h-28.2924
							c-1.2395,0-2.3002-0.8938-2.5087-2.1154l-6.3344-36.6182H229.8191z"/><path fill="#D6A19F" d="M231.4042,185.4849v4.9162c0,0.6734-0.5423,1.2157-1.2157,1.2157h-46.7176
							c-0.6734,0-1.2157-0.5423-1.2157-1.2157v-4.9162c0-0.6734,0.5423-1.2156,1.2157-1.2156h46.7176
							C230.8619,184.2692,231.4042,184.8115,231.4042,185.4849z"/><path fill="#FFF" d="M231.4004,185.482v2.384c0-0.6728-0.5399-1.2128-1.2128-1.2128h-46.7159
							c-0.6728,0-1.2128,0.5399-1.2128,1.2128v-2.384c0-0.6728,0.5399-1.2128,1.2128-1.2128h46.7159
							C230.8605,184.2692,231.4004,184.8092,231.4004,185.482z" opacity=".2"/><path fill="none" stroke="#595781" stroke-linecap="round" stroke-linejoin="round" stroke-miterlimit="10" d="
							M231.4042,185.4849v4.9162c0,0.6734-0.5423,1.2157-1.2157,1.2157h-46.7176c-0.6734,0-1.2157-0.5423-1.2157-1.2157v-4.9162
							c0-0.6734,0.5423-1.2156,1.2157-1.2156h46.7176C230.8619,184.2692,231.4042,184.8115,231.4042,185.4849z"/><g><path fill="#59F77E" d="M64.6896 146.8582c-.5178.3875-1.0502.7811-1.67.9652-.9862.2929-1.495-.3517-2.3559-.449-.8427-.0953-1.8393.3748-2.3358 1.04-.6816.9067-.8204 3.9472-2.1956 3.9844-.7676.0208-1.4584-.5809-2.325-.4931-.8169.0828-1.6132.4429-2.1747 1.0488-.7389.7973-1.056 1.8943-1.6761 2.7871-1.0136 1.4596-2.8795 2.2773-4.6397 2.0331-1.7602-.2441-3.3331-1.5387-3.9112-3.2191-.2281-.6629-.3093-1.3658-.389-2.0623l0 0c-.1313-1.1458.1953-2.2971.9087-3.2034l.8656-1.0995c.6694-.8503 1.6303-1.4223 2.6969-1.6054l3.433-.5893c.9992-.1715 2.1712-.4814 2.5099-1.4369.1296-.3656.11-.7797.2922-1.1221.2268-.4262.7225-.6466 1.2022-.7013.4797-.0547.9633.0248 1.4458.0406 1.6745.0547 3.2663-.6525 4.8157-1.2902 1.8807-.774 3.9373-1.4801 5.9211-.6125.909.3976 1.6463 1.1864 1.84 2.1594C67.3003 144.8059 65.9427 145.9202 64.6896 146.8582zM63.3972 163.419c-1.2252.8018-2.5396.2519-3.8138.0959-.9806-.1089-2.0857.0425-2.7911.9021-.9395 1.1367-.9548 3.213-2.1265 3.9631-1.1968.7617-2.5415-.4843-3.8765-.4161-1.1563.0736-2.11 1.1221-3.113 1.862-.9054.6742-2.4137 1.0554-3.5128 1.2559-.967.1764-1.9819-.078-2.6973-.7522-.1289-.1214-.2386-.2445-.3117-.3622-.4266-.6823-.6789-1.5329-.7021-2.4013-.029-1.6771.8305-3.3854 2.1116-4.1522.2182-.1345.4451-.2392.6823-.3282 1.1841-.4313 2.4899-.344 3.6977-.7726 1.396-.5088 2.556-1.6931 3.7955-2.6233 1.2528-.9431 2.7569-1.6707 4.1113-1.1596.8253.3226 1.5661 1.0831 2.4372.9922.7263-.078 1.3237-.7188 1.9525-1.2117.996-.784 2.2376-1.1945 3.3763-.8949 1.1372.3139 2.1133 1.4324 2.2583 2.8194C64.9972 161.5043 64.3372 162.8163 63.3972 163.419zM61.829 176.0044c-.5455.3473-1.1062.6995-1.7381.8363-1.0055.2176-1.4642-.4636-2.3152-.6256-.8331-.1587-1.8624.2348-2.4077.8607-.7481.8526-1.1162 3.874-2.4902 3.8072-.767-.0373-1.4103-.6894-2.2812-.6673-.8209.0208-1.6421.3198-2.2477.8815-.797.7392-1.1961 1.8091-1.8818 2.6526-1.121 1.3789-3.0433 2.0533-4.78 1.6769s-3.2074-1.7861-3.657-3.5053c-.1773-.6782-.2052-1.3853-.2322-2.0858v0c-.0444-1.1525.3683-2.2758 1.1481-3.1256l.9461-1.031c.7317-.7974 1.733-1.2952 2.8104-1.3972l3.4677-.3284c1.0093-.0956 2.2014-.316 2.6113-1.2432.1568-.3548.1686-.7692.3761-1.0968.2583-.4079.7693-.5902 1.2517-.6085.4824-.0183.9586.0975 1.4386.1496 1.6656.181 3.3063-.404 4.8993-.9228 1.9338-.6298 4.0378-1.1786 5.9504-.1636.8764.4651 1.5521 1.3073 1.6717 2.2922C64.5873 174.1551 63.1494 175.1637 61.829 176.0044zM14.3765 147.9499c.4224.4897.8578.9885 1.4235 1.3015.9002.498 1.5357-.0221 2.3973.0679.8435.0881 1.7158.7614 2.0577 1.5178.4708 1.032-.0471 4.0313 1.2879 4.3632.7452.1853 1.5491-.2539 2.3767.0181.7801.2564 1.4803.7793 1.8985 1.4917.5502.9374.6242 2.077 1.0378 3.0822.6762 1.6434 2.3228 2.843 4.0943 2.9828s3.586-.7864 4.5117-2.3032c.3652-.5984.5956-1.2674.8232-1.9304v0c.3745-1.0908.303-2.2854-.199-3.3238l-.609-1.2599c-.471-.9743-1.2864-1.7395-2.2888-2.1476l-3.2261-1.3134c-.9389-.3823-2.017-.9368-2.1424-1.9428-.048-.3849.0601-.7851-.0442-1.1587-.1299-.465-.5666-.7868-1.0233-.9433-.4567-.1566-.9461-.1828-1.4207-.2711-1.6472-.3065-3.0497-1.3393-4.4258-2.2951-1.6704-1.1602-3.5271-2.2918-5.651-1.8708-.9732.1929-1.8629.8048-2.2611 1.7135C12.2679 145.3844 13.3543 146.7645 14.3765 147.9499zM30.7252 172.193c.7408 1.4256.8785 3.1004.334 4.611-.1432.3908-.2968.7468-.448 1.0261-.604 1.0978-1.572 2.057-2.7875 2.3555-1.2194.306-2.6696-.2057-3.2089-1.3368-.3738-.7878-.3319-1.8386-1.0411-2.3493-.5176-.3777-1.2461-.2939-1.8522-.0755-.602.2108-1.1886.5374-1.8274.5819-1.1202.0865-2.1797-.7504-2.5407-1.8143-.2206-.6561-.2601-1.4484-.8149-1.8658-.5025-.3696-1.2014-.2502-1.8161-.3585-1.2102-.2159-2.0796-1.3501-2.3751-2.5347-.42-1.7301-.229-5.3641 1.8562-6.0797 1.0132-.3395 2.1644.0396 2.9748.7418 1.2473 1.0849 1.9134 2.919 3.4815 3.4653 1.0518.3644 2.2075.0141 3.3245.0235.9445.0038 1.861.2755 2.7625.539l.3997.1089C28.6946 169.6888 29.9925 170.7523 30.7252 172.193z"/><path fill="#FFF" d="M66.932 142.9833c-.1553-.1035-.3106-.1849-.4806-.2588-1.9891-.8725-4.0448-.1627-5.9229.6064-1.5528.6433-3.1426 1.3457-4.8212 1.294-.4806-.0148-.9613-.0961-1.4419-.0444-.4806.0592-.9761.281-1.2053.7025-.1775.3475-.1627.7616-.2883 1.124-.3402.9539-1.5085 1.2645-2.5141 1.4345l-3.431.5915c-1.0648.1849-2.0261.7542-2.6989 1.6046l-.8652 1.1018c-.6063.7764-.9391 1.7377-.9391 2.7211 0 .1553.0148.318.0296.4806.0813.6951.1627 1.3976.3919 2.0631.0222.0739.0517.1478.0813.2218-.6359-.5546-1.1461-1.2719-1.4197-2.0704-.2292-.6655-.3106-1.368-.3919-2.0631-.0222-.1627-.0296-.3328-.0296-.4954 0-.9761.3327-1.9373.9391-2.7063l.8652-1.1018c.6729-.8503 1.6341-1.4197 2.6989-1.6046l3.431-.5915c.9982-.1701 2.174-.4807 2.5141-1.4345.1257-.3623.1035-.7764.2883-1.124.2292-.4215.7247-.6433 1.2053-.7025.4807-.0517.9613.0296 1.4419.0444 1.6785.0517 3.2683-.6507 4.8138-1.294 1.8856-.769 3.9412-1.4789 5.9229-.6064C66.0003 141.2604 66.7249 142.0295 66.932 142.9833zM64.8615 160.937c-.4141-.6434-1.0352-1.1166-1.7081-1.3014-1.1387-.3032-2.381.1109-3.3792.8947-.6285.4955-1.2275 1.1314-1.9521 1.2127-.8725.0887-1.612-.6729-2.4401-.9908-1.3532-.5176-2.8542.2144-4.1113 1.1535-1.2349.9317-2.3958 2.1148-3.7933 2.625-1.2053.4289-2.5141.3401-3.6972.7764-.2366.0887-.4659.1923-.6803.3254-1.2571.7468-2.1 2.3958-2.1148 4.0374-.3254-.6212-.5102-1.3532-.5324-2.1-.0296-1.6785.8282-3.3866 2.1148-4.1556.2145-.1331.4437-.2366.6803-.3254 1.1831-.4363 2.4919-.3475 3.6972-.7764 1.3975-.5102 2.5584-1.6933 3.7933-2.625 1.257-.9391 2.7581-1.6711 4.1113-1.1535.8282.3179 1.5676 1.0795 2.4401.9908.7246-.0813 1.3236-.7172 1.9521-1.2127.9982-.7838 2.2331-1.1979 3.3718-.8947 1.1387.3105 2.1148 1.4345 2.2627 2.8173C64.8985 160.4711 64.8911 160.7077 64.8615 160.937zM64.3809 172.8567c-.1627-.1331-.3401-.2514-.525-.3476-1.9152-1.013-4.0226-.4659-5.9525.1627-1.5972.5176-3.2313 1.1092-4.9025.9243-.4807-.0518-.9539-.1701-1.4345-.1479-.4807.0148-.9983.1997-1.2571.6064-.2071.3253-.2144.7468-.3697 1.0944-.4141.9317-1.6046 1.1535-2.6176 1.2496l-3.4606.3254c-1.0796.1035-2.0852.5989-2.8173 1.3976l-.9465 1.0278c-.7394.806-1.1461 1.8634-1.1461 2.9577v.1701c.0222.5398.0444 1.0796.1331 1.6046-.4954-.562-.8651-1.2348-1.0574-1.9595-.1775-.6803-.1997-1.3828-.2292-2.0852v-.1701c0-1.0944.4067-2.1517 1.1461-2.9578l.9465-1.0278c.7321-.7986 1.7377-1.294 2.8099-1.3976l3.468-.3327c1.013-.0961 2.2035-.3105 2.6102-1.2422.1627-.3549.1701-.7691.3771-1.0944.2588-.4067.769-.5916 1.2571-.6064.4806-.0222.9539.0961 1.4345.1479 1.6637.1775 3.3053-.4067 4.9025-.9243 1.9299-.6285 4.0373-1.1757 5.9451-.1627.8799.4659 1.5528 1.3088 1.6711 2.2923C64.3883 172.5314 64.3957 172.7014 64.3809 172.8567zM36.5188 157.1214c0 .4807-.0739.9613-.2366 1.4197-.2218.6655-.4585 1.331-.8208 1.93-.4141.6803-1.013 1.2497-1.7081 1.6489.3328-.562.5398-1.1831.7542-1.7968.1553-.4659.2366-.9465.2366-1.4271 0-.6507-.1479-1.3014-.4363-1.9004l-.6137-1.257c-.4658-.9761-1.2866-1.7377-2.2848-2.1444l-3.2313-1.3162c-.9391-.3845-2.0113-.9391-2.137-1.9447-.0518-.3845.0592-.7838-.0444-1.1535-.1331-.4659-.5694-.7912-1.0278-.9465-.451-.1553-.9465-.1849-1.4197-.2736-1.6489-.3031-3.0465-1.3384-4.4218-2.2922-1.6711-1.1609-3.5271-2.2923-5.6567-1.8708-.1923.037-.3845.0961-.5694.1701.0296-.0813.0592-.1553.0961-.2366.3919-.9095 1.2866-1.5232 2.2553-1.7155 2.1296-.4215 3.9856.7099 5.6567 1.8708 1.3753.9539 2.7729 1.989 4.4218 2.2922.4733.0887.9613.1183 1.4198.2736.4584.1553.8947.4807 1.0278.9465.1035.3697-.0074.769.0444 1.1535.1257 1.0056 1.1979 1.5602 2.137 1.9447l3.2313 1.3162c.9983.4067 1.8116 1.1683 2.2849 2.1444l.6063 1.2644C36.3709 155.82 36.5188 156.4707 36.5188 157.1214zM31.0617 176.8053c-.1479.3919-.2957.7468-.451 1.0278-.2218.3993-.4954.7838-.806 1.124.0296-.0814.0665-.1701.0961-.2588.5472-1.5084.4067-3.187-.3328-4.6141-.732-1.4345-2.0261-2.4993-3.5789-2.9577l-.3993-.1109c-.9021-.2588-1.819-.5324-2.7581-.5398-1.1165-.0074-2.2774.3401-3.3275-.0222-1.5676-.5472-2.2331-2.381-3.4827-3.4606-.806-.7025-1.9595-1.087-2.9726-.7468-.2218.0739-.4289.1849-.6063.3327.2958-1.0352.843-1.9077 1.7599-2.2257 1.013-.3402 2.1666.037 2.9726.7394 1.2497 1.087 1.9151 2.9207 3.4828 3.468 1.0574.3623 2.2109.0148 3.3275.0222.9465.0074 1.8634.2736 2.7581.5398l.4067.1109c1.5455.4585 2.8395 1.5159 3.5715 2.9578C31.4685 173.6183 31.6016 175.2969 31.0617 176.8053z" opacity=".3"/><path fill="none" stroke="#595781" stroke-linecap="round" stroke-linejoin="round" stroke-miterlimit="10" stroke-width=".5" d="M64.6896 146.8582c-.5178.3875-1.0502.7811-1.67.9652-.9862.2929-1.495-.3517-2.3559-.449-.8427-.0953-1.8393.3748-2.3358 1.04-.6816.9067-.8204 3.9472-2.1956 3.9844-.7676.0208-1.4584-.5809-2.325-.4931-.8169.0828-1.6132.4429-2.1747 1.0488-.7389.7973-1.056 1.8943-1.6761 2.7871-1.0136 1.4596-2.8795 2.2773-4.6397 2.0331-1.7602-.2441-3.3331-1.5387-3.9112-3.2191-.2281-.6629-.3093-1.3658-.389-2.0623l0 0c-.1313-1.1458.1953-2.2971.9087-3.2034l.8656-1.0995c.6694-.8503 1.6303-1.4223 2.6969-1.6054l3.433-.5893c.9992-.1715 2.1712-.4814 2.5099-1.4369.1296-.3656.11-.7797.2922-1.1221.2268-.4262.7225-.6466 1.2022-.7013.4797-.0547.9633.0248 1.4458.0406 1.6745.0547 3.2663-.6525 4.8157-1.2902 1.8807-.774 3.9373-1.4801 5.9211-.6125.909.3976 1.6463 1.1864 1.84 2.1594C67.3003 144.8059 65.9427 145.9202 64.6896 146.8582zM63.3972 163.419c-1.2252.8018-2.5396.2519-3.8138.0959-.9806-.1089-2.0857.0425-2.7911.9021-.9395 1.1367-.9548 3.213-2.1265 3.9631-1.1968.7617-2.5415-.4843-3.8765-.4161-1.1563.0736-2.11 1.1221-3.113 1.862-.9054.6742-2.4137 1.0554-3.5128 1.2559-.967.1764-1.9819-.078-2.6973-.7522-.1289-.1214-.2386-.2445-.3117-.3622-.4266-.6823-.6789-1.5329-.7021-2.4013-.029-1.6771.8305-3.3854 2.1116-4.1522.2182-.1345.4451-.2392.6823-.3282 1.1841-.4313 2.4899-.344 3.6977-.7726 1.396-.5088 2.556-1.6931 3.7955-2.6233 1.2528-.9431 2.7569-1.6707 4.1113-1.1596.8253.3226 1.5661 1.0831 2.4372.9922.7263-.078 1.3237-.7188 1.9525-1.2117.996-.784 2.2376-1.1945 3.3763-.8949 1.1372.3139 2.1133 1.4324 2.2583 2.8194C64.9972 161.5043 64.3372 162.8163 63.3972 163.419zM61.829 176.0044c-.5455.3473-1.1062.6995-1.7381.8363-1.0055.2176-1.4642-.4636-2.3152-.6256-.8331-.1587-1.8624.2348-2.4077.8607-.7481.8526-1.1162 3.874-2.4902 3.8072-.767-.0373-1.4103-.6894-2.2812-.6673-.8209.0208-1.6421.3198-2.2477.8815-.797.7392-1.1961 1.8091-1.8818 2.6526-1.121 1.3789-3.0433 2.0533-4.78 1.6769s-3.2074-1.7861-3.657-3.5053c-.1773-.6782-.2052-1.3853-.2322-2.0858v0c-.0444-1.1525.3683-2.2758 1.1481-3.1256l.9461-1.031c.7317-.7974 1.733-1.2952 2.8104-1.3972l3.4677-.3284c1.0093-.0956 2.2014-.316 2.6113-1.2432.1568-.3548.1686-.7692.3761-1.0968.2583-.4079.7693-.5902 1.2517-.6085.4824-.0183.9586.0975 1.4386.1496 1.6656.181 3.3063-.404 4.8993-.9228 1.9338-.6298 4.0378-1.1786 5.9504-.1636.8764.4651 1.5521 1.3073 1.6717 2.2922C64.5873 174.1551 63.1494 175.1637 61.829 176.0044zM14.3765 147.9499c.4224.4897.8578.9885 1.4235 1.3015.9002.498 1.5357-.0221 2.3973.0679.8435.0881 1.7158.7614 2.0577 1.5178.4708 1.032-.0471 4.0313 1.2879 4.3632.7452.1853 1.5491-.2539 2.3767.0181.7801.2564 1.4803.7793 1.8985 1.4917.5502.9374.6242 2.077 1.0378 3.0822.6762 1.6434 2.3228 2.843 4.0943 2.9828s3.586-.7864 4.5117-2.3032c.3652-.5984.5956-1.2674.8232-1.9304v0c.3745-1.0908.303-2.2854-.199-3.3238l-.609-1.2599c-.471-.9743-1.2864-1.7395-2.2888-2.1476l-3.2261-1.3134c-.9389-.3823-2.017-.9368-2.1424-1.9428-.048-.3849.0601-.7851-.0442-1.1587-.1299-.465-.5666-.7868-1.0233-.9433-.4567-.1566-.9461-.1828-1.4207-.2711-1.6472-.3065-3.0497-1.3393-4.4258-2.2951-1.6704-1.1602-3.5271-2.2918-5.651-1.8708-.9732.1929-1.8629.8048-2.2611 1.7135C12.2679 145.3844 13.3543 146.7645 14.3765 147.9499zM30.7252 172.193c.7408 1.4256.8785 3.1004.334 4.611-.1432.3908-.2968.7468-.448 1.0261-.604 1.0978-1.572 2.057-2.7875 2.3555-1.2194.306-2.6696-.2057-3.2089-1.3368-.3738-.7878-.3319-1.8386-1.0411-2.3493-.5176-.3777-1.2461-.2939-1.8522-.0755-.602.2108-1.1886.5374-1.8274.5819-1.1202.0865-2.1797-.7504-2.5407-1.8143-.2206-.6561-.2601-1.4484-.8149-1.8658-.5025-.3696-1.2014-.2502-1.8161-.3585-1.2102-.2159-2.0796-1.3501-2.3751-2.5347-.42-1.7301-.229-5.3641 1.8562-6.0797 1.0132-.3395 2.1644.0396 2.9748.7418 1.2473 1.0849 1.9134 2.919 3.4815 3.4653 1.0518.3644 2.2075.0141 3.3245.0235.9445.0038 1.861.2755 2.7625.539l.3997.1089C28.6946 169.6888 29.9925 170.7523 30.7252 172.193z"/><path fill="#27D68A" d="M35.7292,176.2485c-0.2627,2.2489-0.3941,4.5307-0.4104,6.8289
						c1.1819-0.8208,2.4623-1.6415,3.6935-2.3803c1.8713-1.1327,3.7591-2.1997,5.729-3.1353
						c3.9232-1.8714,8.1092-3.3816,12.4429-3.6607c-4.3173,0.5253-8.339,2.2489-12.0982,4.3173
						c-1.8877,1.0342-3.6935,2.1833-5.4827,3.398c-1.461,1.0178-2.8235,2.0191-4.2681,3.1517
						c0.0493,2.1177,0.2134,4.2188,0.4761,6.238l0.0164,0.1148c0.1148,0.8208-0.4433,1.5595-1.264,1.6744
						c-0.8043,0.0985-1.5431-0.4596-1.658-1.264v-0.0492c-0.279-2.7414-0.279-5.2365-0.1805-7.8466
						c0.0328-0.8535,0.0985-1.6907,0.1641-2.5279c-0.8864-0.9521-1.8385-1.8878-2.807-2.7742
						c-1.2969-1.1819-2.643-2.3145-4.0547-3.3487c-2.8234-2.0684-5.9095-3.8577-9.3404-4.7605
						c3.4801,0.6731,6.7467,2.2489,9.7508,4.1532c1.5102,0.952,2.9548,2.0026,4.3501,3.1189
						c0.7715,0.6074,1.5266,1.2476,2.2653,1.9043c0.1148-1.1655,0.279-2.3146,0.476-3.4801
						c0.6402-3.7756,1.658-7.5347,3.1682-11.0804c-0.9849-1.5267-2.1011-3.0861-3.2338-4.5636
						c-1.2148-1.5922-2.4952-3.1517-3.8413-4.6127c-1.3625-1.461-2.7742-2.9056-4.3337-4.1695
						c-1.5431-1.264-3.1846-2.4296-5.0231-3.2831c1.8878,0.7386,3.6114,1.8057,5.253,2.9876
						c1.658,1.1819,3.1682,2.5444,4.6292,3.9561c1.461,1.3953,2.8398,2.8891,4.1695,4.4158
						c1.067,1.2312,2.0848,2.4623,3.0697,3.7755c0.3119-0.6894,0.6731-1.3788,1.0342-2.0519
						c2.4952-4.5143,6.0081-8.5361,10.3417-11.2939c4.2845-2.8398,9.2748-4.3665,14.2815-5.1216
						c-4.9574,0.985-9.8164,2.7578-13.8547,5.729c-4.1039,2.8891-7.272,6.9274-9.4553,11.3596
						c-1.4117,2.9055-2.4295,5.9752-3.1353,9.127c1.1983-0.8044,2.4459-1.5923,3.6771-2.3311
						c1.8878-1.1162,3.8248-2.1832,5.8275-3.1189c3.9726-1.8714,8.1914-3.398,12.5907-3.6771
						c-4.3666,0.5252-8.454,2.2817-12.2624,4.3336c-1.9206,1.0342-3.7591,2.1997-5.5649,3.398
						c-1.6251,1.0835-3.1024,2.1669-4.6784,3.398C36.0083,174.1474,35.8441,175.198,35.7292,176.2485z"/><path fill="none" stroke="#595781" stroke-linecap="round" stroke-linejoin="round" stroke-miterlimit="10" stroke-width=".5" d="
						M35.7292,176.2485c-0.2627,2.2489-0.3941,4.5307-0.4104,6.8289c1.1819-0.8208,2.4623-1.6415,3.6935-2.3803
						c1.8713-1.1327,3.7591-2.1997,5.729-3.1353c3.9232-1.8714,8.1092-3.3816,12.4429-3.6607
						c-4.3173,0.5253-8.339,2.2489-12.0982,4.3173c-1.8877,1.0342-3.6935,2.1833-5.4827,3.398
						c-1.461,1.0178-2.8235,2.0191-4.2681,3.1517c0.0493,2.1177,0.2134,4.2188,0.4761,6.238l0.0164,0.1148
						c0.1148,0.8208-0.4433,1.5595-1.264,1.6744c-0.8043,0.0985-1.5431-0.4596-1.658-1.264v-0.0492
						c-0.279-2.7414-0.279-5.2365-0.1805-7.8466c0.0328-0.8535,0.0985-1.6907,0.1641-2.5279
						c-0.8864-0.9521-1.8385-1.8878-2.807-2.7742c-1.2969-1.1819-2.643-2.3145-4.0547-3.3487
						c-2.8234-2.0684-5.9095-3.8577-9.3404-4.7605c3.4801,0.6731,6.7467,2.2489,9.7508,4.1532
						c1.5102,0.952,2.9548,2.0026,4.3501,3.1189c0.7715,0.6074,1.5266,1.2476,2.2653,1.9043
						c0.1148-1.1655,0.279-2.3146,0.476-3.4801c0.6402-3.7756,1.658-7.5347,3.1682-11.0804
						c-0.9849-1.5267-2.1011-3.0861-3.2338-4.5636c-1.2148-1.5922-2.4952-3.1517-3.8413-4.6127
						c-1.3625-1.461-2.7742-2.9056-4.3337-4.1695c-1.5431-1.264-3.1846-2.4296-5.0231-3.2831
						c1.8878,0.7386,3.6114,1.8057,5.253,2.9876c1.658,1.1819,3.1682,2.5444,4.6292,3.9561
						c1.461,1.3953,2.8398,2.8891,4.1695,4.4158c1.067,1.2312,2.0848,2.4623,3.0697,3.7755
						c0.3119-0.6894,0.6731-1.3788,1.0342-2.0519c2.4952-4.5143,6.0081-8.5361,10.3417-11.2939
						c4.2845-2.8398,9.2748-4.3665,14.2815-5.1216c-4.9574,0.985-9.8164,2.7578-13.8547,5.729
						c-4.1039,2.8891-7.272,6.9274-9.4553,11.3596c-1.4117,2.9055-2.4295,5.9752-3.1353,9.127
						c1.1983-0.8044,2.4459-1.5923,3.6771-2.3311c1.8878-1.1162,3.8248-2.1832,5.8275-3.1189
						c3.9726-1.8714,8.1914-3.398,12.5907-3.6771c-4.3666,0.5252-8.454,2.2817-12.2624,4.3336
						c-1.9206,1.0342-3.7591,2.1997-5.5649,3.398c-1.6251,1.0835-3.1024,2.1669-4.6784,3.398
						C36.0083,174.1474,35.8441,175.198,35.7292,176.2485z"/><path fill="#D9B3B0" d="M55.3348,190.9061l-5.6389,32.5972c-0.1856,1.0874-1.1299,1.8831-2.2332,1.8831H22.277
							c-1.1033,0-2.0476-0.7957-2.2332-1.8831l-5.6389-32.5972H55.3348z"/><path d="M50.1541,220.8389l-0.4585,2.662c-0.1849,1.087-1.1313,1.8856-2.2331,1.8856H22.2772
							c-1.1018,0-2.0482-0.7986-2.2331-1.8856l-0.4585-2.662c0.3549,0.1923,0.7542,0.2958,1.1757,0.2958h28.217
							C49.3999,221.1347,49.7992,221.0312,50.1541,220.8389z" opacity=".05"/><polygon fill="#FFF" points="54.167 197.657 55.335 190.906 14.405 190.906 15.573 197.657" opacity=".2"/><path fill="none" stroke="#595781" stroke-linecap="round" stroke-linejoin="round" stroke-miterlimit="10" d="
							M55.3348,190.9061l-5.6389,32.5972c-0.1856,1.0874-1.1299,1.8831-2.2332,1.8831H22.277c-1.1033,0-2.0476-0.7957-2.2332-1.8831
							l-5.6389-32.5972H55.3348z"/><path fill="#D6A19F" d="M56.7459,189.8664v4.3764c0,0.5994-0.4827,1.0822-1.0822,1.0822H14.076
							c-0.5994,0-1.0822-0.4828-1.0822-1.0822v-4.3764c0-0.5994,0.4827-1.0821,1.0822-1.0821h41.5877
							C56.2631,188.7842,56.7459,189.267,56.7459,189.8664z"/><path fill="#FFF" d="M56.7425,189.8638v2.1222c0-0.5989-0.4807-1.0796-1.0796-1.0796H14.0768
							c-0.5989,0-1.0796,0.4807-1.0796,1.0796v-2.1222c0-0.5989,0.4807-1.0796,1.0796-1.0796h41.5861
							C56.2619,188.7842,56.7425,189.2649,56.7425,189.8638z" opacity=".2"/><path fill="none" stroke="#595781" stroke-linecap="round" stroke-linejoin="round" stroke-miterlimit="10" d="
							M56.7459,189.8664v4.3764c0,0.5994-0.4827,1.0822-1.0822,1.0822H14.076c-0.5994,0-1.0822-0.4828-1.0822-1.0822v-4.3764
							c0-0.5994,0.4827-1.0821,1.0822-1.0821h41.5877C56.2631,188.7842,56.7459,189.267,56.7459,189.8664z"/></g><g><line x1="25.838" x2="234.162" y1="225.348" y2="225.348" fill="none" stroke="#595781" stroke-linecap="round" stroke-linejoin="round" stroke-miterlimit="10" stroke-width="2.5"/></g><g><rect width="14.212" height="53.25" x="7.438" y="26.701" fill="#F97D86"/><rect width="14.212" height="53.25" x="21.649" y="26.701" fill="#FFF371"/><rect width="14.212" height="53.25" x="35.861" y="26.701" fill="#9FAECE"/><rect width="14.212" height="53.25" x="50.073" y="26.701" fill="#8FD7FF"/><rect width="14.212" height="4.638" x="7.438" y="26.701" fill="#FFF" opacity=".2"/><rect width="14.212" height="4.638" x="21.649" y="26.701" fill="#FFF" opacity=".2"/><rect width="14.212" height="4.638" x="35.861" y="26.701" fill="#FFF" opacity=".2"/><rect width="14.212" height="4.638" x="50.073" y="26.701" fill="#FFF" opacity=".2"/><rect width="14.212" height="4.638" x="7.438" y="75.313" opacity=".1"/><rect width="14.212" height="4.638" x="21.649" y="75.313" opacity=".1"/><rect width="14.212" height="4.638" x="35.861" y="75.313" opacity=".1"/><rect width="14.212" height="4.638" x="50.073" y="75.313" opacity=".1"/><line x1="7.438" x2="64.285" y1="26.701" y2="26.701" fill="#FED593"/><line x1="7.438" x2="64.285" y1="38.419" y2="38.419" fill="#FED593"/><line x1="7.438" x2="64.285" y1="68.233" y2="68.233" fill="#FED593"/><line x1="7.438" x2="64.285" y1="79.951" y2="79.951" fill="#FED593"/><rect width="14.212" height="53.25" x="7.438" y="26.701" fill="none" stroke="#595781" stroke-linecap="round" stroke-linejoin="round" stroke-miterlimit="10"/><rect width="14.212" height="53.25" x="21.649" y="26.701" fill="none" stroke="#595781" stroke-linecap="round" stroke-linejoin="round" stroke-miterlimit="10"/><rect width="14.212" height="53.25" x="35.861" y="26.701" fill="none" stroke="#595781" stroke-linecap="round" stroke-linejoin="round" stroke-miterlimit="10"/><rect width="14.212" height="53.25" x="50.073" y="26.701" fill="none" stroke="#595781" stroke-linecap="round" stroke-linejoin="round" stroke-miterlimit="10"/><line x1="7.438" x2="64.285" y1="26.701" y2="26.701" fill="none" stroke="#595781" stroke-linecap="round" stroke-linejoin="round" stroke-miterlimit="10"/><line x1="7.438" x2="64.285" y1="38.419" y2="38.419" fill="none" stroke="#595781" stroke-linecap="round" stroke-linejoin="round" stroke-miterlimit="10"/><line x1="7.438" x2="64.285" y1="68.233" y2="68.233" fill="none" stroke="#595781" stroke-linecap="round" stroke-linejoin="round" stroke-miterlimit="10"/><line x1="7.438" x2="64.285" y1="79.951" y2="79.951" fill="none" stroke="#595781" stroke-linecap="round" stroke-linejoin="round" stroke-miterlimit="10"/><rect width="67.723" height="7" x="2" y="79.951" fill="#FCBB97"/><rect width="67.723" height="2.444" x="2" y="79.951" fill="#FFF" opacity=".4"/><rect width="67.723" height="7" x="2" y="79.951" fill="none" stroke="#595781" stroke-linecap="round" stroke-linejoin="round" stroke-miterlimit="10"/></g></g><path fill="#FFF" d="M258,130c0,70.69-57.31,128-128,128S2,200.69,2,130C2,59.3,59.3101,2,130,2S258,59.3,258,130
		z" opacity=".4"/><path fill="#7C91C1" d="M194.8951,72.7311v141.2395c0,6.2852-5.0925,11.3776-11.3776,11.3776h-75.061
						c-6.2852,0-11.3776-5.0925-11.3776-11.3776V72.7311c0-6.2852,5.0925-11.3776,11.3776-11.3776h75.061
						C189.8027,61.3534,194.8951,66.4459,194.8951,72.7311z"/><line x1="133.412" x2="158.562" y1="70.769" y2="70.769" fill="none" stroke="#595781" stroke-linecap="round" stroke-linejoin="round" stroke-miterlimit="10"/><path d="M194.8944,203.707v10.2635c0,6.2852-5.0927,11.3776-11.3776,11.3776h-75.061
						c-6.285,0-11.3776-5.0925-11.3776-11.3776V203.707c0,6.2852,5.0927,11.3776,11.3776,11.3776h75.061
						C189.8017,215.0847,194.8944,209.9922,194.8944,203.707z" opacity=".1"/><path fill="#FFF" d="M194.8915,72.7267v6.1779c0-6.2789-5.0884-11.3785-11.3784-11.3785h-75.0557
						c-6.2903,0-11.3784,5.0996-11.3784,11.3785v-6.1779c0-6.2789,5.0881-11.3785,11.3784-11.3785h75.0557
						C189.8031,61.3481,194.8915,66.4477,194.8915,72.7267z" opacity=".2"/><path fill="none" stroke="#595781" stroke-linecap="round" stroke-linejoin="round" stroke-miterlimit="10" stroke-width="1.5" d="
						M194.8951,72.7311v141.2395c0,6.2852-5.0925,11.3776-11.3776,11.3776h-75.061c-6.2852,0-11.3776-5.0925-11.3776-11.3776
						V72.7311c0-6.2852,5.0925-11.3776,11.3776-11.3776h75.061C189.8027,61.3534,194.8951,66.4459,194.8951,72.7311z"/><path fill="#7C91C1" d="M154.3607,213.5741c0,4.6273-3.7545,8.3737-8.3737,8.3737c-4.6191,0-8.3737-3.7464-8.3737-8.3737
						c0-4.6192,3.7545-8.3656,8.3737-8.3656C150.6061,205.2084,154.3607,208.9548,154.3607,213.5741z"/><path d="M154.3607,213.5741c0,4.6273-3.7545,8.3737-8.3737,8.3737c-4.6191,0-8.3737-3.7464-8.3737-8.3737
						c0-4.6192,3.7545-8.3656,8.3737-8.3656C150.6061,205.2084,154.3607,208.9548,154.3607,213.5741z" opacity=".2"/><path fill="#FFF" d="M153.1973,209.3332c-1.2475-0.7299-2.6992-1.1457-4.2371-1.1457
						c-4.6137,0-8.3723,3.7429-8.3723,8.3645c0,1.5536,0.4238,3.0052,1.1613,4.2449c-2.4716-1.4594-4.1352-4.143-4.1352-7.2267
						c0-4.6138,3.7505-8.3644,8.3723-8.3644C149.0621,205.2059,151.7456,206.8614,153.1973,209.3332z" opacity=".2"/><path fill="none" stroke="#595781" stroke-linecap="round" stroke-linejoin="round" stroke-miterlimit="10" d="
						M154.3607,213.5741c0,4.6273-3.7545,8.3737-8.3737,8.3737c-4.6191,0-8.3737-3.7464-8.3737-8.3737
						c0-4.6192,3.7545-8.3656,8.3737-8.3656C150.6061,205.2084,154.3607,208.9548,154.3607,213.5741z"/><rect width="86.831" height="121.623" x="102.571" y="80.185" fill="#E9F7FF"/><g opacity=".5"><polygon fill="#FFF" points="189.402 80.185 189.402 83.756 145.241 201.808 119.237 201.808 164.732 80.185"/><polygon fill="#FFF" points="157.403 80.185 111.909 201.808 102.571 201.808 102.571 198.238 146.732 80.185"/></g><rect width="86.836" height="121.623" x="102.569" y="80.185" fill="none" stroke="#595781" stroke-linecap="round" stroke-linejoin="round" stroke-miterlimit="10"/><path fill="#9598A6" d="M93.5549,181.8556c0.0048,4.2054-3.3903,7.6082-7.5957,7.6131c-4.196,0.0048-7.5989-3.3903-7.6037-7.5957
				c-0.0048-4.196,3.3903-7.5989,7.5863-7.6037C90.1473,174.2644,93.5501,177.6596,93.5549,181.8556z"/><path fill="#E9F7FF" stroke="#595781" stroke-linecap="round" stroke-linejoin="round" stroke-miterlimit="10" stroke-width=".5" d="
				M85.9551,185.947c-2.2457,0.0026-4.0754-1.827-4.0779-4.0782c-0.0026-2.2461,1.8229-4.0753,4.0686-4.0779
				c2.2512-0.0026,4.085,1.8225,4.0875,4.0686C90.0359,184.1107,88.2063,185.9444,85.9551,185.947z"/><path fill="#9598A6" d="M123.4021,181.8556c0.0048,4.2054-3.3903,7.6082-7.5957,7.6131
				c-4.196,0.0048-7.5989-3.3903-7.6037-7.5957c-0.0048-4.196,3.3903-7.5989,7.5863-7.6037
				C119.9944,174.2644,123.3973,177.6596,123.4021,181.8556z"/><path fill="#E9F7FF" stroke="#595781" stroke-linecap="round" stroke-linejoin="round" stroke-miterlimit="10" stroke-width=".5" d="
				M115.8022,185.947c-2.2457,0.0026-4.0754-1.827-4.0779-4.0782c-0.0026-2.2461,1.8229-4.0753,4.0686-4.0779
				c2.2512-0.0026,4.085,1.8225,4.0875,4.0686C119.883,184.1107,118.0534,185.9444,115.8022,185.947z"/><path d="M93.1976 179.5695c-.7238-.2288-1.5033-.3526-2.3075-.3526-4.1944.0062-7.5907 3.4087-7.5845 7.6031 0 .8042.1237 1.5775.3589 2.3013-3.0746-.9712-5.3018-3.8479-5.308-7.2505-.0062-4.1944 3.3901-7.5969 7.5845-7.6031C89.3497 174.2616 92.2263 176.4887 93.1976 179.5695zM123.0471 179.5695c-.7238-.2288-1.5033-.3526-2.3075-.3526-4.1944.0062-7.5907 3.4087-7.5907 7.6031 0 .8042.1237 1.5713.3589 2.2951-3.0748-.9712-5.3018-3.8417-5.308-7.2443 0-4.1944 3.3963-7.5969 7.5907-7.6031C119.1992 174.2616 122.0758 176.4887 123.0471 179.5695z" opacity=".1"/><path fill="none" stroke="#595781" stroke-linecap="round" stroke-linejoin="round" stroke-miterlimit="10" stroke-width=".5" d="M93.5549 181.8556c.0048 4.2054-3.3903 7.6082-7.5957 7.6131-4.196.0048-7.5989-3.3903-7.6037-7.5957-.0048-4.196 3.3903-7.5989 7.5863-7.6037C90.1473 174.2644 93.5501 177.6596 93.5549 181.8556zM123.4021 181.8556c.0048 4.2054-3.3903 7.6082-7.5957 7.6131-4.196.0048-7.5989-3.3903-7.6037-7.5957-.0048-4.196 3.3903-7.5989 7.5863-7.6037C119.9944 174.2644 123.3973 177.6596 123.4021 181.8556z"/><path fill="#E9F7FF" stroke="#595781" stroke-linecap="round" stroke-linejoin="round" stroke-miterlimit="10" stroke-width=".5" d="
				M140.1441,116.2299l-14.6484,38.3523c-0.9448,2.134-3.143,3.4259-5.4634,3.2073l-37.0411-2.9181
				c-4.7114-0.4306-8.4843-4.0814-9.0757-8.78l-2.6867-26.6478L140.1441,116.2299z"/><path fill="#E0E0E0" stroke="#595781" stroke-linecap="round" stroke-linejoin="round" stroke-miterlimit="10" stroke-width=".5" d="
				M132.939,135.0912l0.8083-2.1131h-17.5808v-15.6263l-2.1131,0.0951v15.5312H95.2416v-14.6543l-2.1131,0.1003v14.554H72.5947
				l0.2114,2.1131h20.3224v9.0915H73.7252l0.1902,1.907c0.0108,0.0687,0.0159,0.1373,0.0317,0.206h19.1814v9.3715l2.1131,0.1691
				v-9.5406h18.8119v11.025l2.1131,0.1637v-11.1887h12.4936l0.8083-2.1131h-13.3019v-9.0915H132.939z M114.0535,144.1827H95.2416
				v-9.0915h18.8119V144.1827z"/><path fill="#D8D8D6" d="M157.7996,100.5264l-9.2659,3.5658c-1.6746,0.6392-3.0481,1.9493-3.7771,3.5923l-19.7943,49.9586
					l4.0148,2.2926c1.4106,0.8083,2.2822,2.3086,2.2822,3.9304v4.3319c0,2.504-2.0286,4.5273-4.5273,4.5273H76.7891
					c-0.9033,0-1.6323-0.729-1.6323-1.6323c0-0.4491,0.1848-0.8611,0.4754-1.1569c0.2959-0.2958,0.7026-0.4808,1.1569-0.4808
					h49.9428c0.6921,0,1.2573-0.5599,1.2573-1.2572v-4.3319c0-0.449-0.243-0.8611-0.6392-1.0829l-5.024-2.8738
					c-0.1954-0.111-0.4119-0.1849-0.6339-0.206l-38.6324-2.9266c-5.6103-0.5124-10.016-4.7808-10.7186-10.3646l-2.7364-27.0317
					l3.2488-0.4067l2.7311,27.0316c0.5125,4.0518,3.7032,7.1369,7.7708,7.512l38.5638,2.9319l19.8472-50.0907
					c1.0724-2.4301,3.1169-4.3635,5.5944-5.3197l9.2659-3.5658L157.7996,100.5264z"/><path d="M131.2565,166.8565v1.3425c0,2.5055-2.023,4.5284-4.5223,4.5284H76.7913c-0.9032,0-1.6331-0.73-1.6331-1.6332
					c0-0.2351,0.0494-0.464,0.1485-0.6681c0.2536,0.563,0.8227,0.9588,1.4847,0.9588h49.9429
					C129.2335,171.3849,131.2565,169.362,131.2565,166.8565z" opacity=".1"/><polygon points="140.827 117.588 139.305 121.436 136.768 121.553 135.729 121.603 73.413 124.523 71.731 124.603 70.141 124.677 69.757 120.91 71.341 120.836 73.03 120.755 137.257 117.755 140.128 117.619" opacity=".1"/><path fill="none" stroke="#595781" stroke-linecap="round" stroke-linejoin="round" stroke-miterlimit="10" stroke-width=".5" d="
					M157.7996,100.5264l-9.2659,3.5658c-1.6746,0.6392-3.0481,1.9493-3.7771,3.5923l-19.7943,49.9586l4.0148,2.2926
					c1.4106,0.8083,2.2822,2.3086,2.2822,3.9304v4.3319c0,2.504-2.0286,4.5273-4.5273,4.5273H76.7891
					c-0.9033,0-1.6323-0.729-1.6323-1.6323c0-0.4491,0.1848-0.8611,0.4754-1.1569c0.2959-0.2958,0.7026-0.4808,1.1569-0.4808
					h49.9428c0.6921,0,1.2573-0.5599,1.2573-1.2572v-4.3319c0-0.449-0.243-0.8611-0.6392-1.0829l-5.024-2.8738
					c-0.1954-0.111-0.4119-0.1849-0.6339-0.206l-38.6324-2.9266c-5.6103-0.5124-10.016-4.7808-10.7186-10.3646l-2.7364-27.0317
					l3.2488-0.4067l2.7311,27.0316c0.5125,4.0518,3.7032,7.1369,7.7708,7.512l38.5638,2.9319l19.8472-50.0907
					c1.0724-2.4301,3.1169-4.3635,5.5944-5.3197l9.2659-3.5658L157.7996,100.5264z"/><path fill="#FFAD78" d="M147.419,115.7776c0,1.8806-1.4738,3.4232-3.3492,3.5182l-75.2627,3.5235
						c-1.944,0.0951-3.5976-1.3999-3.6979-3.3386c-0.0951-1.9441,1.4052-3.6028,3.3387-3.6979l75.2626-3.5236
						c0.0582-0.0053,0.1216-0.0053,0.1797-0.0053c1.8648,0,3.4232,1.4633,3.5182,3.3176c0,0.0423,0.0054,0.0845,0.0054,0.1268
						L147.419,115.7776z"/><path fill="#E9F7FF" d="M147.4215,115.7753c0,0.2226-0.0184,0.433-0.0556,0.6433c-0.2846-1.6518-1.7508-2.9015-3.4768-2.9015
						c-0.0556,0-0.1175,0-0.1794,0.0062l-75.2639,3.5201c-1.6579,0.0866-3.0067,1.3177-3.285,2.9015
						c-0.0246-0.1547-0.0434-0.3031-0.0494-0.464c-0.0991-1.9426,1.4043-3.6005,3.3344-3.6995l75.2639-3.5201
						c0.0619-0.0062,0.1238-0.0062,0.1794-0.0062c1.8683,0,3.4273,1.46,3.52,3.3159c0,0.0433,0.0063,0.0866,0.0063,0.1299
						L147.4215,115.7753z" opacity=".3"/><path d="M147.4215,115.7753c0,1.8806-1.4785,3.4272-3.353,3.52l-75.2638,3.5262c-1.9426,0.0928-3.5943-1.4043-3.6933-3.3406
					c-0.0124-0.2845,0.006-0.563,0.0556-0.829c0.2969,1.7198,1.8435,2.9943,3.6377,2.9076l75.2638-3.5262
					c1.6579-0.0804,3.0067-1.3053,3.2912-2.889c0.0248,0.1423,0.0434,0.2845,0.0494,0.4268c0,0.0433,0.0063,0.0866,0.0063,0.1299
					L147.4215,115.7753z" opacity=".1"/><path fill="none" stroke="#595781" stroke-linecap="round" stroke-linejoin="round" stroke-miterlimit="10" stroke-width=".5" d="
						M147.419,115.7776c0,1.8806-1.4738,3.4232-3.3492,3.5182l-75.2627,3.5235c-1.944,0.0951-3.5976-1.3999-3.6979-3.3386
						c-0.0951-1.9441,1.4052-3.6028,3.3387-3.6979l75.2626-3.5236c0.0582-0.0053,0.1216-0.0053,0.1797-0.0053
						c1.8648,0,3.4232,1.4633,3.5182,3.3176c0,0.0423,0.0054,0.0845,0.0054,0.1268L147.419,115.7776z"/><path fill="#9598A6" d="M163.667,100.6275l-12.8729,4.0816c-1.5544,0.4929-3.214-0.3676-3.7068-1.922
					c-0.4393-1.3853,0.1977-2.8542,1.4415-3.5062l11.9559-6.2794c2.0281-1.0652,4.5356-0.2846,5.6008,1.7435
					c1.0652,2.028,0.2847,4.5356-1.7434,5.6008C164.129,100.4577,163.8885,100.5556,163.667,100.6275z"/><path d="M164.3414,100.3464c-0.2104,0.1114-0.4516,0.2103-0.6744,0.2784l-12.8738,4.0829
					c-1.3364,0.4269-2.7469-0.1485-3.4273-1.3052c0.6248,0.2226,1.3238,0.2536,2.0044,0.0371l13.6719-4.3367
					c0.2352-0.0742,0.4888-0.1794,0.7115-0.2969c1.5342-0.8104,2.4003-2.3941,2.3569-4.015
					C167.1377,96.8078,166.3582,99.2885,164.3414,100.3464z" opacity=".1"/><path fill="#E9F7FF" d="M165.492,93.9063c-1.101-0.3341-2.3259-0.2474-3.4272,0.3341l-13.2204,6.9411
					c-0.7981,0.4145-1.3672,1.1384-1.6084,1.9734c-0.0619-0.1175-0.1053-0.2412-0.1486-0.3649
					c-0.4392-1.3857,0.198-2.8582,1.4415-3.5077l11.9584-6.2792C162.2009,92.0999,164.261,92.5206,165.492,93.9063z" opacity=".3"/><path fill="none" stroke="#595781" stroke-linecap="round" stroke-linejoin="round" stroke-miterlimit="10" stroke-width=".5" d="
					M163.667,100.6275l-12.8729,4.0816c-1.5544,0.4929-3.214-0.3676-3.7068-1.922c-0.4393-1.3853,0.1977-2.8542,1.4415-3.5062
					l11.9559-6.2794c2.0281-1.0652,4.5356-0.2846,5.6008,1.7435c1.0652,2.028,0.2847,4.5356-1.7434,5.6008
					C164.129,100.4577,163.8885,100.5556,163.667,100.6275z"/><path fill="#D8D8D6" d="M91.9036 172.7252l-4.8305 8.2948c-.4974.8542-1.7313.8545-2.2292.0006l-4.8369-8.2954H91.9036zM121.7507 172.7252l-4.8305 8.2948c-.4974.8542-1.7313.8545-2.2292.0006l-4.8369-8.2954H121.7507z"/><polygon points="90.654 174.87 91.904 172.725 80.007 172.725 81.257 174.87" opacity=".1"/><polygon points="120.501 174.87 121.751 172.725 109.854 172.725 111.105 174.87" opacity=".1"/><path fill="none" stroke="#595781" stroke-linecap="round" stroke-linejoin="round" stroke-miterlimit="10" stroke-width=".5" d="M91.9036 172.7252l-4.8305 8.2948c-.4974.8542-1.7313.8545-2.2292.0006l-4.8369-8.2954H91.9036zM121.7507 172.7252l-4.8305 8.2948c-.4974.8542-1.7313.8545-2.2292.0006l-4.8369-8.2954H121.7507z"/></svg>