<svg xmlns="http://www.w3.org/2000/svg" width="5000" height="5000" enable-background="new 0 0 5000 5000" viewBox="0 0 5000 5000"><path fill="#95e6dd" d="M1889.773,1093.622h1113.779V596.671H1889.773V1093.622z M2230.197,751.122
		c0-18.262,14.812-33.069,33.069-33.069h84.567v-84.562c0-11.077,5.5-20.824,13.865-26.826c1.362-0.979,2.831-1.792,4.333-2.557
		c4.489-2.276,9.494-3.687,14.871-3.687h119.058c5.382,0,10.388,1.41,14.877,3.687c0.397,0.205,0.791,0.425,1.184,0.646
		c4.586,2.567,8.563,6.087,11.47,10.447c3.752,5.361,5.99,11.863,5.99,18.903v83.948h84.094c11.465,0,21.563,5.851,27.493,14.721
		c3.79,5.377,6.05,11.895,6.05,18.967v119.058c0,18.257-14.813,33.069-33.068,33.069h-84.568v84.546
		c0,18.257-14.812,33.069-33.068,33.069h-119.036c-11.453,0-21.54-5.84-27.477-14.694c-3.795-5.382-6.066-11.906-6.066-18.989
		v-83.932h-84.094c-11.475,0-21.573-5.861-27.503-14.737c-3.778-5.377-6.039-11.895-6.039-18.962V751.122z"/><path fill="#fff" d="M3071.66,561.034c0-3.375-0.619-6.572-1.495-9.667v19.333
		C3071.041,567.606,3071.66,564.409,3071.66,561.034z"/><polygon fill="#fff" points="1889.773 596.671 3003.553 596.671 3004.026 596.671 3004.026 548.138 3003.553 548.138 1834.315 548.138 1834.315 1093.622 1834.315 1094.23 1889.773 1094.23 1889.773 1093.622"/><path fill="#fcd6a9" d="M2670.32,1213.185c-55.912,50.352-113.869,86.354-213.851,132.82
		c-129.112,60.002-240.59,111.802-404.138,135.236c-13.897,1.992-27.942,3.361-41.959,4.844c1.081,18.308,2.565,36.6,4.8,54.728
		c4.252,34.555,11.389,92.394,35.222,159.026c33.359,93.233,81.822,154.387,110.779,190.923
		c45.168,56.999,98.389,107.668,158.197,150.598c7.829,5.616,12.652,13.827,14.243,22.608c26.508,7.737,53.794,12.823,81.759,14.646
		c8.149,0.52,16.344,0.799,24.591,0.799c238.307-0.002,436.422-224.29,472.488-516.645c0.291-2.32,0.539-4.65,0.808-6.976
		c0.511-4.494,0.909-9.026,1.346-13.547c1.959-20.302,3.127-40.9,3.487-61.762c-32.768-32.913-130.572-139.349-176.781-273.272
		l-62.979-1.628C2675.639,1208.088,2673.045,1210.733,2670.32,1213.185z"/><path fill="#fff" d="M1962.205,1444.954c-0.054,1.954-0.14,3.886-0.178,5.84c-0.113,5.377-0.495,10.662-0.495,16.045
		c0,290.966,159.314,535.026,372.081,597.13c-1.591-8.781-6.415-16.992-14.243-22.608c-59.809-42.93-113.029-93.599-158.197-150.598
		c-28.957-36.536-77.42-97.689-110.779-190.923c-23.833-66.633-30.97-124.472-35.222-159.026c-2.235-18.128-3.719-36.419-4.8-54.728
		c14.017-1.483,28.062-2.853,41.959-4.844c163.548-23.435,275.026-75.234,404.138-135.236
		c99.982-46.466,157.939-82.468,213.851-132.82c2.725-2.452,5.318-5.097,8.012-7.603l62.979,1.628
		c-5.281-15.308-10.063-30.884-13.818-46.843h-66.041c-29.258,15.518-59.884,33.258-92.317,52.08
		C2425.415,1295.772,2247.237,1398.698,1962.205,1444.954z"/><path fill="#fcd6a9" d="M3252.743,2846.235c-41.282,6.706-90.639,20.948-188.974,49.334
		c-38.495,11.099-61.413,18.333-84.848,38.011c-32.596,27.385-46.105,62.09-51.875,76.913c-6.9,17.687-23.036,59.033-12.906,106.635
		c9.677,45.491,39.345,74.352,68.032,102.254c45.771,44.518,102.312,77.048,167.987,97.162c2.809-0.146,5.498-0.167,8.361-0.372
		c258.696-18.482,445.657-198.791,473.344-290.279c19.029-62.917,11.217-132.629-13.766-179.723
		c-36.752-5.354-74.053-9.338-111.191-11.442C3384.04,2827.752,3288.234,2840.443,3252.743,2846.235z"/><path fill="#fff" d="M2982.173,3219.382c-28.688-27.902-58.355-56.763-68.032-102.254
		c-10.13-47.602,6.006-88.948,12.906-106.635c5.77-14.823,19.279-49.528,51.875-76.913c23.435-19.678,46.353-26.912,84.848-38.011
		c98.335-28.386,147.691-42.628,188.974-49.334c35.491-5.792,131.297-18.483,254.165-11.508
		c37.139,2.104,74.439,6.088,111.191,11.442c0.063,0.006,0.127,0.014,0.189,0.022c-5.763-10.781-12.133-20.755-19.622-28.731
		c-0.296-0.317-0.57-0.673-0.866-0.984c-2.137-2.245-4.408-4.199-6.674-6.18c-1.271-1.092-2.492-2.281-3.795-3.288
		c-1.475-1.152-3.035-2.089-4.554-3.128c-2.249-1.512-4.488-3.051-6.847-4.3c-0.753-0.415-1.555-0.71-2.324-1.093
		c-2.239-1.093-4.554-1.986-6.885-2.826c-45.686-8.74-94.659-13.187-146.039-13.187c-143.449,0-305.404,34.867-465.561,105.591
		c-10.927,11.588-78.238,85.822-93.857,169.231c-7.396,39.452,5.188,101.802,41.971,154.436c5.297,7.573,11.077,14.946,17.386,22.02
		c37.585,42.105,107.938,90.355,231.38,83.358c-0.616-0.186-1.228-0.379-1.842-0.567
		C3084.484,3296.43,3027.944,3263.899,2982.173,3219.382z"/><path fill="#fcd6a9" d="M2446.632,2858.469c78.62-58.296,380.165-287.519,488.818-452.105
		c-55.944-32.073-100.844-76.8-134.563-133.961c-2.557-4.306-5.092-8.628-7.52-13.073c-2.072-3.827-4.096-7.702-6.076-11.632
		c-3.219-6.346-6.298-12.853-9.274-19.479c-1.146-2.567-2.341-5.086-3.45-7.691c-16.644-38.885-29.201-82.279-37.57-130.209
		c-49.688,39.592-106.65,69.79-166.916,87.872c-53.932,16.168-103.083,20.97-142.374,20.97c-28.365,0-51.595-2.498-67.785-5.016
		c-52.09-8.063-104.471-25.9-151.48-51.552c-5.674-3.095-11.147-6.529-16.684-9.852c-8.402,41.102-18.775,84.785-28.808,107.864
		c-20.905,48.075-51.563,103.739-133.633,184.765c-10.836,10.695-28.103,21.691-50.85,33.053c0.233,0.274,0.45,0.549,0.682,0.824
		C2109.724,2614.606,2373.421,2806.465,2446.632,2858.469z"/><path fill="#95e6dd" d="M1550.559,4301.953c-6.217-5.297-11.82-11.099-16.874-17.267
		c-34.866-42.085-41.917-102.663-15.506-152.035l32.359-60.465c0.172-0.313,0.409-0.56,0.581-0.866
		c-0.565-1.313-0.942-2.702-1.496-4.026c-3.671-8.859-7.051-17.815-10-26.938c-1.163-3.574-2.174-7.196-3.229-10.809
		c-2.304-7.971-4.478-15.969-6.238-24.117c-1.244-5.662-2.18-11.416-3.165-17.159c-1.05-6.249-2.158-12.466-2.891-18.806
		c-1.071-8.919-1.642-17.967-2.099-27.052c-0.156-3.354-0.474-6.663-0.549-10.044c-1.356-53.871,7.691-110.37,27.902-168.235
		c26.029-74.503,68.625-147.886,124.299-217.479c-0.231-0.684-0.188-1.469-0.387-2.163c-0.258-1.055-0.42-2.132-0.576-3.224
		c-0.323-1.755-0.942-3.407-0.942-5.259v-208.577c0-18.268,14.813-33.068,33.069-33.068c11.47,0,21.567,5.851,27.498,14.721
		c3.784,5.377,6.045,11.9,6.045,18.967v145.614c97.549-99.923,222.721-188.92,366.343-257.087l787.694-373.874
		c235.402-111.727,478.856-147.019,674.009-112.76c5.243-1.065,10.776-1.028,16.244,0.641c4.349,1.335,8.482,3.181,12.648,4.962
		c5.641,1.223,10.861,2.987,16.411,4.328c9.117,2.195,18.09,4.574,26.949,7.1c10.517,3.003,20.835,6.211,30.97,9.677
		c9.597,3.267,19.005,6.744,28.235,10.42c4.371,1.749,9.097,3.101,13.381,4.941c-18.725-36.277-42.488-69.572-70.164-99.17
		c-1.324-1.41-2.6-2.863-3.939-4.252c-7.998-8.337-16.4-16.281-25.028-23.973c-2.906-2.578-5.866-5.087-8.838-7.589
		c-6.878-5.818-13.962-11.39-21.195-16.782c-5.205-3.859-10.518-7.567-15.889-11.201c-5.216-3.541-10.507-6.965-15.878-10.285
		c-8.467-5.21-17.138-10.098-25.965-14.731c-4.246-2.239-8.45-4.532-12.771-6.631c-6.852-3.316-13.828-6.4-20.868-9.355
		c-2.276-0.963-4.597-1.846-6.889-2.771c-6.39-2.557-12.794-5.07-19.323-7.325l-405.575-105.634
		c-45.352,49.049-266.196,287.331-319.093,332.844c-2.304,1.991-239.439,195.174-300.841,195.174c-0.786,0-1.528-0.031-2.261-0.097
		c-27.912-2.443-55.201-20.28-109.552-55.804c-25.889-16.922-58.097-37.978-98.755-62.812
		c-93.772-57.301-292.34-261.679-378.842-352.794c-97.164,32.113-228.137,67.643-387.699,108.338
		c-45.05,11.486-87.711,22.369-98.217,26.008l-2.788,1.647c-21.756,12.724-72.716,42.51-120.026,118.314
		c-39.216,62.833-48.28,108.313-53.694,135.495c-1.733,8.687-3.154,15.867-5.188,22.434c-5.349,63.947-10.601,932.587-12.97,1528.6
		h556.738c-6.997-5.107-13.918-10.339-20.55-15.99L1550.559,4301.953z"/><path fill="#fff" d="M2162.949,2240.604c10.033-23.079,20.406-66.763,28.808-107.864
		c5.537,3.323,11.01,6.757,16.684,9.852c47.009,25.652,99.39,43.489,151.48,51.552c16.19,2.519,39.42,5.016,67.785,5.016
		c39.291,0,88.442-4.801,142.374-20.97c60.266-18.082,117.229-48.28,166.916-87.872c0.092-0.07,0.188-0.143,0.279-0.216
		c-2.767-16.018-5.073-32.533-6.914-49.55c-0.113,0.092-0.226,0.183-0.339,0.274c-84.051,66.219-183.489,104.725-290.065,104.725
		c-102.776,0-198.98-35.701-281.087-97.63c-20.813,177.676-92.92,300.103-215.293,364.869c0.146,0.21,0.264,0.414,0.409,0.63
		c1.389,2.023,2.917,4.09,4.371,6.141c2.11,2.982,4.203,5.958,6.448,8.983c2.772,3.73,5.695,7.509,8.655,11.298
		c1.044,1.335,2.04,2.653,3.101,3.999c3.827,4.812,7.793,9.667,11.895,14.564c0.004,0.005,0.008,0.011,0.012,0.016
		c22.747-11.362,40.014-22.358,50.85-33.053C2111.386,2344.343,2142.044,2288.679,2162.949,2240.604z"/><path fill="#fff" d="M1187.152,2898.627c5.415-27.182,14.479-72.662,53.694-135.495
		c47.311-75.805,98.271-105.591,120.026-118.314l2.788-1.647c10.506-3.639,53.167-14.521,98.217-26.008
		c159.562-40.695,290.536-76.225,387.699-108.338c86.502,91.115,285.07,295.493,378.842,352.794
		c40.658,24.834,72.866,45.89,98.755,62.812c54.351,35.523,81.64,53.36,109.552,55.804c0.732,0.065,1.475,0.097,2.261,0.097
		c61.401,0,298.537-193.183,300.841-195.174c52.896-45.513,273.741-283.795,319.093-332.844l-50.46-13.144
		c-0.796-0.194-1.593-0.431-2.389-0.711c-3.283-1.125-6.352-2.508-9.581-3.703c-127.669,201.046-512.517,479.544-529.644,491.903
		c-5.77,4.133-12.552,6.222-19.333,6.222c-6.567,0-13.133-1.938-18.795-5.856c-17.197-11.879-394.918-273.901-534.1-469.135
		c-0.226-0.313-0.458-0.625-0.678-0.931c-3.574-5.033-6.911-9.995-10.157-14.936c-0.635-0.963-1.286-1.938-1.911-2.896
		c-0.016,0-0.032,0.011-0.054,0.011c-0.032,0.011-0.064,0.021-0.097,0.032l-456.013,118.777
		c-177.079,61.229-295.986,228.061-295.986,415.517l-26.201,1258.455c-0.027,1.335-0.291,2.605-0.474,3.896
		c-0.628,4.468-2.286,8.521-4.487,12.227c-0.323,73.988-0.645,151.806-0.961,234.188c-0.075,19.689,15.813,35.696,35.491,35.771
		c0.054,0,0.097,0,0.14,0c19.624,0,35.556-15.856,35.631-35.491c0.042-10.786,0.087-21.874,0.13-32.849
		c2.37-596.013,7.622-1464.652,12.97-1528.6C1183.999,2914.494,1185.419,2907.313,1187.152,2898.627z"/><path fill="#ff8980" d="M2367.635 604.109h-1.604c-1.502.765-2.971 1.577-4.333 2.557v1.001C2363.55 606.289 2365.52 605.083 2367.635 604.109zM2467.343 751.741v-84.567h-52.897v84.567c0 18.257-14.813 33.069-33.069 33.069h-84.567v52.919h84.567c18.257 0 33.069 14.812 33.069 33.069v84.545h52.897v-84.545c0-18.257 14.813-33.069 33.069-33.069h84.567v-52.919h-84.567C2482.155 784.811 2467.343 769.998 2467.343 751.741zM2516.021 605.121v-.366c-.393-.221-.786-.441-1.184-.646h-.684C2514.805 604.405 2515.396 604.787 2516.021 605.121z"/><path fill="#fff" d="M2822.986 2160.697c.064.205.129.409.199.608 3.052 8.994 6.367 17.681 9.844 26.18.441 1.055.84 2.147 1.281 3.197 3.105 7.4 6.459 14.516 9.893 21.534.883 1.782 1.685 3.649 2.584 5.41 2.836 5.56 5.91 10.834 8.956 16.147 31.158 53.894 73.291 94.82 126.495 122.222 5.792-.361 11.734.672 17.246 3.536 1.463.764 2.766 1.722 4.068 2.665V1160.368h-208.141c8.413 30.313 20.352 59.507 34.087 86.914 1.318 2.616 2.707 5.156 4.058 7.745 3.111 5.98 6.255 11.906 9.511 17.692 2.433 4.311 4.925 8.515 7.423 12.713 2.229 3.762 4.451 7.53 6.717 11.195 3.369 5.426 6.771 10.722 10.188 15.921 1.378 2.099 2.751 4.209 4.129 6.271 4.22 6.27 8.45 12.4 12.664 18.3.458.641.921 1.286 1.378 1.927 44.711 62.155 87.141 102.21 87.953 102.964.097.086.118.21.215.302.188.178.27.446.452.629 2.961 2.82 5.361 6.19 7.121 9.936.103.226.253.42.35.646 1.55 3.52 2.417 7.374 2.648 11.405.021.366.103.71.107 1.076.011.285.087.549.087.834 0 207.295-75.03 393.066-192.925 517.662.506 1.992.866 4.048.99 6.19C2796.215 2054.806 2806.387 2111.503 2822.986 2160.697zM2096.876 1993.425c-22.687-23.004-43.839-48.242-63.291-75.428-1.297-1.809-2.546-3.676-3.827-5.501-4.693-6.706-9.312-13.493-13.795-20.426-2.19-3.375-4.316-6.803-6.453-10.232-3.37-5.409-6.685-10.867-9.92-16.405-2.675-4.559-5.296-9.155-7.875-13.795-2.411-4.344-4.758-8.736-7.088-13.155-3.046-5.759-6.061-11.545-8.973-17.422-1.426-2.896-2.793-5.845-4.188-8.773-47.688-99.735-75.464-215.818-76.375-339.86.146.288.327.552.478.834-.016-2.156-.176-4.266-.176-6.424 0-9.505.558-18.897.872-28.365-.199.336-.336.705-.525 1.05.269-8.628.265-17.159.794-25.814 1.012-16.89 14.36-29.737 31.056-30.819 280.522-41.336 456.659-140.673 597.951-222.522h-691.227v1222.071l29.064-7.568C2005.99 2325.451 2084.508 2197.082 2096.876 1993.425zM1629.732 4080.885c.313.516.667 1.006.98 1.522 3.713 6.114 7.659 12.089 11.798 17.929 1.954 2.75 4.047 5.404 6.093 8.09 2.594 3.418 5.205 6.83 7.944 10.15 3.122 3.768 6.384 7.439 9.694 11.077 1.781 1.97 3.552 3.935 5.382 5.862 4.257 4.451 8.639 8.815 13.17 13.063.883.834 1.771 1.663 2.659 2.486 62.984 57.79 151.373 96.139 254.563 113.923-23.585-24.188-44.253-49.189-62.236-74.853-.28-.398-.543-.797-.823-1.195-16.944-24.311-31.583-49.146-44.011-74.395-1.54-3.111-3.02-6.227-4.495-9.349-4.984-10.603-9.607-21.249-13.87-31.96-2.331-5.813-4.709-11.627-6.835-17.466-2.051-5.673-3.892-11.362-5.754-17.052-2.164-6.571-4.209-13.144-6.13-19.731-1.346-4.646-2.74-9.284-3.967-13.94-2.982-11.211-5.652-22.438-7.988-33.678-.43-2.099-.774-4.197-1.189-6.297-2.19-11.12-4.069-22.24-5.667-33.354-.204-1.415-.43-2.836-.619-4.257-24.215-175.986 22.536-348.625 65.078-460.551-110.51 97.539-192.548 208.808-231.268 319.694-34.813 99.703-32.897 193.851 5.511 272.239C1621.444 4066.379 1625.448 4073.721 1629.732 4080.885zM2451.357 3655.356c3.854 11.577 7.938 23.214 12.336 34.921 2.31 6.131 4.898 12.31 7.363 18.467 2.681 6.728 5.27 13.434 8.144 20.194 4.091 9.591 8.531 19.231 13.025 28.871 1.577 3.391 3.02 6.771 4.645 10.167 5.84 12.164 12.046 24.355 18.559 36.563.484.909.915 1.819 1.399 2.723 50.195 93.39 120.597 187.591 218.545 275.959l392.84-181.455c-43.215-17.611-83.28-37.924-120.968-59.992-.646-.376-1.292-.759-1.938-1.135-12.282-7.234-24.328-14.624-36.051-22.257-.027-.021-.054-.037-.081-.054-45.744-29.807-87.231-62.494-124.854-97.107-3.101-2.854-6.233-5.684-9.285-8.559-6.824-6.442-13.493-12.944-20.06-19.5-3.967-3.956-7.874-7.934-11.755-11.933-5.803-5.99-11.557-11.986-17.154-18.053-4.655-5.043-9.149-10.129-13.665-15.216-4.678-5.285-9.431-10.533-13.962-15.861-8.084-9.489-15.921-19.048-23.537-28.656-1.738-2.189-3.45-4.381-5.162-6.582-7.756-9.931-15.264-19.898-22.541-29.904-1.948-2.686-3.805-5.377-5.721-8.068-6.411-8.978-12.654-17.961-18.693-26.965-1.593-2.374-3.154-4.748-4.721-7.121-6.528-9.888-12.837-19.759-18.94-29.63-.774-1.265-1.565-2.519-2.341-3.784-99.601-162.563-142.186-319.63-157.202-388.168l-80.568 38.241c-1.997 7.853-58.312 238.513 31.234 510.714C2450.593 3653.23 2451.007 3654.302 2451.357 3655.356z"/><path fill="#fff" d="M3358.637 3795.33c244.681-116.13 440.254-312.553 510.073-512.464 37.655-107.818 36.276-208.253-3.982-290.42-4.403-8.983-9.247-17.687-14.489-26.11-.561-.893-1.223-1.722-1.793-2.609-4.597-7.213-9.445-14.253-14.64-21.04-2.314-3.02-4.882-5.856-7.315-8.789-3.702-4.489-7.373-9.011-11.346-13.306-3.406-3.676-7.077-7.147-10.673-10.684-3.343-3.283-6.604-6.631-10.103-9.791-4.295-3.88-8.838-7.551-13.37-11.243-3.116-2.546-6.168-5.146-9.397-7.6-5.135-3.908-10.506-7.611-15.904-11.282-2.885-1.97-5.716-3.977-8.671-5.877-6.039-3.87-12.288-7.546-18.623-11.146-2.524-1.438-5.011-2.906-7.584-4.301-7.072-3.832-14.35-7.471-21.767-10.969-1.932-.916-3.837-1.847-5.785-2.734-2.907-1.324-5.97-2.487-8.924-3.758 27.191 61.031 33.763 140.151 11.292 214.465-38.603 127.647-259.666 317.623-531.97 337.086-12.186.882-23.982 1.291-35.394 1.291-132.966 0-212.646-56.558-256.996-106.269-8.504-9.538-16.228-19.382-23.225-29.431-49.093-70.132-62.322-150.275-52.278-203.856 6.744-36.002 20.775-69.776 36.691-99.271l-271.174 128.708c9.193 46.918 42.893 192.327 131.787 349.356.172.296.339.593.506.894 5.803 10.227 11.885 20.512 18.166 30.809.779 1.286 1.55 2.563 2.341 3.849 5.77 9.382 11.798 18.773 17.977 28.165 1.276 1.943 2.509 3.876 3.806 5.818 5.861 8.784 11.986 17.563 18.219 26.325 1.701 2.385 3.321 4.78 5.049 7.159 6.082 8.406 12.461 16.771 18.897 25.125 2.013 2.604 3.907 5.23 5.958 7.825 7.046 8.962 14.414 17.848 21.885 26.702 6.341 7.497 12.935 14.914 19.592 22.314 3.763 4.193 7.406 8.424 11.271 12.579 6.427 6.899 13.149 13.682 19.861 20.469 3.014 3.052 5.942 6.142 9.015 9.166 7.224 7.104 14.716 14.08 22.268 21.029 2.771 2.556 5.49 5.14 8.305 7.669 8.009 7.191 16.266 14.248 24.641 21.239 2.523 2.11 5.027 4.23 7.584 6.324 8.864 7.229 17.949 14.333 27.224 21.314 2.185 1.646 4.37 3.288 6.577 4.925 9.865 7.282 19.936 14.436 30.27 21.41 1.583 1.066 3.182 2.121 4.775 3.182 11.141 7.417 22.503 14.683 34.193 21.707.474.285.958.56 1.432.845 50.874 30.432 106.99 56.993 168.908 78.173 1.663.57 2.961 1.637 4.446 2.46 1.124.56 2.223 1.13 3.262 1.804.5.35 1.141.527 1.625.898L3358.637 3795.33zM1917.903 4129.239c1.685 2.675 3.525 5.312 5.274 7.972 5.06 7.718 10.366 15.377 15.942 22.977 2.939 3.982 5.975 7.939 9.059 11.885 4.763 6.119 9.769 12.18 14.893 18.213 3.929 4.598 7.847 9.199 11.986 13.736 4.629 5.092 9.57 10.092 14.473 15.107 4.995 5.092 9.866 10.222 15.157 15.227 3.342 3.176 7.029 6.25 10.49 9.383 6.491 5.871 12.891 11.771 19.812 17.508.705.587 1.146 1.34 1.787 1.976 1.518 1.41 2.901 2.901 4.096 4.521.108.156.205.313.313.475 1.674 2.346 2.987 4.859 3.983 7.497 115.268 4.629 242.625-13.009 370.547-54.437-126.609-65.621-234.363-163.43-315.739-280.178-.452-.651-.915-1.303-1.367-1.954-11.022-15.894-21.551-32.116-31.572-48.673-.894-1.469-1.755-2.954-2.638-4.435-9.796-16.378-19.183-33.005-27.967-49.959-.538-1.038-1.033-2.094-1.566-3.132-8.213-15.997-15.942-32.235-23.225-48.679-.92-2.077-1.905-4.117-2.814-6.2-6.868-15.813-13.187-31.857-19.172-48.031-1.545-4.178-3.106-8.344-4.591-12.541-5.404-15.275-10.41-30.69-15.006-46.234-1.528-5.156-2.949-10.334-4.386-15.518-4.209-15.205-8.165-30.485-11.572-45.896-1.189-5.371-2.158-10.775-3.25-16.168-2.417-11.96-4.591-23.962-6.519-36.019-1.249-7.789-2.438-15.577-3.482-23.402-1.642-12.406-2.998-24.855-4.112-37.332-.678-7.547-1.33-15.087-1.814-22.66-.851-13.596-1.378-27.219-1.582-40.862-.054-3.192-.355-6.367-.372-9.564C1875.533 3546.036 1753.72 3868.384 1917.903 4129.239z"/><path fill="#95e6dd" d="M1747.595,4382.726c50.68,43.167,115.247,66.935,181.815,66.935h1415.232
		c113.051,0,219.233-44.156,298.935-124.332c79.724-80.186,123.277-186.615,122.61-299.688l-2.734-445.582
		c-98.411,109.386-227.743,205.277-376.29,275.786l-224.874,103.868c51.434,2.282,105.559,6.997,151.265,14.408
		c9.091,1.475,16.696,6.534,21.643,13.493c5.173,6.928,7.67,15.835,6.174,25.05c-2.627,16.233-16.664,27.772-32.596,27.772
		c-1.766,0-3.53-0.129-5.339-0.43c-101.684-16.471-241.495-17.869-289.226-11.497c-0.317,0.043-0.624,0-0.942,0.032
		l-420.086,194.033c-173.526,82.371-352.112,122.071-512.592,122.071c-187.37,0-349.825-54.308-451.396-157.734
		c-0.043-0.038-0.081-0.081-0.118-0.118c-7.051-7.191-13.827-14.598-20.275-22.262c-0.458-0.539-0.888-1.093-1.34-1.637
		c-6.114-7.342-12.013-14.844-17.557-22.621l-12.95,24.193c-13.526,25.275-10.022,56.245,7.6,77.974
		c2.53,3.052,5.329,5.921,8.418,8.548L1747.595,4382.726z"/><path fill="#fff" d="M2081.876,3779.823c3.988,8.369,8.16,16.642,12.406,24.877c0.775,1.496,1.502,3.015,2.282,4.5
		c3.746,7.163,7.67,14.226,11.615,21.281c1.399,2.487,2.723,5.011,4.144,7.487c3.342,5.834,6.841,11.577,10.313,17.331
		c2.185,3.611,4.295,7.261,6.535,10.835c2.761,4.435,5.662,8.778,8.504,13.159c3.1,4.774,6.146,9.575,9.338,14.285
		c1.981,2.928,4.064,5.774,6.082,8.676c4.226,6.077,8.445,12.164,12.826,18.122c0.861,1.18,1.776,2.32,2.643,3.494
		c81.795,110.127,189.582,200.4,315.507,256.77c3.472,1.555,6.335,3.795,8.918,6.281c1.577,1.416,2.993,2.943,4.252,4.607
		c0.005,0.005,0.016,0.01,0.016,0.016c22.552-9.107,45.039-18.859,67.397-29.474l105.683-48.808
		c-69.572-65.868-125.301-134.461-169.743-203.554c-0.856-1.324-1.701-2.648-2.551-3.973c-6.761-10.624-13.338-21.238-19.581-31.874
		c-0.775-1.308-1.491-2.615-2.255-3.93c-17.455-30.012-32.897-59.98-46.509-89.793c-2.379-5.193-4.806-10.388-7.078-15.571
		c-2.928-6.706-5.711-13.38-8.461-20.054c-2.912-7.052-5.732-14.07-8.445-21.083c-2.083-5.383-4.16-10.76-6.13-16.115
		c-3.681-9.989-7.142-19.925-10.458-29.823c-0.824-2.476-1.733-4.979-2.541-7.455c-69.879-214.189-55.395-404.472-41.95-493.274
		l-211.106,100.197c-45.491,21.595-89.147,45.664-130.716,71.623c-13.865,147.949,15.404,296.853,78.33,429.65
		C2081.392,3778.763,2081.623,3779.296,2081.876,3779.823z"/><path fill="#333" d="M2516.021,605.121c-0.624-0.334-1.216-0.716-1.867-1.012c-4.193-1.927-8.822-3.073-13.741-3.073
		h-119.036c-4.919,0-9.543,1.146-13.741,3.073c-2.115,0.975-4.085,2.18-5.937,3.558c-8.084,6.033-13.391,15.582-13.391,26.438
		v84.567h-84.567c-18.257,0-33.069,14.812-33.069,33.069v119.058c0,6.781,2.056,13.079,5.565,18.332
		c5.931,8.875,16.028,14.737,27.503,14.737h84.094h0.474v84.546c0,6.803,2.067,13.122,5.592,18.375
		c5.937,8.854,16.023,14.694,27.477,14.694h119.036c18.257,0,33.068-14.812,33.068-33.069v-84.546h84.568
		c18.256,0,33.068-14.812,33.068-33.069V751.741c0-7.072-2.26-13.59-6.05-18.967c-5.979-8.509-15.835-14.102-27.019-14.102h-84.568
		v-0.619v-83.948c0-7.04-2.238-13.542-5.99-18.903C2524.535,610.982,2520.574,607.586,2516.021,605.121z M2584.979,784.811v52.919
		h-84.567c-18.257,0-33.069,14.812-33.069,33.069v84.545h-52.897v-84.545c0-18.257-14.813-33.069-33.069-33.069h-84.567v-52.919
		h84.567c18.257,0,33.069-14.813,33.069-33.069v-84.567h52.897v84.567c0,18.257,14.813,33.069,33.069,33.069H2584.979z"/><path fill="#333" d="M3924.557,2963.947c-27.482-56.084-69.033-102.771-121.188-140.017
		c-0.247-2.196-0.71-4.397-1.421-6.577c-48.871-150.555-167.434-271.076-317.17-322.381c-0.797-0.279-1.594-0.517-2.391-0.71
		l-414.493-107.959c1.41-3.676,2.271-7.632,2.271-11.809V1127.299V570.701v-19.333v-36.298c0-18.257-14.813-33.069-33.069-33.069
		h-1235.85c-18.257,0-33.069,14.812-33.069,33.069v612.23v1273.117l-360.358,93.847c-0.796,0.193-1.593,0.431-2.39,0.71
		c-204.464,70.057-341.843,262.357-341.843,477.801l-26.201,1257.767c-0.366,18.257,14.123,33.37,32.38,33.759
		c0.237,0,0.474,0,0.71,0c12.006,0,22.341-6.584,28.086-16.258c2.201-3.706,3.859-7.759,4.487-12.227
		c0.183-1.291,0.447-2.562,0.474-3.896l26.201-1258.455c0-187.456,118.907-354.287,295.986-415.517l456.013-118.777
		c0.032-0.011,0.064-0.021,0.097-0.032c0.021,0,0.038-0.011,0.054-0.011c0.625,0.958,1.276,1.932,1.911,2.896
		c3.246,4.941,6.583,9.903,10.157,14.936c0.221,0.307,0.452,0.619,0.678,0.931c139.182,195.233,516.903,457.256,534.1,469.135
		c5.662,3.919,12.229,5.856,18.795,5.856c6.781,0,13.563-2.089,19.333-6.222c17.126-12.358,401.975-290.856,529.644-491.903
		c3.229,1.195,6.298,2.578,9.581,3.703c0.796,0.28,1.593,0.517,2.389,0.711l50.46,13.144l405.575,105.634
		c6.529,2.255,12.934,4.769,19.323,7.325c2.292,0.926,4.612,1.809,6.889,2.771c7.04,2.955,14.017,6.039,20.868,9.355
		c4.321,2.099,8.525,4.392,12.771,6.631c8.827,4.634,17.498,9.521,25.965,14.731c5.371,3.32,10.662,6.744,15.878,10.285
		c5.371,3.634,10.684,7.342,15.889,11.201c7.233,5.393,14.317,10.964,21.195,16.782c2.972,2.502,5.932,5.011,8.838,7.589
		c8.628,7.691,17.03,15.636,25.028,23.973c1.34,1.389,2.615,2.842,3.939,4.252c27.929,29.732,51.789,63.275,70.633,99.789
		c-4.526-1.943-9.226-3.714-13.85-5.561c-9.23-3.676-18.639-7.153-28.235-10.42c-10.135-3.466-20.453-6.674-30.97-9.677
		c-8.859-2.525-17.832-4.904-26.949-7.1c-5.264-1.271-10.528-2.535-15.873-3.692c-4.188-1.792-8.348-3.644-12.713-4.989
		c-5.479-1.669-11.023-1.707-16.266-0.636c-195.152-34.259-438.585,1.034-673.987,112.761l-787.716,373.878
		c-143.837,68.28-269.187,157.438-366.795,257.556v-1.087v-145.614c0-7.066-2.261-13.59-6.045-18.967
		c-5.985-8.504-15.835-14.102-27.024-14.102c-18.257,0-33.069,14.812-33.069,33.068v208.576c0,1.588,0.253,3.111,0.468,4.641
		c0.156,1.092,0.318,2.169,0.576,3.224c0.237,0.952,0.549,1.868,0.867,2.782c-55.691,69.61-98.298,143.004-124.327,217.522
		c-20.103,57.575-29.474,113.896-28.354,167.573c0.076,3.381,0.393,6.69,0.549,10.044c0.457,9.085,1.028,18.133,2.099,27.052
		c0.732,6.34,1.841,12.557,2.891,18.806c0.985,5.743,1.921,11.497,3.165,17.159c1.76,8.148,3.934,16.146,6.238,24.117
		c1.055,3.612,2.067,7.234,3.229,10.809c2.95,9.123,6.33,18.079,10,26.938c0.646,1.55,1.302,3.101,1.97,4.64
		c-0.178,0.301-0.414,0.549-0.581,0.861l-32.358,60.454c-26.31,49.141-19.415,109.358,15.032,151.438
		c5.054,6.168,10.657,11.97,16.874,17.267l154.624,131.717c6.631,5.651,13.553,10.883,20.55,15.99
		c59.104,43.129,130.597,66.768,204.152,66.768h1415.21c130.812,0,253.637-51.088,345.869-143.858
		c92.21-92.771,142.589-215.896,141.813-346.709l-3.224-528.093c44.259-61.746,79.013-126.485,102.065-192.494
		C3975.237,3180.381,3972.783,3062.357,3924.557,2963.947z M1978.454,2458.405c-4.101-4.898-8.068-9.753-11.895-14.564
		c-1.061-1.346-2.056-2.664-3.101-3.999c-2.96-3.789-5.883-7.567-8.655-11.298c-2.245-3.024-4.338-6.001-6.448-8.983
		c-1.453-2.051-2.982-4.118-4.371-6.141c-0.145-0.216-0.264-0.42-0.409-0.63c122.373-64.766,194.48-187.192,215.293-364.869
		c82.107,61.929,178.312,97.63,281.087,97.63c106.576,0,206.014-38.505,290.065-104.725c0.113-0.091,0.226-0.183,0.339-0.274
		c1.841,17.017,4.147,33.532,6.914,49.55c8.291,47.986,20.729,91.479,37.291,130.425c1.109,2.605,2.304,5.124,3.45,7.691
		c2.977,6.626,6.056,13.133,9.274,19.479c1.98,3.93,4.004,7.805,6.076,11.632c2.428,4.445,4.963,8.768,7.52,13.073
		c33.72,57.161,78.619,101.888,134.563,133.961c0.216,0.124,0.425,0.253,0.641,0.377
		c-108.524,164.603-410.328,394.025-488.985,452.337c-73.318-52.058-337.559-244.347-467.957-399.832
		c-0.232-0.274-0.449-0.549-0.682-0.824C1978.462,2458.416,1978.458,2458.411,1978.454,2458.405z M1834.315,2383.192v-0.753
		V1160.368h691.227h1.523c-141.469,81.973-317.849,181.724-599.13,223.163c-16.028,1.238-29.894,13.957-30.927,30.755
		c-0.495,7.95-0.477,16.115-0.743,24.188c-0.314,9.468-0.872,18.86-0.872,28.365c0,2.158,0.16,4.268,0.176,6.424
		c0.934,123.656,28.466,239.484,75.897,339.025c1.395,2.928,2.761,5.877,4.188,8.773c2.912,5.877,5.926,11.664,8.973,17.422
		c2.331,4.419,4.677,8.811,7.088,13.155c2.578,4.64,5.2,9.236,7.875,13.795c3.235,5.539,6.55,10.996,9.92,16.405
		c2.137,3.429,4.263,6.857,6.453,10.232c4.483,6.933,9.102,13.72,13.795,20.426c1.281,1.825,2.53,3.692,3.827,5.501
		c19.451,27.186,40.604,52.424,63.291,75.428c0.162,0.162,0.329,0.313,0.49,0.474c-12.342,203.749-90.87,332.16-233.534,381.608
		L1834.315,2383.192z M2569.134,1212.448c32.434-18.822,63.06-36.562,92.317-52.08h66.041c3.755,15.959,8.537,31.535,13.818,46.843
		c46.209,133.923,144.014,240.359,176.781,273.272c-0.36,20.862-1.528,41.46-3.487,61.762c-0.437,4.521-0.835,9.053-1.346,13.547
		c-0.269,2.325-0.517,4.656-0.808,6.976c-36.066,292.355-234.182,516.643-472.488,516.645c-0.001,0-0.004,0-0.005,0
		c-8.245,0-16.442-0.269-24.585-0.799c-27.965-1.822-55.251-6.908-81.759-14.646c-212.767-62.104-372.081-306.164-372.081-597.13
		c0-5.383,0.382-10.668,0.495-16.045c0.038-1.954,0.124-3.886,0.178-5.84C2247.237,1398.698,2425.415,1295.772,2569.134,1212.448z
		 M2984.5,1466.839c0-0.286-0.076-0.549-0.087-0.834c-0.005-0.366-0.086-0.71-0.107-1.076c-0.231-4.032-1.099-7.885-2.648-11.405
		c-0.097-0.226-0.247-0.42-0.35-0.646c-1.76-3.746-4.16-7.116-7.121-9.936c-0.005,0-0.005-0.005-0.011-0.005
		c-0.097-0.091-0.129-0.226-0.226-0.317c-0.818-0.748-43.517-41.116-88.384-103.572c-0.457-0.641-0.92-1.286-1.378-1.927
		c-4.214-5.899-8.444-12.03-12.664-18.3c-1.378-2.062-2.751-4.172-4.129-6.271c-3.417-5.2-6.819-10.496-10.188-15.921
		c-2.266-3.665-4.488-7.433-6.717-11.195c-2.498-4.198-4.99-8.402-7.423-12.713c-3.256-5.786-6.399-11.712-9.511-17.692
		c-1.351-2.589-2.739-5.129-4.058-7.745c-13.735-27.407-25.674-56.601-34.087-86.914h208.141h0.474V2362.82
		c-1.302-0.942-2.6-1.9-4.069-2.664c-5.511-2.874-11.469-3.913-17.266-3.547c-53.426-27.521-95.79-68.55-126.948-122.836
		c-3.046-5.313-6.12-10.587-8.956-16.147c-0.899-1.76-1.701-3.627-2.584-5.41c-3.434-7.019-6.787-14.134-9.893-21.534
		c-0.441-1.05-0.84-2.143-1.281-3.197c-3.477-8.499-6.792-17.186-9.844-26.18c-0.07-0.199-0.135-0.404-0.199-0.608
		c-16.6-49.194-26.771-105.892-30.421-170.006c-0.124-2.142-0.484-4.198-0.99-6.19
		C2909.47,1859.905,2984.5,1674.134,2984.5,1466.839z M1889.773,1094.23h-55.458v-0.608V548.138h1169.237h0.474v48.533v497.56
		H1889.773z M3158.973,3316.791c-2.388,0.173-4.621,0.188-6.971,0.32c-123.441,6.997-193.795-41.253-231.38-83.358
		c-6.309-7.073-12.089-14.446-17.386-22.02c-36.782-52.634-49.366-114.983-41.971-154.436
		c15.619-83.409,82.931-157.644,93.857-169.231c160.156-70.724,322.111-105.591,465.561-105.591
		c51.38,0,100.354,4.446,146.039,13.187c2.331,0.84,4.646,1.733,6.885,2.826c0.77,0.383,1.571,0.678,2.324,1.093
		c2.358,1.249,4.598,2.788,6.847,4.3c1.519,1.039,3.079,1.976,4.554,3.128c1.303,1.007,2.524,2.196,3.795,3.288
		c2.266,1.98,4.537,3.935,6.674,6.18c0.296,0.312,0.57,0.667,0.866,0.984c7.489,7.977,13.859,17.95,19.622,28.731
		c25.195,47.138,33.149,117.165,14.05,180.318C3604.674,3117.989,3417.691,3298.298,3158.973,3316.791z M2419.015,3141.462
		l80.568-38.241l0.302-0.141c14.86,68.092,57.149,225.262,156.9,388.309c0.775,1.266,1.566,2.52,2.341,3.784
		c6.104,9.871,12.412,19.742,18.94,29.63c1.566,2.373,3.128,4.747,4.721,7.121c6.039,9.004,12.282,17.987,18.693,26.965
		c1.916,2.691,3.772,5.383,5.721,8.068c7.277,10.006,14.785,19.974,22.541,29.904c1.712,2.201,3.424,4.393,5.162,6.582
		c7.616,9.608,15.453,19.167,23.537,28.656c4.531,5.328,9.284,10.576,13.962,15.861c4.516,5.087,9.01,10.173,13.665,15.216
		c5.598,6.066,11.352,12.063,17.154,18.053c3.881,3.999,7.788,7.977,11.755,11.933c6.566,6.556,13.235,13.058,20.06,19.5
		c3.052,2.875,6.185,5.705,9.285,8.559c37.622,34.613,79.109,67.301,124.854,97.107c0.027,0.017,0.054,0.032,0.081,0.054
		c11.723,7.633,23.769,15.022,36.051,22.257c0.646,0.376,1.292,0.759,1.938,1.135c37.688,22.068,77.753,42.381,120.968,59.992
		c0.323,0.135,0.673,0.242,0.996,0.371l-393.396,181.702c-98.163-88.571-168.795-182.95-218.985-276.577
		c-0.484-0.903-0.915-1.813-1.399-2.723c-6.513-12.207-12.719-24.398-18.559-36.563c-1.625-3.396-3.067-6.776-4.645-10.167
		c-4.494-9.64-8.935-19.28-13.025-28.871c-2.874-6.761-5.463-13.467-8.144-20.194c-2.465-6.157-5.054-12.336-7.363-18.467
		c-4.397-11.707-8.482-23.344-12.336-34.921c-0.35-1.055-0.765-2.126-1.109-3.181
		C2360.703,3379.975,2417.018,3149.314,2419.015,3141.462z M2002.814,3348.585c41.568-25.959,85.225-50.028,130.716-71.623
		l211.106-100.197l0.597-0.285c-13.466,88.361-28.424,278.8,41.353,493.56c0.808,2.477,1.717,4.979,2.541,7.455
		c3.315,9.898,6.776,19.834,10.458,29.823c1.97,5.355,4.047,10.732,6.13,16.115c2.713,7.013,5.533,14.031,8.445,21.083
		c2.75,6.674,5.533,13.348,8.461,20.054c2.271,5.184,4.699,10.378,7.078,15.571c13.612,29.813,29.054,59.781,46.509,89.793
		c0.764,1.314,1.48,2.622,2.255,3.93c6.243,10.636,12.82,21.25,19.581,31.874c0.85,1.324,1.695,2.648,2.551,3.973
		c44.442,69.093,100.17,137.686,169.743,203.554c0.193,0.184,0.393,0.367,0.586,0.55l-105.795,48.866
		c-22.357,10.613-44.851,20.372-67.397,29.484c-0.161-0.215-0.328-0.42-0.49-0.635c-1.259-1.664-2.675-3.191-4.252-4.607
		c-2.487-2.229-5.237-4.221-8.445-5.662c-126.162-56.472-234.1-146.992-315.981-257.389c-0.867-1.174-1.782-2.314-2.643-3.494
		c-4.381-5.958-8.601-12.045-12.826-18.122c-2.018-2.901-4.101-5.748-6.082-8.676c-3.191-4.71-6.238-9.511-9.338-14.285
		c-2.842-4.381-5.743-8.725-8.504-13.159c-2.239-3.574-4.35-7.224-6.535-10.835c-3.471-5.754-6.97-11.497-10.313-17.331
		c-1.421-2.477-2.745-5-4.144-7.487c-3.945-7.056-7.869-14.118-11.615-21.281c-0.78-1.485-1.507-3.004-2.282-4.5
		c-4.247-8.235-8.418-16.508-12.406-24.877c-0.253-0.527-0.484-1.061-0.732-1.588
		C2018.219,3645.438,1988.95,3496.534,2002.814,3348.585z M1933.361,3422.996c0.011,3.471-0.076,6.942-0.021,10.409
		c0.204,13.644,0.731,27.267,1.582,40.862c0.484,7.573,1.136,15.113,1.814,22.66c1.114,12.477,2.47,24.926,4.112,37.332
		c1.044,7.825,2.233,15.613,3.482,23.402c1.927,12.057,4.102,24.059,6.519,36.019c1.092,5.393,2.061,10.797,3.25,16.168
		c3.407,15.41,7.363,30.69,11.572,45.896c1.437,5.184,2.858,10.361,4.386,15.518c4.597,15.544,9.603,30.959,15.006,46.234
		c1.485,4.197,3.046,8.363,4.591,12.541c5.985,16.174,12.304,32.218,19.172,48.031c0.909,2.083,1.895,4.123,2.814,6.2
		c7.283,16.443,15.012,32.682,23.225,48.679c0.533,1.038,1.028,2.094,1.566,3.132c8.784,16.954,18.171,33.581,27.967,49.959
		c0.883,1.48,1.744,2.966,2.638,4.435c10.021,16.557,20.55,32.779,31.572,48.673c0.452,0.651,0.915,1.303,1.367,1.954
		c81.376,116.748,189.13,214.557,315.739,280.178c0.307,0.161,0.614,0.328,0.926,0.49c-128.148,41.562-255.769,59.248-371.22,54.576
		c-0.075-0.215-0.172-0.42-0.253-0.63c-0.996-2.638-2.309-5.151-3.983-7.497c-0.107-0.162-0.205-0.318-0.313-0.475
		c-1.194-1.619-2.578-3.11-4.096-4.521c-0.463-0.431-0.823-0.926-1.313-1.335c-7.153-5.932-13.59-12.078-20.286-18.148
		c-3.461-3.133-7.148-6.207-10.49-9.383c-5.291-5.005-10.162-10.135-15.157-15.227c-4.903-5.016-9.844-10.016-14.473-15.107
		c-4.139-4.537-8.057-9.139-11.986-13.736c-5.124-6.033-10.13-12.094-14.893-18.213c-3.084-3.945-6.12-7.902-9.059-11.885
		c-5.576-7.6-10.883-15.259-15.942-22.977c-1.749-2.66-3.59-5.297-5.274-7.972c-164.183-260.855-42.37-583.203,15.065-705.398
		C1933.098,3423.571,1933.232,3423.265,1933.361,3422.996z M1612.24,3786.604c38.72-110.887,120.758-222.155,231.268-319.694
		c0.323-0.285,0.662-0.56,0.985-0.845c-42.617,111.748-90.03,284.833-66.063,461.396c0.188,1.421,0.415,2.842,0.619,4.257
		c1.599,11.114,3.477,22.234,5.667,33.354c0.415,2.1,0.759,4.198,1.189,6.297c2.336,11.239,5.006,22.467,7.988,33.678
		c1.227,4.656,2.621,9.295,3.967,13.94c1.921,6.588,3.967,13.16,6.13,19.731c1.862,5.689,3.703,11.379,5.754,17.052
		c2.126,5.839,4.505,11.652,6.835,17.466c4.263,10.711,8.886,21.357,13.87,31.96c1.475,3.122,2.955,6.237,4.495,9.349
		c12.428,25.249,27.067,50.084,44.011,74.395c0.28,0.398,0.543,0.797,0.823,1.195c17.982,25.663,38.651,50.664,62.236,74.853
		c0.216,0.22,0.42,0.44,0.635,0.661c-103.588-17.826-192.182-56.406-255.198-114.584c-0.889-0.823-1.776-1.652-2.659-2.486
		c-4.532-4.247-8.913-8.611-13.17-13.063c-1.83-1.928-3.601-3.893-5.382-5.862c-3.31-3.638-6.572-7.31-9.694-11.077
		c-2.74-3.32-5.35-6.732-7.944-10.15c-2.045-2.686-4.139-5.34-6.093-8.09c-4.139-5.84-8.084-11.814-11.798-17.929
		c-0.313-0.517-0.667-1.007-0.98-1.522c-4.284-7.164-8.289-14.506-11.981-22.041
		C1579.343,3980.455,1577.427,3886.308,1612.24,3786.604z M3644.051,4325.937c-79.723,80.196-185.885,124.354-298.956,124.354
		h-1415.21c-66.569,0-131.135-23.79-181.815-66.956l-154.624-131.717c-3.294-2.805-6.233-5.898-8.892-9.177
		c-17.622-21.729-21.125-52.698-7.6-77.974l12.95-24.193c5.544,7.777,11.443,15.279,17.557,22.621
		c0.452,0.544,0.883,1.098,1.34,1.637c6.448,7.664,13.225,15.07,20.275,22.262c0.038,0.037,0.075,0.08,0.118,0.118
		c101.57,103.427,264.025,157.734,451.396,157.734c160.479,0,339.065-39.7,512.592-122.071l420.086-194.033
		c0.318-0.032,0.625,0.011,0.942-0.032c47.73-6.372,187.542-4.974,289.226,11.497c1.809,0.301,3.573,0.43,5.339,0.43
		c15.932,0,29.969-11.539,32.596-27.772c1.496-9.215-1.001-18.122-6.174-25.05c-4.952-6.642-12.353-11.464-21.169-12.885
		c-46.175-7.471-100.994-12.224-152.912-14.479l1.174-0.538l224.874-103.868c148.547-70.509,277.879-166.4,376.29-275.786
		c0.15-0.167,0.307-0.339,0.463-0.506l2.723,446.696C3767.307,4139.32,3723.774,4245.762,3644.051,4325.937z M3869.162,3283.464
		c-69.799,199.922-265.371,396.334-510.052,512.484l-147.524,68.141c-0.684-0.527-1.356-1.055-2.083-1.522
		c-1.039-0.674-2.138-1.244-3.262-1.804c-1.298-0.646-2.562-1.34-3.973-1.819c-62.22-21.287-118.314-48.193-169.382-78.813
		c-0.474-0.285-0.958-0.56-1.432-0.845c-11.69-7.024-23.053-14.29-34.193-21.707c-1.594-1.061-3.192-2.115-4.775-3.182
		c-10.334-6.975-20.404-14.128-30.27-21.41c-2.207-1.637-4.393-3.278-6.577-4.925c-9.274-6.981-18.359-14.086-27.224-21.314
		c-2.557-2.094-5.061-4.214-7.584-6.324c-8.375-6.991-16.632-14.048-24.641-21.239c-2.814-2.529-5.533-5.113-8.305-7.669
		c-7.552-6.949-15.044-13.925-22.268-21.029c-3.072-3.024-6.001-6.114-9.015-9.166c-6.712-6.787-13.435-13.569-19.861-20.469
		c-3.864-4.155-7.508-8.386-11.271-12.579c-6.657-7.4-13.251-14.817-19.592-22.314c-7.471-8.854-14.839-17.74-21.885-26.702
		c-2.051-2.595-3.945-5.221-5.958-7.825c-6.437-8.354-12.815-16.719-18.897-25.125c-1.728-2.379-3.348-4.774-5.049-7.159
		c-6.232-8.763-12.357-17.541-18.219-26.325c-1.297-1.942-2.529-3.875-3.806-5.818c-6.179-9.392-12.207-18.783-17.977-28.165
		c-0.791-1.286-1.562-2.563-2.341-3.849c-6.281-10.297-12.363-20.582-18.166-30.809c-0.167-0.301-0.334-0.598-0.506-0.894
		c-88.895-157.029-122.594-302.438-131.787-349.356l271.174-128.708l1.039-0.49c-16.158,29.737-30.427,63.938-37.257,100.381
		c-10.017,53.425,3.073,133.256,51.805,203.237c6.997,10.049,14.721,19.893,23.225,29.431
		c44.351,49.711,124.03,106.269,256.996,106.269c11.411,0,23.208-0.409,35.394-1.291c272.304-19.463,493.367-209.438,531.97-337.086
		c22.471-74.313,15.899-153.434-11.292-214.465c2.954,1.271,6.017,2.434,8.924,3.758c1.948,0.888,3.854,1.818,5.785,2.734
		c7.417,3.498,14.694,7.137,21.767,10.969c2.573,1.395,5.06,2.863,7.584,4.301c6.335,3.601,12.584,7.276,18.623,11.146
		c2.955,1.9,5.786,3.907,8.671,5.877c5.398,3.671,10.77,7.374,15.904,11.282c3.229,2.454,6.281,5.054,9.397,7.6
		c4.532,3.692,9.075,7.363,13.37,11.243c3.498,3.16,6.76,6.508,10.103,9.791c3.596,3.536,7.267,7.008,10.673,10.684
		c3.973,4.295,7.644,8.816,11.346,13.306c2.434,2.933,5.001,5.77,7.315,8.789c5.194,6.787,10.043,13.827,14.64,21.04
		c0.57,0.888,1.232,1.717,1.793,2.609c5.393,8.629,10.425,17.504,14.94,26.719
		C3905.439,3075.232,3906.816,3175.645,3869.162,3283.464z"/></svg>