<svg xmlns="http://www.w3.org/2000/svg" viewBox="0 0 48 48"><g data-name="Layer 3"><rect width="12" height="12" x="25" y="23" fill="#bddeff"/><rect width="8" height="10" x="27" y="1" fill="#bddeff" rx="4"/><path fill="#bddeff" d="M41,23v4a3.992,3.992,0,0,1-3,3.87A3.657,3.657,0,0,1,37,31H25a3.657,3.657,0,0,1-1-.13A3.992,3.992,0,0,1,21,27V23a8,8,0,0,1,8-8h4A8,8,0,0,1,41,23Z"/><rect width="12" height="12" x="10.989" y="23" fill="#bddeff"/><rect width="8" height="10" x="12.989" y="1" fill="#bddeff" rx="4"/><path fill="#bddeff" d="M26.989,23v4a3.992,3.992,0,0,1-3,3.87,3.657,3.657,0,0,1-1,.13h-12a3.657,3.657,0,0,1-1-.13,3.992,3.992,0,0,1-3-3.87V23a8,8,0,0,1,8-8h4A8,8,0,0,1,26.989,23Z"/><rect width="12" height="12" x="5" y="35" fill="#7aaeed"/><rect width="8" height="10" x="7" y="13" fill="#7aaeed" rx="4"/><path fill="#7aaeed" d="M21,35v4a3.992,3.992,0,0,1-3,3.87A3.657,3.657,0,0,1,17,43H5a3.657,3.657,0,0,1-1-.13A3.992,3.992,0,0,1,1,39V35a8,8,0,0,1,8-8h4A8,8,0,0,1,21,35Z"/><path fill="#497fce" d="M5 35v8a3.657 3.657 0 0 1-1-.13V35zM18 35v7.87A3.657 3.657 0 0 1 17 43V35z"/><rect width="12" height="12" x="31" y="35" fill="#7aaeed"/><rect width="8" height="10" x="33" y="13" fill="#7aaeed" rx="4"/><path fill="#7aaeed" d="M47,35v4a3.992,3.992,0,0,1-3,3.87A3.657,3.657,0,0,1,43,43H31a3.657,3.657,0,0,1-1-.13A3.992,3.992,0,0,1,27,39V35a8,8,0,0,1,8-8h4A8,8,0,0,1,47,35Z"/><path fill="#497fce" d="M31 35v8a3.657 3.657 0 0 1-1-.13V35zM44 35v7.87A3.657 3.657 0 0 1 43 43V35z"/><rect width="12" height="10" x="18" y="37" fill="#497fce"/><rect width="8" height="10" x="20" y="15" fill="#497fce" rx="4"/><path fill="#497fce" d="M34,37v4a3.992,3.992,0,0,1-3,3.87A3.657,3.657,0,0,1,30,45H18a3.657,3.657,0,0,1-1-.13A3.992,3.992,0,0,1,14,41V37a8,8,0,0,1,8-8h4A8,8,0,0,1,34,37Z"/><path fill="#97a3be" d="M18 37v8a3.657 3.657 0 0 1-1-.13V37zM31 37v7.87A3.657 3.657 0 0 1 30 45V37z"/><path fill="#424256" d="M24 26a5.006 5.006 0 0 1-5-5V19a5 5 0 0 1 10 0v2A5.006 5.006 0 0 1 24 26zm0-10a3 3 0 0 0-3 3v2a3 3 0 0 0 6 0V19A3 3 0 0 0 24 16zM30 48a1 1 0 0 1-1-1V37a1 1 0 0 1 2 0V47A1 1 0 0 1 30 48z"/><path fill="#424256" d="M30,46a1,1,0,0,1,0-2,3,3,0,0,0,3-3V37a7.009,7.009,0,0,0-7-7H22a7.009,7.009,0,0,0-7,7v4a3,3,0,0,0,3,3,1,1,0,0,1,0,2,5.006,5.006,0,0,1-5-5V37a9.01,9.01,0,0,1,9-9h4a9.01,9.01,0,0,1,9,9v4A5.006,5.006,0,0,1,30,46Z"/><path fill="#424256" d="M18 48a1 1 0 0 1-1-1V37a1 1 0 0 1 2 0V47A1 1 0 0 1 18 48zM11 24a5.006 5.006 0 0 1-5-5V17a5 5 0 0 1 10 0v2A5.006 5.006 0 0 1 11 24zm0-10a3 3 0 0 0-3 3v2a3 3 0 0 0 6 0V17A3 3 0 0 0 11 14zM5 44a5.006 5.006 0 0 1-5-5V35a9.01 9.01 0 0 1 9-9h4a8.947 8.947 0 0 1 3.4.664 1 1 0 0 1-.755 1.852A6.959 6.959 0 0 0 13 28H9a7.009 7.009 0 0 0-7 7v4a3 3 0 0 0 3 3 1 1 0 0 1 0 2z"/><path fill="#424256" d="M5 48a1 1 0 0 1-1-1V35a1 1 0 0 1 2 0V47A1 1 0 0 1 5 48zM17 12a5.006 5.006 0 0 1-5-5V5A5 5 0 0 1 22 5V7A5.006 5.006 0 0 1 17 12zM17 2a3 3 0 0 0-3 3V7a3 3 0 0 0 6 0V5A3 3 0 0 0 17 2zM31 12a5.006 5.006 0 0 1-5-5V5A5 5 0 0 1 36 5V7A5.006 5.006 0 0 1 31 12zM31 2a3 3 0 0 0-3 3V7a3 3 0 0 0 6 0V5A3 3 0 0 0 31 2zM37 24a5.006 5.006 0 0 1-5-5V17a5 5 0 0 1 10 0v2A5.006 5.006 0 0 1 37 24zm0-10a3 3 0 0 0-3 3v2a3 3 0 0 0 6 0V17A3 3 0 0 0 37 14zM43 48a1 1 0 0 1-1-1V35a1 1 0 0 1 2 0V47A1 1 0 0 1 43 48z"/><path fill="#424256" d="M43,44a1,1,0,0,1,0-2,3,3,0,0,0,3-3V35a7.009,7.009,0,0,0-7-7H35a6.959,6.959,0,0,0-2.642.516,1,1,0,0,1-.755-1.852A8.947,8.947,0,0,1,35,26h4a9.01,9.01,0,0,1,9,9v4A5.006,5.006,0,0,1,43,44Z"/></g></svg>