<?xml version="1.0" encoding="iso-8859-1"?>
<!-- Generator: Adobe Illustrator 16.0.0, SVG Export Plug-In . SVG Version: 6.00 Build 0)  -->
<!DOCTYPE svg PUBLIC "-//W3C//DTD SVG 1.1//EN" "https://www.w3.org/Graphics/SVG/1.1/DTD/svg11.dtd">
<svg version="1.1" id="Capa_1" xmlns="http://www.w3.org/2000/svg" xmlns:xlink="https://www.w3.org/1999/xlink" x="0px" y="0px"
	 width="305.902px" height="305.902px" viewBox="0 0 305.902 305.902" style="enable-background:new 0 0 305.902 305.902;"
	 xml:space="preserve">
<g>
	<path d="M268.114,0H37.785c-7.962,0-14.426,6.461-14.426,14.427v277.059c0,7.95,6.464,14.417,14.426,14.417h230.329
		c7.975,0,14.43-6.467,14.43-14.417V14.418C282.544,6.455,276.089,0,268.114,0z M226.249,125.197
		c0,40.415-32.87,73.298-73.295,73.298c-40.424,0-73.306-32.883-73.306-73.298V66.314c0-7.963,6.461-14.424,14.423-14.424
		s14.427,6.461,14.427,14.424v58.883c0,24.512,19.936,44.456,44.456,44.456c24.512,0,44.46-19.944,44.46-44.456V66.314
		c0-7.963,6.461-14.424,14.411-14.424c7.963,0,14.424,6.461,14.424,14.424V125.197z"/>
</g>
<g>
</g>
<g>
</g>
<g>
</g>
<g>
</g>
<g>
</g>
<g>
</g>
<g>
</g>
<g>
</g>
<g>
</g>
<g>
</g>
<g>
</g>
<g>
</g>
<g>
</g>
<g>
</g>
<g>
</g>
</svg>
