<svg xmlns="http://www.w3.org/2000/svg" viewBox="0 0 48 48"><g data-name="Layer 1 copy 3"><path fill="#ffeccd" d="M31.74,8.63a15.946,15.946,0,0,1-3.42,9.74A5.876,5.876,0,0,1,24,20.73a5.913,5.913,0,0,1-4.39-2.45,15.926,15.926,0,0,1-3.35-9.65s.01.02.04.07A9.161,9.161,0,0,0,24,12.57a9.122,9.122,0,0,0,7.7-3.88A.457.457,0,0,0,31.74,8.63Z"/><path fill="#fed9b9" d="M24,14.57a9.174,9.174,0,0,0,7.544-3.654,14.8,14.8,0,0,0,.2-2.286.457.457,0,0,1-.04.06A9.122,9.122,0,0,1,24,12.57,9.161,9.161,0,0,1,16.3,8.7c-.03-.05-.04-.07-.04-.07a14.846,14.846,0,0,0,.195,2.291A9.2,9.2,0,0,0,24,14.57Z"/><polygon fill="#ffeccd" points="12.28 44.42 12.28 47.25 6.05 47.25 6.44 43.77 12.28 44.42"/><path fill="#05518d" d="M42.71,43.64l-1.14.13h-.01l-5.84.65v2.83H12.28V44.42l-5.84-.65-1.15-.13L6.51,30.5a3.327,3.327,0,0,1,1.78-2.64l9.48-4.95-1.06,6.88,3.31-1.12-.37,1.84L24,32.88l4.35-2.37-.36-1.84,3.3,1.12-1.06-6.88,9.48,4.95a3.327,3.327,0,0,1,1.78,2.64Z"/><polygon fill="#ffeccd" points="41.95 47.25 35.72 47.25 35.72 44.42 41.56 43.77 41.57 43.77 41.95 47.25"/><path fill="#00a1d9" d="M31.7,8.69A9.122,9.122,0,0,1,24,12.57,9.161,9.161,0,0,1,16.3,8.7a47.269,47.269,0,0,0,7.72.54A45.314,45.314,0,0,0,31.7,8.69Z"/><path fill="#05518d" d="M33.41,4.97a5.777,5.777,0,0,1-.75,2.37,5.565,5.565,0,0,1-.92,1.29.457.457,0,0,1-.04.06,45.314,45.314,0,0,1-7.68.55A47.269,47.269,0,0,1,16.3,8.7c-.03-.05-.04-.07-.04-.07a5.969,5.969,0,0,1-1.67-3.66c0-1.08.9-2.06,2.38-2.8A16.173,16.173,0,0,1,24,.75C29.2.75,33.41,2.64,33.41,4.97Z"/><path fill="#055ea2" d="M33.41,4.97a5.777,5.777,0,0,1-.75,2.37,52.393,52.393,0,0,1-6.71.39,52.278,52.278,0,0,1-5.569-.32,4.278,4.278,0,0,1-3.839-3.622,2.615,2.615,0,0,1-.022-.328,2.22,2.22,0,0,1,.45-1.29A16.173,16.173,0,0,1,24,.75C29.2.75,33.41,2.64,33.41,4.97Z"/><polygon fill="#ffb963" points="24.024 2.279 24.685 3.779 26.315 3.601 25.347 4.924 26.315 6.246 24.685 6.069 24.024 7.569 23.363 6.069 21.734 6.246 22.702 4.924 21.734 3.601 23.363 3.779 24.024 2.279"/><polygon fill="#00a1d9" points="15.996 38.086 20.424 38.086 20.424 40.066 18.172 41.083 15.996 40.066 15.996 38.086"/><polygon fill="#00a1d9" points="27.634 38.086 32.062 38.086 32.062 40.066 29.81 41.083 27.634 40.066 27.634 38.086"/><path fill="#fed9b9" d="M28.33,21.27l-.7,1.88a.077.077,0,0,1-.01.03l-.02.03c-.01.01-.01.03-.02.05-.26.5-1.42,2.51-3.58,2.51a4.254,4.254,0,0,1-3.57-2.48h-.01c.01-.01,0-.01,0-.01l-.01-.03-.76-2.04-.04.04V18.28A5.913,5.913,0,0,0,24,20.73a5.876,5.876,0,0,0,4.32-2.36Z"/><path fill="#ffd1ac" d="M24,22.9a5.876,5.876,0,0,0,4.32-2.36l0,.748.007-.02-.01-2.9A5.876,5.876,0,0,1,24,20.73a5.913,5.913,0,0,1-4.39-2.45v2.172A5.913,5.913,0,0,0,24,22.9Z"/><polygon fill="#00a1d9" points="19.65 30.51 20.02 28.67 16.71 29.79 17.77 22.91 19.61 21.25 19.65 21.21 20.28 22.91 20.41 23.25 20.42 23.28 20.42 23.29 20.43 23.29 21.68 26.65 24 32.88 19.65 30.51"/><path fill="#00a1d9" d="M27.99,28.67l.36,1.84L24,32.88l2.32-6.23,1.26-3.39c.01-.02.01-.04.02-.05l.02-.02v-.01a.077.077,0,0,0,.01-.03l.09-.24.61-1.64.02-.06,1.88,1.7,1.06,6.88Z"/><path fill="#b6e0ec" d="M27.62,23.19l-1.3,3.46L24,32.88l-2.32-6.23-1.25-3.36A4.254,4.254,0,0,0,24,25.77c2.16,0,3.32-2.01,3.58-2.51.01-.02.01-.04.02-.05Z"/></g><g data-name="Layer 1 copy"><path fill="#191919" d="M12.281 36.017a.75.75 0 0 0-.75.75V47.25a.75.75 0 0 0 1.5 0V36.767A.75.75 0 0 0 12.281 36.017zM21.084 6.622a.742.742 0 0 0 .73.37L22.9 6.875l.44 1a.751.751 0 0 0 1.373 0l.439-1 1.083.117A.75.75 0 0 0 26.92 5.8l-.644-.88.644-.88a.75.75 0 0 0 .044-.817.741.741 0 0 0-.731-.371l-1.083.118-.439-1a.782.782 0 0 0-1.373 0l-.44 1-1.084-.118a.734.734 0 0 0-.73.371.752.752 0 0 0 .044.818l.644.879-.644.879A.754.754 0 0 0 21.084 6.622zM23.34 4.528a.7.7 0 0 0 .684-.395.715.715 0 0 0 .685.395.753.753 0 0 0 0 .792.706.706 0 0 0-.686.395.749.749 0 0 0-.661-.4h-.024A.753.753 0 0 0 23.34 4.528z"/><path fill="#191919" d="M10.038 43.417L6.1 42.976l1.156-12.4a2.572 2.572 0 0 1 1.374-2.048l7.441-3.858a.75.75 0 1 0-.691-1.332L7.939 27.193a4.068 4.068 0 0 0-2.175 3.24L4.54 43.569a.712.712 0 0 0 .018.167.689.689 0 0 0 .013.121A.738.738 0 0 0 4.646 44a.887.887 0 0 0 .06.109.759.759 0 0 0 .114.1.813.813 0 0 0 .107.087.674.674 0 0 0 .138.044.719.719 0 0 0 .138.045l.407.045L5.3 47.166A.749.749 0 0 0 5.964 48 .606.606 0 0 0 6.049 48a.749.749 0 0 0 .744-.667L7.1 44.6l2.769.31a.606.606 0 0 0 .085.005.75.75 0 0 0 .083-1.495zM35.719 36.017a.75.75 0 0 0-.75.75V47.25a.75.75 0 0 0 1.5 0V36.767A.75.75 0 0 0 35.719 36.017z"/><path fill="#191919" d="M43.354 44a.738.738 0 0 0 .075-.145.689.689 0 0 0 .013-.121.712.712 0 0 0 .018-.167L42.236 30.432a4.07 4.07 0 0 0-2.176-3.24l-7.442-3.858a.75.75 0 1 0-.691 1.332l7.44 3.857a2.573 2.573 0 0 1 1.375 2.048l1.156 12.4-3.936.441a.75.75 0 0 0 .083 1.495.606.606 0 0 0 .085-.005L40.9 44.6l.308 2.736a.749.749 0 0 0 .744.667A.606.606 0 0 0 42.036 48a.749.749 0 0 0 .661-.829l-.307-2.737.407-.045a.719.719 0 0 0 .138-.045.674.674 0 0 0 .138-.044.813.813 0 0 0 .107-.087.759.759 0 0 0 .114-.1A.887.887 0 0 0 43.354 44zM20.425 37.336H16a.75.75 0 0 0-.75.75v1.98a.751.751 0 0 0 .433.68l2.175 1.017a.751.751 0 0 0 .318.07.733.733 0 0 0 .308-.066l2.253-1.017a.75.75 0 0 0 .442-.684v-1.98A.75.75 0 0 0 20.425 37.336zm-.75 2.246l-1.5.676-1.432-.669v-.753h2.929zM32.062 37.336H27.634a.75.75 0 0 0-.75.75v1.98a.752.752 0 0 0 .432.68l2.176 1.017a.751.751 0 0 0 .318.07.733.733 0 0 0 .308-.066l2.253-1.017a.749.749 0 0 0 .441-.684v-1.98A.75.75 0 0 0 32.062 37.336zm-.75 2.246l-1.5.676-1.431-.669v-.753h2.928z"/><path fill="#191919" d="M28.706,31.173a.752.752,0,0,0,.378-.8l-.113-.577,2.081.708a.75.75,0,0,0,.982-.824L30.977,22.8a.872.872,0,0,0-.036-.1.769.769,0,0,0-.05-.139.711.711,0,0,0-.1-.131.571.571,0,0,0-.056-.076L29.1,20.874V18.6a16.642,16.642,0,0,0,3.384-9.682,7.1,7.1,0,0,0,1.679-3.95C34.161,2.136,29.793,0,24,0S13.839,2.136,13.839,4.968a6.727,6.727,0,0,0,1.678,3.958A16.64,16.64,0,0,0,18.9,18.6v2.273l-1.638,1.479a.56.56,0,0,0-.059.079.524.524,0,0,0-.145.267.789.789,0,0,0-.036.1l-1.057,6.881a.75.75,0,0,0,.982.824l2.08-.708-.113.577a.75.75,0,0,0,.378.8l3.956,2.155V47.25a.75.75,0,0,0,1.5,0V33.328ZM24,13.319a10.046,10.046,0,0,0,6.8-2.486c-.735,4.541-3.567,9.15-6.8,9.15s-6.067-4.61-6.8-9.15A10.049,10.049,0,0,0,24,13.319ZM18.163,9.686a50.152,50.152,0,0,0,5.861.307,49.56,49.56,0,0,0,5.809-.3A8.575,8.575,0,0,1,24,11.819,8.578,8.578,0,0,1,18.163,9.686ZM24,21.483A5.8,5.8,0,0,0,27.6,20.1v.967l-.7,1.879A3.586,3.586,0,0,1,24,25.024a3.519,3.519,0,0,1-2.9-2.079l-.7-1.876V20.1A5.8,5.8,0,0,0,24,21.483Zm0,5.041a4.059,4.059,0,0,0,1.707-.375L24,30.732,22.3,26.16A4.125,4.125,0,0,0,24,26.524Zm4.228,1.432a.75.75,0,0,0-.978.854l.256,1.309-2.1,1.145,2.87-7.712c.023-.047.041-.084.045-.095a.515.515,0,0,0,.015-.068l.33-.886.871.785.829,5.4ZM24,1.5c5.1,0,8.661,1.828,8.661,3.468a5.773,5.773,0,0,1-1.31,2.968,38.172,38.172,0,0,1-7.327.557,38.926,38.926,0,0,1-7.384-.559,5.307,5.307,0,0,1-1.3-2.966C15.339,3.328,18.9,1.5,24,1.5ZM20.508,28.1a.754.754,0,0,0-.735-.145l-2.135.727.829-5.395.87-.784,3.261,8.76-2.1-1.145.256-1.309A.75.75,0,0,0,20.508,28.1Z"/></g></svg>