<?xml version="1.0" standalone="no"?>
<!DOCTYPE svg PUBLIC "-//W3C//DTD SVG 20010904//EN"
 "https://www.w3.org/TR/2001/REC-SVG-20010904/DTD/svg10.dtd">
<svg version="1.0" xmlns="http://www.w3.org/2000/svg"
 width="434.448721pt" height="454.833134pt" viewBox="0 0 434.448721 454.833134"
 preserveAspectRatio="xMidYMid meet">
<metadata>
Created by potrace 1.12, written by Peter Selinger 2001-2015
</metadata>
<g transform="translate(-161.551279,584.885841) scale(0.100000,-0.100000)"
stroke="none">
<path d="M2561 5835 c-149 -33 -321 -104 -534 -222 -151 -84 -163 -98 -133
-159 30 -64 51 -64 162 -1 337 190 595 270 773 237 156 -28 247 -104 396 -330
59 -89 125 -177 156 -206 105 -98 201 -108 339 -34 408 220 609 257 825 151
218 -107 423 -362 759 -944 72 -124 91 -140 138 -117 35 19 58 41 58 57 0 16
-145 269 -272 476 -215 350 -426 580 -616 668 -246 115 -483 88 -852 -99 -91
-46 -176 -84 -190 -84 -58 -2 -103 38 -177 157 -166 264 -319 400 -510 449
-75 20 -233 20 -322 1z"/>
<path d="M2250 5052 c-39 -13 -70 -44 -70 -70 0 -33 100 -195 194 -316 37 -47
120 -135 184 -196 91 -86 136 -120 202 -155 168 -86 339 -112 531 -81 110 19
322 85 432 135 282 129 486 210 611 243 147 38 314 23 430 -40 78 -42 202
-172 270 -285 56 -91 62 -97 92 -97 37 0 94 42 94 69 0 45 -140 249 -238 346
-79 79 -151 125 -250 163 -59 23 -82 26 -192 26 -172 0 -279 -29 -565 -155
-314 -138 -374 -162 -458 -189 -307 -100 -550 -81 -760 60 -163 109 -277 240
-443 507 -17 27 -44 42 -64 35z"/>
<path d="M5580 4049 c-38 -15 -60 -40 -60 -68 0 -26 301 -559 324 -573 36 -24
116 15 116 55 0 29 -310 566 -336 583 -13 8 -27 9 -44 3z"/>
<path d="M5279 4007 c-22 -14 -35 -32 -37 -49 -5 -39 421 -776 453 -784 23 -6
84 19 97 40 4 6 8 21 8 33 0 22 -398 722 -433 761 -26 28 -45 28 -88 -1z"/>
<path d="M4989 3911 c-13 -10 -222 -161 -464 -336 -242 -175 -611 -442 -820
-594 -384 -278 -769 -555 -1602 -1157 -255 -185 -463 -342 -470 -355 -31 -64
-21 -115 28 -150 61 -43 34 -54 1199 471 47 21 153 68 235 105 174 78 381 171
580 260 494 222 1437 644 1575 705 47 21 117 52 155 70 39 18 89 41 112 51 43
18 63 43 63 78 0 26 -463 830 -491 854 -27 22 -70 22 -100 -2z"/>
</g>
</svg>
