<svg xmlns="http://www.w3.org/2000/svg" enable-background="new 0 0 64 64" viewBox="0 0 64 64"><path fill="#263238" d="M51.497,56.368c-0.365,0-0.731-0.134-1.021-0.403L13.722,21.853c-0.603-0.56-0.943-1.321-0.958-2.143
			c-0.015-0.822,0.297-1.596,0.878-2.177l1.751-1.751c0.581-0.582,1.352-0.911,2.177-0.878c0.822,0.015,1.583,0.355,2.144,0.958
			l34.113,36.754c0.55,0.594,0.534,1.508-0.039,2.082l-1.231,1.23C52.263,56.221,51.88,56.368,51.497,56.368z M17.513,15.902
			c-0.534,0-1.034,0.207-1.413,0.586l-1.751,1.751c-0.388,0.388-0.596,0.903-0.585,1.452s0.237,1.056,0.639,1.428l36.754,34.113
			c0,0,0,0,0,0c0.197,0.183,0.502,0.178,0.693-0.013l1.23-1.23c0.191-0.191,0.196-0.496,0.013-0.694L18.98,16.542
			c-0.373-0.402-0.88-0.629-1.429-0.64C17.539,15.902,17.526,15.902,17.513,15.902z"/><path fill="#263238" d="M14.871,17.51c-0.038,0-0.075-0.004-0.112-0.013l-4.596-1.061c-0.177-0.041-0.318-0.175-0.368-0.35
			c-0.05-0.175-0.001-0.363,0.127-0.491l3.536-3.536c0.128-0.129,0.316-0.178,0.491-0.127c0.175,0.05,0.309,0.191,0.35,0.368
			l1.061,4.596c0.039,0.168-0.012,0.344-0.134,0.466C15.129,17.458,15.001,17.51,14.871,17.51z M11.266,15.666l2.938,0.678
			l-0.678-2.938L11.266,15.666z"/><path fill="#ffd740" d="M53.46,52.956L42.202,40.826l-3.515,3.515l12.129,11.258c0.394,0.366,1.007,0.354,1.387-0.026l1.23-1.23
			C53.814,53.963,53.826,53.35,53.46,52.956z"/><path fill="#263238" d="M51.497,56.368c-0.365,0-0.731-0.134-1.021-0.403L38.347,44.708c-0.1-0.093-0.157-0.222-0.16-0.357
			s0.05-0.267,0.146-0.363l3.515-3.515c0.096-0.096,0.229-0.155,0.363-0.146c0.136,0.002,0.265,0.06,0.357,0.16l11.258,12.129
			c0,0,0,0,0,0c0.55,0.594,0.534,1.508-0.039,2.081l-1.231,1.23C52.263,56.221,51.88,56.368,51.497,56.368z M39.408,44.328
			l11.749,10.904c0.197,0.184,0.502,0.178,0.693-0.013l1.23-1.23c0.19-0.191,0.196-0.496,0.013-0.694L42.189,41.547L39.408,44.328z"/><path fill="#ff5252" d="M38.892 34.32l14.676-14.676c.391-.391.391-1.024 0-1.414l-5.657-5.657c-.391-.391-1.024-.391-1.414 0L32.084 26.986 38.892 34.32zM24.846 34.224l-8.755 8.755c-.391.391-.391 1.024 0 1.414l5.657 5.657c.391.391 1.024.391 1.414 0l9.019-9.019L24.846 34.224z"/><path fill="#263238" d="M15.384 56.5c-.401 0-.778-.156-1.061-.439l-4.242-4.243c-.283-.283-.439-.66-.439-1.061 0-.401.156-.778.439-1.061l4.243-4.242c.195-.195.512-.195.707 0s.195.512 0 .707l-4.243 4.243c-.095.095-.146.22-.146.354 0 .133.052.259.146.354l4.243 4.243c.189.189.518.189.707 0l4.243-4.243c.195-.195.512-.195.707 0s.195.512 0 .707l-4.243 4.243C16.161 56.344 15.784 56.5 15.384 56.5zM52.153 21.559c-.128 0-.256-.049-.354-.146l-7.071-7.071c-.195-.195-.195-.512 0-.707s.512-.195.707 0l7.071 7.071c.195.195.195.512 0 .707C52.409 21.51 52.281 21.559 52.153 21.559z"/><path fill="#263238" d="M38.892 34.82c-.128 0-.256-.049-.354-.146-.195-.195-.195-.512 0-.707l14.676-14.676c.094-.095.146-.22.146-.354 0-.134-.052-.259-.146-.353l-5.657-5.658c-.195-.195-.512-.194-.708 0L32.438 27.339c-.195.195-.512.195-.707 0s-.195-.512 0-.707L46.143 12.22c.584-.583 1.536-.585 2.122 0l5.657 5.658c.283.283.439.66.439 1.061 0 .4-.156.777-.439 1.061L39.245 34.674C39.147 34.771 39.02 34.82 38.892 34.82zM22.455 50.842c-.384 0-.768-.146-1.061-.438l-5.657-5.658c-.585-.585-.585-1.536 0-2.121l8.755-8.755c.195-.195.512-.195.707 0s.195.512 0 .707l-8.755 8.755c-.195.195-.195.512 0 .707l5.657 5.657c.195.194.512.194.707 0l9.019-9.019c.195-.195.512-.195.707 0s.195.512 0 .707l-9.019 9.019C23.223 50.696 22.839 50.842 22.455 50.842zM7 34.64H5c-.276 0-.5-.224-.5-.5s.224-.5.5-.5h2c.276 0 .5.224.5.5S7.277 34.64 7 34.64zM17 34.64H9c-.276 0-.5-.224-.5-.5s.224-.5.5-.5h8c.276 0 .5.224.5.5S17.277 34.64 17 34.64zM59 34.64h-2c-.276 0-.5-.224-.5-.5s.224-.5.5-.5h2c.276 0 .5.224.5.5S59.277 34.64 59 34.64zM55 34.64h-8c-.276 0-.5-.224-.5-.5s.224-.5.5-.5h8c.276 0 .5.224.5.5S55.277 34.64 55 34.64zM34 15.5h-4c-.276 0-.5-.224-.5-.5s.224-.5.5-.5h4c.276 0 .5.224.5.5S34.277 15.5 34 15.5zM39 10.5h-4c-.276 0-.5-.224-.5-.5s.224-.5.5-.5h4c.276 0 .5.224.5.5S39.277 10.5 39 10.5z"/><path fill="#263238" d="M37 12.5c-.276 0-.5-.224-.5-.5V8c0-.276.224-.5.5-.5s.5.224.5.5v4C37.5 12.276 37.277 12.5 37 12.5zM32 17.5c-.276 0-.5-.224-.5-.5v-4c0-.276.224-.5.5-.5s.5.224.5.5v4C32.5 17.276 32.277 17.5 32 17.5z"/></svg>