<svg xmlns="http://www.w3.org/2000/svg" enable-background="new 0 0 500 500" viewBox="0 0 500 500"><path fill="#ecf4f7" d="M75.133,425.49c0,10.388,8.421,18.809,18.809,18.809h312.117c10.388,0,18.809-8.421,18.809-18.809V112.149
			H75.133V425.49z"/><path fill="#83e1e5" d="M368.192,359.667H131.808c-3.682,0-6.667-2.985-6.667-6.667v-15.333c0-3.682,2.985-6.667,6.667-6.667h236.384
			c3.682,0,6.667,2.985,6.667,6.667V353C374.859,356.682,371.874,359.667,368.192,359.667z"/><path fill="#fddf7f" d="M329.983,331H170.017c-3.076,0-5.57-2.494-5.57-5.57V158.959c0-3.076,2.494-5.57,5.57-5.57h159.966
			c3.076,0,5.57,2.494,5.57,5.57V325.43C335.553,328.506,333.059,331,329.983,331z"/><path fill="#ecf4f7" d="M275.564,263.933h-1.559c9.436-7.225,15.527-18.599,15.527-31.401C289.532,210.699,271.833,193,250,193
			c-21.833,0-39.532,17.699-39.532,39.532c0,12.802,6.091,24.177,15.527,31.401h-1.559c-19.142,0-34.66,15.518-34.66,34.659V331
			h120.447v-32.407C310.223,279.451,294.706,263.933,275.564,263.933z"/><path fill="#aab1ba" d="M406.058,444.299H93.942c-10.388,0-18.809-8.421-18.809-18.809v50.701c0,10.388,8.421,18.809,18.809,18.809
			h312.117c10.388,0,18.809-8.421,18.809-18.809V425.49C424.867,435.878,416.446,444.299,406.058,444.299z"/><path fill="#83e1e5" d="M424.867,112.149V67.614c0-10.388-8.421-18.809-18.809-18.809H93.942c-10.388,0-18.809,8.421-18.809,18.809
			v44.534H424.867z"/><path fill="#1c1d21" d="M194.195,14.449c0-2.761,2.238-5,5-5h4.449V5c0-2.761,2.238-5,5-5s5,2.239,5,5v4.449h4.448c2.762,0,5,2.239,5,5
	s-2.238,5-5,5h-4.448v4.449c0,2.761-2.238,5-5,5s-5-2.239-5-5v-4.449h-4.449C196.434,19.449,194.195,17.21,194.195,14.449z
	 M51.424,96.083h-4.449v-4.449c0-2.761-2.238-5-5-5s-5,2.239-5,5v4.449h-4.448c-2.762,0-5,2.239-5,5s2.238,5,5,5h4.448v4.449
	c0,2.761,2.238,5,5,5s5-2.239,5-5v-4.449h4.449c2.762,0,5-2.239,5-5S54.186,96.083,51.424,96.083z M467.474,138.887h-4.448v-4.449
	c0-2.761-2.238-5-5-5s-5,2.239-5,5v4.449h-4.449c-2.762,0-5,2.239-5,5s2.238,5,5,5h4.449v4.449c0,2.761,2.238,5,5,5s5-2.239,5-5
	v-4.449h4.448c2.762,0,5-2.239,5-5S470.235,138.887,467.474,138.887z M429.867,67.614V425.49v50.701
	c0,13.128-10.681,23.809-23.809,23.809H93.941c-13.128,0-23.809-10.681-23.809-23.809V425.49V67.614
	c0-13.128,10.681-23.809,23.809-23.809h312.117C419.187,43.805,429.867,54.486,429.867,67.614z M80.133,425.49
	c0,7.614,6.194,13.809,13.809,13.809h312.117c7.614,0,13.809-6.195,13.809-13.809V117.148H80.133V425.49z M80.133,67.614v39.534
	h339.734V67.614c0-7.614-6.194-13.809-13.809-13.809H93.941C86.327,53.805,80.133,60,80.133,67.614z M419.867,476.191v-1.398h-271.8
	c-2.762,0-5-2.239-5-5s2.238-5,5-5h271.8v-19.917c-0.051,0.036-0.106,0.068-0.157,0.104c-0.435,0.306-0.878,0.602-1.333,0.879
	c-0.018,0.011-0.037,0.021-0.055,0.032c-0.441,0.266-0.895,0.515-1.354,0.753c-0.107,0.056-0.214,0.111-0.322,0.165
	c-0.471,0.235-0.95,0.457-1.438,0.661c-0.077,0.032-0.155,0.06-0.232,0.092c-0.443,0.18-0.892,0.345-1.348,0.498
	c-0.102,0.034-0.203,0.071-0.306,0.104c-0.506,0.162-1.019,0.308-1.539,0.437c-0.11,0.027-0.22,0.051-0.33,0.076
	c-0.478,0.111-0.961,0.209-1.45,0.291c-0.075,0.013-0.149,0.028-0.225,0.04c-0.539,0.085-1.084,0.148-1.634,0.196
	c-0.127,0.011-0.255,0.02-0.383,0.029c-0.563,0.04-1.129,0.068-1.702,0.068H93.941c-0.573,0-1.139-0.028-1.702-0.068
	c-0.128-0.009-0.256-0.018-0.383-0.029c-0.55-0.048-1.095-0.111-1.634-0.196c-0.076-0.012-0.15-0.028-0.225-0.04
	c-0.489-0.082-0.971-0.18-1.45-0.291c-0.11-0.026-0.22-0.049-0.33-0.076c-0.52-0.129-1.033-0.274-1.539-0.437
	c-0.103-0.033-0.203-0.069-0.306-0.104c-0.456-0.153-0.905-0.319-1.348-0.498c-0.077-0.031-0.155-0.06-0.232-0.092
	c-0.488-0.204-0.967-0.426-1.438-0.661c-0.108-0.054-0.215-0.11-0.322-0.165c-0.46-0.238-0.913-0.486-1.354-0.753
	c-0.018-0.011-0.037-0.021-0.055-0.032c-0.456-0.277-0.898-0.573-1.333-0.879c-0.051-0.036-0.106-0.067-0.157-0.104v19.917h23.325
	c2.762,0,5,2.239,5,5s-2.238,5-5,5H80.133v1.398c0,7.614,6.194,13.809,13.809,13.809h312.117
	C413.673,490,419.867,483.805,419.867,476.191z M96.665,80.477c0-8.909,7.248-16.157,16.157-16.157
	c8.908,0,16.156,7.248,16.156,16.157s-7.248,16.156-16.156,16.156C103.913,96.633,96.665,89.386,96.665,80.477z M106.665,80.477
	c0,3.395,2.762,6.156,6.157,6.156c3.395,0,6.156-2.762,6.156-6.156c0-3.395-2.762-6.157-6.156-6.157
	C109.427,74.32,106.665,77.082,106.665,80.477z M140.778,80.477c0-8.909,7.248-16.157,16.156-16.157s16.156,7.248,16.156,16.157
	s-7.248,16.156-16.156,16.156S140.778,89.386,140.778,80.477z M150.778,80.477c0,3.395,2.762,6.156,6.156,6.156
	s6.156-2.762,6.156-6.156c0-3.395-2.762-6.157-6.156-6.157S150.778,77.082,150.778,80.477z M184.891,80.477
	c0-8.909,7.248-16.157,16.157-16.157c8.908,0,16.156,7.248,16.156,16.157s-7.248,16.156-16.156,16.156
	C192.139,96.633,184.891,89.386,184.891,80.477z M194.891,80.477c0,3.395,2.762,6.156,6.157,6.156c3.395,0,6.156-2.762,6.156-6.156
	c0-3.395-2.762-6.157-6.156-6.157C197.652,74.32,194.891,77.082,194.891,80.477z M260.014,85.477h129.033c2.762,0,5-2.239,5-5
	s-2.238-5-5-5H260.014c-2.762,0-5,2.239-5,5S257.252,85.477,260.014,85.477z M239.254,85.477h5.129c2.762,0,5-2.239,5-5
	s-2.238-5-5-5h-5.129c-2.762,0-5,2.239-5,5S236.492,85.477,239.254,85.477z M127.496,464.792h-5.547c-2.762,0-5,2.239-5,5
	s2.238,5,5,5h5.547c2.762,0,5-2.239,5-5S130.258,464.792,127.496,464.792z M305.224,314.975v-16.382
	c0-16.341-13.285-29.637-29.621-29.659c-7.248,5.113-16.077,8.129-25.602,8.129s-18.354-3.016-25.603-8.129
	c-16.337,0.021-29.621,13.317-29.621,29.659v16.382c0,2.761-2.238,5-5,5s-5-2.239-5-5v-16.382c0-18.631,12.917-34.294,30.264-38.526
	c-5.986-7.584-9.573-17.146-9.573-27.535C205.468,207.977,225.445,188,250,188s44.531,19.977,44.531,44.532
	c0,10.389-3.586,19.951-9.573,27.535c17.347,4.231,30.265,19.894,30.265,38.526v16.382c0,2.761-2.238,5-5,5
	S305.224,317.736,305.224,314.975z M250,267.063c19.041,0,34.531-15.491,34.531-34.532S269.041,198,250,198
	s-34.532,15.491-34.532,34.532S230.959,267.063,250,267.063z M213.31,298.951v16.024c0,2.761,2.238,5,5,5s5-2.239,5-5v-16.024
	c0-2.761-2.238-5-5-5S213.31,296.189,213.31,298.951z M276.69,298.951v16.024c0,2.761,2.238,5,5,5s5-2.239,5-5v-16.024
	c0-2.761-2.238-5-5-5S276.69,296.189,276.69,298.951z M164.447,319.333c2.762,0,5-2.239,5-5V158.959c0-0.314,0.256-0.57,0.569-0.57
	h159.967c0.313,0,0.569,0.256,0.569,0.57v155.375c0,2.761,2.238,5,5,5s5-2.239,5-5V158.959c0-5.828-4.741-10.57-10.569-10.57
	H170.017c-5.828,0-10.569,4.742-10.569,10.57v155.375C159.447,317.095,161.686,319.333,164.447,319.333z M120.142,353v-15.333
	c0-6.433,5.233-11.667,11.666-11.667h236.385c6.433,0,11.666,5.233,11.666,11.667V353c0,6.433-5.233,11.667-11.666,11.667H131.808
	C125.375,364.667,120.142,359.433,120.142,353z M130.142,353c0,0.919,0.747,1.667,1.666,1.667h236.385
	c0.919,0,1.666-0.748,1.666-1.667v-15.333c0-0.919-0.747-1.667-1.666-1.667H131.808c-0.919,0-1.666,0.748-1.666,1.667V353z
	 M125.142,390h249.717c2.762,0,5-2.239,5-5s-2.238-5-5-5H125.142c-2.762,0-5,2.239-5,5S122.38,390,125.142,390z M125.142,415.333
	h249.717c2.762,0,5-2.239,5-5s-2.238-5-5-5H125.142c-2.762,0-5,2.239-5,5S122.38,415.333,125.142,415.333z"/></svg>