<svg xmlns="http://www.w3.org/2000/svg" enable-background="new 0 0 51 51" viewBox="0 0 51 51"><circle cx="25.5" cy="25.5" r="24" fill="#944AB3"/><path fill="#81349B" d="M22.70324 37.70484c.60999.52002 1.37.91016 2.20001 1.11011-1.70001.23999-3.67999-.34009-5.09998-1.81006-.69-.71997-1.22003-1.59985-1.62006-2.54004-.19995-.45996-.31995-.92993-.47998-1.40991l-.03998-.19995c-.04004-.15015-.16998-.26001-.33002-.26001h-1.52997c-.30005 0-.45001-.37012-.23004-.58008l3.5-3.5c.13-.12988.35004-.12988.48004 0l3.5 3.5c.20996.20996.06.58008-.24005.58008h-1.45996c-.17004 0-.32001.12988-.33002.31006-.02997.27979-.04999.67993-.04999.88989.01001.71997.13 1.43994.39996 2.11011C21.64324 36.56495 22.09325 37.19483 22.70324 37.70484zM24.90325 24.12501v1.45996c0 .55981-.47998 1-1.09003 1H13.59325c-.60999 0-1.09003-.44019-1.09003-1v-1.44995c0-.57007 1.05005-1.39014 2.26001-2.01001.04999-.01001.06-.03003.10004-.05005.22998-.1001.45996-.19995.69-.29004.37994-.12988.76996-.20996 1.16998-.26001.03998-.01001.09998-.03003.14001-.03003.19-.02002.38995-.04004.57996-.05005v-.72998c-.03998-.02002-.07996-.05005-.12-.07983-.40997-.32007-.70001-.77002-.82996-1.30005l-.14001-.62012c-.03003.02002-.07001.03003-.13.01001-.26001-.06982-.52002-.59985-.64001-.87988-.09998-.22998-.01001-.4502.23999-.47998-.39996-1.25-.32001-2.47998.84003-3.39014-.34003-.70996-.40002-1.02002-.26001-1.46997.85999.40991 1.81.33008 2.71997.47998 1.5.23999 1.45001.78003 1.72003.84009.65002.15991.85999.65991.92999 1.22998.09003.79004 0 1.56006-.20001 2.31006.27002.01001.35999.23999.26001.47998-.10999.28003-.35999.78003-.62.87988l-.15002.61011c-.14996.63989-.56 1.16992-1.09998 1.48999v.61987c.19.01001.38.03003.57001.05005.03998 0 .09998.02002.14001.02002.39996.06006.77997.14014 1.17999.27002.13.06006.26001.1001.39001.14014.09998.05981.19995.09985.29999.1499.01996.02002.04999.04004.07996.05005C23.85326 22.74488 24.90325 23.55494 24.90325 24.12501zM40.50322 37.75489v1.70996c0 .58008-.50995 1.04004-1.13995 1.04004H28.79326c-.63 0-1.13-.45996-1.13-1.04004V37.7649c0-.58984 1.08997-1.43994 2.33997-2.08008.05005-.00977.06-.02979.11005-.05981.22998-.1001.46997-.19995.70996-.29004.39001-.14014.79004-.21997 1.21002-.27002.03998-.01001.09998-.03003.14001-.03003.19995-.03003.40997-.04004.59998-.06006v-.13989h.01001v-.64014c-.01001 0-.01001 0-.02002-.01001-.39001-.30981-.66998-.73999-.78998-1.23999l-.14001-.58984c-.02997.01001-.06.02002-.12 0-.25-.06006-.5-.57007-.60999-.83008s.01001-.5.33997-.46997c-.40997-1.55005-.48999-3.09009.39001-4.64014.09998.13013.17999.22021.27002.32007.07996-.09985.15997-.18994.25-.28003.07996.09009.14996.18018.25.30005.07996-.11987.14996-.20996.22998-.32983.09998.11987.16998.20996.25.30981.09003-.09985.16998-.18994.26001-.29004.08002.1001.15002.19019.23999.29004.08002-.09985.16003-.17993.25-.28003.08002.09009.16003.18018.23999.28003.09003-.09009.16003-.17993.25-.28003.08002.09009.16003.18018.25.28003.08002-.09985.16003-.17993.25-.28003.08002.09009.15002.18018.23999.28003.08002-.09009.15002-.16992.25-.28003.07001.09009.15002.18018.24005.28003.08997-.09985.16998-.18994.25995-.28003.07001.09009.15002.18018.23004.28003.08997-.09009.15997-.16992.28998-.32007.16003.34009.33002.65015.44.97998.32001.97021.29999 1.97021.13 2.96021-.03998.21997-.09003.42993-.14001.6499.01001.01001.01001.03003.02002.04004.28998 0 .39001.22998.28998.47998-.10999.26001-.34998.73999-.59998.83008l-.14001.58984c-.14001.57007-.47998 1.05005-.95001 1.34009v.68994c.20001.02002.39001.03003.59003.06006.03998 0 .09998.02002.14001.02002.41998.06006.81995.13989 1.22998.28003.13.05981.26001.09985.40002.13989.09998.06006.19995.11011.31.15015.02997.03003.06.05005.08997.05981C39.40325 36.32496 40.50322 37.1648 40.50322 37.75489z"/><path fill="#33ACFE" d="M23.90653,23.12369v1.46408c0,0.55635-0.48489,0.99816-1.09808,0.99816H12.59799
					c-0.61318,0-1.09799-0.44181-1.09799-0.99816v-1.4498c0-0.57062,1.05525-1.39749,2.26735-2.01093
					c0.04282-0.01427,0.0571-0.02855,0.09983-0.0571c0.22822-0.09957,0.45634-0.19949,0.68456-0.28514
					c0.38497-0.12812,0.77003-0.21377,1.16927-0.25659c0.04282-0.01427,0.09983-0.02855,0.14266-0.02855
					c0.19967-0.02855,0.39924-0.04282,0.59891-0.0571h2.48129c0.19967,0.01427,0.38506,0.02855,0.58472,0.0571
					c0.04274,0,0.09983,0.01427,0.14257,0.01427c0.39933,0.0571,0.7843,0.14274,1.18363,0.27086
					c0.12829,0.0571,0.25668,0.09992,0.38506,0.14274c0.09975,0.0571,0.19958,0.09992,0.29941,0.1424
					c0.02855,0.02855,0.0571,0.04282,0.08556,0.0571C22.85119,21.74048,23.90653,22.55307,23.90653,23.12369z"/><path fill="#2C96E0" d="M19.67116,20.51393v0.02855c0,0.51353-0.19967,1.01243-0.57036,1.38321
					c-0.37078,0.37078-0.86995,0.57027-1.39758,0.57027c-1.01243,0-1.8681-0.75549-1.96794-1.754l-0.01427-0.19949v-0.01427
					c0.04282-0.01427,0.09983-0.02855,0.14266-0.02855c0.19967-0.02855,0.39924-0.04282,0.59891-0.0571h2.48129
					c0.19967,0.01427,0.38506,0.02855,0.58472,0.0571C19.57133,20.49966,19.62842,20.51393,19.67116,20.51393z"/><path fill="#F39F03" d="M18.96112,18.81092v1.72605c0,0.34513-0.13919,0.65695-0.36745,0.88518
					c-0.2283,0.22836-0.54566,0.36756-0.89086,0.36756c-0.65141,0-1.19147-0.4956-1.25831-1.12469
					c-0.00554-0.04459-0.00554-0.0836-0.00554-0.12805v-0.23394h0.00554v-1.49211H18.96112z"/><path fill="#FED000" d="M20.83324,16.84921c-0.11153,0.27375-0.35991,0.78065-0.62351,0.87189l-0.14699,0.61333
				c-0.24838,1.05944-1.19628,1.80964-2.28106,1.80964c-0.54746,0-1.05436-0.18755-1.45988-0.5069
				c-0.40551-0.31935-0.69952-0.77554-0.82625-1.30274l-0.14699-0.6184c-0.02534,0.02027-0.0659,0.02534-0.12165,0.01015
				c-0.26867-0.07097-0.5272-0.59817-0.64377-0.87696c-0.11658-0.27372,0.01522-0.52717,0.37003-0.49168
				c0.03041,0,0.05578,0.00507,0.08112,0.01519l-0.00507-0.02027c0,0-0.17341-1.61209,0.60213-1.94666
				c0.00231-0.56651,0.52949-1.34241,3.98465-0.26825c0.29082-0.44517,0.42135,1.191,0.91308,2.21492
				C20.83324,16.35245,20.94475,16.59068,20.83324,16.84921z"/><path fill="#273E56" d="M15.07717,17.04134c-0.6409-1.46561-0.78474-2.98944,0.58377-4.06649
				c-0.3369-0.7106-0.39484-1.02159-0.26178-1.47493c0.86223,0.41209,1.80985,0.33627,2.72006,0.48245
				c1.50653,0.24196,1.45115,0.7828,1.72474,0.84728c0.64725,0.15256,0.86017,0.65351,0.92937,1.22314
				c0.1215,1.00013-0.06211,1.96932-0.39013,2.91424c-0.00498,0.01435-0.02861,0.02222-0.04838,0.03666
				c-0.02151-0.44668-0.04067,0.00728-0.0646-0.43504c-0.04087-0.75555-0.41254-1.27405-1.11773-1.55348
				c-1.10252-0.43688-2.18334-0.42696-3.2298,0.1673C14.95012,15.73478,15.07717,15.90467,15.07717,17.04134z"/><path fill="#FFF" d="M39.5,36.75204v1.71499c0,0.57571-0.50177,1.03289-1.13629,1.03289H27.79792
					c-0.63452,0-1.1362-0.45718-1.1362-1.03289v-1.70022c0-0.59048,1.09198-1.44612,2.34625-2.08091
					c0.04431-0.01477,0.05908-0.02954,0.10331-0.05908c0.23616-0.10304,0.47222-0.20644,0.70838-0.29506
					c0.39837-0.13258,0.79683-0.2212,1.20996-0.26552c0.04431-0.01477,0.10331-0.02954,0.14762-0.02954
					c0.20662-0.02954,0.41314-0.04431,0.61975-0.05909h2.56764c0.20662,0.01477,0.39846,0.02954,0.60507,0.05909
					c0.04422,0,0.10331,0.01477,0.14753,0.01477c0.41323,0.05909,0.8116,0.14771,1.22482,0.28029
					c0.13276,0.05909,0.26561,0.1034,0.39846,0.14771c0.10321,0.05908,0.20652,0.1034,0.30983,0.14735
					c0.02954,0.02954,0.05909,0.04431,0.08854,0.05908C38.40794,35.3207,39.5,36.16156,39.5,36.75204z"/><path fill="#EAEEF2" d="M35.11724,34.05147v0.02954c0,0.5314-0.20662,1.04766-0.59021,1.43135
					c-0.38369,0.38369-0.90022,0.59012-1.44621,0.59012c-1.04766,0-1.93311-0.78178-2.03642-1.81503l-0.01477-0.20644v-0.01477
					c0.04431-0.01477,0.10331-0.02954,0.14762-0.02954c0.20662-0.02954,0.41314-0.04431,0.61975-0.05909h2.56764
					c0.20662,0.01477,0.39846,0.02954,0.60507,0.05909C35.01393,34.0367,35.07301,34.05147,35.11724,34.05147z"/><path fill="#F39F03" d="M34.38249,32.28919v1.78611c0,0.35714-0.14404,0.67982-0.38024,0.91599
					c-0.23624,0.23631-0.56465,0.38035-0.92186,0.38035c-0.67408,0-1.23293-0.51285-1.3021-1.16383
					c-0.00573-0.04614-0.00573-0.08651-0.00573-0.1325v-0.24208h0.00573v-1.54404H34.38249z"/><path fill="#FED000" d="M36.06925,30.52219c-0.10651,0.26142-0.34371,0.74551-0.59544,0.83264l-0.14037,0.58572
				c-0.2372,1.01175-1.14243,1.72818-2.17838,1.72818c-0.52282,0-1.0069-0.17911-1.39416-0.48409
				c-0.38726-0.30497-0.66804-0.74063-0.78906-1.2441l-0.14037-0.59057c-0.0242,0.01935-0.06293,0.0242-0.11618,0.00969
				c-0.25658-0.06778-0.50346-0.57124-0.61479-0.83748c-0.11133-0.26139,0.01454-0.50344,0.35337-0.46955
				c0.02904,0,0.05327,0.00485,0.07747,0.01451l-0.00484-0.01935c0,0-0.16561-1.53953,0.57503-1.85904
				c0.0022-0.54101,0.50566-1.28199,3.80528-0.25618c0.27773-0.42513,0.40239,1.13739,0.87198,2.11522
				C36.06925,30.0478,36.17573,30.2753,36.06925,30.52219z"/><path fill="#273E56" d="M30.6948,30.92012c-0.60042-1.84413-0.89987-3.66964,0.13364-5.50021
				c0.10571,0.12181,0.18296,0.21082,0.27407,0.31581c0.08396-0.09598,0.16288-0.18621,0.24916-0.28485
				c0.08048,0.09408,0.15411,0.18015,0.25624,0.29954c0.0767-0.11083,0.14532-0.21,0.22314-0.32244
				c0.09952,0.12071,0.17073,0.20708,0.25521,0.30955c0.08748-0.09995,0.16617-0.18984,0.25237-0.28832
				c0.08049,0.09514,0.15387,0.18186,0.24159,0.28554c0.08783-0.09674,0.16732-0.18429,0.25566-0.28159
				c0.08138,0.09644,0.15315,0.18149,0.24076,0.28531c0.08212-0.09682,0.15437-0.18202,0.24356-0.28718
				c0.07976,0.09022,0.1581,0.17883,0.24931,0.28201c0.08437-0.09357,0.16404-0.18192,0.25278-0.28034
				c0.07938,0.09482,0.15095,0.18031,0.23925,0.28579c0.08165-0.09406,0.15447-0.17796,0.24731-0.28492
				c0.07893,0.08929,0.1567,0.17728,0.24881,0.28149c0.08483-0.09575,0.16439-0.18556,0.25145-0.28383
				c0.0783,0.09348,0.1504,0.17957,0.23894,0.28527c0.08226-0.0931,0.15539-0.17588,0.2854-0.32303
				c0.15567,0.34426,0.3282,0.65105,0.43729,0.9811c0.32027,0.96894,0.30301,1.96603,0.13065,2.95902
				c-0.09221,0.53121-0.24574,1.05061-0.37327,1.58237c-0.02522-0.50105-0.05259-0.52377-0.07276-1.0048
				c-0.02209-0.5267-0.28219-0.89989-0.71247-1.11649c-1.0983-0.55288-2.21381-0.55618-3.31458-0.00782
				c-0.47214,0.2352-0.73474,0.64565-0.73369,1.21571C30.69547,30.47456,30.6948,30.46835,30.6948,30.92012z"/><path fill="#1D364C" d="M23.90653,37.8152c-1.70157,0.23898-3.68029-0.34423-5.10466-1.80683
			c-0.68824-0.72651-1.22355-1.60589-1.61551-2.54268c-0.20071-0.45906-0.32498-0.92722-0.48747-1.41498L16.659,31.85938
			c-0.03248-0.15582-0.16982-0.26749-0.32899-0.26749h-1.52381c-0.29958,0-0.44943-0.36236-0.23736-0.57395l3.50792-3.49996
			c0.13128-0.13098,0.34385-0.13086,0.47498,0.00027l3.5001,3.49996c0.21171,0.2117,0.06178,0.57369-0.23762,0.57369h-1.45995
			c-0.1756,0-0.32172,0.13482-0.33505,0.30992c-0.02129,0.27972-0.04736,0.67938-0.04154,0.89479
			c0.00957,0.71694,0.12428,1.43389,0.3919,2.11256c0.27726,0.65953,0.72651,1.29036,1.33832,1.79702
			C22.31015,37.22242,23.07488,37.61427,23.90653,37.8152z"/></svg>