<svg xmlns="http://www.w3.org/2000/svg" viewBox="0 0 512 512"><g data-name="28.Renewal"><path fill="#f5d367" d="M58.7234 141.1936L33.0187 161.7279A7.7741 7.7741 0 0 1 20.48 156.82L15.545 124.2928a7.7742 7.7742 0 0 1 10.52-8.4056l30.64 11.9932A7.7741 7.7741 0 0 1 58.7234 141.1936zM453.2766 370.8064l25.7046-20.5342A7.774 7.774 0 0 1 491.52 355.18l4.9353 32.5273a7.7742 7.7742 0 0 1-10.52 8.4055l-30.64-11.9931A7.7741 7.7741 0 0 1 453.2766 370.8064z"/><rect width="340.517" height="77.552" x="85.741" y="134.259" fill="#f5d367" rx="23.587" ry="23.587"/><path fill="#ffebb9" d="M103.6006,211.8115H408.3994a0,0,0,0,1,0,0V364.3152a47.38,47.38,0,0,1-47.38,47.38H150.98a47.38,47.38,0,0,1-47.38-47.38V211.8115a0,0,0,0,1,0,0Z"/><rect width="200.131" height="110.189" x="155.935" y="247.285" fill="#f7f5fb" rx="33.83" ry="33.83"/><path fill="#e2c061" d="M122.8745,211.8068h-13.55a23.5835,23.5835,0,0,1-23.58-23.58v-30.38a23.5857,23.5857,0,0,1,23.58-23.59h7.57A503.1276,503.1276,0,0,0,122.8745,211.8068Z"/><path fill="#eddab0" d="M200.8745,411.6968h-49.89a47.3764,47.3764,0,0,1-47.38-47.38v-152.51h19.27A496.8518,496.8518,0,0,0,200.8745,411.6968Z"/><path d="M402.6714,217.8116H109.3286a29.6208,29.6208,0,0,1-29.5872-29.5874V157.8468a29.6208,29.6208,0,0,1,29.5872-29.5874H402.6714a29.621,29.621,0,0,1,29.5874,29.5874v30.3774A29.621,29.621,0,0,1,402.6714,217.8116ZM109.3286,140.2594a17.6072,17.6072,0,0,0-17.5872,17.5874v30.3774a17.6072,17.6072,0,0,0,17.5872,17.5874H402.6714a17.6073,17.6073,0,0,0,17.5874-17.5874V157.8468a17.6073,17.6073,0,0,0-17.5874-17.5874Z"/><path d="M361.0244,417.6969h-210.04a53.44,53.44,0,0,1-53.38-53.38v-64.21a6,6,0,0,1,12,0v64.21a41.4267,41.4267,0,0,0,41.38,41.38h210.04a41.4268,41.4268,0,0,0,41.38-41.38v-146.51h-292.8v35.49a6,6,0,1,1-12,0v-41.49a6,6,0,0,1,6-6h304.8a6,6,0,0,1,6,6v152.51A53.4406,53.4406,0,0,1,361.0244,417.6969Z"/><path d="M103.6045 287.2067a6 6 0 0 1-6-6v-9.01a6 6 0 0 1 12 0v9.01A6 6 0 0 1 103.6045 287.2067zM322.2353 363.4742h-132.47a39.8754 39.8754 0 0 1-39.83-39.83V281.1154a39.8755 39.8755 0 0 1 39.83-39.83h132.47a39.8752 39.8752 0 0 1 39.83 39.83v42.5288A39.8751 39.8751 0 0 1 322.2353 363.4742zm-132.47-110.1889a27.8617 27.8617 0 0 0-27.83 27.83v42.5288a27.8616 27.8616 0 0 0 27.83 27.83h132.47a27.8615 27.8615 0 0 0 27.83-27.83V281.1154a27.8616 27.8616 0 0 0-27.83-27.83z"/><path d="M326.3586 284.6251H185.6416a6 6 0 0 1 0-12h140.717a6 6 0 0 1 0 12zM326.3586 328.44H185.6416a6 6 0 1 1 0-12h140.717a6 6 0 0 1 0 12zM490.8344 175.9768a5.64 5.64 0 0 1-1.34.16 5.9961 5.9961 0 0 1-5.84-4.67c-20.41-89.5-116.15-154.47-227.65-154.47-87.03 0-165.83 39.58-205.51 102.01q-3.2556 5.13-6.17 10.47l-11.24-4.4q2.8353-5.3552 6.05-10.52c41.45-66.98 124.86-109.56 216.87-109.56 117.04 0 217.7 68.89 239.35 163.8A6.0018 6.0018 0 0 1 490.8344 175.9768z"/><path d="M67.4946 133.0568a13.6368 13.6368 0 0 0-8.6-10.76l-8.4-3.29-11.36-4.45-10.88-4.26a13.7791 13.7791 0 0 0-18.64 14.9l4.93 32.52a13.6356 13.6356 0 0 0 8.6 10.76 13.8666 13.8666 0 0 0 5.07.97 13.6433 13.6433 0 0 0 8.55-3.03l25.7-20.54A13.6407 13.6407 0 0 0 67.4946 133.0568zm-12.52 3.45l-25.7 20.53a1.77 1.77 0 0 1-2.86-1.12l-4.94-32.52a1.7291 1.7291 0 0 1 .65-1.66 1.7486 1.7486 0 0 1 1.09-.39 1.68 1.68 0 0 1 .66.13l9.21 3.6 11.24 4.4 10.19 3.99a1.736 1.736 0 0 1 1.11 1.39A1.7057 1.7057 0 0 1 54.9746 136.5067zM478.9243 386.9268q-2.8349 5.355-6.05 10.52c-41.47 66.98-124.86 109.55-216.87 109.55-117.05 0-217.71-68.88-239.35-163.79a6 6 0 1 1 11.7-2.67c20.4 89.5 116.15 154.46 227.65 154.46 87.02 0 165.82-39.57 205.5-102q3.2549-5.13 6.17-10.47z"/><path d="M502.3842,386.8068l-4.93-32.53a13.7737,13.7737,0,0,0-22.22-8.69l-25.7,20.53a13.7789,13.7789,0,0,0,3.57,23.59l8.4,3.29,11.37,4.45,10.87,4.25a13.8684,13.8684,0,0,0,5.07.97,13.804,13.804,0,0,0,13.57-15.86Zm-12.51,3.45a1.7179,1.7179,0,0,1-1.75.27l-9.2-3.6-11.25-4.4-10.19-3.99a1.7347,1.7347,0,0,1-1.11-1.39,1.6988,1.6988,0,0,1,.65-1.65l25.7-20.54a1.7369,1.7369,0,0,1,1.76-.26,1.7084,1.7084,0,0,1,1.1,1.38l4.94,32.53A1.7226,1.7226,0,0,1,489.8745,390.2568Z"/></g></svg>