<svg xmlns="http://www.w3.org/2000/svg" data-name="Layer 1" viewBox="0 0 128 128"><path fill="#e1ebf4" d="M52,50V63.70117s4.832-5.50488,4.85693-5.53125a9.63971,9.63971,0,0,1,14.24756-.04883C71.13281,58.15137,76,63.69629,76,63.69629V50a10.01411,10.01411,0,0,1,8.084-9.81128L84.5,2.83331,46.5,2l-3,2.16663V40.12506A10.00694,10.00694,0,0,1,52,50Z"/><path fill="#81d9e3" d="M24.5 95.04A6.00057 6.00057 0 0 0 29 105a6.13128 6.13128 0 0 0 2-.34V126.5H12.17l.5-76.5a4.09131 4.09131 0 0 1 3.66-4c3.67-.5 23.34.33 23.34.33L44 47l1.33 3.83V71.3C36.04 81.89 24.5 95.04 24.5 95.04zM115.33 50.17v75.16H97V104.66a6.08631 6.08631 0 0 0 2 .34 6.00031 6.00031 0 0 0 4.51-9.96S91.55 81.42 82.17 70.72V47H114.5z"/><path fill="#ffdb80" d="M89,90.64V124H83.91l-.61-12.76c-.26-3.45-3.7-5.52-5.61-6.17l-4.96-1.94a11.48059,11.48059,0,0,1-3.87,2.78l7.46,2.91c.56.2,2.88,1.29,2.99,2.66L79.9,124H48.1l.59-12.46c.1-1.29,2.06-2.39,3.08-2.75l7.35-2.89a11.35053,11.35053,0,0,1-3.86-2.78l-4.87,1.92c-1.99.68-5.43,2.75-5.69,6.25L44.09,124H39V90.64L62.76,63.57a1.70078,1.70078,0,0,1,2.45-.04Z"/><path fill="#fc785e" d="M82.17,126.08l-36.92-.75,2.08-16.25,9.94-4.21a10.94166,10.94166,0,0,0,1.47.85,12.8542,12.8542,0,0,0,3.3,1.08c.21.04.42.07.62.1a9.77518,9.77518,0,0,0,1.32.1h.01a9.816,9.816,0,0,0,1.42-.11c.19-.03.38-.06006.56-.1A13.185,13.185,0,0,0,69.65,105.55a11.10981,11.10981,0,0,0,1.31995-.81l9.53,4.43Z"/><path fill="#2d4356" d="M72 10H56a2 2 0 0 0 0 4H72a2 2 0 0 0 0-4zM72 18H56a2 2 0 0 0 0 4H72a2 2 0 0 0 0-4zM72 26H56a2 2 0 0 0 0 4H72a2 2 0 0 0 0-4zM72 34H56a2 2 0 0 0 0 4H72a2 2 0 0 0 0-4zM72 42H56a2 2 0 0 0 0 4H72a2 2 0 0 0 0-4zM72 50H56a2 2 0 0 0 0 4H72a2 2 0 0 0 0-4zM91 58a2.0001 2.0001 0 0 0 2-2V54a2 2 0 0 0-4 0v2A2.00008 2.00008 0 0 0 91 58zM99 58a2.0001 2.0001 0 0 0 2-2V54a2 2 0 0 0-4 0v2A2.00008 2.00008 0 0 0 99 58zM107 58a2.0001 2.0001 0 0 0 2-2V54a2 2 0 0 0-4 0v2A2.00008 2.00008 0 0 0 107 58zM89 66a2 2 0 0 0 4 0V64a2 2 0 0 0-4 0zM97 66a2 2 0 0 0 4 0V64a2 2 0 0 0-4 0zM105 66a2 2 0 0 0 4 0V64a2 2 0 0 0-4 0zM89 76a2 2 0 0 0 4 0V74a2 2 0 0 0-4 0zM97 76a2 2 0 0 0 4 0V74a2 2 0 0 0-4 0zM105 76a2 2 0 0 0 4 0V74a2 2 0 0 0-4 0zM97 86a2 2 0 0 0 4 0V84a2 2 0 0 0-4 0zM105 86a2 2 0 0 0 4 0V84a2 2 0 0 0-4 0zM105 96a2 2 0 0 0 4 0V94a2 2 0 0 0-4 0zM105 106a2 2 0 0 0 4 0v-2a2 2 0 0 0-4 0zM99 112a2.00008 2.00008 0 0 0-2 2v2a2 2 0 0 0 4 0v-2A2.0001 2.0001 0 0 0 99 112zM105 116a2 2 0 0 0 4 0v-2a2 2 0 0 0-4 0zM23 54a2 2 0 0 0-4 0v2a2 2 0 0 0 4 0zM31 54a2 2 0 0 0-4 0v2a2 2 0 0 0 4 0zM39 54a2 2 0 0 0-4 0v2a2 2 0 0 0 4 0zM23 64a2 2 0 0 0-4 0v2a2 2 0 0 0 4 0zM31 64a2 2 0 0 0-4 0v2a2 2 0 0 0 4 0zM39 64a2 2 0 0 0-4 0v2a2 2 0 0 0 4 0zM23 74a2 2 0 0 0-4 0v2a2 2 0 0 0 4 0zM31 74a2 2 0 0 0-4 0v2a2 2 0 0 0 4 0zM39 76V74a2 2 0 0 0-4 0v2a2 2 0 0 0 4 0zM23 84a2 2 0 0 0-4 0v2a2 2 0 0 0 4 0zM29 82a2.00008 2.00008 0 0 0-2 2v2a2 2 0 0 0 4 0V84A2.00009 2.00009 0 0 0 29 82zM23 94a2 2 0 0 0-4 0v2a2 2 0 0 0 4 0zM23 104a2 2 0 0 0-4 0v2a2 2 0 0 0 4 0zM21 112a2.00008 2.00008 0 0 0-2 2v2a2 2 0 0 0 4 0v-2A2.00009 2.00009 0 0 0 21 112zM29 112a2.00008 2.00008 0 0 0-2 2v2a2 2 0 0 0 4 0v-2A2.00009 2.00009 0 0 0 29 112zM27 106a2 2 0 0 0 4 0v-1.3457a6.01842 6.01842 0 0 1-4-.0059zM101 104.6514a5.91153 5.91153 0 0 1-4 0V106a2 2 0 0 0 4 0zM71.39 84.53a9.10058 9.10058 0 0 0-6.38-3.49 14.30458 14.30458 0 0 0-2.07 0 9.1271 9.1271 0 0 0-6.33 3.49c-2.11 2.57-1.66 5.51-1.3 7.88.05.33.1.67.14 1.01.28 2.12 1.12 8.58 7.8 9.52a5.16642 5.16642 0 0 0 1.57-.01c6.62-.98 7.42-7.18 7.73-9.51.04-.34.09-.68.14-1.02C73.05 90.04 73.5 87.1 71.39 84.53zM68.74 91.8c-.06.37-.11.74-.16 1.11-.52 4.03-1.7 5.67-4.36 6.07a1.06891 1.06891 0 0 1-.4 0c-2.61-.37-3.89-2.13-4.4-6.08-.05-.36-.1-.73-.16-1.1-.33-2.19-.49-3.6.44-4.74a5.14074 5.14074 0 0 1 3.63-2.04 7.16908 7.16908 0 0 1 1.31 0 5.13033 5.13033 0 0 1 3.66 2.04C69.23 88.2 69.07 89.6 68.74 91.8z"/><path fill="#e1ebf4" d="M68.74,91.8c-.06.37-.11.74-.16,1.11-.52,4.03-1.7,5.67-4.36,6.07a1.06891,1.06891,0,0,1-.4,0c-2.61-.37-3.89-2.13-4.4-6.08-.05-.36-.1-.73-.16-1.1-.33-2.19-.49-3.6.44-4.74a5.14074,5.14074,0,0,1,3.63-2.04,7.16908,7.16908,0,0,1,1.31,0,5.13033,5.13033,0,0,1,3.66,2.04C69.23,88.2,69.07,89.6,68.74,91.8Z"/><circle cx="64" cy="115" r="2" fill="#2d4356"/><path fill="#2d4356" d="M45,40.4609V6a2.00233,2.00233,0,0,1,2-2H81a2.00266,2.00266,0,0,1,2,2V40.4609A9.95737,9.95737,0,0,1,86,40h1V6a6.00656,6.00656,0,0,0-6-6H47a6.00655,6.00655,0,0,0-6,6V40h1A9.96,9.96,0,0,1,45,40.4609Z"/><rect width="17" height="2" x="97" y="122" fill="#0f423c" opacity=".25"/><path fill="#e8fbfc" d="M44,50v2a2.00587,2.00587,0,0,0-2-2H16a2.00587,2.00587,0,0,0-2,2V50a2.00587,2.00587,0,0,1,2-2H42A2.00587,2.00587,0,0,1,44,50Z" opacity=".3"/><rect width="17" height="2" x="14" y="122" fill="#0f423c" opacity=".25"/><path fill="#f9dbd7" d="M62.04 106.8l-10.27 3.99c-1.02.36-2.98 1.46-3.08 2.75L48.19 124H48.1l.59-12.46c.1-1.29 2.06-2.39 3.08-2.75l5.28-2.07a12.40374 12.40374 0 0 1 1.69-1A12.8542 12.8542 0 0 0 62.04 106.8zM79.9 124h-.09l-.5-10.52c-.11-1.37-2.43-2.46-2.99-2.66l-10.35-4.03A13.185 13.185 0 0 0 69.65 105.55a3.52718 3.52718 0 0 1 1.29 1.17l5.38 2.1c.56.2 2.88 1.29 2.99 2.66z" opacity=".3"/><polygon fill="#ad9359" points="89 122 89 124 83.91 124 83.81 122 89 122" opacity=".45"/><polygon fill="#ad9359" points="39 122 44.19 122 44.09 124 39 124 39 122" opacity=".45"/><polygon fill="#a54b3f" points="79.9 124 48.1 124 48.19 122 79.81 122 79.9 124" opacity=".5"/><path fill="#f9edd2" d="M89,90.64v2L65.21,65.53a1.70078,1.70078,0,0,0-2.45.04L39,92.64v-2L62.76,63.57a1.70078,1.70078,0,0,1,2.45-.04Z" opacity=".5"/><path fill="#e8fbfc" d="M114,50v2a2.00587,2.00587,0,0,0-2-2H86a2.00587,2.00587,0,0,0-2,2V50a2.00587,2.00587,0,0,1,2-2h26A2.00587,2.00587,0,0,1,114,50Z" opacity=".3"/><path fill="#9fa5aa" d="M68.74,91.8c-.06.37-.11.74-.16,1.11-.52,4.03-1.7,5.67-4.36,6.07a1.06891,1.06891,0,0,1-.4,0c-2.61-.37-3.89-2.13-4.4-6.08-.05-.36-.1-.73-.16-1.1a10.85521,10.85521,0,0,1-.19-3.34c.05.41.11.86.19,1.34.06.37.11.74.16,1.1.51,3.95,1.79,5.71,4.4,6.08a1.06891,1.06891,0,0,0,.4,0c2.66-.4,3.84-2.04,4.36-6.07.05-.37.1-.74.16-1.11.08-.48.14-.93.19-1.35A10.91759,10.91759,0,0,1,68.74,91.8Z" opacity=".5"/><path fill="#fff" d="M83,6V8a2.00587,2.00587,0,0,0-2-2H47a2.00587,2.00587,0,0,0-2,2V6a2.00587,2.00587,0,0,1,2-2H81A2.00587,2.00587,0,0,1,83,6Z" opacity=".5"/><path fill="#2d4356" d="M126,124h-8V50a6.00476,6.00476,0,0,0-6-6H86a6.00476,6.00476,0,0,0-6,6V68.25l4,4.56V50a2.00587,2.00587,0,0,1,2-2h26a2.00587,2.00587,0,0,1,2,2v74H93V95.2l4.5,5.12A1.98864,1.98864,0,0,0,99,101a1.9636,1.9636,0,0,0,1.32-.5,1.99577,1.99577,0,0,0,.18-2.82L68.18,60.85a5.64057,5.64057,0,0,0-8.39.04L27.5,97.68a1.9981,1.9981,0,1,0,3,2.64L35,95.2V124H14V50a2.00587,2.00587,0,0,1,2-2H42a2.00587,2.00587,0,0,1,2,2V72.81l4-4.55V50a6.00476,6.00476,0,0,0-6-6H16a6.00476,6.00476,0,0,0-6,6v74H2a2,2,0,0,0,0,4H126a2,2,0,0,0,0-4Zm-37,0H83.91l-.61-12.76c-.26-3.45-3.7-5.52-5.61-6.17l-4.96-1.94a11.48059,11.48059,0,0,1-3.87,2.78l7.46,2.91c.56.2,2.88,1.29,2.99,2.66L79.9,124H48.1l.59-12.46c.1-1.29,2.06-2.39,3.08-2.75l7.35-2.89a11.35053,11.35053,0,0,1-3.86-2.78l-4.87,1.92c-1.99.68-5.43,2.75-5.69,6.25L44.09,124H39V90.64L62.76,63.57a1.70078,1.70078,0,0,1,2.45-.04L89,90.64Z"/></svg>