<svg xmlns="http://www.w3.org/2000/svg" enable-background="new 0 0 53 53" viewBox="0 0 53 53"><path fill="#e4e3ff" d="M50.5,12.86341v18.3547478c0,4.0904179-3.3181877,7.4087353-7.4087982,7.4087353H24.7156925c-0.3235397,0-0.6366329,0.1355934-0.866169,0.3651924l-8.0974007,8.086956c-1.0016985,1.0017624-2.7233353,0.2817574-2.7233353-1.1374207v-6.0730515c0-0.6886673-0.5530739-1.2416763-1.2312336-1.2416763H9.9192429C5.8181896,38.6268921,2.5,35.3085747,2.5,31.2181568V12.86341c0-4.0904808,3.3181896-7.4087338,7.4192429-7.4087338h33.1719589C47.1818123,5.4546762,50.5,8.7729292,50.5,12.86341z"/><path fill="#d0d0f7" d="M22.0443268 38.6268921h2.6713657c-.3235397 0-.6366329.1355934-.866169.3651924l-8.0974007 8.086956c-.7512741.7512741-1.9093924.5321846-2.441576-.229599l7.8676128-7.857357C21.4079475 38.7624855 21.720789 38.6268921 22.0443268 38.6268921zM50.5 12.86341v18.3547478c0 4.0904179-3.3181877 7.4087353-7.4087982 7.4087353h-2.6711082c4.0903511 0 7.4085426-3.3183174 7.4085426-7.4087353V12.86341c0-4.0904808-3.3181915-7.4087338-7.4085426-7.4087338h2.6711082C47.1818123 5.4546762 50.5 8.7729292 50.5 12.86341z"/><path fill="#fc6559" d="M19.5246696,25.5145359v3.1835136c0,0.4744968-0.3881912,0.8627396-0.8627396,0.8627396H4.9617133c-0.4745493,0-0.8627405-0.3882427-0.8627405-0.8627396v-3.1835136c0-1.9066753,1.5443387-3.4509621,3.4509616-3.4509621h0.2415924c0.2070494,0,0.3968267,0.0776176,0.5606966,0.2070484c0.9404631,0.7850704,2.1482153,1.2596207,3.4595976,1.2596207s2.5191345-0.4745502,3.4595976-1.2596207c0.1640806-0.1294308,0.3536472-0.2070484,0.5609074-0.2070484h0.2413816C17.9805412,22.0635738,19.5246696,23.6078606,19.5246696,25.5145359z"/><path fill="#fff" d="M6.2560344,28.4592743c-0.2384334,0-0.4313703-0.1929379-0.4313703-0.4313698v-2.4896469c0-0.2384338,0.1929369-0.4313698,0.4313703-0.4313698c0.2384329,0,0.4313703,0.1929359,0.4313703,0.4313698v2.4896469C6.6874046,28.2663364,6.4944673,28.4592743,6.2560344,28.4592743z" opacity=".3"/><path fill="#f05543" d="M19.5246696,25.5145359v3.1835136c0,0.4744968-0.3881912,0.8627396-0.8627396,0.8627396h-1.5097961c0.4745483,0,0.8627396-0.3882427,0.8627396-0.8627396v-3.1835136c0-1.7168465-0.819561-3.131752-2.458683-3.3992004c0.0861473-0.0345421,0.1811419-0.0517616,0.2761354-0.0517616h0.2413816C17.9805412,22.0635738,19.5246696,23.6078606,19.5246696,25.5145359z"/><circle cx="11.812" cy="17.673" r="4.56" fill="#fc6559" transform="rotate(-22.5 11.812 17.673)"/><path fill="#f05543" d="M16.3757515,17.6722012c0,2.5191879-2.0532207,4.5639305-4.5639305,4.5639305c-1.4579802,0-2.7520914-0.6815987-3.5889244-1.7513885c0.7677469,0.595293,1.7341175,0.9489937,2.7866354,0.9489937c2.5191345,0,4.5639296-2.0360546,4.5639296-4.5552406c0-1.0611544-0.3624935-2.0360556-0.9750061-2.8125429C15.6768808,14.9028387,16.3757515,16.2055321,16.3757515,17.6722012z"/><path fill="#fff" d="M8.9773741,18.1047039c-0.2384338,0-0.4313707-0.1929359-0.4313707-0.4313698c0-1.8013077,1.4651423-3.2664499,3.2656069-3.2664499c0.2384338,0,0.4313707,0.1929369,0.4313707,0.4313707c0,0.2384329-0.1929369,0.4313698-0.4313707,0.4313698c-1.3252831,0-2.4028664,1.0784264-2.4028664,2.4037094C9.4087439,17.911768,9.215807,18.1047039,8.9773741,18.1047039z" opacity=".3"/><path fill="#fff" d="M36.6295853 36.2786827h-9.7245235c-.432066 0-.7826099-.350544-.7826099-.782608 0-.4320679.350544-.782608.7826099-.782608h9.7245235c.4320641 0 .782608.3505402.782608.782608C37.4121933 35.9281387 37.0616493 36.2786827 36.6295853 36.2786827zM40.9013252 36.2786827h-1.27174c-.4320641 0-.782608-.350544-.782608-.782608 0-.4320679.350544-.782608.782608-.782608h1.27174c.4320641 0 .782608.3505402.782608.782608C41.6839333 35.9281387 41.3333893 36.2786827 40.9013252 36.2786827zM5.6309443 13.6462097c-.432065 0-.7826085-.350544-.7826085-.782609 0-2.7911005 2.2744565-5.0614805 5.0706525-5.0614805.432065 0 .782608.350543.782608.782608 0 .432066-.350543.782609-.782608.782609-1.9330845 0-3.5054355 1.5682745-3.5054355 3.4962635C6.4135528 13.2956657 6.0630097 13.6462097 5.6309443 13.6462097z" opacity=".5"/><path fill="#f9b938" d="M27.2085686,17.7023411c-0.1811199,0.1739845-0.2645435,0.424511-0.2227459,0.6750374l0.2366791,1.3779831c0.1112881,0.6263161-0.549818,1.106514-1.1065998,0.8072662l-1.2457523-0.6472149c-0.2227478-0.1182976-0.4871216-0.1182976-0.7098694,0l-1.2457523,0.6472149c-0.5567837,0.2992477-1.2178879-0.1809502-1.1065998-0.8072662l0.2366791-1.3779831c0.0417976-0.2505264-0.041626-0.5010529-0.2227459-0.6750374l-1.0021076-0.9812927c-0.4522896-0.4384441-0.201849-1.2109222,0.4245949-1.3013973l1.3918724-0.2087727c0.2504425-0.0347881,0.4662228-0.1879168,0.5775127-0.4175444l0.6125107-1.2527189c0.2852726-0.5706301,1.0926685-0.5706301,1.3779411,0l0.6125107,1.2527189c0.11129,0.2296276,0.3270702,0.3827562,0.5775127,0.4175444l1.3918705,0.2087727c0.6264458,0.0904751,0.8768864,0.8629532,0.4245968,1.3013973L27.2085686,17.7023411z"/><path fill="#ecb021" d="M27.2078896,17.7005596c-0.179512,0.1723232-0.2657623,0.423666-0.2226372,0.6749649l0.2370129,1.3786373c0.1148243,0.6246967-0.5529099,1.1058197-1.1058197,0.8113956l-1.2493954-0.6534023c-0.2226353-0.114912-0.4810352-0.114912-0.7036705,0l-1.2493954,0.6534023c-0.4740219,0.2513428-1.041132-0.0717869-1.1130066-0.5672417c0.1507626,0.0215187,0.3158989,0,0.466835-0.0861607l1.2422066-0.6462593c0.2224617-0.1148682,0.4882221-0.1148682,0.7108593,0l1.2493935,0.6462593c0.5529099,0.3015671,1.2134571-0.179512,1.1058197-0.8042088l-0.237011-1.3786812c-0.0431252-0.2512989,0.0359383-0.5025978,0.2226372-0.6749649l0.9980068-0.9837208c0.1938877-0.186656,0.2585735-0.4308109,0.2154503-0.6534033h0.0143738c0.624609,0.0933495,0.8759956,0.8688517,0.4235363,1.3068495L27.2078896,17.7005596z"/><path fill="#fff" d="M21.9985828,16.5250969c-0.0247078-0.1641293,0.0882416-0.317667,0.2529583-0.3423748c0.2352505-0.0761909,1.2827511,0.0192966,1.7748184-0.9947701l0.2182503-0.4459105c0.0741215-0.1500101,0.2535458-0.2094259,0.4029655-0.1382446c0.1494217,0.0729456,0.2111912,0.2535458,0.1382446,0.4029675l-0.2176609,0.445322c-0.6417046,1.3223696-2.0330563,1.2597685-2.2272015,1.3259668C22.1780796,16.803112,22.0234051,16.6910133,21.9985828,16.5250969z" opacity=".3"/><path fill="#f9b938" d="M36.4992638,17.7023411c-0.181118,0.1739845-0.2645416,0.424511-0.222744,0.6750374l0.2366791,1.3779831c0.1112862,0.6263161-0.5498161,1.106514-1.1066017,0.8072662l-1.2457504-0.6472149c-0.2227478-0.1182976-0.4871216-0.1182976-0.7098694,0l-1.2457542,0.6472149c-0.5567818,0.2992477-1.217886-0.1809502-1.1065979-0.8072662l0.2366791-1.3779831c0.0417976-0.2505264-0.041626-0.5010529-0.2227459-0.6750374l-1.0021076-0.9812927c-0.4522915-0.4384441-0.201849-1.2109222,0.4245949-1.3013973l1.3918724-0.2087727c0.2504425-0.0347881,0.4662247-0.1879168,0.5775108-0.4175444l0.6125145-1.2527189c0.2852707-0.5706301,1.0926666-0.5706301,1.3779373,0l0.6125145,1.2527189c0.1112862,0.2296276,0.3270683,0.3827562,0.5775108,0.4175444l1.3918724,0.2087727c0.626442,0.0904751,0.8768845,0.8629532,0.4245949,1.3013973L36.4992638,17.7023411z"/><path fill="#ecb021" d="M36.4985847,17.7005596c-0.179512,0.1723232-0.2657585,0.423666-0.2226334,0.6749649l0.237011,1.3786373c0.1148224,0.6246967-0.5529099,1.1058197-1.1058197,0.8113956l-1.2493935-0.6534023c-0.2226372-0.114912-0.4810371-0.114912-0.7036743,0l-1.2493935,0.6534023c-0.4740219,0.2513428-1.041132-0.0717869-1.1130066-0.5672417c0.1507607,0.0215187,0.3158989,0,0.466835-0.0861607l1.2422066-0.6462593c0.2224617-0.1148682,0.488224-0.1148682,0.7108574,0l1.2493973,0.6462593c0.5529099,0.3015671,1.2134552-0.179512,1.1058197-0.8042088l-0.2370148-1.3786812c-0.0431213-0.2512989,0.0359383-0.5025978,0.2226372-0.6749649l0.9980087-0.9837208c0.1938858-0.186656,0.2585754-0.4308109,0.2154503-0.6534033h0.0143738c0.6246109,0.0933495,0.8759956,0.8688517,0.4235344,1.3068495L36.4985847,17.7005596z"/><path fill="#fff" d="M31.2892799,16.5250969c-0.0247078-0.1641293,0.0882416-0.317667,0.2529564-0.3423748c0.2352524-0.0761909,1.282753,0.0192966,1.7748222-0.9947701l0.2182465-0.4459105c0.0741234-0.1500101,0.2535477-0.2094259,0.4029694-0.1382446c0.1494217,0.0729456,0.2111893,0.2535458,0.1382446,0.4029675l-0.2176628,0.445322c-0.6417046,1.3223696-2.0330563,1.2597685-2.2272015,1.3259668C31.4687767,16.803112,31.3141022,16.6910133,31.2892799,16.5250969z" opacity=".3"/><g><path fill="#f9b938" d="M45.7899628,17.7023411c-0.1811218,0.1739845-0.2645454,0.424511-0.2227478,0.6750374l0.2366791,1.3779831c0.11129,0.6263161-0.5498161,1.106514-1.1065979,0.8072662l-1.2457542-0.6472149c-0.2227478-0.1182976-0.4871216-0.1182976-0.7098694,0l-1.2457504,0.6472149c-0.5567818,0.2992477-1.2178879-0.1809502-1.1066017-0.8072662l0.2366791-1.3779831c0.0417976-0.2505264-0.041626-0.5010529-0.222744-0.6750374l-1.0021095-0.9812927c-0.4522896-0.4384441-0.2018471-1.2109222,0.4245987-1.3013973l1.3918686-0.2087727c0.2504425-0.0347881,0.4662247-0.1879168,0.5775146-0.4175444l0.6125107-1.2527189c0.2852707-0.5706301,1.0926666-0.5706301,1.3779411,0l0.6125107,1.2527189c0.11129,0.2296276,0.3270683,0.3827562,0.5775108,0.4175444l1.3918724,0.2087727c0.6264458,0.0904751,0.8768845,0.8629532,0.4245949,1.3013973L45.7899628,17.7023411z"/><path fill="#ecb021" d="M45.7892838,17.7005596c-0.179512,0.1723232-0.2657623,0.423666-0.2226372,0.6749649l0.237011,1.3786373c0.1148262,0.6246967-0.5529099,1.1058197-1.1058197,0.8113956l-1.2493935-0.6534023c-0.2226372-0.114912-0.4810371-0.114912-0.7036705,0l-1.2493973,0.6534023c-0.4740219,0.2513428-1.0411301-0.0717869-1.1130066-0.5672417c0.1507645,0.0215187,0.3158989,0,0.466835-0.0861607l1.2422066-0.6462593c0.2224617-0.1148682,0.488224-0.1148682,0.7108612,0l1.2493935,0.6462593c0.5529099,0.3015671,1.2134552-0.179512,1.1058197-0.8042088l-0.237011-1.3786812c-0.0431252-0.2512989,0.0359383-0.5025978,0.2226372-0.6749649l0.9980049-0.9837208c0.1938896-0.186656,0.2585754-0.4308109,0.2154503-0.6534033h0.0143738c0.6246109,0.0933495,0.8759956,0.8688517,0.4235382,1.3068495L45.7892838,17.7005596z"/><path fill="#fff" d="M40.5799751,16.5250969c-0.0247078-0.1641293,0.0882416-0.317667,0.2529602-0.3423748c0.2352486-0.0761909,1.2827492,0.0192966,1.7748184-0.9947701l0.2182503-0.4459105c0.0741196-0.1500101,0.2535439-0.2094259,0.4029655-0.1382446c0.1494217,0.0729456,0.2111893,0.2535458,0.1382446,0.4029675l-0.2176628,0.445322c-0.6417046,1.3223696-2.0330544,1.2597685-2.2271996,1.3259668C40.7594719,16.803112,40.6047974,16.6910133,40.5799751,16.5250969z" opacity=".3"/></g><path fill="#d0d0f7" d="M45.6268082 24.3786564v.0000019c0 .439497-.3562813.7957802-.7957802.7957802H22.7807961c-.4394989 0-.7957821-.3562832-.7957821-.7957802v-.0000019c0-.439497.3562832-.7957802.7957821-.7957802H44.831028C45.2705269 23.5828762 45.6268082 23.9391594 45.6268082 24.3786564zM38.1268082 28.296257v.0000019c0 .439497-.3562813.7957802-.7957802.7957802H22.7807961c-.4394989 0-.7957821-.3562832-.7957821-.7957802V28.296257c0-.439497.3562832-.7957802.7957821-.7957802H37.331028C37.7705269 27.5004768 38.1268082 27.85676 38.1268082 28.296257z"/></svg>