<?xml version="1.0" encoding="iso-8859-1"?>
<!-- Generator: Adobe Illustrator 19.0.0, SVG Export Plug-In . SVG Version: 6.00 Build 0)  -->
<svg version="1.1" id="Layer_1" xmlns="http://www.w3.org/2000/svg" xmlns:xlink="https://www.w3.org/1999/xlink" x="0px" y="0px"
	 viewBox="0 0 512 512" style="enable-background:new 0 0 512 512;" xml:space="preserve">
<g>
	<polygon style="fill:#2C3E50;" points="104,198.392 93.44,186.36 258.816,41.336 418.432,186.456 407.68,198.296 258.624,62.776 	
		"/>
	<circle style="fill:#2C3E50;" cx="258.72" cy="64.52" r="37.472"/>
</g>
<rect y="177.208" style="fill:#E04F5F;" width="512" height="307.744"/>
<g>
	<path style="fill:#FFFFFF;" d="M85.392,358.76c6.496,3.344,16.496,6.672,26.816,6.672c11.104,0,16.992-4.608,16.992-11.584
		c0-6.672-5.072-10.48-17.936-15.072c-17.76-6.192-29.36-16.032-29.36-31.584c0-18.256,15.232-32.224,40.464-32.224
		c12.064,0,20.96,2.528,27.296,5.392l-5.392,19.52c-4.288-2.064-11.904-5.056-22.368-5.056c-10.48,0-15.568,4.752-15.568,10.32
		c0,6.816,6.032,9.824,19.84,15.056c18.896,6.992,27.76,16.832,27.76,31.904c0,17.936-13.792,33.168-43.152,33.168
		c-12.224,0-24.288-3.184-30.32-6.512L85.392,358.76z"/>
	<path style="fill:#FFFFFF;" d="M195.232,356.216l-7.632,27.456h-25.072l32.704-106.96h31.728l33.152,106.96h-26.016l-8.256-27.456
		H195.232z M222.352,338.12l-6.656-22.688c-1.904-6.336-3.808-14.288-5.408-20.624h-0.32c-1.584,6.336-3.168,14.432-4.928,20.624
		l-6.336,22.688H222.352z"/>
	<path style="fill:#FFFFFF;" d="M274.448,276.728h24.272v86.64h42.528v20.32h-66.8V276.728z"/>
	<path style="fill:#FFFFFF;" d="M419.184,338.44h-39.36v25.392h43.952v19.84h-68.24V276.728h66.016v19.824h-41.728v22.224h39.36
		L419.184,338.44L419.184,338.44z"/>
</g>
<g>
</g>
<g>
</g>
<g>
</g>
<g>
</g>
<g>
</g>
<g>
</g>
<g>
</g>
<g>
</g>
<g>
</g>
<g>
</g>
<g>
</g>
<g>
</g>
<g>
</g>
<g>
</g>
<g>
</g>
</svg>
