<svg xmlns="http://www.w3.org/2000/svg" enable-background="new 0 0 132 132" viewBox="0 0 132 132"><circle cx="66" cy="66" r="64" fill="#F34B50"/><path fill="#E53946" d="M117.00464 63.00852h-8.00654c-.55801 0-1.01034-.45232-1.01034-1.00446 0-.55816.45232-1.01048 1.01034-1.01048h8.00654c.55801 0 1.01034.45232 1.01034 1.01048C118.01498 62.5562 117.56265 63.00852 117.00464 63.00852zM120.36464 62.00406c0-.55816.45232-1.01048 1.00446-1.01048h6.20901c.55214 0 1.00446.45232 1.00446 1.01048 0 .55214-.45232 1.00446-1.00446 1.00446h-6.20901C120.81696 63.00852 120.36464 62.5562 120.36464 62.00406zM105.63811 62.00406c0 .55214-.45232 1.00446-1.01034 1.00446h-1.89734c-.55214 0-1.01034-.45232-1.01034-1.00446 0-.55816.4582-1.01048 1.01034-1.01048h1.89734C105.18578 60.99358 105.63811 61.4459 105.63811 62.00406zM24.82953 79.74388h-8.00654c-.55802 0-1.01034-.45232-1.01034-1.00446 0-.55816.45232-1.01048 1.01034-1.01048h8.00654c.55802 0 1.01034.45232 1.01034 1.01048C25.83986 79.29156 25.38754 79.74388 24.82953 79.74388zM13.46299 78.73942c0 .55214-.45232 1.00446-1.01034 1.00446h-1.89734c-.55214 0-1.01034-.45232-1.01034-1.00446 0-.55816.4582-1.01048 1.01034-1.01048h1.89734C13.01067 77.72894 13.46299 78.18126 13.46299 78.73942zM54.92318 117.65121c0-.55228.45232-1.01048 1.0046-1.01048h.17611c.55214 0 1.01048.4582 1.01048 1.01048 0 .55213-.45835 1.01019-1.01048 1.01019h-.17611C55.3755 118.66141 54.92318 118.20335 54.92318 117.65121zM21.04655 48.19006h2.25572c.55214 0 1.00446.45232 1.00446 1.01048 0 .55214-.45232 1.00446-1.00446 1.00446h-2.25572c-.55214 0-1.00446-.45232-1.00446-1.00446C20.04209 48.64238 20.49441 48.19006 21.04655 48.19006zM16.68217 50.205c.552 0 1.01025-.45239 1.01025-1.00439 0-.55835-.45825-1.0105-1.01025-1.0105H4.53031c-.1936.66895-.3894 1.33691-.56152 2.01489H16.68217zM57.90776 65.0258c0-.55816.4582-1.01048 1.01033-1.01048h8.47048c.55801 0 1.01033.45232 1.01033 1.01048 0 .55214-.45232 1.00446-1.01033 1.00446h-8.47048C58.36596 66.03026 57.90776 65.57794 57.90776 65.0258zM59.46403 117.65121c0-.55228.45218-1.01048 1.00446-1.01048h11.30774c.55801 0 1.01034.4582 1.01034 1.01048 0 .55213-.45232 1.01019-1.01034 1.01019H60.46848C59.9162 118.66141 59.46403 118.20335 59.46403 117.65121zM71.75302 64.01533h.17625c.55228 0 1.01034.45232 1.01034 1.01048 0 .55214-.45806 1.00446-1.01034 1.00446h-.17625c-.55213 0-1.00446-.45232-1.00446-1.00446C70.74857 64.46764 71.20089 64.01533 71.75302 64.01533zM28.11267 99.85285c0-.55228.45232-1.01048 1.01034-1.01048h.17037c.55802 0 1.01034.45821 1.01034 1.01048 0 .55213-.45232 1.01019-1.01034 1.01019H29.123C28.56499 100.86304 28.11267 100.40498 28.11267 99.85285zM32.65337 99.85285c0-.55228.45232-1.01048 1.01034-1.01048h4.28816c.55214 0 1.01033.45821 1.01033 1.01048 0 .55213-.4582 1.01019-1.01033 1.01019h-4.28816C33.1057 100.86304 32.65337 100.40498 32.65337 99.85285zM41.31186 99.85285c0-.55228.45232-1.01048 1.00446-1.01048h1.14543c.55802 0 1.01034.45821 1.01034 1.01048 0 .55213-.45232 1.01019-1.01034 1.01019h-1.14543C41.76419 100.86304 41.31186 100.40498 41.31186 99.85285zM95.01594 99.85285c0-.55228.45232-1.01048 1.01034-1.01048h.17037c.55802 0 1.01034.45821 1.01034 1.01048 0 .55213-.45232 1.01019-1.01034 1.01019h-.17037C95.46826 100.86304 95.01594 100.40498 95.01594 99.85285zM99.55665 99.85285c0-.55228.45232-1.01048 1.01034-1.01048h4.28815c.55214 0 1.01034.45821 1.01034 1.01048 0 .55213-.4582 1.01019-1.01034 1.01019h-4.28815C100.00896 100.86304 99.55665 100.40498 99.55665 99.85285zM108.21513 99.85285c0-.55228.45232-1.01048 1.00446-1.01048h1.14542c.55802 0 1.01034.45821 1.01034 1.01048 0 .55213-.45232 1.01019-1.01034 1.01019h-1.14542C108.66746 100.86304 108.21513 100.40498 108.21513 99.85285zM27.72006 20.60484c0-.55228.45232-1.01048 1.01034-1.01048h.17037c.55802 0 1.01034.4582 1.01034 1.01048 0 .55214-.45232 1.01019-1.01034 1.01019H28.7304C28.17238 21.61503 27.72006 21.15698 27.72006 20.60484zM32.26077 20.60484c0-.55228.45232-1.01048 1.01034-1.01048h4.28816c.55214 0 1.01033.4582 1.01033 1.01048 0 .55214-.4582 1.01019-1.01033 1.01019H33.2711C32.71309 21.61503 32.26077 21.15698 32.26077 20.60484zM40.91926 20.60484c0-.55228.45232-1.01048 1.00446-1.01048h7.2703c.55802 0 1.01034.4582 1.01034 1.01048 0 .55214-.45232 1.01019-1.01034 1.01019h-7.2703C41.37158 21.61503 40.91926 21.15698 40.91926 20.60484zM97.37976 32.39512c0-.55228.45232-1.01048 1.0046-1.01048h.17611c.55213 0 1.01048.4582 1.01048 1.01048 0 .55214-.45835 1.01019-1.01048 1.01019h-.17611C97.83208 33.40531 97.37976 32.94725 97.37976 32.39512zM90.17899 32.39512c0-.55228.45232-1.01048 1.0046-1.01048h3.2887c.55213 0 1.01048.4582 1.01048 1.01048 0 .55214-.45834 1.01019-1.01048 1.01019h-3.2887C90.63131 33.40531 90.17899 32.94725 90.17899 32.39512zM101.92061 32.39512c0-.55228.45218-1.01048 1.00446-1.01048h11.30774c.55801 0 1.01034.4582 1.01034 1.01048 0 .55214-.45232 1.01019-1.01034 1.01019h-11.30774C102.37279 33.40531 101.92061 32.94725 101.92061 32.39512zM68.37426 13.90031c0-.55228.45232-1.01048 1.01034-1.01048h.17037c.55801 0 1.01034.4582 1.01034 1.01048 0 .55214-.45232 1.01019-1.01034 1.01019H69.3846C68.82658 14.9105 68.37426 14.45244 68.37426 13.90031zM72.91496 13.90031c0-.55228.45232-1.01048 1.01034-1.01048h4.28815c.55214 0 1.01034.4582 1.01034 1.01048 0 .55214-.4582 1.01019-1.01034 1.01019H73.9253C73.36729 14.9105 72.91496 14.45244 72.91496 13.90031zM81.57346 13.90031c0-.55228.45232-1.01048 1.00446-1.01048h1.14543c.55801 0 1.01034.4582 1.01034 1.01048 0 .55214-.45232 1.01019-1.01034 1.01019h-1.14543C82.02578 14.9105 81.57346 14.45244 81.57346 13.90031zM113.55554 93.96971v-8.22093c0-7.75964-6.29044-14.05007-14.05007-14.05007H83.87388c-7.75964 0-14.05007 6.29043-14.05007 14.05007v8.22093c0 1.78939 1.45059 3.23998 3.23999 3.23998h37.25175C112.10495 97.20969 113.55554 95.7591 113.55554 93.96971z"/><path fill="#E53946" d="M97.22216 60.41747v12.9361c0 3.05518-2.47672 5.53189-5.53189 5.53189h-.00001c-3.05518 0-5.53189-2.47672-5.53189-5.53189v-12.9361H97.22216zM105.20281 50.0162v4.67526h-8.01793V41.99828h.00001C101.61307 41.99828 105.20281 45.58803 105.20281 50.0162zM78.17771 50.0162v4.67526h8.01794V41.99828h-.00002C81.76746 41.99828 78.17771 45.58803 78.17771 50.0162z"/><path fill="#E53946" d="M107.2407 56.46207c0 2.0075-1.63049 3.63804-3.6381 3.63804-2.00739 0-3.63787-1.63054-3.63787-3.63804 0-2.01688 1.63049-3.63799 3.63787-3.63799C105.61021 52.82409 107.2407 54.44519 107.2407 56.46207zM83.41579 56.46207c0 2.0075-1.63048 3.63804-3.6381 3.63804-2.00739 0-3.63786-1.63054-3.63786-3.63804 0-2.01688 1.63048-3.63799 3.63786-3.63799C81.78532 52.82409 83.41579 54.44519 83.41579 56.46207z"/><path fill="#E53946" d="M79.98441,52.25951v7.42584c0,6.45975,5.1013,11.93105,11.56054,12.01241
				c3.29038,0.04145,6.2736-1.27585,8.42385-3.42618c2.11764-2.11743,3.42733-5.04253,3.42733-8.28419v-7.72787
				c0-6.46496-5.24089-11.70585-11.70585-11.70585h-0.00002C85.22529,40.55366,79.98441,45.79455,79.98441,52.25951z"/><path fill="#E53946" d="M97.96188 57.00144c0 .72721-.58862 1.31588-1.30721 1.31588-.72706 0-1.31567-.58867-1.31567-1.31588 0-.72716.58862-1.30722 1.31567-1.30722C97.37327 55.69422 97.96188 56.27428 97.96188 57.00144zM98.71703 54.59555c0 .16972-.14531.31518-.31489.31518h-3.41846c-.16957 0-.31518-.14546-.31518-.31518 0-.18186.14561-.32732.31518-.32732h3.41846C98.57172 54.26824 98.71703 54.4137 98.71703 54.59555zM87.95689 57.00144c0 .72721-.58862 1.31588-1.30722 1.31588-.72705 0-1.31567-.58867-1.31567-1.31588 0-.72716.58862-1.30722 1.31567-1.30722C87.36827 55.69422 87.95689 56.27428 87.95689 57.00144zM88.71204 54.59555c0 .16972-.14531.31518-.31489.31518h-3.41846c-.16958 0-.31518-.14546-.31518-.31518 0-.18186.1456-.32732.31518-.32732h3.41846C88.56673 54.26824 88.71204 54.4137 88.71204 54.59555zM88.41782 64.15723c.81017 1.51743 1.97126 2.48931 3.28039 2.48931 1.29953 0 2.45639-.97189 3.26451-2.48931C92.78108 64.85057 90.59945 64.85057 88.41782 64.15723zM90.05404 60.95285c.40508.75871.98563 1.24466 1.6402 1.24466.64977 0 1.2282-.48594 1.63226-1.24466C92.23567 61.29952 91.14486 61.29952 90.05404 60.95285zM88.53545 48.8963c0-.26452.22646-.49121.49075-.49121h5.32767c.26429 0 .49121.22669.49121.49121 0 .28342-.22692.51012-.49121.51012H89.0262C88.76191 49.40642 88.53545 49.17973 88.53545 48.8963zM87.23206 51.11963c0-.26451.22646-.49121.49075-.49121h7.93446c.26428 0 .49121.2267.49121.49121 0 .28343-.22693.51012-.49121.51012H87.7228C87.45852 51.62975 87.23206 51.40306 87.23206 51.11963zM50.54641 33.30557c0 3.84852-3.1214 6.97583-6.97583 6.97583-3.84853 0-6.96992-3.12731-6.96992-6.97583 0-3.85444 3.1214-6.97569 6.96992-6.97569C47.42501 26.32988 50.54641 29.45113 50.54641 33.30557z"/><circle cx="43.574" cy="48.303" r="14.284" fill="#E53946"/><path fill="#E53946" d="M65.42368,93.96971v-8.22093c0-7.75964-6.29043-14.05007-14.05007-14.05007H35.74202
				c-7.75964,0-14.05007,6.29043-14.05007,14.05007v8.22093c0,1.78939,1.45059,3.23998,3.23999,3.23998H62.1837
				C63.97309,97.20969,65.42368,95.7591,65.42368,93.96971z"/><path fill="#E53946" d="M48.89886,63.45065v8.68352c0,2.94064-2.38222,5.3278-5.3278,5.3278
				c-2.94064,0-5.32286-2.38716-5.32286-5.3278v-8.68352H48.89886z"/><circle cx="54.363" cy="58.825" r="3.452" fill="#E53946"/><circle cx="32.784" cy="58.825" r="3.452" fill="#E53946"/><path fill="#E53946" d="M54.20081,54.25982v6.65099c0,5.86928-4.75799,10.62727-10.62727,10.62727h-0.00002
				c-5.86928,0-10.62727-4.75799-10.62727-10.62727v-6.65099c0-5.86928,4.75799-10.62727,10.62727-10.62727h0.00002
				C49.44282,43.63255,54.20081,48.39054,54.20081,54.25982z"/><circle cx="48.699" cy="57.492" r="1.434" fill="#E53946"/><path fill="#E53946" d="M51.83328,54.69357c0,0.2616-0.21552,0.47699-0.47711,0.47699h-5.31385
					c-0.26674,0-0.47712-0.21539-0.47712-0.47699s0.21038-0.47699,0.47712-0.47699h5.31385
					C51.61776,54.21659,51.83328,54.43198,51.83328,54.69357z"/><circle cx="38.448" cy="57.492" r="1.434" fill="#E53946"/><path fill="#E53946" d="M41.58187 54.69357c0 .2616-.21552.47699-.47711.47699H35.7909c-.26674 0-.47712-.21539-.47712-.47699s.21038-.47699.47712-.47699h5.31385C41.36635 54.21659 41.58187 54.43198 41.58187 54.69357zM45.40895 61.05735c0 .52519-.82171 1.52938-1.83542 1.52938-1.01371 0-1.83542-1.00419-1.83542-1.52938C43.03763 61.43135 44.26124 61.43135 45.40895 61.05735zM46.73145 64.34015c0 .90361-1.41379 2.63136-3.15792 2.63136s-3.15792-1.72775-3.15792-2.63136C42.65149 64.98363 44.75676 64.98363 46.73145 64.34015zM56.64111 51.06443c-1.57146 2.51338-5.78135 2.72287-9.40701.45596-3.62547-2.26678-5.28839-6.14818-3.71693-8.66156 1.57502-2.51906 5.79259-2.72355 9.41806-.45676C56.56089 44.66897 58.21612 48.54536 56.64111 51.06443z"/><path fill="#E53946" d="M30.50596,51.06443c1.57146,2.51338,5.78135,2.72287,9.40701,0.45596
					c3.62547-2.26678,5.28839-6.14818,3.71693-8.66156c-1.57502-2.51906-5.79259-2.72355-9.41806-0.45676
					C30.58617,44.66897,28.93094,48.54536,30.50596,51.06443z"/><g><path fill="#168DE2" d="M111.93179,92.34596v-8.22093c0-7.75964-6.29043-14.05007-14.05007-14.05007H82.25014
				c-7.75964,0-14.05007,6.29044-14.05007,14.05007v8.22093c0,1.7894,1.45058,3.23998,3.23998,3.23998h37.25176
				C110.4812,95.58595,111.93179,94.13536,111.93179,92.34596z"/><path fill="#F4BD98" d="M95.59841,58.79372v12.9361c0,3.05518-2.47671,5.53189-5.53189,5.53189h-0.00001
				c-3.05518,0-5.53189-2.47671-5.53189-5.53189v-12.9361H95.59841z"/><path fill="#EDEDED" d="M103.57907 48.39246v4.67526h-8.01794V40.37453h.00001C99.98932 40.37453 103.57907 43.96428 103.57907 48.39246zM76.55397 48.39246v4.67526h8.01793V40.37453h-.00001C80.14371 40.37453 76.55397 43.96428 76.55397 48.39246z"/><path fill="#F4BD98" d="M105.61696 54.83833c0 2.0075-1.63049 3.63804-3.63811 3.63804-2.00739 0-3.63786-1.63054-3.63786-3.63804 0-2.01688 1.63048-3.63799 3.63786-3.63799C103.98647 51.20034 105.61696 52.82145 105.61696 54.83833zM81.79205 54.83833c0 2.0075-1.63049 3.63804-3.6381 3.63804-2.00739 0-3.63787-1.63054-3.63787-3.63804 0-2.01688 1.63049-3.63799 3.63787-3.63799C80.16157 51.20034 81.79205 52.82145 81.79205 54.83833z"/><path fill="#FFCEAB" d="M78.36066,50.63576v7.42584c0,6.45975,5.1013,11.93104,11.56055,12.01241
				c3.29037,0.04144,6.27359-1.27586,8.42385-3.42618c2.11763-2.11743,3.42732-5.04253,3.42732-8.2842v-7.72787
				c0-6.46496-5.24088-11.70585-11.70585-11.70585h-0.00002C83.60155,38.92991,78.36066,44.1708,78.36066,50.63576z"/><path fill="#2F4867" d="M96.33813 55.37769c0 .72721-.58862 1.31588-1.30721 1.31588-.72705 0-1.31567-.58867-1.31567-1.31588 0-.72716.58862-1.30721 1.31567-1.30721C95.74952 54.07048 96.33813 54.65053 96.33813 55.37769zM97.09328 52.97181c0 .16972-.14531.31518-.31488.31518h-3.41846c-.16958 0-.31519-.14546-.31519-.31518 0-.18186.14561-.32732.31519-.32732h3.41846C96.94797 52.64449 97.09328 52.78995 97.09328 52.97181zM86.33315 55.37769c0 .72721-.58862 1.31588-1.30721 1.31588-.72706 0-1.31567-.58867-1.31567-1.31588 0-.72716.58862-1.30721 1.31567-1.30721C85.74453 54.07048 86.33315 54.65053 86.33315 55.37769zM87.08829 52.97181c0 .16972-.14531.31518-.31489.31518h-3.41846c-.16958 0-.31519-.14546-.31519-.31518 0-.18186.14561-.32732.31519-.32732h3.41846C86.94298 52.64449 87.08829 52.78995 87.08829 52.97181z"/><path fill="#F4BD98" d="M86.79407 62.53348c.81017 1.51742 1.97127 2.48932 3.2804 2.48932 1.29953 0 2.45638-.97189 3.2645-2.48932C91.15733 63.22683 88.9757 63.22683 86.79407 62.53348zM88.43029 59.3291c.40509.75871.98563 1.24466 1.6402 1.24466.64977 0 1.2282-.48594 1.63226-1.24466C90.61192 59.67577 89.52111 59.67577 88.43029 59.3291zM86.91171 47.27255c0-.26451.22646-.49121.49075-.49121h5.32767c.26428 0 .49121.2267.49121.49121 0 .28343-.22693.51012-.49121.51012h-5.32767C87.13817 47.78267 86.91171 47.55598 86.91171 47.27255zM85.60831 49.49589c0-.26451.22646-.49121.49075-.49121h7.93446c.26429 0 .49121.2267.49121.49121 0 .28342-.22692.51012-.49121.51012h-7.93446C85.83477 50.00601 85.60831 49.77931 85.60831 49.49589z"/><path fill="#DDDCE0" d="M48.92266,31.68183c0,3.84852-3.1214,6.97584-6.97584,6.97584
				c-3.84852,0-6.96992-3.12731-6.96992-6.97584c0-3.85444,3.1214-6.97569,6.96992-6.97569
				C45.80127,24.70613,48.92266,27.82738,48.92266,31.68183z"/><circle cx="41.95" cy="46.679" r="14.284" fill="#EDEDED"/><path fill="#4A749B" d="M63.79994,92.34596v-8.22093c0-7.75964-6.29043-14.05007-14.05007-14.05007H34.11828
				c-7.75964,0-14.05007,6.29044-14.05007,14.05007v8.22093c0,1.7894,1.45059,3.23998,3.23998,3.23998h37.25176
				C62.34935,95.58595,63.79994,94.13536,63.79994,92.34596z"/><path fill="#F4BD98" d="M47.27512,61.8269v8.68351c0,2.94064-2.38222,5.3278-5.3278,5.3278
				c-2.94064,0-5.32285-2.38717-5.32285-5.3278V61.8269H47.27512z"/><circle cx="52.739" cy="57.202" r="3.452" fill="#F4BD98"/><circle cx="31.16" cy="57.202" r="3.452" fill="#F4BD98"/><path fill="#FFCEAB" d="M52.57707,52.63608v6.65099c0,5.86928-4.75799,10.62727-10.62727,10.62727h-0.00002
				c-5.86928,0-10.62727-4.758-10.62727-10.62727v-6.65099c0-5.86928,4.75799-10.62727,10.62727-10.62727h0.00002
				C47.81908,42.00881,52.57707,46.7668,52.57707,52.63608z"/><circle cx="47.075" cy="55.868" r="1.434" fill="#2F4867"/><path fill="#2F4867" d="M50.20953,53.06983c0,0.2616-0.21552,0.47699-0.47712,0.47699h-5.31385
					c-0.26673,0-0.47711-0.21539-0.47711-0.47699s0.21038-0.47699,0.47711-0.47699h5.31385
					C49.99402,52.59284,50.20953,52.80823,50.20953,53.06983z"/><circle cx="36.824" cy="55.868" r="1.434" fill="#2F4867"/><path fill="#2F4867" d="M39.95812,53.06983c0,0.2616-0.21552,0.47699-0.47711,0.47699h-5.31386
					c-0.26673,0-0.47711-0.21539-0.47711-0.47699s0.21038-0.47699,0.47711-0.47699h5.31386
					C39.74261,52.59284,39.95812,52.80823,39.95812,53.06983z"/><path fill="#F4BD98" d="M43.78521 59.43361c0 .52519-.82171 1.52938-1.83542 1.52938-1.01371 0-1.83542-1.00419-1.83542-1.52938C41.41388 59.80761 42.63749 59.80761 43.78521 59.43361zM45.1077 62.7164c0 .90362-1.41379 2.63136-3.15792 2.63136s-3.15792-1.72775-3.15792-2.63136C41.02774 63.35989 43.13302 63.35989 45.1077 62.7164z"/><path fill="#EDEDED" d="M55.01736,49.44068c-1.57146,2.51338-5.78135,2.72287-9.40701,0.45596
					c-3.62547-2.26678-5.28839-6.14819-3.71693-8.66157c1.57502-2.51906,5.79259-2.72355,9.41806-0.45676
					C54.93715,43.04522,56.59238,46.92162,55.01736,49.44068z"/><path fill="#EDEDED" d="M28.88221,49.44068c1.57147,2.51338,5.78135,2.72287,9.40701,0.45596
					c3.62547-2.26678,5.28839-6.14819,3.71693-8.66157c-1.57502-2.51906-5.79259-2.72355-9.41806-0.45676
					C28.96243,43.04522,27.3072,46.92162,28.88221,49.44068z"/></g></svg>