<svg xmlns="http://www.w3.org/2000/svg" viewBox="0 0 32 32"><g data-name="sign up"><circle cx="16" cy="16" r="13.89" fill="#f7cf3b"/><path fill="#65360f" d="M16,2.11A13.89,13.89,0,1,0,29.89,16,13.9,13.9,0,0,0,16,2.11Zm0,25.78A11.89,11.89,0,1,1,27.89,16,11.9,11.9,0,0,1,16,27.89Z"/><path fill="#f54946" d="M23.67,18l-7-7L18,9.75a1,1,0,0,0,.21-1.1A1,1,0,0,0,17.26,8l-8.11.12a1,1,0,0,0-1,1L8,17.26a1,1,0,0,0,.61.93.91.91,0,0,0,.39.08A1,1,0,0,0,9.75,18L11,16.7l7,7a1,1,0,0,0,1.41,0l4.25-4.25a1,1,0,0,0,0-1.41Z"/><path fill="#65360f" d="M23.67,18l-7-7L18,9.75a1,1,0,0,0,.21-1.1A1,1,0,0,0,17.26,8l-8.11.12a1,1,0,0,0-1,1L8,17.26a1,1,0,0,0,.61.93.91.91,0,0,0,.39.08A1,1,0,0,0,9.75,18L11,16.7l7,7a1,1,0,0,0,1.41,0l4.25-4.25a1,1,0,0,0,0-1.41Zm-5,3.53-7-7a1,1,0,0,0-1.41,0l-.25.25.07-4.67,4.67-.07-.25.25a1,1,0,0,0,0,1.41l7,7Z"/></g></svg>