<svg xmlns="http://www.w3.org/2000/svg" data-name="Layer 1" viewBox="0 0 128 128"><rect width="110" height="70" x="4" y="35" fill="#ffdb80" rx="4" ry="4"/><rect width="17.75" height="17.75" x="15.125" y="62.25" fill="#d68751"/><path fill="#ad9359" d="M64.91388 61h8.17169a1.8606 1.8606 0 0 0 1.35712-.54944 1.90805 1.90805 0 0 0-1.35712-3.2533H66.79968v-3.3808H71.1712a1.87424 1.87424 0 0 0 1.343-.54846 1.7865 1.7865 0 0 0 .57135-1.3385 1.93824 1.93824 0 0 0-1.91437-1.91571H66.79968V46.80267h6.28589a1.887 1.887 0 0 0 1.35712-.535A1.79472 1.79472 0 0 0 75 44.91571 1.91382 1.91382 0 0 0 73.08557 43H64.91388a1.78138 1.78138 0 0 0-1.37115.59161A1.90879 1.90879 0 0 0 63 44.91571V59.08429a1.79521 1.79521 0 0 0 .58551 1.36627A1.88826 1.88826 0 0 0 64.91388 61zM78.95062 61h6.54126a5.33687 5.33687 0 0 0 2.15131-.43561 5.73451 5.73451 0 0 0 1.75043-1.168 5.15252 5.15252 0 0 0 1.17621-1.82745A6.04565 6.04565 0 0 0 91 55.34686a5.239 5.239 0 0 0-.3584-1.92719 5.30992 5.30992 0 0 0-.99017-1.61688 5.72635 5.72635 0 0 0 .99017-1.63129A5.27406 5.27406 0 0 0 91 48.20319a5.11723 5.11723 0 0 0-.43018-2.0957 4.54846 4.54846 0 0 0-1.17621-1.61688 6.47288 6.47288 0 0 0-1.75043-1.0694A5.51021 5.51021 0 0 0 85.49188 43H78.77832a1.78788 1.78788 0 0 0-1.17633.562 1.94087 1.94087 0 0 0-.3725.50635A1.45346 1.45346 0 0 0 77 44.85626V59.11591a1.86966 1.86966 0 0 0 .54492 1.34985A2.20068 2.20068 0 0 0 78.95062 61zM80.7865 46.59961h4.70538a1.729 1.729 0 0 1 1.23334.49207 1.59209 1.59209 0 0 1 .5166 1.19574 1.66868 1.66868 0 0 1-.5166 1.23785 1.70247 1.70247 0 0 1-1.23334.50543H80.7865zm0 6.666h4.70538a1.72908 1.72908 0 0 1 1.23334.49213 2.45037 2.45037 0 0 1 0 3.00989 1.72908 1.72908 0 0 1-1.23334.49213H80.7865zM105.07312 43H94.89893a1.81377 1.81377 0 0 0-1.34625.56378A1.86248 1.86248 0 0 0 93 44.91571a1.80211 1.80211 0 0 0 .55267 1.352 1.86323 1.86323 0 0 0 1.34625.535h3.2027V59.08429a1.87168 1.87168 0 0 0 .53815 1.36627 1.95891 1.95891 0 0 0 2.72083 0 1.87525 1.87525 0 0 0 .53833-1.36627V46.80267h3.17419a1.89852 1.89852 0 0 0 1.37457-.535A1.80316 1.80316 0 0 0 107 44.91571 1.90549 1.90549 0 0 0 105.07312 43z" opacity=".45"/><path fill="#d68751" d="M124,26.87v62a3.96815,3.96815,0,0,1-2,3.44V39a12.00952,12.00952,0,0,0-12-12H14v-.13a3.99887,3.99887,0,0,1,4-4H120A3.99887,3.99887,0,0,1,124,26.87Z"/><path fill="#2d4356" d="M120,19H18a8.00917,8.00917,0,0,0-8,8h4a4.00427,4.00427,0,0,1,4-4H120a4.00427,4.00427,0,0,1,4,4V89a3.98652,3.98652,0,0,1-2,3.44366v4.293A8.00691,8.00691,0,0,0,128,89V27A8.00917,8.00917,0,0,0,120,19Z"/><path fill="#2d4356" d="M110,31H8a8.01062,8.01062,0,0,0-8,8v62a8.01066,8.01066,0,0,0,8,8H110a8.01066,8.01066,0,0,0,8-8V39A8.01062,8.01062,0,0,0,110,31Zm4,70a3.99891,3.99891,0,0,1-4,4H8a3.99891,3.99891,0,0,1-4-4V39a3.99887,3.99887,0,0,1,4-4H110a3.99887,3.99887,0,0,1,4,4Z"/><path fill="#2d4356" d="M64.91388 59h8.17169a1.8606 1.8606 0 0 0 1.35712-.54944 1.90805 1.90805 0 0 0-1.35712-3.2533H66.79968v-3.3808H71.1712a1.87424 1.87424 0 0 0 1.343-.54846 1.7865 1.7865 0 0 0 .57135-1.3385 1.93824 1.93824 0 0 0-1.91437-1.91571H66.79968V44.80267h6.28589a1.887 1.887 0 0 0 1.35712-.535A1.79472 1.79472 0 0 0 75 42.91571 1.91382 1.91382 0 0 0 73.08557 41H64.91388a1.78138 1.78138 0 0 0-1.37115.59161A1.90879 1.90879 0 0 0 63 42.91571V57.08429a1.79521 1.79521 0 0 0 .58551 1.36627A1.88826 1.88826 0 0 0 64.91388 59zM78.95062 59h6.54126a5.33687 5.33687 0 0 0 2.15131-.43561 5.73451 5.73451 0 0 0 1.75043-1.168 5.15252 5.15252 0 0 0 1.17621-1.82745A6.04565 6.04565 0 0 0 91 53.34686a5.239 5.239 0 0 0-.3584-1.92719 5.30992 5.30992 0 0 0-.99017-1.61688 5.72635 5.72635 0 0 0 .99017-1.63129A5.27406 5.27406 0 0 0 91 46.20319a5.11723 5.11723 0 0 0-.43018-2.0957 4.54846 4.54846 0 0 0-1.17621-1.61688 6.47288 6.47288 0 0 0-1.75043-1.0694A5.51021 5.51021 0 0 0 85.49188 41H78.77832a1.78788 1.78788 0 0 0-1.17633.562 1.94087 1.94087 0 0 0-.3725.50635A1.45346 1.45346 0 0 0 77 42.85626V57.11591a1.86966 1.86966 0 0 0 .54492 1.34985A2.20068 2.20068 0 0 0 78.95062 59zM80.7865 44.59961h4.70538a1.729 1.729 0 0 1 1.23334.49207 1.59209 1.59209 0 0 1 .5166 1.19574 1.66868 1.66868 0 0 1-.5166 1.23785 1.70247 1.70247 0 0 1-1.23334.50543H80.7865zm0 6.666h4.70538a1.72908 1.72908 0 0 1 1.23334.49213 2.45037 2.45037 0 0 1 0 3.00989 1.72908 1.72908 0 0 1-1.23334.49213H80.7865zM105.07312 41H94.89893a1.81377 1.81377 0 0 0-1.34625.56378A1.86248 1.86248 0 0 0 93 42.91571a1.80211 1.80211 0 0 0 .55267 1.352 1.86323 1.86323 0 0 0 1.34625.535h3.2027V57.08429a1.87168 1.87168 0 0 0 .53815 1.36627 1.95891 1.95891 0 0 0 2.72083 0 1.87525 1.87525 0 0 0 .53833-1.36627V44.80267h3.17419a1.89852 1.89852 0 0 0 1.37457-.535A1.80316 1.80316 0 0 0 107 42.91571 1.90549 1.90549 0 0 0 105.07312 41zM17 82H31a4 4 0 0 0 4-4V64a4 4 0 0 0-4-4H17a4 4 0 0 0-4 4V78A4 4 0 0 0 17 82zm0-18H31V78H17zM93 86H15a2 2 0 0 0 0 4H93a2 2 0 0 0 0-4zM61 94H15a2 2 0 0 0 0 4H61a2 2 0 0 0 0-4z"/><path fill="#e5d0c3" d="M124,27v2a3.99887,3.99887,0,0,0-4-4H18a3.98007,3.98007,0,0,0-3.46,2H14a3.99887,3.99887,0,0,1,4-4H120A3.99887,3.99887,0,0,1,124,27Z" opacity=".3"/><path fill="#ad9359" d="M114,99v2a3.99891,3.99891,0,0,1-4,4H8a3.999,3.999,0,0,1-4-4V99a3.999,3.999,0,0,0,4,4H110A3.99891,3.99891,0,0,0,114,99Z" opacity=".45"/><path fill="#f9edd2" d="M114,39v2a3.99887,3.99887,0,0,0-4-4H8a3.99891,3.99891,0,0,0-4,4V39a3.99891,3.99891,0,0,1,4-4H110A3.99887,3.99887,0,0,1,114,39Z" opacity=".5"/><rect width="14" height="2" x="17" y="64" fill="#e5d0c3" opacity=".3"/><rect width="14" height="2" x="17" y="76" fill="#72492d" opacity=".4"/></svg>