<svg xmlns="http://www.w3.org/2000/svg" viewBox="0 0 64 64"><path fill="#dad4d4" d="M22,44l5-3,5,3V63H23.66l-.9-3.4,1.74-1a3.007,3.007,0,0,0,1.1-4.1l-.64-1.1a2.979,2.979,0,0,0-3.2-1.43L17.77,37h3.45Z"/><polygon fill="#b7b7b7" points="32 61 32 63 23.66 63 23.13 61 32 61"/><path fill="#9e7059" d="M44,12v4.5a1.5,1.5,0,0,0-3,0V13c-7,1-13-5-13-5-1,3-5,5-5,5v3.5a1.5,1.5,0,0,0-3,0V12A10.994,10.994,0,0,1,31,1h2A10.994,10.994,0,0,1,44,12Z"/><path fill="#995b3f" d="M44,12v4.5a1.5,1.5,0,0,0-3,0V12A11,11,0,0,0,30.57,1.01C30.71,1,30.86,1,31,1h2A10.994,10.994,0,0,1,44,12Z"/><path fill="#bfa599" d="M26.22 8.39c-.37.01-.75.02-1.14.02a25.957 25.957 0 0 1-4.35-.36c.06-.15.11-.29.18-.43A21.654 21.654 0 0 0 26.22 8.39zM38.885 5.992a20.881 20.881 0 0 1-7.054 1.36c.38.01.76.02 1.15.02a25.16 25.16 0 0 0 5.988-.69A6.876 6.876 0 0 0 38.885 5.992zM41.97 5.63a12.858 12.858 0 0 1-1.94.76c-.04-.28-.1-.56-.13-.83a14.182 14.182 0 0 0 1.4-.77A10.719 10.719 0 0 1 41.97 5.63z"/><path fill="#995b3f" d="M30,4V9a1.006,1.006,0,0,1-.16.54A18.013,18.013,0,0,1,28,8V4a1,1,0,0,1,2,0Z"/><polygon fill="#666" points="44 48 44 55 40 57 36 55 36 48 44 48"/><path fill="#4d4d4d" d="M44,48v7l-4,2-2-1,.683-.342A6,6,0,0,0,42,50.292V48Z"/><polygon fill="#eaeaea" points="43 35 42.78 37 42 44 37 41 32 44 38.23 32.42 39 31 43 35"/><path fill="#dad4d4" d="M43,35l-.22,2L42,44l-5-3-5,3,3.17-5.9h0a3.615,3.615,0,0,0,5.454-2.7L40.78,34l.12-1.1Z"/><path fill="#dad4d4" d="M43,63H32V44l5-3,5,3,.78-7s5.65.01,5.86.03A6.145,6.145,0,0,1,54,43.23V63Zm1-8V48H36v7l4,2Z"/><path fill="#b7b7b7" d="M54 43.23V63H32V61H46a6 6 0 0 0 6-6V41.23a6.408 6.408 0 0 0-.97-3.39A6.346 6.346 0 0 1 54 43.23zM45 37l-.735 8.082a2 2 0 0 1-2.886 1.608l-2.485-1.243a2 2 0 0 0-1.788 0L32 48V44l5-3 5 3 .78-7z"/><polygon fill="#666" points="25.77 32.42 32 44 27 41 22 44 21.22 37 21 35 25 31 25.77 32.42"/><polygon fill="#eaeaea" points="25.77 32.42 32 44 27 41 22 44 21.22 37 21 35 25 31 25.77 32.42"/><path fill="#b7b7b7" d="M32,44v4l-6.213-2.663a1.673,1.673,0,0,0-1.521.1l-1.907,1.147a1.534,1.534,0,0,1-2.274-.92L19.64,44,19,37h2.22L22,44l5-3Z"/><path fill="#eaeaea" d="M15.74,52.68l.89-.51,1.12,1.93,3.63,6.3h.01l.76,1.32L19.93,63H1.04c.16-.63.39-1.38.68-2.23Z"/><path fill="#dad4d4" d="M22.15,61.72,19.93,63H1.04c.15-.57.35-1.24.6-2h14.3a1.7,1.7,0,0,0,1.448-2.6h-.01l-2.88-5,1.24-.72.89-.51,1.12,1.93,3.63,6.3h.01Z"/><path fill="#dad4d4" d="M11.99,38.59l3.75,14.09L1.72,60.77C4.22,53.54,11.12,39.4,11.99,38.59Z"/><polygon fill="#85182a" points="22.76 59.6 23.66 63 19.93 63 22.15 61.72 21.39 60.4 22.76 59.6"/><path fill="#bd1f36" d="M17.77,37l3.99,14.97a2.666,2.666,0,0,0-.89.33l-3.12,1.8-1.12-1.93-.89.51L11.99,38.59l-.36-1.36a2,2,0,0,1,1.41-2.45l1.94-.52a2,2,0,0,1,2.44,1.42Z"/><path fill="#a71e34" d="M21.76,51.97a2.666,2.666,0,0,0-.89.33l-1.29.75L15.77,38.13l-.35-1.38a2,2,0,0,0-2.44-1.49l-1.05.3a1.872,1.872,0,0,1,1.11-.78l1.94-.52a2,2,0,0,1,2.44,1.42L17.77,37Z"/><path fill="#f9b9a5" d="M25.6,54.5a3.007,3.007,0,0,1-1.1,4.1l-1.74,1-1.37.8h-.01l-3.63-6.3,3.12-1.8a2.666,2.666,0,0,1,.89-.33,2.979,2.979,0,0,1,3.2,1.43Z"/><path fill="#ffa180" d="M24.5,58.6l-1.74,1-1.37.8h-.01l-1.1-1.92.48-.28,1.74-1a3.007,3.007,0,0,0,1.1-4.1L22.96,52c-.01-.01-.01-.02-.02-.03a2.94,2.94,0,0,1,2.02,1.43l.64,1.1A3.007,3.007,0,0,1,24.5,58.6Z"/><path fill="#f9b9a5" d="M37.92,27.78a17.9,17.9,0,0,0,.31,4.64L32,44,25.77,32.42a17.9,17.9,0,0,0,.31-4.64v-.01C28.46,29.45,30.16,30,32,30a8.926,8.926,0,0,0,5.92-2.23Z"/><path fill="#ffa180" d="M37.93,30.28A10.865,10.865,0,0,1,32,32a11.066,11.066,0,0,1-5.93-1.8,16,16,0,0,0,.01-2.42v-.01C28.46,29.45,30.16,30,32,30a8.926,8.926,0,0,0,5.92-2.23v.01A17.079,17.079,0,0,0,37.93,30.28Z"/><path fill="#f9b9a5" d="M44,16.5v4a1.5,1.5,0,0,1-3,0v-4a1.5,1.5,0,0,1,3,0Z"/><path fill="#ffd5c2" d="M41,16.5V21a9.016,9.016,0,0,1-9,9c-1.84,0-3.54-.55-5.92-2.23-.15-.13-.3-.27-.44-.41A8.954,8.954,0,0,1,23,21V13s4-2,5-5c0,0,6,6,13,5Z"/><path fill="#fcad95" d="M41,13v8a9.016,9.016,0,0,1-9,9,8.838,8.838,0,0,1-4.82-1.5A7.928,7.928,0,0,0,30,29a9.016,9.016,0,0,0,9-9V13.1A10.4,10.4,0,0,0,41,13Z"/><path fill="#ffd5c2" d="M23,20.5a1.5,1.5,0,0,1-3,0v-4a1.5,1.5,0,0,1,3,0Z"/><path fill="#472b3c" d="M29.555 17.832a1 1 0 1 0-1.11-1.664 1.785 1.785 0 0 1-1.9 0 1 1 0 0 0-1.1 1.669 3.937 3.937 0 0 0 2.1.614A3.57 3.57 0 0 0 29.555 17.832zM29.1 24.6a1 1 0 0 0 .477 1.331 6.368 6.368 0 0 0 2.507.513 5.467 5.467 0 0 0 2.347-.513 1 1 0 0 0-.854-1.809 4.125 4.125 0 0 1-3.151 0A1 1 0 0 0 29.1 24.6zM36.548 18.446a3.57 3.57 0 0 0 2.007-.614 1 1 0 1 0-1.11-1.664 1.785 1.785 0 0 1-1.9 0 1 1 0 0 0-1.1 1.669A3.937 3.937 0 0 0 36.548 18.446z"/><path fill="#472b3c" d="M.752,63.183A1.981,1.981,0,0,0,2.365,64H54a1,1,0,0,0,1-1V43.232a7.168,7.168,0,0,0-6.266-7.2c-.214-.02-1.721-.031-2.948-.036h0a1,1,0,0,0,0,2c1.227.005,2.6.017,2.763.026A5.153,5.153,0,0,1,53,43.232V62H44V59a1,1,0,0,0-2,0v3l-9,0V44.566l4-2.4,4.485,2.691a1,1,0,0,0,1.509-.747l1-9a1,1,0,0,0-.287-.817l-4-4a.99.99,0,0,0-.782-.276,17.754,17.754,0,0,1-.03-1.792,9.987,9.987,0,0,0,2.92-5.332A2.464,2.464,0,0,0,42.5,23,2.5,2.5,0,0,0,45,20.5V12A12.013,12.013,0,0,0,33,0H31A12.013,12.013,0,0,0,19,12v8.5A2.5,2.5,0,0,0,21.5,23a2.464,2.464,0,0,0,.685-.107,9.974,9.974,0,0,0,2.92,5.331c.017.45.015,1.083-.03,1.793a1,1,0,0,0-.782.276l-4,4a1,1,0,0,0-.287.817l1,9a1,1,0,0,0,1.509.747L27,42.166l4,2.4V62H24.433l-.509-1.912L25,59.464A4,4,0,0,0,26.464,54l-.634-1.1A3.971,3.971,0,0,0,23.4,51.038a4.061,4.061,0,0,0-.885-.125L18.391,35.426A3,3,0,0,0,14.72,33.3l-1.932.515a3,3,0,0,0-2.127,3.671l.242.912A164.164,164.164,0,0,0,.46,61.39,2.016,2.016,0,0,0,.752,63.183Zm41.2-27.816-.775,6.974-3.663-2.2a1,1,0,0,0-1.03,0L34.6,41.271l4.638-8.614ZM43,20.5a.5.5,0,0,1-1,0v-4a.5.5,0,0,1,1,0v4ZM31,2h2A10.011,10.011,0,0,1,43,12v2.051a2.476,2.476,0,0,0-1,0V13a1,1,0,0,0-1.142-.99c-5.583.8-10.613-3.327-11.858-4.446V5a1,1,0,0,0-2,0V7.828c-.938,2.489-4.413,4.26-4.448,4.278A1,1,0,0,0,22,13v1.051a2.476,2.476,0,0,0-1,0V12A10.011,10.011,0,0,1,31,2ZM21.5,21a.5.5,0,0,1-.5-.5v-4a.5.5,0,0,1,1,0v4A.5.5,0,0,1,21.5,21ZM24,21V13.591a12.843,12.843,0,0,0,4.329-3.959C30.28,11.243,34.764,14.354,40,14.1V21a8,8,0,0,1-16,0Zm8,10a9.926,9.926,0,0,0,4.9-1.3,18.734,18.734,0,0,0,.282,2.554L32,41.891,26.814,32.26a18.747,18.747,0,0,0,.282-2.555A9.926,9.926,0,0,0,32,31Zm-4.485,9.143a1,1,0,0,0-1.03,0l-3.663,2.2-.775-6.974,2.71-2.71L29.4,41.271ZM2.54,61.462l13.728-7.926,4.513,7.817L19.667,62l-17.3,0C2.42,61.823,2.48,61.643,2.54,61.462ZM24.1,53.9l.634,1.1A2,2,0,0,1,24,57.731l-2.25,1.3-2.634-4.562,2.25-1.3A2,2,0,0,1,24.1,53.9Zm-11.4-17.691a.988.988,0,0,1,.608-.465l1.933-.515a1,1,0,0,1,1.223.709l4.1,15.409c-.064.032-.133.052-.2.089l-2.25,1.3L17.5,51.67a1,1,0,0,0-.607-.466.983.983,0,0,0-.5.014l-3.8-14.248A1,1,0,0,1,12.694,36.211ZM14.58,52.2,3.62,58.529c2.277-5.789,6.1-13.789,8.011-17.4Z"/><path fill="#472b3c" d="M36,47a1,1,0,0,0-1,1v7a1,1,0,0,0,.553.9l4,2a1,1,0,0,0,.894,0l4-2A1,1,0,0,0,45,55V48a1,1,0,0,0-1-1Zm7,7.382-3,1.5-3-1.5V49h6Z"/></svg>