<svg xmlns="http://www.w3.org/2000/svg" viewBox="0 0 512 512"><g data-name="43.Lotion"><path fill="#d6f2d9" d="M506,257.29V433.21a61.7332,61.7332,0,0,1-61.73,61.73H67.73A61.7332,61.7332,0,0,1,6,433.21V257.29a61.6765,61.6765,0,0,1,61.73-61.73H444.27A61.6765,61.6765,0,0,1,506,257.29Z"/><circle cx="256" cy="351.834" r="100.834" fill="#fff"/><path fill="#85bc95" d="M299.3608,368.8309c18.2056-17.5974,23.7729-40.8242,23.7729-40.8242s-23.95,5.304-42.1556,22.9014a86.86,86.86,0,0,0-15.9415,21.4247,101.0346,101.0346,0,0,0,6.2967-33.7565c.0634-29.3434-15.21-53.1641-15.21-53.1641s-15.3759,23.7545-15.4393,53.098a101.0367,101.0367,0,0,0,6.1508,33.7834A86.858,86.858,0,0,0,230.9863,350.8c-18.13-17.6759-42.0563-23.0834-42.0563-23.0834s5.4668,23.2508,23.5963,40.9266a79.6132,79.6132,0,0,0,7.0592,6.1024,70.8216,70.8216,0,0,0-30.7192,8.814s14.683,8.9578,32.8191,8.997a61.9028,61.9028,0,0,0,13.607-1.55,44.2627,44.2627,0,0,0-10.79,18.815s11.2706-2.4961,19.8379-10.7772a38.2079,38.2079,0,0,0,4.5391-5.303l-2.8945,24.4765,17.5137.0379-3.1172-27.3731c.176-.0517.36-.1067.5487-.1635a39.9182,39.9182,0,0,0,6.485,8.375c8.5316,8.3181,19.7913,10.8628,19.7913,10.8628a44.2627,44.2627,0,0,0-10.7084-18.8614,61.912,61.912,0,0,0,13.6,1.6083c18.1361.0392,32.8576-8.8551,32.8576-8.8551a70.8208,70.8208,0,0,0-30.6808-8.9466A79.6144,79.6144,0,0,0,299.3608,368.8309Z"/><path fill="#cfdce5" d="M458.93,172.41v6.17a30.7451,30.7451,0,0,1-5.54,17.65,62.2523,62.2523,0,0,0-9.12-.67H67.73a62.2534,62.2534,0,0,0-9.12.67,30.7451,30.7451,0,0,1-5.54-17.65v-6.17a30.845,30.845,0,0,1,30.86-30.86H428.07a30.8448,30.8448,0,0,1,30.86,30.86Z"/><path fill="#f2f2f2" d="M438.87,121.48a60.29,60.29,0,0,1-3.72,20.89,30.5566,30.5566,0,0,0-7.08-.82H83.93a30.5551,30.5551,0,0,0-7.08.82,60.2562,60.2562,0,0,1,17.92-67.1A63.5885,63.5885,0,0,0,109.23,58.3l19.43-33.65a15.1691,15.1691,0,0,1,26.28,0l3.35,5.78A61.7139,61.7139,0,0,0,211.74,61.3H378.69a60.1755,60.1755,0,0,1,60.18,60.18Z"/><path d="M444.27,499.94H67.73A66.8053,66.8053,0,0,1,1,433.21V257.29a66.7378,66.7378,0,0,1,56.8774-66.0058A67.4559,67.4559,0,0,1,67.73,190.56H444.27a67.4774,67.4774,0,0,1,9.8535.7246A66.738,66.738,0,0,1,511,257.29V433.21A66.8053,66.8053,0,0,1,444.27,499.94ZM67.73,200.56A56.6856,56.6856,0,0,0,11,257.29V433.21a56.7945,56.7945,0,0,0,56.73,56.73H444.27A56.7945,56.7945,0,0,0,501,433.21V257.29a56.6845,56.6845,0,0,0-56.73-56.73Z"/><path d="M256,457.6689A105.8345,105.8345,0,1,1,361.8345,351.834,105.9546,105.9546,0,0,1,256,457.6689ZM256,256a95.8345,95.8345,0,1,0,95.8345,95.834A95.943,95.943,0,0,0,256,256Z"/><path d="M263.499 423.2568h-.0107l-17.5137-.038a5 5 0 0 1-4.9546-5.587l1.2373-10.4648a52.4328 52.4328 0 0 1-16.6733 7.5371 5 5 0 0 1-5.9429-6.0488 47.9353 47.9353 0 0 1 4.5982-11.1475c-.8609.0332-1.7193.041-2.565.0488-19.3125-.042-34.7637-9.333-35.4121-9.7285a5 5 0 0 1 .02-8.5488 75.4961 75.4961 0 0 1 21.6909-8.1113c-18.11-18.3213-23.6777-41.3184-23.91-42.3067a5 5 0 0 1 5.9692-6.0215c1.0332.2334 25.5215 5.9307 44.4444 24.38q.903.88 1.7827 1.793a94.1161 94.1161 0 0 1-.5752-10.5137c.0659-30.4638 15.5815-54.7832 16.2422-55.8037a4.9991 4.9991 0 0 1 4.1972-2.2832h.0108a5 5 0 0 1 4.1982 2.3008c.6563 1.0234 16.0664 25.4092 16.001 55.874a93.9716 93.9716 0 0 1-.6206 10.5117q.884-.91 1.79-1.7851c19.0025-18.3682 43.5157-23.959 44.55-24.1885a5 5 0 0 1 5.9434 6.0469c-.2368.9873-5.9043 23.96-24.0933 42.2031a75.5533 75.5533 0 0 1 21.6558 8.2051 5 5 0 0 1-.0171 8.5488c-.6484.3916-16.07 9.5752-35.32 9.5752h-.1338q-1.2729-.003-2.564-.06a47.9316 47.9316 0 0 1 4.55 11.167 5 5 0 0 1-5.9687 6.0235 52.2183 52.2183 0 0 1-19.0317-9.3887l1.394 12.2451a4.9992 4.9992 0 0 1-4.9678 5.5654zM251.61 413.2314l6.2861.0127-2.4819-21.7959a5 5 0 0 1 3.58-5.3691l.4248-.126a5.0829 5.0829 0 0 1 5.8223 2.2344 34.8747 34.8747 0 0 0 5.6646 7.3271 35.5126 35.5126 0 0 0 6.7714 5.1143 34.5542 34.5542 0 0 0-4.7255-6.0088 5 5 0 0 1 4.66-8.3994 56.7887 56.7887 0 0 0 12.4971 1.4834h.11a61.8246 61.8246 0 0 0 20.7387-3.88 62.9153 62.9153 0 0 0-18.8833-3.9258 5 5 0 0 1-2.8281-8.9736 75.0451 75.0451 0 0 0 6.64-5.6885c10.1392-9.8008 16.1568-21.6074 19.357-29.52-8.188 3.0576-20.5386 8.8779-30.79 18.7861a81.3886 81.3886 0 0 0-15.0093 20.1914 5 5 0 0 1-9.1093-4.06 95.1344 95.1344 0 0 0 5.999-32.0684c.0381-17.7685-5.9609-33.59-10.2329-42.5957-4.31 8.9864-10.3779 24.7813-10.4165 42.5508a95.1145 95.1145 0 0 0 5.86 32.0938 5 5 0 0 1-9.1269 4.0214A81.38 81.38 0 0 0 227.4961 354.38c-10.2515-9.9951-22.5566-15.8565-30.7153-18.9356 3.164 7.9239 9.1318 19.7676 19.2358 29.6192a75.0145 75.0145 0 0 0 6.6167 5.7187 5 5 0 0 1-2.8687 8.961 62.82 62.82 0 0 0-18.92 3.8359 61.8035 61.8035 0 0 0 20.8521 3.9775 54.1234 54.1234 0 0 0 12.5049-1.43 5 5 0 0 1 4.623 8.4189 34.5429 34.5429 0 0 0-4.7378 5.9668 35.29 35.29 0 0 0 6.7793-5.0625 33.3323 33.3323 0 0 0 3.9434-4.6113 5 5 0 0 1 9.0361 3.49zm47.7509-44.4h0zM453.3911 201.2305a5.0471 5.0471 0 0 1-.7344-.0537 57.3807 57.3807 0 0 0-8.3867-.6172H67.73a57.3807 57.3807 0 0 0-8.3867.6172 5.0035 5.0035 0 0 1-4.8335-2.085A35.6638 35.6638 0 0 1 48.07 178.58v-6.17a35.8486 35.8486 0 0 1 35.86-35.86H428.07a35.8464 35.8464 0 0 1 35.86 35.86v6.17a35.6612 35.6612 0 0 1-6.44 20.5117A4.9988 4.9988 0 0 1 453.3911 201.2305zM83.93 146.55a25.8469 25.8469 0 0 0-25.86 25.86v6.17a25.7225 25.7225 0 0 0 3.1035 12.3c2.1768-.2129 4.3716-.32 6.5567-.32H444.27c2.1851 0 4.38.1074 6.5567.32a25.7294 25.7294 0 0 0 3.103-12.3v-6.17a25.8447 25.8447 0 0 0-25.86-25.86z"/><path d="M76.8477,147.3711a5.0015,5.0015,0,0,1-4.689-3.2715,65.2572,65.2572,0,0,1,19.4062-72.668,58.538,58.538,0,0,0,13.336-15.6328L124.33,22.15a20.1689,20.1689,0,0,1,34.94.001l3.3452,5.7705A56.8672,56.8672,0,0,0,211.74,56.3H378.69a65.2305,65.2305,0,0,1,61.1514,87.8,5,5,0,0,1-5.8486,3.1348,25.6276,25.6276,0,0,0-5.9229-.6846H83.93a25.6265,25.6265,0,0,0-5.9224.6846A5.0264,5.0264,0,0,1,76.8477,147.3711ZM141.8,22.0605a10.0684,10.0684,0,0,0-8.81,5.0889L113.56,60.8A68.467,68.467,0,0,1,97.9707,79.11a55.2614,55.2614,0,0,0-17.707,57.625,36.3,36.3,0,0,1,3.666-.1856H428.07a36.31,36.31,0,0,1,3.6665.1856A55.1965,55.1965,0,0,0,378.69,66.3H211.74A66.8911,66.8911,0,0,1,153.959,32.9287l-3.3447-5.77A10.0719,10.0719,0,0,0,141.8,22.0605Z"/></g></svg>