<?xml version="1.0" standalone="no"?>
<!DOCTYPE svg PUBLIC "-//W3C//DTD SVG 20010904//EN"
 "https://www.w3.org/TR/2001/REC-SVG-20010904/DTD/svg10.dtd">
<svg version="1.0" xmlns="http://www.w3.org/2000/svg"
 width="133.000000pt" height="132.324227pt" viewBox="0 0 133.000000 132.324227"
 preserveAspectRatio="xMidYMid meet">
<metadata>
Created by potrace 1.12, written by Peter Selinger 2001-2015
</metadata>
<g transform="translate(-66.000000,182.000000) scale(0.100000,-0.100000)"
stroke="none">
<path d="M1830 1770 c-21 -32 -48 -59 -72 -71 -24 -12 -43 -31 -49 -47 -6 -17
-21 -32 -40 -39 -19 -8 -35 -23 -42 -42 -6 -17 -17 -31 -23 -31 -7 0 -22 -11
-34 -23 -19 -20 -31 -23 -69 -20 l-46 4 -325 -325 -325 -326 105 -105 105
-105 313 312 c172 172 320 326 329 342 8 16 13 41 9 56 -4 21 1 33 20 50 13
13 24 29 24 36 0 7 12 19 28 26 15 7 34 28 42 45 8 18 22 33 31 33 20 0 59 41
59 62 0 8 27 34 60 57 33 23 60 46 60 49 0 12 -105 112 -117 112 -6 0 -25 -23
-43 -50z m-511 -584 c45 -24 63 -83 40 -129 -49 -96 -189 -64 -189 43 0 79 76
123 149 86z"/>
<path d="M1222 1147 c-36 -44 -12 -109 41 -109 58 0 89 69 49 105 -22 20 -75
22 -90 4z"/>
<path d="M712 756 c-29 -30 -52 -61 -52 -68 0 -7 43 -56 94 -107 108 -107 104
-107 176 -28 l44 48 -105 105 -105 105 -52 -55z"/>
</g>
</svg>
