<svg xmlns="http://www.w3.org/2000/svg" data-name="Layer 1" viewBox="0 0 128 128"><path fill="#d68751" d="M17.5,75.66667l27.50024-5.83333H83.36692l24.13308,4.5S111.83333,76,115.16667,86.16667,126,128,126,128H2Z"/><path fill="#fc785e" d="M95,91.09961a7.9947,7.9947,0,0,1,3.75.93494V72.3125H90.625V92.41711A7.98225,7.98225,0,0,1,95,91.09961Z"/><path fill="#d68751" d="M84.43,32.55c-.2.25-1.54,1.5-8.42,1.45H51.96c-6.88.06-8.2-1.2-8.4-1.45-.04-.05-.06-.08-.03-.24a5.288,5.288,0,0,0,.04-2.02,62.35755,62.35755,0,0,1,19.47-3.52c.31-.00995.63-.02.96-.02a63.17446,63.17446,0,0,1,20.42,3.54,5.49881,5.49881,0,0,0,.04,2.02C84.49,32.47,84.47,32.5,84.43,32.55Z"/><path fill="#d68751" d="M87.44,25.98a6.243,6.243,0,0,0-1.06.77,65.29723,65.29723,0,0,0-22.36-4h-.01c-.37,0-.73.01-1.07.02a65.00979,65.00979,0,0,0-21.33,3.98,5.86922,5.86922,0,0,0-1.06-.77c-1.79-1-1.59-1.84-1.5-2.25.51-2.2,2.85-7.13,6.95-11.51C50.11,7.83,55.98,4,63.55,4c.16,0,.33,0,.49.01C79.4,3.66,87.9,19.29,88.95,23.73,89.04,24.13,89.24,24.98,87.44,25.98Z"/><path fill="#e1ebf4" d="M81.95,37.62C81.32,49.15,73.53,62.75,64,62.75S46.68,49.15,46.05,37.63A35.38823,35.38823,0,0,0,51.6,38H76A36.356,36.356,0,0,0,81.95,37.62Z"/><path fill="#2d4356" d="M68.92,10.24l-.91-.5-.5-.91a4.00162,4.00162,0,0,0-7.02,0l-.5.91-.91.5a4.00156,4.00156,0,0,0,0,7.02l.91.5.5.91a4.00156,4.00156,0,0,0,7.02,0l.5-.91.91-.5a4.00156,4.00156,0,0,0,0-7.02Zm-3.86,4.57L64,16.75l-1.06-1.94L61,13.75l1.94-1.06L64,10.75l1.06,1.94L67,13.75Z"/><polygon fill="#ffdb80" points="67 13.75 65.06 14.81 64 16.75 62.94 14.81 61 13.75 62.94 12.69 64 10.75 65.06 12.69 67 13.75"/><path fill="#2d4356" d="M127.93,125.46l-12.4-44.72a12.1679,12.1679,0,0,0-9.86-8.77L87.11,69.09a13.79808,13.79808,0,0,1-8.66-5l-2.38-2.96C82.05,55.14,85.94,45.3,86,36.34a5.519,5.519,0,0,0,1.53-1.26,4.22476,4.22476,0,0,0,.84-3.61,1.91933,1.91933,0,0,1,1.02-2c3.85-2.14,3.82-5.08,3.45-6.65C91.45,16.91,81.82,0,64.61,0c-.19,0-.38,0-.57.01C63.84,0,63.65,0,63.46,0,46.14,0,36.53,16.91,35.16,22.82c-.37,1.57-.41,4.50995,3.45,6.65a1.92621,1.92621,0,0,1,1.01,2,4.23248,4.23248,0,0,0,.84,3.61A5.59444,5.59444,0,0,0,42,36.35c.07,8.96,3.95,18.79,9.93,24.78l-2.38,2.96a13.79808,13.79808,0,0,1-8.66,5L22.33,71.97a12.1679,12.1679,0,0,0-9.86,8.77L.07,125.46a2.01237,2.01237,0,0,0,1.4,2.47A1.98312,1.98312,0,0,0,2,128a2.00448,2.00448,0,0,0,1.93-1.47L14.53,88.3l1.9,4.16a2.00295,2.00295,0,0,0,1.82,1.16,1.85585,1.85585,0,0,0,.83-.18,1.997,1.997,0,0,0,.99-2.65l-3.5-7.62a1.90574,1.90574,0,0,0-.45-.62l.21-.74a8.16457,8.16457,0,0,1,6.61-5.89l17.08-2.65a4.55747,4.55747,0,0,0,.13.62006l2.08,6.67-.46.02a4.00465,4.00465,0,0,0-2.4,7.01l22,19.17a3.83084,3.83084,0,0,0,.63.45V126a2,2,0,0,0,4,0v-3h2a2,2,0,0,0,0-4H66v-4h2a2,2,0,0,0,0-4H66v-3.79a3.83084,3.83084,0,0,0,.63-.45l22-19.17a4.30158,4.30158,0,0,0,.37-.37v6.62a7.92652,7.92652,0,0,1,4-2.46V74.05l4,.62V91.38a7.92652,7.92652,0,0,1,4,2.46V75.29l4.06.63a8.16457,8.16457,0,0,1,6.61,5.89l.21.74a1.90574,1.90574,0,0,0-.45.62l-3.5,7.62a1.997,1.997,0,0,0,.99,2.65,1.85585,1.85585,0,0,0,.83.18,2.00295,2.00295,0,0,0,1.82-1.16l1.9-4.16,10.6,38.23A2.00448,2.00448,0,0,0,126,128a1.98312,1.98312,0,0,0,.53-.07A2.01237,2.01237,0,0,0,127.93,125.46ZM41.61,26.75a5.86922,5.86922,0,0,0-1.06-.77c-1.79-1-1.59-1.84-1.5-2.25.51-2.2,2.85-7.13,6.95-11.51C50.11,7.83,55.98,4,63.55,4c.16,0,.33,0,.49.01C79.4,3.66,87.9,19.29,88.95,23.73c.09.4.29,1.25-1.51,2.25a6.243,6.243,0,0,0-1.06.77,65.29723,65.29723,0,0,0-22.36-4h-.01c-.37,0-.73.01-1.07.02A65.00979,65.00979,0,0,0,41.61,26.75Zm1.95,5.8c-.04-.05-.06-.08-.03-.24a5.288,5.288,0,0,0,.04-2.02,62.35755,62.35755,0,0,1,19.47-3.52c.31-.00995.63-.02.96-.02a63.17446,63.17446,0,0,1,20.42,3.54,5.49881,5.49881,0,0,0,.04,2.02c.03.16.00995.19-.03.24-.2.25-1.54,1.5-8.42,1.45H51.96C45.08,34.06,43.76,32.8,43.56,32.55Zm2.49,5.08A35.38823,35.38823,0,0,0,51.6,38H76a36.356,36.356,0,0,0,5.95-.38C81.32,49.15,73.53,62.75,64,62.75S46.68,49.15,46.05,37.63ZM62,100v2.01L42,84.58,47.57,84.26l-3.6-11.57,3.21-.94L62.01,99.89C62.01,99.93,62,99.96,62,100Zm2-4.91L50.72,69.88a3.73154,3.73154,0,0,0-.54-.76,18.53774,18.53774,0,0,0,2.49-2.52l2.32-2.89a14.87187,14.87187,0,0,0,18.02,0l2.32,2.89a18.53774,18.53774,0,0,0,2.49,2.52,3.73154,3.73154,0,0,0-.54.76Zm2,6.92V100c0-.04-.01-.07-.01-.11L80.82,71.75l3.21.94-3.6,11.57L86,84.58ZM89,81.95A4.0231,4.0231,0,0,0,86.23,80.58l-.46-.02,2.08-6.67a4.55747,4.55747,0,0,0,.13-.62006l1.02.16Z"/><path fill="#ffdb80" d="M66 102.01V100c0-.04-.01-.07-.01-.11L80.82 71.75l3.21.94-3.6 11.57L86 84.58zM62.01 99.89c0 .04-.01.06995-.01.11v2.01L42 84.58 47.57 84.26l-3.6-11.57 3.21-.94z"/><path fill="#e1ebf4" d="M77.82,69.12a3.73154,3.73154,0,0,0-.54.76L64,95.09,50.72,69.88a3.73154,3.73154,0,0,0-.54-.76,18.53774,18.53774,0,0,0,2.49-2.52l2.32-2.89a14.87187,14.87187,0,0,0,18.02,0l2.32,2.89A18.53774,18.53774,0,0,0,77.82,69.12Z"/><path fill="#2d4356" d="M46.72,111.13a4.00374,4.00374,0,0,0-3.03-1.38H24.31a3.98308,3.98308,0,0,0-3.02,1.38,3.94277,3.94277,0,0,0-.94,3.19l1.67,11.71a1.99968,1.99968,0,1,0,3.96-.56l-.53-3.72h17.1l-.53,3.72a1.9959,1.9959,0,0,0,1.7,2.26,2.63325,2.63325,0,0,0,.28.02,2.00073,2.00073,0,0,0,1.98-1.72l1.67-11.72A3.9601,3.9601,0,0,0,46.72,111.13Zm-3.6,6.62H24.88l-.57-4H43.69Z"/><polygon fill="#ffdb80" points="43.69 113.75 43.12 117.75 24.88 117.75 24.31 113.75 43.69 113.75"/><path fill="#2d4356" d="M43.00024 105.74921a2 2 0 0 0 0-4H25.00049a2 2 0 0 0 0 4zM102.64 100.64H99.71l-.91-2.78a3.99592 3.99592 0 0 0-7.6 0l-.91 2.78H87.37a4.00018 4.00018 0 0 0-2.35 7.24l2.36 1.72-.9 2.78a3.99272 3.99272 0 0 0 6.15 4.47L95 115.13l2.37 1.72a3.99644 3.99644 0 0 0 6.15-4.47l-.9-2.78 2.3-1.67a4.00682 4.00682 0 0 0-2.28-7.29zm-4.73 7.43l1.81 5.55L95 110.19l-4.72 3.43 1.8-5.55-4.71-3.43H93.2L95 99.1l1.8 5.54h5.83z"/><polygon fill="#ffdb80" points="97.91 108.07 99.72 113.62 95 110.19 90.28 113.62 92.08 108.07 87.37 104.64 93.2 104.64 95 99.1 96.8 104.64 102.63 104.64 97.91 108.07"/><path fill="#e5d0c3" d="M89,73.43v2l-1.55-.27.4-1.27a4.55747,4.55747,0,0,0,.13-.62006Z" opacity=".3"/><polygon fill="#ad9359" points="62 100.01 62 102.01 42 84.58 44.15 84.46 62 100.01" opacity=".45"/><polygon fill="#ad9359" points="86 84.58 66 102.01 66 100.01 83.85 84.46 86 84.58" opacity=".45"/><path fill="#9fa5aa" d="M77.82,69.12a3.73154,3.73154,0,0,0-.54.76L64,95.09,50.72,69.88a3.73154,3.73154,0,0,0-.54-.76c.28-.23.55-.47.81-.73L64,93.09l13.01-24.7C77.27,68.65,77.54,68.89,77.82,69.12Z" opacity=".5"/><polygon fill="#f9dbd7" points="97 74.67 97 76.67 93 76.05 93 74.05 97 74.67" opacity=".3"/><path fill="#e5d0c3" d="M111.88,82.55a1.73117,1.73117,0,0,0-.43.59,8.15153,8.15153,0,0,0-6.39-5.22L101,77.29v-2l4.06.63a8.16457,8.16457,0,0,1,6.61,5.89Z" opacity=".3"/><path fill="#72492d" d="M84.43,32.55c-.2.25-1.54,1.5-8.42,1.45H51.96c-6.88.06-8.2-1.2-8.4-1.45-.04-.05-.06-.08-.03-.24a4.87128,4.87128,0,0,0,.08-1.7c.33.34,1.89,1.45,8.35,1.39H76.01c6.46.05,8.03-1.05,8.37-1.39a5.41731,5.41731,0,0,0,.08,1.7C84.49,32.47,84.47,32.5,84.43,32.55Z" opacity=".4"/><path fill="#e5d0c3" d="M88.73,24.95C87,19.71,78.6,5.68,64.04,6.01,63.88,6,63.71,6,63.55,6,55.98,6,50.11,9.83,46,14.22a31.63516,31.63516,0,0,0-6.72,10.73,1.33191,1.33191,0,0,1-.23-1.22c.51-2.2,2.85-7.13,6.95-11.51C50.11,7.83,55.98,4,63.55,4c.16,0,.33,0,.49.01C79.4,3.66,87.9,19.29,88.95,23.73A1.35618,1.35618,0,0,1,88.73,24.95Z" opacity=".3"/><path fill="#9fa5aa" d="M81.95,37.62C81.32,49.15,73.53,62.75,64,62.75S46.68,49.15,46.05,37.63l.18.03C47.59,48.69,55.02,60.75,64,60.75s16.41-12.06,17.77-23.1Z" opacity=".5"/><path fill="#e5d0c3" d="M40.55,75.18,22.94,77.92a8.15153,8.15153,0,0,0-6.39,5.22,1.73117,1.73117,0,0,0-.43-.59l.21-.74a8.16457,8.16457,0,0,1,6.61-5.89l17.08-2.65a4.55747,4.55747,0,0,0,.13.62006Z" opacity=".3"/><polygon fill="#ad9359" points="43.69 113.75 43.12 117.75 24.88 117.75 24.31 113.75 24.6 113.75 24.88 115.75 43.12 115.75 43.41 113.75 43.69 113.75" opacity=".45"/><polygon fill="#f9edd2" points="47.18 71.75 48.09 73.48 44.54 74.52 43.97 72.69 47.18 71.75" opacity=".5"/><polygon fill="#f9edd2" points="84.03 72.69 83.46 74.52 79.91 73.48 80.82 71.75 84.03 72.69" opacity=".5"/></svg>