<svg xmlns="http://www.w3.org/2000/svg" viewBox="0 0 512 512"><path fill="#fbedbf" d="M340.668,248a8,8,0,0,1-7.327-11.205A31.774,31.774,0,0,0,336,224v-8a8,8,0,0,1,16,0v8a47.682,47.682,0,0,1-4,19.2A8,8,0,0,1,340.668,248Z"/><path fill="#fbedbf" d="M302.323,305.677H288a8,8,0,0,1,0-16h14.323A65.669,65.669,0,0,0,367.992,224a8,8,0,1,1,16,0,81.668,81.668,0,0,1-81.669,81.678Z"/><path fill="#027e2a" d="M128 184h0a8 8 0 0 1 8 8v33.679a8 8 0 0 1-8 8h0a8 8 0 0 1-8-8V192a8 8 0 0 1 8-8zM376 150.323h0a8 8 0 0 1 8 8V192a8 8 0 0 1-8 8h0a8 8 0 0 1-8-8V158.323A8 8 0 0 1 376 150.323z"/><rect width="64" height="240" x="224" y="248" fill="#009cf7"/><circle cx="256" cy="296" r="16" fill="#f26b32"/><circle cx="256" cy="296" r="8" fill="#0a71cd"/><rect width="64" height="48" x="224" y="200" fill="#8ed2ff"/><rect width="64" height="32" x="224" y="168" fill="#009cf7"/><rect width="48" height="48" x="232" y="120" fill="#0c82ed"/><rect width="16" height="48" x="248" y="200" fill="#0c82ed"/><path fill="#fbedbf" d="M312 80a8 8 0 0 1 0-16 32.036 32.036 0 0 0 32-32V24a8 8 0 0 1 16 0v8A48.054 48.054 0 0 1 312 80zM160 176a8 8 0 0 1-8-8v-8a47.682 47.682 0 0 1 4-19.2 8 8 0 0 1 14.662 6.406A31.774 31.774 0 0 0 168 160v8A8 8 0 0 1 160 176z"/><path fill="#029532" d="M440 120a57.887 57.887 0 0 0-53.939 17.562A50.125 50.125 0 0 0 386.63 96.8L376 72 365.37 96.8a50.125 50.125 0 0 0 .569 40.759A57.887 57.887 0 0 0 312 120h0l3.013 5.021a57.884 57.884 0 0 0 40.861 27.436 56.009 56.009 0 0 0-21.981 21.27L327.94 184l17.234-4.587a56.051 56.051 0 0 0 30.818-21.09 56.051 56.051 0 0 0 31.049 21.022l17.263 4.477-6.019-10.234a56.029 56.029 0 0 0-22.129-21.136 57.884 57.884 0 0 0 40.831-27.431L440 120zM64 264a57.887 57.887 0 0 0 53.939-17.562 50.125 50.125 0 0 0-.569 40.759L128 312l10.63-24.8a50.125 50.125 0 0 0-.569-40.759A57.887 57.887 0 0 0 192 264h0l-3.013-5.021a57.884 57.884 0 0 0-40.861-27.436 56.009 56.009 0 0 0 21.981-21.27L176.06 200l-17.234 4.587a56.051 56.051 0 0 0-30.818 21.09 56.051 56.051 0 0 0-31.049-21.022L79.7 200.178l6.019 10.234a56.029 56.029 0 0 0 22.129 21.136 57.884 57.884 0 0 0-40.831 27.431L64 264z"/><path fill="#fbedbf" d="M128.009,169.677a8,8,0,0,1-8-8A81.668,81.668,0,0,1,201.677,80H232.8A40.071,40.071,0,0,1,272,48h1.013A32.054,32.054,0,0,1,304,24h8a8,8,0,0,1,0,16h-8a16.019,16.019,0,0,0-16,16,8,8,0,0,1-8,8h-8a24.028,24.028,0,0,0-24,24,8,8,0,0,1-8,8H201.677a65.669,65.669,0,0,0-65.669,65.676A8,8,0,0,1,128.009,169.677Z"/><rect width="48" height="16" x="232" y="152" fill="#0a71cd"/><rect width="64" height="16" x="224" y="248" fill="#f26b32"/></svg>