<svg xmlns="http://www.w3.org/2000/svg" width="64" height="64" viewBox="0 0 64 64"><g fill="none" fill-rule="evenodd"><circle cx="32" cy="32" r="32" fill="#E6F0FC"/><path fill="#FFF" d="M43,22.9948176 C42.2928761,28.9050789 39.1722896,35 32,35 C24.8317961,35 21.748719,28.9071142 21.0394501,23"/><path fill="#52ABE2" d="M29,23 L18.999747,23 C18.999747,16.372583 18.999747,11 32,11 C45.0002264,11 45.0002264,16.372583 45.0002264,23 L35,23"/><circle cx="32" cy="22" r="3" fill="#FFC200"/><path fill="#FFF" d="M38.45839,35 C43.5100543,37.1660244 47,41.7941044 47,47.1537257 L47,51 L17,51 L17,47.1537257 C17,41.8063213 20.4740537,37.1871269 25.5070897,35.0148502"/><polygon fill="#FFC200" points="25 41 39 41 39 51 25 51"/><path fill="#154E84" fill-rule="nonzero" d="M42.0070813,22.8760214 C41.2052895,29.5775329 37.7551529,34 32,34 C26.256287,34 22.8387439,29.5970622 22.0323187,22.880786 C21.9664786,22.3324398 21.4685822,21.9412913 20.9202361,22.0071314 C20.3718899,22.0729715 19.9807414,22.5708678 20.0465815,23.119214 C20.9599463,30.7261318 25.0535022,36 32,36 C38.9551305,36 43.0844229,30.7069749 43.9929187,23.1136138 C44.058528,22.5652399 43.66717,22.0675083 43.1187962,22.0018989 C42.5704224,21.9362896 42.0726907,22.3276476 42.0070813,22.8760214 Z"/><path fill="#154E84" fill-rule="nonzero" d="M21.4256831,15.1136378 C22.9539196,13.0715946 26.180267,12 32,12 C37.8197429,12 41.0460902,13.0716024 42.5743203,15.11366 C43.6663519,16.5728587 43.9574907,18.1532171 43.995642,22 L35,22 C34.4477153,22 34,22.4477153 34,23 C34,23.5522847 34.4477153,24 35,24 L45.0002264,24 C45.5525245,24 46.0002264,23.5522639 46.0002264,22.9999658 C46.0002264,17.9570191 45.7201406,15.9792203 44.1755665,13.9153234 C42.1911614,11.2637139 38.3864106,10 32,10 C25.6136025,10 21.8088555,11.2637034 19.8244434,13.9152925 C18.2798618,15.9791762 17.9997471,17.9569672 17.9997471,22.9991882 C17.9997471,23.5522615 18.4474474,24 18.9997471,24 L29,24 C29.5522847,24 30,23.5522847 30,23 C30,22.4477153 29.5522847,22 29,22 L20.0043348,22 C20.0424987,18.1531938 20.3336408,16.5728343 21.4256831,15.1136378 Z"/><path fill="#154E84" fill-rule="nonzero" d="M32 26C34.209139 26 36 24.209139 36 22 36 19.790861 34.209139 18 32 18 29.790861 18 28 19.790861 28 22 28 24.209139 29.790861 26 32 26zM32 24C30.8954305 24 30 23.1045695 30 22 30 20.8954305 30.8954305 20 32 20 33.1045695 20 34 20.8954305 34 22 34 23.1045695 33.1045695 24 32 24zM18 50L18 47.1537257C18 42.3416365 21.0995069 38.0063446 25.9033597 35.9329842 26.4104311 35.7141304 26.6440776 35.1256516 26.4252237 34.6185802 26.2063698 34.1115088 25.6178911 33.8778623 25.1108197 34.0967162 19.6004592 36.4750079 16 41.5109835 16 47.1537257L16 51C16 51.5522847 16.4477153 52 17 52L47 52C47.5522847 52 48 51.5522847 48 51L48 47.1537257C48 41.4977237 44.3825852 36.4520957 38.8524669 34.0809225 38.3448745 33.8632799 37.7569552 34.0983306 37.5393125 34.6059231 37.3216699 35.1135156 37.5567206 35.7014348 38.0643131 35.9190775 42.8857032 37.9863662 46 42.3302371 46 47.1537257L46 50 18 50z"/><path fill="#154E84" fill-rule="nonzero" d="M24,41 C24,40.4477153 24.4477153,40 25,40 L39,40 C39.5522847,40 40,40.4477153 40,41 L40,51 C40,51.5522847 39.5522847,52 39,52 L25,52 C24.4477153,52 24,51.5522847 24,51 L24,41 Z M26,42 L26,50 L38,50 L38,42 L26,42 Z"/><path fill="#154E84" fill-rule="nonzero" d="M39.9492739 40.7232202L37.9492739 34.6855496C37.7756078 34.1612801 37.2098191 33.8770599 36.6855496 34.0507261 36.1612801 34.2243922 35.8770599 34.7901809 36.0507261 35.3144504L38.0507261 41.3521209C38.2243922 41.8763904 38.7901809 42.1606106 39.3144504 41.9869445 39.8387199 41.8132783 40.1229401 41.2474897 39.9492739 40.7232202zM26.0501485 34.6872987L24.0624826 40.7249693C23.8897825 41.2495578 24.1750444 41.8148219 24.6996329 41.9875221 25.2242214 42.1602222 25.7894855 41.8749604 25.9621857 41.3503719L27.9498515 35.3127013C28.1225517 34.7881128 27.8372898 34.2228486 27.3127013 34.0501485 26.7881128 33.8774483 26.2228486 34.1627102 26.0501485 34.6872987z"/></g></svg>