<?xml version="1.0" standalone="no"?>
<!DOCTYPE svg PUBLIC "-//W3C//DTD SVG 20010904//EN"
 "https://www.w3.org/TR/2001/REC-SVG-20010904/DTD/svg10.dtd">
<svg version="1.0" xmlns="http://www.w3.org/2000/svg"
 width="387.898754pt" height="525.523590pt" viewBox="0 0 387.898754 525.523590"
 preserveAspectRatio="xMidYMid meet">
<metadata>
Created by potrace 1.12, written by Peter Selinger 2001-2015
</metadata>
<g transform="translate(-156.058694,613.017429) scale(0.100000,-0.100000)"
fill="#000000" stroke="none">
<path d="M1821 6117 c-66 -23 -76 -49 -79 -224 -5 -195 1 -238 38 -275 l28
-28 1692 0 1692 0 29 29 29 29 0 205 c0 191 -1 206 -20 230 -12 15 -38 31 -58
37 -57 15 -3306 13 -3351 -3z"/>
<path d="M1943 5448 c-6 -7 -94 -147 -197 -310 -195 -311 -202 -327 -172 -386
20 -38 223 -154 270 -154 24 0 68 20 152 70 192 112 198 115 273 110 62 -4 76
-10 219 -93 111 -64 163 -89 186 -88 21 1 82 31 181 89 l150 89 80 0 80 0 150
-89 c112 -66 159 -89 185 -89 26 0 73 23 185 89 l150 89 80 0 80 0 150 -89
c99 -58 160 -88 181 -89 23 -1 68 20 151 68 189 110 200 115 265 115 66 0 82
-7 262 -112 84 -50 128 -70 152 -70 47 0 250 116 270 154 31 60 23 77 -179
398 l-193 305 -1551 3 c-1233 2 -1553 -1 -1560 -10z"/>
<path d="M2198 4641 c-20 -11 -86 -49 -146 -85 -132 -79 -181 -94 -252 -80
l-50 11 0 -1547 c0 -1704 -4 -1592 63 -1729 44 -91 177 -224 269 -268 147 -72
56 -68 1418 -68 1368 0 1271 -5 1422 71 99 50 212 163 261 260 72 142 67 22
67 1736 l0 1545 -50 -11 c-73 -15 -120 1 -278 96 -178 106 -177 106 -340 9
-157 -92 -197 -111 -248 -111 -59 0 -93 14 -244 104 -177 105 -173 105 -351
-1 -150 -88 -184 -103 -239 -103 -55 0 -89 15 -239 103 -178 106 -174 106
-351 1 -236 -140 -243 -140 -500 11 -131 77 -160 84 -212 56z m1351 -1071 c82
-178 136 -354 166 -546 13 -82 16 -148 12 -288 -2 -100 -8 -192 -12 -206 -6
-20 5 -12 56 36 159 150 336 246 572 309 48 13 87 20 87 16 0 -18 -81 -159
-138 -240 -56 -79 -170 -201 -247 -264 -40 -32 -156 -103 -200 -121 -46 -19
-45 -26 3 -15 134 31 421 -16 576 -94 l40 -19 -35 -19 c-55 -30 -212 -78 -312
-95 -96 -17 -249 -14 -314 5 -31 9 -48 -1 -20 -12 31 -12 168 -219 154 -233
-8 -8 -116 30 -187 67 -41 21 -99 60 -128 85 -29 26 -54 45 -56 43 -2 -3 -26
-87 -53 -181 -8 -31 -20 -20 -33 30 -24 93 -44 152 -50 152 -3 0 -19 -14 -36
-31 -45 -48 -161 -115 -248 -144 -43 -14 -80 -24 -82 -22 -12 12 83 160 143
221 25 26 31 37 18 32 -11 -4 -57 -12 -103 -19 -147 -19 -362 18 -524 91 l-63
28 59 27 c83 38 207 74 305 88 81 11 246 8 286 -6 11 -3 -11 10 -48 29 -38 20
-96 55 -130 78 -83 55 -252 226 -309 313 -48 73 -128 215 -128 228 0 9 26 3
149 -35 188 -57 384 -167 509 -287 l63 -60 -8 52 c-5 29 -8 135 -7 237 0 198
14 296 69 483 35 120 141 377 156 377 3 0 25 -41 48 -90z"/>
</g>
</svg>
