<?xml version="1.0" encoding="utf-8"?>
<!DOCTYPE svg PUBLIC "-//W3C//DTD SVG 20010904//EN" "https://www.w3.org/TR/2001/REC-SVG-20010904/DTD/svg10.dtd">
<svg version="1.0" xmlns="http://www.w3.org/2000/svg" width="700px" height="700px" viewBox="0 0 700 700" preserveAspectRatio="xMidYMid meet">
 <g fill="#000000">
  <path d="M484.7 611 c-11.5 -2.4 -26.9 -9.9 -38.3 -18.6 -5 -3.8 -9.9 -6.8 -11.7 -7 -4.3 -0.7 -9.4 2.6 -10.4 6.6 -0.8 3 -1.1 2.7 -7.6 -9.5 -3.8 -6.9 -7.8 -13.2 -9 -14 -1.7 -1.2 -5.4 -1.5 -17 -1.5 l-14.8 0 2 -2.6 c2.5 -3.1 2.7 -7.4 0.6 -11.4 -1 -2 -3.1 -3.4 -7 -4.9 -23.9 -9 -41.5 -23.7 -53.9 -45.3 l-2.7 -4.6 9.3 3.4 c5.1 1.9 13.1 4.8 17.8 6.5 4.7 1.8 13 5.4 18.5 8 5.8 2.8 11.5 4.9 13.4 4.9 4.2 0 9.1 -4.6 9.1 -8.6 0 -1.6 -3.1 -9.2 -7 -16.9 -10.7 -21.6 -16.4 -42.2 -18.9 -67.9 -1.8 -18.4 -1.2 -44.6 1 -44.6 1.9 0 20.9 20.3 26.6 28.3 11.8 16.8 21 37.6 24.8 56.7 1.9 9.5 4 12.6 9 13.6 3.9 0.7 8.6 -1.5 10.2 -4.8 0.7 -1.2 1.9 -6.1 2.9 -10.8 3.1 -15.9 10.5 -34.2 19.6 -48.7 8.4 -13.2 30.1 -29.4 62.9 -46.7 l10.7 -5.7 0.8 12.8 c0.9 15.9 -0.9 46.3 -3.6 59.3 -4 19.8 -18 40.7 -41.2 61.6 -6.3 5.7 -6.8 6.4 -6.8 10.3 0 3.1 0.6 4.8 2.4 6.6 3.8 3.8 6.5 3.9 16.7 0.7 15.4 -5 23.4 -6.3 40.9 -6.9 13.9 -0.4 18.4 -0.2 28.5 1.5 12 2.1 28.5 6.8 28.5 8.2 0 0.9 -19.9 12.1 -28.5 16 -30.2 13.7 -55.8 20.4 -82.4 21.6 -15.4 0.7 -16.5 0.9 -19.1 3.6 -2 2.2 -2.7 7.8 -1.4 11.2 0.4 0.9 5.1 4.6 10.5 8.2 11.8 7.7 28.3 20.7 41.4 32.5 1.7 1.6 -17.9 0.8 -26.8 -1.1z"/>
  <path d="M330.5 610.3 c-64 -5.4 -120.9 -31.5 -165.6 -76.2 -40.8 -40.9 -66.3 -92.1 -74.5 -149.6 -2.6 -18.1 -2.6 -52.9 0 -71 8.2 -57.5 33.7 -108.7 74.5 -149.6 34.7 -34.7 75.5 -57.6 123.1 -69.4 21.8 -5.3 36.3 -7 62 -7 25.7 0 39.9 1.6 62 7 48.2 11.9 87.6 34.2 123 69.5 24.4 24.3 42.7 51.1 55.5 81 33.3 78 27.6 164.5 -15.8 238.3 -4.7 8 -5.4 8.7 -7.8 8.3 -9.5 -1.8 -26 -2.8 -37.1 -2.2 l-12.7 0.6 5.5 -7.2 c12 -16 18.7 -34.4 21.3 -59 1.3 -11.9 1.4 -55.8 0.1 -68.8 -0.8 -8.8 -1.1 -9.7 -4 -12.2 -1.9 -1.7 -4.2 -2.8 -6 -2.8 -1.8 0 -10.9 4 -22.7 10 -39.2 19.7 -64 37.8 -76.2 55.5 -5.1 7.3 -14.1 24.2 -14.1 26.4 0 2.8 -1.9 0.3 -5.7 -7.7 -8.6 -18.2 -24.8 -39.5 -40.2 -52.8 -10.6 -9.3 -22.5 -17.4 -25.4 -17.4 -4 0 -8.5 3.6 -9.6 7.7 -3.9 14.6 -4.8 56 -1.8 76.3 2.3 14.7 6.1 30.8 10.2 43.1 l3.3 9.7 -3.1 -1.3 c-1.8 -0.7 -8.6 -3.2 -15.2 -5.5 -6.6 -2.3 -17.7 -6.9 -24.7 -10.2 -12 -5.6 -13 -5.9 -16.3 -4.8 -9.5 3.1 -8.7 10.6 3.5 35 9.8 19.6 21.6 34.6 34.7 44.2 l6.2 4.5 -3.9 1.6 c-6.7 2.6 -9.8 10.3 -6.6 16.5 4.9 9.3 18.4 14.9 38.9 15.9 l10.9 0.6 -11.9 11.9 -11.8 11.8 -9 -0.2 c-4.9 -0.1 -10.8 -0.3 -13 -0.5z m-55.5 -55.3 l0 -10 -9.5 0 -9.5 0 0 10 0 10 9.5 0 9.5 0 0 -10z m-85.8 -56 c26.5 -10.6 29.8 -12.5 29.8 -17.9 0 -1.5 -2.2 -13.9 -5 -27.7 -4.5 -22.3 -5.2 -25.1 -7.5 -27.1 -3.7 -3.3 -7.2 -2.9 -29.5 2.7 -16.4 4.1 -19.9 5.3 -21.7 7.5 -2.3 2.6 -2.3 2.9 -2.3 34.3 0 27.6 0.2 32.1 1.6 34 1.7 2.4 4.7 4 7.6 4.1 1 0.1 13.1 -4.4 27 -9.9z m76.8 -103 l0 -10 -10 0 -10 0 0 10 0 10 10 0 10 0 0 -10z m-51.9 -29 c1.1 -0.6 8.9 -10.4 17.4 -21.7 14 -18.7 15.5 -21 15.5 -24.7 0 -3.9 -0.6 -4.6 -25.7 -29.8 -19.7 -19.7 -26.5 -25.9 -28.8 -26.4 -4.2 -0.8 -52.9 18.4 -56.2 22.2 -2.2 2.4 -2.3 3.1 -2.3 24.9 0 21.8 0.1 22.5 2.3 24.9 2.6 2.9 68.7 31.5 73 31.6 1.6 0 3.7 -0.5 4.8 -1z m127.2 -33.1 c13.9 -8.3 25.5 -15.6 26 -16.3 2.1 -3.2 1.7 -7.1 -2.9 -26.5 -4.4 -18.7 -5.1 -20.9 -8 -23.8 -2 -2.1 -4.2 -3.3 -5.8 -3.3 -1.4 0 -16.3 6.6 -33.2 14.7 -31.7 15.2 -33.4 16.4 -33.4 22.2 0 2.6 19.1 42.7 21.8 45.8 1.5 1.7 3.1 2.3 6.2 2.3 3.6 0 7.6 -2.1 29.3 -15.1z m156.4 -6.2 c20.8 -20.8 21.3 -21.3 21.3 -25.4 0 -2.4 -0.7 -4.9 -1.7 -6.1 -2.4 -2.7 -49.9 -31.2 -53.2 -31.8 -5.5 -1.1 -7.7 0.9 -19.1 18.1 -8.4 12.7 -11 17.4 -11 19.9 0 2.7 2.7 6.9 14.1 22.2 18.5 24.7 18.2 24.4 23.8 24.4 l4.5 0 21.3 -21.3z m96.3 2.3 l0 -10 -9.5 0 -9.5 0 0 10 0 10 9.5 0 9.5 0 0 -10z m-450 -93.5 l0 -9.5 -9.5 0 -9.5 0 0 9.5 0 9.5 9.5 0 9.5 0 0 -9.5z m340.8 -0.2 c1.6 -0.4 7.5 -7.4 17.1 -20.2 16.8 -22.3 17.1 -22.8 17.1 -27.3 0 -2.9 -2.5 -5.8 -26.3 -29.5 -23.5 -23.5 -26.6 -26.3 -29.5 -26.3 -1.7 0 -14.1 4.3 -27.4 9.6 -17.9 7.1 -25 10.4 -27 12.5 l-2.8 2.9 0 22.4 c0 19.8 0.2 22.6 1.8 24.5 1.8 2.3 69.2 31.9 72.7 32 1.1 0.1 3.1 -0.2 4.3 -0.6z m-187.2 -9.8 c6 -2.5 6.4 -4.6 6.4 -37 0 -30.3 -0.5 -34.1 -4.8 -36.4 -3.3 -1.7 -7 -1.4 -37.6 3.8 -36.7 6.1 -33.6 3.5 -33.6 28 0 16 0.2 18.1 1.9 20.2 1.4 1.7 9.4 4.9 32.2 12.5 16.7 5.6 30.8 10.3 31.2 10.3 0.4 0.1 2.3 -0.6 4.3 -1.4z m62.4 -112 l0 -9.5 -10 0 -10 0 0 9.5 0 9.5 10 0 10 0 0 -9.5z"/>
  <path d="M172 467.2 l0 -16.8 10 -2.4 c5.5 -1.3 10.1 -2.2 10.3 -1.9 1 1.1 5.6 27.4 4.9 28 -0.8 0.8 -23.2 9.9 -24.4 9.9 -0.4 0 -0.8 -7.6 -0.8 -16.8z"/>
  <path d="M179.5 335 l-25 -10.9 -0.3 -12.3 -0.3 -12.4 17.2 -6.8 17.1 -6.9 18.1 18.1 18 18 -8.9 12.1 c-4.9 6.6 -9.3 12 -9.9 12 -0.5 -0.1 -12.2 -5 -26 -10.9z"/>
  <path d="M311.8 315.3 l-4.5 -9.7 16 -7.8 c8.8 -4.3 17 -8.1 18.2 -8.4 1.9 -0.5 2.3 0.2 3.9 7.3 1 4.3 2.1 8.3 2.3 9 0.4 1 -24.8 16.9 -29.8 18.8 -1.2 0.4 -2.6 -1.7 -6.1 -9.2z"/>
  <path d="M464.2 312.9 l-8.3 -11.1 4.7 -7.2 4.8 -7.3 11.5 6.9 c6.4 3.8 12.7 7.7 14 8.5 l2.4 1.5 -9.9 9.9 c-5.4 5.4 -10.1 9.9 -10.4 9.9 -0.3 0 -4.3 -5 -8.8 -11.1z"/>
  <path d="M451.5 203.6 l-26 -11.2 -0.3 -12 -0.3 -12 16.8 -6.7 c9.3 -3.7 17.3 -6.7 17.8 -6.7 0.6 0 9.1 8 18.9 17.9 l17.8 17.9 -9.1 12.1 c-5 6.6 -9.3 12.1 -9.4 12 -0.1 0 -11.9 -5.1 -26.2 -11.3z"/>
  <path d="M264.8 197.8 l-17.8 -6 0 -6.2 0 -6.3 16.8 -2.7 c9.2 -1.5 17.5 -3 18.5 -3.2 1.6 -0.5 1.7 0.7 1.7 15 0 8.6 -0.3 15.6 -0.7 15.5 -0.5 0 -8.8 -2.8 -18.5 -6.1z"/>
 </g>
</svg>