<?xml version="1.0" standalone="no"?>
<!DOCTYPE svg PUBLIC "-//W3C//DTD SVG 20010904//EN"
 "https://www.w3.org/TR/2001/REC-SVG-20010904/DTD/svg10.dtd">
<svg version="1.0" xmlns="http://www.w3.org/2000/svg"
 width="462.000000pt" height="532.746848pt" viewBox="0 0 462.000000 532.746848"
 preserveAspectRatio="xMidYMid meet">
<metadata>
Created by potrace 1.12, written by Peter Selinger 2001-2015
</metadata>
<g transform="translate(-119.000000,616.968156) scale(0.100000,-0.100000)"
fill="#000000" stroke="none">
<path d="M3439 6067 c-391 -711 -422 -1574 -83 -2297 50 -105 49 -105 -21 -6
-372 532 -968 911 -1619 1031 -187 34 -526 58 -526 38 0 -18 131 -223 205
-322 98 -131 298 -338 426 -440 245 -198 508 -342 809 -442 161 -53 398 -105
533 -115 88 -7 121 -24 46 -24 -23 0 -89 -7 -148 -15 -374 -55 -749 -201
-1069 -417 -248 -168 -508 -430 -682 -688 -58 -87 -120 -191 -120 -203 0 -21
342 5 526 38 679 125 1261 508 1666 1095 10 14 -2 -18 -26 -70 -275 -597 -308
-1286 -91 -1909 66 -190 213 -487 237 -479 14 5 98 158 149 272 250 551 294
1177 124 1764 -33 118 -97 285 -150 394 -14 29 -17 42 -8 28 10 -14 50 -68 89
-120 383 -510 947 -859 1578 -975 187 -34 526 -58 526 -38 0 18 -131 223 -205
322 -147 196 -396 433 -597 569 -320 216 -695 362 -1069 417 -59 8 -125 15
-148 15 -75 0 -42 17 47 24 286 22 657 138 957 299 377 204 730 540 953 909
34 57 62 107 62 112 0 12 -264 0 -400 -18 -271 -36 -533 -116 -785 -241 -270
-132 -485 -285 -685 -485 -100 -100 -233 -259 -298 -357 -19 -29 -37 -53 -39
-53 -2 0 10 26 26 58 46 92 118 282 151 399 183 650 105 1340 -219 1930 -31
57 -58 103 -61 103 -3 0 -30 -46 -61 -103z"/>
</g>
</svg>
