<?xml version="1.0" standalone="no"?>
<!DOCTYPE svg PUBLIC "-//W3C//DTD SVG 20010904//EN"
 "https://www.w3.org/TR/2001/REC-SVG-20010904/DTD/svg10.dtd">
<svg version="1.0" xmlns="http://www.w3.org/2000/svg"
 width="375.331536pt" height="525.178988pt" viewBox="0 0 375.331536 525.178988"
 preserveAspectRatio="xMidYMid meet">
<metadata>
Created by potrace 1.12, written by Peter Selinger 2001-2015
</metadata>
<g transform="translate(-163.148253,612.871253) scale(0.100000,-0.100000)"
fill="#000000" stroke="none">
<path d="M2408 6123 c-15 -2 -39 -18 -54 -36 -33 -39 -28 -90 11 -124 l26 -23
400 0 c439 0 444 -1 469 -59 14 -35 8 -69 -19 -102 l-19 -24 -351 -3 -351 -3
0 -154 c0 -149 -1 -154 -25 -183 -21 -25 -33 -30 -89 -35 -36 -3 -79 -13 -96
-22 -89 -46 -92 -184 -6 -240 13 -9 57 -19 97 -24 61 -6 76 -12 96 -35 22 -26
23 -33 23 -196 0 -164 -1 -169 -25 -198 -21 -25 -33 -30 -89 -35 -36 -3 -79
-13 -96 -22 -89 -46 -92 -184 -6 -240 13 -9 57 -19 97 -24 61 -6 76 -12 96
-35 l23 -27 0 -359 c0 -255 -3 -367 -12 -385 -8 -19 -43 -42 -120 -81 -264
-136 -469 -334 -602 -585 -102 -191 -145 -356 -153 -585 -7 -191 9 -311 63
-472 157 -475 544 -815 1039 -914 131 -26 351 -28 485 -4 539 97 965 500 1090
1031 64 269 41 560 -65 822 -19 48 -35 98 -35 112 0 20 120 145 587 613 l588
588 -215 215 -215 215 -565 -565 c-651 -651 -580 -599 -717 -519 -43 26 -98
55 -123 66 -25 11 -55 29 -67 40 l-23 21 0 378 c0 445 -7 418 109 430 89 10
133 35 155 89 21 52 20 65 -4 115 -25 53 -61 72 -145 81 -53 5 -75 13 -92 30
-22 22 -23 29 -23 202 0 221 0 222 109 233 89 10 133 35 155 89 21 52 20 65
-4 115 -25 53 -61 72 -145 81 -53 5 -75 13 -92 30 -23 23 -23 27 -23 248 0
219 1 226 23 251 15 18 36 28 64 32 57 8 93 43 93 92 0 48 -22 78 -68 91 -35
9 -1101 12 -1164 3z m-261 -3280 c40 -27 72 -50 70 -53 -1 -3 -23 -48 -49
-100 -57 -115 -94 -241 -109 -366 -32 -269 82 -538 305 -721 32 -26 70 -58 84
-69 l26 -21 -44 -68 c-25 -38 -48 -72 -51 -78 -10 -14 -153 99 -237 187 -120
126 -198 261 -244 423 -20 68 -23 101 -23 253 1 196 14 270 80 442 36 93 100
218 112 218 4 0 40 -21 80 -47z m1403 -93 l0 -90 -95 0 -95 0 0 90 0 90 95 0
95 0 0 -90z m370 -280 l0 -90 -90 0 -90 0 0 90 0 90 90 0 90 0 0 -90z"/>
</g>
</svg>
