<?xml version="1.0" standalone="no"?>
<!DOCTYPE svg PUBLIC "-//W3C//DTD SVG 20010904//EN"
 "https://www.w3.org/TR/2001/REC-SVG-20010904/DTD/svg10.dtd">
<svg version="1.0" xmlns="http://www.w3.org/2000/svg"
 width="266.059337pt" height="599.984530pt" viewBox="0 0 266.059337 599.984530"
 preserveAspectRatio="xMidYMid meet">
<metadata>
Created by potrace 1.12, written by Peter Selinger 2001-2015
</metadata>
<g transform="translate(-216.970331,649.984530) scale(0.100000,-0.100000)"
fill="#000000" stroke="none">
<path d="M3239 6471 c-27 -27 -29 -35 -29 -105 0 -41 4 -86 10 -101 12 -32 67
-57 109 -49 l31 7 0 -317 0 -316 -139 0 -139 0 -26 -31 -26 -31 0 -209 0 -209
-62 0 c-164 -1 -360 -78 -498 -195 -123 -105 -217 -248 -271 -410 l-24 -70 -3
-1943 -2 -1943 24 -24 25 -25 1281 0 1281 0 25 25 24 24 -2 1943 -3 1943 -24
70 c-50 148 -122 264 -228 366 -149 145 -322 224 -510 236 l-93 6 0 208 0 207
-26 31 -26 31 -139 0 -139 0 0 320 0 320 23 0 c103 -1 837 35 855 41 33 13 57
70 46 110 -20 71 4 67 -649 94 -325 14 -603 25 -618 25 -18 0 -39 -11 -58 -29z
m310 -3411 c54 -116 114 -298 142 -430 20 -89 23 -136 23 -310 1 -113 -2 -220
-6 -238 l-8 -34 68 62 c131 121 285 209 468 268 110 36 154 45 154 31 0 -19
-53 -115 -113 -202 -116 -171 -257 -299 -415 -379 -75 -37 -76 -38 -32 -31 75
13 230 8 320 -11 84 -17 270 -84 270 -97 0 -11 -110 -56 -205 -85 -80 -24
-107 -27 -240 -28 -82 -1 -165 2 -183 6 l-34 8 42 -48 c48 -54 126 -180 117
-189 -23 -22 -231 75 -307 144 l-48 43 -16 -52 c-8 -29 -20 -74 -27 -100 -6
-27 -15 -48 -19 -48 -4 0 -20 44 -35 98 -15 53 -28 98 -29 99 -2 2 -25 -17
-51 -42 -27 -25 -79 -60 -115 -79 -71 -37 -176 -73 -186 -63 -11 10 57 124
109 183 31 34 44 54 32 50 -41 -18 -269 -19 -352 -2 -123 25 -293 86 -293 105
0 13 185 80 270 97 88 19 258 25 320 12 28 -6 20 0 -35 30 -205 110 -371 280
-491 506 l-46 87 38 -7 c67 -12 216 -64 300 -104 109 -52 222 -129 300 -204
35 -34 62 -54 59 -46 -13 43 -25 237 -19 330 8 136 44 320 93 467 40 122 116
293 130 293 4 0 27 -40 50 -90z"/>
</g>
</svg>
