<?xml version="1.0" encoding="utf-8"?>
<!-- Generator: Adobe Illustrator 24.2.1, SVG Export Plug-In . SVG Version: 6.00 Build 0)  -->
<svg version="1.1" id="Layer_1" xmlns="http://www.w3.org/2000/svg" xmlns:xlink="http://www.w3.org/1999/xlink" x="0px" y="0px"
	 viewBox="0 0 1000 1000" style="enable-background:new 0 0 1000 1000;" xml:space="preserve">
<style type="text/css">
	.st0{fill-rule:evenodd;clip-rule:evenodd;fill:#FFFFFF;}
	.st1{fill:#FFFFFF;}
</style>
<polygon class="st0" points="617.5,354.1 633.5,386.5 669.2,391.7 643.4,416.9 649.5,452.5 617.5,435.7 585.5,452.5 591.6,416.9 
	565.8,391.7 601.5,386.5 "/>
<g>
	<path d="M918.3,637l-34.4-33.1c-3.6-3.6-6-8.3-6-14.2v-34.4c0-6-2.3-10.6-6-14.2l-41.4-40.1c-2.3-1.3-3.6-3.6-4.7-6l-36.8-80.5
		c-1.3-2.3-2.3-3.6-3.6-6L638.7,257.9c-1.3-1.3-2.3-2.3-3.6-4.7l-53.3-101.8c-1.3-1.3-2.3-3.6-3.6-4.7l-65-66.3c-7-7-7-18.9,0-27.2
		c11.9-12.9,2.3-33.1-14.2-33.1H138.4c-11.9,0-21.2,10.6-18.9,22.5l43.8,370.6c0,1.3,1.3,3.6,1.3,4.7L214,540.2
		c2.3,6,2.3,11.9-1.3,16.6l-45.1,82.9c-1.3,2.3-2.3,6-2.3,9.6V796c0,2.3,30.8,64,42.7,87.5c3.6,6,8.3,9.6,15.3,10.6l443.8,45.1
		c10.6,1.3,18.9,10.6,17.9,21.2v2.3c-1.3,11.9,8.3,21.2,18.9,21.2h10.6c10.6,0,18.9-8.3,20.2-18.9l2.3-46.1
		c1.3-14.2,16.6-23.6,29.5-15.3l34.4,20.2c12.9,8.3,29.5-1.3,29.5-16.6l1.3-64c0-3.6,1.3-6,2.3-8.3l87.5-174
		C926.6,652.5,924.3,643,918.3,637z M347.9,264.4l-47.4-24.9l-47.4,24.9l9.6-53.3l-39.1-36.8l53.3-8.3l23.6-48.4L324,166l53.3,8.3
		l-37.8,37.8L347.9,264.4z"/>
</g>
<polygon points="300,93 337.1,157.2 420,167.5 360,217.4 374.2,288 300,254.7 225.8,288 240,217.4 180,167.5 262.9,157.2 "/>
<polygon class="st1" points="306.5,138 322.8,171 359.3,176.3 332.9,202.1 339.1,238.4 306.5,221.3 273.9,238.4 280.1,202.1 
	253.7,176.3 290.2,171 "/>
</svg>
