<?xml version="1.0" encoding="utf-8"?>
<!-- Generator: Adobe Illustrator 24.2.1, SVG Export Plug-In . SVG Version: 6.00 Build 0)  -->
<svg version="1.1" id="Layer_1" xmlns="http://www.w3.org/2000/svg" xmlns:xlink="http://www.w3.org/1999/xlink" x="0px" y="0px"
	 viewBox="0 0 1000 1000" style="enable-background:new 0 0 1000 1000;" xml:space="preserve">
<style type="text/css">
	.st0{fill:#FFFFFF;}
	.st1{fill-rule:evenodd;clip-rule:evenodd;fill:#FFFFFF;}
</style>
<polygon class="st0" points="730.5,624.1 735.6,634 746.5,635.6 738.5,643.3 740.4,654.2 730.5,649.1 721,654.2 722.8,643.3 
	714.9,635.6 725.7,634 "/>
<polygon class="st1" points="599.3,432.6 604.6,443.5 616.5,445.3 608,453.6 609.9,465.5 599.3,459.9 588.6,465.5 590.8,453.6 
	582,445.3 594,443.5 "/>
<polygon class="st1" points="231.6,308.8 237.4,320.7 250.4,322.6 241.1,331.9 243.2,344.9 231.6,338.8 219.9,344.9 222,331.9 
	212.7,322.6 225.7,320.7 "/>
<g>
	<path d="M958.8,182.8c-1.3-24.4-23.1-40.9-46.2-39.6c-283.2,23.1-702,5-836.4-1.3c-24.4-1.3-43.6,16.7-44.9,40.9
		C26.2,293.1,13.4,594.1,9.4,803c0,20.5,14.1,39.6,34.5,42.2c163.9,28.2,745.5,0,903.1-7.7c23.1-1.3,39.6-19.1,40.9-42.2
		C988.2,726.2,985.6,555.6,958.8,182.8z M848.8,512.3l-30.8,30.8c-2.7,1.3-2.7,3.7-2.7,6.4l7.7,42.2c1.3,6.4-5,10.4-10.4,7.7
		L774.1,579c-1.3-1.3-3.7-1.3-6.4,0l-38.5,20.5c-5,2.7-11.4-1.3-10.4-7.7l7.7-42.2c0-2.7-1.3-5-2.7-6.4l-30.8-30.8
		c-3.7-5-2.7-11.4,3.7-12.8l43.6-6.4c2.7,0,3.7-1.3,5-3.7l19.1-38.5c2.7-5,10.4-5,12.8,0l19.1,38.5c1.3,2.7,2.7,3.7,5,3.7l42.2,5
		C851.2,499.3,853.8,507,848.8,512.3z"/>
</g>
<rect x="674.7" y="426.5" width="197.7" height="197.7"/>
<polygon class="st0" points="554.8,276 570.9,308.7 607,313.7 580.9,339.2 587,375.3 554.8,358.1 522.7,375.3 528.8,339.2 
	502.7,313.7 538.8,308.7 "/>
</svg>
