<?xml version="1.0" encoding="utf-8"?>
<!-- Generator: Adobe Illustrator 24.2.1, SVG Export Plug-In . SVG Version: 6.00 Build 0)  -->
<svg version="1.1" id="Layer_1" xmlns="http://www.w3.org/2000/svg" xmlns:xlink="http://www.w3.org/1999/xlink" x="0px" y="0px"
	 viewBox="0 0 1000 1000" style="enable-background:new 0 0 1000 1000;" xml:space="preserve">
<style type="text/css">
	.st0{fill:#FFFFFF;}
</style>
<g>
	<path d="M333.3,400.8c2.3-1.3,3.6-3.6,3.6-5.9c5.9-18.3,33.3-107.9,59.8-98.7c31,10.4,41.5,16,63.1-5.9s40.2-28.7,76.8-29.8
		c36.6-1.3,26.5-26.5,56.2-22.9c29.8,3.6,36.6,32.1,60.8,19.6c24.2-12.7,40.2-17.3,80.4-11.4c37.9,5.9,15-43.8,11.4-49.4v-1.3
		l-9.2-28.7c-2.3-5.9-8.1-8.1-12.7-5.9c-18.3,6.9-55.2,19.6-67.7-4.6c-16-32.1-41.5-63.1-57.5-47.1s-13.7,44.8-51.6,43.8
		c-37.9-1.3-59.8,0-74.5,16c-15,16-44.8,22.9-63.1,13.7s-19.6,26.5-49.4-18.3s-34.3-55.2-56.2-52.9c-21.9,2.3-70-10.4-33.3-36.6
		s90.8-60.8,48.3-57.5S214,40,200.3,67.7c-14,27.5-49.4,51.6-96.7,59.8c-47.1,8.1-152.6,56.2-50.6,89.6
		c89.6,29.8,143.5,46,154.9,49.4c1.3,0,3.6,0,4.6,0c16-3.6,107.9-24.2,90.8,22.9c-18.3,50.6-44.8,73.5-17.3,76.8
		C312.7,369.7,297.7,423.7,333.3,400.8z"/>
	<path d="M976.5,722.3c-5.9-12.7-37.9-79.4-43.8-110.2c-6.9-34.3-38.9-55.2-51.6-51.6c-12.7,3.6-50.6,67.7-76.8,68.9
		s-50.6-21.9-48.3-49.4c2.3-20.6,27.5-29.8,40.2-33.3c3.6-1.3,6.9-4.6,6.9-9.2c1.3-10.4,3.6-31,12.7-38.9
		c12.7-10.4,17.3-44.8,1.3-67.7c-16-22.9,6.9-44.8,6.9-44.8s18.3-25.2-26.5-37.9c-44.8-12.7-91.8-35.6-103.3-51.6
		c-11.4-16-46,0-46,0s-40.2,13.7-32.1,29.8s31,48.3,6.9,42.5c-20.6-4.6-29.8,26.5-32.1,35.6c0,1.3,0,2.3,0,3.6
		c1.3,10.4,8.1,55.2-8.1,59.8c-13.7,3.6-38.9-10.4-47.1-41.5c-2.3-9.2-15-10.4-18.3-1.3c-19.6,47.1-20.6,71.2-19.6,79.4
		c0,2.3,0,4.6-1.3,5.9c-8.1,12.7-36.6,59.8-33.3,80.4c3.6,25.2-12.7,60.8,1.3,84c13.7,20.6,87.3,169.9,3.6,269.9
		c-5.9,6.9,0,16,8.1,16l210.1-8.1c5.9,0,10.4,4.6,10.4,10.4c0,5.9,4.6,10.4,10.4,10.4h142.5c4.6,0,8.1-3.6,9.2-6.9L885.1,861
		c5.9-22.9,22.9-93.1,49.4-87.3c26.5,5.9,25.2,32.1,34.3,20.6c8.1-9.2,9.2-55.2,9.2-65.4C976.5,724.6,976.5,723.6,976.5,722.3z
		 M716,760.2l-27.5,27.5c-2.3,1.3-2.3,3.6-2.3,5.9l6.9,37.9c1.3,5.9-4.6,9.2-9.2,6.9L649.6,820c-2.3-1.3-4.6-1.3-5.9,0l-34.3,18.3
		c-4.6,2.3-10.4-1.3-9.2-6.9l6.9-37.9c0-2.3,0-4.6-2.3-5.9l-27.5-27.5c-3.6-3.6-1.3-10.4,3.6-11.4l38.9-5.9c2.3,0,3.6-1.3,4.6-3.6
		l17.3-34.3c2.3-4.6,9.2-4.6,11.4,0l17.3,34.3c1.3,2.3,2.3,3.6,4.6,3.6l38.9,5.9C717,749.8,719.3,756.9,716,760.2z"/>
</g>
<rect x="552" y="673" width="179" height="183"/>
<polygon class="st0" points="841.5,738.9 857.8,772 894.4,777.3 867.9,803.1 874.2,839.5 841.5,822.3 808.8,839.5 815.1,803.1 
	788.6,777.3 825.2,772 "/>
</svg>
