<?xml version="1.0" encoding="utf-8"?>
<!-- Generator: Adobe Illustrator 24.2.1, SVG Export Plug-In . SVG Version: 6.00 Build 0)  -->
<svg version="1.1" id="Layer_1" xmlns="http://www.w3.org/2000/svg" xmlns:xlink="http://www.w3.org/1999/xlink" x="0px" y="0px"
	 viewBox="0 0 1000 1000" style="enable-background:new 0 0 1000 1000;" xml:space="preserve">
<style type="text/css">
	.st0{fill:#F9F9F9;}
</style>
<path d="M819.7,41.6C819.4,24.3,804.9,10,787.5,10L211.2,7.4c-17.4,0-31.9,14-32.4,31.4l-13.2,378.4c-0.5,13.7,6.7,31.1,16.6,40.5
	l561.5,528.3c5.4,4.9,11.2,7.5,16.9,7.5c5.2,0,9.9-2.1,13.5-6c4.1-4.7,6-11.2,4.9-19.2l-12.2-114.6c0-0.5,0-1,0.3-1.3
	c0.3-0.3,0.5-0.5,1-0.5l35.8-0.8c17.6-0.3,31.6-15,31.4-32.7L819.7,41.6z"/>
<polygon class="st0" points="704.4,765 719.3,796.3 753.8,801 728.7,825.3 735,859 704.4,843.4 673.9,859 679.4,825.3 654.3,801 
	688.8,796.3 "/>
</svg>
