<?xml version="1.0" encoding="utf-8"?>
<!-- Generator: Adobe Illustrator 24.2.1, SVG Export Plug-In . SVG Version: 6.00 Build 0)  -->
<svg version="1.1" id="Layer_1" xmlns="http://www.w3.org/2000/svg" xmlns:xlink="http://www.w3.org/1999/xlink" x="0px" y="0px"
	 viewBox="0 0 1000 1000" style="enable-background:new 0 0 1000 1000;" xml:space="preserve">
<style type="text/css">
	.st0{fill:#FFFFFF;}
</style>
<g>
	<g>
		<path d="M34.1,119h294.6c7.4,0,14.8,5.2,18.1,12.6l6.3,15.9c3.3,7.4,9.6,12.6,18.1,12.6h303.1c10.7,0,19.2,8.5,19.2,18.1
			c0,13.7,3.3,28.5,13.7,29.6c18.1,1.1,27.7-6.3,25.5-28.5c-2.2-22.2-2.2-39.1,15.9-33.9c18.1,5.2,21.1,19.2,38.1,9.6
			c15.9-8.5,62.4,163.2,69.8,190.5c1.1,2.2,2.2,5.2,3.3,6.3c11.8,14.8,64.6,81.6,59.4,98.6c-5.2,19.2-2.2,76.4,36.1,125.9
			c38.1,49.8,31.8,149.5,24.4,180.1c-6.3,26.6-18.1,47.6-22.2,55c-1.1,1.1-1.1,3.3-2.2,4.1l-7.4,26.6c-1.1,4.1-1.1,8.5,1.1,12.6
			c4.1,8.5,6.3,24.4-27.7,25.5c-49.8,1.1-59.4,1.1-69.8-22.2c-10.7-23.3-63.5-75.3-77.2-75.3c-13.7,0-24.4-69.8-42.4-74.2
			c-18.1-5.2-25.5-4.1-21.1-22.2c3.3-17-29.6-39.1-37-44.4c-1.1-1.1-2.2-1.1-3.3-2.2c-9.6-10.7-68.7-73.1-55-129.2
			c15.9-61.3,36.1-142.9,2.2-154.7c-33.9-11.8-41.3-14.8-72-50.9c-30.7-36.1-52.8-66.8-90.1-61.3c-36.1,5.2-68.7,27.7-68.7,27.7
			s-81.6,53.9-93.1,22.2c-11.8-32.9-32.9-65.7-66.8-74.2c-26.6-6.3-141-10.7-184.2-11.8c-9.6,0-17-7.4-18.1-17
			c-1.1-12.6-4.1-30.7-9.6-46.5C11.9,131.6,20.4,119,34.1,119z"/>
	</g>
</g>
<polygon class="st0" points="910.5,681.5 927,714.8 963.8,720.2 937.1,746.2 943.4,782.8 910.5,765.5 877.6,782.8 883.9,746.2 
	857.2,720.2 894,714.8 "/>
</svg>
