<svg xmlns="http://www.w3.org/2000/svg" data-name="Layer 1" viewBox="0 0 64 64"><path d="M4,23.08l0,0s0,0,0,.08a.39.39,0,0,0,.07.16.35.35,0,0,0,.13.11l.07,0a.77.77,0,0,1,.12.17s0,0,0,0a.22.22,0,0,0,0,.13.46.46,0,0,0,.14.14l.11,0h0a.17.17,0,0,1,0,.07.09.09,0,0,1,0,.05.4.4,0,0,0,0,.15.57.57,0,0,0,.14.28A.21.21,0,0,0,5,24.6H5a.3.3,0,0,0,0,.16.26.26,0,0,0,.16.09s.06,0,.06,0a.28.28,0,0,1,0,.08.15.15,0,0,0-.07.1.39.39,0,0,0,0,.26.23.23,0,0,0,.12.1l0,0s.06.11.07.12l0,0h0a.21.21,0,0,0-.17,0,.4.4,0,0,0-.15.29.34.34,0,0,0,.11.18l.07.06,0,0a.43.43,0,0,1,0,0,.28.28,0,0,0,.06.15l0,0a.21.21,0,0,0-.17,0,.32.32,0,0,0-.13.3c0,.11.15.16.23.2l0-.11,0,.13.09,0s0,0,0,0,0,0,0,0a.28.28,0,0,0,.1.12.32.32,0,0,0,.14,0h0a.38.38,0,0,1,.12.1,1,1,0,0,1,0,.13,1.09,1.09,0,0,0,0,.14.55.55,0,0,0,.14.22.56.56,0,0,0,.18.07l.06,0,.08.06A.48.48,0,0,0,6.6,28a.45.45,0,0,0,.2,0h.08a.11.11,0,0,1,.06,0,.58.58,0,0,1,0,.16v0s0,.06,0,.1a.24.24,0,0,0,.07.16.2.2,0,0,0,.11.06h0a.27.27,0,0,0,.08.18.23.23,0,0,0,.18,0h0l0,.08a.51.51,0,0,0,.07.17.73.73,0,0,0,.09.08l0,0a.45.45,0,0,1,0,.08.53.53,0,0,0,.08.17.34.34,0,0,0,.14.09l.05,0s0,.07,0,.09a.15.15,0,0,1,0,.06.43.43,0,0,0,0,.16.46.46,0,0,0,.15.24.24.24,0,0,0,.16,0h0a.43.43,0,0,0,0,.05.39.39,0,0,0,.08.14.21.21,0,0,0,.12.07h0a.37.37,0,0,1,0,.11l0,.07a.42.42,0,0,0,0,.15.69.69,0,0,0,0,.28.49.49,0,0,0,.16.16l.13,0h0l.07,0,0,0a.22.22,0,0,0,.09.1l.1,0h0l.07.05a.59.59,0,0,1,0,.08l0,0a.26.26,0,0,0-.09.18c0,.09.11.16.19.2a.3.3,0,0,0,.22,0,.25.25,0,0,0,.12-.13l0,0s.07-.09.08-.09a.18.18,0,0,1,.1,0s0,0,0,.06a.21.21,0,0,1,0,.14.21.21,0,0,0-.06.16c0,.08.07.12.12.17l0,0a.42.42,0,0,0,.08.12.35.35,0,0,0,.21.06.23.23,0,0,0,.14-.09l0,0,.07,0,0,0a.52.52,0,0,0,.13.06.44.44,0,0,0,.2,0,.45.45,0,0,0,.13-.11l0,0,.14-.07s.06,0,.07,0,.08.07.1.09a.53.53,0,0,1,0,.13l0,0a.3.3,0,0,0-.07.11.57.57,0,0,0,0,.13s0,0,0,0h0s0,0,0,0a.47.47,0,0,0-.06.09.74.74,0,0,0,0,.17s0,.07,0,.09h0a.19.19,0,0,0-.16,0,.28.28,0,0,0,0,.3.15.15,0,0,0,.1.09.28.28,0,0,1,0,.09.55.55,0,0,1-.11.15l0,0a.24.24,0,0,0-.15.16.29.29,0,0,0,.07.2l0,0s0,.1,0,.12l0,0a.2.2,0,0,0-.07.09.43.43,0,0,0,0,.16h0a.19.19,0,0,0-.12,0,.36.36,0,0,0-.08.28.26.26,0,0,0,.09.14l0,0h0a.62.62,0,0,1,0,.18l-.05.07h-.1a.33.33,0,0,0-.21.05.28.28,0,0,0-.1.19s0,.2.06.29a.26.26,0,0,0,.18,0h.09a.13.13,0,0,0,0,.06l0,.07,0,0,0,0a.8.8,0,0,0-.08.21.43.43,0,0,0,.1.29.22.22,0,0,0,.16.07l.05,0a1.18,1.18,0,0,1,0,.16.19.19,0,0,0,0,.13.41.41,0,0,0,.11.22l0,.06,0,0s0,.06,0,.05l-.11,0h-.1a.21.21,0,0,0-.11,0,.37.37,0,0,0-.29.1.25.25,0,0,0,0,.18v0l-.08.08,0,0,0,0a.32.32,0,0,0-.14.14.31.31,0,0,0,.05.22.1.1,0,0,1,0,0,.28.28,0,0,0,0,.15.58.58,0,0,0,.12.1l0,0a.58.58,0,0,1,.05.11s0,.07,0,.08a.24.24,0,0,1,0,.1h0a.3.3,0,0,0-.13,0,.28.28,0,0,0-.16.2.21.21,0,0,0,0,.15h0a.32.32,0,0,0,0,.09.33.33,0,0,0,0,.26.25.25,0,0,0,.18.06l0,0,.09,0h.12l0,0a.36.36,0,0,0,.08.15.39.39,0,0,0,.17.09l.07,0a.75.75,0,0,1,.09.09s0,0,0,0a.35.35,0,0,0,0,.13.3.3,0,0,0,.2.12h0a.14.14,0,0,0,.12-.06h0l.13,0a.53.53,0,0,0,.13-.16l0,0a.33.33,0,0,0,.07-.13.25.25,0,0,0,0-.08.15.15,0,0,0,.1,0,.58.58,0,0,0,.34-.15l.09-.08,0-.08v0h0a.27.27,0,0,0,.12,0,.34.34,0,0,0,.12-.12.38.38,0,0,0,0-.15h0l.08,0a.39.39,0,0,0,.16-.1.34.34,0,0,0,0-.2V38.8h0l.09.06,0,.06,0,0L13,39s0,0,0,0v0a.23.23,0,0,0,0,.2c.06.11.24.11.24.11a.35.35,0,0,0,.12,0h.06a.11.11,0,0,1,0,.06s0,.05,0,.06a.27.27,0,0,0-.07.08.55.55,0,0,0,0,.4c.05.09.2.12.24.13h.09l0,0v.06l0,0a.27.27,0,0,0-.13.13.36.36,0,0,0,0,.18,0,0,0,0,1,0,0v0a.41.41,0,0,0,0,.19.45.45,0,0,0,.13.11l0,0s0,0,0,.07v0s0,0,0,.06a.56.56,0,0,0,0,.18.5.5,0,0,0,.1.19l0,0,.07.09.07.09v0a.25.25,0,0,0,0,.17.35.35,0,0,0,.11.1h0l0,.07a.45.45,0,0,0,.06.12l.1.08.05,0a.45.45,0,0,1,0,.12.15.15,0,0,0,0,.07v0a.32.32,0,0,0,0,.19.47.47,0,0,0,.21.17.2.2,0,0,0,.1,0h0a.49.49,0,0,0,0,.12.31.31,0,0,0,.11.19.22.22,0,0,0,.13,0H15a.06.06,0,0,0,0,0,.25.25,0,0,0,0,.1l0,.07h0v0l-.07.11a.61.61,0,0,0,0,.14.2.2,0,0,0,0,0h0l0,0a.22.22,0,0,0-.16,0,.24.24,0,0,0,0,.22.49.49,0,0,0,0,.11s0,0,0,.05,0,0,0,.06a.38.38,0,0,0,0,.16.65.65,0,0,0,.18.22.75.75,0,0,0,.13.06l.06,0,.06,0a.43.43,0,0,1,0,0,.35.35,0,0,0,0,.11c.09.16.16.19.21.2a.34.34,0,0,0,.26-.1l.08-.09,0,0,.1,0s0,0,.1.07l.05.06a.65.65,0,0,0,.11.12.31.31,0,0,0,.12,0h0a.35.35,0,0,0,0,.11s0,.06.06.09l0,0a.07.07,0,0,1,0,0,.3.3,0,0,0,0,.16.23.23,0,0,0,.12.1h0a1.21,1.21,0,0,1,.08.19.7.7,0,0,1,0,.12s0,.05,0,.05h0a.19.19,0,0,0-.12.09.44.44,0,0,0,0,.28l.1.1s0,0,0,0a.43.43,0,0,1,0,0s0,0,0,.08a.08.08,0,0,0,0,0,.1.1,0,0,0,0,0s0,0,0,.06,0,.06,0,.09,0,.12,0,.18v0a1,1,0,0,0,.09.28.83.83,0,0,0,.19.16l.17.1.08,0h0a.33.33,0,0,1,0,.06.36.36,0,0,0,0,.09.44.44,0,0,0,.18.18h.08a.5.5,0,0,0,.2,0,.36.36,0,0,0,.17-.18.38.38,0,0,0-.05-.27.22.22,0,0,0,0-.08l0,0s0,0,0-.05a1.6,1.6,0,0,1,.1-.14l.1-.12h.13l.08,0,0,0s0,0,0,0,0,.1.11.12a.28.28,0,0,0,.18,0h0a.46.46,0,0,1,.2,0l.11.05.11,0a.19.19,0,0,0,.08.07.3.3,0,0,0,.22,0c.05,0,.09,0,.13-.07s0,0,0,0h0s0,0,0,0a.54.54,0,0,0,.09.12s.17.12.29.07.19-.28.19-.29a.65.65,0,0,0,0-.19.28.28,0,0,1,0-.08V46.9h.1a.38.38,0,0,0,.17-.08.25.25,0,0,0,.06-.14h0l.06,0s0,0,0,.06a.31.31,0,0,0,.07.17.39.39,0,0,0,.25.08.36.36,0,0,0,.15-.08h0l.06,0a.52.52,0,0,0,.13.06.34.34,0,0,0,.17,0h0a.21.21,0,0,0,.18.06.22.22,0,0,0,.1-.09H22a.37.37,0,0,0,.22-.06l.11-.07.07,0s.1,0,.1,0a.34.34,0,0,1,0,.08.36.36,0,0,0,0,.11v0a.32.32,0,0,0,.16.2c.09,0,.17,0,.28-.06l.13-.08.06,0,0,0,.16-.1.14,0,.07,0a.35.35,0,0,0,.17.06.31.31,0,0,0,.16-.06l0,0,.06,0,.06,0,.1.07a.48.48,0,0,0,.27.07.37.37,0,0,0,.22-.22c0-.1-.05-.18-.11-.27a.75.75,0,0,0-.09-.09l-.07-.07v0l0,0a.34.34,0,0,0,.09-.08.82.82,0,0,0,.11-.3.28.28,0,0,0,0-.13l0,0v0h.09l.05,0a.22.22,0,0,0,.25,0,.2.2,0,0,0,.06-.14.19.19,0,0,0,.06.07.31.31,0,0,0,.13,0h0a.37.37,0,0,1,.06.13s0,.05,0,.07a.53.53,0,0,0,.05.19.38.38,0,0,0,.16.12h0a.37.37,0,0,1,0,.11v.06s0,0,0,0a.31.31,0,0,0,0,.21.26.26,0,0,0,.14.09.29.29,0,0,1,.07.08l.06.07.05,0,0,0,0,.1a.51.51,0,0,0,.1.21.58.58,0,0,0,.27.14.47.47,0,0,0,.15,0,.14.14,0,0,0,.09-.12l0-3.43h1.13a3.63,3.63,0,0,0,.56.12,9.47,9.47,0,0,0,1.18,0h.32l.27,0,.23,0a2.49,2.49,0,0,0,.37,0,2.29,2.29,0,0,0,.37-.12l1.42.06,3.09,0,1.49,0,2.82,0,9.52-.24,5.84-.29L60,43.06a.12.12,0,0,0,.08,0,.09.09,0,0,0,0-.09L58.4,16.15a.12.12,0,0,0-.13-.11h0l-9.22.51-9.58.27-5.58,0-5.64.09-6.5-.17-8.47-.27-4.15-.24L4.43,16s-.06,0-.09,0a.13.13,0,0,0,0,.09l-.42,6.68a.44.44,0,0,0,0,.21A.5.5,0,0,0,4,23.08Z"/></svg>