<?xml version="1.0" encoding="utf-8"?>
<!-- Generator: Adobe Illustrator 24.2.1, SVG Export Plug-In . SVG Version: 6.00 Build 0)  -->
<svg version="1.1" id="Layer_1" xmlns="http://www.w3.org/2000/svg" xmlns:xlink="http://www.w3.org/1999/xlink" x="0px" y="0px"
	 viewBox="0 0 1000 1000" style="enable-background:new 0 0 1000 1000;" xml:space="preserve">
<style type="text/css">
	.st0{fill-rule:evenodd;clip-rule:evenodd;}
	.st1{fill-rule:evenodd;clip-rule:evenodd;fill:#FFFFFF;}
</style>
<polygon class="st0" points="354.3,604.7 364,604.7 387.4,633.3 400.5,626.7 421,633.3 429.4,621.5 446.2,653.2 467.2,653.2 
	491.3,664.5 512.1,664.5 527.6,674.8 542.3,664.5 569.3,664.5 589,705.2 621.8,685.5 646.8,707.8 675.4,697.9 675.4,720.4 
	702.7,685.5 740.8,697.9 770.2,723.1 798.3,707.8 859.5,697.9 887.8,702.9 900.2,688.2 986,739.4 991,489.1 967.6,329.5 
	967.6,261.2 9.8,261.2 9.8,331.1 354,331.1 "/>
<polygon class="st1" points="617.5,354.1 633.5,386.5 669.2,391.7 643.4,416.9 649.5,452.5 617.5,435.7 585.5,452.5 591.6,416.9 
	565.8,391.7 601.5,386.5 "/>
</svg>
