<?xml version="1.0" encoding="utf-8"?>
<!-- Generator: Adobe Illustrator 24.2.1, SVG Export Plug-In . SVG Version: 6.00 Build 0)  -->
<svg version="1.1" id="Layer_1" xmlns="http://www.w3.org/2000/svg" xmlns:xlink="http://www.w3.org/1999/xlink" x="0px" y="0px"
	 viewBox="0 0 1000 1000" style="enable-background:new 0 0 1000 1000;" xml:space="preserve">
<style type="text/css">
	.st0{fill:#FFFFFF;}
</style>
<polygon points="903.1,23 706,23 445,19.4 226,15 221.4,151.2 215.3,156.6 205.1,182 186.7,174.5 160.8,161.3 132,160 121.5,180.4 
	132.7,204.1 130.9,240.6 132.2,273.5 137.5,307 127.4,339.9 129.5,355.2 136.1,378.5 146.2,408.7 162.9,441.4 188.1,475.1 
	143.8,508.1 129,585.2 99.5,622.9 105.4,653.2 109.3,678.9 133.4,703.4 116,736.7 97,735.6 82.2,767.5 296.9,859.3 626.9,986 
	916.8,984.2 "/>
<polygon class="st0" points="565.5,673.2 581.8,706.1 618.1,711.4 591.8,737 598,773.3 565.5,756.2 533,773.3 539.2,737 
	512.9,711.4 549.2,706.1 "/>
</svg>
