<?xml version="1.0" encoding="utf-8"?>
<!-- Generator: Adobe Illustrator 24.2.1, SVG Export Plug-In . SVG Version: 6.00 Build 0)  -->
<svg version="1.1" id="Layer_1" xmlns="http://www.w3.org/2000/svg" xmlns:xlink="http://www.w3.org/1999/xlink" x="0px" y="0px"
	 viewBox="0 0 1000 1000" style="enable-background:new 0 0 1000 1000;" xml:space="preserve">
<style type="text/css">
	.st0{fill:#FFFFFF;}
	.st1{fill-rule:evenodd;clip-rule:evenodd;fill:#FFFFFF;}
</style>
<polygon class="st0" points="229.8,300 245.9,332.7 282,337.7 255.9,363.2 262,399.3 229.8,382.1 197.7,399.3 203.8,363.2 
	177.7,337.7 213.8,332.7 "/>
<polygon class="st1" points="223,300.8 238.9,333.1 274.6,338.2 248.8,363.4 254.9,398.9 223,382.1 191.1,398.9 197.2,363.4 
	171.4,338.2 207.1,333.1 "/>
<g>
	<path d="M938.5,345.6c14.7-28.3,58.9-79.3,46.5-95.3c-10.1-12.4-29.6-22.7-37.4-26c-2.3-1-4.5-3.3-6.8-6.8L929.4,196
		c-2.3-4.5-6.8-7.8-12.4-7.8c-41.9-1-226.9-7.8-243.9,0c-19.2,9.1-52.1,5.6-67,9.1c-14.7,4.5-40.9,18.2-45.5,20.5
		c-4.5,2.3-39.7,20.5-58.9,18.2c-19.2-2.3-31.8-7.8-43.2-1c-11.4,6.8-22.7,40.9-56.6,18.2c-34.1-22.7-62.4-12.4-72.5-12.4
		c-9.1,0-20.5,22.7-48.8,25c-28.3,1-53.3-1-69.2-46.5s-9.1-64.7-40.9-65.7c-12.4,0-25-1-34.1-1c-11.4,0-18.2,12.4-12.4,22.7
		l23.8,36.4c0,0-15.9,9.1-31.8-9.1c-14.7-19.2-32.9-65.7-43.2-57.9c-10.1,7.8,0,80.6,2.3,94c0,1,0,2.3,0,3.3
		c-2.3,18.2-20.5,164.5-10.1,187c11.4,25,10.1,81.6,3.3,104.4c-6.8,22.7-16.9,47.5-15.9,62.4c1,14.7-4.5,27.3-19.2,58.9
		c-14.7,31.6-25.8,60.6-14.4,90.2C30,774.4,41.4,805,35.6,815.1C30,826.4,33.3,856,51.5,856h844.8c7.8,0,14.7-6.8,14.7-14.7
		c-1-60.1-5.6-280,0-294.9c6.8-16.9,34.1-46.5,5.6-53.3c-28.3-6.8-47.5-29.6-21.5-62.4C921.5,401.1,922.5,375.1,938.5,345.6z
		 M289.8,541.6L267,563.1c-1,1-1,3.3-1,4.5l5.6,30.6c0,4.5-4.5,7.8-7.8,5.6l-28.3-14.7c-1-1-3.3-1-4.5,0l-28.3,14.7
		c-4.5,2.3-9.1-1-7.8-5.6l5.6-30.6c1-1,0-3.3-1-4.5l-22.7-21.5c-2.3-3.3-1-7.8,3.3-9.1l31.8-4.5c1-1,2.3-2.3,3.3-3.3l13.6-28.3
		c1-3.3,6.8-3.3,9.1,0l13.6,28.3c0,2.3,1,3.3,3.3,3.3l31.8,4.5C290.8,532.5,293.1,538.4,289.8,541.6z"/>
</g>
<polygon points="316.3,667 233.4,623.2 150.2,666.7 166.2,574.2 99.2,508.6 192.1,495.2 233.8,411.2 275.2,495.4 368,509.1 
	300.7,574.5 "/>
<polygon class="st0" points="214.5,493.6 230.3,525.7 265.7,530.9 240.1,555.8 246.2,591.1 214.5,574.4 182.8,591.1 188.9,555.8 
	163.3,530.9 198.7,525.7 "/>
</svg>
