<?xml version="1.0" encoding="utf-8"?>
<!-- Generator: Adobe Illustrator 24.2.1, SVG Export Plug-In . SVG Version: 6.00 Build 0)  -->
<svg version="1.1" id="Layer_1" xmlns="http://www.w3.org/2000/svg" xmlns:xlink="http://www.w3.org/1999/xlink" x="0px" y="0px"
	 viewBox="0 0 1000 1000" style="enable-background:new 0 0 1000 1000;" xml:space="preserve">
<style type="text/css">
	.st0{fill:#FFFFFF;}
	.st1{fill-rule:evenodd;clip-rule:evenodd;}
	.st2{fill-rule:evenodd;clip-rule:evenodd;fill:#FFFFFF;}
</style>
<polygon class="st0" points="229.8,300 245.9,332.7 282,337.7 255.9,363.2 262,399.3 229.8,382.1 197.7,399.3 203.8,363.2 
	177.7,337.7 213.8,332.7 "/>
<polygon class="st1" points="95.1,689 95.1,601.9 78.4,511.6 67.3,494.1 57.4,440.4 26.5,395.4 16.4,345.5 13.6,280.2 153.3,331.1 
	194.6,321.7 216.1,290.8 201.2,249.5 232.8,223.5 194.6,179.9 975.1,190.6 975.1,674.4 986,708 986,741.2 735.1,741.2 705.7,755.4 
	654.9,754.9 643.2,763 586,780.9 550,796.9 530.6,783.5 460.9,808.5 441.4,794.1 372.6,794.1 315.4,819.7 265,808.5 248,731.3 
	216.1,705.2 191.8,713.3 179.2,689 153.3,694.6 143.7,683.7 121.7,694.6 "/>
<polygon class="st2" points="223,300.8 238.9,333.1 274.6,338.2 248.8,363.4 254.9,398.9 223,382.1 191.1,398.9 197.2,363.4 
	171.4,338.2 207.1,333.1 "/>
</svg>
