<?xml version="1.0" encoding="utf-8"?>
<!-- Generator: Adobe Illustrator 24.2.1, SVG Export Plug-In . SVG Version: 6.00 Build 0)  -->
<svg version="1.1" id="Layer_1" xmlns="http://www.w3.org/2000/svg" xmlns:xlink="http://www.w3.org/1999/xlink" x="0px" y="0px"
	 viewBox="0 0 1000 1000" style="enable-background:new 0 0 1000 1000;" xml:space="preserve">
<style type="text/css">
	.st0{fill:#FFFFFF;}
</style>
<g>
	<path d="M45.5,36.1h343.6c10,0,17.6,7.6,17.6,17.6v248.5c0,5.5,2.1,11.1,7.6,14.5l498.1,366.7c0,0,86.1,62.9,56.3,85
		c-29.8,22.1-54.2,36.3-46.3,60.8c5.5,24.2,38.7,79.5,3.4,79.5c-28.7,0-171.1,2.1-219.8,6.6c-9,1.1-16.6-4.5-18.7-13.2
		c-6.6-24.2-22.1-61.9-55.3-71.9c-46.3-14.5-58.4-14.5-68.5-36.3c-6.6-15.5-32.1-13.2-46.3-10c-6.6,1.1-13.2-1.1-17.6-6.6
		c-10-11.1-27.6-29.7-45.3-26.6c-24.2,5.5-94,2.1-107.2-38.7c-13.2-40.8-9-46.3-41.9-77.4c-33.2-30.8-79.5-51.9-75-90.6
		c3.4-38.7,16.6-33.2-11.1-51.9c-27.6-18.7-40.8-23.2-44.2-41.9c-3.4-23.2-24.2-51.9-74-97.1c-41.9-38.7-44.2-81.6-44.2-95
		c0-3.4-1.1-6.6-2.1-10c-3.4-6.6-12.1-17.6-28.7-30.8c-25.3-22.1-25.3-38.7-9-75c13.2-29.8,22.1-51.9,12.1-80.6
		C24.7,48.2,33.4,36.1,45.5,36.1z"/>
</g>
<polygon class="st0" points="133.9,174.2 149.4,205.6 184,210.6 158.9,235 164.9,269.5 133.9,253.2 102.9,269.5 108.8,235 
	83.8,210.6 118.4,205.6 "/>
</svg>
